%TF.GenerationSoftware,KiCad,Pcbnew,(7.0.0)*%
%TF.CreationDate,2023-07-05T22:29:38-07:00*%
%TF.ProjectId,pico_radar_speed_sign,7069636f-5f72-4616-9461-725f73706565,A*%
%TF.SameCoordinates,Original*%
%TF.FileFunction,Copper,L1,Top*%
%TF.FilePolarity,Positive*%
%FSLAX46Y46*%
G04 Gerber Fmt 4.6, Leading zero omitted, Abs format (unit mm)*
G04 Created by KiCad (PCBNEW (7.0.0)) date 2023-07-05 22:29:38*
%MOMM*%
%LPD*%
G01*
G04 APERTURE LIST*
G04 Aperture macros list*
%AMRoundRect*
0 Rectangle with rounded corners*
0 $1 Rounding radius*
0 $2 $3 $4 $5 $6 $7 $8 $9 X,Y pos of 4 corners*
0 Add a 4 corners polygon primitive as box body*
4,1,4,$2,$3,$4,$5,$6,$7,$8,$9,$2,$3,0*
0 Add four circle primitives for the rounded corners*
1,1,$1+$1,$2,$3*
1,1,$1+$1,$4,$5*
1,1,$1+$1,$6,$7*
1,1,$1+$1,$8,$9*
0 Add four rect primitives between the rounded corners*
20,1,$1+$1,$2,$3,$4,$5,0*
20,1,$1+$1,$4,$5,$6,$7,0*
20,1,$1+$1,$6,$7,$8,$9,0*
20,1,$1+$1,$8,$9,$2,$3,0*%
G04 Aperture macros list end*
%ADD10C,0.100000*%
%ADD11C,0.150000*%
%ADD12C,0.300000*%
%ADD13C,0.400000*%
%TA.AperFunction,ComponentPad*%
%ADD14R,1.700000X1.700000*%
%TD*%
%TA.AperFunction,ComponentPad*%
%ADD15O,1.700000X1.700000*%
%TD*%
%TA.AperFunction,ComponentPad*%
%ADD16RoundRect,0.250000X0.625000X-0.350000X0.625000X0.350000X-0.625000X0.350000X-0.625000X-0.350000X0*%
%TD*%
%TA.AperFunction,ComponentPad*%
%ADD17O,1.750000X1.200000*%
%TD*%
%TA.AperFunction,SMDPad,CuDef*%
%ADD18RoundRect,0.250000X0.475000X-0.250000X0.475000X0.250000X-0.475000X0.250000X-0.475000X-0.250000X0*%
%TD*%
%TA.AperFunction,ComponentPad*%
%ADD19R,2.200000X2.200000*%
%TD*%
%TA.AperFunction,ComponentPad*%
%ADD20C,2.200000*%
%TD*%
%TA.AperFunction,SMDPad,CuDef*%
%ADD21RoundRect,0.150000X-0.825000X-0.150000X0.825000X-0.150000X0.825000X0.150000X-0.825000X0.150000X0*%
%TD*%
%TA.AperFunction,SMDPad,CuDef*%
%ADD22RoundRect,0.250000X0.450000X-0.262500X0.450000X0.262500X-0.450000X0.262500X-0.450000X-0.262500X0*%
%TD*%
%TA.AperFunction,SMDPad,CuDef*%
%ADD23RoundRect,0.250000X2.050000X0.300000X-2.050000X0.300000X-2.050000X-0.300000X2.050000X-0.300000X0*%
%TD*%
%TA.AperFunction,SMDPad,CuDef*%
%ADD24RoundRect,0.250002X4.449998X5.149998X-4.449998X5.149998X-4.449998X-5.149998X4.449998X-5.149998X0*%
%TD*%
%TA.AperFunction,SMDPad,CuDef*%
%ADD25RoundRect,0.250000X2.025000X2.375000X-2.025000X2.375000X-2.025000X-2.375000X2.025000X-2.375000X0*%
%TD*%
%TA.AperFunction,SMDPad,CuDef*%
%ADD26RoundRect,0.250000X0.262500X0.450000X-0.262500X0.450000X-0.262500X-0.450000X0.262500X-0.450000X0*%
%TD*%
%TA.AperFunction,SMDPad,CuDef*%
%ADD27RoundRect,0.250000X-0.262500X-0.450000X0.262500X-0.450000X0.262500X0.450000X-0.262500X0.450000X0*%
%TD*%
%TA.AperFunction,SMDPad,CuDef*%
%ADD28R,4.100000X4.100000*%
%TD*%
%TA.AperFunction,ComponentPad*%
%ADD29R,2.600000X2.600000*%
%TD*%
%TA.AperFunction,ComponentPad*%
%ADD30C,2.600000*%
%TD*%
%TA.AperFunction,SMDPad,CuDef*%
%ADD31RoundRect,0.250000X0.650000X-1.000000X0.650000X1.000000X-0.650000X1.000000X-0.650000X-1.000000X0*%
%TD*%
%TA.AperFunction,SMDPad,CuDef*%
%ADD32RoundRect,0.250000X1.000000X0.650000X-1.000000X0.650000X-1.000000X-0.650000X1.000000X-0.650000X0*%
%TD*%
%TA.AperFunction,ComponentPad*%
%ADD33R,1.600000X1.600000*%
%TD*%
%TA.AperFunction,ComponentPad*%
%ADD34C,1.600000*%
%TD*%
%TA.AperFunction,ComponentPad*%
%ADD35R,2.000000X2.000000*%
%TD*%
%TA.AperFunction,ComponentPad*%
%ADD36C,2.000000*%
%TD*%
%TA.AperFunction,SMDPad,CuDef*%
%ADD37RoundRect,0.250000X0.250000X0.475000X-0.250000X0.475000X-0.250000X-0.475000X0.250000X-0.475000X0*%
%TD*%
%TA.AperFunction,ViaPad*%
%ADD38C,1.000000*%
%TD*%
%TA.AperFunction,Conductor*%
%ADD39C,0.800000*%
%TD*%
%TA.AperFunction,Conductor*%
%ADD40C,0.250000*%
%TD*%
%TA.AperFunction,Conductor*%
%ADD41C,0.400000*%
%TD*%
G04 APERTURE END LIST*
D10*
D11*
X159400000Y-171900000D02*
X267400000Y-171900000D01*
X267400000Y-203900000D01*
X159400000Y-203900000D01*
X159400000Y-171900000D01*
D10*
D11*
X10000000Y-10000000D02*
X269400000Y-10000000D01*
X269400000Y-205900000D01*
X10000000Y-205900000D01*
X10000000Y-10000000D01*
D10*
D11*
X12000000Y-12000000D02*
X267400000Y-12000000D01*
X267400000Y-203900000D01*
X12000000Y-203900000D01*
X12000000Y-12000000D01*
D10*
D11*
X60000000Y-12000000D02*
X60000000Y-10000000D01*
D10*
D11*
X110000000Y-12000000D02*
X110000000Y-10000000D01*
D10*
D11*
X160000000Y-12000000D02*
X160000000Y-10000000D01*
D10*
D11*
X210000000Y-12000000D02*
X210000000Y-10000000D01*
D10*
D11*
X260000000Y-12000000D02*
X260000000Y-10000000D01*
D10*
D11*
X35990476Y-11477595D02*
X35247619Y-11477595D01*
X35619047Y-11477595D02*
X35619047Y-10177595D01*
X35619047Y-10177595D02*
X35495238Y-10363309D01*
X35495238Y-10363309D02*
X35371428Y-10487119D01*
X35371428Y-10487119D02*
X35247619Y-10549023D01*
D10*
D11*
X85247619Y-10301404D02*
X85309523Y-10239500D01*
X85309523Y-10239500D02*
X85433333Y-10177595D01*
X85433333Y-10177595D02*
X85742857Y-10177595D01*
X85742857Y-10177595D02*
X85866666Y-10239500D01*
X85866666Y-10239500D02*
X85928571Y-10301404D01*
X85928571Y-10301404D02*
X85990476Y-10425214D01*
X85990476Y-10425214D02*
X85990476Y-10549023D01*
X85990476Y-10549023D02*
X85928571Y-10734738D01*
X85928571Y-10734738D02*
X85185714Y-11477595D01*
X85185714Y-11477595D02*
X85990476Y-11477595D01*
D10*
D11*
X135185714Y-10177595D02*
X135990476Y-10177595D01*
X135990476Y-10177595D02*
X135557142Y-10672833D01*
X135557142Y-10672833D02*
X135742857Y-10672833D01*
X135742857Y-10672833D02*
X135866666Y-10734738D01*
X135866666Y-10734738D02*
X135928571Y-10796642D01*
X135928571Y-10796642D02*
X135990476Y-10920452D01*
X135990476Y-10920452D02*
X135990476Y-11229976D01*
X135990476Y-11229976D02*
X135928571Y-11353785D01*
X135928571Y-11353785D02*
X135866666Y-11415690D01*
X135866666Y-11415690D02*
X135742857Y-11477595D01*
X135742857Y-11477595D02*
X135371428Y-11477595D01*
X135371428Y-11477595D02*
X135247619Y-11415690D01*
X135247619Y-11415690D02*
X135185714Y-11353785D01*
D10*
D11*
X185866666Y-10610928D02*
X185866666Y-11477595D01*
X185557142Y-10115690D02*
X185247619Y-11044261D01*
X185247619Y-11044261D02*
X186052380Y-11044261D01*
D10*
D11*
X235928571Y-10177595D02*
X235309523Y-10177595D01*
X235309523Y-10177595D02*
X235247619Y-10796642D01*
X235247619Y-10796642D02*
X235309523Y-10734738D01*
X235309523Y-10734738D02*
X235433333Y-10672833D01*
X235433333Y-10672833D02*
X235742857Y-10672833D01*
X235742857Y-10672833D02*
X235866666Y-10734738D01*
X235866666Y-10734738D02*
X235928571Y-10796642D01*
X235928571Y-10796642D02*
X235990476Y-10920452D01*
X235990476Y-10920452D02*
X235990476Y-11229976D01*
X235990476Y-11229976D02*
X235928571Y-11353785D01*
X235928571Y-11353785D02*
X235866666Y-11415690D01*
X235866666Y-11415690D02*
X235742857Y-11477595D01*
X235742857Y-11477595D02*
X235433333Y-11477595D01*
X235433333Y-11477595D02*
X235309523Y-11415690D01*
X235309523Y-11415690D02*
X235247619Y-11353785D01*
D10*
D11*
X60000000Y-203900000D02*
X60000000Y-205900000D01*
D10*
D11*
X110000000Y-203900000D02*
X110000000Y-205900000D01*
D10*
D11*
X160000000Y-203900000D02*
X160000000Y-205900000D01*
D10*
D11*
X210000000Y-203900000D02*
X210000000Y-205900000D01*
D10*
D11*
X260000000Y-203900000D02*
X260000000Y-205900000D01*
D10*
D11*
X35990476Y-205377595D02*
X35247619Y-205377595D01*
X35619047Y-205377595D02*
X35619047Y-204077595D01*
X35619047Y-204077595D02*
X35495238Y-204263309D01*
X35495238Y-204263309D02*
X35371428Y-204387119D01*
X35371428Y-204387119D02*
X35247619Y-204449023D01*
D10*
D11*
X85247619Y-204201404D02*
X85309523Y-204139500D01*
X85309523Y-204139500D02*
X85433333Y-204077595D01*
X85433333Y-204077595D02*
X85742857Y-204077595D01*
X85742857Y-204077595D02*
X85866666Y-204139500D01*
X85866666Y-204139500D02*
X85928571Y-204201404D01*
X85928571Y-204201404D02*
X85990476Y-204325214D01*
X85990476Y-204325214D02*
X85990476Y-204449023D01*
X85990476Y-204449023D02*
X85928571Y-204634738D01*
X85928571Y-204634738D02*
X85185714Y-205377595D01*
X85185714Y-205377595D02*
X85990476Y-205377595D01*
D10*
D11*
X135185714Y-204077595D02*
X135990476Y-204077595D01*
X135990476Y-204077595D02*
X135557142Y-204572833D01*
X135557142Y-204572833D02*
X135742857Y-204572833D01*
X135742857Y-204572833D02*
X135866666Y-204634738D01*
X135866666Y-204634738D02*
X135928571Y-204696642D01*
X135928571Y-204696642D02*
X135990476Y-204820452D01*
X135990476Y-204820452D02*
X135990476Y-205129976D01*
X135990476Y-205129976D02*
X135928571Y-205253785D01*
X135928571Y-205253785D02*
X135866666Y-205315690D01*
X135866666Y-205315690D02*
X135742857Y-205377595D01*
X135742857Y-205377595D02*
X135371428Y-205377595D01*
X135371428Y-205377595D02*
X135247619Y-205315690D01*
X135247619Y-205315690D02*
X135185714Y-205253785D01*
D10*
D11*
X185866666Y-204510928D02*
X185866666Y-205377595D01*
X185557142Y-204015690D02*
X185247619Y-204944261D01*
X185247619Y-204944261D02*
X186052380Y-204944261D01*
D10*
D11*
X235928571Y-204077595D02*
X235309523Y-204077595D01*
X235309523Y-204077595D02*
X235247619Y-204696642D01*
X235247619Y-204696642D02*
X235309523Y-204634738D01*
X235309523Y-204634738D02*
X235433333Y-204572833D01*
X235433333Y-204572833D02*
X235742857Y-204572833D01*
X235742857Y-204572833D02*
X235866666Y-204634738D01*
X235866666Y-204634738D02*
X235928571Y-204696642D01*
X235928571Y-204696642D02*
X235990476Y-204820452D01*
X235990476Y-204820452D02*
X235990476Y-205129976D01*
X235990476Y-205129976D02*
X235928571Y-205253785D01*
X235928571Y-205253785D02*
X235866666Y-205315690D01*
X235866666Y-205315690D02*
X235742857Y-205377595D01*
X235742857Y-205377595D02*
X235433333Y-205377595D01*
X235433333Y-205377595D02*
X235309523Y-205315690D01*
X235309523Y-205315690D02*
X235247619Y-205253785D01*
D10*
D11*
X10000000Y-60000000D02*
X12000000Y-60000000D01*
D10*
D11*
X10000000Y-110000000D02*
X12000000Y-110000000D01*
D10*
D11*
X10000000Y-160000000D02*
X12000000Y-160000000D01*
D10*
D11*
X10690476Y-35106166D02*
X11309523Y-35106166D01*
X10566666Y-35477595D02*
X10999999Y-34177595D01*
X10999999Y-34177595D02*
X11433333Y-35477595D01*
D10*
D11*
X11092857Y-84796642D02*
X11278571Y-84858547D01*
X11278571Y-84858547D02*
X11340476Y-84920452D01*
X11340476Y-84920452D02*
X11402380Y-85044261D01*
X11402380Y-85044261D02*
X11402380Y-85229976D01*
X11402380Y-85229976D02*
X11340476Y-85353785D01*
X11340476Y-85353785D02*
X11278571Y-85415690D01*
X11278571Y-85415690D02*
X11154761Y-85477595D01*
X11154761Y-85477595D02*
X10659523Y-85477595D01*
X10659523Y-85477595D02*
X10659523Y-84177595D01*
X10659523Y-84177595D02*
X11092857Y-84177595D01*
X11092857Y-84177595D02*
X11216666Y-84239500D01*
X11216666Y-84239500D02*
X11278571Y-84301404D01*
X11278571Y-84301404D02*
X11340476Y-84425214D01*
X11340476Y-84425214D02*
X11340476Y-84549023D01*
X11340476Y-84549023D02*
X11278571Y-84672833D01*
X11278571Y-84672833D02*
X11216666Y-84734738D01*
X11216666Y-84734738D02*
X11092857Y-84796642D01*
X11092857Y-84796642D02*
X10659523Y-84796642D01*
D10*
D11*
X11402380Y-135353785D02*
X11340476Y-135415690D01*
X11340476Y-135415690D02*
X11154761Y-135477595D01*
X11154761Y-135477595D02*
X11030952Y-135477595D01*
X11030952Y-135477595D02*
X10845238Y-135415690D01*
X10845238Y-135415690D02*
X10721428Y-135291880D01*
X10721428Y-135291880D02*
X10659523Y-135168071D01*
X10659523Y-135168071D02*
X10597619Y-134920452D01*
X10597619Y-134920452D02*
X10597619Y-134734738D01*
X10597619Y-134734738D02*
X10659523Y-134487119D01*
X10659523Y-134487119D02*
X10721428Y-134363309D01*
X10721428Y-134363309D02*
X10845238Y-134239500D01*
X10845238Y-134239500D02*
X11030952Y-134177595D01*
X11030952Y-134177595D02*
X11154761Y-134177595D01*
X11154761Y-134177595D02*
X11340476Y-134239500D01*
X11340476Y-134239500D02*
X11402380Y-134301404D01*
D10*
D11*
X10659523Y-185477595D02*
X10659523Y-184177595D01*
X10659523Y-184177595D02*
X10969047Y-184177595D01*
X10969047Y-184177595D02*
X11154761Y-184239500D01*
X11154761Y-184239500D02*
X11278571Y-184363309D01*
X11278571Y-184363309D02*
X11340476Y-184487119D01*
X11340476Y-184487119D02*
X11402380Y-184734738D01*
X11402380Y-184734738D02*
X11402380Y-184920452D01*
X11402380Y-184920452D02*
X11340476Y-185168071D01*
X11340476Y-185168071D02*
X11278571Y-185291880D01*
X11278571Y-185291880D02*
X11154761Y-185415690D01*
X11154761Y-185415690D02*
X10969047Y-185477595D01*
X10969047Y-185477595D02*
X10659523Y-185477595D01*
D10*
D11*
X269400000Y-60000000D02*
X267400000Y-60000000D01*
D10*
D11*
X269400000Y-110000000D02*
X267400000Y-110000000D01*
D10*
D11*
X269400000Y-160000000D02*
X267400000Y-160000000D01*
D10*
D11*
X268090476Y-35106166D02*
X268709523Y-35106166D01*
X267966666Y-35477595D02*
X268399999Y-34177595D01*
X268399999Y-34177595D02*
X268833333Y-35477595D01*
D10*
D11*
X268492857Y-84796642D02*
X268678571Y-84858547D01*
X268678571Y-84858547D02*
X268740476Y-84920452D01*
X268740476Y-84920452D02*
X268802380Y-85044261D01*
X268802380Y-85044261D02*
X268802380Y-85229976D01*
X268802380Y-85229976D02*
X268740476Y-85353785D01*
X268740476Y-85353785D02*
X268678571Y-85415690D01*
X268678571Y-85415690D02*
X268554761Y-85477595D01*
X268554761Y-85477595D02*
X268059523Y-85477595D01*
X268059523Y-85477595D02*
X268059523Y-84177595D01*
X268059523Y-84177595D02*
X268492857Y-84177595D01*
X268492857Y-84177595D02*
X268616666Y-84239500D01*
X268616666Y-84239500D02*
X268678571Y-84301404D01*
X268678571Y-84301404D02*
X268740476Y-84425214D01*
X268740476Y-84425214D02*
X268740476Y-84549023D01*
X268740476Y-84549023D02*
X268678571Y-84672833D01*
X268678571Y-84672833D02*
X268616666Y-84734738D01*
X268616666Y-84734738D02*
X268492857Y-84796642D01*
X268492857Y-84796642D02*
X268059523Y-84796642D01*
D10*
D11*
X268802380Y-135353785D02*
X268740476Y-135415690D01*
X268740476Y-135415690D02*
X268554761Y-135477595D01*
X268554761Y-135477595D02*
X268430952Y-135477595D01*
X268430952Y-135477595D02*
X268245238Y-135415690D01*
X268245238Y-135415690D02*
X268121428Y-135291880D01*
X268121428Y-135291880D02*
X268059523Y-135168071D01*
X268059523Y-135168071D02*
X267997619Y-134920452D01*
X267997619Y-134920452D02*
X267997619Y-134734738D01*
X267997619Y-134734738D02*
X268059523Y-134487119D01*
X268059523Y-134487119D02*
X268121428Y-134363309D01*
X268121428Y-134363309D02*
X268245238Y-134239500D01*
X268245238Y-134239500D02*
X268430952Y-134177595D01*
X268430952Y-134177595D02*
X268554761Y-134177595D01*
X268554761Y-134177595D02*
X268740476Y-134239500D01*
X268740476Y-134239500D02*
X268802380Y-134301404D01*
D10*
D11*
X268059523Y-185477595D02*
X268059523Y-184177595D01*
X268059523Y-184177595D02*
X268369047Y-184177595D01*
X268369047Y-184177595D02*
X268554761Y-184239500D01*
X268554761Y-184239500D02*
X268678571Y-184363309D01*
X268678571Y-184363309D02*
X268740476Y-184487119D01*
X268740476Y-184487119D02*
X268802380Y-184734738D01*
X268802380Y-184734738D02*
X268802380Y-184920452D01*
X268802380Y-184920452D02*
X268740476Y-185168071D01*
X268740476Y-185168071D02*
X268678571Y-185291880D01*
X268678571Y-185291880D02*
X268554761Y-185415690D01*
X268554761Y-185415690D02*
X268369047Y-185477595D01*
X268369047Y-185477595D02*
X268059523Y-185477595D01*
D10*
D11*
X182757142Y-199551071D02*
X182757142Y-198051071D01*
X182757142Y-198051071D02*
X183114285Y-198051071D01*
X183114285Y-198051071D02*
X183328571Y-198122500D01*
X183328571Y-198122500D02*
X183471428Y-198265357D01*
X183471428Y-198265357D02*
X183542857Y-198408214D01*
X183542857Y-198408214D02*
X183614285Y-198693928D01*
X183614285Y-198693928D02*
X183614285Y-198908214D01*
X183614285Y-198908214D02*
X183542857Y-199193928D01*
X183542857Y-199193928D02*
X183471428Y-199336785D01*
X183471428Y-199336785D02*
X183328571Y-199479642D01*
X183328571Y-199479642D02*
X183114285Y-199551071D01*
X183114285Y-199551071D02*
X182757142Y-199551071D01*
X184900000Y-199551071D02*
X184900000Y-198765357D01*
X184900000Y-198765357D02*
X184828571Y-198622500D01*
X184828571Y-198622500D02*
X184685714Y-198551071D01*
X184685714Y-198551071D02*
X184400000Y-198551071D01*
X184400000Y-198551071D02*
X184257142Y-198622500D01*
X184900000Y-199479642D02*
X184757142Y-199551071D01*
X184757142Y-199551071D02*
X184400000Y-199551071D01*
X184400000Y-199551071D02*
X184257142Y-199479642D01*
X184257142Y-199479642D02*
X184185714Y-199336785D01*
X184185714Y-199336785D02*
X184185714Y-199193928D01*
X184185714Y-199193928D02*
X184257142Y-199051071D01*
X184257142Y-199051071D02*
X184400000Y-198979642D01*
X184400000Y-198979642D02*
X184757142Y-198979642D01*
X184757142Y-198979642D02*
X184900000Y-198908214D01*
X185400000Y-198551071D02*
X185971428Y-198551071D01*
X185614285Y-198051071D02*
X185614285Y-199336785D01*
X185614285Y-199336785D02*
X185685714Y-199479642D01*
X185685714Y-199479642D02*
X185828571Y-199551071D01*
X185828571Y-199551071D02*
X185971428Y-199551071D01*
X187042857Y-199479642D02*
X186900000Y-199551071D01*
X186900000Y-199551071D02*
X186614286Y-199551071D01*
X186614286Y-199551071D02*
X186471428Y-199479642D01*
X186471428Y-199479642D02*
X186400000Y-199336785D01*
X186400000Y-199336785D02*
X186400000Y-198765357D01*
X186400000Y-198765357D02*
X186471428Y-198622500D01*
X186471428Y-198622500D02*
X186614286Y-198551071D01*
X186614286Y-198551071D02*
X186900000Y-198551071D01*
X186900000Y-198551071D02*
X187042857Y-198622500D01*
X187042857Y-198622500D02*
X187114286Y-198765357D01*
X187114286Y-198765357D02*
X187114286Y-198908214D01*
X187114286Y-198908214D02*
X186400000Y-199051071D01*
X187757142Y-199408214D02*
X187828571Y-199479642D01*
X187828571Y-199479642D02*
X187757142Y-199551071D01*
X187757142Y-199551071D02*
X187685714Y-199479642D01*
X187685714Y-199479642D02*
X187757142Y-199408214D01*
X187757142Y-199408214D02*
X187757142Y-199551071D01*
X187757142Y-198622500D02*
X187828571Y-198693928D01*
X187828571Y-198693928D02*
X187757142Y-198765357D01*
X187757142Y-198765357D02*
X187685714Y-198693928D01*
X187685714Y-198693928D02*
X187757142Y-198622500D01*
X187757142Y-198622500D02*
X187757142Y-198765357D01*
X189300000Y-198193928D02*
X189371428Y-198122500D01*
X189371428Y-198122500D02*
X189514286Y-198051071D01*
X189514286Y-198051071D02*
X189871428Y-198051071D01*
X189871428Y-198051071D02*
X190014286Y-198122500D01*
X190014286Y-198122500D02*
X190085714Y-198193928D01*
X190085714Y-198193928D02*
X190157143Y-198336785D01*
X190157143Y-198336785D02*
X190157143Y-198479642D01*
X190157143Y-198479642D02*
X190085714Y-198693928D01*
X190085714Y-198693928D02*
X189228571Y-199551071D01*
X189228571Y-199551071D02*
X190157143Y-199551071D01*
X191085714Y-198051071D02*
X191228571Y-198051071D01*
X191228571Y-198051071D02*
X191371428Y-198122500D01*
X191371428Y-198122500D02*
X191442857Y-198193928D01*
X191442857Y-198193928D02*
X191514285Y-198336785D01*
X191514285Y-198336785D02*
X191585714Y-198622500D01*
X191585714Y-198622500D02*
X191585714Y-198979642D01*
X191585714Y-198979642D02*
X191514285Y-199265357D01*
X191514285Y-199265357D02*
X191442857Y-199408214D01*
X191442857Y-199408214D02*
X191371428Y-199479642D01*
X191371428Y-199479642D02*
X191228571Y-199551071D01*
X191228571Y-199551071D02*
X191085714Y-199551071D01*
X191085714Y-199551071D02*
X190942857Y-199479642D01*
X190942857Y-199479642D02*
X190871428Y-199408214D01*
X190871428Y-199408214D02*
X190799999Y-199265357D01*
X190799999Y-199265357D02*
X190728571Y-198979642D01*
X190728571Y-198979642D02*
X190728571Y-198622500D01*
X190728571Y-198622500D02*
X190799999Y-198336785D01*
X190799999Y-198336785D02*
X190871428Y-198193928D01*
X190871428Y-198193928D02*
X190942857Y-198122500D01*
X190942857Y-198122500D02*
X191085714Y-198051071D01*
X192157142Y-198193928D02*
X192228570Y-198122500D01*
X192228570Y-198122500D02*
X192371428Y-198051071D01*
X192371428Y-198051071D02*
X192728570Y-198051071D01*
X192728570Y-198051071D02*
X192871428Y-198122500D01*
X192871428Y-198122500D02*
X192942856Y-198193928D01*
X192942856Y-198193928D02*
X193014285Y-198336785D01*
X193014285Y-198336785D02*
X193014285Y-198479642D01*
X193014285Y-198479642D02*
X192942856Y-198693928D01*
X192942856Y-198693928D02*
X192085713Y-199551071D01*
X192085713Y-199551071D02*
X193014285Y-199551071D01*
X193514284Y-198051071D02*
X194442856Y-198051071D01*
X194442856Y-198051071D02*
X193942856Y-198622500D01*
X193942856Y-198622500D02*
X194157141Y-198622500D01*
X194157141Y-198622500D02*
X194299999Y-198693928D01*
X194299999Y-198693928D02*
X194371427Y-198765357D01*
X194371427Y-198765357D02*
X194442856Y-198908214D01*
X194442856Y-198908214D02*
X194442856Y-199265357D01*
X194442856Y-199265357D02*
X194371427Y-199408214D01*
X194371427Y-199408214D02*
X194299999Y-199479642D01*
X194299999Y-199479642D02*
X194157141Y-199551071D01*
X194157141Y-199551071D02*
X193728570Y-199551071D01*
X193728570Y-199551071D02*
X193585713Y-199479642D01*
X193585713Y-199479642D02*
X193514284Y-199408214D01*
X195085712Y-198979642D02*
X196228570Y-198979642D01*
X197228570Y-198051071D02*
X197371427Y-198051071D01*
X197371427Y-198051071D02*
X197514284Y-198122500D01*
X197514284Y-198122500D02*
X197585713Y-198193928D01*
X197585713Y-198193928D02*
X197657141Y-198336785D01*
X197657141Y-198336785D02*
X197728570Y-198622500D01*
X197728570Y-198622500D02*
X197728570Y-198979642D01*
X197728570Y-198979642D02*
X197657141Y-199265357D01*
X197657141Y-199265357D02*
X197585713Y-199408214D01*
X197585713Y-199408214D02*
X197514284Y-199479642D01*
X197514284Y-199479642D02*
X197371427Y-199551071D01*
X197371427Y-199551071D02*
X197228570Y-199551071D01*
X197228570Y-199551071D02*
X197085713Y-199479642D01*
X197085713Y-199479642D02*
X197014284Y-199408214D01*
X197014284Y-199408214D02*
X196942855Y-199265357D01*
X196942855Y-199265357D02*
X196871427Y-198979642D01*
X196871427Y-198979642D02*
X196871427Y-198622500D01*
X196871427Y-198622500D02*
X196942855Y-198336785D01*
X196942855Y-198336785D02*
X197014284Y-198193928D01*
X197014284Y-198193928D02*
X197085713Y-198122500D01*
X197085713Y-198122500D02*
X197228570Y-198051071D01*
X198228569Y-198051071D02*
X199228569Y-198051071D01*
X199228569Y-198051071D02*
X198585712Y-199551071D01*
X199799997Y-198979642D02*
X200942855Y-198979642D01*
X201942855Y-198051071D02*
X202085712Y-198051071D01*
X202085712Y-198051071D02*
X202228569Y-198122500D01*
X202228569Y-198122500D02*
X202299998Y-198193928D01*
X202299998Y-198193928D02*
X202371426Y-198336785D01*
X202371426Y-198336785D02*
X202442855Y-198622500D01*
X202442855Y-198622500D02*
X202442855Y-198979642D01*
X202442855Y-198979642D02*
X202371426Y-199265357D01*
X202371426Y-199265357D02*
X202299998Y-199408214D01*
X202299998Y-199408214D02*
X202228569Y-199479642D01*
X202228569Y-199479642D02*
X202085712Y-199551071D01*
X202085712Y-199551071D02*
X201942855Y-199551071D01*
X201942855Y-199551071D02*
X201799998Y-199479642D01*
X201799998Y-199479642D02*
X201728569Y-199408214D01*
X201728569Y-199408214D02*
X201657140Y-199265357D01*
X201657140Y-199265357D02*
X201585712Y-198979642D01*
X201585712Y-198979642D02*
X201585712Y-198622500D01*
X201585712Y-198622500D02*
X201657140Y-198336785D01*
X201657140Y-198336785D02*
X201728569Y-198193928D01*
X201728569Y-198193928D02*
X201799998Y-198122500D01*
X201799998Y-198122500D02*
X201942855Y-198051071D01*
X203799997Y-198051071D02*
X203085711Y-198051071D01*
X203085711Y-198051071D02*
X203014283Y-198765357D01*
X203014283Y-198765357D02*
X203085711Y-198693928D01*
X203085711Y-198693928D02*
X203228569Y-198622500D01*
X203228569Y-198622500D02*
X203585711Y-198622500D01*
X203585711Y-198622500D02*
X203728569Y-198693928D01*
X203728569Y-198693928D02*
X203799997Y-198765357D01*
X203799997Y-198765357D02*
X203871426Y-198908214D01*
X203871426Y-198908214D02*
X203871426Y-199265357D01*
X203871426Y-199265357D02*
X203799997Y-199408214D01*
X203799997Y-199408214D02*
X203728569Y-199479642D01*
X203728569Y-199479642D02*
X203585711Y-199551071D01*
X203585711Y-199551071D02*
X203228569Y-199551071D01*
X203228569Y-199551071D02*
X203085711Y-199479642D01*
X203085711Y-199479642D02*
X203014283Y-199408214D01*
D10*
D11*
X159400000Y-200400000D02*
X267400000Y-200400000D01*
D10*
D11*
X160757142Y-202351071D02*
X160757142Y-200851071D01*
X161614285Y-202351071D02*
X160971428Y-201493928D01*
X161614285Y-200851071D02*
X160757142Y-201708214D01*
X162257142Y-202351071D02*
X162257142Y-201351071D01*
X162257142Y-200851071D02*
X162185714Y-200922500D01*
X162185714Y-200922500D02*
X162257142Y-200993928D01*
X162257142Y-200993928D02*
X162328571Y-200922500D01*
X162328571Y-200922500D02*
X162257142Y-200851071D01*
X162257142Y-200851071D02*
X162257142Y-200993928D01*
X163828571Y-202208214D02*
X163757143Y-202279642D01*
X163757143Y-202279642D02*
X163542857Y-202351071D01*
X163542857Y-202351071D02*
X163400000Y-202351071D01*
X163400000Y-202351071D02*
X163185714Y-202279642D01*
X163185714Y-202279642D02*
X163042857Y-202136785D01*
X163042857Y-202136785D02*
X162971428Y-201993928D01*
X162971428Y-201993928D02*
X162900000Y-201708214D01*
X162900000Y-201708214D02*
X162900000Y-201493928D01*
X162900000Y-201493928D02*
X162971428Y-201208214D01*
X162971428Y-201208214D02*
X163042857Y-201065357D01*
X163042857Y-201065357D02*
X163185714Y-200922500D01*
X163185714Y-200922500D02*
X163400000Y-200851071D01*
X163400000Y-200851071D02*
X163542857Y-200851071D01*
X163542857Y-200851071D02*
X163757143Y-200922500D01*
X163757143Y-200922500D02*
X163828571Y-200993928D01*
X165114286Y-202351071D02*
X165114286Y-201565357D01*
X165114286Y-201565357D02*
X165042857Y-201422500D01*
X165042857Y-201422500D02*
X164900000Y-201351071D01*
X164900000Y-201351071D02*
X164614286Y-201351071D01*
X164614286Y-201351071D02*
X164471428Y-201422500D01*
X165114286Y-202279642D02*
X164971428Y-202351071D01*
X164971428Y-202351071D02*
X164614286Y-202351071D01*
X164614286Y-202351071D02*
X164471428Y-202279642D01*
X164471428Y-202279642D02*
X164400000Y-202136785D01*
X164400000Y-202136785D02*
X164400000Y-201993928D01*
X164400000Y-201993928D02*
X164471428Y-201851071D01*
X164471428Y-201851071D02*
X164614286Y-201779642D01*
X164614286Y-201779642D02*
X164971428Y-201779642D01*
X164971428Y-201779642D02*
X165114286Y-201708214D01*
X166471429Y-202351071D02*
X166471429Y-200851071D01*
X166471429Y-202279642D02*
X166328571Y-202351071D01*
X166328571Y-202351071D02*
X166042857Y-202351071D01*
X166042857Y-202351071D02*
X165900000Y-202279642D01*
X165900000Y-202279642D02*
X165828571Y-202208214D01*
X165828571Y-202208214D02*
X165757143Y-202065357D01*
X165757143Y-202065357D02*
X165757143Y-201636785D01*
X165757143Y-201636785D02*
X165828571Y-201493928D01*
X165828571Y-201493928D02*
X165900000Y-201422500D01*
X165900000Y-201422500D02*
X166042857Y-201351071D01*
X166042857Y-201351071D02*
X166328571Y-201351071D01*
X166328571Y-201351071D02*
X166471429Y-201422500D01*
X168085714Y-201565357D02*
X168585714Y-201565357D01*
X168800000Y-202351071D02*
X168085714Y-202351071D01*
X168085714Y-202351071D02*
X168085714Y-200851071D01*
X168085714Y-200851071D02*
X168800000Y-200851071D01*
X169442857Y-202208214D02*
X169514286Y-202279642D01*
X169514286Y-202279642D02*
X169442857Y-202351071D01*
X169442857Y-202351071D02*
X169371429Y-202279642D01*
X169371429Y-202279642D02*
X169442857Y-202208214D01*
X169442857Y-202208214D02*
X169442857Y-202351071D01*
X170157143Y-202351071D02*
X170157143Y-200851071D01*
X170157143Y-200851071D02*
X170514286Y-200851071D01*
X170514286Y-200851071D02*
X170728572Y-200922500D01*
X170728572Y-200922500D02*
X170871429Y-201065357D01*
X170871429Y-201065357D02*
X170942858Y-201208214D01*
X170942858Y-201208214D02*
X171014286Y-201493928D01*
X171014286Y-201493928D02*
X171014286Y-201708214D01*
X171014286Y-201708214D02*
X170942858Y-201993928D01*
X170942858Y-201993928D02*
X170871429Y-202136785D01*
X170871429Y-202136785D02*
X170728572Y-202279642D01*
X170728572Y-202279642D02*
X170514286Y-202351071D01*
X170514286Y-202351071D02*
X170157143Y-202351071D01*
X171657143Y-202208214D02*
X171728572Y-202279642D01*
X171728572Y-202279642D02*
X171657143Y-202351071D01*
X171657143Y-202351071D02*
X171585715Y-202279642D01*
X171585715Y-202279642D02*
X171657143Y-202208214D01*
X171657143Y-202208214D02*
X171657143Y-202351071D01*
X172300001Y-201922500D02*
X173014287Y-201922500D01*
X172157144Y-202351071D02*
X172657144Y-200851071D01*
X172657144Y-200851071D02*
X173157144Y-202351071D01*
X173657143Y-202208214D02*
X173728572Y-202279642D01*
X173728572Y-202279642D02*
X173657143Y-202351071D01*
X173657143Y-202351071D02*
X173585715Y-202279642D01*
X173585715Y-202279642D02*
X173657143Y-202208214D01*
X173657143Y-202208214D02*
X173657143Y-202351071D01*
X176171429Y-202351071D02*
X176171429Y-200851071D01*
X176314287Y-201779642D02*
X176742858Y-202351071D01*
X176742858Y-201351071D02*
X176171429Y-201922500D01*
X177385715Y-202351071D02*
X177385715Y-201351071D01*
X177385715Y-200851071D02*
X177314287Y-200922500D01*
X177314287Y-200922500D02*
X177385715Y-200993928D01*
X177385715Y-200993928D02*
X177457144Y-200922500D01*
X177457144Y-200922500D02*
X177385715Y-200851071D01*
X177385715Y-200851071D02*
X177385715Y-200993928D01*
X178742859Y-202279642D02*
X178600001Y-202351071D01*
X178600001Y-202351071D02*
X178314287Y-202351071D01*
X178314287Y-202351071D02*
X178171430Y-202279642D01*
X178171430Y-202279642D02*
X178100001Y-202208214D01*
X178100001Y-202208214D02*
X178028573Y-202065357D01*
X178028573Y-202065357D02*
X178028573Y-201636785D01*
X178028573Y-201636785D02*
X178100001Y-201493928D01*
X178100001Y-201493928D02*
X178171430Y-201422500D01*
X178171430Y-201422500D02*
X178314287Y-201351071D01*
X178314287Y-201351071D02*
X178600001Y-201351071D01*
X178600001Y-201351071D02*
X178742859Y-201422500D01*
X180028573Y-202351071D02*
X180028573Y-201565357D01*
X180028573Y-201565357D02*
X179957144Y-201422500D01*
X179957144Y-201422500D02*
X179814287Y-201351071D01*
X179814287Y-201351071D02*
X179528573Y-201351071D01*
X179528573Y-201351071D02*
X179385715Y-201422500D01*
X180028573Y-202279642D02*
X179885715Y-202351071D01*
X179885715Y-202351071D02*
X179528573Y-202351071D01*
X179528573Y-202351071D02*
X179385715Y-202279642D01*
X179385715Y-202279642D02*
X179314287Y-202136785D01*
X179314287Y-202136785D02*
X179314287Y-201993928D01*
X179314287Y-201993928D02*
X179385715Y-201851071D01*
X179385715Y-201851071D02*
X179528573Y-201779642D01*
X179528573Y-201779642D02*
X179885715Y-201779642D01*
X179885715Y-201779642D02*
X180028573Y-201708214D01*
X181385716Y-202351071D02*
X181385716Y-200851071D01*
X181385716Y-202279642D02*
X181242858Y-202351071D01*
X181242858Y-202351071D02*
X180957144Y-202351071D01*
X180957144Y-202351071D02*
X180814287Y-202279642D01*
X180814287Y-202279642D02*
X180742858Y-202208214D01*
X180742858Y-202208214D02*
X180671430Y-202065357D01*
X180671430Y-202065357D02*
X180671430Y-201636785D01*
X180671430Y-201636785D02*
X180742858Y-201493928D01*
X180742858Y-201493928D02*
X180814287Y-201422500D01*
X180814287Y-201422500D02*
X180957144Y-201351071D01*
X180957144Y-201351071D02*
X181242858Y-201351071D01*
X181242858Y-201351071D02*
X181385716Y-201422500D01*
X183428573Y-202922500D02*
X183357144Y-202851071D01*
X183357144Y-202851071D02*
X183214287Y-202636785D01*
X183214287Y-202636785D02*
X183142859Y-202493928D01*
X183142859Y-202493928D02*
X183071430Y-202279642D01*
X183071430Y-202279642D02*
X183000001Y-201922500D01*
X183000001Y-201922500D02*
X183000001Y-201636785D01*
X183000001Y-201636785D02*
X183071430Y-201279642D01*
X183071430Y-201279642D02*
X183142859Y-201065357D01*
X183142859Y-201065357D02*
X183214287Y-200922500D01*
X183214287Y-200922500D02*
X183357144Y-200708214D01*
X183357144Y-200708214D02*
X183428573Y-200636785D01*
X183857144Y-200851071D02*
X184857144Y-200851071D01*
X184857144Y-200851071D02*
X184214287Y-202351071D01*
X185428572Y-202208214D02*
X185500001Y-202279642D01*
X185500001Y-202279642D02*
X185428572Y-202351071D01*
X185428572Y-202351071D02*
X185357144Y-202279642D01*
X185357144Y-202279642D02*
X185428572Y-202208214D01*
X185428572Y-202208214D02*
X185428572Y-202351071D01*
X186428573Y-200851071D02*
X186571430Y-200851071D01*
X186571430Y-200851071D02*
X186714287Y-200922500D01*
X186714287Y-200922500D02*
X186785716Y-200993928D01*
X186785716Y-200993928D02*
X186857144Y-201136785D01*
X186857144Y-201136785D02*
X186928573Y-201422500D01*
X186928573Y-201422500D02*
X186928573Y-201779642D01*
X186928573Y-201779642D02*
X186857144Y-202065357D01*
X186857144Y-202065357D02*
X186785716Y-202208214D01*
X186785716Y-202208214D02*
X186714287Y-202279642D01*
X186714287Y-202279642D02*
X186571430Y-202351071D01*
X186571430Y-202351071D02*
X186428573Y-202351071D01*
X186428573Y-202351071D02*
X186285716Y-202279642D01*
X186285716Y-202279642D02*
X186214287Y-202208214D01*
X186214287Y-202208214D02*
X186142858Y-202065357D01*
X186142858Y-202065357D02*
X186071430Y-201779642D01*
X186071430Y-201779642D02*
X186071430Y-201422500D01*
X186071430Y-201422500D02*
X186142858Y-201136785D01*
X186142858Y-201136785D02*
X186214287Y-200993928D01*
X186214287Y-200993928D02*
X186285716Y-200922500D01*
X186285716Y-200922500D02*
X186428573Y-200851071D01*
X187571429Y-202208214D02*
X187642858Y-202279642D01*
X187642858Y-202279642D02*
X187571429Y-202351071D01*
X187571429Y-202351071D02*
X187500001Y-202279642D01*
X187500001Y-202279642D02*
X187571429Y-202208214D01*
X187571429Y-202208214D02*
X187571429Y-202351071D01*
X188571430Y-200851071D02*
X188714287Y-200851071D01*
X188714287Y-200851071D02*
X188857144Y-200922500D01*
X188857144Y-200922500D02*
X188928573Y-200993928D01*
X188928573Y-200993928D02*
X189000001Y-201136785D01*
X189000001Y-201136785D02*
X189071430Y-201422500D01*
X189071430Y-201422500D02*
X189071430Y-201779642D01*
X189071430Y-201779642D02*
X189000001Y-202065357D01*
X189000001Y-202065357D02*
X188928573Y-202208214D01*
X188928573Y-202208214D02*
X188857144Y-202279642D01*
X188857144Y-202279642D02*
X188714287Y-202351071D01*
X188714287Y-202351071D02*
X188571430Y-202351071D01*
X188571430Y-202351071D02*
X188428573Y-202279642D01*
X188428573Y-202279642D02*
X188357144Y-202208214D01*
X188357144Y-202208214D02*
X188285715Y-202065357D01*
X188285715Y-202065357D02*
X188214287Y-201779642D01*
X188214287Y-201779642D02*
X188214287Y-201422500D01*
X188214287Y-201422500D02*
X188285715Y-201136785D01*
X188285715Y-201136785D02*
X188357144Y-200993928D01*
X188357144Y-200993928D02*
X188428573Y-200922500D01*
X188428573Y-200922500D02*
X188571430Y-200851071D01*
X189571429Y-202922500D02*
X189642858Y-202851071D01*
X189642858Y-202851071D02*
X189785715Y-202636785D01*
X189785715Y-202636785D02*
X189857144Y-202493928D01*
X189857144Y-202493928D02*
X189928572Y-202279642D01*
X189928572Y-202279642D02*
X190000001Y-201922500D01*
X190000001Y-201922500D02*
X190000001Y-201636785D01*
X190000001Y-201636785D02*
X189928572Y-201279642D01*
X189928572Y-201279642D02*
X189857144Y-201065357D01*
X189857144Y-201065357D02*
X189785715Y-200922500D01*
X189785715Y-200922500D02*
X189642858Y-200708214D01*
X189642858Y-200708214D02*
X189571429Y-200636785D01*
D10*
D11*
X159400000Y-197400000D02*
X267400000Y-197400000D01*
D10*
D12*
X246614285Y-199551071D02*
X246114285Y-198836785D01*
X245757142Y-199551071D02*
X245757142Y-198051071D01*
X245757142Y-198051071D02*
X246328571Y-198051071D01*
X246328571Y-198051071D02*
X246471428Y-198122500D01*
X246471428Y-198122500D02*
X246542857Y-198193928D01*
X246542857Y-198193928D02*
X246614285Y-198336785D01*
X246614285Y-198336785D02*
X246614285Y-198551071D01*
X246614285Y-198551071D02*
X246542857Y-198693928D01*
X246542857Y-198693928D02*
X246471428Y-198765357D01*
X246471428Y-198765357D02*
X246328571Y-198836785D01*
X246328571Y-198836785D02*
X245757142Y-198836785D01*
X247828571Y-199479642D02*
X247685714Y-199551071D01*
X247685714Y-199551071D02*
X247400000Y-199551071D01*
X247400000Y-199551071D02*
X247257142Y-199479642D01*
X247257142Y-199479642D02*
X247185714Y-199336785D01*
X247185714Y-199336785D02*
X247185714Y-198765357D01*
X247185714Y-198765357D02*
X247257142Y-198622500D01*
X247257142Y-198622500D02*
X247400000Y-198551071D01*
X247400000Y-198551071D02*
X247685714Y-198551071D01*
X247685714Y-198551071D02*
X247828571Y-198622500D01*
X247828571Y-198622500D02*
X247900000Y-198765357D01*
X247900000Y-198765357D02*
X247900000Y-198908214D01*
X247900000Y-198908214D02*
X247185714Y-199051071D01*
X248399999Y-198551071D02*
X248757142Y-199551071D01*
X248757142Y-199551071D02*
X249114285Y-198551071D01*
X249685713Y-199408214D02*
X249757142Y-199479642D01*
X249757142Y-199479642D02*
X249685713Y-199551071D01*
X249685713Y-199551071D02*
X249614285Y-199479642D01*
X249614285Y-199479642D02*
X249685713Y-199408214D01*
X249685713Y-199408214D02*
X249685713Y-199551071D01*
X249685713Y-198622500D02*
X249757142Y-198693928D01*
X249757142Y-198693928D02*
X249685713Y-198765357D01*
X249685713Y-198765357D02*
X249614285Y-198693928D01*
X249614285Y-198693928D02*
X249685713Y-198622500D01*
X249685713Y-198622500D02*
X249685713Y-198765357D01*
X251228571Y-199122500D02*
X251942857Y-199122500D01*
X251085714Y-199551071D02*
X251585714Y-198051071D01*
X251585714Y-198051071D02*
X252085714Y-199551071D01*
D10*
D11*
X160685714Y-199479642D02*
X160900000Y-199551071D01*
X160900000Y-199551071D02*
X161257142Y-199551071D01*
X161257142Y-199551071D02*
X161400000Y-199479642D01*
X161400000Y-199479642D02*
X161471428Y-199408214D01*
X161471428Y-199408214D02*
X161542857Y-199265357D01*
X161542857Y-199265357D02*
X161542857Y-199122500D01*
X161542857Y-199122500D02*
X161471428Y-198979642D01*
X161471428Y-198979642D02*
X161400000Y-198908214D01*
X161400000Y-198908214D02*
X161257142Y-198836785D01*
X161257142Y-198836785D02*
X160971428Y-198765357D01*
X160971428Y-198765357D02*
X160828571Y-198693928D01*
X160828571Y-198693928D02*
X160757142Y-198622500D01*
X160757142Y-198622500D02*
X160685714Y-198479642D01*
X160685714Y-198479642D02*
X160685714Y-198336785D01*
X160685714Y-198336785D02*
X160757142Y-198193928D01*
X160757142Y-198193928D02*
X160828571Y-198122500D01*
X160828571Y-198122500D02*
X160971428Y-198051071D01*
X160971428Y-198051071D02*
X161328571Y-198051071D01*
X161328571Y-198051071D02*
X161542857Y-198122500D01*
X162185713Y-199551071D02*
X162185713Y-198551071D01*
X162185713Y-198051071D02*
X162114285Y-198122500D01*
X162114285Y-198122500D02*
X162185713Y-198193928D01*
X162185713Y-198193928D02*
X162257142Y-198122500D01*
X162257142Y-198122500D02*
X162185713Y-198051071D01*
X162185713Y-198051071D02*
X162185713Y-198193928D01*
X162757142Y-198551071D02*
X163542857Y-198551071D01*
X163542857Y-198551071D02*
X162757142Y-199551071D01*
X162757142Y-199551071D02*
X163542857Y-199551071D01*
X164685714Y-199479642D02*
X164542857Y-199551071D01*
X164542857Y-199551071D02*
X164257143Y-199551071D01*
X164257143Y-199551071D02*
X164114285Y-199479642D01*
X164114285Y-199479642D02*
X164042857Y-199336785D01*
X164042857Y-199336785D02*
X164042857Y-198765357D01*
X164042857Y-198765357D02*
X164114285Y-198622500D01*
X164114285Y-198622500D02*
X164257143Y-198551071D01*
X164257143Y-198551071D02*
X164542857Y-198551071D01*
X164542857Y-198551071D02*
X164685714Y-198622500D01*
X164685714Y-198622500D02*
X164757143Y-198765357D01*
X164757143Y-198765357D02*
X164757143Y-198908214D01*
X164757143Y-198908214D02*
X164042857Y-199051071D01*
X165399999Y-199408214D02*
X165471428Y-199479642D01*
X165471428Y-199479642D02*
X165399999Y-199551071D01*
X165399999Y-199551071D02*
X165328571Y-199479642D01*
X165328571Y-199479642D02*
X165399999Y-199408214D01*
X165399999Y-199408214D02*
X165399999Y-199551071D01*
X165399999Y-198622500D02*
X165471428Y-198693928D01*
X165471428Y-198693928D02*
X165399999Y-198765357D01*
X165399999Y-198765357D02*
X165328571Y-198693928D01*
X165328571Y-198693928D02*
X165399999Y-198622500D01*
X165399999Y-198622500D02*
X165399999Y-198765357D01*
X166942857Y-199122500D02*
X167657143Y-199122500D01*
X166800000Y-199551071D02*
X167300000Y-198051071D01*
X167300000Y-198051071D02*
X167800000Y-199551071D01*
D10*
D11*
X245757142Y-202351071D02*
X245757142Y-200851071D01*
X247114286Y-202351071D02*
X247114286Y-200851071D01*
X247114286Y-202279642D02*
X246971428Y-202351071D01*
X246971428Y-202351071D02*
X246685714Y-202351071D01*
X246685714Y-202351071D02*
X246542857Y-202279642D01*
X246542857Y-202279642D02*
X246471428Y-202208214D01*
X246471428Y-202208214D02*
X246400000Y-202065357D01*
X246400000Y-202065357D02*
X246400000Y-201636785D01*
X246400000Y-201636785D02*
X246471428Y-201493928D01*
X246471428Y-201493928D02*
X246542857Y-201422500D01*
X246542857Y-201422500D02*
X246685714Y-201351071D01*
X246685714Y-201351071D02*
X246971428Y-201351071D01*
X246971428Y-201351071D02*
X247114286Y-201422500D01*
X247828571Y-202208214D02*
X247900000Y-202279642D01*
X247900000Y-202279642D02*
X247828571Y-202351071D01*
X247828571Y-202351071D02*
X247757143Y-202279642D01*
X247757143Y-202279642D02*
X247828571Y-202208214D01*
X247828571Y-202208214D02*
X247828571Y-202351071D01*
X247828571Y-201422500D02*
X247900000Y-201493928D01*
X247900000Y-201493928D02*
X247828571Y-201565357D01*
X247828571Y-201565357D02*
X247757143Y-201493928D01*
X247757143Y-201493928D02*
X247828571Y-201422500D01*
X247828571Y-201422500D02*
X247828571Y-201565357D01*
X250228572Y-202351071D02*
X249371429Y-202351071D01*
X249800000Y-202351071D02*
X249800000Y-200851071D01*
X249800000Y-200851071D02*
X249657143Y-201065357D01*
X249657143Y-201065357D02*
X249514286Y-201208214D01*
X249514286Y-201208214D02*
X249371429Y-201279642D01*
X251942857Y-200779642D02*
X250657143Y-202708214D01*
X253228572Y-202351071D02*
X252371429Y-202351071D01*
X252800000Y-202351071D02*
X252800000Y-200851071D01*
X252800000Y-200851071D02*
X252657143Y-201065357D01*
X252657143Y-201065357D02*
X252514286Y-201208214D01*
X252514286Y-201208214D02*
X252371429Y-201279642D01*
D10*
D11*
X159400000Y-193400000D02*
X267400000Y-193400000D01*
D10*
D13*
X160852380Y-193934761D02*
X161995238Y-193934761D01*
X161173809Y-195934761D02*
X161423809Y-193934761D01*
X162411905Y-195934761D02*
X162578571Y-194601428D01*
X162661905Y-193934761D02*
X162554762Y-194030000D01*
X162554762Y-194030000D02*
X162638095Y-194125238D01*
X162638095Y-194125238D02*
X162745238Y-194030000D01*
X162745238Y-194030000D02*
X162661905Y-193934761D01*
X162661905Y-193934761D02*
X162638095Y-194125238D01*
X163245238Y-194601428D02*
X164007143Y-194601428D01*
X163614286Y-193934761D02*
X163400000Y-195649047D01*
X163400000Y-195649047D02*
X163471429Y-195839523D01*
X163471429Y-195839523D02*
X163650000Y-195934761D01*
X163650000Y-195934761D02*
X163840476Y-195934761D01*
X164792857Y-195934761D02*
X164614286Y-195839523D01*
X164614286Y-195839523D02*
X164542857Y-195649047D01*
X164542857Y-195649047D02*
X164757143Y-193934761D01*
X166328571Y-195839523D02*
X166126190Y-195934761D01*
X166126190Y-195934761D02*
X165745238Y-195934761D01*
X165745238Y-195934761D02*
X165566667Y-195839523D01*
X165566667Y-195839523D02*
X165495238Y-195649047D01*
X165495238Y-195649047D02*
X165590476Y-194887142D01*
X165590476Y-194887142D02*
X165709524Y-194696666D01*
X165709524Y-194696666D02*
X165911905Y-194601428D01*
X165911905Y-194601428D02*
X166292857Y-194601428D01*
X166292857Y-194601428D02*
X166471428Y-194696666D01*
X166471428Y-194696666D02*
X166542857Y-194887142D01*
X166542857Y-194887142D02*
X166519047Y-195077619D01*
X166519047Y-195077619D02*
X165542857Y-195268095D01*
X167292857Y-195744285D02*
X167376191Y-195839523D01*
X167376191Y-195839523D02*
X167269048Y-195934761D01*
X167269048Y-195934761D02*
X167185714Y-195839523D01*
X167185714Y-195839523D02*
X167292857Y-195744285D01*
X167292857Y-195744285D02*
X167269048Y-195934761D01*
X167423810Y-194696666D02*
X167507143Y-194791904D01*
X167507143Y-194791904D02*
X167400000Y-194887142D01*
X167400000Y-194887142D02*
X167316667Y-194791904D01*
X167316667Y-194791904D02*
X167423810Y-194696666D01*
X167423810Y-194696666D02*
X167400000Y-194887142D01*
X169421429Y-195934761D02*
X169671429Y-193934761D01*
X169671429Y-193934761D02*
X170433334Y-193934761D01*
X170433334Y-193934761D02*
X170611905Y-194030000D01*
X170611905Y-194030000D02*
X170695238Y-194125238D01*
X170695238Y-194125238D02*
X170766667Y-194315714D01*
X170766667Y-194315714D02*
X170730953Y-194601428D01*
X170730953Y-194601428D02*
X170611905Y-194791904D01*
X170611905Y-194791904D02*
X170504762Y-194887142D01*
X170504762Y-194887142D02*
X170302381Y-194982380D01*
X170302381Y-194982380D02*
X169540476Y-194982380D01*
X171421429Y-195934761D02*
X171588095Y-194601428D01*
X171671429Y-193934761D02*
X171564286Y-194030000D01*
X171564286Y-194030000D02*
X171647619Y-194125238D01*
X171647619Y-194125238D02*
X171754762Y-194030000D01*
X171754762Y-194030000D02*
X171671429Y-193934761D01*
X171671429Y-193934761D02*
X171647619Y-194125238D01*
X173242857Y-195839523D02*
X173040476Y-195934761D01*
X173040476Y-195934761D02*
X172659524Y-195934761D01*
X172659524Y-195934761D02*
X172480953Y-195839523D01*
X172480953Y-195839523D02*
X172397619Y-195744285D01*
X172397619Y-195744285D02*
X172326191Y-195553809D01*
X172326191Y-195553809D02*
X172397619Y-194982380D01*
X172397619Y-194982380D02*
X172516667Y-194791904D01*
X172516667Y-194791904D02*
X172623810Y-194696666D01*
X172623810Y-194696666D02*
X172826191Y-194601428D01*
X172826191Y-194601428D02*
X173207143Y-194601428D01*
X173207143Y-194601428D02*
X173385715Y-194696666D01*
X174373810Y-195934761D02*
X174195239Y-195839523D01*
X174195239Y-195839523D02*
X174111905Y-195744285D01*
X174111905Y-195744285D02*
X174040477Y-195553809D01*
X174040477Y-195553809D02*
X174111905Y-194982380D01*
X174111905Y-194982380D02*
X174230953Y-194791904D01*
X174230953Y-194791904D02*
X174338096Y-194696666D01*
X174338096Y-194696666D02*
X174540477Y-194601428D01*
X174540477Y-194601428D02*
X174826191Y-194601428D01*
X174826191Y-194601428D02*
X175004762Y-194696666D01*
X175004762Y-194696666D02*
X175088096Y-194791904D01*
X175088096Y-194791904D02*
X175159524Y-194982380D01*
X175159524Y-194982380D02*
X175088096Y-195553809D01*
X175088096Y-195553809D02*
X174969048Y-195744285D01*
X174969048Y-195744285D02*
X174861905Y-195839523D01*
X174861905Y-195839523D02*
X174659524Y-195934761D01*
X174659524Y-195934761D02*
X174373810Y-195934761D01*
X178240477Y-195934761D02*
X177692858Y-194982380D01*
X177097620Y-195934761D02*
X177347620Y-193934761D01*
X177347620Y-193934761D02*
X178109525Y-193934761D01*
X178109525Y-193934761D02*
X178288096Y-194030000D01*
X178288096Y-194030000D02*
X178371429Y-194125238D01*
X178371429Y-194125238D02*
X178442858Y-194315714D01*
X178442858Y-194315714D02*
X178407144Y-194601428D01*
X178407144Y-194601428D02*
X178288096Y-194791904D01*
X178288096Y-194791904D02*
X178180953Y-194887142D01*
X178180953Y-194887142D02*
X177978572Y-194982380D01*
X177978572Y-194982380D02*
X177216667Y-194982380D01*
X179954763Y-195934761D02*
X180085715Y-194887142D01*
X180085715Y-194887142D02*
X180014286Y-194696666D01*
X180014286Y-194696666D02*
X179835715Y-194601428D01*
X179835715Y-194601428D02*
X179454763Y-194601428D01*
X179454763Y-194601428D02*
X179252382Y-194696666D01*
X179966667Y-195839523D02*
X179764286Y-195934761D01*
X179764286Y-195934761D02*
X179288096Y-195934761D01*
X179288096Y-195934761D02*
X179109525Y-195839523D01*
X179109525Y-195839523D02*
X179038096Y-195649047D01*
X179038096Y-195649047D02*
X179061905Y-195458571D01*
X179061905Y-195458571D02*
X179180953Y-195268095D01*
X179180953Y-195268095D02*
X179383334Y-195172857D01*
X179383334Y-195172857D02*
X179859525Y-195172857D01*
X179859525Y-195172857D02*
X180061905Y-195077619D01*
X181764287Y-195934761D02*
X182014287Y-193934761D01*
X181776191Y-195839523D02*
X181573810Y-195934761D01*
X181573810Y-195934761D02*
X181192858Y-195934761D01*
X181192858Y-195934761D02*
X181014287Y-195839523D01*
X181014287Y-195839523D02*
X180930953Y-195744285D01*
X180930953Y-195744285D02*
X180859525Y-195553809D01*
X180859525Y-195553809D02*
X180930953Y-194982380D01*
X180930953Y-194982380D02*
X181050001Y-194791904D01*
X181050001Y-194791904D02*
X181157144Y-194696666D01*
X181157144Y-194696666D02*
X181359525Y-194601428D01*
X181359525Y-194601428D02*
X181740477Y-194601428D01*
X181740477Y-194601428D02*
X181919049Y-194696666D01*
X183573811Y-195934761D02*
X183704763Y-194887142D01*
X183704763Y-194887142D02*
X183633334Y-194696666D01*
X183633334Y-194696666D02*
X183454763Y-194601428D01*
X183454763Y-194601428D02*
X183073811Y-194601428D01*
X183073811Y-194601428D02*
X182871430Y-194696666D01*
X183585715Y-195839523D02*
X183383334Y-195934761D01*
X183383334Y-195934761D02*
X182907144Y-195934761D01*
X182907144Y-195934761D02*
X182728573Y-195839523D01*
X182728573Y-195839523D02*
X182657144Y-195649047D01*
X182657144Y-195649047D02*
X182680953Y-195458571D01*
X182680953Y-195458571D02*
X182800001Y-195268095D01*
X182800001Y-195268095D02*
X183002382Y-195172857D01*
X183002382Y-195172857D02*
X183478573Y-195172857D01*
X183478573Y-195172857D02*
X183680953Y-195077619D01*
X184526192Y-195934761D02*
X184692858Y-194601428D01*
X184645239Y-194982380D02*
X184764287Y-194791904D01*
X184764287Y-194791904D02*
X184871430Y-194696666D01*
X184871430Y-194696666D02*
X185073811Y-194601428D01*
X185073811Y-194601428D02*
X185264287Y-194601428D01*
X186880953Y-195839523D02*
X187154763Y-195934761D01*
X187154763Y-195934761D02*
X187630953Y-195934761D01*
X187630953Y-195934761D02*
X187833334Y-195839523D01*
X187833334Y-195839523D02*
X187940477Y-195744285D01*
X187940477Y-195744285D02*
X188059525Y-195553809D01*
X188059525Y-195553809D02*
X188083334Y-195363333D01*
X188083334Y-195363333D02*
X188011906Y-195172857D01*
X188011906Y-195172857D02*
X187928572Y-195077619D01*
X187928572Y-195077619D02*
X187750001Y-194982380D01*
X187750001Y-194982380D02*
X187380953Y-194887142D01*
X187380953Y-194887142D02*
X187202382Y-194791904D01*
X187202382Y-194791904D02*
X187119049Y-194696666D01*
X187119049Y-194696666D02*
X187047620Y-194506190D01*
X187047620Y-194506190D02*
X187071430Y-194315714D01*
X187071430Y-194315714D02*
X187190477Y-194125238D01*
X187190477Y-194125238D02*
X187297620Y-194030000D01*
X187297620Y-194030000D02*
X187500001Y-193934761D01*
X187500001Y-193934761D02*
X187976192Y-193934761D01*
X187976192Y-193934761D02*
X188250001Y-194030000D01*
X189035715Y-194601428D02*
X188785715Y-196601428D01*
X189023811Y-194696666D02*
X189226192Y-194601428D01*
X189226192Y-194601428D02*
X189607144Y-194601428D01*
X189607144Y-194601428D02*
X189785715Y-194696666D01*
X189785715Y-194696666D02*
X189869049Y-194791904D01*
X189869049Y-194791904D02*
X189940477Y-194982380D01*
X189940477Y-194982380D02*
X189869049Y-195553809D01*
X189869049Y-195553809D02*
X189750001Y-195744285D01*
X189750001Y-195744285D02*
X189642858Y-195839523D01*
X189642858Y-195839523D02*
X189440477Y-195934761D01*
X189440477Y-195934761D02*
X189059525Y-195934761D01*
X189059525Y-195934761D02*
X188880954Y-195839523D01*
X191380953Y-195839523D02*
X191178572Y-195934761D01*
X191178572Y-195934761D02*
X190797620Y-195934761D01*
X190797620Y-195934761D02*
X190619049Y-195839523D01*
X190619049Y-195839523D02*
X190547620Y-195649047D01*
X190547620Y-195649047D02*
X190642858Y-194887142D01*
X190642858Y-194887142D02*
X190761906Y-194696666D01*
X190761906Y-194696666D02*
X190964287Y-194601428D01*
X190964287Y-194601428D02*
X191345239Y-194601428D01*
X191345239Y-194601428D02*
X191523810Y-194696666D01*
X191523810Y-194696666D02*
X191595239Y-194887142D01*
X191595239Y-194887142D02*
X191571429Y-195077619D01*
X191571429Y-195077619D02*
X190595239Y-195268095D01*
X193095239Y-195839523D02*
X192892858Y-195934761D01*
X192892858Y-195934761D02*
X192511906Y-195934761D01*
X192511906Y-195934761D02*
X192333335Y-195839523D01*
X192333335Y-195839523D02*
X192261906Y-195649047D01*
X192261906Y-195649047D02*
X192357144Y-194887142D01*
X192357144Y-194887142D02*
X192476192Y-194696666D01*
X192476192Y-194696666D02*
X192678573Y-194601428D01*
X192678573Y-194601428D02*
X193059525Y-194601428D01*
X193059525Y-194601428D02*
X193238096Y-194696666D01*
X193238096Y-194696666D02*
X193309525Y-194887142D01*
X193309525Y-194887142D02*
X193285715Y-195077619D01*
X193285715Y-195077619D02*
X192309525Y-195268095D01*
X194892859Y-195934761D02*
X195142859Y-193934761D01*
X194904763Y-195839523D02*
X194702382Y-195934761D01*
X194702382Y-195934761D02*
X194321430Y-195934761D01*
X194321430Y-195934761D02*
X194142859Y-195839523D01*
X194142859Y-195839523D02*
X194059525Y-195744285D01*
X194059525Y-195744285D02*
X193988097Y-195553809D01*
X193988097Y-195553809D02*
X194059525Y-194982380D01*
X194059525Y-194982380D02*
X194178573Y-194791904D01*
X194178573Y-194791904D02*
X194285716Y-194696666D01*
X194285716Y-194696666D02*
X194488097Y-194601428D01*
X194488097Y-194601428D02*
X194869049Y-194601428D01*
X194869049Y-194601428D02*
X195047621Y-194696666D01*
X196961906Y-195839523D02*
X197235716Y-195934761D01*
X197235716Y-195934761D02*
X197711906Y-195934761D01*
X197711906Y-195934761D02*
X197914287Y-195839523D01*
X197914287Y-195839523D02*
X198021430Y-195744285D01*
X198021430Y-195744285D02*
X198140478Y-195553809D01*
X198140478Y-195553809D02*
X198164287Y-195363333D01*
X198164287Y-195363333D02*
X198092859Y-195172857D01*
X198092859Y-195172857D02*
X198009525Y-195077619D01*
X198009525Y-195077619D02*
X197830954Y-194982380D01*
X197830954Y-194982380D02*
X197461906Y-194887142D01*
X197461906Y-194887142D02*
X197283335Y-194791904D01*
X197283335Y-194791904D02*
X197200002Y-194696666D01*
X197200002Y-194696666D02*
X197128573Y-194506190D01*
X197128573Y-194506190D02*
X197152383Y-194315714D01*
X197152383Y-194315714D02*
X197271430Y-194125238D01*
X197271430Y-194125238D02*
X197378573Y-194030000D01*
X197378573Y-194030000D02*
X197580954Y-193934761D01*
X197580954Y-193934761D02*
X198057145Y-193934761D01*
X198057145Y-193934761D02*
X198330954Y-194030000D01*
X198950002Y-195934761D02*
X199116668Y-194601428D01*
X199200002Y-193934761D02*
X199092859Y-194030000D01*
X199092859Y-194030000D02*
X199176192Y-194125238D01*
X199176192Y-194125238D02*
X199283335Y-194030000D01*
X199283335Y-194030000D02*
X199200002Y-193934761D01*
X199200002Y-193934761D02*
X199176192Y-194125238D01*
X200926192Y-194601428D02*
X200723811Y-196220476D01*
X200723811Y-196220476D02*
X200604764Y-196410952D01*
X200604764Y-196410952D02*
X200497621Y-196506190D01*
X200497621Y-196506190D02*
X200295240Y-196601428D01*
X200295240Y-196601428D02*
X200009526Y-196601428D01*
X200009526Y-196601428D02*
X199830954Y-196506190D01*
X200771430Y-195839523D02*
X200569049Y-195934761D01*
X200569049Y-195934761D02*
X200188097Y-195934761D01*
X200188097Y-195934761D02*
X200009526Y-195839523D01*
X200009526Y-195839523D02*
X199926192Y-195744285D01*
X199926192Y-195744285D02*
X199854764Y-195553809D01*
X199854764Y-195553809D02*
X199926192Y-194982380D01*
X199926192Y-194982380D02*
X200045240Y-194791904D01*
X200045240Y-194791904D02*
X200152383Y-194696666D01*
X200152383Y-194696666D02*
X200354764Y-194601428D01*
X200354764Y-194601428D02*
X200735716Y-194601428D01*
X200735716Y-194601428D02*
X200914288Y-194696666D01*
X201807144Y-194601428D02*
X201640478Y-195934761D01*
X201783335Y-194791904D02*
X201890478Y-194696666D01*
X201890478Y-194696666D02*
X202092859Y-194601428D01*
X202092859Y-194601428D02*
X202378573Y-194601428D01*
X202378573Y-194601428D02*
X202557144Y-194696666D01*
X202557144Y-194696666D02*
X202628573Y-194887142D01*
X202628573Y-194887142D02*
X202497621Y-195934761D01*
X205816668Y-195744285D02*
X205709526Y-195839523D01*
X205709526Y-195839523D02*
X205411907Y-195934761D01*
X205411907Y-195934761D02*
X205221430Y-195934761D01*
X205221430Y-195934761D02*
X204947621Y-195839523D01*
X204947621Y-195839523D02*
X204780954Y-195649047D01*
X204780954Y-195649047D02*
X204709526Y-195458571D01*
X204709526Y-195458571D02*
X204661907Y-195077619D01*
X204661907Y-195077619D02*
X204697621Y-194791904D01*
X204697621Y-194791904D02*
X204840478Y-194410952D01*
X204840478Y-194410952D02*
X204959526Y-194220476D01*
X204959526Y-194220476D02*
X205173811Y-194030000D01*
X205173811Y-194030000D02*
X205471430Y-193934761D01*
X205471430Y-193934761D02*
X205661907Y-193934761D01*
X205661907Y-193934761D02*
X205935716Y-194030000D01*
X205935716Y-194030000D02*
X206019049Y-194125238D01*
X206935716Y-195934761D02*
X206757145Y-195839523D01*
X206757145Y-195839523D02*
X206673811Y-195744285D01*
X206673811Y-195744285D02*
X206602383Y-195553809D01*
X206602383Y-195553809D02*
X206673811Y-194982380D01*
X206673811Y-194982380D02*
X206792859Y-194791904D01*
X206792859Y-194791904D02*
X206900002Y-194696666D01*
X206900002Y-194696666D02*
X207102383Y-194601428D01*
X207102383Y-194601428D02*
X207388097Y-194601428D01*
X207388097Y-194601428D02*
X207566668Y-194696666D01*
X207566668Y-194696666D02*
X207650002Y-194791904D01*
X207650002Y-194791904D02*
X207721430Y-194982380D01*
X207721430Y-194982380D02*
X207650002Y-195553809D01*
X207650002Y-195553809D02*
X207530954Y-195744285D01*
X207530954Y-195744285D02*
X207423811Y-195839523D01*
X207423811Y-195839523D02*
X207221430Y-195934761D01*
X207221430Y-195934761D02*
X206935716Y-195934761D01*
X208626192Y-194601428D02*
X208459526Y-195934761D01*
X208602383Y-194791904D02*
X208709526Y-194696666D01*
X208709526Y-194696666D02*
X208911907Y-194601428D01*
X208911907Y-194601428D02*
X209197621Y-194601428D01*
X209197621Y-194601428D02*
X209376192Y-194696666D01*
X209376192Y-194696666D02*
X209447621Y-194887142D01*
X209447621Y-194887142D02*
X209316669Y-195934761D01*
X210150002Y-194601428D02*
X210911907Y-194601428D01*
X210519050Y-193934761D02*
X210304764Y-195649047D01*
X210304764Y-195649047D02*
X210376193Y-195839523D01*
X210376193Y-195839523D02*
X210554764Y-195934761D01*
X210554764Y-195934761D02*
X210745240Y-195934761D01*
X211411907Y-195934761D02*
X211578573Y-194601428D01*
X211530954Y-194982380D02*
X211650002Y-194791904D01*
X211650002Y-194791904D02*
X211757145Y-194696666D01*
X211757145Y-194696666D02*
X211959526Y-194601428D01*
X211959526Y-194601428D02*
X212150002Y-194601428D01*
X212935716Y-195934761D02*
X212757145Y-195839523D01*
X212757145Y-195839523D02*
X212673811Y-195744285D01*
X212673811Y-195744285D02*
X212602383Y-195553809D01*
X212602383Y-195553809D02*
X212673811Y-194982380D01*
X212673811Y-194982380D02*
X212792859Y-194791904D01*
X212792859Y-194791904D02*
X212900002Y-194696666D01*
X212900002Y-194696666D02*
X213102383Y-194601428D01*
X213102383Y-194601428D02*
X213388097Y-194601428D01*
X213388097Y-194601428D02*
X213566668Y-194696666D01*
X213566668Y-194696666D02*
X213650002Y-194791904D01*
X213650002Y-194791904D02*
X213721430Y-194982380D01*
X213721430Y-194982380D02*
X213650002Y-195553809D01*
X213650002Y-195553809D02*
X213530954Y-195744285D01*
X213530954Y-195744285D02*
X213423811Y-195839523D01*
X213423811Y-195839523D02*
X213221430Y-195934761D01*
X213221430Y-195934761D02*
X212935716Y-195934761D01*
X214745240Y-195934761D02*
X214566669Y-195839523D01*
X214566669Y-195839523D02*
X214495240Y-195649047D01*
X214495240Y-195649047D02*
X214709526Y-193934761D01*
X215792859Y-195934761D02*
X215614288Y-195839523D01*
X215614288Y-195839523D02*
X215542859Y-195649047D01*
X215542859Y-195649047D02*
X215757145Y-193934761D01*
X217328573Y-195839523D02*
X217126192Y-195934761D01*
X217126192Y-195934761D02*
X216745240Y-195934761D01*
X216745240Y-195934761D02*
X216566669Y-195839523D01*
X216566669Y-195839523D02*
X216495240Y-195649047D01*
X216495240Y-195649047D02*
X216590478Y-194887142D01*
X216590478Y-194887142D02*
X216709526Y-194696666D01*
X216709526Y-194696666D02*
X216911907Y-194601428D01*
X216911907Y-194601428D02*
X217292859Y-194601428D01*
X217292859Y-194601428D02*
X217471430Y-194696666D01*
X217471430Y-194696666D02*
X217542859Y-194887142D01*
X217542859Y-194887142D02*
X217519049Y-195077619D01*
X217519049Y-195077619D02*
X216542859Y-195268095D01*
X218269050Y-195934761D02*
X218435716Y-194601428D01*
X218388097Y-194982380D02*
X218507145Y-194791904D01*
X218507145Y-194791904D02*
X218614288Y-194696666D01*
X218614288Y-194696666D02*
X218816669Y-194601428D01*
X218816669Y-194601428D02*
X219007145Y-194601428D01*
D10*
D11*
X161257142Y-191365357D02*
X160757142Y-191365357D01*
X160757142Y-192151071D02*
X160757142Y-190651071D01*
X160757142Y-190651071D02*
X161471428Y-190651071D01*
X162042856Y-192151071D02*
X162042856Y-191151071D01*
X162042856Y-190651071D02*
X161971428Y-190722500D01*
X161971428Y-190722500D02*
X162042856Y-190793928D01*
X162042856Y-190793928D02*
X162114285Y-190722500D01*
X162114285Y-190722500D02*
X162042856Y-190651071D01*
X162042856Y-190651071D02*
X162042856Y-190793928D01*
X162971428Y-192151071D02*
X162828571Y-192079642D01*
X162828571Y-192079642D02*
X162757142Y-191936785D01*
X162757142Y-191936785D02*
X162757142Y-190651071D01*
X164114285Y-192079642D02*
X163971428Y-192151071D01*
X163971428Y-192151071D02*
X163685714Y-192151071D01*
X163685714Y-192151071D02*
X163542856Y-192079642D01*
X163542856Y-192079642D02*
X163471428Y-191936785D01*
X163471428Y-191936785D02*
X163471428Y-191365357D01*
X163471428Y-191365357D02*
X163542856Y-191222500D01*
X163542856Y-191222500D02*
X163685714Y-191151071D01*
X163685714Y-191151071D02*
X163971428Y-191151071D01*
X163971428Y-191151071D02*
X164114285Y-191222500D01*
X164114285Y-191222500D02*
X164185714Y-191365357D01*
X164185714Y-191365357D02*
X164185714Y-191508214D01*
X164185714Y-191508214D02*
X163471428Y-191651071D01*
X164828570Y-192008214D02*
X164899999Y-192079642D01*
X164899999Y-192079642D02*
X164828570Y-192151071D01*
X164828570Y-192151071D02*
X164757142Y-192079642D01*
X164757142Y-192079642D02*
X164828570Y-192008214D01*
X164828570Y-192008214D02*
X164828570Y-192151071D01*
X164828570Y-191222500D02*
X164899999Y-191293928D01*
X164899999Y-191293928D02*
X164828570Y-191365357D01*
X164828570Y-191365357D02*
X164757142Y-191293928D01*
X164757142Y-191293928D02*
X164828570Y-191222500D01*
X164828570Y-191222500D02*
X164828570Y-191365357D01*
X166442856Y-191151071D02*
X166442856Y-192651071D01*
X166442856Y-191222500D02*
X166585714Y-191151071D01*
X166585714Y-191151071D02*
X166871428Y-191151071D01*
X166871428Y-191151071D02*
X167014285Y-191222500D01*
X167014285Y-191222500D02*
X167085714Y-191293928D01*
X167085714Y-191293928D02*
X167157142Y-191436785D01*
X167157142Y-191436785D02*
X167157142Y-191865357D01*
X167157142Y-191865357D02*
X167085714Y-192008214D01*
X167085714Y-192008214D02*
X167014285Y-192079642D01*
X167014285Y-192079642D02*
X166871428Y-192151071D01*
X166871428Y-192151071D02*
X166585714Y-192151071D01*
X166585714Y-192151071D02*
X166442856Y-192079642D01*
X167799999Y-192151071D02*
X167799999Y-191151071D01*
X167799999Y-190651071D02*
X167728571Y-190722500D01*
X167728571Y-190722500D02*
X167799999Y-190793928D01*
X167799999Y-190793928D02*
X167871428Y-190722500D01*
X167871428Y-190722500D02*
X167799999Y-190651071D01*
X167799999Y-190651071D02*
X167799999Y-190793928D01*
X169157143Y-192079642D02*
X169014285Y-192151071D01*
X169014285Y-192151071D02*
X168728571Y-192151071D01*
X168728571Y-192151071D02*
X168585714Y-192079642D01*
X168585714Y-192079642D02*
X168514285Y-192008214D01*
X168514285Y-192008214D02*
X168442857Y-191865357D01*
X168442857Y-191865357D02*
X168442857Y-191436785D01*
X168442857Y-191436785D02*
X168514285Y-191293928D01*
X168514285Y-191293928D02*
X168585714Y-191222500D01*
X168585714Y-191222500D02*
X168728571Y-191151071D01*
X168728571Y-191151071D02*
X169014285Y-191151071D01*
X169014285Y-191151071D02*
X169157143Y-191222500D01*
X170014285Y-192151071D02*
X169871428Y-192079642D01*
X169871428Y-192079642D02*
X169799999Y-192008214D01*
X169799999Y-192008214D02*
X169728571Y-191865357D01*
X169728571Y-191865357D02*
X169728571Y-191436785D01*
X169728571Y-191436785D02*
X169799999Y-191293928D01*
X169799999Y-191293928D02*
X169871428Y-191222500D01*
X169871428Y-191222500D02*
X170014285Y-191151071D01*
X170014285Y-191151071D02*
X170228571Y-191151071D01*
X170228571Y-191151071D02*
X170371428Y-191222500D01*
X170371428Y-191222500D02*
X170442857Y-191293928D01*
X170442857Y-191293928D02*
X170514285Y-191436785D01*
X170514285Y-191436785D02*
X170514285Y-191865357D01*
X170514285Y-191865357D02*
X170442857Y-192008214D01*
X170442857Y-192008214D02*
X170371428Y-192079642D01*
X170371428Y-192079642D02*
X170228571Y-192151071D01*
X170228571Y-192151071D02*
X170014285Y-192151071D01*
X170800000Y-192293928D02*
X171942857Y-192293928D01*
X172299999Y-192151071D02*
X172299999Y-191151071D01*
X172299999Y-191436785D02*
X172371428Y-191293928D01*
X172371428Y-191293928D02*
X172442857Y-191222500D01*
X172442857Y-191222500D02*
X172585714Y-191151071D01*
X172585714Y-191151071D02*
X172728571Y-191151071D01*
X173871428Y-192151071D02*
X173871428Y-191365357D01*
X173871428Y-191365357D02*
X173799999Y-191222500D01*
X173799999Y-191222500D02*
X173657142Y-191151071D01*
X173657142Y-191151071D02*
X173371428Y-191151071D01*
X173371428Y-191151071D02*
X173228570Y-191222500D01*
X173871428Y-192079642D02*
X173728570Y-192151071D01*
X173728570Y-192151071D02*
X173371428Y-192151071D01*
X173371428Y-192151071D02*
X173228570Y-192079642D01*
X173228570Y-192079642D02*
X173157142Y-191936785D01*
X173157142Y-191936785D02*
X173157142Y-191793928D01*
X173157142Y-191793928D02*
X173228570Y-191651071D01*
X173228570Y-191651071D02*
X173371428Y-191579642D01*
X173371428Y-191579642D02*
X173728570Y-191579642D01*
X173728570Y-191579642D02*
X173871428Y-191508214D01*
X175228571Y-192151071D02*
X175228571Y-190651071D01*
X175228571Y-192079642D02*
X175085713Y-192151071D01*
X175085713Y-192151071D02*
X174799999Y-192151071D01*
X174799999Y-192151071D02*
X174657142Y-192079642D01*
X174657142Y-192079642D02*
X174585713Y-192008214D01*
X174585713Y-192008214D02*
X174514285Y-191865357D01*
X174514285Y-191865357D02*
X174514285Y-191436785D01*
X174514285Y-191436785D02*
X174585713Y-191293928D01*
X174585713Y-191293928D02*
X174657142Y-191222500D01*
X174657142Y-191222500D02*
X174799999Y-191151071D01*
X174799999Y-191151071D02*
X175085713Y-191151071D01*
X175085713Y-191151071D02*
X175228571Y-191222500D01*
X176585714Y-192151071D02*
X176585714Y-191365357D01*
X176585714Y-191365357D02*
X176514285Y-191222500D01*
X176514285Y-191222500D02*
X176371428Y-191151071D01*
X176371428Y-191151071D02*
X176085714Y-191151071D01*
X176085714Y-191151071D02*
X175942856Y-191222500D01*
X176585714Y-192079642D02*
X176442856Y-192151071D01*
X176442856Y-192151071D02*
X176085714Y-192151071D01*
X176085714Y-192151071D02*
X175942856Y-192079642D01*
X175942856Y-192079642D02*
X175871428Y-191936785D01*
X175871428Y-191936785D02*
X175871428Y-191793928D01*
X175871428Y-191793928D02*
X175942856Y-191651071D01*
X175942856Y-191651071D02*
X176085714Y-191579642D01*
X176085714Y-191579642D02*
X176442856Y-191579642D01*
X176442856Y-191579642D02*
X176585714Y-191508214D01*
X177299999Y-192151071D02*
X177299999Y-191151071D01*
X177299999Y-191436785D02*
X177371428Y-191293928D01*
X177371428Y-191293928D02*
X177442857Y-191222500D01*
X177442857Y-191222500D02*
X177585714Y-191151071D01*
X177585714Y-191151071D02*
X177728571Y-191151071D01*
X177871428Y-192293928D02*
X179014285Y-192293928D01*
X179299999Y-192079642D02*
X179442856Y-192151071D01*
X179442856Y-192151071D02*
X179728570Y-192151071D01*
X179728570Y-192151071D02*
X179871427Y-192079642D01*
X179871427Y-192079642D02*
X179942856Y-191936785D01*
X179942856Y-191936785D02*
X179942856Y-191865357D01*
X179942856Y-191865357D02*
X179871427Y-191722500D01*
X179871427Y-191722500D02*
X179728570Y-191651071D01*
X179728570Y-191651071D02*
X179514285Y-191651071D01*
X179514285Y-191651071D02*
X179371427Y-191579642D01*
X179371427Y-191579642D02*
X179299999Y-191436785D01*
X179299999Y-191436785D02*
X179299999Y-191365357D01*
X179299999Y-191365357D02*
X179371427Y-191222500D01*
X179371427Y-191222500D02*
X179514285Y-191151071D01*
X179514285Y-191151071D02*
X179728570Y-191151071D01*
X179728570Y-191151071D02*
X179871427Y-191222500D01*
X180585713Y-191151071D02*
X180585713Y-192651071D01*
X180585713Y-191222500D02*
X180728571Y-191151071D01*
X180728571Y-191151071D02*
X181014285Y-191151071D01*
X181014285Y-191151071D02*
X181157142Y-191222500D01*
X181157142Y-191222500D02*
X181228571Y-191293928D01*
X181228571Y-191293928D02*
X181299999Y-191436785D01*
X181299999Y-191436785D02*
X181299999Y-191865357D01*
X181299999Y-191865357D02*
X181228571Y-192008214D01*
X181228571Y-192008214D02*
X181157142Y-192079642D01*
X181157142Y-192079642D02*
X181014285Y-192151071D01*
X181014285Y-192151071D02*
X180728571Y-192151071D01*
X180728571Y-192151071D02*
X180585713Y-192079642D01*
X182514285Y-192079642D02*
X182371428Y-192151071D01*
X182371428Y-192151071D02*
X182085714Y-192151071D01*
X182085714Y-192151071D02*
X181942856Y-192079642D01*
X181942856Y-192079642D02*
X181871428Y-191936785D01*
X181871428Y-191936785D02*
X181871428Y-191365357D01*
X181871428Y-191365357D02*
X181942856Y-191222500D01*
X181942856Y-191222500D02*
X182085714Y-191151071D01*
X182085714Y-191151071D02*
X182371428Y-191151071D01*
X182371428Y-191151071D02*
X182514285Y-191222500D01*
X182514285Y-191222500D02*
X182585714Y-191365357D01*
X182585714Y-191365357D02*
X182585714Y-191508214D01*
X182585714Y-191508214D02*
X181871428Y-191651071D01*
X183799999Y-192079642D02*
X183657142Y-192151071D01*
X183657142Y-192151071D02*
X183371428Y-192151071D01*
X183371428Y-192151071D02*
X183228570Y-192079642D01*
X183228570Y-192079642D02*
X183157142Y-191936785D01*
X183157142Y-191936785D02*
X183157142Y-191365357D01*
X183157142Y-191365357D02*
X183228570Y-191222500D01*
X183228570Y-191222500D02*
X183371428Y-191151071D01*
X183371428Y-191151071D02*
X183657142Y-191151071D01*
X183657142Y-191151071D02*
X183799999Y-191222500D01*
X183799999Y-191222500D02*
X183871428Y-191365357D01*
X183871428Y-191365357D02*
X183871428Y-191508214D01*
X183871428Y-191508214D02*
X183157142Y-191651071D01*
X185157142Y-192151071D02*
X185157142Y-190651071D01*
X185157142Y-192079642D02*
X185014284Y-192151071D01*
X185014284Y-192151071D02*
X184728570Y-192151071D01*
X184728570Y-192151071D02*
X184585713Y-192079642D01*
X184585713Y-192079642D02*
X184514284Y-192008214D01*
X184514284Y-192008214D02*
X184442856Y-191865357D01*
X184442856Y-191865357D02*
X184442856Y-191436785D01*
X184442856Y-191436785D02*
X184514284Y-191293928D01*
X184514284Y-191293928D02*
X184585713Y-191222500D01*
X184585713Y-191222500D02*
X184728570Y-191151071D01*
X184728570Y-191151071D02*
X185014284Y-191151071D01*
X185014284Y-191151071D02*
X185157142Y-191222500D01*
X185514285Y-192293928D02*
X186657142Y-192293928D01*
X186942856Y-192079642D02*
X187085713Y-192151071D01*
X187085713Y-192151071D02*
X187371427Y-192151071D01*
X187371427Y-192151071D02*
X187514284Y-192079642D01*
X187514284Y-192079642D02*
X187585713Y-191936785D01*
X187585713Y-191936785D02*
X187585713Y-191865357D01*
X187585713Y-191865357D02*
X187514284Y-191722500D01*
X187514284Y-191722500D02*
X187371427Y-191651071D01*
X187371427Y-191651071D02*
X187157142Y-191651071D01*
X187157142Y-191651071D02*
X187014284Y-191579642D01*
X187014284Y-191579642D02*
X186942856Y-191436785D01*
X186942856Y-191436785D02*
X186942856Y-191365357D01*
X186942856Y-191365357D02*
X187014284Y-191222500D01*
X187014284Y-191222500D02*
X187157142Y-191151071D01*
X187157142Y-191151071D02*
X187371427Y-191151071D01*
X187371427Y-191151071D02*
X187514284Y-191222500D01*
X188228570Y-192151071D02*
X188228570Y-191151071D01*
X188228570Y-190651071D02*
X188157142Y-190722500D01*
X188157142Y-190722500D02*
X188228570Y-190793928D01*
X188228570Y-190793928D02*
X188299999Y-190722500D01*
X188299999Y-190722500D02*
X188228570Y-190651071D01*
X188228570Y-190651071D02*
X188228570Y-190793928D01*
X189585714Y-191151071D02*
X189585714Y-192365357D01*
X189585714Y-192365357D02*
X189514285Y-192508214D01*
X189514285Y-192508214D02*
X189442856Y-192579642D01*
X189442856Y-192579642D02*
X189299999Y-192651071D01*
X189299999Y-192651071D02*
X189085714Y-192651071D01*
X189085714Y-192651071D02*
X188942856Y-192579642D01*
X189585714Y-192079642D02*
X189442856Y-192151071D01*
X189442856Y-192151071D02*
X189157142Y-192151071D01*
X189157142Y-192151071D02*
X189014285Y-192079642D01*
X189014285Y-192079642D02*
X188942856Y-192008214D01*
X188942856Y-192008214D02*
X188871428Y-191865357D01*
X188871428Y-191865357D02*
X188871428Y-191436785D01*
X188871428Y-191436785D02*
X188942856Y-191293928D01*
X188942856Y-191293928D02*
X189014285Y-191222500D01*
X189014285Y-191222500D02*
X189157142Y-191151071D01*
X189157142Y-191151071D02*
X189442856Y-191151071D01*
X189442856Y-191151071D02*
X189585714Y-191222500D01*
X190299999Y-191151071D02*
X190299999Y-192151071D01*
X190299999Y-191293928D02*
X190371428Y-191222500D01*
X190371428Y-191222500D02*
X190514285Y-191151071D01*
X190514285Y-191151071D02*
X190728571Y-191151071D01*
X190728571Y-191151071D02*
X190871428Y-191222500D01*
X190871428Y-191222500D02*
X190942857Y-191365357D01*
X190942857Y-191365357D02*
X190942857Y-192151071D01*
X191657142Y-192008214D02*
X191728571Y-192079642D01*
X191728571Y-192079642D02*
X191657142Y-192151071D01*
X191657142Y-192151071D02*
X191585714Y-192079642D01*
X191585714Y-192079642D02*
X191657142Y-192008214D01*
X191657142Y-192008214D02*
X191657142Y-192151071D01*
X192371428Y-192151071D02*
X192371428Y-190651071D01*
X192514286Y-191579642D02*
X192942857Y-192151071D01*
X192942857Y-191151071D02*
X192371428Y-191722500D01*
X193585714Y-192151071D02*
X193585714Y-191151071D01*
X193585714Y-190651071D02*
X193514286Y-190722500D01*
X193514286Y-190722500D02*
X193585714Y-190793928D01*
X193585714Y-190793928D02*
X193657143Y-190722500D01*
X193657143Y-190722500D02*
X193585714Y-190651071D01*
X193585714Y-190651071D02*
X193585714Y-190793928D01*
X194942858Y-192079642D02*
X194800000Y-192151071D01*
X194800000Y-192151071D02*
X194514286Y-192151071D01*
X194514286Y-192151071D02*
X194371429Y-192079642D01*
X194371429Y-192079642D02*
X194300000Y-192008214D01*
X194300000Y-192008214D02*
X194228572Y-191865357D01*
X194228572Y-191865357D02*
X194228572Y-191436785D01*
X194228572Y-191436785D02*
X194300000Y-191293928D01*
X194300000Y-191293928D02*
X194371429Y-191222500D01*
X194371429Y-191222500D02*
X194514286Y-191151071D01*
X194514286Y-191151071D02*
X194800000Y-191151071D01*
X194800000Y-191151071D02*
X194942858Y-191222500D01*
X196228572Y-192151071D02*
X196228572Y-191365357D01*
X196228572Y-191365357D02*
X196157143Y-191222500D01*
X196157143Y-191222500D02*
X196014286Y-191151071D01*
X196014286Y-191151071D02*
X195728572Y-191151071D01*
X195728572Y-191151071D02*
X195585714Y-191222500D01*
X196228572Y-192079642D02*
X196085714Y-192151071D01*
X196085714Y-192151071D02*
X195728572Y-192151071D01*
X195728572Y-192151071D02*
X195585714Y-192079642D01*
X195585714Y-192079642D02*
X195514286Y-191936785D01*
X195514286Y-191936785D02*
X195514286Y-191793928D01*
X195514286Y-191793928D02*
X195585714Y-191651071D01*
X195585714Y-191651071D02*
X195728572Y-191579642D01*
X195728572Y-191579642D02*
X196085714Y-191579642D01*
X196085714Y-191579642D02*
X196228572Y-191508214D01*
X197585715Y-192151071D02*
X197585715Y-190651071D01*
X197585715Y-192079642D02*
X197442857Y-192151071D01*
X197442857Y-192151071D02*
X197157143Y-192151071D01*
X197157143Y-192151071D02*
X197014286Y-192079642D01*
X197014286Y-192079642D02*
X196942857Y-192008214D01*
X196942857Y-192008214D02*
X196871429Y-191865357D01*
X196871429Y-191865357D02*
X196871429Y-191436785D01*
X196871429Y-191436785D02*
X196942857Y-191293928D01*
X196942857Y-191293928D02*
X197014286Y-191222500D01*
X197014286Y-191222500D02*
X197157143Y-191151071D01*
X197157143Y-191151071D02*
X197442857Y-191151071D01*
X197442857Y-191151071D02*
X197585715Y-191222500D01*
X197942858Y-192293928D02*
X199085715Y-192293928D01*
X199442857Y-191151071D02*
X199442857Y-192651071D01*
X199442857Y-191222500D02*
X199585715Y-191151071D01*
X199585715Y-191151071D02*
X199871429Y-191151071D01*
X199871429Y-191151071D02*
X200014286Y-191222500D01*
X200014286Y-191222500D02*
X200085715Y-191293928D01*
X200085715Y-191293928D02*
X200157143Y-191436785D01*
X200157143Y-191436785D02*
X200157143Y-191865357D01*
X200157143Y-191865357D02*
X200085715Y-192008214D01*
X200085715Y-192008214D02*
X200014286Y-192079642D01*
X200014286Y-192079642D02*
X199871429Y-192151071D01*
X199871429Y-192151071D02*
X199585715Y-192151071D01*
X199585715Y-192151071D02*
X199442857Y-192079642D01*
X201442858Y-192079642D02*
X201300000Y-192151071D01*
X201300000Y-192151071D02*
X201014286Y-192151071D01*
X201014286Y-192151071D02*
X200871429Y-192079642D01*
X200871429Y-192079642D02*
X200800000Y-192008214D01*
X200800000Y-192008214D02*
X200728572Y-191865357D01*
X200728572Y-191865357D02*
X200728572Y-191436785D01*
X200728572Y-191436785D02*
X200800000Y-191293928D01*
X200800000Y-191293928D02*
X200871429Y-191222500D01*
X200871429Y-191222500D02*
X201014286Y-191151071D01*
X201014286Y-191151071D02*
X201300000Y-191151071D01*
X201300000Y-191151071D02*
X201442858Y-191222500D01*
X202085714Y-192151071D02*
X202085714Y-190651071D01*
X202085714Y-191222500D02*
X202228572Y-191151071D01*
X202228572Y-191151071D02*
X202514286Y-191151071D01*
X202514286Y-191151071D02*
X202657143Y-191222500D01*
X202657143Y-191222500D02*
X202728572Y-191293928D01*
X202728572Y-191293928D02*
X202800000Y-191436785D01*
X202800000Y-191436785D02*
X202800000Y-191865357D01*
X202800000Y-191865357D02*
X202728572Y-192008214D01*
X202728572Y-192008214D02*
X202657143Y-192079642D01*
X202657143Y-192079642D02*
X202514286Y-192151071D01*
X202514286Y-192151071D02*
X202228572Y-192151071D01*
X202228572Y-192151071D02*
X202085714Y-192079642D01*
D10*
D11*
X159400000Y-187400000D02*
X267400000Y-187400000D01*
D10*
D11*
X160685714Y-189379642D02*
X160900000Y-189451071D01*
X160900000Y-189451071D02*
X161257142Y-189451071D01*
X161257142Y-189451071D02*
X161400000Y-189379642D01*
X161400000Y-189379642D02*
X161471428Y-189308214D01*
X161471428Y-189308214D02*
X161542857Y-189165357D01*
X161542857Y-189165357D02*
X161542857Y-189022500D01*
X161542857Y-189022500D02*
X161471428Y-188879642D01*
X161471428Y-188879642D02*
X161400000Y-188808214D01*
X161400000Y-188808214D02*
X161257142Y-188736785D01*
X161257142Y-188736785D02*
X160971428Y-188665357D01*
X160971428Y-188665357D02*
X160828571Y-188593928D01*
X160828571Y-188593928D02*
X160757142Y-188522500D01*
X160757142Y-188522500D02*
X160685714Y-188379642D01*
X160685714Y-188379642D02*
X160685714Y-188236785D01*
X160685714Y-188236785D02*
X160757142Y-188093928D01*
X160757142Y-188093928D02*
X160828571Y-188022500D01*
X160828571Y-188022500D02*
X160971428Y-187951071D01*
X160971428Y-187951071D02*
X161328571Y-187951071D01*
X161328571Y-187951071D02*
X161542857Y-188022500D01*
X162185713Y-189451071D02*
X162185713Y-187951071D01*
X162828571Y-189451071D02*
X162828571Y-188665357D01*
X162828571Y-188665357D02*
X162757142Y-188522500D01*
X162757142Y-188522500D02*
X162614285Y-188451071D01*
X162614285Y-188451071D02*
X162399999Y-188451071D01*
X162399999Y-188451071D02*
X162257142Y-188522500D01*
X162257142Y-188522500D02*
X162185713Y-188593928D01*
X164114285Y-189379642D02*
X163971428Y-189451071D01*
X163971428Y-189451071D02*
X163685714Y-189451071D01*
X163685714Y-189451071D02*
X163542856Y-189379642D01*
X163542856Y-189379642D02*
X163471428Y-189236785D01*
X163471428Y-189236785D02*
X163471428Y-188665357D01*
X163471428Y-188665357D02*
X163542856Y-188522500D01*
X163542856Y-188522500D02*
X163685714Y-188451071D01*
X163685714Y-188451071D02*
X163971428Y-188451071D01*
X163971428Y-188451071D02*
X164114285Y-188522500D01*
X164114285Y-188522500D02*
X164185714Y-188665357D01*
X164185714Y-188665357D02*
X164185714Y-188808214D01*
X164185714Y-188808214D02*
X163471428Y-188951071D01*
X165399999Y-189379642D02*
X165257142Y-189451071D01*
X165257142Y-189451071D02*
X164971428Y-189451071D01*
X164971428Y-189451071D02*
X164828570Y-189379642D01*
X164828570Y-189379642D02*
X164757142Y-189236785D01*
X164757142Y-189236785D02*
X164757142Y-188665357D01*
X164757142Y-188665357D02*
X164828570Y-188522500D01*
X164828570Y-188522500D02*
X164971428Y-188451071D01*
X164971428Y-188451071D02*
X165257142Y-188451071D01*
X165257142Y-188451071D02*
X165399999Y-188522500D01*
X165399999Y-188522500D02*
X165471428Y-188665357D01*
X165471428Y-188665357D02*
X165471428Y-188808214D01*
X165471428Y-188808214D02*
X164757142Y-188951071D01*
X165899999Y-188451071D02*
X166471427Y-188451071D01*
X166114284Y-187951071D02*
X166114284Y-189236785D01*
X166114284Y-189236785D02*
X166185713Y-189379642D01*
X166185713Y-189379642D02*
X166328570Y-189451071D01*
X166328570Y-189451071D02*
X166471427Y-189451071D01*
X166971427Y-189308214D02*
X167042856Y-189379642D01*
X167042856Y-189379642D02*
X166971427Y-189451071D01*
X166971427Y-189451071D02*
X166899999Y-189379642D01*
X166899999Y-189379642D02*
X166971427Y-189308214D01*
X166971427Y-189308214D02*
X166971427Y-189451071D01*
X166971427Y-188522500D02*
X167042856Y-188593928D01*
X167042856Y-188593928D02*
X166971427Y-188665357D01*
X166971427Y-188665357D02*
X166899999Y-188593928D01*
X166899999Y-188593928D02*
X166971427Y-188522500D01*
X166971427Y-188522500D02*
X166971427Y-188665357D01*
D10*
D12*
X160757142Y-186451071D02*
X160757142Y-184951071D01*
X160757142Y-184951071D02*
X161328571Y-184951071D01*
X161328571Y-184951071D02*
X161471428Y-185022500D01*
X161471428Y-185022500D02*
X161542857Y-185093928D01*
X161542857Y-185093928D02*
X161614285Y-185236785D01*
X161614285Y-185236785D02*
X161614285Y-185451071D01*
X161614285Y-185451071D02*
X161542857Y-185593928D01*
X161542857Y-185593928D02*
X161471428Y-185665357D01*
X161471428Y-185665357D02*
X161328571Y-185736785D01*
X161328571Y-185736785D02*
X160757142Y-185736785D01*
X162900000Y-186451071D02*
X162900000Y-185665357D01*
X162900000Y-185665357D02*
X162828571Y-185522500D01*
X162828571Y-185522500D02*
X162685714Y-185451071D01*
X162685714Y-185451071D02*
X162400000Y-185451071D01*
X162400000Y-185451071D02*
X162257142Y-185522500D01*
X162900000Y-186379642D02*
X162757142Y-186451071D01*
X162757142Y-186451071D02*
X162400000Y-186451071D01*
X162400000Y-186451071D02*
X162257142Y-186379642D01*
X162257142Y-186379642D02*
X162185714Y-186236785D01*
X162185714Y-186236785D02*
X162185714Y-186093928D01*
X162185714Y-186093928D02*
X162257142Y-185951071D01*
X162257142Y-185951071D02*
X162400000Y-185879642D01*
X162400000Y-185879642D02*
X162757142Y-185879642D01*
X162757142Y-185879642D02*
X162900000Y-185808214D01*
X163614285Y-185451071D02*
X163614285Y-186451071D01*
X163614285Y-185593928D02*
X163685714Y-185522500D01*
X163685714Y-185522500D02*
X163828571Y-185451071D01*
X163828571Y-185451071D02*
X164042857Y-185451071D01*
X164042857Y-185451071D02*
X164185714Y-185522500D01*
X164185714Y-185522500D02*
X164257143Y-185665357D01*
X164257143Y-185665357D02*
X164257143Y-186451071D01*
X164757143Y-185451071D02*
X165328571Y-185451071D01*
X164971428Y-184951071D02*
X164971428Y-186236785D01*
X164971428Y-186236785D02*
X165042857Y-186379642D01*
X165042857Y-186379642D02*
X165185714Y-186451071D01*
X165185714Y-186451071D02*
X165328571Y-186451071D01*
X165757143Y-186379642D02*
X165900000Y-186451071D01*
X165900000Y-186451071D02*
X166185714Y-186451071D01*
X166185714Y-186451071D02*
X166328571Y-186379642D01*
X166328571Y-186379642D02*
X166400000Y-186236785D01*
X166400000Y-186236785D02*
X166400000Y-186165357D01*
X166400000Y-186165357D02*
X166328571Y-186022500D01*
X166328571Y-186022500D02*
X166185714Y-185951071D01*
X166185714Y-185951071D02*
X165971429Y-185951071D01*
X165971429Y-185951071D02*
X165828571Y-185879642D01*
X165828571Y-185879642D02*
X165757143Y-185736785D01*
X165757143Y-185736785D02*
X165757143Y-185665357D01*
X165757143Y-185665357D02*
X165828571Y-185522500D01*
X165828571Y-185522500D02*
X165971429Y-185451071D01*
X165971429Y-185451071D02*
X166185714Y-185451071D01*
X166185714Y-185451071D02*
X166328571Y-185522500D01*
X167728572Y-185451071D02*
X168300000Y-185451071D01*
X167942857Y-186451071D02*
X167942857Y-185165357D01*
X167942857Y-185165357D02*
X168014286Y-185022500D01*
X168014286Y-185022500D02*
X168157143Y-184951071D01*
X168157143Y-184951071D02*
X168300000Y-184951071D01*
X169014286Y-186451071D02*
X168871429Y-186379642D01*
X168871429Y-186379642D02*
X168800000Y-186308214D01*
X168800000Y-186308214D02*
X168728572Y-186165357D01*
X168728572Y-186165357D02*
X168728572Y-185736785D01*
X168728572Y-185736785D02*
X168800000Y-185593928D01*
X168800000Y-185593928D02*
X168871429Y-185522500D01*
X168871429Y-185522500D02*
X169014286Y-185451071D01*
X169014286Y-185451071D02*
X169228572Y-185451071D01*
X169228572Y-185451071D02*
X169371429Y-185522500D01*
X169371429Y-185522500D02*
X169442858Y-185593928D01*
X169442858Y-185593928D02*
X169514286Y-185736785D01*
X169514286Y-185736785D02*
X169514286Y-186165357D01*
X169514286Y-186165357D02*
X169442858Y-186308214D01*
X169442858Y-186308214D02*
X169371429Y-186379642D01*
X169371429Y-186379642D02*
X169228572Y-186451071D01*
X169228572Y-186451071D02*
X169014286Y-186451071D01*
X170157143Y-186451071D02*
X170157143Y-185451071D01*
X170157143Y-185736785D02*
X170228572Y-185593928D01*
X170228572Y-185593928D02*
X170300001Y-185522500D01*
X170300001Y-185522500D02*
X170442858Y-185451071D01*
X170442858Y-185451071D02*
X170585715Y-185451071D01*
X172485714Y-185665357D02*
X172700000Y-185736785D01*
X172700000Y-185736785D02*
X172771429Y-185808214D01*
X172771429Y-185808214D02*
X172842857Y-185951071D01*
X172842857Y-185951071D02*
X172842857Y-186165357D01*
X172842857Y-186165357D02*
X172771429Y-186308214D01*
X172771429Y-186308214D02*
X172700000Y-186379642D01*
X172700000Y-186379642D02*
X172557143Y-186451071D01*
X172557143Y-186451071D02*
X171985714Y-186451071D01*
X171985714Y-186451071D02*
X171985714Y-184951071D01*
X171985714Y-184951071D02*
X172485714Y-184951071D01*
X172485714Y-184951071D02*
X172628572Y-185022500D01*
X172628572Y-185022500D02*
X172700000Y-185093928D01*
X172700000Y-185093928D02*
X172771429Y-185236785D01*
X172771429Y-185236785D02*
X172771429Y-185379642D01*
X172771429Y-185379642D02*
X172700000Y-185522500D01*
X172700000Y-185522500D02*
X172628572Y-185593928D01*
X172628572Y-185593928D02*
X172485714Y-185665357D01*
X172485714Y-185665357D02*
X171985714Y-185665357D01*
X173485714Y-186451071D02*
X173485714Y-185451071D01*
X173485714Y-184951071D02*
X173414286Y-185022500D01*
X173414286Y-185022500D02*
X173485714Y-185093928D01*
X173485714Y-185093928D02*
X173557143Y-185022500D01*
X173557143Y-185022500D02*
X173485714Y-184951071D01*
X173485714Y-184951071D02*
X173485714Y-185093928D01*
X174200000Y-186451071D02*
X174200000Y-185451071D01*
X174200000Y-185736785D02*
X174271429Y-185593928D01*
X174271429Y-185593928D02*
X174342858Y-185522500D01*
X174342858Y-185522500D02*
X174485715Y-185451071D01*
X174485715Y-185451071D02*
X174628572Y-185451071D01*
X175771429Y-186451071D02*
X175771429Y-184951071D01*
X175771429Y-186379642D02*
X175628571Y-186451071D01*
X175628571Y-186451071D02*
X175342857Y-186451071D01*
X175342857Y-186451071D02*
X175200000Y-186379642D01*
X175200000Y-186379642D02*
X175128571Y-186308214D01*
X175128571Y-186308214D02*
X175057143Y-186165357D01*
X175057143Y-186165357D02*
X175057143Y-185736785D01*
X175057143Y-185736785D02*
X175128571Y-185593928D01*
X175128571Y-185593928D02*
X175200000Y-185522500D01*
X175200000Y-185522500D02*
X175342857Y-185451071D01*
X175342857Y-185451071D02*
X175628571Y-185451071D01*
X175628571Y-185451071D02*
X175771429Y-185522500D01*
X176414286Y-186379642D02*
X176557143Y-186451071D01*
X176557143Y-186451071D02*
X176842857Y-186451071D01*
X176842857Y-186451071D02*
X176985714Y-186379642D01*
X176985714Y-186379642D02*
X177057143Y-186236785D01*
X177057143Y-186236785D02*
X177057143Y-186165357D01*
X177057143Y-186165357D02*
X176985714Y-186022500D01*
X176985714Y-186022500D02*
X176842857Y-185951071D01*
X176842857Y-185951071D02*
X176628572Y-185951071D01*
X176628572Y-185951071D02*
X176485714Y-185879642D01*
X176485714Y-185879642D02*
X176414286Y-185736785D01*
X176414286Y-185736785D02*
X176414286Y-185665357D01*
X176414286Y-185665357D02*
X176485714Y-185522500D01*
X176485714Y-185522500D02*
X176628572Y-185451071D01*
X176628572Y-185451071D02*
X176842857Y-185451071D01*
X176842857Y-185451071D02*
X176985714Y-185522500D01*
D10*
D11*
X161185714Y-181951071D02*
X161185714Y-183022500D01*
X161185714Y-183022500D02*
X161114285Y-183236785D01*
X161114285Y-183236785D02*
X160971428Y-183379642D01*
X160971428Y-183379642D02*
X160757142Y-183451071D01*
X160757142Y-183451071D02*
X160614285Y-183451071D01*
X162114285Y-183451071D02*
X161971428Y-183379642D01*
X161971428Y-183379642D02*
X161899999Y-183308214D01*
X161899999Y-183308214D02*
X161828571Y-183165357D01*
X161828571Y-183165357D02*
X161828571Y-182736785D01*
X161828571Y-182736785D02*
X161899999Y-182593928D01*
X161899999Y-182593928D02*
X161971428Y-182522500D01*
X161971428Y-182522500D02*
X162114285Y-182451071D01*
X162114285Y-182451071D02*
X162328571Y-182451071D01*
X162328571Y-182451071D02*
X162471428Y-182522500D01*
X162471428Y-182522500D02*
X162542857Y-182593928D01*
X162542857Y-182593928D02*
X162614285Y-182736785D01*
X162614285Y-182736785D02*
X162614285Y-183165357D01*
X162614285Y-183165357D02*
X162542857Y-183308214D01*
X162542857Y-183308214D02*
X162471428Y-183379642D01*
X162471428Y-183379642D02*
X162328571Y-183451071D01*
X162328571Y-183451071D02*
X162114285Y-183451071D01*
X163257142Y-183451071D02*
X163257142Y-181951071D01*
X163900000Y-183451071D02*
X163900000Y-182665357D01*
X163900000Y-182665357D02*
X163828571Y-182522500D01*
X163828571Y-182522500D02*
X163685714Y-182451071D01*
X163685714Y-182451071D02*
X163471428Y-182451071D01*
X163471428Y-182451071D02*
X163328571Y-182522500D01*
X163328571Y-182522500D02*
X163257142Y-182593928D01*
X164614285Y-182451071D02*
X164614285Y-183451071D01*
X164614285Y-182593928D02*
X164685714Y-182522500D01*
X164685714Y-182522500D02*
X164828571Y-182451071D01*
X164828571Y-182451071D02*
X165042857Y-182451071D01*
X165042857Y-182451071D02*
X165185714Y-182522500D01*
X165185714Y-182522500D02*
X165257143Y-182665357D01*
X165257143Y-182665357D02*
X165257143Y-183451071D01*
X166871428Y-183451071D02*
X166871428Y-181951071D01*
X166871428Y-181951071D02*
X167371428Y-183022500D01*
X167371428Y-183022500D02*
X167871428Y-181951071D01*
X167871428Y-181951071D02*
X167871428Y-183451071D01*
X169228572Y-183379642D02*
X169085714Y-183451071D01*
X169085714Y-183451071D02*
X168800000Y-183451071D01*
X168800000Y-183451071D02*
X168657143Y-183379642D01*
X168657143Y-183379642D02*
X168585714Y-183308214D01*
X168585714Y-183308214D02*
X168514286Y-183165357D01*
X168514286Y-183165357D02*
X168514286Y-182736785D01*
X168514286Y-182736785D02*
X168585714Y-182593928D01*
X168585714Y-182593928D02*
X168657143Y-182522500D01*
X168657143Y-182522500D02*
X168800000Y-182451071D01*
X168800000Y-182451071D02*
X169085714Y-182451071D01*
X169085714Y-182451071D02*
X169228572Y-182522500D01*
X169871428Y-183451071D02*
X169871428Y-181951071D01*
X169871428Y-181951071D02*
X170728571Y-183451071D01*
X170728571Y-183451071D02*
X170728571Y-181951071D01*
X172014286Y-183379642D02*
X171871429Y-183451071D01*
X171871429Y-183451071D02*
X171585715Y-183451071D01*
X171585715Y-183451071D02*
X171442857Y-183379642D01*
X171442857Y-183379642D02*
X171371429Y-183236785D01*
X171371429Y-183236785D02*
X171371429Y-182665357D01*
X171371429Y-182665357D02*
X171442857Y-182522500D01*
X171442857Y-182522500D02*
X171585715Y-182451071D01*
X171585715Y-182451071D02*
X171871429Y-182451071D01*
X171871429Y-182451071D02*
X172014286Y-182522500D01*
X172014286Y-182522500D02*
X172085715Y-182665357D01*
X172085715Y-182665357D02*
X172085715Y-182808214D01*
X172085715Y-182808214D02*
X171371429Y-182951071D01*
X172942857Y-183451071D02*
X172800000Y-183379642D01*
X172800000Y-183379642D02*
X172728571Y-183236785D01*
X172728571Y-183236785D02*
X172728571Y-181951071D01*
X173728571Y-183451071D02*
X173585714Y-183379642D01*
X173585714Y-183379642D02*
X173514285Y-183236785D01*
X173514285Y-183236785D02*
X173514285Y-181951071D01*
X174157142Y-182451071D02*
X174514285Y-183451071D01*
X174871428Y-182451071D02*
X174514285Y-183451071D01*
X174514285Y-183451071D02*
X174371428Y-183808214D01*
X174371428Y-183808214D02*
X174299999Y-183879642D01*
X174299999Y-183879642D02*
X174157142Y-183951071D01*
X176342856Y-182879642D02*
X177485714Y-182879642D01*
X179099999Y-182451071D02*
X179099999Y-183736785D01*
X179099999Y-183736785D02*
X179028571Y-183879642D01*
X179028571Y-183879642D02*
X178885714Y-183951071D01*
X178885714Y-183951071D02*
X178814285Y-183951071D01*
X179099999Y-181951071D02*
X179028571Y-182022500D01*
X179028571Y-182022500D02*
X179099999Y-182093928D01*
X179099999Y-182093928D02*
X179171428Y-182022500D01*
X179171428Y-182022500D02*
X179099999Y-181951071D01*
X179099999Y-181951071D02*
X179099999Y-182093928D01*
X179814285Y-183451071D02*
X179814285Y-181951071D01*
X179957143Y-182879642D02*
X180385714Y-183451071D01*
X180385714Y-182451071D02*
X179814285Y-183022500D01*
X181671429Y-183451071D02*
X181671429Y-182665357D01*
X181671429Y-182665357D02*
X181600000Y-182522500D01*
X181600000Y-182522500D02*
X181457143Y-182451071D01*
X181457143Y-182451071D02*
X181171429Y-182451071D01*
X181171429Y-182451071D02*
X181028571Y-182522500D01*
X181671429Y-183379642D02*
X181528571Y-183451071D01*
X181528571Y-183451071D02*
X181171429Y-183451071D01*
X181171429Y-183451071D02*
X181028571Y-183379642D01*
X181028571Y-183379642D02*
X180957143Y-183236785D01*
X180957143Y-183236785D02*
X180957143Y-183093928D01*
X180957143Y-183093928D02*
X181028571Y-182951071D01*
X181028571Y-182951071D02*
X181171429Y-182879642D01*
X181171429Y-182879642D02*
X181528571Y-182879642D01*
X181528571Y-182879642D02*
X181671429Y-182808214D01*
X182385714Y-183451071D02*
X182385714Y-182451071D01*
X182385714Y-181951071D02*
X182314286Y-182022500D01*
X182314286Y-182022500D02*
X182385714Y-182093928D01*
X182385714Y-182093928D02*
X182457143Y-182022500D01*
X182457143Y-182022500D02*
X182385714Y-181951071D01*
X182385714Y-181951071D02*
X182385714Y-182093928D01*
X183314286Y-183451071D02*
X183171429Y-183379642D01*
X183171429Y-183379642D02*
X183100000Y-183236785D01*
X183100000Y-183236785D02*
X183100000Y-181951071D01*
X183885714Y-183451071D02*
X183885714Y-182451071D01*
X183885714Y-181951071D02*
X183814286Y-182022500D01*
X183814286Y-182022500D02*
X183885714Y-182093928D01*
X183885714Y-182093928D02*
X183957143Y-182022500D01*
X183957143Y-182022500D02*
X183885714Y-181951071D01*
X183885714Y-181951071D02*
X183885714Y-182093928D01*
X184600000Y-183451071D02*
X184600000Y-182451071D01*
X184600000Y-182593928D02*
X184671429Y-182522500D01*
X184671429Y-182522500D02*
X184814286Y-182451071D01*
X184814286Y-182451071D02*
X185028572Y-182451071D01*
X185028572Y-182451071D02*
X185171429Y-182522500D01*
X185171429Y-182522500D02*
X185242858Y-182665357D01*
X185242858Y-182665357D02*
X185242858Y-183451071D01*
X185242858Y-182665357D02*
X185314286Y-182522500D01*
X185314286Y-182522500D02*
X185457143Y-182451071D01*
X185457143Y-182451071D02*
X185671429Y-182451071D01*
X185671429Y-182451071D02*
X185814286Y-182522500D01*
X185814286Y-182522500D02*
X185885715Y-182665357D01*
X185885715Y-182665357D02*
X185885715Y-183451071D01*
X187242858Y-183379642D02*
X187100000Y-183451071D01*
X187100000Y-183451071D02*
X186814286Y-183451071D01*
X186814286Y-183451071D02*
X186671429Y-183379642D01*
X186671429Y-183379642D02*
X186600000Y-183308214D01*
X186600000Y-183308214D02*
X186528572Y-183165357D01*
X186528572Y-183165357D02*
X186528572Y-182736785D01*
X186528572Y-182736785D02*
X186600000Y-182593928D01*
X186600000Y-182593928D02*
X186671429Y-182522500D01*
X186671429Y-182522500D02*
X186814286Y-182451071D01*
X186814286Y-182451071D02*
X187100000Y-182451071D01*
X187100000Y-182451071D02*
X187242858Y-182522500D01*
X187885714Y-182451071D02*
X187885714Y-183451071D01*
X187885714Y-182593928D02*
X187957143Y-182522500D01*
X187957143Y-182522500D02*
X188100000Y-182451071D01*
X188100000Y-182451071D02*
X188314286Y-182451071D01*
X188314286Y-182451071D02*
X188457143Y-182522500D01*
X188457143Y-182522500D02*
X188528572Y-182665357D01*
X188528572Y-182665357D02*
X188528572Y-183451071D01*
X189814286Y-183379642D02*
X189671429Y-183451071D01*
X189671429Y-183451071D02*
X189385715Y-183451071D01*
X189385715Y-183451071D02*
X189242857Y-183379642D01*
X189242857Y-183379642D02*
X189171429Y-183236785D01*
X189171429Y-183236785D02*
X189171429Y-182665357D01*
X189171429Y-182665357D02*
X189242857Y-182522500D01*
X189242857Y-182522500D02*
X189385715Y-182451071D01*
X189385715Y-182451071D02*
X189671429Y-182451071D01*
X189671429Y-182451071D02*
X189814286Y-182522500D01*
X189814286Y-182522500D02*
X189885715Y-182665357D01*
X189885715Y-182665357D02*
X189885715Y-182808214D01*
X189885715Y-182808214D02*
X189171429Y-182951071D01*
X190742857Y-183451071D02*
X190600000Y-183379642D01*
X190600000Y-183379642D02*
X190528571Y-183236785D01*
X190528571Y-183236785D02*
X190528571Y-181951071D01*
X191528571Y-183451071D02*
X191385714Y-183379642D01*
X191385714Y-183379642D02*
X191314285Y-183236785D01*
X191314285Y-183236785D02*
X191314285Y-181951071D01*
X191957142Y-182451071D02*
X192314285Y-183451071D01*
X192671428Y-182451071D02*
X192314285Y-183451071D01*
X192314285Y-183451071D02*
X192171428Y-183808214D01*
X192171428Y-183808214D02*
X192099999Y-183879642D01*
X192099999Y-183879642D02*
X191957142Y-183951071D01*
X194171428Y-182736785D02*
X194099999Y-182665357D01*
X194099999Y-182665357D02*
X193957142Y-182593928D01*
X193957142Y-182593928D02*
X193814285Y-182593928D01*
X193814285Y-182593928D02*
X193671428Y-182665357D01*
X193671428Y-182665357D02*
X193599999Y-182736785D01*
X193599999Y-182736785D02*
X193528571Y-182879642D01*
X193528571Y-182879642D02*
X193528571Y-183022500D01*
X193528571Y-183022500D02*
X193599999Y-183165357D01*
X193599999Y-183165357D02*
X193671428Y-183236785D01*
X193671428Y-183236785D02*
X193814285Y-183308214D01*
X193814285Y-183308214D02*
X193957142Y-183308214D01*
X193957142Y-183308214D02*
X194099999Y-183236785D01*
X194099999Y-183236785D02*
X194171428Y-183165357D01*
X194171428Y-182593928D02*
X194171428Y-183165357D01*
X194171428Y-183165357D02*
X194242856Y-183236785D01*
X194242856Y-183236785D02*
X194314285Y-183236785D01*
X194314285Y-183236785D02*
X194457142Y-183165357D01*
X194457142Y-183165357D02*
X194528571Y-183022500D01*
X194528571Y-183022500D02*
X194528571Y-182665357D01*
X194528571Y-182665357D02*
X194385714Y-182451071D01*
X194385714Y-182451071D02*
X194171428Y-182308214D01*
X194171428Y-182308214D02*
X193885714Y-182236785D01*
X193885714Y-182236785D02*
X193599999Y-182308214D01*
X193599999Y-182308214D02*
X193385714Y-182451071D01*
X193385714Y-182451071D02*
X193242856Y-182665357D01*
X193242856Y-182665357D02*
X193171428Y-182951071D01*
X193171428Y-182951071D02*
X193242856Y-183236785D01*
X193242856Y-183236785D02*
X193385714Y-183451071D01*
X193385714Y-183451071D02*
X193599999Y-183593928D01*
X193599999Y-183593928D02*
X193885714Y-183665357D01*
X193885714Y-183665357D02*
X194171428Y-183593928D01*
X194171428Y-183593928D02*
X194385714Y-183451071D01*
X195814285Y-182451071D02*
X195814285Y-183665357D01*
X195814285Y-183665357D02*
X195742856Y-183808214D01*
X195742856Y-183808214D02*
X195671427Y-183879642D01*
X195671427Y-183879642D02*
X195528570Y-183951071D01*
X195528570Y-183951071D02*
X195314285Y-183951071D01*
X195314285Y-183951071D02*
X195171427Y-183879642D01*
X195814285Y-183379642D02*
X195671427Y-183451071D01*
X195671427Y-183451071D02*
X195385713Y-183451071D01*
X195385713Y-183451071D02*
X195242856Y-183379642D01*
X195242856Y-183379642D02*
X195171427Y-183308214D01*
X195171427Y-183308214D02*
X195099999Y-183165357D01*
X195099999Y-183165357D02*
X195099999Y-182736785D01*
X195099999Y-182736785D02*
X195171427Y-182593928D01*
X195171427Y-182593928D02*
X195242856Y-182522500D01*
X195242856Y-182522500D02*
X195385713Y-182451071D01*
X195385713Y-182451071D02*
X195671427Y-182451071D01*
X195671427Y-182451071D02*
X195814285Y-182522500D01*
X196528570Y-183451071D02*
X196528570Y-182451071D01*
X196528570Y-182593928D02*
X196599999Y-182522500D01*
X196599999Y-182522500D02*
X196742856Y-182451071D01*
X196742856Y-182451071D02*
X196957142Y-182451071D01*
X196957142Y-182451071D02*
X197099999Y-182522500D01*
X197099999Y-182522500D02*
X197171428Y-182665357D01*
X197171428Y-182665357D02*
X197171428Y-183451071D01*
X197171428Y-182665357D02*
X197242856Y-182522500D01*
X197242856Y-182522500D02*
X197385713Y-182451071D01*
X197385713Y-182451071D02*
X197599999Y-182451071D01*
X197599999Y-182451071D02*
X197742856Y-182522500D01*
X197742856Y-182522500D02*
X197814285Y-182665357D01*
X197814285Y-182665357D02*
X197814285Y-183451071D01*
X199171428Y-183451071D02*
X199171428Y-182665357D01*
X199171428Y-182665357D02*
X199099999Y-182522500D01*
X199099999Y-182522500D02*
X198957142Y-182451071D01*
X198957142Y-182451071D02*
X198671428Y-182451071D01*
X198671428Y-182451071D02*
X198528570Y-182522500D01*
X199171428Y-183379642D02*
X199028570Y-183451071D01*
X199028570Y-183451071D02*
X198671428Y-183451071D01*
X198671428Y-183451071D02*
X198528570Y-183379642D01*
X198528570Y-183379642D02*
X198457142Y-183236785D01*
X198457142Y-183236785D02*
X198457142Y-183093928D01*
X198457142Y-183093928D02*
X198528570Y-182951071D01*
X198528570Y-182951071D02*
X198671428Y-182879642D01*
X198671428Y-182879642D02*
X199028570Y-182879642D01*
X199028570Y-182879642D02*
X199171428Y-182808214D01*
X199885713Y-183451071D02*
X199885713Y-182451071D01*
X199885713Y-181951071D02*
X199814285Y-182022500D01*
X199814285Y-182022500D02*
X199885713Y-182093928D01*
X199885713Y-182093928D02*
X199957142Y-182022500D01*
X199957142Y-182022500D02*
X199885713Y-181951071D01*
X199885713Y-181951071D02*
X199885713Y-182093928D01*
X200814285Y-183451071D02*
X200671428Y-183379642D01*
X200671428Y-183379642D02*
X200599999Y-183236785D01*
X200599999Y-183236785D02*
X200599999Y-181951071D01*
X201385713Y-183308214D02*
X201457142Y-183379642D01*
X201457142Y-183379642D02*
X201385713Y-183451071D01*
X201385713Y-183451071D02*
X201314285Y-183379642D01*
X201314285Y-183379642D02*
X201385713Y-183308214D01*
X201385713Y-183308214D02*
X201385713Y-183451071D01*
X202742857Y-183379642D02*
X202599999Y-183451071D01*
X202599999Y-183451071D02*
X202314285Y-183451071D01*
X202314285Y-183451071D02*
X202171428Y-183379642D01*
X202171428Y-183379642D02*
X202099999Y-183308214D01*
X202099999Y-183308214D02*
X202028571Y-183165357D01*
X202028571Y-183165357D02*
X202028571Y-182736785D01*
X202028571Y-182736785D02*
X202099999Y-182593928D01*
X202099999Y-182593928D02*
X202171428Y-182522500D01*
X202171428Y-182522500D02*
X202314285Y-182451071D01*
X202314285Y-182451071D02*
X202599999Y-182451071D01*
X202599999Y-182451071D02*
X202742857Y-182522500D01*
X203599999Y-183451071D02*
X203457142Y-183379642D01*
X203457142Y-183379642D02*
X203385713Y-183308214D01*
X203385713Y-183308214D02*
X203314285Y-183165357D01*
X203314285Y-183165357D02*
X203314285Y-182736785D01*
X203314285Y-182736785D02*
X203385713Y-182593928D01*
X203385713Y-182593928D02*
X203457142Y-182522500D01*
X203457142Y-182522500D02*
X203599999Y-182451071D01*
X203599999Y-182451071D02*
X203814285Y-182451071D01*
X203814285Y-182451071D02*
X203957142Y-182522500D01*
X203957142Y-182522500D02*
X204028571Y-182593928D01*
X204028571Y-182593928D02*
X204099999Y-182736785D01*
X204099999Y-182736785D02*
X204099999Y-183165357D01*
X204099999Y-183165357D02*
X204028571Y-183308214D01*
X204028571Y-183308214D02*
X203957142Y-183379642D01*
X203957142Y-183379642D02*
X203814285Y-183451071D01*
X203814285Y-183451071D02*
X203599999Y-183451071D01*
X204742856Y-183451071D02*
X204742856Y-182451071D01*
X204742856Y-182593928D02*
X204814285Y-182522500D01*
X204814285Y-182522500D02*
X204957142Y-182451071D01*
X204957142Y-182451071D02*
X205171428Y-182451071D01*
X205171428Y-182451071D02*
X205314285Y-182522500D01*
X205314285Y-182522500D02*
X205385714Y-182665357D01*
X205385714Y-182665357D02*
X205385714Y-183451071D01*
X205385714Y-182665357D02*
X205457142Y-182522500D01*
X205457142Y-182522500D02*
X205599999Y-182451071D01*
X205599999Y-182451071D02*
X205814285Y-182451071D01*
X205814285Y-182451071D02*
X205957142Y-182522500D01*
X205957142Y-182522500D02*
X206028571Y-182665357D01*
X206028571Y-182665357D02*
X206028571Y-183451071D01*
D10*
D11*
D10*
D11*
D10*
D11*
D10*
D11*
X179400000Y-197400000D02*
X179400000Y-200400000D01*
D10*
D11*
X243400000Y-197400000D02*
X243400000Y-203900000D01*
D14*
%TO.P,J4,1,Pin_1*%
%TO.N,GND*%
X34499999Y-134079999D03*
D15*
%TO.P,J4,2,Pin_2*%
%TO.N,+5V*%
X34499999Y-131539999D03*
%TO.P,J4,3,Pin_3*%
%TO.N,/DOPPLER_RADAR_IN*%
X34499999Y-128999999D03*
%TD*%
D16*
%TO.P,J6,1,Pin_1*%
%TO.N,GND*%
X32400000Y-133500000D03*
D17*
%TO.P,J6,2,Pin_2*%
%TO.N,+5V*%
X32399999Y-131499999D03*
%TO.P,J6,3,Pin_3*%
%TO.N,/DOPPLER_RADAR_IN*%
X32399999Y-129499999D03*
%TD*%
D18*
%TO.P,C5,2*%
%TO.N,Net-(U5-FB)*%
X70500000Y-68050000D03*
%TO.P,C5,1*%
%TO.N,+5V*%
X70500000Y-69950000D03*
%TD*%
D19*
%TO.P,J5,1,Pin_1*%
%TO.N,+5V*%
X93999999Y-78499999D03*
D20*
%TO.P,J5,2,Pin_2*%
X94000000Y-75960000D03*
%TO.P,J5,3,Pin_3*%
%TO.N,GND*%
X94000000Y-73420000D03*
%TO.P,J5,4,Pin_4*%
X94000000Y-70880000D03*
%TD*%
D21*
%TO.P,U3,16,VCC*%
%TO.N,+5V*%
X55410000Y-87555000D03*
%TO.P,U3,15,QA*%
%TO.N,/SEG_2A*%
X55410000Y-88825000D03*
%TO.P,U3,14,SER*%
%TO.N,Net-(U2-QH')*%
X55410000Y-90095000D03*
%TO.P,U3,13,~{OE}*%
%TO.N,/~{DIGITS_OE}*%
X55410000Y-91365000D03*
%TO.P,U3,12,RCLK*%
%TO.N,/DIGITS_RCLK*%
X55410000Y-92635000D03*
%TO.P,U3,11,SRCLK*%
%TO.N,/DIGITS_SPI_SCK*%
X55410000Y-93905000D03*
%TO.P,U3,10,~{SRCLR}*%
%TO.N,/DIGITS_SPI_CS*%
X55410000Y-95175000D03*
%TO.P,U3,9,QH'*%
%TO.N,unconnected-(U3-QH'-Pad9)*%
X55410000Y-96445000D03*
%TO.P,U3,8,GND*%
%TO.N,GND*%
X50460000Y-96445000D03*
%TO.P,U3,7,QH*%
%TO.N,/SEG_2H*%
X50460000Y-95175000D03*
%TO.P,U3,6,QG*%
%TO.N,/SEG_2G*%
X50460000Y-93905000D03*
%TO.P,U3,5,QF*%
%TO.N,/SEG_2F*%
X50460000Y-92635000D03*
%TO.P,U3,4,QE*%
%TO.N,/SEG_2E*%
X50460000Y-91365000D03*
%TO.P,U3,3,QD*%
%TO.N,/SEG_2D*%
X50460000Y-90095000D03*
%TO.P,U3,2,QC*%
%TO.N,/SEG_2C*%
X50460000Y-88825000D03*
%TO.P,U3,1,QB*%
%TO.N,/SEG_2B*%
X50460000Y-87555000D03*
%TD*%
%TO.P,U2,1,QB*%
%TO.N,/SEG_1B*%
X50525001Y-104055000D03*
%TO.P,U2,2,QC*%
%TO.N,/SEG_1C*%
X50525001Y-105325000D03*
%TO.P,U2,3,QD*%
%TO.N,/SEG_1D*%
X50525001Y-106595000D03*
%TO.P,U2,4,QE*%
%TO.N,/SEG_1E*%
X50525001Y-107865000D03*
%TO.P,U2,5,QF*%
%TO.N,/SEG_1F*%
X50525001Y-109135000D03*
%TO.P,U2,6,QG*%
%TO.N,/SEG_1G*%
X50525001Y-110405000D03*
%TO.P,U2,7,QH*%
%TO.N,/SEG_1H*%
X50525001Y-111675000D03*
%TO.P,U2,8,GND*%
%TO.N,GND*%
X50525001Y-112945000D03*
%TO.P,U2,9,QH'*%
%TO.N,Net-(U2-QH')*%
X55475001Y-112945000D03*
%TO.P,U2,10,~{SRCLR}*%
%TO.N,/DIGITS_SPI_CS*%
X55475001Y-111675000D03*
%TO.P,U2,11,SRCLK*%
%TO.N,/DIGITS_SPI_SCK*%
X55475001Y-110405000D03*
%TO.P,U2,12,RCLK*%
%TO.N,/DIGITS_RCLK*%
X55475001Y-109135000D03*
%TO.P,U2,13,~{OE}*%
%TO.N,/~{DIGITS_OE}*%
X55475001Y-107865000D03*
%TO.P,U2,14,SER*%
%TO.N,/DIGITS_SPI_MOSI*%
X55475001Y-106595000D03*
%TO.P,U2,15,QA*%
%TO.N,/SEG_1A*%
X55475001Y-105325000D03*
%TO.P,U2,16,VCC*%
%TO.N,+5V*%
X55475001Y-104055000D03*
%TD*%
D22*
%TO.P,R4,2*%
%TO.N,Net-(U5-FB)*%
X68500000Y-68087500D03*
%TO.P,R4,1*%
%TO.N,+5V*%
X68500000Y-69912500D03*
%TD*%
%TO.P,R5,2*%
%TO.N,GND*%
X69695000Y-64542500D03*
%TO.P,R5,1*%
%TO.N,Net-(U5-FB)*%
X69695000Y-66367500D03*
%TD*%
D23*
%TO.P,U5,1,VIN*%
%TO.N,Net-(D1-K)*%
X64470000Y-72855000D03*
%TO.P,U5,2,OUT*%
%TO.N,Net-(D2-K)*%
X64470000Y-71155000D03*
%TO.P,U5,3,GND*%
%TO.N,GND*%
X64470000Y-69455000D03*
%TO.P,U5,4,FB*%
%TO.N,Net-(U5-FB)*%
X64470000Y-67755000D03*
%TO.P,U5,5,~{ON}/OFF*%
%TO.N,GND*%
X64470000Y-66055000D03*
D24*
%TO.P,U5,3,GND*%
X55320000Y-69455000D03*
D25*
X52895000Y-66680000D03*
X57745000Y-72230000D03*
X52895000Y-72230000D03*
X57745000Y-66680000D03*
%TD*%
D15*
%TO.P,U1,1,GPIO0*%
%TO.N,unconnected-(U1-GPIO0-Pad1)*%
X85779999Y-136239999D03*
%TO.P,U1,2,GPIO1*%
%TO.N,unconnected-(U1-GPIO1-Pad2)*%
X85779999Y-133699999D03*
D14*
%TO.P,U1,3,GND*%
%TO.N,GND*%
X85779999Y-131159999D03*
D15*
%TO.P,U1,4,GPIO2*%
%TO.N,unconnected-(U1-GPIO2-Pad4)*%
X85779999Y-128619999D03*
%TO.P,U1,5,GPIO3*%
%TO.N,unconnected-(U1-GPIO3-Pad5)*%
X85779999Y-126079999D03*
%TO.P,U1,6,GPIO4*%
%TO.N,unconnected-(U1-GPIO4-Pad6)*%
X85779999Y-123539999D03*
%TO.P,U1,7,GPIO5*%
%TO.N,unconnected-(U1-GPIO5-Pad7)*%
X85779999Y-120999999D03*
D14*
%TO.P,U1,8,GND*%
%TO.N,GND*%
X85779999Y-118459999D03*
D15*
%TO.P,U1,9,GPIO6*%
%TO.N,unconnected-(U1-GPIO6-Pad9)*%
X85779999Y-115919999D03*
%TO.P,U1,10,GPIO7*%
%TO.N,unconnected-(U1-GPIO7-Pad10)*%
X85779999Y-113379999D03*
%TO.P,U1,11,GPIO8*%
%TO.N,unconnected-(U1-GPIO8-Pad11)*%
X85779999Y-110839999D03*
%TO.P,U1,12,GPIO9*%
%TO.N,unconnected-(U1-GPIO9-Pad12)*%
X85779999Y-108299999D03*
D14*
%TO.P,U1,13,GND*%
%TO.N,GND*%
X85779999Y-105759999D03*
D15*
%TO.P,U1,14,GPIO10*%
%TO.N,unconnected-(U1-GPIO10-Pad14)*%
X85779999Y-103219999D03*
%TO.P,U1,15,GPIO11*%
%TO.N,unconnected-(U1-GPIO11-Pad15)*%
X85779999Y-100679999D03*
%TO.P,U1,16,GPIO12*%
%TO.N,unconnected-(U1-GPIO12-Pad16)*%
X85779999Y-98139999D03*
%TO.P,U1,17,GPIO13*%
%TO.N,unconnected-(U1-GPIO13-Pad17)*%
X85779999Y-95599999D03*
D14*
%TO.P,U1,18,GND*%
%TO.N,GND*%
X85779999Y-93059999D03*
D15*
%TO.P,U1,19,GPIO14*%
%TO.N,unconnected-(U1-GPIO14-Pad19)*%
X85779999Y-90519999D03*
%TO.P,U1,20,GPIO15*%
%TO.N,unconnected-(U1-GPIO15-Pad20)*%
X85779999Y-87979999D03*
%TO.P,U1,21,GPIO16*%
%TO.N,/DIGITS_RCLK*%
X67999999Y-87979999D03*
%TO.P,U1,22,GPIO17*%
%TO.N,/DIGITS_SPI_CS*%
X67999999Y-90519999D03*
D14*
%TO.P,U1,23,GND*%
%TO.N,GND*%
X67999999Y-93059999D03*
D15*
%TO.P,U1,24,GPIO18*%
%TO.N,/DIGITS_SPI_SCK*%
X67999999Y-95599999D03*
%TO.P,U1,25,GPIO19*%
%TO.N,/DIGITS_SPI_MOSI*%
X67999999Y-98139999D03*
%TO.P,U1,26,GPIO20*%
%TO.N,unconnected-(U1-GPIO20-Pad26)*%
X67999999Y-100679999D03*
%TO.P,U1,27,GPIO21*%
%TO.N,/~{DIGITS_OE}*%
X67999999Y-103219999D03*
D14*
%TO.P,U1,28,GND*%
%TO.N,GND*%
X67999999Y-105759999D03*
D15*
%TO.P,U1,29,GPIO22*%
%TO.N,unconnected-(U1-GPIO22-Pad29)*%
X67999999Y-108299999D03*
%TO.P,U1,30,RUN*%
%TO.N,unconnected-(U1-RUN-Pad30)*%
X67999999Y-110839999D03*
%TO.P,U1,31,GPIO26_ADC0*%
%TO.N,unconnected-(U1-GPIO26_ADC0-Pad31)*%
X67999999Y-113379999D03*
%TO.P,U1,32,GPIO27_ADC1*%
%TO.N,unconnected-(U1-GPIO27_ADC1-Pad32)*%
X67999999Y-115919999D03*
D14*
%TO.P,U1,33,AGND*%
%TO.N,GND*%
X67999999Y-118459999D03*
D15*
%TO.P,U1,34,GPIO28_ADC2*%
%TO.N,/DOPPLER_RADAR_IN*%
X67999999Y-120999999D03*
%TO.P,U1,35,ADC_VREF*%
%TO.N,unconnected-(U1-ADC_VREF-Pad35)*%
X67999999Y-123539999D03*
%TO.P,U1,36,3V3*%
%TO.N,+3V3*%
X67999999Y-126079999D03*
%TO.P,U1,37,3V3_EN*%
%TO.N,unconnected-(U1-3V3_EN-Pad37)*%
X67999999Y-128619999D03*
D14*
%TO.P,U1,38,GND*%
%TO.N,GND*%
X67999999Y-131159999D03*
D15*
%TO.P,U1,39,VSYS*%
%TO.N,+5V*%
X67999999Y-133699999D03*
%TO.P,U1,40,VBUS*%
%TO.N,unconnected-(U1-VBUS-Pad40)*%
X67999999Y-136239999D03*
%TD*%
D26*
%TO.P,R3,2*%
%TO.N,/~{DIGITS_OE}*%
X58587500Y-107500000D03*
%TO.P,R3,1*%
%TO.N,+3V3*%
X60412500Y-107500000D03*
%TD*%
D27*
%TO.P,R2,2*%
%TO.N,GND*%
X60412500Y-109500000D03*
%TO.P,R2,1*%
%TO.N,/DIGITS_RCLK*%
X58587500Y-109500000D03*
%TD*%
%TO.P,R1,2*%
%TO.N,GND*%
X60325000Y-112500000D03*
%TO.P,R1,1*%
%TO.N,/DIGITS_SPI_CS*%
X58500000Y-112500000D03*
%TD*%
D28*
%TO.P,L1,1,1*%
%TO.N,Net-(D2-K)*%
X71944999Y-77454998D03*
%TO.P,L1,2,2*%
%TO.N,+5V*%
X81444999Y-77454998D03*
%TD*%
D29*
%TO.P,J3,1,Pin_1*%
%TO.N,+12V*%
X35999999Y-66919999D03*
D30*
%TO.P,J3,2,Pin_2*%
%TO.N,GND*%
X36000000Y-72000000D03*
%TD*%
D15*
%TO.P,J2,16,Pin_16*%
%TO.N,/SEG_2A*%
X34459999Y-79999999D03*
%TO.P,J2,15,Pin_15*%
%TO.N,GND*%
X36999999Y-79999999D03*
%TO.P,J2,14,Pin_14*%
%TO.N,/SEG_2B*%
X34459999Y-82539999D03*
%TO.P,J2,13,Pin_13*%
%TO.N,GND*%
X36999999Y-82539999D03*
%TO.P,J2,12,Pin_12*%
%TO.N,/SEG_2C*%
X34459999Y-85079999D03*
%TO.P,J2,11,Pin_11*%
%TO.N,GND*%
X36999999Y-85079999D03*
%TO.P,J2,10,Pin_10*%
%TO.N,/SEG_2D*%
X34459999Y-87619999D03*
%TO.P,J2,9,Pin_9*%
%TO.N,GND*%
X36999999Y-87619999D03*
%TO.P,J2,8,Pin_8*%
%TO.N,/SEG_2E*%
X34459999Y-90159999D03*
%TO.P,J2,7,Pin_7*%
%TO.N,GND*%
X36999999Y-90159999D03*
%TO.P,J2,6,Pin_6*%
%TO.N,/SEG_2F*%
X34459999Y-92699999D03*
%TO.P,J2,5,Pin_5*%
%TO.N,GND*%
X36999999Y-92699999D03*
%TO.P,J2,4,Pin_4*%
%TO.N,/SEG_2G*%
X34459999Y-95239999D03*
%TO.P,J2,3,Pin_3*%
%TO.N,GND*%
X36999999Y-95239999D03*
%TO.P,J2,2,Pin_2*%
%TO.N,/SEG_2H*%
X34459999Y-97779999D03*
D14*
%TO.P,J2,1,Pin_1*%
%TO.N,GND*%
X36999999Y-97779999D03*
%TD*%
%TO.P,J1,1,Pin_1*%
%TO.N,GND*%
X36999999Y-121999999D03*
D15*
%TO.P,J1,2,Pin_2*%
%TO.N,/SEG_1H*%
X34459999Y-121999999D03*
%TO.P,J1,3,Pin_3*%
%TO.N,GND*%
X36999999Y-119459999D03*
%TO.P,J1,4,Pin_4*%
%TO.N,/SEG_1G*%
X34459999Y-119459999D03*
%TO.P,J1,5,Pin_5*%
%TO.N,GND*%
X36999999Y-116919999D03*
%TO.P,J1,6,Pin_6*%
%TO.N,/SEG_1F*%
X34459999Y-116919999D03*
%TO.P,J1,7,Pin_7*%
%TO.N,GND*%
X36999999Y-114379999D03*
%TO.P,J1,8,Pin_8*%
%TO.N,/SEG_1E*%
X34459999Y-114379999D03*
%TO.P,J1,9,Pin_9*%
%TO.N,GND*%
X36999999Y-111839999D03*
%TO.P,J1,10,Pin_10*%
%TO.N,/SEG_1D*%
X34459999Y-111839999D03*
%TO.P,J1,11,Pin_11*%
%TO.N,GND*%
X36999999Y-109299999D03*
%TO.P,J1,12,Pin_12*%
%TO.N,/SEG_1C*%
X34459999Y-109299999D03*
%TO.P,J1,13,Pin_13*%
%TO.N,GND*%
X36999999Y-106759999D03*
%TO.P,J1,14,Pin_14*%
%TO.N,/SEG_1B*%
X34459999Y-106759999D03*
%TO.P,J1,15,Pin_15*%
%TO.N,GND*%
X36999999Y-104219999D03*
%TO.P,J1,16,Pin_16*%
%TO.N,/SEG_1A*%
X34459999Y-104219999D03*
%TD*%
D31*
%TO.P,D2,1,K*%
%TO.N,Net-(D2-K)*%
X73695001Y-69454998D03*
%TO.P,D2,2,A*%
%TO.N,GND*%
X73695001Y-65454998D03*
%TD*%
D32*
%TO.P,D1,1,K*%
%TO.N,Net-(D1-K)*%
X55000000Y-78000000D03*
%TO.P,D1,2,A*%
%TO.N,+12V*%
X51000000Y-78000000D03*
%TD*%
D33*
%TO.P,C4,1*%
%TO.N,+5V*%
X80694999Y-69454998D03*
D34*
%TO.P,C4,2*%
%TO.N,GND*%
X80695000Y-66954999D03*
%TD*%
D35*
%TO.P,C3,1*%
%TO.N,Net-(D1-K)*%
X62694999Y-78842443D03*
D36*
%TO.P,C3,2*%
%TO.N,GND*%
X62695000Y-83842444D03*
%TD*%
D37*
%TO.P,C2,2*%
%TO.N,GND*%
X53550000Y-101500000D03*
%TO.P,C2,1*%
%TO.N,+5V*%
X55450000Y-101500000D03*
%TD*%
%TO.P,C1,2*%
%TO.N,GND*%
X53509999Y-85000000D03*
%TO.P,C1,1*%
%TO.N,+5V*%
X55409999Y-85000000D03*
%TD*%
D38*
%TO.N,GND*%
X61000000Y-69500000D03*
X67800000Y-66000000D03*
X61000000Y-66000000D03*
X60400000Y-111000000D03*
%TO.N,/DIGITS_RCLK*%
X53700000Y-92500000D03*
X57200000Y-109200000D03*
%TO.N,/~{DIGITS_OE}*%
X60400000Y-103200000D03*
%TO.N,+3V3*%
X63500000Y-107500000D03*
X63500000Y-126000000D03*
%TO.N,/DIGITS_SPI_MOSI*%
X56800500Y-98140000D03*
X57400000Y-105900000D03*
%TO.N,/DIGITS_SPI_CS*%
X52500000Y-111600000D03*
X52500000Y-95200000D03*
%TO.N,/DIGITS_SPI_SCK*%
X53900000Y-110500000D03*
X53600000Y-93900000D03*
%TO.N,GND*%
X50600000Y-114400000D03*
X50500000Y-97700000D03*
%TO.N,Net-(U2-QH')*%
X59200000Y-90100000D03*
X58800000Y-114100000D03*
%TO.N,/~{DIGITS_OE}*%
X60400000Y-91300000D03*
%TO.N,GND*%
X51500000Y-101500000D03*
X53500000Y-83400000D03*
%TO.N,+5V*%
X57900000Y-101500000D03*
X57900000Y-85442444D03*
%TO.N,GND*%
X49000000Y-74000000D03*
X49000000Y-72000000D03*
X49000000Y-70000000D03*
X49000000Y-68000000D03*
X60000000Y-63000000D03*
X58000000Y-63000000D03*
X56000000Y-63000000D03*
X54000000Y-63000000D03*
X52000000Y-63000000D03*
%TD*%
D39*
%TO.N,+5V*%
X34460000Y-131500000D02*
X34500000Y-131540000D01*
X32400000Y-131500000D02*
X34460000Y-131500000D01*
D40*
%TO.N,/DOPPLER_RADAR_IN*%
X34000000Y-129500000D02*
X34500000Y-129000000D01*
X32400000Y-129500000D02*
X34000000Y-129500000D01*
X66500000Y-122500000D02*
X68000000Y-121000000D01*
X41800000Y-129000000D02*
X48300000Y-122500000D01*
X48300000Y-122500000D02*
X66500000Y-122500000D01*
X34500000Y-129000000D02*
X41800000Y-129000000D01*
D39*
%TO.N,+5V*%
X64200000Y-133700000D02*
X68000000Y-133700000D01*
X60225000Y-129725000D02*
X64200000Y-133700000D01*
X43275000Y-129725000D02*
X60225000Y-129725000D01*
X41460000Y-131540000D02*
X43275000Y-129725000D01*
X34500000Y-131540000D02*
X41460000Y-131540000D01*
D41*
X71175000Y-69950000D02*
X71625000Y-69500000D01*
X70500000Y-69950000D02*
X71175000Y-69950000D01*
X71625000Y-69500000D02*
X71625000Y-67775000D01*
X70462500Y-69912500D02*
X70500000Y-69950000D01*
X68500000Y-69912500D02*
X70462500Y-69912500D01*
X71625000Y-67775000D02*
X72000000Y-67400000D01*
X78254999Y-69454999D02*
X80695000Y-69454999D01*
X72000000Y-67400000D02*
X76200000Y-67400000D01*
X76200000Y-67400000D02*
X78254999Y-69454999D01*
D40*
%TO.N,Net-(U5-FB)*%
X67962500Y-68050000D02*
X67667500Y-67755000D01*
X70500000Y-68050000D02*
X67962500Y-68050000D01*
X70500000Y-67172500D02*
X70500000Y-68050000D01*
X67667500Y-67755000D02*
X64470000Y-67755000D01*
X69695000Y-66367500D02*
X70500000Y-67172500D01*
%TO.N,/DIGITS_SPI_CS*%
X70600000Y-91500000D02*
X69620000Y-90520000D01*
X69225000Y-96775000D02*
X70600000Y-95400000D01*
X61375000Y-96775000D02*
X69225000Y-96775000D01*
X70600000Y-95400000D02*
X70600000Y-91500000D01*
X69620000Y-90520000D02*
X68000000Y-90520000D01*
X59775000Y-95175000D02*
X61375000Y-96775000D01*
X55410000Y-95175000D02*
X59775000Y-95175000D01*
D41*
%TO.N,+3V3*%
X60412500Y-107500000D02*
X63500000Y-107500000D01*
D40*
%TO.N,GND*%
X60325000Y-111075000D02*
X60400000Y-111000000D01*
X60325000Y-112500000D02*
X60325000Y-111075000D01*
X60412500Y-110987500D02*
X60400000Y-111000000D01*
X60412500Y-109500000D02*
X60412500Y-110987500D01*
%TO.N,/DIGITS_RCLK*%
X53835000Y-92635000D02*
X53700000Y-92500000D01*
X55410000Y-92635000D02*
X53835000Y-92635000D01*
X57135000Y-109135000D02*
X57200000Y-109200000D01*
X55475001Y-109135000D02*
X57135000Y-109135000D01*
X57500000Y-109500000D02*
X57200000Y-109200000D01*
X58587500Y-109500000D02*
X57500000Y-109500000D01*
%TO.N,/~{DIGITS_OE}*%
X60400000Y-104600000D02*
X58587500Y-106412500D01*
X58587500Y-106412500D02*
X58587500Y-107500000D01*
X60400000Y-103200000D02*
X60400000Y-104600000D01*
X58222500Y-107865000D02*
X58587500Y-107500000D01*
X55475001Y-107865000D02*
X58222500Y-107865000D01*
%TO.N,/DIGITS_SPI_CS*%
X57262501Y-111675000D02*
X55475001Y-111675000D01*
X58087501Y-112500000D02*
X57262501Y-111675000D01*
%TO.N,/DIGITS_SPI_MOSI*%
X56800500Y-98140000D02*
X68000000Y-98140000D01*
%TO.N,/~{DIGITS_OE}*%
X60420000Y-103220000D02*
X60400000Y-103200000D01*
X68000000Y-103220000D02*
X60420000Y-103220000D01*
D41*
%TO.N,+3V3*%
X63500000Y-126000000D02*
X63580000Y-126080000D01*
X63580000Y-126080000D02*
X68000000Y-126080000D01*
D40*
%TO.N,/DIGITS_SPI_MOSI*%
X56705000Y-106595000D02*
X57400000Y-105900000D01*
X55475001Y-106595000D02*
X56705000Y-106595000D01*
%TO.N,/DIGITS_SPI_SCK*%
X53900000Y-110500000D02*
X53995000Y-110405000D01*
X53995000Y-110405000D02*
X55475001Y-110405000D01*
%TO.N,/~{DIGITS_OE}*%
X60335000Y-91365000D02*
X55410000Y-91365000D01*
X60400000Y-91300000D02*
X60335000Y-91365000D01*
%TO.N,/DIGITS_RCLK*%
X61665000Y-92635000D02*
X66320000Y-87980000D01*
X55410000Y-92635000D02*
X61665000Y-92635000D01*
X66320000Y-87980000D02*
X68000000Y-87980000D01*
D41*
%TO.N,GND*%
X51500000Y-101500000D02*
X53550000Y-101500000D01*
D40*
%TO.N,/DIGITS_SPI_CS*%
X55400001Y-111600000D02*
X55475001Y-111675000D01*
X52500000Y-111600000D02*
X55400001Y-111600000D01*
X55385000Y-95200000D02*
X52500000Y-95200000D01*
X55410000Y-95175000D02*
X55385000Y-95200000D01*
%TO.N,/DIGITS_SPI_SCK*%
X53605000Y-93905000D02*
X53600000Y-93900000D01*
X55410000Y-93905000D02*
X53605000Y-93905000D01*
%TO.N,/SEG_1F*%
X49300000Y-109200000D02*
X50460001Y-109200000D01*
X44000000Y-114500000D02*
X49300000Y-109200000D01*
X44000000Y-117100000D02*
X44000000Y-114500000D01*
X35635000Y-118095000D02*
X43005000Y-118095000D01*
X50460001Y-109200000D02*
X50525001Y-109135000D01*
X34460000Y-116920000D02*
X35635000Y-118095000D01*
X43005000Y-118095000D02*
X44000000Y-117100000D01*
%TO.N,/SEG_1G*%
X50520001Y-110400000D02*
X50525001Y-110405000D01*
X49300000Y-110400000D02*
X50520001Y-110400000D01*
X45400000Y-114300000D02*
X49300000Y-110400000D01*
X45400000Y-119300000D02*
X45400000Y-114300000D01*
X35635000Y-120635000D02*
X44065000Y-120635000D01*
X34460000Y-119460000D02*
X35635000Y-120635000D01*
X44065000Y-120635000D02*
X45400000Y-119300000D01*
%TO.N,/SEG_1H*%
X35635000Y-123175000D02*
X34460000Y-122000000D01*
X44925000Y-123175000D02*
X35635000Y-123175000D01*
X46500000Y-114800000D02*
X46500000Y-121600000D01*
X46500000Y-121600000D02*
X44925000Y-123175000D01*
X49625000Y-111675000D02*
X46500000Y-114800000D01*
X50525001Y-111675000D02*
X49625000Y-111675000D01*
%TO.N,/SEG_1A*%
X48500000Y-102600000D02*
X51900000Y-102600000D01*
X45705000Y-105395000D02*
X48500000Y-102600000D01*
X35635000Y-105395000D02*
X45705000Y-105395000D01*
X54625000Y-105325000D02*
X55475001Y-105325000D01*
X34460000Y-104220000D02*
X35635000Y-105395000D01*
X51900000Y-102600000D02*
X54625000Y-105325000D01*
%TO.N,/SEG_1B*%
X44665000Y-107935000D02*
X35635000Y-107935000D01*
X48545000Y-104055000D02*
X44665000Y-107935000D01*
X50525001Y-104055000D02*
X48545000Y-104055000D01*
X35635000Y-107935000D02*
X34460000Y-106760000D01*
%TO.N,/SEG_1D*%
X42735000Y-113015000D02*
X35635000Y-113015000D01*
X49155000Y-106595000D02*
X42735000Y-113015000D01*
X50525001Y-106595000D02*
X49155000Y-106595000D01*
X35635000Y-113015000D02*
X34460000Y-111840000D01*
%TO.N,/SEG_1E*%
X41355000Y-115745000D02*
X49235000Y-107865000D01*
X49235000Y-107865000D02*
X50525001Y-107865000D01*
X35825000Y-115745000D02*
X41355000Y-115745000D01*
X34460000Y-114380000D02*
X35825000Y-115745000D01*
%TO.N,/SEG_1C*%
X43825000Y-110475000D02*
X35635000Y-110475000D01*
X48975000Y-105325000D02*
X43825000Y-110475000D01*
X50525001Y-105325000D02*
X48975000Y-105325000D01*
X35635000Y-110475000D02*
X34460000Y-109300000D01*
D41*
%TO.N,GND*%
X50525001Y-114325001D02*
X50600000Y-114400000D01*
X50525001Y-112945000D02*
X50525001Y-114325001D01*
X50460000Y-97660000D02*
X50500000Y-97700000D01*
X50460000Y-96445000D02*
X50460000Y-97660000D01*
D40*
%TO.N,Net-(U2-QH')*%
X55500000Y-112969999D02*
X55475001Y-112945000D01*
X55500000Y-113600000D02*
X55500000Y-112969999D01*
X58800000Y-114100000D02*
X56000000Y-114100000D01*
X59195000Y-90095000D02*
X59200000Y-90100000D01*
X55410000Y-90095000D02*
X59195000Y-90095000D01*
X56000000Y-114100000D02*
X55500000Y-113600000D01*
D39*
%TO.N,+5V*%
X57457556Y-85000000D02*
X57900000Y-85442444D01*
X81402556Y-85442444D02*
X81445000Y-85400000D01*
X57900000Y-85442444D02*
X81402556Y-85442444D01*
X55409999Y-85000000D02*
X57457556Y-85000000D01*
X55450000Y-101500000D02*
X57900000Y-101500000D01*
D40*
%TO.N,/SEG_2B*%
X48655000Y-87555000D02*
X50460000Y-87555000D01*
X47100000Y-86000000D02*
X48655000Y-87555000D01*
X46205000Y-83905000D02*
X47100000Y-84800000D01*
X35825000Y-83905000D02*
X46205000Y-83905000D01*
X47100000Y-84800000D02*
X47100000Y-86000000D01*
X34460000Y-82540000D02*
X35825000Y-83905000D01*
%TO.N,/SEG_2D*%
X47500000Y-90100000D02*
X50455000Y-90100000D01*
X46195000Y-88795000D02*
X47500000Y-90100000D01*
X35635000Y-88795000D02*
X46195000Y-88795000D01*
X50455000Y-90100000D02*
X50460000Y-90095000D01*
X34460000Y-87620000D02*
X35635000Y-88795000D01*
%TO.N,/SEG_2H*%
X49275000Y-95175000D02*
X48650000Y-95800000D01*
X50460000Y-95175000D02*
X49275000Y-95175000D01*
X48650000Y-96900000D02*
X48650000Y-95800000D01*
X35635000Y-98955000D02*
X46595000Y-98955000D01*
X34460000Y-97780000D02*
X35635000Y-98955000D01*
X46595000Y-98955000D02*
X48650000Y-96900000D01*
%TO.N,/SEG_2G*%
X48810000Y-93905000D02*
X50460000Y-93905000D01*
X35635000Y-96415000D02*
X46300000Y-96415000D01*
X46300000Y-96415000D02*
X48810000Y-93905000D01*
%TO.N,/SEG_2F*%
X47540000Y-92635000D02*
X50460000Y-92635000D01*
X46300000Y-93875000D02*
X47540000Y-92635000D01*
X35635000Y-93875000D02*
X46300000Y-93875000D01*
%TO.N,/SEG_2G*%
X34460000Y-95240000D02*
X35635000Y-96415000D01*
%TO.N,/SEG_2E*%
X35665000Y-91365000D02*
X34460000Y-90160000D01*
X50460000Y-91365000D02*
X35665000Y-91365000D01*
%TO.N,/SEG_2F*%
X34460000Y-92700000D02*
X35635000Y-93875000D01*
%TO.N,/SEG_2C*%
X48700000Y-88800000D02*
X50435000Y-88800000D01*
X46155000Y-86255000D02*
X48700000Y-88800000D01*
X35635000Y-86255000D02*
X46155000Y-86255000D01*
X34460000Y-85080000D02*
X35635000Y-86255000D01*
X50435000Y-88800000D02*
X50460000Y-88825000D01*
D41*
%TO.N,GND*%
X53509999Y-83409999D02*
X53500000Y-83400000D01*
X53509999Y-85000000D02*
X53509999Y-83409999D01*
D40*
%TO.N,/SEG_2A*%
X52000000Y-82400000D02*
X50965000Y-81365000D01*
X52000000Y-88100000D02*
X52000000Y-82400000D01*
X50965000Y-81365000D02*
X35825000Y-81365000D01*
X52725000Y-88825000D02*
X52000000Y-88100000D01*
X35825000Y-81365000D02*
X34460000Y-80000000D01*
X55410000Y-88825000D02*
X52725000Y-88825000D01*
D41*
%TO.N,+5V*%
X55475001Y-101525001D02*
X55450000Y-101500000D01*
X55475001Y-104055000D02*
X55475001Y-101525001D01*
X55410000Y-85000001D02*
X55409999Y-85000000D01*
X55410000Y-87555000D02*
X55410000Y-85000001D01*
D39*
X81445000Y-85400000D02*
X81445000Y-131500000D01*
X81445000Y-77454999D02*
X81445000Y-85400000D01*
D40*
%TO.N,/DIGITS_SPI_SCK*%
X61700000Y-95600000D02*
X68000000Y-95600000D01*
X60005000Y-93905000D02*
X61700000Y-95600000D01*
X55410000Y-93905000D02*
X60005000Y-93905000D01*
D39*
%TO.N,+5V*%
X68000000Y-133700000D02*
X79245000Y-133700000D01*
X79245000Y-133700000D02*
X81445000Y-131500000D01*
%TD*%
%TA.AperFunction,Conductor*%
%TO.N,+12V*%
G36*
X41938000Y-65016613D02*
G01*
X41983387Y-65062000D01*
X42000000Y-65124000D01*
X42000000Y-76000000D01*
X52670500Y-76000000D01*
X52732500Y-76016613D01*
X52777887Y-76062000D01*
X52794500Y-76124000D01*
X52794500Y-79876000D01*
X52777887Y-79938000D01*
X52732500Y-79983387D01*
X52670500Y-80000000D01*
X38624000Y-80000000D01*
X38562000Y-79983387D01*
X38516613Y-79938000D01*
X38500000Y-79876000D01*
X38500000Y-78701300D01*
X49550001Y-78701300D01*
X49550271Y-78707088D01*
X49552147Y-78727095D01*
X49555342Y-78741724D01*
X49594585Y-78853875D01*
X49603171Y-78870122D01*
X49672691Y-78964317D01*
X49685682Y-78977308D01*
X49779877Y-79046828D01*
X49796124Y-79055414D01*
X49908276Y-79094658D01*
X49922906Y-79097853D01*
X49942913Y-79099729D01*
X49948690Y-79100000D01*
X50783674Y-79100000D01*
X50796549Y-79096549D01*
X50800000Y-79083674D01*
X50800000Y-79083673D01*
X51200000Y-79083673D01*
X51203450Y-79096548D01*
X51216326Y-79099999D01*
X52051300Y-79099999D01*
X52057088Y-79099728D01*
X52077095Y-79097852D01*
X52091724Y-79094657D01*
X52203875Y-79055414D01*
X52220122Y-79046828D01*
X52314317Y-78977308D01*
X52327308Y-78964317D01*
X52396828Y-78870122D01*
X52405414Y-78853875D01*
X52444658Y-78741723D01*
X52447853Y-78727093D01*
X52449729Y-78707086D01*
X52450000Y-78701310D01*
X52450000Y-78216326D01*
X52446549Y-78203450D01*
X52433674Y-78200000D01*
X51216326Y-78200000D01*
X51203450Y-78203450D01*
X51200000Y-78216326D01*
X51200000Y-79083673D01*
X50800000Y-79083673D01*
X50800000Y-78216326D01*
X50796549Y-78203450D01*
X50783674Y-78200000D01*
X49566327Y-78200000D01*
X49553451Y-78203450D01*
X49550001Y-78216326D01*
X49550001Y-78701300D01*
X38500000Y-78701300D01*
X38500000Y-77783674D01*
X49550000Y-77783674D01*
X49553450Y-77796549D01*
X49566326Y-77800000D01*
X50783674Y-77800000D01*
X50796549Y-77796549D01*
X50800000Y-77783674D01*
X51200000Y-77783674D01*
X51203450Y-77796549D01*
X51216326Y-77800000D01*
X52433673Y-77800000D01*
X52446548Y-77796549D01*
X52449999Y-77783674D01*
X52449999Y-77298700D01*
X52449728Y-77292911D01*
X52447852Y-77272904D01*
X52444657Y-77258275D01*
X52405414Y-77146124D01*
X52396828Y-77129877D01*
X52327308Y-77035682D01*
X52314317Y-77022691D01*
X52220122Y-76953171D01*
X52203875Y-76944585D01*
X52091723Y-76905341D01*
X52077093Y-76902146D01*
X52057086Y-76900270D01*
X52051310Y-76900000D01*
X51216326Y-76900000D01*
X51203450Y-76903450D01*
X51200000Y-76916326D01*
X51200000Y-77783674D01*
X50800000Y-77783674D01*
X50800000Y-76916327D01*
X50796549Y-76903451D01*
X50783674Y-76900001D01*
X49948700Y-76900001D01*
X49942911Y-76900271D01*
X49922904Y-76902147D01*
X49908275Y-76905342D01*
X49796124Y-76944585D01*
X49779877Y-76953171D01*
X49685682Y-77022691D01*
X49672691Y-77035682D01*
X49603171Y-77129877D01*
X49594585Y-77146124D01*
X49555341Y-77258276D01*
X49552146Y-77272906D01*
X49550270Y-77292913D01*
X49550000Y-77298690D01*
X49550000Y-77783674D01*
X38500000Y-77783674D01*
X38500000Y-69016326D01*
X38500000Y-69000000D01*
X38483674Y-69000000D01*
X33624000Y-69000000D01*
X33562000Y-68983387D01*
X33516613Y-68938000D01*
X33500000Y-68876000D01*
X33500000Y-68233602D01*
X34500000Y-68233602D01*
X34501189Y-68245678D01*
X34509221Y-68286057D01*
X34518388Y-68308190D01*
X34549023Y-68354038D01*
X34565961Y-68370976D01*
X34611809Y-68401611D01*
X34633942Y-68410778D01*
X34674321Y-68418810D01*
X34686398Y-68420000D01*
X35783674Y-68420000D01*
X35796549Y-68416549D01*
X35800000Y-68403674D01*
X36200000Y-68403674D01*
X36203450Y-68416549D01*
X36216326Y-68420000D01*
X37313602Y-68420000D01*
X37325678Y-68418810D01*
X37366057Y-68410778D01*
X37388190Y-68401611D01*
X37434038Y-68370976D01*
X37450976Y-68354038D01*
X37481611Y-68308190D01*
X37490778Y-68286057D01*
X37498810Y-68245678D01*
X37500000Y-68233602D01*
X37500000Y-67136326D01*
X37496549Y-67123450D01*
X37483674Y-67120000D01*
X36216326Y-67120000D01*
X36203450Y-67123450D01*
X36200000Y-67136326D01*
X36200000Y-68403674D01*
X35800000Y-68403674D01*
X35800000Y-67136326D01*
X35796549Y-67123450D01*
X35783674Y-67120000D01*
X34516326Y-67120000D01*
X34503450Y-67123450D01*
X34500000Y-67136326D01*
X34500000Y-68233602D01*
X33500000Y-68233602D01*
X33500000Y-66703674D01*
X34500000Y-66703674D01*
X34503450Y-66716549D01*
X34516326Y-66720000D01*
X35783674Y-66720000D01*
X35796549Y-66716549D01*
X35800000Y-66703674D01*
X36200000Y-66703674D01*
X36203450Y-66716549D01*
X36216326Y-66720000D01*
X37483674Y-66720000D01*
X37496549Y-66716549D01*
X37500000Y-66703674D01*
X37500000Y-65606398D01*
X37498810Y-65594321D01*
X37490778Y-65553942D01*
X37481611Y-65531809D01*
X37450976Y-65485961D01*
X37434038Y-65469023D01*
X37388190Y-65438388D01*
X37366057Y-65429221D01*
X37325678Y-65421189D01*
X37313602Y-65420000D01*
X36216326Y-65420000D01*
X36203450Y-65423450D01*
X36200000Y-65436326D01*
X36200000Y-66703674D01*
X35800000Y-66703674D01*
X35800000Y-65436326D01*
X35796549Y-65423450D01*
X35783674Y-65420000D01*
X34686398Y-65420000D01*
X34674321Y-65421189D01*
X34633942Y-65429221D01*
X34611809Y-65438388D01*
X34565961Y-65469023D01*
X34549023Y-65485961D01*
X34518388Y-65531809D01*
X34509221Y-65553942D01*
X34501189Y-65594321D01*
X34500000Y-65606398D01*
X34500000Y-66703674D01*
X33500000Y-66703674D01*
X33500000Y-65124000D01*
X33516613Y-65062000D01*
X33562000Y-65016613D01*
X33624000Y-65000000D01*
X41876000Y-65000000D01*
X41938000Y-65016613D01*
G37*
%TD.AperFunction*%
%TD*%
%TA.AperFunction,Conductor*%
%TO.N,Net-(D1-K)*%
G36*
X61908000Y-72516613D02*
G01*
X61953387Y-72562000D01*
X61970000Y-72624000D01*
X61970000Y-72638674D01*
X61973450Y-72651549D01*
X61986326Y-72655000D01*
X66953673Y-72655000D01*
X66966548Y-72651549D01*
X66969999Y-72638674D01*
X66969999Y-72624000D01*
X66986612Y-72562000D01*
X67031999Y-72516613D01*
X67093999Y-72500000D01*
X67876000Y-72500000D01*
X67938000Y-72516613D01*
X67983387Y-72562000D01*
X68000000Y-72624000D01*
X68000000Y-80876000D01*
X67983387Y-80938000D01*
X67938000Y-80983387D01*
X67876000Y-81000000D01*
X53124000Y-81000000D01*
X53062000Y-80983387D01*
X53016613Y-80938000D01*
X53000000Y-80876000D01*
X53000000Y-79856046D01*
X61495000Y-79856046D01*
X61496189Y-79868122D01*
X61504221Y-79908501D01*
X61513388Y-79930634D01*
X61544023Y-79976482D01*
X61560961Y-79993420D01*
X61606809Y-80024055D01*
X61628942Y-80033222D01*
X61669321Y-80041254D01*
X61681398Y-80042444D01*
X62478674Y-80042444D01*
X62491549Y-80038993D01*
X62495000Y-80026118D01*
X62895000Y-80026118D01*
X62898450Y-80038993D01*
X62911326Y-80042444D01*
X63708602Y-80042444D01*
X63720678Y-80041254D01*
X63761057Y-80033222D01*
X63783190Y-80024055D01*
X63829038Y-79993420D01*
X63845976Y-79976482D01*
X63876611Y-79930634D01*
X63885778Y-79908501D01*
X63893810Y-79868122D01*
X63895000Y-79856046D01*
X63895000Y-79058770D01*
X63891549Y-79045894D01*
X63878674Y-79042444D01*
X62911326Y-79042444D01*
X62898450Y-79045894D01*
X62895000Y-79058770D01*
X62895000Y-80026118D01*
X62495000Y-80026118D01*
X62495000Y-79058770D01*
X62491549Y-79045894D01*
X62478674Y-79042444D01*
X61511326Y-79042444D01*
X61498450Y-79045894D01*
X61495000Y-79058770D01*
X61495000Y-79856046D01*
X53000000Y-79856046D01*
X53000000Y-78701300D01*
X53550001Y-78701300D01*
X53550271Y-78707088D01*
X53552147Y-78727095D01*
X53555342Y-78741724D01*
X53594585Y-78853875D01*
X53603171Y-78870122D01*
X53672691Y-78964317D01*
X53685682Y-78977308D01*
X53779877Y-79046828D01*
X53796124Y-79055414D01*
X53908276Y-79094658D01*
X53922906Y-79097853D01*
X53942913Y-79099729D01*
X53948690Y-79100000D01*
X54783674Y-79100000D01*
X54796549Y-79096549D01*
X54800000Y-79083674D01*
X54800000Y-79083673D01*
X55200000Y-79083673D01*
X55203450Y-79096548D01*
X55216326Y-79099999D01*
X56051300Y-79099999D01*
X56057088Y-79099728D01*
X56077095Y-79097852D01*
X56091724Y-79094657D01*
X56203875Y-79055414D01*
X56220122Y-79046828D01*
X56314317Y-78977308D01*
X56327308Y-78964317D01*
X56396828Y-78870122D01*
X56405414Y-78853875D01*
X56444658Y-78741723D01*
X56447853Y-78727093D01*
X56449729Y-78707086D01*
X56450000Y-78701310D01*
X56450000Y-78626118D01*
X61495000Y-78626118D01*
X61498450Y-78638993D01*
X61511326Y-78642444D01*
X62478674Y-78642444D01*
X62491549Y-78638993D01*
X62495000Y-78626118D01*
X62895000Y-78626118D01*
X62898450Y-78638993D01*
X62911326Y-78642444D01*
X63878674Y-78642444D01*
X63891549Y-78638993D01*
X63895000Y-78626118D01*
X63895000Y-77828842D01*
X63893810Y-77816765D01*
X63885778Y-77776386D01*
X63876611Y-77754253D01*
X63845976Y-77708405D01*
X63829038Y-77691467D01*
X63783190Y-77660832D01*
X63761057Y-77651665D01*
X63720678Y-77643633D01*
X63708602Y-77642444D01*
X62911326Y-77642444D01*
X62898450Y-77645894D01*
X62895000Y-77658770D01*
X62895000Y-78626118D01*
X62495000Y-78626118D01*
X62495000Y-77658770D01*
X62491549Y-77645894D01*
X62478674Y-77642444D01*
X61681398Y-77642444D01*
X61669321Y-77643633D01*
X61628942Y-77651665D01*
X61606809Y-77660832D01*
X61560961Y-77691467D01*
X61544023Y-77708405D01*
X61513388Y-77754253D01*
X61504221Y-77776386D01*
X61496189Y-77816765D01*
X61495000Y-77828842D01*
X61495000Y-78626118D01*
X56450000Y-78626118D01*
X56450000Y-78216326D01*
X56446549Y-78203450D01*
X56433674Y-78200000D01*
X55216326Y-78200000D01*
X55203450Y-78203450D01*
X55200000Y-78216326D01*
X55200000Y-79083673D01*
X54800000Y-79083673D01*
X54800000Y-78216326D01*
X54796549Y-78203450D01*
X54783674Y-78200000D01*
X53566327Y-78200000D01*
X53553451Y-78203450D01*
X53550001Y-78216326D01*
X53550001Y-78701300D01*
X53000000Y-78701300D01*
X53000000Y-77783674D01*
X53550000Y-77783674D01*
X53553450Y-77796549D01*
X53566326Y-77800000D01*
X54783674Y-77800000D01*
X54796549Y-77796549D01*
X54800000Y-77783674D01*
X55200000Y-77783674D01*
X55203450Y-77796549D01*
X55216326Y-77800000D01*
X56433673Y-77800000D01*
X56446548Y-77796549D01*
X56449999Y-77783674D01*
X56449999Y-77298700D01*
X56449728Y-77292911D01*
X56447852Y-77272904D01*
X56444657Y-77258275D01*
X56405414Y-77146124D01*
X56396828Y-77129877D01*
X56327308Y-77035682D01*
X56314317Y-77022691D01*
X56220122Y-76953171D01*
X56203875Y-76944585D01*
X56091723Y-76905341D01*
X56077093Y-76902146D01*
X56057086Y-76900270D01*
X56051310Y-76900000D01*
X55216326Y-76900000D01*
X55203450Y-76903450D01*
X55200000Y-76916326D01*
X55200000Y-77783674D01*
X54800000Y-77783674D01*
X54800000Y-76916327D01*
X54796549Y-76903451D01*
X54783674Y-76900001D01*
X53948700Y-76900001D01*
X53942911Y-76900271D01*
X53922904Y-76902147D01*
X53908275Y-76905342D01*
X53796124Y-76944585D01*
X53779877Y-76953171D01*
X53685682Y-77022691D01*
X53672691Y-77035682D01*
X53603171Y-77129877D01*
X53594585Y-77146124D01*
X53555341Y-77258276D01*
X53552146Y-77272906D01*
X53550270Y-77292913D01*
X53550000Y-77298690D01*
X53550000Y-77783674D01*
X53000000Y-77783674D01*
X53000000Y-76124000D01*
X53016613Y-76062000D01*
X53062000Y-76016613D01*
X53124000Y-76000000D01*
X60983674Y-76000000D01*
X61000000Y-76000000D01*
X61000000Y-73206300D01*
X61970001Y-73206300D01*
X61970271Y-73212088D01*
X61972147Y-73232095D01*
X61975342Y-73246724D01*
X62014585Y-73358875D01*
X62023171Y-73375122D01*
X62092691Y-73469317D01*
X62105682Y-73482308D01*
X62199877Y-73551828D01*
X62216124Y-73560414D01*
X62328276Y-73599658D01*
X62342906Y-73602853D01*
X62362913Y-73604729D01*
X62368690Y-73605000D01*
X64253674Y-73605000D01*
X64266549Y-73601549D01*
X64270000Y-73588674D01*
X64270000Y-73588673D01*
X64670000Y-73588673D01*
X64673450Y-73601548D01*
X64686326Y-73604999D01*
X66571300Y-73604999D01*
X66577088Y-73604728D01*
X66597095Y-73602852D01*
X66611724Y-73599657D01*
X66723875Y-73560414D01*
X66740122Y-73551828D01*
X66834317Y-73482308D01*
X66847308Y-73469317D01*
X66916828Y-73375122D01*
X66925414Y-73358875D01*
X66964658Y-73246723D01*
X66967853Y-73232093D01*
X66969729Y-73212086D01*
X66970000Y-73206310D01*
X66970000Y-73071326D01*
X66966549Y-73058450D01*
X66953674Y-73055000D01*
X64686326Y-73055000D01*
X64673450Y-73058450D01*
X64670000Y-73071326D01*
X64670000Y-73588673D01*
X64270000Y-73588673D01*
X64270000Y-73071326D01*
X64266549Y-73058450D01*
X64253674Y-73055000D01*
X61986327Y-73055000D01*
X61973451Y-73058450D01*
X61970001Y-73071326D01*
X61970001Y-73206300D01*
X61000000Y-73206300D01*
X61000000Y-72624000D01*
X61016613Y-72562000D01*
X61062000Y-72516613D01*
X61124000Y-72500000D01*
X61846000Y-72500000D01*
X61908000Y-72516613D01*
G37*
%TD.AperFunction*%
%TD*%
%TA.AperFunction,Conductor*%
%TO.N,Net-(D2-K)*%
G36*
X72889124Y-67819506D02*
G01*
X72934872Y-67870699D01*
X72946372Y-67938384D01*
X72920099Y-68001813D01*
X72864106Y-68041542D01*
X72841125Y-68049583D01*
X72824878Y-68058169D01*
X72730683Y-68127689D01*
X72717692Y-68140680D01*
X72648172Y-68234875D01*
X72639586Y-68251122D01*
X72600342Y-68363274D01*
X72597147Y-68377904D01*
X72595271Y-68397911D01*
X72595001Y-68403688D01*
X72595001Y-69238672D01*
X72598451Y-69251547D01*
X72611327Y-69254998D01*
X74778674Y-69254998D01*
X74791549Y-69251547D01*
X74795000Y-69238672D01*
X74795000Y-68403698D01*
X74794729Y-68397909D01*
X74792853Y-68377902D01*
X74789658Y-68363273D01*
X74750415Y-68251122D01*
X74741829Y-68234875D01*
X74672309Y-68140680D01*
X74659318Y-68127689D01*
X74565123Y-68058169D01*
X74548876Y-68049583D01*
X74525896Y-68041542D01*
X74469903Y-68001813D01*
X74443630Y-67938384D01*
X74455130Y-67870699D01*
X74500878Y-67819506D01*
X74566850Y-67800500D01*
X75876000Y-67800500D01*
X75938000Y-67817113D01*
X75983387Y-67862500D01*
X76000000Y-67924500D01*
X76000000Y-80876000D01*
X75983387Y-80938000D01*
X75938000Y-80983387D01*
X75876000Y-81000000D01*
X69124000Y-81000000D01*
X69062000Y-80983387D01*
X69016613Y-80938000D01*
X69000000Y-80876000D01*
X69000000Y-79518601D01*
X69695000Y-79518601D01*
X69696189Y-79530677D01*
X69704221Y-79571056D01*
X69713388Y-79593189D01*
X69744023Y-79639037D01*
X69760961Y-79655975D01*
X69806809Y-79686610D01*
X69828942Y-79695777D01*
X69869321Y-79703809D01*
X69881398Y-79704999D01*
X71728674Y-79704999D01*
X71741549Y-79701548D01*
X71745000Y-79688673D01*
X72145000Y-79688673D01*
X72148450Y-79701548D01*
X72161326Y-79704999D01*
X74008602Y-79704999D01*
X74020678Y-79703809D01*
X74061057Y-79695777D01*
X74083190Y-79686610D01*
X74129038Y-79655975D01*
X74145976Y-79639037D01*
X74176611Y-79593189D01*
X74185778Y-79571056D01*
X74193810Y-79530677D01*
X74195000Y-79518601D01*
X74195000Y-77671325D01*
X74191549Y-77658449D01*
X74178674Y-77654999D01*
X72161326Y-77654999D01*
X72148450Y-77658449D01*
X72145000Y-77671325D01*
X72145000Y-79688673D01*
X71745000Y-79688673D01*
X71745000Y-77671325D01*
X71741549Y-77658449D01*
X71728674Y-77654999D01*
X69711326Y-77654999D01*
X69698450Y-77658449D01*
X69695000Y-77671325D01*
X69695000Y-79518601D01*
X69000000Y-79518601D01*
X69000000Y-77238673D01*
X69695000Y-77238673D01*
X69698450Y-77251548D01*
X69711326Y-77254999D01*
X71728674Y-77254999D01*
X71741549Y-77251548D01*
X71745000Y-77238673D01*
X72145000Y-77238673D01*
X72148450Y-77251548D01*
X72161326Y-77254999D01*
X74178674Y-77254999D01*
X74191549Y-77251548D01*
X74195000Y-77238673D01*
X74195000Y-75391397D01*
X74193810Y-75379320D01*
X74185778Y-75338941D01*
X74176611Y-75316808D01*
X74145976Y-75270960D01*
X74129038Y-75254022D01*
X74083190Y-75223387D01*
X74061057Y-75214220D01*
X74020678Y-75206188D01*
X74008602Y-75204999D01*
X72161326Y-75204999D01*
X72148450Y-75208449D01*
X72145000Y-75221325D01*
X72145000Y-77238673D01*
X71745000Y-77238673D01*
X71745000Y-75221325D01*
X71741549Y-75208449D01*
X71728674Y-75204999D01*
X69881398Y-75204999D01*
X69869321Y-75206188D01*
X69828942Y-75214220D01*
X69806809Y-75223387D01*
X69760961Y-75254022D01*
X69744023Y-75270960D01*
X69713388Y-75316808D01*
X69704221Y-75338941D01*
X69696189Y-75379320D01*
X69695000Y-75391397D01*
X69695000Y-77238673D01*
X69000000Y-77238673D01*
X69000000Y-72016326D01*
X69000000Y-72000000D01*
X68983674Y-72000000D01*
X62124000Y-72000000D01*
X62062000Y-71983387D01*
X62016613Y-71938000D01*
X62000000Y-71876000D01*
X62000000Y-70624000D01*
X62016613Y-70562000D01*
X62062000Y-70516613D01*
X62124000Y-70500000D01*
X67690909Y-70500000D01*
X67729668Y-70506213D01*
X67764540Y-70524228D01*
X67837118Y-70577793D01*
X67965301Y-70622646D01*
X67995734Y-70625500D01*
X69001373Y-70625500D01*
X69004266Y-70625500D01*
X69034699Y-70622646D01*
X69162882Y-70577793D01*
X69235459Y-70524228D01*
X69270332Y-70506213D01*
X69309091Y-70500000D01*
X69632035Y-70500000D01*
X69670794Y-70506213D01*
X69705668Y-70524230D01*
X69736142Y-70546721D01*
X69812118Y-70602793D01*
X69940301Y-70647646D01*
X69970734Y-70650500D01*
X71026373Y-70650500D01*
X71029266Y-70650500D01*
X71059699Y-70647646D01*
X71187882Y-70602793D01*
X71283678Y-70532093D01*
X71294332Y-70524230D01*
X71329041Y-70506298D01*
X72595002Y-70506298D01*
X72595272Y-70512086D01*
X72597148Y-70532093D01*
X72600343Y-70546722D01*
X72639586Y-70658873D01*
X72648172Y-70675120D01*
X72717692Y-70769315D01*
X72730683Y-70782306D01*
X72824878Y-70851826D01*
X72841125Y-70860412D01*
X72953277Y-70899656D01*
X72967907Y-70902851D01*
X72987914Y-70904727D01*
X72993691Y-70904998D01*
X73478675Y-70904998D01*
X73491550Y-70901547D01*
X73495001Y-70888672D01*
X73495001Y-70888671D01*
X73895001Y-70888671D01*
X73898451Y-70901546D01*
X73911327Y-70904997D01*
X74396301Y-70904997D01*
X74402089Y-70904726D01*
X74422096Y-70902850D01*
X74436725Y-70899655D01*
X74548876Y-70860412D01*
X74565123Y-70851826D01*
X74659318Y-70782306D01*
X74672309Y-70769315D01*
X74741829Y-70675120D01*
X74750415Y-70658873D01*
X74789659Y-70546721D01*
X74792854Y-70532091D01*
X74794730Y-70512084D01*
X74795001Y-70506308D01*
X74795001Y-69671324D01*
X74791550Y-69658448D01*
X74778675Y-69654998D01*
X73911327Y-69654998D01*
X73898451Y-69658448D01*
X73895001Y-69671324D01*
X73895001Y-70888671D01*
X73495001Y-70888671D01*
X73495001Y-69671324D01*
X73491550Y-69658448D01*
X73478675Y-69654998D01*
X72611328Y-69654998D01*
X72598452Y-69658448D01*
X72595002Y-69671324D01*
X72595002Y-70506298D01*
X71329041Y-70506298D01*
X71329206Y-70506213D01*
X71367965Y-70500000D01*
X71483674Y-70500000D01*
X71500000Y-70500000D01*
X71500000Y-70242755D01*
X71509439Y-70195302D01*
X71536319Y-70155074D01*
X71930483Y-69760909D01*
X71930485Y-69760905D01*
X71953050Y-69738342D01*
X71963104Y-69718606D01*
X71973275Y-69702009D01*
X71986296Y-69684090D01*
X71993143Y-69663014D01*
X72000586Y-69645045D01*
X72010646Y-69625304D01*
X72014111Y-69603423D01*
X72018656Y-69584496D01*
X72022485Y-69572712D01*
X72022485Y-69572711D01*
X72025500Y-69563433D01*
X72025500Y-69436567D01*
X72025500Y-67992255D01*
X72034939Y-67944802D01*
X72061819Y-67904574D01*
X72129574Y-67836819D01*
X72169802Y-67809939D01*
X72217255Y-67800500D01*
X72823152Y-67800500D01*
X72889124Y-67819506D01*
G37*
%TD.AperFunction*%
%TD*%
%TA.AperFunction,Conductor*%
%TO.N,GND*%
G36*
X84438000Y-60516613D02*
G01*
X84483387Y-60562000D01*
X84500000Y-60624000D01*
X84500000Y-67376000D01*
X84483387Y-67438000D01*
X84438000Y-67483387D01*
X84376000Y-67500000D01*
X81741816Y-67500000D01*
X81683367Y-67485361D01*
X81638720Y-67444900D01*
X81618415Y-67388170D01*
X81625524Y-67340193D01*
X81623350Y-67339534D01*
X81678762Y-67156863D01*
X81681128Y-67144968D01*
X81699242Y-66961060D01*
X81699242Y-66948938D01*
X81681128Y-66765029D01*
X81678762Y-66753134D01*
X81625117Y-66576291D01*
X81620478Y-66565091D01*
X81539293Y-66413204D01*
X81531801Y-66404731D01*
X81522178Y-66410661D01*
X80977842Y-66954998D01*
X80977839Y-66955002D01*
X80782681Y-67150161D01*
X80727094Y-67182255D01*
X80662907Y-67182255D01*
X80607319Y-67150161D01*
X80412159Y-66955001D01*
X80412157Y-66954998D01*
X79867820Y-66410661D01*
X79858196Y-66404731D01*
X79850707Y-66413200D01*
X79769520Y-66565094D01*
X79764882Y-66576291D01*
X79711237Y-66753134D01*
X79708871Y-66765029D01*
X79690758Y-66948938D01*
X79690758Y-66961060D01*
X79708871Y-67144968D01*
X79711237Y-67156863D01*
X79766650Y-67339534D01*
X79764475Y-67340193D01*
X79771585Y-67388170D01*
X79751280Y-67444900D01*
X79706633Y-67485361D01*
X79648184Y-67500000D01*
X76917755Y-67500000D01*
X76870302Y-67490561D01*
X76830074Y-67463681D01*
X76460916Y-67094523D01*
X76460915Y-67094522D01*
X76460909Y-67094516D01*
X76460905Y-67094513D01*
X76438342Y-67071950D01*
X76429649Y-67067520D01*
X76429647Y-67067519D01*
X76418598Y-67061889D01*
X76402015Y-67051726D01*
X76391987Y-67044440D01*
X76391980Y-67044436D01*
X76384090Y-67038704D01*
X76363019Y-67031857D01*
X76345044Y-67024412D01*
X76333999Y-67018784D01*
X76333996Y-67018783D01*
X76325304Y-67014354D01*
X76315667Y-67012827D01*
X76315666Y-67012827D01*
X76303418Y-67010887D01*
X76284506Y-67006346D01*
X76272717Y-67002516D01*
X76272714Y-67002515D01*
X76263433Y-66999500D01*
X76231519Y-66999500D01*
X74741487Y-66999500D01*
X74685192Y-66985985D01*
X74641169Y-66948385D01*
X74619014Y-66894898D01*
X74623556Y-66837182D01*
X74653806Y-66787819D01*
X74672309Y-66769315D01*
X74741829Y-66675120D01*
X74750415Y-66658873D01*
X74789659Y-66546721D01*
X74792854Y-66532091D01*
X74794730Y-66512084D01*
X74795001Y-66506308D01*
X74795001Y-66118195D01*
X80144732Y-66118195D01*
X80150662Y-66127819D01*
X80683456Y-66660612D01*
X80695000Y-66667277D01*
X80706542Y-66660613D01*
X81239336Y-66127819D01*
X81245266Y-66118196D01*
X81236794Y-66110705D01*
X81084907Y-66029520D01*
X81073707Y-66024881D01*
X80896864Y-65971236D01*
X80884969Y-65968870D01*
X80701061Y-65950757D01*
X80688939Y-65950757D01*
X80505030Y-65968870D01*
X80493135Y-65971236D01*
X80316292Y-66024881D01*
X80305095Y-66029519D01*
X80153201Y-66110706D01*
X80144732Y-66118195D01*
X74795001Y-66118195D01*
X74795001Y-65671324D01*
X74791550Y-65658448D01*
X74778675Y-65654998D01*
X72611328Y-65654998D01*
X72598452Y-65658448D01*
X72595002Y-65671324D01*
X72595002Y-66506298D01*
X72595272Y-66512086D01*
X72597148Y-66532093D01*
X72600343Y-66546722D01*
X72639586Y-66658873D01*
X72648172Y-66675120D01*
X72717692Y-66769315D01*
X72736196Y-66787819D01*
X72766446Y-66837182D01*
X72770988Y-66894898D01*
X72748833Y-66948385D01*
X72704810Y-66985985D01*
X72648515Y-66999500D01*
X72124000Y-66999500D01*
X72062000Y-66982887D01*
X72016613Y-66937500D01*
X72000000Y-66875500D01*
X72000000Y-65516326D01*
X72000000Y-65500000D01*
X71983674Y-65500000D01*
X70236996Y-65500000D01*
X70176676Y-65484340D01*
X70131592Y-65441315D01*
X70113131Y-65381793D01*
X70125957Y-65320807D01*
X70166829Y-65273762D01*
X70215114Y-65256274D01*
X70214719Y-65254464D01*
X70236724Y-65249657D01*
X70268118Y-65238672D01*
X72595001Y-65238672D01*
X72598451Y-65251547D01*
X72611327Y-65254998D01*
X73478675Y-65254998D01*
X73491550Y-65251547D01*
X73495001Y-65238672D01*
X73895001Y-65238672D01*
X73898451Y-65251547D01*
X73911327Y-65254998D01*
X74778674Y-65254998D01*
X74791549Y-65251547D01*
X74795000Y-65238672D01*
X74795000Y-64403698D01*
X74794729Y-64397909D01*
X74792853Y-64377902D01*
X74789658Y-64363273D01*
X74750415Y-64251122D01*
X74741829Y-64234875D01*
X74672309Y-64140680D01*
X74659318Y-64127689D01*
X74565123Y-64058169D01*
X74548876Y-64049583D01*
X74436724Y-64010339D01*
X74422094Y-64007144D01*
X74402087Y-64005268D01*
X74396311Y-64004998D01*
X73911327Y-64004998D01*
X73898451Y-64008448D01*
X73895001Y-64021324D01*
X73895001Y-65238672D01*
X73495001Y-65238672D01*
X73495001Y-64021325D01*
X73491550Y-64008449D01*
X73478675Y-64004999D01*
X72993701Y-64004999D01*
X72987912Y-64005269D01*
X72967905Y-64007145D01*
X72953276Y-64010340D01*
X72841125Y-64049583D01*
X72824878Y-64058169D01*
X72730683Y-64127689D01*
X72717692Y-64140680D01*
X72648172Y-64234875D01*
X72639586Y-64251122D01*
X72600342Y-64363274D01*
X72597147Y-64377904D01*
X72595271Y-64397911D01*
X72595001Y-64403688D01*
X72595001Y-65238672D01*
X70268118Y-65238672D01*
X70348875Y-65210414D01*
X70365122Y-65201828D01*
X70459317Y-65132308D01*
X70472308Y-65119317D01*
X70541828Y-65025122D01*
X70550414Y-65008875D01*
X70589658Y-64896723D01*
X70592853Y-64882093D01*
X70594729Y-64862086D01*
X70595000Y-64856310D01*
X70595000Y-64758826D01*
X70591549Y-64745950D01*
X70578674Y-64742500D01*
X68811327Y-64742500D01*
X68798451Y-64745950D01*
X68795001Y-64758826D01*
X68795001Y-64856300D01*
X68795271Y-64862088D01*
X68797147Y-64882095D01*
X68800342Y-64896724D01*
X68839585Y-65008875D01*
X68848171Y-65025122D01*
X68917691Y-65119317D01*
X68930682Y-65132308D01*
X69024877Y-65201828D01*
X69041124Y-65210414D01*
X69153276Y-65249658D01*
X69175276Y-65254463D01*
X69174881Y-65256271D01*
X69223179Y-65273765D01*
X69264049Y-65320810D01*
X69276873Y-65381795D01*
X69258411Y-65441316D01*
X69213327Y-65484340D01*
X69153008Y-65500000D01*
X68516326Y-65500000D01*
X68500000Y-65500000D01*
X68500000Y-65516326D01*
X68500000Y-66376000D01*
X68483387Y-66438000D01*
X68438000Y-66483387D01*
X68376000Y-66500000D01*
X67094000Y-66500000D01*
X67032000Y-66483387D01*
X66986613Y-66438000D01*
X66970000Y-66376000D01*
X66970000Y-66271326D01*
X66966549Y-66258450D01*
X66953674Y-66255000D01*
X61986327Y-66255000D01*
X61973451Y-66258450D01*
X61970001Y-66271326D01*
X61970001Y-66376000D01*
X61953388Y-66438000D01*
X61908001Y-66483387D01*
X61846001Y-66500000D01*
X61500000Y-66500000D01*
X61500000Y-69000000D01*
X66876000Y-69000000D01*
X66938000Y-69016613D01*
X66983387Y-69062000D01*
X67000000Y-69124000D01*
X67000000Y-69876000D01*
X66983387Y-69938000D01*
X66938000Y-69983387D01*
X66876000Y-70000000D01*
X61500000Y-70000000D01*
X61500000Y-70016326D01*
X61500000Y-71876000D01*
X61483387Y-71938000D01*
X61438000Y-71983387D01*
X61376000Y-72000000D01*
X60500000Y-72000000D01*
X60500000Y-72016326D01*
X60500000Y-75670500D01*
X60483387Y-75732500D01*
X60438000Y-75777887D01*
X60376000Y-75794500D01*
X53124000Y-75794500D01*
X53119986Y-75795028D01*
X53119977Y-75795029D01*
X53074833Y-75800972D01*
X53074823Y-75800973D01*
X53070812Y-75801502D01*
X53066909Y-75802547D01*
X53066898Y-75802550D01*
X53012729Y-75817065D01*
X53012722Y-75817067D01*
X53008812Y-75818115D01*
X53005071Y-75819664D01*
X53005058Y-75819669D01*
X52966762Y-75835533D01*
X52966760Y-75835534D01*
X52959250Y-75838645D01*
X52956795Y-75840528D01*
X52897250Y-75856483D01*
X52837704Y-75840528D01*
X52835250Y-75838645D01*
X52822276Y-75833271D01*
X52789441Y-75819669D01*
X52789432Y-75819666D01*
X52785688Y-75818115D01*
X52781772Y-75817065D01*
X52781770Y-75817065D01*
X52727601Y-75802550D01*
X52727593Y-75802548D01*
X52723688Y-75801502D01*
X52719673Y-75800973D01*
X52719666Y-75800972D01*
X52674522Y-75795029D01*
X52674514Y-75795028D01*
X52670500Y-75794500D01*
X52666445Y-75794500D01*
X48124000Y-75794500D01*
X48062000Y-75777887D01*
X48016613Y-75732500D01*
X48000000Y-75670500D01*
X48000000Y-67124000D01*
X48016613Y-67062000D01*
X48062000Y-67016613D01*
X48124000Y-67000000D01*
X49983674Y-67000000D01*
X50000000Y-67000000D01*
X50000000Y-65838674D01*
X61970000Y-65838674D01*
X61973450Y-65851549D01*
X61986326Y-65855000D01*
X64253674Y-65855000D01*
X64266549Y-65851549D01*
X64270000Y-65838674D01*
X64670000Y-65838674D01*
X64673450Y-65851549D01*
X64686326Y-65855000D01*
X66953673Y-65855000D01*
X66966548Y-65851549D01*
X66969999Y-65838674D01*
X66969999Y-65703700D01*
X66969728Y-65697911D01*
X66967852Y-65677904D01*
X66964657Y-65663275D01*
X66925414Y-65551124D01*
X66916828Y-65534877D01*
X66847308Y-65440682D01*
X66834317Y-65427691D01*
X66740122Y-65358171D01*
X66723875Y-65349585D01*
X66611723Y-65310341D01*
X66597093Y-65307146D01*
X66577086Y-65305270D01*
X66571310Y-65305000D01*
X64686326Y-65305000D01*
X64673450Y-65308450D01*
X64670000Y-65321326D01*
X64670000Y-65838674D01*
X64270000Y-65838674D01*
X64270000Y-65321327D01*
X64266549Y-65308451D01*
X64253674Y-65305001D01*
X62368700Y-65305001D01*
X62362911Y-65305271D01*
X62342904Y-65307147D01*
X62328275Y-65310342D01*
X62216124Y-65349585D01*
X62199877Y-65358171D01*
X62105682Y-65427691D01*
X62092691Y-65440682D01*
X62023171Y-65534877D01*
X62014585Y-65551124D01*
X61975341Y-65663276D01*
X61972146Y-65677906D01*
X61970270Y-65697913D01*
X61970000Y-65703690D01*
X61970000Y-65838674D01*
X50000000Y-65838674D01*
X50000000Y-64326174D01*
X68795000Y-64326174D01*
X68798450Y-64339049D01*
X68811326Y-64342500D01*
X69478674Y-64342500D01*
X69491549Y-64339049D01*
X69495000Y-64326174D01*
X69895000Y-64326174D01*
X69898450Y-64339049D01*
X69911326Y-64342500D01*
X70578673Y-64342500D01*
X70591548Y-64339049D01*
X70594999Y-64326174D01*
X70594999Y-64228700D01*
X70594728Y-64222911D01*
X70592852Y-64202904D01*
X70589657Y-64188275D01*
X70550414Y-64076124D01*
X70541828Y-64059877D01*
X70472308Y-63965682D01*
X70459317Y-63952691D01*
X70365122Y-63883171D01*
X70348875Y-63874585D01*
X70236723Y-63835341D01*
X70222093Y-63832146D01*
X70202086Y-63830270D01*
X70196310Y-63830000D01*
X69911326Y-63830000D01*
X69898450Y-63833450D01*
X69895000Y-63846326D01*
X69895000Y-64326174D01*
X69495000Y-64326174D01*
X69495000Y-63846327D01*
X69491549Y-63833451D01*
X69478674Y-63830001D01*
X69193700Y-63830001D01*
X69187911Y-63830271D01*
X69167904Y-63832147D01*
X69153275Y-63835342D01*
X69041124Y-63874585D01*
X69024877Y-63883171D01*
X68930682Y-63952691D01*
X68917691Y-63965682D01*
X68848171Y-64059877D01*
X68839585Y-64076124D01*
X68800341Y-64188276D01*
X68797146Y-64202906D01*
X68795270Y-64222913D01*
X68795000Y-64228690D01*
X68795000Y-64326174D01*
X50000000Y-64326174D01*
X50000000Y-60624000D01*
X50016613Y-60562000D01*
X50062000Y-60516613D01*
X50124000Y-60500000D01*
X84376000Y-60500000D01*
X84438000Y-60516613D01*
G37*
%TD.AperFunction*%
%TD*%
%TA.AperFunction,Conductor*%
%TO.N,+5V*%
G36*
X79637593Y-68518699D02*
G01*
X79683325Y-68569156D01*
X79695516Y-68636154D01*
X79695000Y-68641393D01*
X79695000Y-69238673D01*
X79698450Y-69251548D01*
X79711326Y-69254999D01*
X81678674Y-69254999D01*
X81691549Y-69251548D01*
X81695000Y-69238673D01*
X81695000Y-68641393D01*
X81694484Y-68636154D01*
X81706675Y-68569156D01*
X81752407Y-68518699D01*
X81817887Y-68500000D01*
X84376000Y-68500000D01*
X84438000Y-68516613D01*
X84483387Y-68562000D01*
X84500000Y-68624000D01*
X84500000Y-74500000D01*
X93235950Y-74500000D01*
X93273237Y-74505739D01*
X93307073Y-74522425D01*
X93347266Y-74550568D01*
X93352175Y-74552857D01*
X93352180Y-74552860D01*
X93405864Y-74577893D01*
X93458040Y-74623649D01*
X93477460Y-74690274D01*
X93458041Y-74756899D01*
X93405866Y-74802657D01*
X93352424Y-74827578D01*
X93343077Y-74832974D01*
X93244060Y-74902306D01*
X93236627Y-74910417D01*
X93242538Y-74919696D01*
X93988457Y-75665614D01*
X94000000Y-75672278D01*
X94011542Y-75665614D01*
X94757460Y-74919696D01*
X94763371Y-74910417D01*
X94755938Y-74902306D01*
X94656922Y-74832974D01*
X94647572Y-74827575D01*
X94594134Y-74802657D01*
X94541958Y-74756899D01*
X94522539Y-74690274D01*
X94541959Y-74623649D01*
X94594131Y-74577894D01*
X94652734Y-74550568D01*
X94692926Y-74522425D01*
X94726763Y-74505739D01*
X94764050Y-74500000D01*
X96376000Y-74500000D01*
X96438000Y-74516613D01*
X96483387Y-74562000D01*
X96500000Y-74624000D01*
X96500000Y-80876000D01*
X96483387Y-80938000D01*
X96438000Y-80983387D01*
X96376000Y-81000000D01*
X77624000Y-81000000D01*
X77562000Y-80983387D01*
X77516613Y-80938000D01*
X77500000Y-80876000D01*
X77500000Y-79518601D01*
X79195000Y-79518601D01*
X79196189Y-79530677D01*
X79204221Y-79571056D01*
X79213388Y-79593189D01*
X79244023Y-79639037D01*
X79260961Y-79655975D01*
X79306809Y-79686610D01*
X79328942Y-79695777D01*
X79369321Y-79703809D01*
X79381398Y-79704999D01*
X81228674Y-79704999D01*
X81241549Y-79701548D01*
X81245000Y-79688673D01*
X81645000Y-79688673D01*
X81648450Y-79701548D01*
X81661326Y-79704999D01*
X83508602Y-79704999D01*
X83520678Y-79703809D01*
X83561057Y-79695777D01*
X83583190Y-79686610D01*
X83629038Y-79655975D01*
X83645976Y-79639037D01*
X83662971Y-79613602D01*
X92700000Y-79613602D01*
X92701189Y-79625678D01*
X92709221Y-79666057D01*
X92718388Y-79688190D01*
X92749023Y-79734038D01*
X92765961Y-79750976D01*
X92811809Y-79781611D01*
X92833942Y-79790778D01*
X92874321Y-79798810D01*
X92886398Y-79800000D01*
X93783674Y-79800000D01*
X93796549Y-79796549D01*
X93800000Y-79783674D01*
X94200000Y-79783674D01*
X94203450Y-79796549D01*
X94216326Y-79800000D01*
X95113602Y-79800000D01*
X95125678Y-79798810D01*
X95166057Y-79790778D01*
X95188190Y-79781611D01*
X95234038Y-79750976D01*
X95250976Y-79734038D01*
X95281611Y-79688190D01*
X95290778Y-79666057D01*
X95298810Y-79625678D01*
X95300000Y-79613602D01*
X95300000Y-78716326D01*
X95296549Y-78703450D01*
X95283674Y-78700000D01*
X94216326Y-78700000D01*
X94203450Y-78703450D01*
X94200000Y-78716326D01*
X94200000Y-79783674D01*
X93800000Y-79783674D01*
X93800000Y-78716326D01*
X93796549Y-78703450D01*
X93783674Y-78700000D01*
X92716326Y-78700000D01*
X92703450Y-78703450D01*
X92700000Y-78716326D01*
X92700000Y-79613602D01*
X83662971Y-79613602D01*
X83676611Y-79593189D01*
X83685778Y-79571056D01*
X83693810Y-79530677D01*
X83695000Y-79518601D01*
X83695000Y-78283674D01*
X92700000Y-78283674D01*
X92703450Y-78296549D01*
X92716326Y-78300000D01*
X95283674Y-78300000D01*
X95296549Y-78296549D01*
X95300000Y-78283674D01*
X95300000Y-77386398D01*
X95298810Y-77374321D01*
X95290778Y-77333942D01*
X95281611Y-77311809D01*
X95250976Y-77265961D01*
X95234038Y-77249023D01*
X95188190Y-77218388D01*
X95166057Y-77209221D01*
X95125678Y-77201189D01*
X95113602Y-77200000D01*
X94870696Y-77200000D01*
X94815368Y-77186972D01*
X94771666Y-77150627D01*
X94748773Y-77098600D01*
X94751498Y-77041825D01*
X94757030Y-77031945D01*
X94763846Y-77010327D01*
X94757457Y-77000299D01*
X94011542Y-76254384D01*
X94000000Y-76247720D01*
X93988457Y-76254384D01*
X93242541Y-77000299D01*
X93236152Y-77010327D01*
X93242968Y-77031945D01*
X93248501Y-77041825D01*
X93251226Y-77098600D01*
X93228333Y-77150627D01*
X93184631Y-77186972D01*
X93129303Y-77200000D01*
X92886398Y-77200000D01*
X92874321Y-77201189D01*
X92833942Y-77209221D01*
X92811809Y-77218388D01*
X92765961Y-77249023D01*
X92749023Y-77265961D01*
X92718388Y-77311809D01*
X92709221Y-77333942D01*
X92701189Y-77374321D01*
X92700000Y-77386398D01*
X92700000Y-78283674D01*
X83695000Y-78283674D01*
X83695000Y-77671325D01*
X83691549Y-77658449D01*
X83678674Y-77654999D01*
X81661326Y-77654999D01*
X81648450Y-77658449D01*
X81645000Y-77671325D01*
X81645000Y-79688673D01*
X81245000Y-79688673D01*
X81245000Y-77671325D01*
X81241549Y-77658449D01*
X81228674Y-77654999D01*
X79211326Y-77654999D01*
X79198450Y-77658449D01*
X79195000Y-77671325D01*
X79195000Y-79518601D01*
X77500000Y-79518601D01*
X77500000Y-77238673D01*
X79195000Y-77238673D01*
X79198450Y-77251548D01*
X79211326Y-77254999D01*
X81228674Y-77254999D01*
X81241549Y-77251548D01*
X81245000Y-77238673D01*
X81645000Y-77238673D01*
X81648450Y-77251548D01*
X81661326Y-77254999D01*
X83678674Y-77254999D01*
X83691549Y-77251548D01*
X83695000Y-77238673D01*
X83695000Y-75965395D01*
X92695506Y-75965395D01*
X92714386Y-76181206D01*
X92716260Y-76191837D01*
X92772332Y-76401097D01*
X92776020Y-76411231D01*
X92867576Y-76607572D01*
X92872974Y-76616922D01*
X92942306Y-76715938D01*
X92950417Y-76723371D01*
X92959696Y-76717460D01*
X93705614Y-75971542D01*
X93712278Y-75960000D01*
X94287720Y-75960000D01*
X94294384Y-75971542D01*
X95040299Y-76717457D01*
X95049581Y-76723370D01*
X95057692Y-76715938D01*
X95127026Y-76616920D01*
X95132422Y-76607575D01*
X95223979Y-76411231D01*
X95227667Y-76401097D01*
X95283739Y-76191837D01*
X95285613Y-76181206D01*
X95304494Y-75965395D01*
X95304494Y-75954605D01*
X95285613Y-75738793D01*
X95283739Y-75728162D01*
X95227667Y-75518902D01*
X95223979Y-75508768D01*
X95132420Y-75312419D01*
X95127032Y-75303087D01*
X95057691Y-75204058D01*
X95049582Y-75196627D01*
X95040299Y-75202541D01*
X94294384Y-75948457D01*
X94287720Y-75960000D01*
X93712278Y-75960000D01*
X93705614Y-75948457D01*
X92959696Y-75202538D01*
X92950417Y-75196627D01*
X92942306Y-75204060D01*
X92872974Y-75303077D01*
X92867576Y-75312427D01*
X92776020Y-75508768D01*
X92772332Y-75518902D01*
X92716260Y-75728162D01*
X92714386Y-75738793D01*
X92695506Y-75954605D01*
X92695506Y-75965395D01*
X83695000Y-75965395D01*
X83695000Y-75391397D01*
X83693810Y-75379320D01*
X83685778Y-75338941D01*
X83676611Y-75316808D01*
X83645976Y-75270960D01*
X83629038Y-75254022D01*
X83583190Y-75223387D01*
X83561057Y-75214220D01*
X83520678Y-75206188D01*
X83508602Y-75204999D01*
X81661326Y-75204999D01*
X81648450Y-75208449D01*
X81645000Y-75221325D01*
X81645000Y-77238673D01*
X81245000Y-77238673D01*
X81245000Y-75221325D01*
X81241549Y-75208449D01*
X81228674Y-75204999D01*
X79381398Y-75204999D01*
X79369321Y-75206188D01*
X79328942Y-75214220D01*
X79306809Y-75223387D01*
X79260961Y-75254022D01*
X79244023Y-75270960D01*
X79213388Y-75316808D01*
X79204221Y-75338941D01*
X79196189Y-75379320D01*
X79195000Y-75391397D01*
X79195000Y-77238673D01*
X77500000Y-77238673D01*
X77500000Y-70268601D01*
X79695000Y-70268601D01*
X79696189Y-70280677D01*
X79704221Y-70321056D01*
X79713388Y-70343189D01*
X79744023Y-70389037D01*
X79760961Y-70405975D01*
X79806809Y-70436610D01*
X79828942Y-70445777D01*
X79869321Y-70453809D01*
X79881398Y-70454999D01*
X80478674Y-70454999D01*
X80491549Y-70451548D01*
X80495000Y-70438673D01*
X80895000Y-70438673D01*
X80898450Y-70451548D01*
X80911326Y-70454999D01*
X81508602Y-70454999D01*
X81520678Y-70453809D01*
X81561057Y-70445777D01*
X81583190Y-70436610D01*
X81629038Y-70405975D01*
X81645976Y-70389037D01*
X81676611Y-70343189D01*
X81685778Y-70321056D01*
X81693810Y-70280677D01*
X81695000Y-70268601D01*
X81695000Y-69671325D01*
X81691549Y-69658449D01*
X81678674Y-69654999D01*
X80911326Y-69654999D01*
X80898450Y-69658449D01*
X80895000Y-69671325D01*
X80895000Y-70438673D01*
X80495000Y-70438673D01*
X80495000Y-69671325D01*
X80491549Y-69658449D01*
X80478674Y-69654999D01*
X79711326Y-69654999D01*
X79698450Y-69658449D01*
X79695000Y-69671325D01*
X79695000Y-70268601D01*
X77500000Y-70268601D01*
X77500000Y-68624000D01*
X77516613Y-68562000D01*
X77562000Y-68516613D01*
X77624000Y-68500000D01*
X79572113Y-68500000D01*
X79637593Y-68518699D01*
G37*
%TD.AperFunction*%
%TD*%
M02*
