M48
; DRILL file {KiCad (7.0.0)} date Wed Jul  5 22:29:43 2023
; FORMAT={-:-/ absolute / metric / decimal}
; #@! TF.CreationDate,2023-07-05T22:29:43-07:00
; #@! TF.GenerationSoftware,Kicad,Pcbnew,(7.0.0)
; #@! TF.FileFunction,MixedPlating,1,2
FMAT,2
METRIC
; #@! TA.AperFunction,Plated,PTH,ViaDrill
T1C0.700
; #@! TA.AperFunction,Plated,PTH,ComponentDrill
T2C0.750
; #@! TA.AperFunction,Plated,PTH,ComponentDrill
T3C0.800
; #@! TA.AperFunction,Plated,PTH,ComponentDrill
T4C1.000
; #@! TA.AperFunction,Plated,PTH,ComponentDrill
T5C1.020
; #@! TA.AperFunction,Plated,PTH,ComponentDrill
T6C1.100
; #@! TA.AperFunction,Plated,PTH,ComponentDrill
T7C1.300
; #@! TA.AperFunction,NonPlated,NPTH,ComponentDrill
T8C3.200
%
G90
G05
T1
X49.0Y-68.0
X49.0Y-70.0
X49.0Y-72.0
X49.0Y-74.0
X50.5Y-97.7
X50.6Y-114.4
X51.5Y-101.5
X52.0Y-63.0
X52.5Y-95.2
X52.5Y-111.6
X53.5Y-83.4
X53.6Y-93.9
X53.7Y-92.5
X53.9Y-110.5
X54.0Y-63.0
X56.0Y-63.0
X56.8Y-98.14
X57.2Y-109.2
X57.4Y-105.9
X57.9Y-85.442
X57.9Y-101.5
X58.0Y-63.0
X58.8Y-114.1
X59.2Y-90.1
X60.0Y-63.0
X60.4Y-91.3
X60.4Y-103.2
X60.4Y-111.0
X61.0Y-66.0
X61.0Y-69.5
X63.5Y-107.5
X63.5Y-126.0
X67.8Y-66.0
T2
X32.4Y-129.5
X32.4Y-131.5
X32.4Y-133.5
T3
X80.695Y-66.955
X80.695Y-69.455
T4
X34.46Y-80.0
X34.46Y-82.54
X34.46Y-85.08
X34.46Y-87.62
X34.46Y-90.16
X34.46Y-92.7
X34.46Y-95.24
X34.46Y-97.78
X34.46Y-104.22
X34.46Y-106.76
X34.46Y-109.3
X34.46Y-111.84
X34.46Y-114.38
X34.46Y-116.92
X34.46Y-119.46
X34.46Y-122.0
X34.5Y-129.0
X34.5Y-131.54
X34.5Y-134.08
X37.0Y-80.0
X37.0Y-82.54
X37.0Y-85.08
X37.0Y-87.62
X37.0Y-90.16
X37.0Y-92.7
X37.0Y-95.24
X37.0Y-97.78
X37.0Y-104.22
X37.0Y-106.76
X37.0Y-109.3
X37.0Y-111.84
X37.0Y-114.38
X37.0Y-116.92
X37.0Y-119.46
X37.0Y-122.0
X62.695Y-78.842
X62.695Y-83.842
T5
X68.0Y-87.98
X68.0Y-90.52
X68.0Y-93.06
X68.0Y-95.6
X68.0Y-98.14
X68.0Y-100.68
X68.0Y-103.22
X68.0Y-105.76
X68.0Y-108.3
X68.0Y-110.84
X68.0Y-113.38
X68.0Y-115.92
X68.0Y-118.46
X68.0Y-121.0
X68.0Y-123.54
X68.0Y-126.08
X68.0Y-128.62
X68.0Y-131.16
X68.0Y-133.7
X68.0Y-136.24
X85.78Y-87.98
X85.78Y-90.52
X85.78Y-93.06
X85.78Y-95.6
X85.78Y-98.14
X85.78Y-100.68
X85.78Y-103.22
X85.78Y-105.76
X85.78Y-108.3
X85.78Y-110.84
X85.78Y-113.38
X85.78Y-115.92
X85.78Y-118.46
X85.78Y-121.0
X85.78Y-123.54
X85.78Y-126.08
X85.78Y-128.62
X85.78Y-131.16
X85.78Y-133.7
X85.78Y-136.24
T6
X94.0Y-70.88
X94.0Y-73.42
X94.0Y-75.96
X94.0Y-78.5
T7
X36.0Y-66.92
X36.0Y-72.0
T8
X46.0Y-64.0
X46.0Y-135.0
X94.0Y-64.0
X94.0Y-135.0
T0
M30
