%TF.GenerationSoftware,KiCad,Pcbnew,7.0.7*%
%TF.CreationDate,2024-02-20T22:27:51-08:00*%
%TF.ProjectId,hb100_amplifier,68623130-305f-4616-9d70-6c6966696572,A*%
%TF.SameCoordinates,PX42c1d80PY1c9c380*%
%TF.FileFunction,Legend,Top*%
%TF.FilePolarity,Positive*%
%FSLAX46Y46*%
G04 Gerber Fmt 4.6, Leading zero omitted, Abs format (unit mm)*
G04 Created by KiCad (PCBNEW 7.0.7) date 2024-02-20 22:27:51*
%MOMM*%
%LPD*%
G01*
G04 APERTURE LIST*
%ADD10C,0.100000*%
%ADD11C,0.150000*%
%ADD12C,0.300000*%
%ADD13C,0.400000*%
%ADD14C,0.200000*%
%ADD15C,0.120000*%
G04 APERTURE END LIST*
D10*
D11*
X89400000Y-141900000D02*
X197400000Y-141900000D01*
X197400000Y-173900000D01*
X89400000Y-173900000D01*
X89400000Y-141900000D01*
D10*
D11*
X-60000000Y20000000D02*
X199400000Y20000000D01*
X199400000Y-175900000D01*
X-60000000Y-175900000D01*
X-60000000Y20000000D01*
D10*
D11*
X-58000000Y18000000D02*
X197400000Y18000000D01*
X197400000Y-173900000D01*
X-58000000Y-173900000D01*
X-58000000Y18000000D01*
D10*
D11*
X-10000000Y18000000D02*
X-10000000Y20000000D01*
D10*
D11*
X40000000Y18000000D02*
X40000000Y20000000D01*
D10*
D11*
X90000000Y18000000D02*
X90000000Y20000000D01*
D10*
D11*
X140000000Y18000000D02*
X140000000Y20000000D01*
D10*
D11*
X190000000Y18000000D02*
X190000000Y20000000D01*
D10*
D11*
X-33910840Y18406396D02*
X-34653697Y18406396D01*
X-34282269Y18406396D02*
X-34282269Y19706396D01*
X-34282269Y19706396D02*
X-34406078Y19520681D01*
X-34406078Y19520681D02*
X-34529888Y19396872D01*
X-34529888Y19396872D02*
X-34653697Y19334967D01*
D10*
D11*
X15346303Y19582586D02*
X15408207Y19644491D01*
X15408207Y19644491D02*
X15532017Y19706396D01*
X15532017Y19706396D02*
X15841541Y19706396D01*
X15841541Y19706396D02*
X15965350Y19644491D01*
X15965350Y19644491D02*
X16027255Y19582586D01*
X16027255Y19582586D02*
X16089160Y19458777D01*
X16089160Y19458777D02*
X16089160Y19334967D01*
X16089160Y19334967D02*
X16027255Y19149253D01*
X16027255Y19149253D02*
X15284398Y18406396D01*
X15284398Y18406396D02*
X16089160Y18406396D01*
D10*
D11*
X65284398Y19706396D02*
X66089160Y19706396D01*
X66089160Y19706396D02*
X65655826Y19211158D01*
X65655826Y19211158D02*
X65841541Y19211158D01*
X65841541Y19211158D02*
X65965350Y19149253D01*
X65965350Y19149253D02*
X66027255Y19087348D01*
X66027255Y19087348D02*
X66089160Y18963539D01*
X66089160Y18963539D02*
X66089160Y18654015D01*
X66089160Y18654015D02*
X66027255Y18530205D01*
X66027255Y18530205D02*
X65965350Y18468300D01*
X65965350Y18468300D02*
X65841541Y18406396D01*
X65841541Y18406396D02*
X65470112Y18406396D01*
X65470112Y18406396D02*
X65346303Y18468300D01*
X65346303Y18468300D02*
X65284398Y18530205D01*
D10*
D11*
X115965350Y19273062D02*
X115965350Y18406396D01*
X115655826Y19768300D02*
X115346303Y18839729D01*
X115346303Y18839729D02*
X116151064Y18839729D01*
D10*
D11*
X166027255Y19706396D02*
X165408207Y19706396D01*
X165408207Y19706396D02*
X165346303Y19087348D01*
X165346303Y19087348D02*
X165408207Y19149253D01*
X165408207Y19149253D02*
X165532017Y19211158D01*
X165532017Y19211158D02*
X165841541Y19211158D01*
X165841541Y19211158D02*
X165965350Y19149253D01*
X165965350Y19149253D02*
X166027255Y19087348D01*
X166027255Y19087348D02*
X166089160Y18963539D01*
X166089160Y18963539D02*
X166089160Y18654015D01*
X166089160Y18654015D02*
X166027255Y18530205D01*
X166027255Y18530205D02*
X165965350Y18468300D01*
X165965350Y18468300D02*
X165841541Y18406396D01*
X165841541Y18406396D02*
X165532017Y18406396D01*
X165532017Y18406396D02*
X165408207Y18468300D01*
X165408207Y18468300D02*
X165346303Y18530205D01*
D10*
D11*
X-10000000Y-173900000D02*
X-10000000Y-175900000D01*
D10*
D11*
X40000000Y-173900000D02*
X40000000Y-175900000D01*
D10*
D11*
X90000000Y-173900000D02*
X90000000Y-175900000D01*
D10*
D11*
X140000000Y-173900000D02*
X140000000Y-175900000D01*
D10*
D11*
X190000000Y-173900000D02*
X190000000Y-175900000D01*
D10*
D11*
X-33910840Y-175493604D02*
X-34653697Y-175493604D01*
X-34282269Y-175493604D02*
X-34282269Y-174193604D01*
X-34282269Y-174193604D02*
X-34406078Y-174379319D01*
X-34406078Y-174379319D02*
X-34529888Y-174503128D01*
X-34529888Y-174503128D02*
X-34653697Y-174565033D01*
D10*
D11*
X15346303Y-174317414D02*
X15408207Y-174255509D01*
X15408207Y-174255509D02*
X15532017Y-174193604D01*
X15532017Y-174193604D02*
X15841541Y-174193604D01*
X15841541Y-174193604D02*
X15965350Y-174255509D01*
X15965350Y-174255509D02*
X16027255Y-174317414D01*
X16027255Y-174317414D02*
X16089160Y-174441223D01*
X16089160Y-174441223D02*
X16089160Y-174565033D01*
X16089160Y-174565033D02*
X16027255Y-174750747D01*
X16027255Y-174750747D02*
X15284398Y-175493604D01*
X15284398Y-175493604D02*
X16089160Y-175493604D01*
D10*
D11*
X65284398Y-174193604D02*
X66089160Y-174193604D01*
X66089160Y-174193604D02*
X65655826Y-174688842D01*
X65655826Y-174688842D02*
X65841541Y-174688842D01*
X65841541Y-174688842D02*
X65965350Y-174750747D01*
X65965350Y-174750747D02*
X66027255Y-174812652D01*
X66027255Y-174812652D02*
X66089160Y-174936461D01*
X66089160Y-174936461D02*
X66089160Y-175245985D01*
X66089160Y-175245985D02*
X66027255Y-175369795D01*
X66027255Y-175369795D02*
X65965350Y-175431700D01*
X65965350Y-175431700D02*
X65841541Y-175493604D01*
X65841541Y-175493604D02*
X65470112Y-175493604D01*
X65470112Y-175493604D02*
X65346303Y-175431700D01*
X65346303Y-175431700D02*
X65284398Y-175369795D01*
D10*
D11*
X115965350Y-174626938D02*
X115965350Y-175493604D01*
X115655826Y-174131700D02*
X115346303Y-175060271D01*
X115346303Y-175060271D02*
X116151064Y-175060271D01*
D10*
D11*
X166027255Y-174193604D02*
X165408207Y-174193604D01*
X165408207Y-174193604D02*
X165346303Y-174812652D01*
X165346303Y-174812652D02*
X165408207Y-174750747D01*
X165408207Y-174750747D02*
X165532017Y-174688842D01*
X165532017Y-174688842D02*
X165841541Y-174688842D01*
X165841541Y-174688842D02*
X165965350Y-174750747D01*
X165965350Y-174750747D02*
X166027255Y-174812652D01*
X166027255Y-174812652D02*
X166089160Y-174936461D01*
X166089160Y-174936461D02*
X166089160Y-175245985D01*
X166089160Y-175245985D02*
X166027255Y-175369795D01*
X166027255Y-175369795D02*
X165965350Y-175431700D01*
X165965350Y-175431700D02*
X165841541Y-175493604D01*
X165841541Y-175493604D02*
X165532017Y-175493604D01*
X165532017Y-175493604D02*
X165408207Y-175431700D01*
X165408207Y-175431700D02*
X165346303Y-175369795D01*
D10*
D11*
X-60000000Y-30000000D02*
X-58000000Y-30000000D01*
D10*
D11*
X-60000000Y-80000000D02*
X-58000000Y-80000000D01*
D10*
D11*
X-60000000Y-130000000D02*
X-58000000Y-130000000D01*
D10*
D11*
X-59309524Y-5222176D02*
X-58690477Y-5222176D01*
X-59433334Y-5593604D02*
X-59000001Y-4293604D01*
X-59000001Y-4293604D02*
X-58566667Y-5593604D01*
D10*
D11*
X-58907143Y-54912652D02*
X-58721429Y-54974557D01*
X-58721429Y-54974557D02*
X-58659524Y-55036461D01*
X-58659524Y-55036461D02*
X-58597620Y-55160271D01*
X-58597620Y-55160271D02*
X-58597620Y-55345985D01*
X-58597620Y-55345985D02*
X-58659524Y-55469795D01*
X-58659524Y-55469795D02*
X-58721429Y-55531700D01*
X-58721429Y-55531700D02*
X-58845239Y-55593604D01*
X-58845239Y-55593604D02*
X-59340477Y-55593604D01*
X-59340477Y-55593604D02*
X-59340477Y-54293604D01*
X-59340477Y-54293604D02*
X-58907143Y-54293604D01*
X-58907143Y-54293604D02*
X-58783334Y-54355509D01*
X-58783334Y-54355509D02*
X-58721429Y-54417414D01*
X-58721429Y-54417414D02*
X-58659524Y-54541223D01*
X-58659524Y-54541223D02*
X-58659524Y-54665033D01*
X-58659524Y-54665033D02*
X-58721429Y-54788842D01*
X-58721429Y-54788842D02*
X-58783334Y-54850747D01*
X-58783334Y-54850747D02*
X-58907143Y-54912652D01*
X-58907143Y-54912652D02*
X-59340477Y-54912652D01*
D10*
D11*
X-58597620Y-105469795D02*
X-58659524Y-105531700D01*
X-58659524Y-105531700D02*
X-58845239Y-105593604D01*
X-58845239Y-105593604D02*
X-58969048Y-105593604D01*
X-58969048Y-105593604D02*
X-59154762Y-105531700D01*
X-59154762Y-105531700D02*
X-59278572Y-105407890D01*
X-59278572Y-105407890D02*
X-59340477Y-105284080D01*
X-59340477Y-105284080D02*
X-59402381Y-105036461D01*
X-59402381Y-105036461D02*
X-59402381Y-104850747D01*
X-59402381Y-104850747D02*
X-59340477Y-104603128D01*
X-59340477Y-104603128D02*
X-59278572Y-104479319D01*
X-59278572Y-104479319D02*
X-59154762Y-104355509D01*
X-59154762Y-104355509D02*
X-58969048Y-104293604D01*
X-58969048Y-104293604D02*
X-58845239Y-104293604D01*
X-58845239Y-104293604D02*
X-58659524Y-104355509D01*
X-58659524Y-104355509D02*
X-58597620Y-104417414D01*
D10*
D11*
X-59340477Y-155593604D02*
X-59340477Y-154293604D01*
X-59340477Y-154293604D02*
X-59030953Y-154293604D01*
X-59030953Y-154293604D02*
X-58845239Y-154355509D01*
X-58845239Y-154355509D02*
X-58721429Y-154479319D01*
X-58721429Y-154479319D02*
X-58659524Y-154603128D01*
X-58659524Y-154603128D02*
X-58597620Y-154850747D01*
X-58597620Y-154850747D02*
X-58597620Y-155036461D01*
X-58597620Y-155036461D02*
X-58659524Y-155284080D01*
X-58659524Y-155284080D02*
X-58721429Y-155407890D01*
X-58721429Y-155407890D02*
X-58845239Y-155531700D01*
X-58845239Y-155531700D02*
X-59030953Y-155593604D01*
X-59030953Y-155593604D02*
X-59340477Y-155593604D01*
D10*
D11*
X199400000Y-30000000D02*
X197400000Y-30000000D01*
D10*
D11*
X199400000Y-80000000D02*
X197400000Y-80000000D01*
D10*
D11*
X199400000Y-130000000D02*
X197400000Y-130000000D01*
D10*
D11*
X198090476Y-5222176D02*
X198709523Y-5222176D01*
X197966666Y-5593604D02*
X198399999Y-4293604D01*
X198399999Y-4293604D02*
X198833333Y-5593604D01*
D10*
D11*
X198492857Y-54912652D02*
X198678571Y-54974557D01*
X198678571Y-54974557D02*
X198740476Y-55036461D01*
X198740476Y-55036461D02*
X198802380Y-55160271D01*
X198802380Y-55160271D02*
X198802380Y-55345985D01*
X198802380Y-55345985D02*
X198740476Y-55469795D01*
X198740476Y-55469795D02*
X198678571Y-55531700D01*
X198678571Y-55531700D02*
X198554761Y-55593604D01*
X198554761Y-55593604D02*
X198059523Y-55593604D01*
X198059523Y-55593604D02*
X198059523Y-54293604D01*
X198059523Y-54293604D02*
X198492857Y-54293604D01*
X198492857Y-54293604D02*
X198616666Y-54355509D01*
X198616666Y-54355509D02*
X198678571Y-54417414D01*
X198678571Y-54417414D02*
X198740476Y-54541223D01*
X198740476Y-54541223D02*
X198740476Y-54665033D01*
X198740476Y-54665033D02*
X198678571Y-54788842D01*
X198678571Y-54788842D02*
X198616666Y-54850747D01*
X198616666Y-54850747D02*
X198492857Y-54912652D01*
X198492857Y-54912652D02*
X198059523Y-54912652D01*
D10*
D11*
X198802380Y-105469795D02*
X198740476Y-105531700D01*
X198740476Y-105531700D02*
X198554761Y-105593604D01*
X198554761Y-105593604D02*
X198430952Y-105593604D01*
X198430952Y-105593604D02*
X198245238Y-105531700D01*
X198245238Y-105531700D02*
X198121428Y-105407890D01*
X198121428Y-105407890D02*
X198059523Y-105284080D01*
X198059523Y-105284080D02*
X197997619Y-105036461D01*
X197997619Y-105036461D02*
X197997619Y-104850747D01*
X197997619Y-104850747D02*
X198059523Y-104603128D01*
X198059523Y-104603128D02*
X198121428Y-104479319D01*
X198121428Y-104479319D02*
X198245238Y-104355509D01*
X198245238Y-104355509D02*
X198430952Y-104293604D01*
X198430952Y-104293604D02*
X198554761Y-104293604D01*
X198554761Y-104293604D02*
X198740476Y-104355509D01*
X198740476Y-104355509D02*
X198802380Y-104417414D01*
D10*
D11*
X198059523Y-155593604D02*
X198059523Y-154293604D01*
X198059523Y-154293604D02*
X198369047Y-154293604D01*
X198369047Y-154293604D02*
X198554761Y-154355509D01*
X198554761Y-154355509D02*
X198678571Y-154479319D01*
X198678571Y-154479319D02*
X198740476Y-154603128D01*
X198740476Y-154603128D02*
X198802380Y-154850747D01*
X198802380Y-154850747D02*
X198802380Y-155036461D01*
X198802380Y-155036461D02*
X198740476Y-155284080D01*
X198740476Y-155284080D02*
X198678571Y-155407890D01*
X198678571Y-155407890D02*
X198554761Y-155531700D01*
X198554761Y-155531700D02*
X198369047Y-155593604D01*
X198369047Y-155593604D02*
X198059523Y-155593604D01*
D10*
D11*
X112855826Y-169686128D02*
X112855826Y-168186128D01*
X112855826Y-168186128D02*
X113212969Y-168186128D01*
X113212969Y-168186128D02*
X113427255Y-168257557D01*
X113427255Y-168257557D02*
X113570112Y-168400414D01*
X113570112Y-168400414D02*
X113641541Y-168543271D01*
X113641541Y-168543271D02*
X113712969Y-168828985D01*
X113712969Y-168828985D02*
X113712969Y-169043271D01*
X113712969Y-169043271D02*
X113641541Y-169328985D01*
X113641541Y-169328985D02*
X113570112Y-169471842D01*
X113570112Y-169471842D02*
X113427255Y-169614700D01*
X113427255Y-169614700D02*
X113212969Y-169686128D01*
X113212969Y-169686128D02*
X112855826Y-169686128D01*
X114998684Y-169686128D02*
X114998684Y-168900414D01*
X114998684Y-168900414D02*
X114927255Y-168757557D01*
X114927255Y-168757557D02*
X114784398Y-168686128D01*
X114784398Y-168686128D02*
X114498684Y-168686128D01*
X114498684Y-168686128D02*
X114355826Y-168757557D01*
X114998684Y-169614700D02*
X114855826Y-169686128D01*
X114855826Y-169686128D02*
X114498684Y-169686128D01*
X114498684Y-169686128D02*
X114355826Y-169614700D01*
X114355826Y-169614700D02*
X114284398Y-169471842D01*
X114284398Y-169471842D02*
X114284398Y-169328985D01*
X114284398Y-169328985D02*
X114355826Y-169186128D01*
X114355826Y-169186128D02*
X114498684Y-169114700D01*
X114498684Y-169114700D02*
X114855826Y-169114700D01*
X114855826Y-169114700D02*
X114998684Y-169043271D01*
X115498684Y-168686128D02*
X116070112Y-168686128D01*
X115712969Y-168186128D02*
X115712969Y-169471842D01*
X115712969Y-169471842D02*
X115784398Y-169614700D01*
X115784398Y-169614700D02*
X115927255Y-169686128D01*
X115927255Y-169686128D02*
X116070112Y-169686128D01*
X117141541Y-169614700D02*
X116998684Y-169686128D01*
X116998684Y-169686128D02*
X116712970Y-169686128D01*
X116712970Y-169686128D02*
X116570112Y-169614700D01*
X116570112Y-169614700D02*
X116498684Y-169471842D01*
X116498684Y-169471842D02*
X116498684Y-168900414D01*
X116498684Y-168900414D02*
X116570112Y-168757557D01*
X116570112Y-168757557D02*
X116712970Y-168686128D01*
X116712970Y-168686128D02*
X116998684Y-168686128D01*
X116998684Y-168686128D02*
X117141541Y-168757557D01*
X117141541Y-168757557D02*
X117212970Y-168900414D01*
X117212970Y-168900414D02*
X117212970Y-169043271D01*
X117212970Y-169043271D02*
X116498684Y-169186128D01*
X117855826Y-169543271D02*
X117927255Y-169614700D01*
X117927255Y-169614700D02*
X117855826Y-169686128D01*
X117855826Y-169686128D02*
X117784398Y-169614700D01*
X117784398Y-169614700D02*
X117855826Y-169543271D01*
X117855826Y-169543271D02*
X117855826Y-169686128D01*
X117855826Y-168757557D02*
X117927255Y-168828985D01*
X117927255Y-168828985D02*
X117855826Y-168900414D01*
X117855826Y-168900414D02*
X117784398Y-168828985D01*
X117784398Y-168828985D02*
X117855826Y-168757557D01*
X117855826Y-168757557D02*
X117855826Y-168900414D01*
X119641541Y-168328985D02*
X119712969Y-168257557D01*
X119712969Y-168257557D02*
X119855827Y-168186128D01*
X119855827Y-168186128D02*
X120212969Y-168186128D01*
X120212969Y-168186128D02*
X120355827Y-168257557D01*
X120355827Y-168257557D02*
X120427255Y-168328985D01*
X120427255Y-168328985D02*
X120498684Y-168471842D01*
X120498684Y-168471842D02*
X120498684Y-168614700D01*
X120498684Y-168614700D02*
X120427255Y-168828985D01*
X120427255Y-168828985D02*
X119570112Y-169686128D01*
X119570112Y-169686128D02*
X120498684Y-169686128D01*
X121427255Y-168186128D02*
X121570112Y-168186128D01*
X121570112Y-168186128D02*
X121712969Y-168257557D01*
X121712969Y-168257557D02*
X121784398Y-168328985D01*
X121784398Y-168328985D02*
X121855826Y-168471842D01*
X121855826Y-168471842D02*
X121927255Y-168757557D01*
X121927255Y-168757557D02*
X121927255Y-169114700D01*
X121927255Y-169114700D02*
X121855826Y-169400414D01*
X121855826Y-169400414D02*
X121784398Y-169543271D01*
X121784398Y-169543271D02*
X121712969Y-169614700D01*
X121712969Y-169614700D02*
X121570112Y-169686128D01*
X121570112Y-169686128D02*
X121427255Y-169686128D01*
X121427255Y-169686128D02*
X121284398Y-169614700D01*
X121284398Y-169614700D02*
X121212969Y-169543271D01*
X121212969Y-169543271D02*
X121141540Y-169400414D01*
X121141540Y-169400414D02*
X121070112Y-169114700D01*
X121070112Y-169114700D02*
X121070112Y-168757557D01*
X121070112Y-168757557D02*
X121141540Y-168471842D01*
X121141540Y-168471842D02*
X121212969Y-168328985D01*
X121212969Y-168328985D02*
X121284398Y-168257557D01*
X121284398Y-168257557D02*
X121427255Y-168186128D01*
X122498683Y-168328985D02*
X122570111Y-168257557D01*
X122570111Y-168257557D02*
X122712969Y-168186128D01*
X122712969Y-168186128D02*
X123070111Y-168186128D01*
X123070111Y-168186128D02*
X123212969Y-168257557D01*
X123212969Y-168257557D02*
X123284397Y-168328985D01*
X123284397Y-168328985D02*
X123355826Y-168471842D01*
X123355826Y-168471842D02*
X123355826Y-168614700D01*
X123355826Y-168614700D02*
X123284397Y-168828985D01*
X123284397Y-168828985D02*
X122427254Y-169686128D01*
X122427254Y-169686128D02*
X123355826Y-169686128D01*
X124641540Y-168686128D02*
X124641540Y-169686128D01*
X124284397Y-168114700D02*
X123927254Y-169186128D01*
X123927254Y-169186128D02*
X124855825Y-169186128D01*
X125427253Y-169114700D02*
X126570111Y-169114700D01*
X127570111Y-168186128D02*
X127712968Y-168186128D01*
X127712968Y-168186128D02*
X127855825Y-168257557D01*
X127855825Y-168257557D02*
X127927254Y-168328985D01*
X127927254Y-168328985D02*
X127998682Y-168471842D01*
X127998682Y-168471842D02*
X128070111Y-168757557D01*
X128070111Y-168757557D02*
X128070111Y-169114700D01*
X128070111Y-169114700D02*
X127998682Y-169400414D01*
X127998682Y-169400414D02*
X127927254Y-169543271D01*
X127927254Y-169543271D02*
X127855825Y-169614700D01*
X127855825Y-169614700D02*
X127712968Y-169686128D01*
X127712968Y-169686128D02*
X127570111Y-169686128D01*
X127570111Y-169686128D02*
X127427254Y-169614700D01*
X127427254Y-169614700D02*
X127355825Y-169543271D01*
X127355825Y-169543271D02*
X127284396Y-169400414D01*
X127284396Y-169400414D02*
X127212968Y-169114700D01*
X127212968Y-169114700D02*
X127212968Y-168757557D01*
X127212968Y-168757557D02*
X127284396Y-168471842D01*
X127284396Y-168471842D02*
X127355825Y-168328985D01*
X127355825Y-168328985D02*
X127427254Y-168257557D01*
X127427254Y-168257557D02*
X127570111Y-168186128D01*
X128641539Y-168328985D02*
X128712967Y-168257557D01*
X128712967Y-168257557D02*
X128855825Y-168186128D01*
X128855825Y-168186128D02*
X129212967Y-168186128D01*
X129212967Y-168186128D02*
X129355825Y-168257557D01*
X129355825Y-168257557D02*
X129427253Y-168328985D01*
X129427253Y-168328985D02*
X129498682Y-168471842D01*
X129498682Y-168471842D02*
X129498682Y-168614700D01*
X129498682Y-168614700D02*
X129427253Y-168828985D01*
X129427253Y-168828985D02*
X128570110Y-169686128D01*
X128570110Y-169686128D02*
X129498682Y-169686128D01*
X130141538Y-169114700D02*
X131284396Y-169114700D01*
X131927253Y-168328985D02*
X131998681Y-168257557D01*
X131998681Y-168257557D02*
X132141539Y-168186128D01*
X132141539Y-168186128D02*
X132498681Y-168186128D01*
X132498681Y-168186128D02*
X132641539Y-168257557D01*
X132641539Y-168257557D02*
X132712967Y-168328985D01*
X132712967Y-168328985D02*
X132784396Y-168471842D01*
X132784396Y-168471842D02*
X132784396Y-168614700D01*
X132784396Y-168614700D02*
X132712967Y-168828985D01*
X132712967Y-168828985D02*
X131855824Y-169686128D01*
X131855824Y-169686128D02*
X132784396Y-169686128D01*
X133712967Y-168186128D02*
X133855824Y-168186128D01*
X133855824Y-168186128D02*
X133998681Y-168257557D01*
X133998681Y-168257557D02*
X134070110Y-168328985D01*
X134070110Y-168328985D02*
X134141538Y-168471842D01*
X134141538Y-168471842D02*
X134212967Y-168757557D01*
X134212967Y-168757557D02*
X134212967Y-169114700D01*
X134212967Y-169114700D02*
X134141538Y-169400414D01*
X134141538Y-169400414D02*
X134070110Y-169543271D01*
X134070110Y-169543271D02*
X133998681Y-169614700D01*
X133998681Y-169614700D02*
X133855824Y-169686128D01*
X133855824Y-169686128D02*
X133712967Y-169686128D01*
X133712967Y-169686128D02*
X133570110Y-169614700D01*
X133570110Y-169614700D02*
X133498681Y-169543271D01*
X133498681Y-169543271D02*
X133427252Y-169400414D01*
X133427252Y-169400414D02*
X133355824Y-169114700D01*
X133355824Y-169114700D02*
X133355824Y-168757557D01*
X133355824Y-168757557D02*
X133427252Y-168471842D01*
X133427252Y-168471842D02*
X133498681Y-168328985D01*
X133498681Y-168328985D02*
X133570110Y-168257557D01*
X133570110Y-168257557D02*
X133712967Y-168186128D01*
D10*
D11*
X89400000Y-170400000D02*
X197400000Y-170400000D01*
D10*
D11*
X90855826Y-172486128D02*
X90855826Y-170986128D01*
X91712969Y-172486128D02*
X91070112Y-171628985D01*
X91712969Y-170986128D02*
X90855826Y-171843271D01*
X92355826Y-172486128D02*
X92355826Y-171486128D01*
X92355826Y-170986128D02*
X92284398Y-171057557D01*
X92284398Y-171057557D02*
X92355826Y-171128985D01*
X92355826Y-171128985D02*
X92427255Y-171057557D01*
X92427255Y-171057557D02*
X92355826Y-170986128D01*
X92355826Y-170986128D02*
X92355826Y-171128985D01*
X93927255Y-172343271D02*
X93855827Y-172414700D01*
X93855827Y-172414700D02*
X93641541Y-172486128D01*
X93641541Y-172486128D02*
X93498684Y-172486128D01*
X93498684Y-172486128D02*
X93284398Y-172414700D01*
X93284398Y-172414700D02*
X93141541Y-172271842D01*
X93141541Y-172271842D02*
X93070112Y-172128985D01*
X93070112Y-172128985D02*
X92998684Y-171843271D01*
X92998684Y-171843271D02*
X92998684Y-171628985D01*
X92998684Y-171628985D02*
X93070112Y-171343271D01*
X93070112Y-171343271D02*
X93141541Y-171200414D01*
X93141541Y-171200414D02*
X93284398Y-171057557D01*
X93284398Y-171057557D02*
X93498684Y-170986128D01*
X93498684Y-170986128D02*
X93641541Y-170986128D01*
X93641541Y-170986128D02*
X93855827Y-171057557D01*
X93855827Y-171057557D02*
X93927255Y-171128985D01*
X95212970Y-172486128D02*
X95212970Y-171700414D01*
X95212970Y-171700414D02*
X95141541Y-171557557D01*
X95141541Y-171557557D02*
X94998684Y-171486128D01*
X94998684Y-171486128D02*
X94712970Y-171486128D01*
X94712970Y-171486128D02*
X94570112Y-171557557D01*
X95212970Y-172414700D02*
X95070112Y-172486128D01*
X95070112Y-172486128D02*
X94712970Y-172486128D01*
X94712970Y-172486128D02*
X94570112Y-172414700D01*
X94570112Y-172414700D02*
X94498684Y-172271842D01*
X94498684Y-172271842D02*
X94498684Y-172128985D01*
X94498684Y-172128985D02*
X94570112Y-171986128D01*
X94570112Y-171986128D02*
X94712970Y-171914700D01*
X94712970Y-171914700D02*
X95070112Y-171914700D01*
X95070112Y-171914700D02*
X95212970Y-171843271D01*
X96570113Y-172486128D02*
X96570113Y-170986128D01*
X96570113Y-172414700D02*
X96427255Y-172486128D01*
X96427255Y-172486128D02*
X96141541Y-172486128D01*
X96141541Y-172486128D02*
X95998684Y-172414700D01*
X95998684Y-172414700D02*
X95927255Y-172343271D01*
X95927255Y-172343271D02*
X95855827Y-172200414D01*
X95855827Y-172200414D02*
X95855827Y-171771842D01*
X95855827Y-171771842D02*
X95927255Y-171628985D01*
X95927255Y-171628985D02*
X95998684Y-171557557D01*
X95998684Y-171557557D02*
X96141541Y-171486128D01*
X96141541Y-171486128D02*
X96427255Y-171486128D01*
X96427255Y-171486128D02*
X96570113Y-171557557D01*
X98427255Y-171700414D02*
X98927255Y-171700414D01*
X99141541Y-172486128D02*
X98427255Y-172486128D01*
X98427255Y-172486128D02*
X98427255Y-170986128D01*
X98427255Y-170986128D02*
X99141541Y-170986128D01*
X99784398Y-172343271D02*
X99855827Y-172414700D01*
X99855827Y-172414700D02*
X99784398Y-172486128D01*
X99784398Y-172486128D02*
X99712970Y-172414700D01*
X99712970Y-172414700D02*
X99784398Y-172343271D01*
X99784398Y-172343271D02*
X99784398Y-172486128D01*
X100498684Y-172486128D02*
X100498684Y-170986128D01*
X100498684Y-170986128D02*
X100855827Y-170986128D01*
X100855827Y-170986128D02*
X101070113Y-171057557D01*
X101070113Y-171057557D02*
X101212970Y-171200414D01*
X101212970Y-171200414D02*
X101284399Y-171343271D01*
X101284399Y-171343271D02*
X101355827Y-171628985D01*
X101355827Y-171628985D02*
X101355827Y-171843271D01*
X101355827Y-171843271D02*
X101284399Y-172128985D01*
X101284399Y-172128985D02*
X101212970Y-172271842D01*
X101212970Y-172271842D02*
X101070113Y-172414700D01*
X101070113Y-172414700D02*
X100855827Y-172486128D01*
X100855827Y-172486128D02*
X100498684Y-172486128D01*
X101998684Y-172343271D02*
X102070113Y-172414700D01*
X102070113Y-172414700D02*
X101998684Y-172486128D01*
X101998684Y-172486128D02*
X101927256Y-172414700D01*
X101927256Y-172414700D02*
X101998684Y-172343271D01*
X101998684Y-172343271D02*
X101998684Y-172486128D01*
X102641542Y-172057557D02*
X103355828Y-172057557D01*
X102498685Y-172486128D02*
X102998685Y-170986128D01*
X102998685Y-170986128D02*
X103498685Y-172486128D01*
X103998684Y-172343271D02*
X104070113Y-172414700D01*
X104070113Y-172414700D02*
X103998684Y-172486128D01*
X103998684Y-172486128D02*
X103927256Y-172414700D01*
X103927256Y-172414700D02*
X103998684Y-172343271D01*
X103998684Y-172343271D02*
X103998684Y-172486128D01*
X106998684Y-172486128D02*
X106998684Y-170986128D01*
X107141542Y-171914700D02*
X107570113Y-172486128D01*
X107570113Y-171486128D02*
X106998684Y-172057557D01*
X108212970Y-172486128D02*
X108212970Y-171486128D01*
X108212970Y-170986128D02*
X108141542Y-171057557D01*
X108141542Y-171057557D02*
X108212970Y-171128985D01*
X108212970Y-171128985D02*
X108284399Y-171057557D01*
X108284399Y-171057557D02*
X108212970Y-170986128D01*
X108212970Y-170986128D02*
X108212970Y-171128985D01*
X109570114Y-172414700D02*
X109427256Y-172486128D01*
X109427256Y-172486128D02*
X109141542Y-172486128D01*
X109141542Y-172486128D02*
X108998685Y-172414700D01*
X108998685Y-172414700D02*
X108927256Y-172343271D01*
X108927256Y-172343271D02*
X108855828Y-172200414D01*
X108855828Y-172200414D02*
X108855828Y-171771842D01*
X108855828Y-171771842D02*
X108927256Y-171628985D01*
X108927256Y-171628985D02*
X108998685Y-171557557D01*
X108998685Y-171557557D02*
X109141542Y-171486128D01*
X109141542Y-171486128D02*
X109427256Y-171486128D01*
X109427256Y-171486128D02*
X109570114Y-171557557D01*
X110855828Y-172486128D02*
X110855828Y-171700414D01*
X110855828Y-171700414D02*
X110784399Y-171557557D01*
X110784399Y-171557557D02*
X110641542Y-171486128D01*
X110641542Y-171486128D02*
X110355828Y-171486128D01*
X110355828Y-171486128D02*
X110212970Y-171557557D01*
X110855828Y-172414700D02*
X110712970Y-172486128D01*
X110712970Y-172486128D02*
X110355828Y-172486128D01*
X110355828Y-172486128D02*
X110212970Y-172414700D01*
X110212970Y-172414700D02*
X110141542Y-172271842D01*
X110141542Y-172271842D02*
X110141542Y-172128985D01*
X110141542Y-172128985D02*
X110212970Y-171986128D01*
X110212970Y-171986128D02*
X110355828Y-171914700D01*
X110355828Y-171914700D02*
X110712970Y-171914700D01*
X110712970Y-171914700D02*
X110855828Y-171843271D01*
X112212971Y-172486128D02*
X112212971Y-170986128D01*
X112212971Y-172414700D02*
X112070113Y-172486128D01*
X112070113Y-172486128D02*
X111784399Y-172486128D01*
X111784399Y-172486128D02*
X111641542Y-172414700D01*
X111641542Y-172414700D02*
X111570113Y-172343271D01*
X111570113Y-172343271D02*
X111498685Y-172200414D01*
X111498685Y-172200414D02*
X111498685Y-171771842D01*
X111498685Y-171771842D02*
X111570113Y-171628985D01*
X111570113Y-171628985D02*
X111641542Y-171557557D01*
X111641542Y-171557557D02*
X111784399Y-171486128D01*
X111784399Y-171486128D02*
X112070113Y-171486128D01*
X112070113Y-171486128D02*
X112212971Y-171557557D01*
X113927256Y-170986128D02*
X114927256Y-170986128D01*
X114927256Y-170986128D02*
X114284399Y-172486128D01*
X115498684Y-172343271D02*
X115570113Y-172414700D01*
X115570113Y-172414700D02*
X115498684Y-172486128D01*
X115498684Y-172486128D02*
X115427256Y-172414700D01*
X115427256Y-172414700D02*
X115498684Y-172343271D01*
X115498684Y-172343271D02*
X115498684Y-172486128D01*
X116498685Y-170986128D02*
X116641542Y-170986128D01*
X116641542Y-170986128D02*
X116784399Y-171057557D01*
X116784399Y-171057557D02*
X116855828Y-171128985D01*
X116855828Y-171128985D02*
X116927256Y-171271842D01*
X116927256Y-171271842D02*
X116998685Y-171557557D01*
X116998685Y-171557557D02*
X116998685Y-171914700D01*
X116998685Y-171914700D02*
X116927256Y-172200414D01*
X116927256Y-172200414D02*
X116855828Y-172343271D01*
X116855828Y-172343271D02*
X116784399Y-172414700D01*
X116784399Y-172414700D02*
X116641542Y-172486128D01*
X116641542Y-172486128D02*
X116498685Y-172486128D01*
X116498685Y-172486128D02*
X116355828Y-172414700D01*
X116355828Y-172414700D02*
X116284399Y-172343271D01*
X116284399Y-172343271D02*
X116212970Y-172200414D01*
X116212970Y-172200414D02*
X116141542Y-171914700D01*
X116141542Y-171914700D02*
X116141542Y-171557557D01*
X116141542Y-171557557D02*
X116212970Y-171271842D01*
X116212970Y-171271842D02*
X116284399Y-171128985D01*
X116284399Y-171128985D02*
X116355828Y-171057557D01*
X116355828Y-171057557D02*
X116498685Y-170986128D01*
X117641541Y-172343271D02*
X117712970Y-172414700D01*
X117712970Y-172414700D02*
X117641541Y-172486128D01*
X117641541Y-172486128D02*
X117570113Y-172414700D01*
X117570113Y-172414700D02*
X117641541Y-172343271D01*
X117641541Y-172343271D02*
X117641541Y-172486128D01*
X118212970Y-170986128D02*
X119212970Y-170986128D01*
X119212970Y-170986128D02*
X118570113Y-172486128D01*
D10*
D11*
X89400000Y-167400000D02*
X197400000Y-167400000D01*
D10*
D12*
X176811653Y-169678328D02*
X176311653Y-168964042D01*
X175954510Y-169678328D02*
X175954510Y-168178328D01*
X175954510Y-168178328D02*
X176525939Y-168178328D01*
X176525939Y-168178328D02*
X176668796Y-168249757D01*
X176668796Y-168249757D02*
X176740225Y-168321185D01*
X176740225Y-168321185D02*
X176811653Y-168464042D01*
X176811653Y-168464042D02*
X176811653Y-168678328D01*
X176811653Y-168678328D02*
X176740225Y-168821185D01*
X176740225Y-168821185D02*
X176668796Y-168892614D01*
X176668796Y-168892614D02*
X176525939Y-168964042D01*
X176525939Y-168964042D02*
X175954510Y-168964042D01*
X178025939Y-169606900D02*
X177883082Y-169678328D01*
X177883082Y-169678328D02*
X177597368Y-169678328D01*
X177597368Y-169678328D02*
X177454510Y-169606900D01*
X177454510Y-169606900D02*
X177383082Y-169464042D01*
X177383082Y-169464042D02*
X177383082Y-168892614D01*
X177383082Y-168892614D02*
X177454510Y-168749757D01*
X177454510Y-168749757D02*
X177597368Y-168678328D01*
X177597368Y-168678328D02*
X177883082Y-168678328D01*
X177883082Y-168678328D02*
X178025939Y-168749757D01*
X178025939Y-168749757D02*
X178097368Y-168892614D01*
X178097368Y-168892614D02*
X178097368Y-169035471D01*
X178097368Y-169035471D02*
X177383082Y-169178328D01*
X178597367Y-168678328D02*
X178954510Y-169678328D01*
X178954510Y-169678328D02*
X179311653Y-168678328D01*
X179883081Y-169535471D02*
X179954510Y-169606900D01*
X179954510Y-169606900D02*
X179883081Y-169678328D01*
X179883081Y-169678328D02*
X179811653Y-169606900D01*
X179811653Y-169606900D02*
X179883081Y-169535471D01*
X179883081Y-169535471D02*
X179883081Y-169678328D01*
X179883081Y-168749757D02*
X179954510Y-168821185D01*
X179954510Y-168821185D02*
X179883081Y-168892614D01*
X179883081Y-168892614D02*
X179811653Y-168821185D01*
X179811653Y-168821185D02*
X179883081Y-168749757D01*
X179883081Y-168749757D02*
X179883081Y-168892614D01*
X181668796Y-169249757D02*
X182383082Y-169249757D01*
X181525939Y-169678328D02*
X182025939Y-168178328D01*
X182025939Y-168178328D02*
X182525939Y-169678328D01*
D10*
D11*
X90784398Y-169614700D02*
X90998684Y-169686128D01*
X90998684Y-169686128D02*
X91355826Y-169686128D01*
X91355826Y-169686128D02*
X91498684Y-169614700D01*
X91498684Y-169614700D02*
X91570112Y-169543271D01*
X91570112Y-169543271D02*
X91641541Y-169400414D01*
X91641541Y-169400414D02*
X91641541Y-169257557D01*
X91641541Y-169257557D02*
X91570112Y-169114700D01*
X91570112Y-169114700D02*
X91498684Y-169043271D01*
X91498684Y-169043271D02*
X91355826Y-168971842D01*
X91355826Y-168971842D02*
X91070112Y-168900414D01*
X91070112Y-168900414D02*
X90927255Y-168828985D01*
X90927255Y-168828985D02*
X90855826Y-168757557D01*
X90855826Y-168757557D02*
X90784398Y-168614700D01*
X90784398Y-168614700D02*
X90784398Y-168471842D01*
X90784398Y-168471842D02*
X90855826Y-168328985D01*
X90855826Y-168328985D02*
X90927255Y-168257557D01*
X90927255Y-168257557D02*
X91070112Y-168186128D01*
X91070112Y-168186128D02*
X91427255Y-168186128D01*
X91427255Y-168186128D02*
X91641541Y-168257557D01*
X92284397Y-169686128D02*
X92284397Y-168686128D01*
X92284397Y-168186128D02*
X92212969Y-168257557D01*
X92212969Y-168257557D02*
X92284397Y-168328985D01*
X92284397Y-168328985D02*
X92355826Y-168257557D01*
X92355826Y-168257557D02*
X92284397Y-168186128D01*
X92284397Y-168186128D02*
X92284397Y-168328985D01*
X92855826Y-168686128D02*
X93641541Y-168686128D01*
X93641541Y-168686128D02*
X92855826Y-169686128D01*
X92855826Y-169686128D02*
X93641541Y-169686128D01*
X94784398Y-169614700D02*
X94641541Y-169686128D01*
X94641541Y-169686128D02*
X94355827Y-169686128D01*
X94355827Y-169686128D02*
X94212969Y-169614700D01*
X94212969Y-169614700D02*
X94141541Y-169471842D01*
X94141541Y-169471842D02*
X94141541Y-168900414D01*
X94141541Y-168900414D02*
X94212969Y-168757557D01*
X94212969Y-168757557D02*
X94355827Y-168686128D01*
X94355827Y-168686128D02*
X94641541Y-168686128D01*
X94641541Y-168686128D02*
X94784398Y-168757557D01*
X94784398Y-168757557D02*
X94855827Y-168900414D01*
X94855827Y-168900414D02*
X94855827Y-169043271D01*
X94855827Y-169043271D02*
X94141541Y-169186128D01*
X95498683Y-169543271D02*
X95570112Y-169614700D01*
X95570112Y-169614700D02*
X95498683Y-169686128D01*
X95498683Y-169686128D02*
X95427255Y-169614700D01*
X95427255Y-169614700D02*
X95498683Y-169543271D01*
X95498683Y-169543271D02*
X95498683Y-169686128D01*
X95498683Y-168757557D02*
X95570112Y-168828985D01*
X95570112Y-168828985D02*
X95498683Y-168900414D01*
X95498683Y-168900414D02*
X95427255Y-168828985D01*
X95427255Y-168828985D02*
X95498683Y-168757557D01*
X95498683Y-168757557D02*
X95498683Y-168900414D01*
X97284398Y-169257557D02*
X97998684Y-169257557D01*
X97141541Y-169686128D02*
X97641541Y-168186128D01*
X97641541Y-168186128D02*
X98141541Y-169686128D01*
D10*
D11*
X175855826Y-172486128D02*
X175855826Y-170986128D01*
X177212970Y-172486128D02*
X177212970Y-170986128D01*
X177212970Y-172414700D02*
X177070112Y-172486128D01*
X177070112Y-172486128D02*
X176784398Y-172486128D01*
X176784398Y-172486128D02*
X176641541Y-172414700D01*
X176641541Y-172414700D02*
X176570112Y-172343271D01*
X176570112Y-172343271D02*
X176498684Y-172200414D01*
X176498684Y-172200414D02*
X176498684Y-171771842D01*
X176498684Y-171771842D02*
X176570112Y-171628985D01*
X176570112Y-171628985D02*
X176641541Y-171557557D01*
X176641541Y-171557557D02*
X176784398Y-171486128D01*
X176784398Y-171486128D02*
X177070112Y-171486128D01*
X177070112Y-171486128D02*
X177212970Y-171557557D01*
X177927255Y-172343271D02*
X177998684Y-172414700D01*
X177998684Y-172414700D02*
X177927255Y-172486128D01*
X177927255Y-172486128D02*
X177855827Y-172414700D01*
X177855827Y-172414700D02*
X177927255Y-172343271D01*
X177927255Y-172343271D02*
X177927255Y-172486128D01*
X177927255Y-171557557D02*
X177998684Y-171628985D01*
X177998684Y-171628985D02*
X177927255Y-171700414D01*
X177927255Y-171700414D02*
X177855827Y-171628985D01*
X177855827Y-171628985D02*
X177927255Y-171557557D01*
X177927255Y-171557557D02*
X177927255Y-171700414D01*
X180570113Y-172486128D02*
X179712970Y-172486128D01*
X180141541Y-172486128D02*
X180141541Y-170986128D01*
X180141541Y-170986128D02*
X179998684Y-171200414D01*
X179998684Y-171200414D02*
X179855827Y-171343271D01*
X179855827Y-171343271D02*
X179712970Y-171414700D01*
X182284398Y-170914700D02*
X180998684Y-172843271D01*
X183570113Y-172486128D02*
X182712970Y-172486128D01*
X183141541Y-172486128D02*
X183141541Y-170986128D01*
X183141541Y-170986128D02*
X182998684Y-171200414D01*
X182998684Y-171200414D02*
X182855827Y-171343271D01*
X182855827Y-171343271D02*
X182712970Y-171414700D01*
D10*
D11*
X89400000Y-163400000D02*
X197400000Y-163400000D01*
D10*
D13*
X91091728Y-164104438D02*
X92234585Y-164104438D01*
X91413157Y-166104438D02*
X91663157Y-164104438D01*
X92651252Y-166104438D02*
X92817919Y-164771104D01*
X92901252Y-164104438D02*
X92794109Y-164199676D01*
X92794109Y-164199676D02*
X92877443Y-164294914D01*
X92877443Y-164294914D02*
X92984586Y-164199676D01*
X92984586Y-164199676D02*
X92901252Y-164104438D01*
X92901252Y-164104438D02*
X92877443Y-164294914D01*
X93484586Y-164771104D02*
X94246490Y-164771104D01*
X93853633Y-164104438D02*
X93639348Y-165818723D01*
X93639348Y-165818723D02*
X93710776Y-166009200D01*
X93710776Y-166009200D02*
X93889348Y-166104438D01*
X93889348Y-166104438D02*
X94079824Y-166104438D01*
X95032205Y-166104438D02*
X94853633Y-166009200D01*
X94853633Y-166009200D02*
X94782205Y-165818723D01*
X94782205Y-165818723D02*
X94996490Y-164104438D01*
X96567919Y-166009200D02*
X96365538Y-166104438D01*
X96365538Y-166104438D02*
X95984585Y-166104438D01*
X95984585Y-166104438D02*
X95806014Y-166009200D01*
X95806014Y-166009200D02*
X95734585Y-165818723D01*
X95734585Y-165818723D02*
X95829824Y-165056819D01*
X95829824Y-165056819D02*
X95948871Y-164866342D01*
X95948871Y-164866342D02*
X96151252Y-164771104D01*
X96151252Y-164771104D02*
X96532204Y-164771104D01*
X96532204Y-164771104D02*
X96710776Y-164866342D01*
X96710776Y-164866342D02*
X96782204Y-165056819D01*
X96782204Y-165056819D02*
X96758395Y-165247295D01*
X96758395Y-165247295D02*
X95782204Y-165437771D01*
X97532205Y-165913961D02*
X97615538Y-166009200D01*
X97615538Y-166009200D02*
X97508395Y-166104438D01*
X97508395Y-166104438D02*
X97425062Y-166009200D01*
X97425062Y-166009200D02*
X97532205Y-165913961D01*
X97532205Y-165913961D02*
X97508395Y-166104438D01*
X97663157Y-164866342D02*
X97746490Y-164961580D01*
X97746490Y-164961580D02*
X97639348Y-165056819D01*
X97639348Y-165056819D02*
X97556014Y-164961580D01*
X97556014Y-164961580D02*
X97663157Y-164866342D01*
X97663157Y-164866342D02*
X97639348Y-165056819D01*
X99984586Y-166104438D02*
X100234586Y-164104438D01*
X100115539Y-165056819D02*
X101258396Y-165056819D01*
X101127443Y-166104438D02*
X101377443Y-164104438D01*
X102877443Y-165056819D02*
X103151253Y-165152057D01*
X103151253Y-165152057D02*
X103234586Y-165247295D01*
X103234586Y-165247295D02*
X103306015Y-165437771D01*
X103306015Y-165437771D02*
X103270300Y-165723485D01*
X103270300Y-165723485D02*
X103151253Y-165913961D01*
X103151253Y-165913961D02*
X103044110Y-166009200D01*
X103044110Y-166009200D02*
X102841729Y-166104438D01*
X102841729Y-166104438D02*
X102079824Y-166104438D01*
X102079824Y-166104438D02*
X102329824Y-164104438D01*
X102329824Y-164104438D02*
X102996491Y-164104438D01*
X102996491Y-164104438D02*
X103175062Y-164199676D01*
X103175062Y-164199676D02*
X103258396Y-164294914D01*
X103258396Y-164294914D02*
X103329824Y-164485390D01*
X103329824Y-164485390D02*
X103306015Y-164675866D01*
X103306015Y-164675866D02*
X103186967Y-164866342D01*
X103186967Y-164866342D02*
X103079824Y-164961580D01*
X103079824Y-164961580D02*
X102877443Y-165056819D01*
X102877443Y-165056819D02*
X102210777Y-165056819D01*
X105127443Y-166104438D02*
X103984586Y-166104438D01*
X104556015Y-166104438D02*
X104806015Y-164104438D01*
X104806015Y-164104438D02*
X104579824Y-164390152D01*
X104579824Y-164390152D02*
X104365539Y-164580628D01*
X104365539Y-164580628D02*
X104163158Y-164675866D01*
X106615539Y-164104438D02*
X106806015Y-164104438D01*
X106806015Y-164104438D02*
X106984586Y-164199676D01*
X106984586Y-164199676D02*
X107067920Y-164294914D01*
X107067920Y-164294914D02*
X107139348Y-164485390D01*
X107139348Y-164485390D02*
X107186967Y-164866342D01*
X107186967Y-164866342D02*
X107127443Y-165342533D01*
X107127443Y-165342533D02*
X106984586Y-165723485D01*
X106984586Y-165723485D02*
X106865539Y-165913961D01*
X106865539Y-165913961D02*
X106758396Y-166009200D01*
X106758396Y-166009200D02*
X106556015Y-166104438D01*
X106556015Y-166104438D02*
X106365539Y-166104438D01*
X106365539Y-166104438D02*
X106186967Y-166009200D01*
X106186967Y-166009200D02*
X106103634Y-165913961D01*
X106103634Y-165913961D02*
X106032205Y-165723485D01*
X106032205Y-165723485D02*
X105984586Y-165342533D01*
X105984586Y-165342533D02*
X106044110Y-164866342D01*
X106044110Y-164866342D02*
X106186967Y-164485390D01*
X106186967Y-164485390D02*
X106306015Y-164294914D01*
X106306015Y-164294914D02*
X106413158Y-164199676D01*
X106413158Y-164199676D02*
X106615539Y-164104438D01*
X108520301Y-164104438D02*
X108710777Y-164104438D01*
X108710777Y-164104438D02*
X108889348Y-164199676D01*
X108889348Y-164199676D02*
X108972682Y-164294914D01*
X108972682Y-164294914D02*
X109044110Y-164485390D01*
X109044110Y-164485390D02*
X109091729Y-164866342D01*
X109091729Y-164866342D02*
X109032205Y-165342533D01*
X109032205Y-165342533D02*
X108889348Y-165723485D01*
X108889348Y-165723485D02*
X108770301Y-165913961D01*
X108770301Y-165913961D02*
X108663158Y-166009200D01*
X108663158Y-166009200D02*
X108460777Y-166104438D01*
X108460777Y-166104438D02*
X108270301Y-166104438D01*
X108270301Y-166104438D02*
X108091729Y-166009200D01*
X108091729Y-166009200D02*
X108008396Y-165913961D01*
X108008396Y-165913961D02*
X107936967Y-165723485D01*
X107936967Y-165723485D02*
X107889348Y-165342533D01*
X107889348Y-165342533D02*
X107948872Y-164866342D01*
X107948872Y-164866342D02*
X108091729Y-164485390D01*
X108091729Y-164485390D02*
X108210777Y-164294914D01*
X108210777Y-164294914D02*
X108317920Y-164199676D01*
X108317920Y-164199676D02*
X108520301Y-164104438D01*
X111294111Y-165533009D02*
X112246492Y-165533009D01*
X111032206Y-166104438D02*
X111948873Y-164104438D01*
X111948873Y-164104438D02*
X112365539Y-166104438D01*
X113032206Y-166104438D02*
X113198873Y-164771104D01*
X113175063Y-164961580D02*
X113282206Y-164866342D01*
X113282206Y-164866342D02*
X113484587Y-164771104D01*
X113484587Y-164771104D02*
X113770301Y-164771104D01*
X113770301Y-164771104D02*
X113948873Y-164866342D01*
X113948873Y-164866342D02*
X114020301Y-165056819D01*
X114020301Y-165056819D02*
X113889349Y-166104438D01*
X114020301Y-165056819D02*
X114139349Y-164866342D01*
X114139349Y-164866342D02*
X114341730Y-164771104D01*
X114341730Y-164771104D02*
X114627444Y-164771104D01*
X114627444Y-164771104D02*
X114806016Y-164866342D01*
X114806016Y-164866342D02*
X114877444Y-165056819D01*
X114877444Y-165056819D02*
X114746492Y-166104438D01*
X115865540Y-164771104D02*
X115615540Y-166771104D01*
X115853635Y-164866342D02*
X116056016Y-164771104D01*
X116056016Y-164771104D02*
X116436968Y-164771104D01*
X116436968Y-164771104D02*
X116615540Y-164866342D01*
X116615540Y-164866342D02*
X116698873Y-164961580D01*
X116698873Y-164961580D02*
X116770302Y-165152057D01*
X116770302Y-165152057D02*
X116698873Y-165723485D01*
X116698873Y-165723485D02*
X116579826Y-165913961D01*
X116579826Y-165913961D02*
X116472683Y-166009200D01*
X116472683Y-166009200D02*
X116270302Y-166104438D01*
X116270302Y-166104438D02*
X115889349Y-166104438D01*
X115889349Y-166104438D02*
X115710778Y-166009200D01*
X117794112Y-166104438D02*
X117615540Y-166009200D01*
X117615540Y-166009200D02*
X117544112Y-165818723D01*
X117544112Y-165818723D02*
X117758397Y-164104438D01*
X118556016Y-166104438D02*
X118722683Y-164771104D01*
X118806016Y-164104438D02*
X118698873Y-164199676D01*
X118698873Y-164199676D02*
X118782207Y-164294914D01*
X118782207Y-164294914D02*
X118889350Y-164199676D01*
X118889350Y-164199676D02*
X118806016Y-164104438D01*
X118806016Y-164104438D02*
X118782207Y-164294914D01*
X119389350Y-164771104D02*
X120151254Y-164771104D01*
X119508397Y-166104438D02*
X119722683Y-164390152D01*
X119722683Y-164390152D02*
X119841731Y-164199676D01*
X119841731Y-164199676D02*
X120044112Y-164104438D01*
X120044112Y-164104438D02*
X120234588Y-164104438D01*
X120651254Y-166104438D02*
X120817921Y-164771104D01*
X120901254Y-164104438D02*
X120794111Y-164199676D01*
X120794111Y-164199676D02*
X120877445Y-164294914D01*
X120877445Y-164294914D02*
X120984588Y-164199676D01*
X120984588Y-164199676D02*
X120901254Y-164104438D01*
X120901254Y-164104438D02*
X120877445Y-164294914D01*
X122377445Y-166009200D02*
X122175064Y-166104438D01*
X122175064Y-166104438D02*
X121794111Y-166104438D01*
X121794111Y-166104438D02*
X121615540Y-166009200D01*
X121615540Y-166009200D02*
X121544111Y-165818723D01*
X121544111Y-165818723D02*
X121639350Y-165056819D01*
X121639350Y-165056819D02*
X121758397Y-164866342D01*
X121758397Y-164866342D02*
X121960778Y-164771104D01*
X121960778Y-164771104D02*
X122341730Y-164771104D01*
X122341730Y-164771104D02*
X122520302Y-164866342D01*
X122520302Y-164866342D02*
X122591730Y-165056819D01*
X122591730Y-165056819D02*
X122567921Y-165247295D01*
X122567921Y-165247295D02*
X121591730Y-165437771D01*
X123317921Y-166104438D02*
X123484588Y-164771104D01*
X123436969Y-165152057D02*
X123556016Y-164961580D01*
X123556016Y-164961580D02*
X123663159Y-164866342D01*
X123663159Y-164866342D02*
X123865540Y-164771104D01*
X123865540Y-164771104D02*
X124056016Y-164771104D01*
D10*
D11*
X91355826Y-161500414D02*
X90855826Y-161500414D01*
X90855826Y-162286128D02*
X90855826Y-160786128D01*
X90855826Y-160786128D02*
X91570112Y-160786128D01*
X92141540Y-162286128D02*
X92141540Y-161286128D01*
X92141540Y-160786128D02*
X92070112Y-160857557D01*
X92070112Y-160857557D02*
X92141540Y-160928985D01*
X92141540Y-160928985D02*
X92212969Y-160857557D01*
X92212969Y-160857557D02*
X92141540Y-160786128D01*
X92141540Y-160786128D02*
X92141540Y-160928985D01*
X93070112Y-162286128D02*
X92927255Y-162214700D01*
X92927255Y-162214700D02*
X92855826Y-162071842D01*
X92855826Y-162071842D02*
X92855826Y-160786128D01*
X94212969Y-162214700D02*
X94070112Y-162286128D01*
X94070112Y-162286128D02*
X93784398Y-162286128D01*
X93784398Y-162286128D02*
X93641540Y-162214700D01*
X93641540Y-162214700D02*
X93570112Y-162071842D01*
X93570112Y-162071842D02*
X93570112Y-161500414D01*
X93570112Y-161500414D02*
X93641540Y-161357557D01*
X93641540Y-161357557D02*
X93784398Y-161286128D01*
X93784398Y-161286128D02*
X94070112Y-161286128D01*
X94070112Y-161286128D02*
X94212969Y-161357557D01*
X94212969Y-161357557D02*
X94284398Y-161500414D01*
X94284398Y-161500414D02*
X94284398Y-161643271D01*
X94284398Y-161643271D02*
X93570112Y-161786128D01*
X94927254Y-162143271D02*
X94998683Y-162214700D01*
X94998683Y-162214700D02*
X94927254Y-162286128D01*
X94927254Y-162286128D02*
X94855826Y-162214700D01*
X94855826Y-162214700D02*
X94927254Y-162143271D01*
X94927254Y-162143271D02*
X94927254Y-162286128D01*
X94927254Y-161357557D02*
X94998683Y-161428985D01*
X94998683Y-161428985D02*
X94927254Y-161500414D01*
X94927254Y-161500414D02*
X94855826Y-161428985D01*
X94855826Y-161428985D02*
X94927254Y-161357557D01*
X94927254Y-161357557D02*
X94927254Y-161500414D01*
X96784397Y-162286128D02*
X96784397Y-160786128D01*
X97427255Y-162286128D02*
X97427255Y-161500414D01*
X97427255Y-161500414D02*
X97355826Y-161357557D01*
X97355826Y-161357557D02*
X97212969Y-161286128D01*
X97212969Y-161286128D02*
X96998683Y-161286128D01*
X96998683Y-161286128D02*
X96855826Y-161357557D01*
X96855826Y-161357557D02*
X96784397Y-161428985D01*
X98141540Y-162286128D02*
X98141540Y-160786128D01*
X98141540Y-161357557D02*
X98284398Y-161286128D01*
X98284398Y-161286128D02*
X98570112Y-161286128D01*
X98570112Y-161286128D02*
X98712969Y-161357557D01*
X98712969Y-161357557D02*
X98784398Y-161428985D01*
X98784398Y-161428985D02*
X98855826Y-161571842D01*
X98855826Y-161571842D02*
X98855826Y-162000414D01*
X98855826Y-162000414D02*
X98784398Y-162143271D01*
X98784398Y-162143271D02*
X98712969Y-162214700D01*
X98712969Y-162214700D02*
X98570112Y-162286128D01*
X98570112Y-162286128D02*
X98284398Y-162286128D01*
X98284398Y-162286128D02*
X98141540Y-162214700D01*
X100284398Y-162286128D02*
X99427255Y-162286128D01*
X99855826Y-162286128D02*
X99855826Y-160786128D01*
X99855826Y-160786128D02*
X99712969Y-161000414D01*
X99712969Y-161000414D02*
X99570112Y-161143271D01*
X99570112Y-161143271D02*
X99427255Y-161214700D01*
X101212969Y-160786128D02*
X101355826Y-160786128D01*
X101355826Y-160786128D02*
X101498683Y-160857557D01*
X101498683Y-160857557D02*
X101570112Y-160928985D01*
X101570112Y-160928985D02*
X101641540Y-161071842D01*
X101641540Y-161071842D02*
X101712969Y-161357557D01*
X101712969Y-161357557D02*
X101712969Y-161714700D01*
X101712969Y-161714700D02*
X101641540Y-162000414D01*
X101641540Y-162000414D02*
X101570112Y-162143271D01*
X101570112Y-162143271D02*
X101498683Y-162214700D01*
X101498683Y-162214700D02*
X101355826Y-162286128D01*
X101355826Y-162286128D02*
X101212969Y-162286128D01*
X101212969Y-162286128D02*
X101070112Y-162214700D01*
X101070112Y-162214700D02*
X100998683Y-162143271D01*
X100998683Y-162143271D02*
X100927254Y-162000414D01*
X100927254Y-162000414D02*
X100855826Y-161714700D01*
X100855826Y-161714700D02*
X100855826Y-161357557D01*
X100855826Y-161357557D02*
X100927254Y-161071842D01*
X100927254Y-161071842D02*
X100998683Y-160928985D01*
X100998683Y-160928985D02*
X101070112Y-160857557D01*
X101070112Y-160857557D02*
X101212969Y-160786128D01*
X102641540Y-160786128D02*
X102784397Y-160786128D01*
X102784397Y-160786128D02*
X102927254Y-160857557D01*
X102927254Y-160857557D02*
X102998683Y-160928985D01*
X102998683Y-160928985D02*
X103070111Y-161071842D01*
X103070111Y-161071842D02*
X103141540Y-161357557D01*
X103141540Y-161357557D02*
X103141540Y-161714700D01*
X103141540Y-161714700D02*
X103070111Y-162000414D01*
X103070111Y-162000414D02*
X102998683Y-162143271D01*
X102998683Y-162143271D02*
X102927254Y-162214700D01*
X102927254Y-162214700D02*
X102784397Y-162286128D01*
X102784397Y-162286128D02*
X102641540Y-162286128D01*
X102641540Y-162286128D02*
X102498683Y-162214700D01*
X102498683Y-162214700D02*
X102427254Y-162143271D01*
X102427254Y-162143271D02*
X102355825Y-162000414D01*
X102355825Y-162000414D02*
X102284397Y-161714700D01*
X102284397Y-161714700D02*
X102284397Y-161357557D01*
X102284397Y-161357557D02*
X102355825Y-161071842D01*
X102355825Y-161071842D02*
X102427254Y-160928985D01*
X102427254Y-160928985D02*
X102498683Y-160857557D01*
X102498683Y-160857557D02*
X102641540Y-160786128D01*
X103427254Y-162428985D02*
X104570111Y-162428985D01*
X105570111Y-162286128D02*
X105570111Y-161500414D01*
X105570111Y-161500414D02*
X105498682Y-161357557D01*
X105498682Y-161357557D02*
X105355825Y-161286128D01*
X105355825Y-161286128D02*
X105070111Y-161286128D01*
X105070111Y-161286128D02*
X104927253Y-161357557D01*
X105570111Y-162214700D02*
X105427253Y-162286128D01*
X105427253Y-162286128D02*
X105070111Y-162286128D01*
X105070111Y-162286128D02*
X104927253Y-162214700D01*
X104927253Y-162214700D02*
X104855825Y-162071842D01*
X104855825Y-162071842D02*
X104855825Y-161928985D01*
X104855825Y-161928985D02*
X104927253Y-161786128D01*
X104927253Y-161786128D02*
X105070111Y-161714700D01*
X105070111Y-161714700D02*
X105427253Y-161714700D01*
X105427253Y-161714700D02*
X105570111Y-161643271D01*
X106284396Y-162286128D02*
X106284396Y-161286128D01*
X106284396Y-161428985D02*
X106355825Y-161357557D01*
X106355825Y-161357557D02*
X106498682Y-161286128D01*
X106498682Y-161286128D02*
X106712968Y-161286128D01*
X106712968Y-161286128D02*
X106855825Y-161357557D01*
X106855825Y-161357557D02*
X106927254Y-161500414D01*
X106927254Y-161500414D02*
X106927254Y-162286128D01*
X106927254Y-161500414D02*
X106998682Y-161357557D01*
X106998682Y-161357557D02*
X107141539Y-161286128D01*
X107141539Y-161286128D02*
X107355825Y-161286128D01*
X107355825Y-161286128D02*
X107498682Y-161357557D01*
X107498682Y-161357557D02*
X107570111Y-161500414D01*
X107570111Y-161500414D02*
X107570111Y-162286128D01*
X108284396Y-161286128D02*
X108284396Y-162786128D01*
X108284396Y-161357557D02*
X108427254Y-161286128D01*
X108427254Y-161286128D02*
X108712968Y-161286128D01*
X108712968Y-161286128D02*
X108855825Y-161357557D01*
X108855825Y-161357557D02*
X108927254Y-161428985D01*
X108927254Y-161428985D02*
X108998682Y-161571842D01*
X108998682Y-161571842D02*
X108998682Y-162000414D01*
X108998682Y-162000414D02*
X108927254Y-162143271D01*
X108927254Y-162143271D02*
X108855825Y-162214700D01*
X108855825Y-162214700D02*
X108712968Y-162286128D01*
X108712968Y-162286128D02*
X108427254Y-162286128D01*
X108427254Y-162286128D02*
X108284396Y-162214700D01*
X109855825Y-162286128D02*
X109712968Y-162214700D01*
X109712968Y-162214700D02*
X109641539Y-162071842D01*
X109641539Y-162071842D02*
X109641539Y-160786128D01*
X110427253Y-162286128D02*
X110427253Y-161286128D01*
X110427253Y-160786128D02*
X110355825Y-160857557D01*
X110355825Y-160857557D02*
X110427253Y-160928985D01*
X110427253Y-160928985D02*
X110498682Y-160857557D01*
X110498682Y-160857557D02*
X110427253Y-160786128D01*
X110427253Y-160786128D02*
X110427253Y-160928985D01*
X110927254Y-161286128D02*
X111498682Y-161286128D01*
X111141539Y-162286128D02*
X111141539Y-161000414D01*
X111141539Y-161000414D02*
X111212968Y-160857557D01*
X111212968Y-160857557D02*
X111355825Y-160786128D01*
X111355825Y-160786128D02*
X111498682Y-160786128D01*
X111998682Y-162286128D02*
X111998682Y-161286128D01*
X111998682Y-160786128D02*
X111927254Y-160857557D01*
X111927254Y-160857557D02*
X111998682Y-160928985D01*
X111998682Y-160928985D02*
X112070111Y-160857557D01*
X112070111Y-160857557D02*
X111998682Y-160786128D01*
X111998682Y-160786128D02*
X111998682Y-160928985D01*
X113284397Y-162214700D02*
X113141540Y-162286128D01*
X113141540Y-162286128D02*
X112855826Y-162286128D01*
X112855826Y-162286128D02*
X112712968Y-162214700D01*
X112712968Y-162214700D02*
X112641540Y-162071842D01*
X112641540Y-162071842D02*
X112641540Y-161500414D01*
X112641540Y-161500414D02*
X112712968Y-161357557D01*
X112712968Y-161357557D02*
X112855826Y-161286128D01*
X112855826Y-161286128D02*
X113141540Y-161286128D01*
X113141540Y-161286128D02*
X113284397Y-161357557D01*
X113284397Y-161357557D02*
X113355826Y-161500414D01*
X113355826Y-161500414D02*
X113355826Y-161643271D01*
X113355826Y-161643271D02*
X112641540Y-161786128D01*
X113998682Y-162286128D02*
X113998682Y-161286128D01*
X113998682Y-161571842D02*
X114070111Y-161428985D01*
X114070111Y-161428985D02*
X114141540Y-161357557D01*
X114141540Y-161357557D02*
X114284397Y-161286128D01*
X114284397Y-161286128D02*
X114427254Y-161286128D01*
X114927253Y-162143271D02*
X114998682Y-162214700D01*
X114998682Y-162214700D02*
X114927253Y-162286128D01*
X114927253Y-162286128D02*
X114855825Y-162214700D01*
X114855825Y-162214700D02*
X114927253Y-162143271D01*
X114927253Y-162143271D02*
X114927253Y-162286128D01*
X115641539Y-162286128D02*
X115641539Y-160786128D01*
X115784397Y-161714700D02*
X116212968Y-162286128D01*
X116212968Y-161286128D02*
X115641539Y-161857557D01*
X116855825Y-162286128D02*
X116855825Y-161286128D01*
X116855825Y-160786128D02*
X116784397Y-160857557D01*
X116784397Y-160857557D02*
X116855825Y-160928985D01*
X116855825Y-160928985D02*
X116927254Y-160857557D01*
X116927254Y-160857557D02*
X116855825Y-160786128D01*
X116855825Y-160786128D02*
X116855825Y-160928985D01*
X118212969Y-162214700D02*
X118070111Y-162286128D01*
X118070111Y-162286128D02*
X117784397Y-162286128D01*
X117784397Y-162286128D02*
X117641540Y-162214700D01*
X117641540Y-162214700D02*
X117570111Y-162143271D01*
X117570111Y-162143271D02*
X117498683Y-162000414D01*
X117498683Y-162000414D02*
X117498683Y-161571842D01*
X117498683Y-161571842D02*
X117570111Y-161428985D01*
X117570111Y-161428985D02*
X117641540Y-161357557D01*
X117641540Y-161357557D02*
X117784397Y-161286128D01*
X117784397Y-161286128D02*
X118070111Y-161286128D01*
X118070111Y-161286128D02*
X118212969Y-161357557D01*
X119498683Y-162286128D02*
X119498683Y-161500414D01*
X119498683Y-161500414D02*
X119427254Y-161357557D01*
X119427254Y-161357557D02*
X119284397Y-161286128D01*
X119284397Y-161286128D02*
X118998683Y-161286128D01*
X118998683Y-161286128D02*
X118855825Y-161357557D01*
X119498683Y-162214700D02*
X119355825Y-162286128D01*
X119355825Y-162286128D02*
X118998683Y-162286128D01*
X118998683Y-162286128D02*
X118855825Y-162214700D01*
X118855825Y-162214700D02*
X118784397Y-162071842D01*
X118784397Y-162071842D02*
X118784397Y-161928985D01*
X118784397Y-161928985D02*
X118855825Y-161786128D01*
X118855825Y-161786128D02*
X118998683Y-161714700D01*
X118998683Y-161714700D02*
X119355825Y-161714700D01*
X119355825Y-161714700D02*
X119498683Y-161643271D01*
X120855826Y-162286128D02*
X120855826Y-160786128D01*
X120855826Y-162214700D02*
X120712968Y-162286128D01*
X120712968Y-162286128D02*
X120427254Y-162286128D01*
X120427254Y-162286128D02*
X120284397Y-162214700D01*
X120284397Y-162214700D02*
X120212968Y-162143271D01*
X120212968Y-162143271D02*
X120141540Y-162000414D01*
X120141540Y-162000414D02*
X120141540Y-161571842D01*
X120141540Y-161571842D02*
X120212968Y-161428985D01*
X120212968Y-161428985D02*
X120284397Y-161357557D01*
X120284397Y-161357557D02*
X120427254Y-161286128D01*
X120427254Y-161286128D02*
X120712968Y-161286128D01*
X120712968Y-161286128D02*
X120855826Y-161357557D01*
X121212969Y-162428985D02*
X122355826Y-162428985D01*
X122712968Y-161286128D02*
X122712968Y-162786128D01*
X122712968Y-161357557D02*
X122855826Y-161286128D01*
X122855826Y-161286128D02*
X123141540Y-161286128D01*
X123141540Y-161286128D02*
X123284397Y-161357557D01*
X123284397Y-161357557D02*
X123355826Y-161428985D01*
X123355826Y-161428985D02*
X123427254Y-161571842D01*
X123427254Y-161571842D02*
X123427254Y-162000414D01*
X123427254Y-162000414D02*
X123355826Y-162143271D01*
X123355826Y-162143271D02*
X123284397Y-162214700D01*
X123284397Y-162214700D02*
X123141540Y-162286128D01*
X123141540Y-162286128D02*
X122855826Y-162286128D01*
X122855826Y-162286128D02*
X122712968Y-162214700D01*
X124712969Y-162214700D02*
X124570111Y-162286128D01*
X124570111Y-162286128D02*
X124284397Y-162286128D01*
X124284397Y-162286128D02*
X124141540Y-162214700D01*
X124141540Y-162214700D02*
X124070111Y-162143271D01*
X124070111Y-162143271D02*
X123998683Y-162000414D01*
X123998683Y-162000414D02*
X123998683Y-161571842D01*
X123998683Y-161571842D02*
X124070111Y-161428985D01*
X124070111Y-161428985D02*
X124141540Y-161357557D01*
X124141540Y-161357557D02*
X124284397Y-161286128D01*
X124284397Y-161286128D02*
X124570111Y-161286128D01*
X124570111Y-161286128D02*
X124712969Y-161357557D01*
X125355825Y-162286128D02*
X125355825Y-160786128D01*
X125355825Y-161357557D02*
X125498683Y-161286128D01*
X125498683Y-161286128D02*
X125784397Y-161286128D01*
X125784397Y-161286128D02*
X125927254Y-161357557D01*
X125927254Y-161357557D02*
X125998683Y-161428985D01*
X125998683Y-161428985D02*
X126070111Y-161571842D01*
X126070111Y-161571842D02*
X126070111Y-162000414D01*
X126070111Y-162000414D02*
X125998683Y-162143271D01*
X125998683Y-162143271D02*
X125927254Y-162214700D01*
X125927254Y-162214700D02*
X125784397Y-162286128D01*
X125784397Y-162286128D02*
X125498683Y-162286128D01*
X125498683Y-162286128D02*
X125355825Y-162214700D01*
D10*
D11*
X89400000Y-157400000D02*
X197400000Y-157400000D01*
D10*
D11*
X90784398Y-159514700D02*
X90998684Y-159586128D01*
X90998684Y-159586128D02*
X91355826Y-159586128D01*
X91355826Y-159586128D02*
X91498684Y-159514700D01*
X91498684Y-159514700D02*
X91570112Y-159443271D01*
X91570112Y-159443271D02*
X91641541Y-159300414D01*
X91641541Y-159300414D02*
X91641541Y-159157557D01*
X91641541Y-159157557D02*
X91570112Y-159014700D01*
X91570112Y-159014700D02*
X91498684Y-158943271D01*
X91498684Y-158943271D02*
X91355826Y-158871842D01*
X91355826Y-158871842D02*
X91070112Y-158800414D01*
X91070112Y-158800414D02*
X90927255Y-158728985D01*
X90927255Y-158728985D02*
X90855826Y-158657557D01*
X90855826Y-158657557D02*
X90784398Y-158514700D01*
X90784398Y-158514700D02*
X90784398Y-158371842D01*
X90784398Y-158371842D02*
X90855826Y-158228985D01*
X90855826Y-158228985D02*
X90927255Y-158157557D01*
X90927255Y-158157557D02*
X91070112Y-158086128D01*
X91070112Y-158086128D02*
X91427255Y-158086128D01*
X91427255Y-158086128D02*
X91641541Y-158157557D01*
X92284397Y-159586128D02*
X92284397Y-158086128D01*
X92927255Y-159586128D02*
X92927255Y-158800414D01*
X92927255Y-158800414D02*
X92855826Y-158657557D01*
X92855826Y-158657557D02*
X92712969Y-158586128D01*
X92712969Y-158586128D02*
X92498683Y-158586128D01*
X92498683Y-158586128D02*
X92355826Y-158657557D01*
X92355826Y-158657557D02*
X92284397Y-158728985D01*
X94212969Y-159514700D02*
X94070112Y-159586128D01*
X94070112Y-159586128D02*
X93784398Y-159586128D01*
X93784398Y-159586128D02*
X93641540Y-159514700D01*
X93641540Y-159514700D02*
X93570112Y-159371842D01*
X93570112Y-159371842D02*
X93570112Y-158800414D01*
X93570112Y-158800414D02*
X93641540Y-158657557D01*
X93641540Y-158657557D02*
X93784398Y-158586128D01*
X93784398Y-158586128D02*
X94070112Y-158586128D01*
X94070112Y-158586128D02*
X94212969Y-158657557D01*
X94212969Y-158657557D02*
X94284398Y-158800414D01*
X94284398Y-158800414D02*
X94284398Y-158943271D01*
X94284398Y-158943271D02*
X93570112Y-159086128D01*
X95498683Y-159514700D02*
X95355826Y-159586128D01*
X95355826Y-159586128D02*
X95070112Y-159586128D01*
X95070112Y-159586128D02*
X94927254Y-159514700D01*
X94927254Y-159514700D02*
X94855826Y-159371842D01*
X94855826Y-159371842D02*
X94855826Y-158800414D01*
X94855826Y-158800414D02*
X94927254Y-158657557D01*
X94927254Y-158657557D02*
X95070112Y-158586128D01*
X95070112Y-158586128D02*
X95355826Y-158586128D01*
X95355826Y-158586128D02*
X95498683Y-158657557D01*
X95498683Y-158657557D02*
X95570112Y-158800414D01*
X95570112Y-158800414D02*
X95570112Y-158943271D01*
X95570112Y-158943271D02*
X94855826Y-159086128D01*
X95998683Y-158586128D02*
X96570111Y-158586128D01*
X96212968Y-158086128D02*
X96212968Y-159371842D01*
X96212968Y-159371842D02*
X96284397Y-159514700D01*
X96284397Y-159514700D02*
X96427254Y-159586128D01*
X96427254Y-159586128D02*
X96570111Y-159586128D01*
X97070111Y-159443271D02*
X97141540Y-159514700D01*
X97141540Y-159514700D02*
X97070111Y-159586128D01*
X97070111Y-159586128D02*
X96998683Y-159514700D01*
X96998683Y-159514700D02*
X97070111Y-159443271D01*
X97070111Y-159443271D02*
X97070111Y-159586128D01*
X97070111Y-158657557D02*
X97141540Y-158728985D01*
X97141540Y-158728985D02*
X97070111Y-158800414D01*
X97070111Y-158800414D02*
X96998683Y-158728985D01*
X96998683Y-158728985D02*
X97070111Y-158657557D01*
X97070111Y-158657557D02*
X97070111Y-158800414D01*
D10*
D12*
X106194510Y-156578128D02*
X106194510Y-155078128D01*
X106194510Y-155078128D02*
X106765939Y-155078128D01*
X106765939Y-155078128D02*
X106908796Y-155149557D01*
X106908796Y-155149557D02*
X106980225Y-155220985D01*
X106980225Y-155220985D02*
X107051653Y-155363842D01*
X107051653Y-155363842D02*
X107051653Y-155578128D01*
X107051653Y-155578128D02*
X106980225Y-155720985D01*
X106980225Y-155720985D02*
X106908796Y-155792414D01*
X106908796Y-155792414D02*
X106765939Y-155863842D01*
X106765939Y-155863842D02*
X106194510Y-155863842D01*
X108337368Y-156578128D02*
X108337368Y-155792414D01*
X108337368Y-155792414D02*
X108265939Y-155649557D01*
X108265939Y-155649557D02*
X108123082Y-155578128D01*
X108123082Y-155578128D02*
X107837368Y-155578128D01*
X107837368Y-155578128D02*
X107694510Y-155649557D01*
X108337368Y-156506700D02*
X108194510Y-156578128D01*
X108194510Y-156578128D02*
X107837368Y-156578128D01*
X107837368Y-156578128D02*
X107694510Y-156506700D01*
X107694510Y-156506700D02*
X107623082Y-156363842D01*
X107623082Y-156363842D02*
X107623082Y-156220985D01*
X107623082Y-156220985D02*
X107694510Y-156078128D01*
X107694510Y-156078128D02*
X107837368Y-156006700D01*
X107837368Y-156006700D02*
X108194510Y-156006700D01*
X108194510Y-156006700D02*
X108337368Y-155935271D01*
X109051653Y-155578128D02*
X109051653Y-156578128D01*
X109051653Y-155720985D02*
X109123082Y-155649557D01*
X109123082Y-155649557D02*
X109265939Y-155578128D01*
X109265939Y-155578128D02*
X109480225Y-155578128D01*
X109480225Y-155578128D02*
X109623082Y-155649557D01*
X109623082Y-155649557D02*
X109694511Y-155792414D01*
X109694511Y-155792414D02*
X109694511Y-156578128D01*
X110194511Y-155578128D02*
X110765939Y-155578128D01*
X110408796Y-155078128D02*
X110408796Y-156363842D01*
X110408796Y-156363842D02*
X110480225Y-156506700D01*
X110480225Y-156506700D02*
X110623082Y-156578128D01*
X110623082Y-156578128D02*
X110765939Y-156578128D01*
X111194511Y-156506700D02*
X111337368Y-156578128D01*
X111337368Y-156578128D02*
X111623082Y-156578128D01*
X111623082Y-156578128D02*
X111765939Y-156506700D01*
X111765939Y-156506700D02*
X111837368Y-156363842D01*
X111837368Y-156363842D02*
X111837368Y-156292414D01*
X111837368Y-156292414D02*
X111765939Y-156149557D01*
X111765939Y-156149557D02*
X111623082Y-156078128D01*
X111623082Y-156078128D02*
X111408797Y-156078128D01*
X111408797Y-156078128D02*
X111265939Y-156006700D01*
X111265939Y-156006700D02*
X111194511Y-155863842D01*
X111194511Y-155863842D02*
X111194511Y-155792414D01*
X111194511Y-155792414D02*
X111265939Y-155649557D01*
X111265939Y-155649557D02*
X111408797Y-155578128D01*
X111408797Y-155578128D02*
X111623082Y-155578128D01*
X111623082Y-155578128D02*
X111765939Y-155649557D01*
X113408797Y-155578128D02*
X113980225Y-155578128D01*
X113623082Y-156578128D02*
X113623082Y-155292414D01*
X113623082Y-155292414D02*
X113694511Y-155149557D01*
X113694511Y-155149557D02*
X113837368Y-155078128D01*
X113837368Y-155078128D02*
X113980225Y-155078128D01*
X114694511Y-156578128D02*
X114551654Y-156506700D01*
X114551654Y-156506700D02*
X114480225Y-156435271D01*
X114480225Y-156435271D02*
X114408797Y-156292414D01*
X114408797Y-156292414D02*
X114408797Y-155863842D01*
X114408797Y-155863842D02*
X114480225Y-155720985D01*
X114480225Y-155720985D02*
X114551654Y-155649557D01*
X114551654Y-155649557D02*
X114694511Y-155578128D01*
X114694511Y-155578128D02*
X114908797Y-155578128D01*
X114908797Y-155578128D02*
X115051654Y-155649557D01*
X115051654Y-155649557D02*
X115123083Y-155720985D01*
X115123083Y-155720985D02*
X115194511Y-155863842D01*
X115194511Y-155863842D02*
X115194511Y-156292414D01*
X115194511Y-156292414D02*
X115123083Y-156435271D01*
X115123083Y-156435271D02*
X115051654Y-156506700D01*
X115051654Y-156506700D02*
X114908797Y-156578128D01*
X114908797Y-156578128D02*
X114694511Y-156578128D01*
X115837368Y-156578128D02*
X115837368Y-155578128D01*
X115837368Y-155863842D02*
X115908797Y-155720985D01*
X115908797Y-155720985D02*
X115980226Y-155649557D01*
X115980226Y-155649557D02*
X116123083Y-155578128D01*
X116123083Y-155578128D02*
X116265940Y-155578128D01*
X118408796Y-155792414D02*
X118623082Y-155863842D01*
X118623082Y-155863842D02*
X118694511Y-155935271D01*
X118694511Y-155935271D02*
X118765939Y-156078128D01*
X118765939Y-156078128D02*
X118765939Y-156292414D01*
X118765939Y-156292414D02*
X118694511Y-156435271D01*
X118694511Y-156435271D02*
X118623082Y-156506700D01*
X118623082Y-156506700D02*
X118480225Y-156578128D01*
X118480225Y-156578128D02*
X117908796Y-156578128D01*
X117908796Y-156578128D02*
X117908796Y-155078128D01*
X117908796Y-155078128D02*
X118408796Y-155078128D01*
X118408796Y-155078128D02*
X118551654Y-155149557D01*
X118551654Y-155149557D02*
X118623082Y-155220985D01*
X118623082Y-155220985D02*
X118694511Y-155363842D01*
X118694511Y-155363842D02*
X118694511Y-155506700D01*
X118694511Y-155506700D02*
X118623082Y-155649557D01*
X118623082Y-155649557D02*
X118551654Y-155720985D01*
X118551654Y-155720985D02*
X118408796Y-155792414D01*
X118408796Y-155792414D02*
X117908796Y-155792414D01*
X119408796Y-156578128D02*
X119408796Y-155578128D01*
X119408796Y-155078128D02*
X119337368Y-155149557D01*
X119337368Y-155149557D02*
X119408796Y-155220985D01*
X119408796Y-155220985D02*
X119480225Y-155149557D01*
X119480225Y-155149557D02*
X119408796Y-155078128D01*
X119408796Y-155078128D02*
X119408796Y-155220985D01*
X120123082Y-156578128D02*
X120123082Y-155578128D01*
X120123082Y-155863842D02*
X120194511Y-155720985D01*
X120194511Y-155720985D02*
X120265940Y-155649557D01*
X120265940Y-155649557D02*
X120408797Y-155578128D01*
X120408797Y-155578128D02*
X120551654Y-155578128D01*
X121694511Y-156578128D02*
X121694511Y-155078128D01*
X121694511Y-156506700D02*
X121551653Y-156578128D01*
X121551653Y-156578128D02*
X121265939Y-156578128D01*
X121265939Y-156578128D02*
X121123082Y-156506700D01*
X121123082Y-156506700D02*
X121051653Y-156435271D01*
X121051653Y-156435271D02*
X120980225Y-156292414D01*
X120980225Y-156292414D02*
X120980225Y-155863842D01*
X120980225Y-155863842D02*
X121051653Y-155720985D01*
X121051653Y-155720985D02*
X121123082Y-155649557D01*
X121123082Y-155649557D02*
X121265939Y-155578128D01*
X121265939Y-155578128D02*
X121551653Y-155578128D01*
X121551653Y-155578128D02*
X121694511Y-155649557D01*
X122337368Y-156506700D02*
X122480225Y-156578128D01*
X122480225Y-156578128D02*
X122765939Y-156578128D01*
X122765939Y-156578128D02*
X122908796Y-156506700D01*
X122908796Y-156506700D02*
X122980225Y-156363842D01*
X122980225Y-156363842D02*
X122980225Y-156292414D01*
X122980225Y-156292414D02*
X122908796Y-156149557D01*
X122908796Y-156149557D02*
X122765939Y-156078128D01*
X122765939Y-156078128D02*
X122551654Y-156078128D01*
X122551654Y-156078128D02*
X122408796Y-156006700D01*
X122408796Y-156006700D02*
X122337368Y-155863842D01*
X122337368Y-155863842D02*
X122337368Y-155792414D01*
X122337368Y-155792414D02*
X122408796Y-155649557D01*
X122408796Y-155649557D02*
X122551654Y-155578128D01*
X122551654Y-155578128D02*
X122765939Y-155578128D01*
X122765939Y-155578128D02*
X122908796Y-155649557D01*
D10*
D11*
X106524398Y-152085928D02*
X106524398Y-153157357D01*
X106524398Y-153157357D02*
X106452969Y-153371642D01*
X106452969Y-153371642D02*
X106310112Y-153514500D01*
X106310112Y-153514500D02*
X106095826Y-153585928D01*
X106095826Y-153585928D02*
X105952969Y-153585928D01*
X107452969Y-153585928D02*
X107310112Y-153514500D01*
X107310112Y-153514500D02*
X107238683Y-153443071D01*
X107238683Y-153443071D02*
X107167255Y-153300214D01*
X107167255Y-153300214D02*
X107167255Y-152871642D01*
X107167255Y-152871642D02*
X107238683Y-152728785D01*
X107238683Y-152728785D02*
X107310112Y-152657357D01*
X107310112Y-152657357D02*
X107452969Y-152585928D01*
X107452969Y-152585928D02*
X107667255Y-152585928D01*
X107667255Y-152585928D02*
X107810112Y-152657357D01*
X107810112Y-152657357D02*
X107881541Y-152728785D01*
X107881541Y-152728785D02*
X107952969Y-152871642D01*
X107952969Y-152871642D02*
X107952969Y-153300214D01*
X107952969Y-153300214D02*
X107881541Y-153443071D01*
X107881541Y-153443071D02*
X107810112Y-153514500D01*
X107810112Y-153514500D02*
X107667255Y-153585928D01*
X107667255Y-153585928D02*
X107452969Y-153585928D01*
X108595826Y-153585928D02*
X108595826Y-152085928D01*
X109238684Y-153585928D02*
X109238684Y-152800214D01*
X109238684Y-152800214D02*
X109167255Y-152657357D01*
X109167255Y-152657357D02*
X109024398Y-152585928D01*
X109024398Y-152585928D02*
X108810112Y-152585928D01*
X108810112Y-152585928D02*
X108667255Y-152657357D01*
X108667255Y-152657357D02*
X108595826Y-152728785D01*
X109952969Y-152585928D02*
X109952969Y-153585928D01*
X109952969Y-152728785D02*
X110024398Y-152657357D01*
X110024398Y-152657357D02*
X110167255Y-152585928D01*
X110167255Y-152585928D02*
X110381541Y-152585928D01*
X110381541Y-152585928D02*
X110524398Y-152657357D01*
X110524398Y-152657357D02*
X110595827Y-152800214D01*
X110595827Y-152800214D02*
X110595827Y-153585928D01*
X112452969Y-153585928D02*
X112452969Y-152085928D01*
X112452969Y-152085928D02*
X112952969Y-153157357D01*
X112952969Y-153157357D02*
X113452969Y-152085928D01*
X113452969Y-152085928D02*
X113452969Y-153585928D01*
X114810113Y-153514500D02*
X114667255Y-153585928D01*
X114667255Y-153585928D02*
X114381541Y-153585928D01*
X114381541Y-153585928D02*
X114238684Y-153514500D01*
X114238684Y-153514500D02*
X114167255Y-153443071D01*
X114167255Y-153443071D02*
X114095827Y-153300214D01*
X114095827Y-153300214D02*
X114095827Y-152871642D01*
X114095827Y-152871642D02*
X114167255Y-152728785D01*
X114167255Y-152728785D02*
X114238684Y-152657357D01*
X114238684Y-152657357D02*
X114381541Y-152585928D01*
X114381541Y-152585928D02*
X114667255Y-152585928D01*
X114667255Y-152585928D02*
X114810113Y-152657357D01*
X115452969Y-153585928D02*
X115452969Y-152085928D01*
X115452969Y-152085928D02*
X116310112Y-153585928D01*
X116310112Y-153585928D02*
X116310112Y-152085928D01*
X117595827Y-153514500D02*
X117452970Y-153585928D01*
X117452970Y-153585928D02*
X117167256Y-153585928D01*
X117167256Y-153585928D02*
X117024398Y-153514500D01*
X117024398Y-153514500D02*
X116952970Y-153371642D01*
X116952970Y-153371642D02*
X116952970Y-152800214D01*
X116952970Y-152800214D02*
X117024398Y-152657357D01*
X117024398Y-152657357D02*
X117167256Y-152585928D01*
X117167256Y-152585928D02*
X117452970Y-152585928D01*
X117452970Y-152585928D02*
X117595827Y-152657357D01*
X117595827Y-152657357D02*
X117667256Y-152800214D01*
X117667256Y-152800214D02*
X117667256Y-152943071D01*
X117667256Y-152943071D02*
X116952970Y-153085928D01*
X118524398Y-153585928D02*
X118381541Y-153514500D01*
X118381541Y-153514500D02*
X118310112Y-153371642D01*
X118310112Y-153371642D02*
X118310112Y-152085928D01*
X119310112Y-153585928D02*
X119167255Y-153514500D01*
X119167255Y-153514500D02*
X119095826Y-153371642D01*
X119095826Y-153371642D02*
X119095826Y-152085928D01*
X119738683Y-152585928D02*
X120095826Y-153585928D01*
X120452969Y-152585928D02*
X120095826Y-153585928D01*
X120095826Y-153585928D02*
X119952969Y-153943071D01*
X119952969Y-153943071D02*
X119881540Y-154014500D01*
X119881540Y-154014500D02*
X119738683Y-154085928D01*
X122167254Y-153014500D02*
X123310112Y-153014500D01*
X125167254Y-152585928D02*
X125167254Y-153871642D01*
X125167254Y-153871642D02*
X125095826Y-154014500D01*
X125095826Y-154014500D02*
X124952969Y-154085928D01*
X124952969Y-154085928D02*
X124881540Y-154085928D01*
X125167254Y-152085928D02*
X125095826Y-152157357D01*
X125095826Y-152157357D02*
X125167254Y-152228785D01*
X125167254Y-152228785D02*
X125238683Y-152157357D01*
X125238683Y-152157357D02*
X125167254Y-152085928D01*
X125167254Y-152085928D02*
X125167254Y-152228785D01*
X125881540Y-153585928D02*
X125881540Y-152085928D01*
X126024398Y-153014500D02*
X126452969Y-153585928D01*
X126452969Y-152585928D02*
X125881540Y-153157357D01*
X127738684Y-153585928D02*
X127738684Y-152800214D01*
X127738684Y-152800214D02*
X127667255Y-152657357D01*
X127667255Y-152657357D02*
X127524398Y-152585928D01*
X127524398Y-152585928D02*
X127238684Y-152585928D01*
X127238684Y-152585928D02*
X127095826Y-152657357D01*
X127738684Y-153514500D02*
X127595826Y-153585928D01*
X127595826Y-153585928D02*
X127238684Y-153585928D01*
X127238684Y-153585928D02*
X127095826Y-153514500D01*
X127095826Y-153514500D02*
X127024398Y-153371642D01*
X127024398Y-153371642D02*
X127024398Y-153228785D01*
X127024398Y-153228785D02*
X127095826Y-153085928D01*
X127095826Y-153085928D02*
X127238684Y-153014500D01*
X127238684Y-153014500D02*
X127595826Y-153014500D01*
X127595826Y-153014500D02*
X127738684Y-152943071D01*
X128452969Y-153585928D02*
X128452969Y-152585928D01*
X128452969Y-152085928D02*
X128381541Y-152157357D01*
X128381541Y-152157357D02*
X128452969Y-152228785D01*
X128452969Y-152228785D02*
X128524398Y-152157357D01*
X128524398Y-152157357D02*
X128452969Y-152085928D01*
X128452969Y-152085928D02*
X128452969Y-152228785D01*
X129381541Y-153585928D02*
X129238684Y-153514500D01*
X129238684Y-153514500D02*
X129167255Y-153371642D01*
X129167255Y-153371642D02*
X129167255Y-152085928D01*
X129952969Y-153585928D02*
X129952969Y-152585928D01*
X129952969Y-152085928D02*
X129881541Y-152157357D01*
X129881541Y-152157357D02*
X129952969Y-152228785D01*
X129952969Y-152228785D02*
X130024398Y-152157357D01*
X130024398Y-152157357D02*
X129952969Y-152085928D01*
X129952969Y-152085928D02*
X129952969Y-152228785D01*
X130667255Y-153585928D02*
X130667255Y-152585928D01*
X130667255Y-152728785D02*
X130738684Y-152657357D01*
X130738684Y-152657357D02*
X130881541Y-152585928D01*
X130881541Y-152585928D02*
X131095827Y-152585928D01*
X131095827Y-152585928D02*
X131238684Y-152657357D01*
X131238684Y-152657357D02*
X131310113Y-152800214D01*
X131310113Y-152800214D02*
X131310113Y-153585928D01*
X131310113Y-152800214D02*
X131381541Y-152657357D01*
X131381541Y-152657357D02*
X131524398Y-152585928D01*
X131524398Y-152585928D02*
X131738684Y-152585928D01*
X131738684Y-152585928D02*
X131881541Y-152657357D01*
X131881541Y-152657357D02*
X131952970Y-152800214D01*
X131952970Y-152800214D02*
X131952970Y-153585928D01*
X133310113Y-153514500D02*
X133167255Y-153585928D01*
X133167255Y-153585928D02*
X132881541Y-153585928D01*
X132881541Y-153585928D02*
X132738684Y-153514500D01*
X132738684Y-153514500D02*
X132667255Y-153443071D01*
X132667255Y-153443071D02*
X132595827Y-153300214D01*
X132595827Y-153300214D02*
X132595827Y-152871642D01*
X132595827Y-152871642D02*
X132667255Y-152728785D01*
X132667255Y-152728785D02*
X132738684Y-152657357D01*
X132738684Y-152657357D02*
X132881541Y-152585928D01*
X132881541Y-152585928D02*
X133167255Y-152585928D01*
X133167255Y-152585928D02*
X133310113Y-152657357D01*
X133952969Y-152585928D02*
X133952969Y-153585928D01*
X133952969Y-152728785D02*
X134024398Y-152657357D01*
X134024398Y-152657357D02*
X134167255Y-152585928D01*
X134167255Y-152585928D02*
X134381541Y-152585928D01*
X134381541Y-152585928D02*
X134524398Y-152657357D01*
X134524398Y-152657357D02*
X134595827Y-152800214D01*
X134595827Y-152800214D02*
X134595827Y-153585928D01*
X135881541Y-153514500D02*
X135738684Y-153585928D01*
X135738684Y-153585928D02*
X135452970Y-153585928D01*
X135452970Y-153585928D02*
X135310112Y-153514500D01*
X135310112Y-153514500D02*
X135238684Y-153371642D01*
X135238684Y-153371642D02*
X135238684Y-152800214D01*
X135238684Y-152800214D02*
X135310112Y-152657357D01*
X135310112Y-152657357D02*
X135452970Y-152585928D01*
X135452970Y-152585928D02*
X135738684Y-152585928D01*
X135738684Y-152585928D02*
X135881541Y-152657357D01*
X135881541Y-152657357D02*
X135952970Y-152800214D01*
X135952970Y-152800214D02*
X135952970Y-152943071D01*
X135952970Y-152943071D02*
X135238684Y-153085928D01*
X136810112Y-153585928D02*
X136667255Y-153514500D01*
X136667255Y-153514500D02*
X136595826Y-153371642D01*
X136595826Y-153371642D02*
X136595826Y-152085928D01*
X137595826Y-153585928D02*
X137452969Y-153514500D01*
X137452969Y-153514500D02*
X137381540Y-153371642D01*
X137381540Y-153371642D02*
X137381540Y-152085928D01*
X138024397Y-152585928D02*
X138381540Y-153585928D01*
X138738683Y-152585928D02*
X138381540Y-153585928D01*
X138381540Y-153585928D02*
X138238683Y-153943071D01*
X138238683Y-153943071D02*
X138167254Y-154014500D01*
X138167254Y-154014500D02*
X138024397Y-154085928D01*
X140238683Y-152871642D02*
X140167254Y-152800214D01*
X140167254Y-152800214D02*
X140024397Y-152728785D01*
X140024397Y-152728785D02*
X139881540Y-152728785D01*
X139881540Y-152728785D02*
X139738683Y-152800214D01*
X139738683Y-152800214D02*
X139667254Y-152871642D01*
X139667254Y-152871642D02*
X139595826Y-153014500D01*
X139595826Y-153014500D02*
X139595826Y-153157357D01*
X139595826Y-153157357D02*
X139667254Y-153300214D01*
X139667254Y-153300214D02*
X139738683Y-153371642D01*
X139738683Y-153371642D02*
X139881540Y-153443071D01*
X139881540Y-153443071D02*
X140024397Y-153443071D01*
X140024397Y-153443071D02*
X140167254Y-153371642D01*
X140167254Y-153371642D02*
X140238683Y-153300214D01*
X140238683Y-152728785D02*
X140238683Y-153300214D01*
X140238683Y-153300214D02*
X140310111Y-153371642D01*
X140310111Y-153371642D02*
X140381540Y-153371642D01*
X140381540Y-153371642D02*
X140524397Y-153300214D01*
X140524397Y-153300214D02*
X140595826Y-153157357D01*
X140595826Y-153157357D02*
X140595826Y-152800214D01*
X140595826Y-152800214D02*
X140452969Y-152585928D01*
X140452969Y-152585928D02*
X140238683Y-152443071D01*
X140238683Y-152443071D02*
X139952969Y-152371642D01*
X139952969Y-152371642D02*
X139667254Y-152443071D01*
X139667254Y-152443071D02*
X139452969Y-152585928D01*
X139452969Y-152585928D02*
X139310111Y-152800214D01*
X139310111Y-152800214D02*
X139238683Y-153085928D01*
X139238683Y-153085928D02*
X139310111Y-153371642D01*
X139310111Y-153371642D02*
X139452969Y-153585928D01*
X139452969Y-153585928D02*
X139667254Y-153728785D01*
X139667254Y-153728785D02*
X139952969Y-153800214D01*
X139952969Y-153800214D02*
X140238683Y-153728785D01*
X140238683Y-153728785D02*
X140452969Y-153585928D01*
X141881540Y-152585928D02*
X141881540Y-153800214D01*
X141881540Y-153800214D02*
X141810111Y-153943071D01*
X141810111Y-153943071D02*
X141738682Y-154014500D01*
X141738682Y-154014500D02*
X141595825Y-154085928D01*
X141595825Y-154085928D02*
X141381540Y-154085928D01*
X141381540Y-154085928D02*
X141238682Y-154014500D01*
X141881540Y-153514500D02*
X141738682Y-153585928D01*
X141738682Y-153585928D02*
X141452968Y-153585928D01*
X141452968Y-153585928D02*
X141310111Y-153514500D01*
X141310111Y-153514500D02*
X141238682Y-153443071D01*
X141238682Y-153443071D02*
X141167254Y-153300214D01*
X141167254Y-153300214D02*
X141167254Y-152871642D01*
X141167254Y-152871642D02*
X141238682Y-152728785D01*
X141238682Y-152728785D02*
X141310111Y-152657357D01*
X141310111Y-152657357D02*
X141452968Y-152585928D01*
X141452968Y-152585928D02*
X141738682Y-152585928D01*
X141738682Y-152585928D02*
X141881540Y-152657357D01*
X142595825Y-153585928D02*
X142595825Y-152585928D01*
X142595825Y-152728785D02*
X142667254Y-152657357D01*
X142667254Y-152657357D02*
X142810111Y-152585928D01*
X142810111Y-152585928D02*
X143024397Y-152585928D01*
X143024397Y-152585928D02*
X143167254Y-152657357D01*
X143167254Y-152657357D02*
X143238683Y-152800214D01*
X143238683Y-152800214D02*
X143238683Y-153585928D01*
X143238683Y-152800214D02*
X143310111Y-152657357D01*
X143310111Y-152657357D02*
X143452968Y-152585928D01*
X143452968Y-152585928D02*
X143667254Y-152585928D01*
X143667254Y-152585928D02*
X143810111Y-152657357D01*
X143810111Y-152657357D02*
X143881540Y-152800214D01*
X143881540Y-152800214D02*
X143881540Y-153585928D01*
X145238683Y-153585928D02*
X145238683Y-152800214D01*
X145238683Y-152800214D02*
X145167254Y-152657357D01*
X145167254Y-152657357D02*
X145024397Y-152585928D01*
X145024397Y-152585928D02*
X144738683Y-152585928D01*
X144738683Y-152585928D02*
X144595825Y-152657357D01*
X145238683Y-153514500D02*
X145095825Y-153585928D01*
X145095825Y-153585928D02*
X144738683Y-153585928D01*
X144738683Y-153585928D02*
X144595825Y-153514500D01*
X144595825Y-153514500D02*
X144524397Y-153371642D01*
X144524397Y-153371642D02*
X144524397Y-153228785D01*
X144524397Y-153228785D02*
X144595825Y-153085928D01*
X144595825Y-153085928D02*
X144738683Y-153014500D01*
X144738683Y-153014500D02*
X145095825Y-153014500D01*
X145095825Y-153014500D02*
X145238683Y-152943071D01*
X145952968Y-153585928D02*
X145952968Y-152585928D01*
X145952968Y-152085928D02*
X145881540Y-152157357D01*
X145881540Y-152157357D02*
X145952968Y-152228785D01*
X145952968Y-152228785D02*
X146024397Y-152157357D01*
X146024397Y-152157357D02*
X145952968Y-152085928D01*
X145952968Y-152085928D02*
X145952968Y-152228785D01*
X146881540Y-153585928D02*
X146738683Y-153514500D01*
X146738683Y-153514500D02*
X146667254Y-153371642D01*
X146667254Y-153371642D02*
X146667254Y-152085928D01*
X147452968Y-153443071D02*
X147524397Y-153514500D01*
X147524397Y-153514500D02*
X147452968Y-153585928D01*
X147452968Y-153585928D02*
X147381540Y-153514500D01*
X147381540Y-153514500D02*
X147452968Y-153443071D01*
X147452968Y-153443071D02*
X147452968Y-153585928D01*
X148810112Y-153514500D02*
X148667254Y-153585928D01*
X148667254Y-153585928D02*
X148381540Y-153585928D01*
X148381540Y-153585928D02*
X148238683Y-153514500D01*
X148238683Y-153514500D02*
X148167254Y-153443071D01*
X148167254Y-153443071D02*
X148095826Y-153300214D01*
X148095826Y-153300214D02*
X148095826Y-152871642D01*
X148095826Y-152871642D02*
X148167254Y-152728785D01*
X148167254Y-152728785D02*
X148238683Y-152657357D01*
X148238683Y-152657357D02*
X148381540Y-152585928D01*
X148381540Y-152585928D02*
X148667254Y-152585928D01*
X148667254Y-152585928D02*
X148810112Y-152657357D01*
X149667254Y-153585928D02*
X149524397Y-153514500D01*
X149524397Y-153514500D02*
X149452968Y-153443071D01*
X149452968Y-153443071D02*
X149381540Y-153300214D01*
X149381540Y-153300214D02*
X149381540Y-152871642D01*
X149381540Y-152871642D02*
X149452968Y-152728785D01*
X149452968Y-152728785D02*
X149524397Y-152657357D01*
X149524397Y-152657357D02*
X149667254Y-152585928D01*
X149667254Y-152585928D02*
X149881540Y-152585928D01*
X149881540Y-152585928D02*
X150024397Y-152657357D01*
X150024397Y-152657357D02*
X150095826Y-152728785D01*
X150095826Y-152728785D02*
X150167254Y-152871642D01*
X150167254Y-152871642D02*
X150167254Y-153300214D01*
X150167254Y-153300214D02*
X150095826Y-153443071D01*
X150095826Y-153443071D02*
X150024397Y-153514500D01*
X150024397Y-153514500D02*
X149881540Y-153585928D01*
X149881540Y-153585928D02*
X149667254Y-153585928D01*
X150810111Y-153585928D02*
X150810111Y-152585928D01*
X150810111Y-152728785D02*
X150881540Y-152657357D01*
X150881540Y-152657357D02*
X151024397Y-152585928D01*
X151024397Y-152585928D02*
X151238683Y-152585928D01*
X151238683Y-152585928D02*
X151381540Y-152657357D01*
X151381540Y-152657357D02*
X151452969Y-152800214D01*
X151452969Y-152800214D02*
X151452969Y-153585928D01*
X151452969Y-152800214D02*
X151524397Y-152657357D01*
X151524397Y-152657357D02*
X151667254Y-152585928D01*
X151667254Y-152585928D02*
X151881540Y-152585928D01*
X151881540Y-152585928D02*
X152024397Y-152657357D01*
X152024397Y-152657357D02*
X152095826Y-152800214D01*
X152095826Y-152800214D02*
X152095826Y-153585928D01*
D10*
D11*
D10*
D11*
D10*
D11*
D10*
D11*
X109400000Y-167400000D02*
X109400000Y-170400000D01*
D10*
D11*
X173400000Y-167400000D02*
X173400000Y-173900000D01*
D10*
D11*
X104411000Y-141997800D02*
X104411000Y-157397800D01*
D14*
G36*
X29433449Y-12502240D02*
G01*
X29500522Y-12569312D01*
X29535974Y-12640218D01*
X29577945Y-12808099D01*
X29577945Y-12926337D01*
X29535974Y-13094218D01*
X29500521Y-13165124D01*
X29433450Y-13232197D01*
X29328385Y-13267219D01*
X29206517Y-13267219D01*
X29206517Y-12467219D01*
X29328385Y-12467219D01*
X29433449Y-12502240D01*
G37*
G36*
X29920802Y-13610076D02*
G01*
X26768422Y-13610076D01*
X26768422Y-12938647D01*
X26911279Y-12938647D01*
X26915125Y-12950484D01*
X26914265Y-12962901D01*
X26961884Y-13153376D01*
X26967794Y-13162822D01*
X26969455Y-13173844D01*
X27017074Y-13269082D01*
X27028448Y-13280630D01*
X27035806Y-13295071D01*
X27131044Y-13390311D01*
X27151588Y-13400779D01*
X27170132Y-13414468D01*
X27312989Y-13462087D01*
X27329196Y-13462210D01*
X27344612Y-13467219D01*
X27439850Y-13467219D01*
X27455265Y-13462210D01*
X27471473Y-13462087D01*
X27614329Y-13414468D01*
X27632876Y-13400776D01*
X27653418Y-13390310D01*
X27676509Y-13367219D01*
X27958898Y-13367219D01*
X27977996Y-13425998D01*
X28027996Y-13462325D01*
X28089800Y-13462325D01*
X28139800Y-13425998D01*
X28158898Y-13367219D01*
X28158898Y-12743775D01*
X28543502Y-13416833D01*
X28547679Y-13420628D01*
X28549424Y-13425998D01*
X28570222Y-13441109D01*
X28589246Y-13458392D01*
X28594857Y-13459007D01*
X28599424Y-13462325D01*
X28625127Y-13462325D01*
X28650681Y-13465126D01*
X28655583Y-13462325D01*
X28661228Y-13462325D01*
X28682023Y-13447216D01*
X28704342Y-13434463D01*
X28706661Y-13429316D01*
X28711228Y-13425998D01*
X28719170Y-13401552D01*
X28729731Y-13378115D01*
X28728581Y-13372587D01*
X28730326Y-13367219D01*
X29006517Y-13367219D01*
X29011411Y-13382281D01*
X29011411Y-13398121D01*
X29020720Y-13410934D01*
X29025615Y-13425998D01*
X29038428Y-13435307D01*
X29047738Y-13448121D01*
X29062801Y-13453015D01*
X29075615Y-13462325D01*
X29091454Y-13462325D01*
X29106517Y-13467219D01*
X29344612Y-13467219D01*
X29360027Y-13462210D01*
X29376235Y-13462087D01*
X29519091Y-13414468D01*
X29537638Y-13400776D01*
X29558180Y-13390310D01*
X29653418Y-13295071D01*
X29660776Y-13280629D01*
X29672150Y-13269082D01*
X29719769Y-13173845D01*
X29721429Y-13162823D01*
X29727340Y-13153377D01*
X29774959Y-12962901D01*
X29774098Y-12950484D01*
X29777945Y-12938647D01*
X29777945Y-12795790D01*
X29774098Y-12783952D01*
X29774959Y-12771536D01*
X29727340Y-12581060D01*
X29721429Y-12571613D01*
X29719769Y-12560592D01*
X29672150Y-12465355D01*
X29660776Y-12453807D01*
X29653418Y-12439365D01*
X29558180Y-12344127D01*
X29537636Y-12333659D01*
X29519091Y-12319970D01*
X29376235Y-12272351D01*
X29360027Y-12272227D01*
X29344612Y-12267219D01*
X29106517Y-12267219D01*
X29091454Y-12272113D01*
X29075615Y-12272113D01*
X29062801Y-12281422D01*
X29047738Y-12286317D01*
X29038428Y-12299130D01*
X29025615Y-12308440D01*
X29020720Y-12323503D01*
X29011411Y-12336317D01*
X29011411Y-12352156D01*
X29006517Y-12367219D01*
X29006517Y-13367219D01*
X28730326Y-13367219D01*
X28730326Y-12367219D01*
X28711228Y-12308440D01*
X28661228Y-12272113D01*
X28599424Y-12272113D01*
X28549424Y-12308440D01*
X28530326Y-12367219D01*
X28530326Y-12990662D01*
X28145722Y-12317605D01*
X28141544Y-12313809D01*
X28139800Y-12308440D01*
X28119001Y-12293328D01*
X28099978Y-12276046D01*
X28094366Y-12275430D01*
X28089800Y-12272113D01*
X28064097Y-12272113D01*
X28038543Y-12269312D01*
X28033641Y-12272113D01*
X28027996Y-12272113D01*
X28007196Y-12287224D01*
X27984882Y-12299976D01*
X27982563Y-12305121D01*
X27977996Y-12308440D01*
X27970052Y-12332886D01*
X27959493Y-12356323D01*
X27960642Y-12361850D01*
X27958898Y-12367219D01*
X27958898Y-13367219D01*
X27676509Y-13367219D01*
X27701037Y-13342690D01*
X27704699Y-13335502D01*
X27711228Y-13330759D01*
X27718465Y-13308484D01*
X27729095Y-13287622D01*
X27727832Y-13279653D01*
X27730326Y-13271980D01*
X27730326Y-12938647D01*
X27725432Y-12923584D01*
X27725432Y-12907745D01*
X27716122Y-12894931D01*
X27711228Y-12879868D01*
X27698414Y-12870558D01*
X27689105Y-12857745D01*
X27674041Y-12852850D01*
X27661228Y-12843541D01*
X27645389Y-12843541D01*
X27630326Y-12838647D01*
X27439850Y-12838647D01*
X27381071Y-12857745D01*
X27344744Y-12907745D01*
X27344744Y-12969549D01*
X27381071Y-13019549D01*
X27439850Y-13038647D01*
X27530326Y-13038647D01*
X27530326Y-13230559D01*
X27528687Y-13232197D01*
X27423623Y-13267219D01*
X27360838Y-13267219D01*
X27255773Y-13232197D01*
X27188703Y-13165127D01*
X27153249Y-13094218D01*
X27111278Y-12926336D01*
X27111278Y-12808100D01*
X27153249Y-12640218D01*
X27188702Y-12569312D01*
X27255774Y-12502240D01*
X27360838Y-12467219D01*
X27463862Y-12467219D01*
X27537985Y-12504281D01*
X27599100Y-12513486D01*
X27653952Y-12485010D01*
X27681592Y-12429731D01*
X27671461Y-12368764D01*
X27627428Y-12325395D01*
X27532190Y-12277776D01*
X27509392Y-12274342D01*
X27487469Y-12267219D01*
X27344612Y-12267219D01*
X27329196Y-12272227D01*
X27312989Y-12272351D01*
X27170132Y-12319970D01*
X27151585Y-12333660D01*
X27131044Y-12344127D01*
X27035806Y-12439365D01*
X27028447Y-12453807D01*
X27017074Y-12465355D01*
X26969455Y-12560593D01*
X26967794Y-12571614D01*
X26961884Y-12581061D01*
X26914265Y-12771536D01*
X26915125Y-12783952D01*
X26911279Y-12795790D01*
X26911279Y-12938647D01*
X26768422Y-12938647D01*
X26768422Y-12124362D01*
X29920802Y-12124362D01*
X29920802Y-13610076D01*
G37*
G36*
X28433449Y-15002240D02*
G01*
X28500522Y-15069313D01*
X28535974Y-15140218D01*
X28577945Y-15308099D01*
X28577945Y-15426337D01*
X28535974Y-15594218D01*
X28500521Y-15665124D01*
X28433450Y-15732197D01*
X28328385Y-15767219D01*
X28206517Y-15767219D01*
X28206517Y-14967219D01*
X28328385Y-14967219D01*
X28433449Y-15002240D01*
G37*
G36*
X29433449Y-15002240D02*
G01*
X29500522Y-15069313D01*
X29535974Y-15140218D01*
X29577945Y-15308099D01*
X29577945Y-15426337D01*
X29535974Y-15594218D01*
X29500521Y-15665124D01*
X29433450Y-15732197D01*
X29328385Y-15767219D01*
X29206517Y-15767219D01*
X29206517Y-14967219D01*
X29328385Y-14967219D01*
X29433449Y-15002240D01*
G37*
G36*
X29920802Y-16110076D02*
G01*
X26868322Y-16110076D01*
X26868322Y-14837040D01*
X27011179Y-14837040D01*
X27011649Y-14898842D01*
X27344982Y-15898841D01*
X27362892Y-15923104D01*
X27380459Y-15947672D01*
X27381213Y-15947923D01*
X27381687Y-15948565D01*
X27410452Y-15957670D01*
X27439091Y-15967217D01*
X27439851Y-15966976D01*
X27440609Y-15967216D01*
X27469187Y-15957689D01*
X27498013Y-15948565D01*
X27498486Y-15947923D01*
X27499241Y-15947672D01*
X27516795Y-15923120D01*
X27534718Y-15898842D01*
X27545259Y-15867219D01*
X28006517Y-15867219D01*
X28011411Y-15882281D01*
X28011411Y-15898121D01*
X28020720Y-15910934D01*
X28025615Y-15925998D01*
X28038428Y-15935307D01*
X28047738Y-15948121D01*
X28062801Y-15953015D01*
X28075615Y-15962325D01*
X28091454Y-15962325D01*
X28106517Y-15967219D01*
X28344612Y-15967219D01*
X28360027Y-15962210D01*
X28376235Y-15962087D01*
X28519091Y-15914468D01*
X28537638Y-15900776D01*
X28558180Y-15890310D01*
X28581271Y-15867219D01*
X29006517Y-15867219D01*
X29011411Y-15882281D01*
X29011411Y-15898121D01*
X29020720Y-15910934D01*
X29025615Y-15925998D01*
X29038428Y-15935307D01*
X29047738Y-15948121D01*
X29062801Y-15953015D01*
X29075615Y-15962325D01*
X29091454Y-15962325D01*
X29106517Y-15967219D01*
X29344612Y-15967219D01*
X29360027Y-15962210D01*
X29376235Y-15962087D01*
X29519091Y-15914468D01*
X29537638Y-15900776D01*
X29558180Y-15890310D01*
X29653418Y-15795071D01*
X29660776Y-15780629D01*
X29672150Y-15769082D01*
X29719769Y-15673845D01*
X29721429Y-15662823D01*
X29727340Y-15653377D01*
X29774959Y-15462901D01*
X29774098Y-15450484D01*
X29777945Y-15438647D01*
X29777945Y-15295790D01*
X29774098Y-15283952D01*
X29774959Y-15271536D01*
X29727340Y-15081060D01*
X29721429Y-15071613D01*
X29719769Y-15060592D01*
X29672150Y-14965355D01*
X29660776Y-14953807D01*
X29653418Y-14939365D01*
X29558180Y-14844127D01*
X29537636Y-14833659D01*
X29519091Y-14819970D01*
X29376235Y-14772351D01*
X29360027Y-14772227D01*
X29344612Y-14767219D01*
X29106517Y-14767219D01*
X29091454Y-14772113D01*
X29075615Y-14772113D01*
X29062801Y-14781422D01*
X29047738Y-14786317D01*
X29038428Y-14799130D01*
X29025615Y-14808440D01*
X29020720Y-14823503D01*
X29011411Y-14836317D01*
X29011411Y-14852156D01*
X29006517Y-14867219D01*
X29006517Y-15867219D01*
X28581271Y-15867219D01*
X28653418Y-15795071D01*
X28660776Y-15780629D01*
X28672150Y-15769082D01*
X28719769Y-15673845D01*
X28721429Y-15662823D01*
X28727340Y-15653377D01*
X28774959Y-15462901D01*
X28774098Y-15450484D01*
X28777945Y-15438647D01*
X28777945Y-15295790D01*
X28774098Y-15283952D01*
X28774959Y-15271536D01*
X28727340Y-15081060D01*
X28721429Y-15071613D01*
X28719769Y-15060592D01*
X28672150Y-14965355D01*
X28660776Y-14953807D01*
X28653418Y-14939365D01*
X28558180Y-14844127D01*
X28537636Y-14833659D01*
X28519091Y-14819970D01*
X28376235Y-14772351D01*
X28360027Y-14772227D01*
X28344612Y-14767219D01*
X28106517Y-14767219D01*
X28091454Y-14772113D01*
X28075615Y-14772113D01*
X28062801Y-14781422D01*
X28047738Y-14786317D01*
X28038428Y-14799130D01*
X28025615Y-14808440D01*
X28020720Y-14823503D01*
X28011411Y-14836317D01*
X28011411Y-14852156D01*
X28006517Y-14867219D01*
X28006517Y-15867219D01*
X27545259Y-15867219D01*
X27868051Y-14898842D01*
X27868521Y-14837040D01*
X27832574Y-14786766D01*
X27773942Y-14767222D01*
X27715020Y-14785873D01*
X27678315Y-14835597D01*
X27439850Y-15550991D01*
X27201385Y-14835596D01*
X27164680Y-14785873D01*
X27105758Y-14767221D01*
X27047126Y-14786766D01*
X27011179Y-14837040D01*
X26868322Y-14837040D01*
X26868322Y-14624362D01*
X29920802Y-14624362D01*
X29920802Y-16110076D01*
G37*
G36*
X29920802Y-18610076D02*
G01*
X27387470Y-18610076D01*
X27387470Y-17652933D01*
X27530327Y-17652933D01*
X27537450Y-17674856D01*
X27540884Y-17697654D01*
X27588503Y-17792892D01*
X27599876Y-17804439D01*
X27607235Y-17818882D01*
X27654854Y-17866500D01*
X27669295Y-17873858D01*
X27680844Y-17885233D01*
X27776081Y-17932852D01*
X27787102Y-17934512D01*
X27796549Y-17940423D01*
X27976374Y-17985379D01*
X28047281Y-18020833D01*
X28071950Y-18045501D01*
X28101755Y-18105111D01*
X28101755Y-18153134D01*
X28071950Y-18212743D01*
X28047281Y-18237413D01*
X27987672Y-18267219D01*
X27789410Y-18267219D01*
X27661950Y-18224732D01*
X27600148Y-18224262D01*
X27549874Y-18260209D01*
X27530329Y-18318841D01*
X27548981Y-18377763D01*
X27598704Y-18414468D01*
X27741561Y-18462087D01*
X27757768Y-18462210D01*
X27773184Y-18467219D01*
X28011279Y-18467219D01*
X28033202Y-18460095D01*
X28056000Y-18456662D01*
X28151238Y-18409043D01*
X28162786Y-18397668D01*
X28177228Y-18390310D01*
X28200319Y-18367219D01*
X28530327Y-18367219D01*
X28549425Y-18425998D01*
X28599425Y-18462325D01*
X28661229Y-18462325D01*
X28711229Y-18425998D01*
X28730327Y-18367219D01*
X28730327Y-17938647D01*
X28958898Y-17938647D01*
X28962744Y-17950484D01*
X28961884Y-17962901D01*
X29009503Y-18153376D01*
X29015413Y-18162822D01*
X29017074Y-18173844D01*
X29064693Y-18269082D01*
X29076067Y-18280630D01*
X29083425Y-18295071D01*
X29178663Y-18390311D01*
X29199207Y-18400779D01*
X29217751Y-18414468D01*
X29360608Y-18462087D01*
X29376815Y-18462210D01*
X29392231Y-18467219D01*
X29487469Y-18467219D01*
X29502884Y-18462210D01*
X29519092Y-18462087D01*
X29661948Y-18414468D01*
X29680495Y-18400776D01*
X29701037Y-18390310D01*
X29748656Y-18342690D01*
X29752318Y-18335502D01*
X29758847Y-18330759D01*
X29766084Y-18308484D01*
X29776714Y-18287622D01*
X29775451Y-18279653D01*
X29777945Y-18271980D01*
X29777945Y-17938647D01*
X29773051Y-17923584D01*
X29773051Y-17907745D01*
X29763741Y-17894931D01*
X29758847Y-17879868D01*
X29746033Y-17870558D01*
X29736724Y-17857745D01*
X29721660Y-17852850D01*
X29708847Y-17843541D01*
X29693008Y-17843541D01*
X29677945Y-17838647D01*
X29487469Y-17838647D01*
X29428690Y-17857745D01*
X29392363Y-17907745D01*
X29392363Y-17969549D01*
X29428690Y-18019549D01*
X29487469Y-18038647D01*
X29577945Y-18038647D01*
X29577945Y-18230559D01*
X29576306Y-18232197D01*
X29471242Y-18267219D01*
X29408457Y-18267219D01*
X29303392Y-18232197D01*
X29236322Y-18165127D01*
X29200868Y-18094218D01*
X29158898Y-17926336D01*
X29158898Y-17808099D01*
X29200868Y-17640218D01*
X29236321Y-17569312D01*
X29303393Y-17502240D01*
X29408457Y-17467219D01*
X29511481Y-17467219D01*
X29585604Y-17504281D01*
X29646719Y-17513486D01*
X29701571Y-17485010D01*
X29729211Y-17429731D01*
X29719080Y-17368764D01*
X29675047Y-17325395D01*
X29579809Y-17277776D01*
X29557011Y-17274342D01*
X29535088Y-17267219D01*
X29392231Y-17267219D01*
X29376815Y-17272227D01*
X29360608Y-17272351D01*
X29217751Y-17319970D01*
X29199204Y-17333660D01*
X29178663Y-17344127D01*
X29083425Y-17439365D01*
X29076066Y-17453807D01*
X29064693Y-17465355D01*
X29017074Y-17560593D01*
X29015413Y-17571614D01*
X29009503Y-17581061D01*
X28961884Y-17771536D01*
X28962744Y-17783952D01*
X28958898Y-17795790D01*
X28958898Y-17938647D01*
X28730327Y-17938647D01*
X28730327Y-17367219D01*
X28711229Y-17308440D01*
X28661229Y-17272113D01*
X28599425Y-17272113D01*
X28549425Y-17308440D01*
X28530327Y-17367219D01*
X28530327Y-18367219D01*
X28200319Y-18367219D01*
X28224847Y-18342690D01*
X28232204Y-18328249D01*
X28243579Y-18316701D01*
X28291198Y-18221464D01*
X28294631Y-18198665D01*
X28301755Y-18176742D01*
X28301755Y-18081504D01*
X28294631Y-18059580D01*
X28291198Y-18036782D01*
X28243579Y-17941545D01*
X28232204Y-17929996D01*
X28224846Y-17915555D01*
X28177228Y-17867936D01*
X28162785Y-17860577D01*
X28151238Y-17849204D01*
X28056000Y-17801585D01*
X28044978Y-17799924D01*
X28035532Y-17794014D01*
X27855707Y-17749057D01*
X27784800Y-17713604D01*
X27760132Y-17688935D01*
X27730327Y-17629325D01*
X27730327Y-17581302D01*
X27760132Y-17521692D01*
X27784800Y-17497023D01*
X27844410Y-17467219D01*
X28042671Y-17467219D01*
X28170132Y-17509706D01*
X28231934Y-17510176D01*
X28282208Y-17474229D01*
X28301752Y-17415597D01*
X28283101Y-17356675D01*
X28233377Y-17319970D01*
X28090521Y-17272351D01*
X28074313Y-17272227D01*
X28058898Y-17267219D01*
X27820803Y-17267219D01*
X27798879Y-17274342D01*
X27776081Y-17277776D01*
X27680844Y-17325395D01*
X27669295Y-17336769D01*
X27654854Y-17344128D01*
X27607235Y-17391746D01*
X27599876Y-17406188D01*
X27588503Y-17417736D01*
X27540884Y-17512974D01*
X27537450Y-17535771D01*
X27530327Y-17557695D01*
X27530327Y-17652933D01*
X27387470Y-17652933D01*
X27387470Y-17124362D01*
X29920802Y-17124362D01*
X29920802Y-18610076D01*
G37*
D11*
X28133333Y-23154819D02*
X27800000Y-22678628D01*
X27561905Y-23154819D02*
X27561905Y-22154819D01*
X27561905Y-22154819D02*
X27942857Y-22154819D01*
X27942857Y-22154819D02*
X28038095Y-22202438D01*
X28038095Y-22202438D02*
X28085714Y-22250057D01*
X28085714Y-22250057D02*
X28133333Y-22345295D01*
X28133333Y-22345295D02*
X28133333Y-22488152D01*
X28133333Y-22488152D02*
X28085714Y-22583390D01*
X28085714Y-22583390D02*
X28038095Y-22631009D01*
X28038095Y-22631009D02*
X27942857Y-22678628D01*
X27942857Y-22678628D02*
X27561905Y-22678628D01*
X28704762Y-22583390D02*
X28609524Y-22535771D01*
X28609524Y-22535771D02*
X28561905Y-22488152D01*
X28561905Y-22488152D02*
X28514286Y-22392914D01*
X28514286Y-22392914D02*
X28514286Y-22345295D01*
X28514286Y-22345295D02*
X28561905Y-22250057D01*
X28561905Y-22250057D02*
X28609524Y-22202438D01*
X28609524Y-22202438D02*
X28704762Y-22154819D01*
X28704762Y-22154819D02*
X28895238Y-22154819D01*
X28895238Y-22154819D02*
X28990476Y-22202438D01*
X28990476Y-22202438D02*
X29038095Y-22250057D01*
X29038095Y-22250057D02*
X29085714Y-22345295D01*
X29085714Y-22345295D02*
X29085714Y-22392914D01*
X29085714Y-22392914D02*
X29038095Y-22488152D01*
X29038095Y-22488152D02*
X28990476Y-22535771D01*
X28990476Y-22535771D02*
X28895238Y-22583390D01*
X28895238Y-22583390D02*
X28704762Y-22583390D01*
X28704762Y-22583390D02*
X28609524Y-22631009D01*
X28609524Y-22631009D02*
X28561905Y-22678628D01*
X28561905Y-22678628D02*
X28514286Y-22773866D01*
X28514286Y-22773866D02*
X28514286Y-22964342D01*
X28514286Y-22964342D02*
X28561905Y-23059580D01*
X28561905Y-23059580D02*
X28609524Y-23107200D01*
X28609524Y-23107200D02*
X28704762Y-23154819D01*
X28704762Y-23154819D02*
X28895238Y-23154819D01*
X28895238Y-23154819D02*
X28990476Y-23107200D01*
X28990476Y-23107200D02*
X29038095Y-23059580D01*
X29038095Y-23059580D02*
X29085714Y-22964342D01*
X29085714Y-22964342D02*
X29085714Y-22773866D01*
X29085714Y-22773866D02*
X29038095Y-22678628D01*
X29038095Y-22678628D02*
X28990476Y-22631009D01*
X28990476Y-22631009D02*
X28895238Y-22583390D01*
X29454819Y-5238094D02*
X28454819Y-5238094D01*
X28454819Y-5238094D02*
X28454819Y-4999999D01*
X28454819Y-4999999D02*
X28502438Y-4857142D01*
X28502438Y-4857142D02*
X28597676Y-4761904D01*
X28597676Y-4761904D02*
X28692914Y-4714285D01*
X28692914Y-4714285D02*
X28883390Y-4666666D01*
X28883390Y-4666666D02*
X29026247Y-4666666D01*
X29026247Y-4666666D02*
X29216723Y-4714285D01*
X29216723Y-4714285D02*
X29311961Y-4761904D01*
X29311961Y-4761904D02*
X29407200Y-4857142D01*
X29407200Y-4857142D02*
X29454819Y-4999999D01*
X29454819Y-4999999D02*
X29454819Y-5238094D01*
X29454819Y-3714285D02*
X29454819Y-4285713D01*
X29454819Y-3999999D02*
X28454819Y-3999999D01*
X28454819Y-3999999D02*
X28597676Y-4095237D01*
X28597676Y-4095237D02*
X28692914Y-4190475D01*
X28692914Y-4190475D02*
X28740533Y-4285713D01*
X8454819Y-23166666D02*
X7978628Y-23499999D01*
X8454819Y-23738094D02*
X7454819Y-23738094D01*
X7454819Y-23738094D02*
X7454819Y-23357142D01*
X7454819Y-23357142D02*
X7502438Y-23261904D01*
X7502438Y-23261904D02*
X7550057Y-23214285D01*
X7550057Y-23214285D02*
X7645295Y-23166666D01*
X7645295Y-23166666D02*
X7788152Y-23166666D01*
X7788152Y-23166666D02*
X7883390Y-23214285D01*
X7883390Y-23214285D02*
X7931009Y-23261904D01*
X7931009Y-23261904D02*
X7978628Y-23357142D01*
X7978628Y-23357142D02*
X7978628Y-23738094D01*
X7550057Y-22785713D02*
X7502438Y-22738094D01*
X7502438Y-22738094D02*
X7454819Y-22642856D01*
X7454819Y-22642856D02*
X7454819Y-22404761D01*
X7454819Y-22404761D02*
X7502438Y-22309523D01*
X7502438Y-22309523D02*
X7550057Y-22261904D01*
X7550057Y-22261904D02*
X7645295Y-22214285D01*
X7645295Y-22214285D02*
X7740533Y-22214285D01*
X7740533Y-22214285D02*
X7883390Y-22261904D01*
X7883390Y-22261904D02*
X8454819Y-22833332D01*
X8454819Y-22833332D02*
X8454819Y-22214285D01*
X16833333Y-9359579D02*
X16785714Y-9407199D01*
X16785714Y-9407199D02*
X16642857Y-9454818D01*
X16642857Y-9454818D02*
X16547619Y-9454818D01*
X16547619Y-9454818D02*
X16404762Y-9407199D01*
X16404762Y-9407199D02*
X16309524Y-9311960D01*
X16309524Y-9311960D02*
X16261905Y-9216722D01*
X16261905Y-9216722D02*
X16214286Y-9026246D01*
X16214286Y-9026246D02*
X16214286Y-8883389D01*
X16214286Y-8883389D02*
X16261905Y-8692913D01*
X16261905Y-8692913D02*
X16309524Y-8597675D01*
X16309524Y-8597675D02*
X16404762Y-8502437D01*
X16404762Y-8502437D02*
X16547619Y-8454818D01*
X16547619Y-8454818D02*
X16642857Y-8454818D01*
X16642857Y-8454818D02*
X16785714Y-8502437D01*
X16785714Y-8502437D02*
X16833333Y-8550056D01*
X17690476Y-8788151D02*
X17690476Y-9454818D01*
X17452381Y-8407199D02*
X17214286Y-9121484D01*
X17214286Y-9121484D02*
X17833333Y-9121484D01*
X27333333Y-26954819D02*
X27000000Y-26478628D01*
X26761905Y-26954819D02*
X26761905Y-25954819D01*
X26761905Y-25954819D02*
X27142857Y-25954819D01*
X27142857Y-25954819D02*
X27238095Y-26002438D01*
X27238095Y-26002438D02*
X27285714Y-26050057D01*
X27285714Y-26050057D02*
X27333333Y-26145295D01*
X27333333Y-26145295D02*
X27333333Y-26288152D01*
X27333333Y-26288152D02*
X27285714Y-26383390D01*
X27285714Y-26383390D02*
X27238095Y-26431009D01*
X27238095Y-26431009D02*
X27142857Y-26478628D01*
X27142857Y-26478628D02*
X26761905Y-26478628D01*
X27666667Y-25954819D02*
X28285714Y-25954819D01*
X28285714Y-25954819D02*
X27952381Y-26335771D01*
X27952381Y-26335771D02*
X28095238Y-26335771D01*
X28095238Y-26335771D02*
X28190476Y-26383390D01*
X28190476Y-26383390D02*
X28238095Y-26431009D01*
X28238095Y-26431009D02*
X28285714Y-26526247D01*
X28285714Y-26526247D02*
X28285714Y-26764342D01*
X28285714Y-26764342D02*
X28238095Y-26859580D01*
X28238095Y-26859580D02*
X28190476Y-26907200D01*
X28190476Y-26907200D02*
X28095238Y-26954819D01*
X28095238Y-26954819D02*
X27809524Y-26954819D01*
X27809524Y-26954819D02*
X27714286Y-26907200D01*
X27714286Y-26907200D02*
X27666667Y-26859580D01*
X31666666Y-9954819D02*
X31666666Y-10669104D01*
X31666666Y-10669104D02*
X31619047Y-10811961D01*
X31619047Y-10811961D02*
X31523809Y-10907200D01*
X31523809Y-10907200D02*
X31380952Y-10954819D01*
X31380952Y-10954819D02*
X31285714Y-10954819D01*
X32619047Y-9954819D02*
X32142857Y-9954819D01*
X32142857Y-9954819D02*
X32095238Y-10431009D01*
X32095238Y-10431009D02*
X32142857Y-10383390D01*
X32142857Y-10383390D02*
X32238095Y-10335771D01*
X32238095Y-10335771D02*
X32476190Y-10335771D01*
X32476190Y-10335771D02*
X32571428Y-10383390D01*
X32571428Y-10383390D02*
X32619047Y-10431009D01*
X32619047Y-10431009D02*
X32666666Y-10526247D01*
X32666666Y-10526247D02*
X32666666Y-10764342D01*
X32666666Y-10764342D02*
X32619047Y-10859580D01*
X32619047Y-10859580D02*
X32571428Y-10907200D01*
X32571428Y-10907200D02*
X32476190Y-10954819D01*
X32476190Y-10954819D02*
X32238095Y-10954819D01*
X32238095Y-10954819D02*
X32142857Y-10907200D01*
X32142857Y-10907200D02*
X32095238Y-10859580D01*
X22859580Y-30666666D02*
X22907200Y-30714285D01*
X22907200Y-30714285D02*
X22954819Y-30857142D01*
X22954819Y-30857142D02*
X22954819Y-30952380D01*
X22954819Y-30952380D02*
X22907200Y-31095237D01*
X22907200Y-31095237D02*
X22811961Y-31190475D01*
X22811961Y-31190475D02*
X22716723Y-31238094D01*
X22716723Y-31238094D02*
X22526247Y-31285713D01*
X22526247Y-31285713D02*
X22383390Y-31285713D01*
X22383390Y-31285713D02*
X22192914Y-31238094D01*
X22192914Y-31238094D02*
X22097676Y-31190475D01*
X22097676Y-31190475D02*
X22002438Y-31095237D01*
X22002438Y-31095237D02*
X21954819Y-30952380D01*
X21954819Y-30952380D02*
X21954819Y-30857142D01*
X21954819Y-30857142D02*
X22002438Y-30714285D01*
X22002438Y-30714285D02*
X22050057Y-30666666D01*
X21954819Y-30333332D02*
X21954819Y-29666666D01*
X21954819Y-29666666D02*
X22954819Y-30095237D01*
X16833333Y-11359579D02*
X16785714Y-11407199D01*
X16785714Y-11407199D02*
X16642857Y-11454818D01*
X16642857Y-11454818D02*
X16547619Y-11454818D01*
X16547619Y-11454818D02*
X16404762Y-11407199D01*
X16404762Y-11407199D02*
X16309524Y-11311960D01*
X16309524Y-11311960D02*
X16261905Y-11216722D01*
X16261905Y-11216722D02*
X16214286Y-11026246D01*
X16214286Y-11026246D02*
X16214286Y-10883389D01*
X16214286Y-10883389D02*
X16261905Y-10692913D01*
X16261905Y-10692913D02*
X16309524Y-10597675D01*
X16309524Y-10597675D02*
X16404762Y-10502437D01*
X16404762Y-10502437D02*
X16547619Y-10454818D01*
X16547619Y-10454818D02*
X16642857Y-10454818D01*
X16642857Y-10454818D02*
X16785714Y-10502437D01*
X16785714Y-10502437D02*
X16833333Y-10550056D01*
X17166667Y-10454818D02*
X17785714Y-10454818D01*
X17785714Y-10454818D02*
X17452381Y-10835770D01*
X17452381Y-10835770D02*
X17595238Y-10835770D01*
X17595238Y-10835770D02*
X17690476Y-10883389D01*
X17690476Y-10883389D02*
X17738095Y-10931008D01*
X17738095Y-10931008D02*
X17785714Y-11026246D01*
X17785714Y-11026246D02*
X17785714Y-11264341D01*
X17785714Y-11264341D02*
X17738095Y-11359579D01*
X17738095Y-11359579D02*
X17690476Y-11407199D01*
X17690476Y-11407199D02*
X17595238Y-11454818D01*
X17595238Y-11454818D02*
X17309524Y-11454818D01*
X17309524Y-11454818D02*
X17214286Y-11407199D01*
X17214286Y-11407199D02*
X17166667Y-11359579D01*
X22454819Y-19666666D02*
X21978628Y-19999999D01*
X22454819Y-20238094D02*
X21454819Y-20238094D01*
X21454819Y-20238094D02*
X21454819Y-19857142D01*
X21454819Y-19857142D02*
X21502438Y-19761904D01*
X21502438Y-19761904D02*
X21550057Y-19714285D01*
X21550057Y-19714285D02*
X21645295Y-19666666D01*
X21645295Y-19666666D02*
X21788152Y-19666666D01*
X21788152Y-19666666D02*
X21883390Y-19714285D01*
X21883390Y-19714285D02*
X21931009Y-19761904D01*
X21931009Y-19761904D02*
X21978628Y-19857142D01*
X21978628Y-19857142D02*
X21978628Y-20238094D01*
X21454819Y-19333332D02*
X21454819Y-18666666D01*
X21454819Y-18666666D02*
X22454819Y-19095237D01*
X10729580Y-16216667D02*
X10777200Y-16264286D01*
X10777200Y-16264286D02*
X10824819Y-16407143D01*
X10824819Y-16407143D02*
X10824819Y-16502381D01*
X10824819Y-16502381D02*
X10777200Y-16645238D01*
X10777200Y-16645238D02*
X10681961Y-16740476D01*
X10681961Y-16740476D02*
X10586723Y-16788095D01*
X10586723Y-16788095D02*
X10396247Y-16835714D01*
X10396247Y-16835714D02*
X10253390Y-16835714D01*
X10253390Y-16835714D02*
X10062914Y-16788095D01*
X10062914Y-16788095D02*
X9967676Y-16740476D01*
X9967676Y-16740476D02*
X9872438Y-16645238D01*
X9872438Y-16645238D02*
X9824819Y-16502381D01*
X9824819Y-16502381D02*
X9824819Y-16407143D01*
X9824819Y-16407143D02*
X9872438Y-16264286D01*
X9872438Y-16264286D02*
X9920057Y-16216667D01*
X10253390Y-15645238D02*
X10205771Y-15740476D01*
X10205771Y-15740476D02*
X10158152Y-15788095D01*
X10158152Y-15788095D02*
X10062914Y-15835714D01*
X10062914Y-15835714D02*
X10015295Y-15835714D01*
X10015295Y-15835714D02*
X9920057Y-15788095D01*
X9920057Y-15788095D02*
X9872438Y-15740476D01*
X9872438Y-15740476D02*
X9824819Y-15645238D01*
X9824819Y-15645238D02*
X9824819Y-15454762D01*
X9824819Y-15454762D02*
X9872438Y-15359524D01*
X9872438Y-15359524D02*
X9920057Y-15311905D01*
X9920057Y-15311905D02*
X10015295Y-15264286D01*
X10015295Y-15264286D02*
X10062914Y-15264286D01*
X10062914Y-15264286D02*
X10158152Y-15311905D01*
X10158152Y-15311905D02*
X10205771Y-15359524D01*
X10205771Y-15359524D02*
X10253390Y-15454762D01*
X10253390Y-15454762D02*
X10253390Y-15645238D01*
X10253390Y-15645238D02*
X10301009Y-15740476D01*
X10301009Y-15740476D02*
X10348628Y-15788095D01*
X10348628Y-15788095D02*
X10443866Y-15835714D01*
X10443866Y-15835714D02*
X10634342Y-15835714D01*
X10634342Y-15835714D02*
X10729580Y-15788095D01*
X10729580Y-15788095D02*
X10777200Y-15740476D01*
X10777200Y-15740476D02*
X10824819Y-15645238D01*
X10824819Y-15645238D02*
X10824819Y-15454762D01*
X10824819Y-15454762D02*
X10777200Y-15359524D01*
X10777200Y-15359524D02*
X10729580Y-15311905D01*
X10729580Y-15311905D02*
X10634342Y-15264286D01*
X10634342Y-15264286D02*
X10443866Y-15264286D01*
X10443866Y-15264286D02*
X10348628Y-15311905D01*
X10348628Y-15311905D02*
X10301009Y-15359524D01*
X10301009Y-15359524D02*
X10253390Y-15454762D01*
X26954819Y-31666666D02*
X26478628Y-31999999D01*
X26954819Y-32238094D02*
X25954819Y-32238094D01*
X25954819Y-32238094D02*
X25954819Y-31857142D01*
X25954819Y-31857142D02*
X26002438Y-31761904D01*
X26002438Y-31761904D02*
X26050057Y-31714285D01*
X26050057Y-31714285D02*
X26145295Y-31666666D01*
X26145295Y-31666666D02*
X26288152Y-31666666D01*
X26288152Y-31666666D02*
X26383390Y-31714285D01*
X26383390Y-31714285D02*
X26431009Y-31761904D01*
X26431009Y-31761904D02*
X26478628Y-31857142D01*
X26478628Y-31857142D02*
X26478628Y-32238094D01*
X26954819Y-31190475D02*
X26954819Y-30999999D01*
X26954819Y-30999999D02*
X26907200Y-30904761D01*
X26907200Y-30904761D02*
X26859580Y-30857142D01*
X26859580Y-30857142D02*
X26716723Y-30761904D01*
X26716723Y-30761904D02*
X26526247Y-30714285D01*
X26526247Y-30714285D02*
X26145295Y-30714285D01*
X26145295Y-30714285D02*
X26050057Y-30761904D01*
X26050057Y-30761904D02*
X26002438Y-30809523D01*
X26002438Y-30809523D02*
X25954819Y-30904761D01*
X25954819Y-30904761D02*
X25954819Y-31095237D01*
X25954819Y-31095237D02*
X26002438Y-31190475D01*
X26002438Y-31190475D02*
X26050057Y-31238094D01*
X26050057Y-31238094D02*
X26145295Y-31285713D01*
X26145295Y-31285713D02*
X26383390Y-31285713D01*
X26383390Y-31285713D02*
X26478628Y-31238094D01*
X26478628Y-31238094D02*
X26526247Y-31190475D01*
X26526247Y-31190475D02*
X26573866Y-31095237D01*
X26573866Y-31095237D02*
X26573866Y-30904761D01*
X26573866Y-30904761D02*
X26526247Y-30809523D01*
X26526247Y-30809523D02*
X26478628Y-30761904D01*
X26478628Y-30761904D02*
X26383390Y-30714285D01*
X15884819Y-16166666D02*
X15408628Y-16499999D01*
X15884819Y-16738094D02*
X14884819Y-16738094D01*
X14884819Y-16738094D02*
X14884819Y-16357142D01*
X14884819Y-16357142D02*
X14932438Y-16261904D01*
X14932438Y-16261904D02*
X14980057Y-16214285D01*
X14980057Y-16214285D02*
X15075295Y-16166666D01*
X15075295Y-16166666D02*
X15218152Y-16166666D01*
X15218152Y-16166666D02*
X15313390Y-16214285D01*
X15313390Y-16214285D02*
X15361009Y-16261904D01*
X15361009Y-16261904D02*
X15408628Y-16357142D01*
X15408628Y-16357142D02*
X15408628Y-16738094D01*
X14884819Y-15309523D02*
X14884819Y-15499999D01*
X14884819Y-15499999D02*
X14932438Y-15595237D01*
X14932438Y-15595237D02*
X14980057Y-15642856D01*
X14980057Y-15642856D02*
X15122914Y-15738094D01*
X15122914Y-15738094D02*
X15313390Y-15785713D01*
X15313390Y-15785713D02*
X15694342Y-15785713D01*
X15694342Y-15785713D02*
X15789580Y-15738094D01*
X15789580Y-15738094D02*
X15837200Y-15690475D01*
X15837200Y-15690475D02*
X15884819Y-15595237D01*
X15884819Y-15595237D02*
X15884819Y-15404761D01*
X15884819Y-15404761D02*
X15837200Y-15309523D01*
X15837200Y-15309523D02*
X15789580Y-15261904D01*
X15789580Y-15261904D02*
X15694342Y-15214285D01*
X15694342Y-15214285D02*
X15456247Y-15214285D01*
X15456247Y-15214285D02*
X15361009Y-15261904D01*
X15361009Y-15261904D02*
X15313390Y-15309523D01*
X15313390Y-15309523D02*
X15265771Y-15404761D01*
X15265771Y-15404761D02*
X15265771Y-15595237D01*
X15265771Y-15595237D02*
X15313390Y-15690475D01*
X15313390Y-15690475D02*
X15361009Y-15738094D01*
X15361009Y-15738094D02*
X15456247Y-15785713D01*
X22857142Y-12024819D02*
X22523809Y-11548628D01*
X22285714Y-12024819D02*
X22285714Y-11024819D01*
X22285714Y-11024819D02*
X22666666Y-11024819D01*
X22666666Y-11024819D02*
X22761904Y-11072438D01*
X22761904Y-11072438D02*
X22809523Y-11120057D01*
X22809523Y-11120057D02*
X22857142Y-11215295D01*
X22857142Y-11215295D02*
X22857142Y-11358152D01*
X22857142Y-11358152D02*
X22809523Y-11453390D01*
X22809523Y-11453390D02*
X22761904Y-11501009D01*
X22761904Y-11501009D02*
X22666666Y-11548628D01*
X22666666Y-11548628D02*
X22285714Y-11548628D01*
X23809523Y-12024819D02*
X23238095Y-12024819D01*
X23523809Y-12024819D02*
X23523809Y-11024819D01*
X23523809Y-11024819D02*
X23428571Y-11167676D01*
X23428571Y-11167676D02*
X23333333Y-11262914D01*
X23333333Y-11262914D02*
X23238095Y-11310533D01*
X24428571Y-11024819D02*
X24523809Y-11024819D01*
X24523809Y-11024819D02*
X24619047Y-11072438D01*
X24619047Y-11072438D02*
X24666666Y-11120057D01*
X24666666Y-11120057D02*
X24714285Y-11215295D01*
X24714285Y-11215295D02*
X24761904Y-11405771D01*
X24761904Y-11405771D02*
X24761904Y-11643866D01*
X24761904Y-11643866D02*
X24714285Y-11834342D01*
X24714285Y-11834342D02*
X24666666Y-11929580D01*
X24666666Y-11929580D02*
X24619047Y-11977200D01*
X24619047Y-11977200D02*
X24523809Y-12024819D01*
X24523809Y-12024819D02*
X24428571Y-12024819D01*
X24428571Y-12024819D02*
X24333333Y-11977200D01*
X24333333Y-11977200D02*
X24285714Y-11929580D01*
X24285714Y-11929580D02*
X24238095Y-11834342D01*
X24238095Y-11834342D02*
X24190476Y-11643866D01*
X24190476Y-11643866D02*
X24190476Y-11405771D01*
X24190476Y-11405771D02*
X24238095Y-11215295D01*
X24238095Y-11215295D02*
X24285714Y-11120057D01*
X24285714Y-11120057D02*
X24333333Y-11072438D01*
X24333333Y-11072438D02*
X24428571Y-11024819D01*
X18833333Y-16859580D02*
X18785714Y-16907200D01*
X18785714Y-16907200D02*
X18642857Y-16954819D01*
X18642857Y-16954819D02*
X18547619Y-16954819D01*
X18547619Y-16954819D02*
X18404762Y-16907200D01*
X18404762Y-16907200D02*
X18309524Y-16811961D01*
X18309524Y-16811961D02*
X18261905Y-16716723D01*
X18261905Y-16716723D02*
X18214286Y-16526247D01*
X18214286Y-16526247D02*
X18214286Y-16383390D01*
X18214286Y-16383390D02*
X18261905Y-16192914D01*
X18261905Y-16192914D02*
X18309524Y-16097676D01*
X18309524Y-16097676D02*
X18404762Y-16002438D01*
X18404762Y-16002438D02*
X18547619Y-15954819D01*
X18547619Y-15954819D02*
X18642857Y-15954819D01*
X18642857Y-15954819D02*
X18785714Y-16002438D01*
X18785714Y-16002438D02*
X18833333Y-16050057D01*
X19785714Y-16954819D02*
X19214286Y-16954819D01*
X19500000Y-16954819D02*
X19500000Y-15954819D01*
X19500000Y-15954819D02*
X19404762Y-16097676D01*
X19404762Y-16097676D02*
X19309524Y-16192914D01*
X19309524Y-16192914D02*
X19214286Y-16240533D01*
X15679580Y-29666666D02*
X15727200Y-29714285D01*
X15727200Y-29714285D02*
X15774819Y-29857142D01*
X15774819Y-29857142D02*
X15774819Y-29952380D01*
X15774819Y-29952380D02*
X15727200Y-30095237D01*
X15727200Y-30095237D02*
X15631961Y-30190475D01*
X15631961Y-30190475D02*
X15536723Y-30238094D01*
X15536723Y-30238094D02*
X15346247Y-30285713D01*
X15346247Y-30285713D02*
X15203390Y-30285713D01*
X15203390Y-30285713D02*
X15012914Y-30238094D01*
X15012914Y-30238094D02*
X14917676Y-30190475D01*
X14917676Y-30190475D02*
X14822438Y-30095237D01*
X14822438Y-30095237D02*
X14774819Y-29952380D01*
X14774819Y-29952380D02*
X14774819Y-29857142D01*
X14774819Y-29857142D02*
X14822438Y-29714285D01*
X14822438Y-29714285D02*
X14870057Y-29666666D01*
X14774819Y-28809523D02*
X14774819Y-28999999D01*
X14774819Y-28999999D02*
X14822438Y-29095237D01*
X14822438Y-29095237D02*
X14870057Y-29142856D01*
X14870057Y-29142856D02*
X15012914Y-29238094D01*
X15012914Y-29238094D02*
X15203390Y-29285713D01*
X15203390Y-29285713D02*
X15584342Y-29285713D01*
X15584342Y-29285713D02*
X15679580Y-29238094D01*
X15679580Y-29238094D02*
X15727200Y-29190475D01*
X15727200Y-29190475D02*
X15774819Y-29095237D01*
X15774819Y-29095237D02*
X15774819Y-28904761D01*
X15774819Y-28904761D02*
X15727200Y-28809523D01*
X15727200Y-28809523D02*
X15679580Y-28761904D01*
X15679580Y-28761904D02*
X15584342Y-28714285D01*
X15584342Y-28714285D02*
X15346247Y-28714285D01*
X15346247Y-28714285D02*
X15251009Y-28761904D01*
X15251009Y-28761904D02*
X15203390Y-28809523D01*
X15203390Y-28809523D02*
X15155771Y-28904761D01*
X15155771Y-28904761D02*
X15155771Y-29095237D01*
X15155771Y-29095237D02*
X15203390Y-29190475D01*
X15203390Y-29190475D02*
X15251009Y-29238094D01*
X15251009Y-29238094D02*
X15346247Y-29285713D01*
X4679580Y-20642857D02*
X4727200Y-20690476D01*
X4727200Y-20690476D02*
X4774819Y-20833333D01*
X4774819Y-20833333D02*
X4774819Y-20928571D01*
X4774819Y-20928571D02*
X4727200Y-21071428D01*
X4727200Y-21071428D02*
X4631961Y-21166666D01*
X4631961Y-21166666D02*
X4536723Y-21214285D01*
X4536723Y-21214285D02*
X4346247Y-21261904D01*
X4346247Y-21261904D02*
X4203390Y-21261904D01*
X4203390Y-21261904D02*
X4012914Y-21214285D01*
X4012914Y-21214285D02*
X3917676Y-21166666D01*
X3917676Y-21166666D02*
X3822438Y-21071428D01*
X3822438Y-21071428D02*
X3774819Y-20928571D01*
X3774819Y-20928571D02*
X3774819Y-20833333D01*
X3774819Y-20833333D02*
X3822438Y-20690476D01*
X3822438Y-20690476D02*
X3870057Y-20642857D01*
X4774819Y-19690476D02*
X4774819Y-20261904D01*
X4774819Y-19976190D02*
X3774819Y-19976190D01*
X3774819Y-19976190D02*
X3917676Y-20071428D01*
X3917676Y-20071428D02*
X4012914Y-20166666D01*
X4012914Y-20166666D02*
X4060533Y-20261904D01*
X4774819Y-18738095D02*
X4774819Y-19309523D01*
X4774819Y-19023809D02*
X3774819Y-19023809D01*
X3774819Y-19023809D02*
X3917676Y-19119047D01*
X3917676Y-19119047D02*
X4012914Y-19214285D01*
X4012914Y-19214285D02*
X4060533Y-19309523D01*
X16661905Y-13454819D02*
X16661905Y-12454819D01*
X16661905Y-12454819D02*
X16900000Y-12454819D01*
X16900000Y-12454819D02*
X17042857Y-12502438D01*
X17042857Y-12502438D02*
X17138095Y-12597676D01*
X17138095Y-12597676D02*
X17185714Y-12692914D01*
X17185714Y-12692914D02*
X17233333Y-12883390D01*
X17233333Y-12883390D02*
X17233333Y-13026247D01*
X17233333Y-13026247D02*
X17185714Y-13216723D01*
X17185714Y-13216723D02*
X17138095Y-13311961D01*
X17138095Y-13311961D02*
X17042857Y-13407200D01*
X17042857Y-13407200D02*
X16900000Y-13454819D01*
X16900000Y-13454819D02*
X16661905Y-13454819D01*
X17614286Y-12550057D02*
X17661905Y-12502438D01*
X17661905Y-12502438D02*
X17757143Y-12454819D01*
X17757143Y-12454819D02*
X17995238Y-12454819D01*
X17995238Y-12454819D02*
X18090476Y-12502438D01*
X18090476Y-12502438D02*
X18138095Y-12550057D01*
X18138095Y-12550057D02*
X18185714Y-12645295D01*
X18185714Y-12645295D02*
X18185714Y-12740533D01*
X18185714Y-12740533D02*
X18138095Y-12883390D01*
X18138095Y-12883390D02*
X17566667Y-13454819D01*
X17566667Y-13454819D02*
X18185714Y-13454819D01*
X13238095Y-18054819D02*
X13238095Y-18864342D01*
X13238095Y-18864342D02*
X13285714Y-18959580D01*
X13285714Y-18959580D02*
X13333333Y-19007200D01*
X13333333Y-19007200D02*
X13428571Y-19054819D01*
X13428571Y-19054819D02*
X13619047Y-19054819D01*
X13619047Y-19054819D02*
X13714285Y-19007200D01*
X13714285Y-19007200D02*
X13761904Y-18959580D01*
X13761904Y-18959580D02*
X13809523Y-18864342D01*
X13809523Y-18864342D02*
X13809523Y-18054819D01*
X14809523Y-19054819D02*
X14238095Y-19054819D01*
X14523809Y-19054819D02*
X14523809Y-18054819D01*
X14523809Y-18054819D02*
X14428571Y-18197676D01*
X14428571Y-18197676D02*
X14333333Y-18292914D01*
X14333333Y-18292914D02*
X14238095Y-18340533D01*
X20954819Y-30666666D02*
X20478628Y-30999999D01*
X20954819Y-31238094D02*
X19954819Y-31238094D01*
X19954819Y-31238094D02*
X19954819Y-30857142D01*
X19954819Y-30857142D02*
X20002438Y-30761904D01*
X20002438Y-30761904D02*
X20050057Y-30714285D01*
X20050057Y-30714285D02*
X20145295Y-30666666D01*
X20145295Y-30666666D02*
X20288152Y-30666666D01*
X20288152Y-30666666D02*
X20383390Y-30714285D01*
X20383390Y-30714285D02*
X20431009Y-30761904D01*
X20431009Y-30761904D02*
X20478628Y-30857142D01*
X20478628Y-30857142D02*
X20478628Y-31238094D01*
X20288152Y-29809523D02*
X20954819Y-29809523D01*
X19907200Y-30047618D02*
X20621485Y-30285713D01*
X20621485Y-30285713D02*
X20621485Y-29666666D01*
X12359580Y-23166666D02*
X12407200Y-23214285D01*
X12407200Y-23214285D02*
X12454819Y-23357142D01*
X12454819Y-23357142D02*
X12454819Y-23452380D01*
X12454819Y-23452380D02*
X12407200Y-23595237D01*
X12407200Y-23595237D02*
X12311961Y-23690475D01*
X12311961Y-23690475D02*
X12216723Y-23738094D01*
X12216723Y-23738094D02*
X12026247Y-23785713D01*
X12026247Y-23785713D02*
X11883390Y-23785713D01*
X11883390Y-23785713D02*
X11692914Y-23738094D01*
X11692914Y-23738094D02*
X11597676Y-23690475D01*
X11597676Y-23690475D02*
X11502438Y-23595237D01*
X11502438Y-23595237D02*
X11454819Y-23452380D01*
X11454819Y-23452380D02*
X11454819Y-23357142D01*
X11454819Y-23357142D02*
X11502438Y-23214285D01*
X11502438Y-23214285D02*
X11550057Y-23166666D01*
X11454819Y-22261904D02*
X11454819Y-22738094D01*
X11454819Y-22738094D02*
X11931009Y-22785713D01*
X11931009Y-22785713D02*
X11883390Y-22738094D01*
X11883390Y-22738094D02*
X11835771Y-22642856D01*
X11835771Y-22642856D02*
X11835771Y-22404761D01*
X11835771Y-22404761D02*
X11883390Y-22309523D01*
X11883390Y-22309523D02*
X11931009Y-22261904D01*
X11931009Y-22261904D02*
X12026247Y-22214285D01*
X12026247Y-22214285D02*
X12264342Y-22214285D01*
X12264342Y-22214285D02*
X12359580Y-22261904D01*
X12359580Y-22261904D02*
X12407200Y-22309523D01*
X12407200Y-22309523D02*
X12454819Y-22404761D01*
X12454819Y-22404761D02*
X12454819Y-22642856D01*
X12454819Y-22642856D02*
X12407200Y-22738094D01*
X12407200Y-22738094D02*
X12359580Y-22785713D01*
X15333333Y-26954819D02*
X15000000Y-26478628D01*
X14761905Y-26954819D02*
X14761905Y-25954819D01*
X14761905Y-25954819D02*
X15142857Y-25954819D01*
X15142857Y-25954819D02*
X15238095Y-26002438D01*
X15238095Y-26002438D02*
X15285714Y-26050057D01*
X15285714Y-26050057D02*
X15333333Y-26145295D01*
X15333333Y-26145295D02*
X15333333Y-26288152D01*
X15333333Y-26288152D02*
X15285714Y-26383390D01*
X15285714Y-26383390D02*
X15238095Y-26431009D01*
X15238095Y-26431009D02*
X15142857Y-26478628D01*
X15142857Y-26478628D02*
X14761905Y-26478628D01*
X16238095Y-25954819D02*
X15761905Y-25954819D01*
X15761905Y-25954819D02*
X15714286Y-26431009D01*
X15714286Y-26431009D02*
X15761905Y-26383390D01*
X15761905Y-26383390D02*
X15857143Y-26335771D01*
X15857143Y-26335771D02*
X16095238Y-26335771D01*
X16095238Y-26335771D02*
X16190476Y-26383390D01*
X16190476Y-26383390D02*
X16238095Y-26431009D01*
X16238095Y-26431009D02*
X16285714Y-26526247D01*
X16285714Y-26526247D02*
X16285714Y-26764342D01*
X16285714Y-26764342D02*
X16238095Y-26859580D01*
X16238095Y-26859580D02*
X16190476Y-26907200D01*
X16190476Y-26907200D02*
X16095238Y-26954819D01*
X16095238Y-26954819D02*
X15857143Y-26954819D01*
X15857143Y-26954819D02*
X15761905Y-26907200D01*
X15761905Y-26907200D02*
X15714286Y-26859580D01*
X14238095Y-454819D02*
X14238095Y-1264342D01*
X14238095Y-1264342D02*
X14285714Y-1359580D01*
X14285714Y-1359580D02*
X14333333Y-1407200D01*
X14333333Y-1407200D02*
X14428571Y-1454819D01*
X14428571Y-1454819D02*
X14619047Y-1454819D01*
X14619047Y-1454819D02*
X14714285Y-1407200D01*
X14714285Y-1407200D02*
X14761904Y-1359580D01*
X14761904Y-1359580D02*
X14809523Y-1264342D01*
X14809523Y-1264342D02*
X14809523Y-454819D01*
X15238095Y-550057D02*
X15285714Y-502438D01*
X15285714Y-502438D02*
X15380952Y-454819D01*
X15380952Y-454819D02*
X15619047Y-454819D01*
X15619047Y-454819D02*
X15714285Y-502438D01*
X15714285Y-502438D02*
X15761904Y-550057D01*
X15761904Y-550057D02*
X15809523Y-645295D01*
X15809523Y-645295D02*
X15809523Y-740533D01*
X15809523Y-740533D02*
X15761904Y-883390D01*
X15761904Y-883390D02*
X15190476Y-1454819D01*
X15190476Y-1454819D02*
X15809523Y-1454819D01*
X10454819Y-23166666D02*
X9978628Y-23499999D01*
X10454819Y-23738094D02*
X9454819Y-23738094D01*
X9454819Y-23738094D02*
X9454819Y-23357142D01*
X9454819Y-23357142D02*
X9502438Y-23261904D01*
X9502438Y-23261904D02*
X9550057Y-23214285D01*
X9550057Y-23214285D02*
X9645295Y-23166666D01*
X9645295Y-23166666D02*
X9788152Y-23166666D01*
X9788152Y-23166666D02*
X9883390Y-23214285D01*
X9883390Y-23214285D02*
X9931009Y-23261904D01*
X9931009Y-23261904D02*
X9978628Y-23357142D01*
X9978628Y-23357142D02*
X9978628Y-23738094D01*
X10454819Y-22214285D02*
X10454819Y-22785713D01*
X10454819Y-22499999D02*
X9454819Y-22499999D01*
X9454819Y-22499999D02*
X9597676Y-22595237D01*
X9597676Y-22595237D02*
X9692914Y-22690475D01*
X9692914Y-22690475D02*
X9740533Y-22785713D01*
X27039580Y-5166666D02*
X27087200Y-5214285D01*
X27087200Y-5214285D02*
X27134819Y-5357142D01*
X27134819Y-5357142D02*
X27134819Y-5452380D01*
X27134819Y-5452380D02*
X27087200Y-5595237D01*
X27087200Y-5595237D02*
X26991961Y-5690475D01*
X26991961Y-5690475D02*
X26896723Y-5738094D01*
X26896723Y-5738094D02*
X26706247Y-5785713D01*
X26706247Y-5785713D02*
X26563390Y-5785713D01*
X26563390Y-5785713D02*
X26372914Y-5738094D01*
X26372914Y-5738094D02*
X26277676Y-5690475D01*
X26277676Y-5690475D02*
X26182438Y-5595237D01*
X26182438Y-5595237D02*
X26134819Y-5452380D01*
X26134819Y-5452380D02*
X26134819Y-5357142D01*
X26134819Y-5357142D02*
X26182438Y-5214285D01*
X26182438Y-5214285D02*
X26230057Y-5166666D01*
X26230057Y-4785713D02*
X26182438Y-4738094D01*
X26182438Y-4738094D02*
X26134819Y-4642856D01*
X26134819Y-4642856D02*
X26134819Y-4404761D01*
X26134819Y-4404761D02*
X26182438Y-4309523D01*
X26182438Y-4309523D02*
X26230057Y-4261904D01*
X26230057Y-4261904D02*
X26325295Y-4214285D01*
X26325295Y-4214285D02*
X26420533Y-4214285D01*
X26420533Y-4214285D02*
X26563390Y-4261904D01*
X26563390Y-4261904D02*
X27134819Y-4833332D01*
X27134819Y-4833332D02*
X27134819Y-4214285D01*
X24359580Y-19666666D02*
X24407200Y-19714285D01*
X24407200Y-19714285D02*
X24454819Y-19857142D01*
X24454819Y-19857142D02*
X24454819Y-19952380D01*
X24454819Y-19952380D02*
X24407200Y-20095237D01*
X24407200Y-20095237D02*
X24311961Y-20190475D01*
X24311961Y-20190475D02*
X24216723Y-20238094D01*
X24216723Y-20238094D02*
X24026247Y-20285713D01*
X24026247Y-20285713D02*
X23883390Y-20285713D01*
X23883390Y-20285713D02*
X23692914Y-20238094D01*
X23692914Y-20238094D02*
X23597676Y-20190475D01*
X23597676Y-20190475D02*
X23502438Y-20095237D01*
X23502438Y-20095237D02*
X23454819Y-19952380D01*
X23454819Y-19952380D02*
X23454819Y-19857142D01*
X23454819Y-19857142D02*
X23502438Y-19714285D01*
X23502438Y-19714285D02*
X23550057Y-19666666D01*
X24454819Y-19190475D02*
X24454819Y-18999999D01*
X24454819Y-18999999D02*
X24407200Y-18904761D01*
X24407200Y-18904761D02*
X24359580Y-18857142D01*
X24359580Y-18857142D02*
X24216723Y-18761904D01*
X24216723Y-18761904D02*
X24026247Y-18714285D01*
X24026247Y-18714285D02*
X23645295Y-18714285D01*
X23645295Y-18714285D02*
X23550057Y-18761904D01*
X23550057Y-18761904D02*
X23502438Y-18809523D01*
X23502438Y-18809523D02*
X23454819Y-18904761D01*
X23454819Y-18904761D02*
X23454819Y-19095237D01*
X23454819Y-19095237D02*
X23502438Y-19190475D01*
X23502438Y-19190475D02*
X23550057Y-19238094D01*
X23550057Y-19238094D02*
X23645295Y-19285713D01*
X23645295Y-19285713D02*
X23883390Y-19285713D01*
X23883390Y-19285713D02*
X23978628Y-19238094D01*
X23978628Y-19238094D02*
X24026247Y-19190475D01*
X24026247Y-19190475D02*
X24073866Y-19095237D01*
X24073866Y-19095237D02*
X24073866Y-18904761D01*
X24073866Y-18904761D02*
X24026247Y-18809523D01*
X24026247Y-18809523D02*
X23978628Y-18761904D01*
X23978628Y-18761904D02*
X23883390Y-18714285D01*
D15*
%TO.C,R8*%
X26772936Y-20265000D02*
X27227064Y-20265000D01*
X26772936Y-21735000D02*
X27227064Y-21735000D01*
%TO.C,D1*%
X30000000Y-5640000D02*
X28000000Y-5640000D01*
X30000000Y-5640000D02*
X30000000Y-9650000D01*
X28000000Y-5640000D02*
X28000000Y-9650000D01*
%TO.C,R2*%
X7477500Y-20237258D02*
X7477500Y-19762742D01*
X8522500Y-20237258D02*
X8522500Y-19762742D01*
%TO.C,C4*%
X19738748Y-8264999D02*
X20261252Y-8264999D01*
X19738748Y-9734999D02*
X20261252Y-9734999D01*
%TO.C,R3*%
X25237258Y-27022500D02*
X24762742Y-27022500D01*
X25237258Y-25977500D02*
X24762742Y-25977500D01*
%TO.C,J5*%
X30730000Y-11730000D02*
X32000000Y-11730000D01*
X30730000Y-13000000D02*
X30730000Y-11730000D01*
X33042929Y-15160000D02*
X33440000Y-15160000D01*
X33042929Y-15920000D02*
X33440000Y-15920000D01*
X33042929Y-17700000D02*
X33440000Y-17700000D01*
X33042929Y-18460000D02*
X33440000Y-18460000D01*
X33110000Y-12620000D02*
X33440000Y-12620000D01*
X33110000Y-13380000D02*
X33440000Y-13380000D01*
X33440000Y-11670000D02*
X33440000Y-19410000D01*
X33440000Y-14270000D02*
X36100000Y-14270000D01*
X33440000Y-16810000D02*
X36100000Y-16810000D01*
X33440000Y-19410000D02*
X36100000Y-19410000D01*
X36100000Y-11670000D02*
X33440000Y-11670000D01*
X36100000Y-12620000D02*
X42100000Y-12620000D01*
X36100000Y-12680000D02*
X42100000Y-12680000D01*
X36100000Y-12800000D02*
X42100000Y-12800000D01*
X36100000Y-12920000D02*
X42100000Y-12920000D01*
X36100000Y-13040000D02*
X42100000Y-13040000D01*
X36100000Y-13160000D02*
X42100000Y-13160000D01*
X36100000Y-13280000D02*
X42100000Y-13280000D01*
X36100000Y-15160000D02*
X42100000Y-15160000D01*
X36100000Y-17700000D02*
X42100000Y-17700000D01*
X36100000Y-19410000D02*
X36100000Y-11670000D01*
X42100000Y-12620000D02*
X42100000Y-13380000D01*
X42100000Y-13380000D02*
X36100000Y-13380000D01*
X42100000Y-15160000D02*
X42100000Y-15920000D01*
X42100000Y-15920000D02*
X36100000Y-15920000D01*
X42100000Y-17700000D02*
X42100000Y-18460000D01*
X42100000Y-18460000D02*
X36100000Y-18460000D01*
%TO.C,C7*%
X23085001Y-27238748D02*
X23085001Y-27761252D01*
X21615001Y-27238748D02*
X21615001Y-27761252D01*
%TO.C,C3*%
X19738748Y-10265000D02*
X20261252Y-10265000D01*
X19738748Y-11735000D02*
X20261252Y-11735000D01*
%TO.C,R7*%
X21477500Y-22237258D02*
X21477500Y-21762742D01*
X22522500Y-22237258D02*
X22522500Y-21762742D01*
%TO.C,C8*%
X11315000Y-16311253D02*
X11315000Y-15788749D01*
X12785000Y-16311253D02*
X12785000Y-15788749D01*
%TO.C,R9*%
X24477500Y-31737258D02*
X24477500Y-31262742D01*
X25522500Y-31737258D02*
X25522500Y-31262742D01*
%TO.C,R6*%
X14522500Y-15762742D02*
X14522500Y-16237258D01*
X13477500Y-15762742D02*
X13477500Y-16237258D01*
%TO.C,R10*%
X23262742Y-12477500D02*
X23737258Y-12477500D01*
X23262742Y-13522500D02*
X23737258Y-13522500D01*
%TO.C,C1*%
X19140580Y-18510000D02*
X18859420Y-18510000D01*
X19140580Y-17490000D02*
X18859420Y-17490000D01*
%TO.C,C6*%
X16265000Y-29761252D02*
X16265000Y-29238748D01*
X17735000Y-29761252D02*
X17735000Y-29238748D01*
%TO.C,C11*%
X5265000Y-20261252D02*
X5265000Y-19738748D01*
X6735000Y-20261252D02*
X6735000Y-19738748D01*
%TO.C,D2*%
X21485000Y-13735000D02*
X21485000Y-12265000D01*
X21485000Y-12265000D02*
X19200000Y-12265000D01*
X19200000Y-13735000D02*
X21485000Y-13735000D01*
%TO.C,U1*%
X17000000Y-19440000D02*
X13550000Y-19440000D01*
X17000000Y-19440000D02*
X18950000Y-19440000D01*
X17000000Y-24560000D02*
X15050000Y-24560000D01*
X17000000Y-24560000D02*
X18950000Y-24560000D01*
%TO.C,R4*%
X20872499Y-27262742D02*
X20872499Y-27737258D01*
X19827499Y-27262742D02*
X19827499Y-27737258D01*
%TO.C,C5*%
X11490001Y-20140580D02*
X11490001Y-19859420D01*
X12510001Y-20140580D02*
X12510001Y-19859420D01*
%TO.C,R5*%
X18237258Y-27022500D02*
X17762742Y-27022500D01*
X18237258Y-25977500D02*
X17762742Y-25977500D01*
%TO.C,U2*%
X22600000Y-7410000D02*
X16590000Y-7410000D01*
X20350000Y-590000D02*
X16590000Y-590000D01*
X16590000Y-7410000D02*
X16590000Y-6150000D01*
X16590000Y-590000D02*
X16590000Y-1850000D01*
%TO.C,R1*%
X9477500Y-20237258D02*
X9477500Y-19762742D01*
X10522500Y-20237258D02*
X10522500Y-19762742D01*
%TO.C,C2*%
X25735000Y-4738748D02*
X25735000Y-5261252D01*
X24265000Y-4738748D02*
X24265000Y-5261252D01*
%TO.C,C9*%
X23490001Y-22140580D02*
X23490001Y-21859420D01*
X24510001Y-22140580D02*
X24510001Y-21859420D01*
%TD*%
M02*
