%TF.GenerationSoftware,KiCad,Pcbnew,7.0.7*%
%TF.CreationDate,2024-02-20T22:27:51-08:00*%
%TF.ProjectId,hb100_amplifier,68623130-305f-4616-9d70-6c6966696572,A*%
%TF.SameCoordinates,PX42c1d80PY1c9c380*%
%TF.FileFunction,AssemblyDrawing,Top*%
%FSLAX46Y46*%
G04 Gerber Fmt 4.6, Leading zero omitted, Abs format (unit mm)*
G04 Created by KiCad (PCBNEW 7.0.7) date 2024-02-20 22:27:51*
%MOMM*%
%LPD*%
G01*
G04 APERTURE LIST*
%ADD10C,0.100000*%
%ADD11C,0.150000*%
%ADD12C,0.300000*%
%ADD13C,0.400000*%
%ADD14C,0.080000*%
%ADD15C,0.060000*%
%ADD16C,0.120000*%
G04 APERTURE END LIST*
D10*
D11*
X89400000Y-141900000D02*
X197400000Y-141900000D01*
X197400000Y-173900000D01*
X89400000Y-173900000D01*
X89400000Y-141900000D01*
D10*
D11*
X-60000000Y20000000D02*
X199400000Y20000000D01*
X199400000Y-175900000D01*
X-60000000Y-175900000D01*
X-60000000Y20000000D01*
D10*
D11*
X-58000000Y18000000D02*
X197400000Y18000000D01*
X197400000Y-173900000D01*
X-58000000Y-173900000D01*
X-58000000Y18000000D01*
D10*
D11*
X-10000000Y18000000D02*
X-10000000Y20000000D01*
D10*
D11*
X40000000Y18000000D02*
X40000000Y20000000D01*
D10*
D11*
X90000000Y18000000D02*
X90000000Y20000000D01*
D10*
D11*
X140000000Y18000000D02*
X140000000Y20000000D01*
D10*
D11*
X190000000Y18000000D02*
X190000000Y20000000D01*
D10*
D11*
X-33910840Y18406396D02*
X-34653697Y18406396D01*
X-34282269Y18406396D02*
X-34282269Y19706396D01*
X-34282269Y19706396D02*
X-34406078Y19520681D01*
X-34406078Y19520681D02*
X-34529888Y19396872D01*
X-34529888Y19396872D02*
X-34653697Y19334967D01*
D10*
D11*
X15346303Y19582586D02*
X15408207Y19644491D01*
X15408207Y19644491D02*
X15532017Y19706396D01*
X15532017Y19706396D02*
X15841541Y19706396D01*
X15841541Y19706396D02*
X15965350Y19644491D01*
X15965350Y19644491D02*
X16027255Y19582586D01*
X16027255Y19582586D02*
X16089160Y19458777D01*
X16089160Y19458777D02*
X16089160Y19334967D01*
X16089160Y19334967D02*
X16027255Y19149253D01*
X16027255Y19149253D02*
X15284398Y18406396D01*
X15284398Y18406396D02*
X16089160Y18406396D01*
D10*
D11*
X65284398Y19706396D02*
X66089160Y19706396D01*
X66089160Y19706396D02*
X65655826Y19211158D01*
X65655826Y19211158D02*
X65841541Y19211158D01*
X65841541Y19211158D02*
X65965350Y19149253D01*
X65965350Y19149253D02*
X66027255Y19087348D01*
X66027255Y19087348D02*
X66089160Y18963539D01*
X66089160Y18963539D02*
X66089160Y18654015D01*
X66089160Y18654015D02*
X66027255Y18530205D01*
X66027255Y18530205D02*
X65965350Y18468300D01*
X65965350Y18468300D02*
X65841541Y18406396D01*
X65841541Y18406396D02*
X65470112Y18406396D01*
X65470112Y18406396D02*
X65346303Y18468300D01*
X65346303Y18468300D02*
X65284398Y18530205D01*
D10*
D11*
X115965350Y19273062D02*
X115965350Y18406396D01*
X115655826Y19768300D02*
X115346303Y18839729D01*
X115346303Y18839729D02*
X116151064Y18839729D01*
D10*
D11*
X166027255Y19706396D02*
X165408207Y19706396D01*
X165408207Y19706396D02*
X165346303Y19087348D01*
X165346303Y19087348D02*
X165408207Y19149253D01*
X165408207Y19149253D02*
X165532017Y19211158D01*
X165532017Y19211158D02*
X165841541Y19211158D01*
X165841541Y19211158D02*
X165965350Y19149253D01*
X165965350Y19149253D02*
X166027255Y19087348D01*
X166027255Y19087348D02*
X166089160Y18963539D01*
X166089160Y18963539D02*
X166089160Y18654015D01*
X166089160Y18654015D02*
X166027255Y18530205D01*
X166027255Y18530205D02*
X165965350Y18468300D01*
X165965350Y18468300D02*
X165841541Y18406396D01*
X165841541Y18406396D02*
X165532017Y18406396D01*
X165532017Y18406396D02*
X165408207Y18468300D01*
X165408207Y18468300D02*
X165346303Y18530205D01*
D10*
D11*
X-10000000Y-173900000D02*
X-10000000Y-175900000D01*
D10*
D11*
X40000000Y-173900000D02*
X40000000Y-175900000D01*
D10*
D11*
X90000000Y-173900000D02*
X90000000Y-175900000D01*
D10*
D11*
X140000000Y-173900000D02*
X140000000Y-175900000D01*
D10*
D11*
X190000000Y-173900000D02*
X190000000Y-175900000D01*
D10*
D11*
X-33910840Y-175493604D02*
X-34653697Y-175493604D01*
X-34282269Y-175493604D02*
X-34282269Y-174193604D01*
X-34282269Y-174193604D02*
X-34406078Y-174379319D01*
X-34406078Y-174379319D02*
X-34529888Y-174503128D01*
X-34529888Y-174503128D02*
X-34653697Y-174565033D01*
D10*
D11*
X15346303Y-174317414D02*
X15408207Y-174255509D01*
X15408207Y-174255509D02*
X15532017Y-174193604D01*
X15532017Y-174193604D02*
X15841541Y-174193604D01*
X15841541Y-174193604D02*
X15965350Y-174255509D01*
X15965350Y-174255509D02*
X16027255Y-174317414D01*
X16027255Y-174317414D02*
X16089160Y-174441223D01*
X16089160Y-174441223D02*
X16089160Y-174565033D01*
X16089160Y-174565033D02*
X16027255Y-174750747D01*
X16027255Y-174750747D02*
X15284398Y-175493604D01*
X15284398Y-175493604D02*
X16089160Y-175493604D01*
D10*
D11*
X65284398Y-174193604D02*
X66089160Y-174193604D01*
X66089160Y-174193604D02*
X65655826Y-174688842D01*
X65655826Y-174688842D02*
X65841541Y-174688842D01*
X65841541Y-174688842D02*
X65965350Y-174750747D01*
X65965350Y-174750747D02*
X66027255Y-174812652D01*
X66027255Y-174812652D02*
X66089160Y-174936461D01*
X66089160Y-174936461D02*
X66089160Y-175245985D01*
X66089160Y-175245985D02*
X66027255Y-175369795D01*
X66027255Y-175369795D02*
X65965350Y-175431700D01*
X65965350Y-175431700D02*
X65841541Y-175493604D01*
X65841541Y-175493604D02*
X65470112Y-175493604D01*
X65470112Y-175493604D02*
X65346303Y-175431700D01*
X65346303Y-175431700D02*
X65284398Y-175369795D01*
D10*
D11*
X115965350Y-174626938D02*
X115965350Y-175493604D01*
X115655826Y-174131700D02*
X115346303Y-175060271D01*
X115346303Y-175060271D02*
X116151064Y-175060271D01*
D10*
D11*
X166027255Y-174193604D02*
X165408207Y-174193604D01*
X165408207Y-174193604D02*
X165346303Y-174812652D01*
X165346303Y-174812652D02*
X165408207Y-174750747D01*
X165408207Y-174750747D02*
X165532017Y-174688842D01*
X165532017Y-174688842D02*
X165841541Y-174688842D01*
X165841541Y-174688842D02*
X165965350Y-174750747D01*
X165965350Y-174750747D02*
X166027255Y-174812652D01*
X166027255Y-174812652D02*
X166089160Y-174936461D01*
X166089160Y-174936461D02*
X166089160Y-175245985D01*
X166089160Y-175245985D02*
X166027255Y-175369795D01*
X166027255Y-175369795D02*
X165965350Y-175431700D01*
X165965350Y-175431700D02*
X165841541Y-175493604D01*
X165841541Y-175493604D02*
X165532017Y-175493604D01*
X165532017Y-175493604D02*
X165408207Y-175431700D01*
X165408207Y-175431700D02*
X165346303Y-175369795D01*
D10*
D11*
X-60000000Y-30000000D02*
X-58000000Y-30000000D01*
D10*
D11*
X-60000000Y-80000000D02*
X-58000000Y-80000000D01*
D10*
D11*
X-60000000Y-130000000D02*
X-58000000Y-130000000D01*
D10*
D11*
X-59309524Y-5222176D02*
X-58690477Y-5222176D01*
X-59433334Y-5593604D02*
X-59000001Y-4293604D01*
X-59000001Y-4293604D02*
X-58566667Y-5593604D01*
D10*
D11*
X-58907143Y-54912652D02*
X-58721429Y-54974557D01*
X-58721429Y-54974557D02*
X-58659524Y-55036461D01*
X-58659524Y-55036461D02*
X-58597620Y-55160271D01*
X-58597620Y-55160271D02*
X-58597620Y-55345985D01*
X-58597620Y-55345985D02*
X-58659524Y-55469795D01*
X-58659524Y-55469795D02*
X-58721429Y-55531700D01*
X-58721429Y-55531700D02*
X-58845239Y-55593604D01*
X-58845239Y-55593604D02*
X-59340477Y-55593604D01*
X-59340477Y-55593604D02*
X-59340477Y-54293604D01*
X-59340477Y-54293604D02*
X-58907143Y-54293604D01*
X-58907143Y-54293604D02*
X-58783334Y-54355509D01*
X-58783334Y-54355509D02*
X-58721429Y-54417414D01*
X-58721429Y-54417414D02*
X-58659524Y-54541223D01*
X-58659524Y-54541223D02*
X-58659524Y-54665033D01*
X-58659524Y-54665033D02*
X-58721429Y-54788842D01*
X-58721429Y-54788842D02*
X-58783334Y-54850747D01*
X-58783334Y-54850747D02*
X-58907143Y-54912652D01*
X-58907143Y-54912652D02*
X-59340477Y-54912652D01*
D10*
D11*
X-58597620Y-105469795D02*
X-58659524Y-105531700D01*
X-58659524Y-105531700D02*
X-58845239Y-105593604D01*
X-58845239Y-105593604D02*
X-58969048Y-105593604D01*
X-58969048Y-105593604D02*
X-59154762Y-105531700D01*
X-59154762Y-105531700D02*
X-59278572Y-105407890D01*
X-59278572Y-105407890D02*
X-59340477Y-105284080D01*
X-59340477Y-105284080D02*
X-59402381Y-105036461D01*
X-59402381Y-105036461D02*
X-59402381Y-104850747D01*
X-59402381Y-104850747D02*
X-59340477Y-104603128D01*
X-59340477Y-104603128D02*
X-59278572Y-104479319D01*
X-59278572Y-104479319D02*
X-59154762Y-104355509D01*
X-59154762Y-104355509D02*
X-58969048Y-104293604D01*
X-58969048Y-104293604D02*
X-58845239Y-104293604D01*
X-58845239Y-104293604D02*
X-58659524Y-104355509D01*
X-58659524Y-104355509D02*
X-58597620Y-104417414D01*
D10*
D11*
X-59340477Y-155593604D02*
X-59340477Y-154293604D01*
X-59340477Y-154293604D02*
X-59030953Y-154293604D01*
X-59030953Y-154293604D02*
X-58845239Y-154355509D01*
X-58845239Y-154355509D02*
X-58721429Y-154479319D01*
X-58721429Y-154479319D02*
X-58659524Y-154603128D01*
X-58659524Y-154603128D02*
X-58597620Y-154850747D01*
X-58597620Y-154850747D02*
X-58597620Y-155036461D01*
X-58597620Y-155036461D02*
X-58659524Y-155284080D01*
X-58659524Y-155284080D02*
X-58721429Y-155407890D01*
X-58721429Y-155407890D02*
X-58845239Y-155531700D01*
X-58845239Y-155531700D02*
X-59030953Y-155593604D01*
X-59030953Y-155593604D02*
X-59340477Y-155593604D01*
D10*
D11*
X199400000Y-30000000D02*
X197400000Y-30000000D01*
D10*
D11*
X199400000Y-80000000D02*
X197400000Y-80000000D01*
D10*
D11*
X199400000Y-130000000D02*
X197400000Y-130000000D01*
D10*
D11*
X198090476Y-5222176D02*
X198709523Y-5222176D01*
X197966666Y-5593604D02*
X198399999Y-4293604D01*
X198399999Y-4293604D02*
X198833333Y-5593604D01*
D10*
D11*
X198492857Y-54912652D02*
X198678571Y-54974557D01*
X198678571Y-54974557D02*
X198740476Y-55036461D01*
X198740476Y-55036461D02*
X198802380Y-55160271D01*
X198802380Y-55160271D02*
X198802380Y-55345985D01*
X198802380Y-55345985D02*
X198740476Y-55469795D01*
X198740476Y-55469795D02*
X198678571Y-55531700D01*
X198678571Y-55531700D02*
X198554761Y-55593604D01*
X198554761Y-55593604D02*
X198059523Y-55593604D01*
X198059523Y-55593604D02*
X198059523Y-54293604D01*
X198059523Y-54293604D02*
X198492857Y-54293604D01*
X198492857Y-54293604D02*
X198616666Y-54355509D01*
X198616666Y-54355509D02*
X198678571Y-54417414D01*
X198678571Y-54417414D02*
X198740476Y-54541223D01*
X198740476Y-54541223D02*
X198740476Y-54665033D01*
X198740476Y-54665033D02*
X198678571Y-54788842D01*
X198678571Y-54788842D02*
X198616666Y-54850747D01*
X198616666Y-54850747D02*
X198492857Y-54912652D01*
X198492857Y-54912652D02*
X198059523Y-54912652D01*
D10*
D11*
X198802380Y-105469795D02*
X198740476Y-105531700D01*
X198740476Y-105531700D02*
X198554761Y-105593604D01*
X198554761Y-105593604D02*
X198430952Y-105593604D01*
X198430952Y-105593604D02*
X198245238Y-105531700D01*
X198245238Y-105531700D02*
X198121428Y-105407890D01*
X198121428Y-105407890D02*
X198059523Y-105284080D01*
X198059523Y-105284080D02*
X197997619Y-105036461D01*
X197997619Y-105036461D02*
X197997619Y-104850747D01*
X197997619Y-104850747D02*
X198059523Y-104603128D01*
X198059523Y-104603128D02*
X198121428Y-104479319D01*
X198121428Y-104479319D02*
X198245238Y-104355509D01*
X198245238Y-104355509D02*
X198430952Y-104293604D01*
X198430952Y-104293604D02*
X198554761Y-104293604D01*
X198554761Y-104293604D02*
X198740476Y-104355509D01*
X198740476Y-104355509D02*
X198802380Y-104417414D01*
D10*
D11*
X198059523Y-155593604D02*
X198059523Y-154293604D01*
X198059523Y-154293604D02*
X198369047Y-154293604D01*
X198369047Y-154293604D02*
X198554761Y-154355509D01*
X198554761Y-154355509D02*
X198678571Y-154479319D01*
X198678571Y-154479319D02*
X198740476Y-154603128D01*
X198740476Y-154603128D02*
X198802380Y-154850747D01*
X198802380Y-154850747D02*
X198802380Y-155036461D01*
X198802380Y-155036461D02*
X198740476Y-155284080D01*
X198740476Y-155284080D02*
X198678571Y-155407890D01*
X198678571Y-155407890D02*
X198554761Y-155531700D01*
X198554761Y-155531700D02*
X198369047Y-155593604D01*
X198369047Y-155593604D02*
X198059523Y-155593604D01*
D10*
D11*
X112855826Y-169686128D02*
X112855826Y-168186128D01*
X112855826Y-168186128D02*
X113212969Y-168186128D01*
X113212969Y-168186128D02*
X113427255Y-168257557D01*
X113427255Y-168257557D02*
X113570112Y-168400414D01*
X113570112Y-168400414D02*
X113641541Y-168543271D01*
X113641541Y-168543271D02*
X113712969Y-168828985D01*
X113712969Y-168828985D02*
X113712969Y-169043271D01*
X113712969Y-169043271D02*
X113641541Y-169328985D01*
X113641541Y-169328985D02*
X113570112Y-169471842D01*
X113570112Y-169471842D02*
X113427255Y-169614700D01*
X113427255Y-169614700D02*
X113212969Y-169686128D01*
X113212969Y-169686128D02*
X112855826Y-169686128D01*
X114998684Y-169686128D02*
X114998684Y-168900414D01*
X114998684Y-168900414D02*
X114927255Y-168757557D01*
X114927255Y-168757557D02*
X114784398Y-168686128D01*
X114784398Y-168686128D02*
X114498684Y-168686128D01*
X114498684Y-168686128D02*
X114355826Y-168757557D01*
X114998684Y-169614700D02*
X114855826Y-169686128D01*
X114855826Y-169686128D02*
X114498684Y-169686128D01*
X114498684Y-169686128D02*
X114355826Y-169614700D01*
X114355826Y-169614700D02*
X114284398Y-169471842D01*
X114284398Y-169471842D02*
X114284398Y-169328985D01*
X114284398Y-169328985D02*
X114355826Y-169186128D01*
X114355826Y-169186128D02*
X114498684Y-169114700D01*
X114498684Y-169114700D02*
X114855826Y-169114700D01*
X114855826Y-169114700D02*
X114998684Y-169043271D01*
X115498684Y-168686128D02*
X116070112Y-168686128D01*
X115712969Y-168186128D02*
X115712969Y-169471842D01*
X115712969Y-169471842D02*
X115784398Y-169614700D01*
X115784398Y-169614700D02*
X115927255Y-169686128D01*
X115927255Y-169686128D02*
X116070112Y-169686128D01*
X117141541Y-169614700D02*
X116998684Y-169686128D01*
X116998684Y-169686128D02*
X116712970Y-169686128D01*
X116712970Y-169686128D02*
X116570112Y-169614700D01*
X116570112Y-169614700D02*
X116498684Y-169471842D01*
X116498684Y-169471842D02*
X116498684Y-168900414D01*
X116498684Y-168900414D02*
X116570112Y-168757557D01*
X116570112Y-168757557D02*
X116712970Y-168686128D01*
X116712970Y-168686128D02*
X116998684Y-168686128D01*
X116998684Y-168686128D02*
X117141541Y-168757557D01*
X117141541Y-168757557D02*
X117212970Y-168900414D01*
X117212970Y-168900414D02*
X117212970Y-169043271D01*
X117212970Y-169043271D02*
X116498684Y-169186128D01*
X117855826Y-169543271D02*
X117927255Y-169614700D01*
X117927255Y-169614700D02*
X117855826Y-169686128D01*
X117855826Y-169686128D02*
X117784398Y-169614700D01*
X117784398Y-169614700D02*
X117855826Y-169543271D01*
X117855826Y-169543271D02*
X117855826Y-169686128D01*
X117855826Y-168757557D02*
X117927255Y-168828985D01*
X117927255Y-168828985D02*
X117855826Y-168900414D01*
X117855826Y-168900414D02*
X117784398Y-168828985D01*
X117784398Y-168828985D02*
X117855826Y-168757557D01*
X117855826Y-168757557D02*
X117855826Y-168900414D01*
X119641541Y-168328985D02*
X119712969Y-168257557D01*
X119712969Y-168257557D02*
X119855827Y-168186128D01*
X119855827Y-168186128D02*
X120212969Y-168186128D01*
X120212969Y-168186128D02*
X120355827Y-168257557D01*
X120355827Y-168257557D02*
X120427255Y-168328985D01*
X120427255Y-168328985D02*
X120498684Y-168471842D01*
X120498684Y-168471842D02*
X120498684Y-168614700D01*
X120498684Y-168614700D02*
X120427255Y-168828985D01*
X120427255Y-168828985D02*
X119570112Y-169686128D01*
X119570112Y-169686128D02*
X120498684Y-169686128D01*
X121427255Y-168186128D02*
X121570112Y-168186128D01*
X121570112Y-168186128D02*
X121712969Y-168257557D01*
X121712969Y-168257557D02*
X121784398Y-168328985D01*
X121784398Y-168328985D02*
X121855826Y-168471842D01*
X121855826Y-168471842D02*
X121927255Y-168757557D01*
X121927255Y-168757557D02*
X121927255Y-169114700D01*
X121927255Y-169114700D02*
X121855826Y-169400414D01*
X121855826Y-169400414D02*
X121784398Y-169543271D01*
X121784398Y-169543271D02*
X121712969Y-169614700D01*
X121712969Y-169614700D02*
X121570112Y-169686128D01*
X121570112Y-169686128D02*
X121427255Y-169686128D01*
X121427255Y-169686128D02*
X121284398Y-169614700D01*
X121284398Y-169614700D02*
X121212969Y-169543271D01*
X121212969Y-169543271D02*
X121141540Y-169400414D01*
X121141540Y-169400414D02*
X121070112Y-169114700D01*
X121070112Y-169114700D02*
X121070112Y-168757557D01*
X121070112Y-168757557D02*
X121141540Y-168471842D01*
X121141540Y-168471842D02*
X121212969Y-168328985D01*
X121212969Y-168328985D02*
X121284398Y-168257557D01*
X121284398Y-168257557D02*
X121427255Y-168186128D01*
X122498683Y-168328985D02*
X122570111Y-168257557D01*
X122570111Y-168257557D02*
X122712969Y-168186128D01*
X122712969Y-168186128D02*
X123070111Y-168186128D01*
X123070111Y-168186128D02*
X123212969Y-168257557D01*
X123212969Y-168257557D02*
X123284397Y-168328985D01*
X123284397Y-168328985D02*
X123355826Y-168471842D01*
X123355826Y-168471842D02*
X123355826Y-168614700D01*
X123355826Y-168614700D02*
X123284397Y-168828985D01*
X123284397Y-168828985D02*
X122427254Y-169686128D01*
X122427254Y-169686128D02*
X123355826Y-169686128D01*
X124641540Y-168686128D02*
X124641540Y-169686128D01*
X124284397Y-168114700D02*
X123927254Y-169186128D01*
X123927254Y-169186128D02*
X124855825Y-169186128D01*
X125427253Y-169114700D02*
X126570111Y-169114700D01*
X127570111Y-168186128D02*
X127712968Y-168186128D01*
X127712968Y-168186128D02*
X127855825Y-168257557D01*
X127855825Y-168257557D02*
X127927254Y-168328985D01*
X127927254Y-168328985D02*
X127998682Y-168471842D01*
X127998682Y-168471842D02*
X128070111Y-168757557D01*
X128070111Y-168757557D02*
X128070111Y-169114700D01*
X128070111Y-169114700D02*
X127998682Y-169400414D01*
X127998682Y-169400414D02*
X127927254Y-169543271D01*
X127927254Y-169543271D02*
X127855825Y-169614700D01*
X127855825Y-169614700D02*
X127712968Y-169686128D01*
X127712968Y-169686128D02*
X127570111Y-169686128D01*
X127570111Y-169686128D02*
X127427254Y-169614700D01*
X127427254Y-169614700D02*
X127355825Y-169543271D01*
X127355825Y-169543271D02*
X127284396Y-169400414D01*
X127284396Y-169400414D02*
X127212968Y-169114700D01*
X127212968Y-169114700D02*
X127212968Y-168757557D01*
X127212968Y-168757557D02*
X127284396Y-168471842D01*
X127284396Y-168471842D02*
X127355825Y-168328985D01*
X127355825Y-168328985D02*
X127427254Y-168257557D01*
X127427254Y-168257557D02*
X127570111Y-168186128D01*
X128641539Y-168328985D02*
X128712967Y-168257557D01*
X128712967Y-168257557D02*
X128855825Y-168186128D01*
X128855825Y-168186128D02*
X129212967Y-168186128D01*
X129212967Y-168186128D02*
X129355825Y-168257557D01*
X129355825Y-168257557D02*
X129427253Y-168328985D01*
X129427253Y-168328985D02*
X129498682Y-168471842D01*
X129498682Y-168471842D02*
X129498682Y-168614700D01*
X129498682Y-168614700D02*
X129427253Y-168828985D01*
X129427253Y-168828985D02*
X128570110Y-169686128D01*
X128570110Y-169686128D02*
X129498682Y-169686128D01*
X130141538Y-169114700D02*
X131284396Y-169114700D01*
X131927253Y-168328985D02*
X131998681Y-168257557D01*
X131998681Y-168257557D02*
X132141539Y-168186128D01*
X132141539Y-168186128D02*
X132498681Y-168186128D01*
X132498681Y-168186128D02*
X132641539Y-168257557D01*
X132641539Y-168257557D02*
X132712967Y-168328985D01*
X132712967Y-168328985D02*
X132784396Y-168471842D01*
X132784396Y-168471842D02*
X132784396Y-168614700D01*
X132784396Y-168614700D02*
X132712967Y-168828985D01*
X132712967Y-168828985D02*
X131855824Y-169686128D01*
X131855824Y-169686128D02*
X132784396Y-169686128D01*
X133712967Y-168186128D02*
X133855824Y-168186128D01*
X133855824Y-168186128D02*
X133998681Y-168257557D01*
X133998681Y-168257557D02*
X134070110Y-168328985D01*
X134070110Y-168328985D02*
X134141538Y-168471842D01*
X134141538Y-168471842D02*
X134212967Y-168757557D01*
X134212967Y-168757557D02*
X134212967Y-169114700D01*
X134212967Y-169114700D02*
X134141538Y-169400414D01*
X134141538Y-169400414D02*
X134070110Y-169543271D01*
X134070110Y-169543271D02*
X133998681Y-169614700D01*
X133998681Y-169614700D02*
X133855824Y-169686128D01*
X133855824Y-169686128D02*
X133712967Y-169686128D01*
X133712967Y-169686128D02*
X133570110Y-169614700D01*
X133570110Y-169614700D02*
X133498681Y-169543271D01*
X133498681Y-169543271D02*
X133427252Y-169400414D01*
X133427252Y-169400414D02*
X133355824Y-169114700D01*
X133355824Y-169114700D02*
X133355824Y-168757557D01*
X133355824Y-168757557D02*
X133427252Y-168471842D01*
X133427252Y-168471842D02*
X133498681Y-168328985D01*
X133498681Y-168328985D02*
X133570110Y-168257557D01*
X133570110Y-168257557D02*
X133712967Y-168186128D01*
D10*
D11*
X89400000Y-170400000D02*
X197400000Y-170400000D01*
D10*
D11*
X90855826Y-172486128D02*
X90855826Y-170986128D01*
X91712969Y-172486128D02*
X91070112Y-171628985D01*
X91712969Y-170986128D02*
X90855826Y-171843271D01*
X92355826Y-172486128D02*
X92355826Y-171486128D01*
X92355826Y-170986128D02*
X92284398Y-171057557D01*
X92284398Y-171057557D02*
X92355826Y-171128985D01*
X92355826Y-171128985D02*
X92427255Y-171057557D01*
X92427255Y-171057557D02*
X92355826Y-170986128D01*
X92355826Y-170986128D02*
X92355826Y-171128985D01*
X93927255Y-172343271D02*
X93855827Y-172414700D01*
X93855827Y-172414700D02*
X93641541Y-172486128D01*
X93641541Y-172486128D02*
X93498684Y-172486128D01*
X93498684Y-172486128D02*
X93284398Y-172414700D01*
X93284398Y-172414700D02*
X93141541Y-172271842D01*
X93141541Y-172271842D02*
X93070112Y-172128985D01*
X93070112Y-172128985D02*
X92998684Y-171843271D01*
X92998684Y-171843271D02*
X92998684Y-171628985D01*
X92998684Y-171628985D02*
X93070112Y-171343271D01*
X93070112Y-171343271D02*
X93141541Y-171200414D01*
X93141541Y-171200414D02*
X93284398Y-171057557D01*
X93284398Y-171057557D02*
X93498684Y-170986128D01*
X93498684Y-170986128D02*
X93641541Y-170986128D01*
X93641541Y-170986128D02*
X93855827Y-171057557D01*
X93855827Y-171057557D02*
X93927255Y-171128985D01*
X95212970Y-172486128D02*
X95212970Y-171700414D01*
X95212970Y-171700414D02*
X95141541Y-171557557D01*
X95141541Y-171557557D02*
X94998684Y-171486128D01*
X94998684Y-171486128D02*
X94712970Y-171486128D01*
X94712970Y-171486128D02*
X94570112Y-171557557D01*
X95212970Y-172414700D02*
X95070112Y-172486128D01*
X95070112Y-172486128D02*
X94712970Y-172486128D01*
X94712970Y-172486128D02*
X94570112Y-172414700D01*
X94570112Y-172414700D02*
X94498684Y-172271842D01*
X94498684Y-172271842D02*
X94498684Y-172128985D01*
X94498684Y-172128985D02*
X94570112Y-171986128D01*
X94570112Y-171986128D02*
X94712970Y-171914700D01*
X94712970Y-171914700D02*
X95070112Y-171914700D01*
X95070112Y-171914700D02*
X95212970Y-171843271D01*
X96570113Y-172486128D02*
X96570113Y-170986128D01*
X96570113Y-172414700D02*
X96427255Y-172486128D01*
X96427255Y-172486128D02*
X96141541Y-172486128D01*
X96141541Y-172486128D02*
X95998684Y-172414700D01*
X95998684Y-172414700D02*
X95927255Y-172343271D01*
X95927255Y-172343271D02*
X95855827Y-172200414D01*
X95855827Y-172200414D02*
X95855827Y-171771842D01*
X95855827Y-171771842D02*
X95927255Y-171628985D01*
X95927255Y-171628985D02*
X95998684Y-171557557D01*
X95998684Y-171557557D02*
X96141541Y-171486128D01*
X96141541Y-171486128D02*
X96427255Y-171486128D01*
X96427255Y-171486128D02*
X96570113Y-171557557D01*
X98427255Y-171700414D02*
X98927255Y-171700414D01*
X99141541Y-172486128D02*
X98427255Y-172486128D01*
X98427255Y-172486128D02*
X98427255Y-170986128D01*
X98427255Y-170986128D02*
X99141541Y-170986128D01*
X99784398Y-172343271D02*
X99855827Y-172414700D01*
X99855827Y-172414700D02*
X99784398Y-172486128D01*
X99784398Y-172486128D02*
X99712970Y-172414700D01*
X99712970Y-172414700D02*
X99784398Y-172343271D01*
X99784398Y-172343271D02*
X99784398Y-172486128D01*
X100498684Y-172486128D02*
X100498684Y-170986128D01*
X100498684Y-170986128D02*
X100855827Y-170986128D01*
X100855827Y-170986128D02*
X101070113Y-171057557D01*
X101070113Y-171057557D02*
X101212970Y-171200414D01*
X101212970Y-171200414D02*
X101284399Y-171343271D01*
X101284399Y-171343271D02*
X101355827Y-171628985D01*
X101355827Y-171628985D02*
X101355827Y-171843271D01*
X101355827Y-171843271D02*
X101284399Y-172128985D01*
X101284399Y-172128985D02*
X101212970Y-172271842D01*
X101212970Y-172271842D02*
X101070113Y-172414700D01*
X101070113Y-172414700D02*
X100855827Y-172486128D01*
X100855827Y-172486128D02*
X100498684Y-172486128D01*
X101998684Y-172343271D02*
X102070113Y-172414700D01*
X102070113Y-172414700D02*
X101998684Y-172486128D01*
X101998684Y-172486128D02*
X101927256Y-172414700D01*
X101927256Y-172414700D02*
X101998684Y-172343271D01*
X101998684Y-172343271D02*
X101998684Y-172486128D01*
X102641542Y-172057557D02*
X103355828Y-172057557D01*
X102498685Y-172486128D02*
X102998685Y-170986128D01*
X102998685Y-170986128D02*
X103498685Y-172486128D01*
X103998684Y-172343271D02*
X104070113Y-172414700D01*
X104070113Y-172414700D02*
X103998684Y-172486128D01*
X103998684Y-172486128D02*
X103927256Y-172414700D01*
X103927256Y-172414700D02*
X103998684Y-172343271D01*
X103998684Y-172343271D02*
X103998684Y-172486128D01*
X106998684Y-172486128D02*
X106998684Y-170986128D01*
X107141542Y-171914700D02*
X107570113Y-172486128D01*
X107570113Y-171486128D02*
X106998684Y-172057557D01*
X108212970Y-172486128D02*
X108212970Y-171486128D01*
X108212970Y-170986128D02*
X108141542Y-171057557D01*
X108141542Y-171057557D02*
X108212970Y-171128985D01*
X108212970Y-171128985D02*
X108284399Y-171057557D01*
X108284399Y-171057557D02*
X108212970Y-170986128D01*
X108212970Y-170986128D02*
X108212970Y-171128985D01*
X109570114Y-172414700D02*
X109427256Y-172486128D01*
X109427256Y-172486128D02*
X109141542Y-172486128D01*
X109141542Y-172486128D02*
X108998685Y-172414700D01*
X108998685Y-172414700D02*
X108927256Y-172343271D01*
X108927256Y-172343271D02*
X108855828Y-172200414D01*
X108855828Y-172200414D02*
X108855828Y-171771842D01*
X108855828Y-171771842D02*
X108927256Y-171628985D01*
X108927256Y-171628985D02*
X108998685Y-171557557D01*
X108998685Y-171557557D02*
X109141542Y-171486128D01*
X109141542Y-171486128D02*
X109427256Y-171486128D01*
X109427256Y-171486128D02*
X109570114Y-171557557D01*
X110855828Y-172486128D02*
X110855828Y-171700414D01*
X110855828Y-171700414D02*
X110784399Y-171557557D01*
X110784399Y-171557557D02*
X110641542Y-171486128D01*
X110641542Y-171486128D02*
X110355828Y-171486128D01*
X110355828Y-171486128D02*
X110212970Y-171557557D01*
X110855828Y-172414700D02*
X110712970Y-172486128D01*
X110712970Y-172486128D02*
X110355828Y-172486128D01*
X110355828Y-172486128D02*
X110212970Y-172414700D01*
X110212970Y-172414700D02*
X110141542Y-172271842D01*
X110141542Y-172271842D02*
X110141542Y-172128985D01*
X110141542Y-172128985D02*
X110212970Y-171986128D01*
X110212970Y-171986128D02*
X110355828Y-171914700D01*
X110355828Y-171914700D02*
X110712970Y-171914700D01*
X110712970Y-171914700D02*
X110855828Y-171843271D01*
X112212971Y-172486128D02*
X112212971Y-170986128D01*
X112212971Y-172414700D02*
X112070113Y-172486128D01*
X112070113Y-172486128D02*
X111784399Y-172486128D01*
X111784399Y-172486128D02*
X111641542Y-172414700D01*
X111641542Y-172414700D02*
X111570113Y-172343271D01*
X111570113Y-172343271D02*
X111498685Y-172200414D01*
X111498685Y-172200414D02*
X111498685Y-171771842D01*
X111498685Y-171771842D02*
X111570113Y-171628985D01*
X111570113Y-171628985D02*
X111641542Y-171557557D01*
X111641542Y-171557557D02*
X111784399Y-171486128D01*
X111784399Y-171486128D02*
X112070113Y-171486128D01*
X112070113Y-171486128D02*
X112212971Y-171557557D01*
X113927256Y-170986128D02*
X114927256Y-170986128D01*
X114927256Y-170986128D02*
X114284399Y-172486128D01*
X115498684Y-172343271D02*
X115570113Y-172414700D01*
X115570113Y-172414700D02*
X115498684Y-172486128D01*
X115498684Y-172486128D02*
X115427256Y-172414700D01*
X115427256Y-172414700D02*
X115498684Y-172343271D01*
X115498684Y-172343271D02*
X115498684Y-172486128D01*
X116498685Y-170986128D02*
X116641542Y-170986128D01*
X116641542Y-170986128D02*
X116784399Y-171057557D01*
X116784399Y-171057557D02*
X116855828Y-171128985D01*
X116855828Y-171128985D02*
X116927256Y-171271842D01*
X116927256Y-171271842D02*
X116998685Y-171557557D01*
X116998685Y-171557557D02*
X116998685Y-171914700D01*
X116998685Y-171914700D02*
X116927256Y-172200414D01*
X116927256Y-172200414D02*
X116855828Y-172343271D01*
X116855828Y-172343271D02*
X116784399Y-172414700D01*
X116784399Y-172414700D02*
X116641542Y-172486128D01*
X116641542Y-172486128D02*
X116498685Y-172486128D01*
X116498685Y-172486128D02*
X116355828Y-172414700D01*
X116355828Y-172414700D02*
X116284399Y-172343271D01*
X116284399Y-172343271D02*
X116212970Y-172200414D01*
X116212970Y-172200414D02*
X116141542Y-171914700D01*
X116141542Y-171914700D02*
X116141542Y-171557557D01*
X116141542Y-171557557D02*
X116212970Y-171271842D01*
X116212970Y-171271842D02*
X116284399Y-171128985D01*
X116284399Y-171128985D02*
X116355828Y-171057557D01*
X116355828Y-171057557D02*
X116498685Y-170986128D01*
X117641541Y-172343271D02*
X117712970Y-172414700D01*
X117712970Y-172414700D02*
X117641541Y-172486128D01*
X117641541Y-172486128D02*
X117570113Y-172414700D01*
X117570113Y-172414700D02*
X117641541Y-172343271D01*
X117641541Y-172343271D02*
X117641541Y-172486128D01*
X118212970Y-170986128D02*
X119212970Y-170986128D01*
X119212970Y-170986128D02*
X118570113Y-172486128D01*
D10*
D11*
X89400000Y-167400000D02*
X197400000Y-167400000D01*
D10*
D12*
X176811653Y-169678328D02*
X176311653Y-168964042D01*
X175954510Y-169678328D02*
X175954510Y-168178328D01*
X175954510Y-168178328D02*
X176525939Y-168178328D01*
X176525939Y-168178328D02*
X176668796Y-168249757D01*
X176668796Y-168249757D02*
X176740225Y-168321185D01*
X176740225Y-168321185D02*
X176811653Y-168464042D01*
X176811653Y-168464042D02*
X176811653Y-168678328D01*
X176811653Y-168678328D02*
X176740225Y-168821185D01*
X176740225Y-168821185D02*
X176668796Y-168892614D01*
X176668796Y-168892614D02*
X176525939Y-168964042D01*
X176525939Y-168964042D02*
X175954510Y-168964042D01*
X178025939Y-169606900D02*
X177883082Y-169678328D01*
X177883082Y-169678328D02*
X177597368Y-169678328D01*
X177597368Y-169678328D02*
X177454510Y-169606900D01*
X177454510Y-169606900D02*
X177383082Y-169464042D01*
X177383082Y-169464042D02*
X177383082Y-168892614D01*
X177383082Y-168892614D02*
X177454510Y-168749757D01*
X177454510Y-168749757D02*
X177597368Y-168678328D01*
X177597368Y-168678328D02*
X177883082Y-168678328D01*
X177883082Y-168678328D02*
X178025939Y-168749757D01*
X178025939Y-168749757D02*
X178097368Y-168892614D01*
X178097368Y-168892614D02*
X178097368Y-169035471D01*
X178097368Y-169035471D02*
X177383082Y-169178328D01*
X178597367Y-168678328D02*
X178954510Y-169678328D01*
X178954510Y-169678328D02*
X179311653Y-168678328D01*
X179883081Y-169535471D02*
X179954510Y-169606900D01*
X179954510Y-169606900D02*
X179883081Y-169678328D01*
X179883081Y-169678328D02*
X179811653Y-169606900D01*
X179811653Y-169606900D02*
X179883081Y-169535471D01*
X179883081Y-169535471D02*
X179883081Y-169678328D01*
X179883081Y-168749757D02*
X179954510Y-168821185D01*
X179954510Y-168821185D02*
X179883081Y-168892614D01*
X179883081Y-168892614D02*
X179811653Y-168821185D01*
X179811653Y-168821185D02*
X179883081Y-168749757D01*
X179883081Y-168749757D02*
X179883081Y-168892614D01*
X181668796Y-169249757D02*
X182383082Y-169249757D01*
X181525939Y-169678328D02*
X182025939Y-168178328D01*
X182025939Y-168178328D02*
X182525939Y-169678328D01*
D10*
D11*
X90784398Y-169614700D02*
X90998684Y-169686128D01*
X90998684Y-169686128D02*
X91355826Y-169686128D01*
X91355826Y-169686128D02*
X91498684Y-169614700D01*
X91498684Y-169614700D02*
X91570112Y-169543271D01*
X91570112Y-169543271D02*
X91641541Y-169400414D01*
X91641541Y-169400414D02*
X91641541Y-169257557D01*
X91641541Y-169257557D02*
X91570112Y-169114700D01*
X91570112Y-169114700D02*
X91498684Y-169043271D01*
X91498684Y-169043271D02*
X91355826Y-168971842D01*
X91355826Y-168971842D02*
X91070112Y-168900414D01*
X91070112Y-168900414D02*
X90927255Y-168828985D01*
X90927255Y-168828985D02*
X90855826Y-168757557D01*
X90855826Y-168757557D02*
X90784398Y-168614700D01*
X90784398Y-168614700D02*
X90784398Y-168471842D01*
X90784398Y-168471842D02*
X90855826Y-168328985D01*
X90855826Y-168328985D02*
X90927255Y-168257557D01*
X90927255Y-168257557D02*
X91070112Y-168186128D01*
X91070112Y-168186128D02*
X91427255Y-168186128D01*
X91427255Y-168186128D02*
X91641541Y-168257557D01*
X92284397Y-169686128D02*
X92284397Y-168686128D01*
X92284397Y-168186128D02*
X92212969Y-168257557D01*
X92212969Y-168257557D02*
X92284397Y-168328985D01*
X92284397Y-168328985D02*
X92355826Y-168257557D01*
X92355826Y-168257557D02*
X92284397Y-168186128D01*
X92284397Y-168186128D02*
X92284397Y-168328985D01*
X92855826Y-168686128D02*
X93641541Y-168686128D01*
X93641541Y-168686128D02*
X92855826Y-169686128D01*
X92855826Y-169686128D02*
X93641541Y-169686128D01*
X94784398Y-169614700D02*
X94641541Y-169686128D01*
X94641541Y-169686128D02*
X94355827Y-169686128D01*
X94355827Y-169686128D02*
X94212969Y-169614700D01*
X94212969Y-169614700D02*
X94141541Y-169471842D01*
X94141541Y-169471842D02*
X94141541Y-168900414D01*
X94141541Y-168900414D02*
X94212969Y-168757557D01*
X94212969Y-168757557D02*
X94355827Y-168686128D01*
X94355827Y-168686128D02*
X94641541Y-168686128D01*
X94641541Y-168686128D02*
X94784398Y-168757557D01*
X94784398Y-168757557D02*
X94855827Y-168900414D01*
X94855827Y-168900414D02*
X94855827Y-169043271D01*
X94855827Y-169043271D02*
X94141541Y-169186128D01*
X95498683Y-169543271D02*
X95570112Y-169614700D01*
X95570112Y-169614700D02*
X95498683Y-169686128D01*
X95498683Y-169686128D02*
X95427255Y-169614700D01*
X95427255Y-169614700D02*
X95498683Y-169543271D01*
X95498683Y-169543271D02*
X95498683Y-169686128D01*
X95498683Y-168757557D02*
X95570112Y-168828985D01*
X95570112Y-168828985D02*
X95498683Y-168900414D01*
X95498683Y-168900414D02*
X95427255Y-168828985D01*
X95427255Y-168828985D02*
X95498683Y-168757557D01*
X95498683Y-168757557D02*
X95498683Y-168900414D01*
X97284398Y-169257557D02*
X97998684Y-169257557D01*
X97141541Y-169686128D02*
X97641541Y-168186128D01*
X97641541Y-168186128D02*
X98141541Y-169686128D01*
D10*
D11*
X175855826Y-172486128D02*
X175855826Y-170986128D01*
X177212970Y-172486128D02*
X177212970Y-170986128D01*
X177212970Y-172414700D02*
X177070112Y-172486128D01*
X177070112Y-172486128D02*
X176784398Y-172486128D01*
X176784398Y-172486128D02*
X176641541Y-172414700D01*
X176641541Y-172414700D02*
X176570112Y-172343271D01*
X176570112Y-172343271D02*
X176498684Y-172200414D01*
X176498684Y-172200414D02*
X176498684Y-171771842D01*
X176498684Y-171771842D02*
X176570112Y-171628985D01*
X176570112Y-171628985D02*
X176641541Y-171557557D01*
X176641541Y-171557557D02*
X176784398Y-171486128D01*
X176784398Y-171486128D02*
X177070112Y-171486128D01*
X177070112Y-171486128D02*
X177212970Y-171557557D01*
X177927255Y-172343271D02*
X177998684Y-172414700D01*
X177998684Y-172414700D02*
X177927255Y-172486128D01*
X177927255Y-172486128D02*
X177855827Y-172414700D01*
X177855827Y-172414700D02*
X177927255Y-172343271D01*
X177927255Y-172343271D02*
X177927255Y-172486128D01*
X177927255Y-171557557D02*
X177998684Y-171628985D01*
X177998684Y-171628985D02*
X177927255Y-171700414D01*
X177927255Y-171700414D02*
X177855827Y-171628985D01*
X177855827Y-171628985D02*
X177927255Y-171557557D01*
X177927255Y-171557557D02*
X177927255Y-171700414D01*
X180570113Y-172486128D02*
X179712970Y-172486128D01*
X180141541Y-172486128D02*
X180141541Y-170986128D01*
X180141541Y-170986128D02*
X179998684Y-171200414D01*
X179998684Y-171200414D02*
X179855827Y-171343271D01*
X179855827Y-171343271D02*
X179712970Y-171414700D01*
X182284398Y-170914700D02*
X180998684Y-172843271D01*
X183570113Y-172486128D02*
X182712970Y-172486128D01*
X183141541Y-172486128D02*
X183141541Y-170986128D01*
X183141541Y-170986128D02*
X182998684Y-171200414D01*
X182998684Y-171200414D02*
X182855827Y-171343271D01*
X182855827Y-171343271D02*
X182712970Y-171414700D01*
D10*
D11*
X89400000Y-163400000D02*
X197400000Y-163400000D01*
D10*
D13*
X91091728Y-164104438D02*
X92234585Y-164104438D01*
X91413157Y-166104438D02*
X91663157Y-164104438D01*
X92651252Y-166104438D02*
X92817919Y-164771104D01*
X92901252Y-164104438D02*
X92794109Y-164199676D01*
X92794109Y-164199676D02*
X92877443Y-164294914D01*
X92877443Y-164294914D02*
X92984586Y-164199676D01*
X92984586Y-164199676D02*
X92901252Y-164104438D01*
X92901252Y-164104438D02*
X92877443Y-164294914D01*
X93484586Y-164771104D02*
X94246490Y-164771104D01*
X93853633Y-164104438D02*
X93639348Y-165818723D01*
X93639348Y-165818723D02*
X93710776Y-166009200D01*
X93710776Y-166009200D02*
X93889348Y-166104438D01*
X93889348Y-166104438D02*
X94079824Y-166104438D01*
X95032205Y-166104438D02*
X94853633Y-166009200D01*
X94853633Y-166009200D02*
X94782205Y-165818723D01*
X94782205Y-165818723D02*
X94996490Y-164104438D01*
X96567919Y-166009200D02*
X96365538Y-166104438D01*
X96365538Y-166104438D02*
X95984585Y-166104438D01*
X95984585Y-166104438D02*
X95806014Y-166009200D01*
X95806014Y-166009200D02*
X95734585Y-165818723D01*
X95734585Y-165818723D02*
X95829824Y-165056819D01*
X95829824Y-165056819D02*
X95948871Y-164866342D01*
X95948871Y-164866342D02*
X96151252Y-164771104D01*
X96151252Y-164771104D02*
X96532204Y-164771104D01*
X96532204Y-164771104D02*
X96710776Y-164866342D01*
X96710776Y-164866342D02*
X96782204Y-165056819D01*
X96782204Y-165056819D02*
X96758395Y-165247295D01*
X96758395Y-165247295D02*
X95782204Y-165437771D01*
X97532205Y-165913961D02*
X97615538Y-166009200D01*
X97615538Y-166009200D02*
X97508395Y-166104438D01*
X97508395Y-166104438D02*
X97425062Y-166009200D01*
X97425062Y-166009200D02*
X97532205Y-165913961D01*
X97532205Y-165913961D02*
X97508395Y-166104438D01*
X97663157Y-164866342D02*
X97746490Y-164961580D01*
X97746490Y-164961580D02*
X97639348Y-165056819D01*
X97639348Y-165056819D02*
X97556014Y-164961580D01*
X97556014Y-164961580D02*
X97663157Y-164866342D01*
X97663157Y-164866342D02*
X97639348Y-165056819D01*
X99984586Y-166104438D02*
X100234586Y-164104438D01*
X100115539Y-165056819D02*
X101258396Y-165056819D01*
X101127443Y-166104438D02*
X101377443Y-164104438D01*
X102877443Y-165056819D02*
X103151253Y-165152057D01*
X103151253Y-165152057D02*
X103234586Y-165247295D01*
X103234586Y-165247295D02*
X103306015Y-165437771D01*
X103306015Y-165437771D02*
X103270300Y-165723485D01*
X103270300Y-165723485D02*
X103151253Y-165913961D01*
X103151253Y-165913961D02*
X103044110Y-166009200D01*
X103044110Y-166009200D02*
X102841729Y-166104438D01*
X102841729Y-166104438D02*
X102079824Y-166104438D01*
X102079824Y-166104438D02*
X102329824Y-164104438D01*
X102329824Y-164104438D02*
X102996491Y-164104438D01*
X102996491Y-164104438D02*
X103175062Y-164199676D01*
X103175062Y-164199676D02*
X103258396Y-164294914D01*
X103258396Y-164294914D02*
X103329824Y-164485390D01*
X103329824Y-164485390D02*
X103306015Y-164675866D01*
X103306015Y-164675866D02*
X103186967Y-164866342D01*
X103186967Y-164866342D02*
X103079824Y-164961580D01*
X103079824Y-164961580D02*
X102877443Y-165056819D01*
X102877443Y-165056819D02*
X102210777Y-165056819D01*
X105127443Y-166104438D02*
X103984586Y-166104438D01*
X104556015Y-166104438D02*
X104806015Y-164104438D01*
X104806015Y-164104438D02*
X104579824Y-164390152D01*
X104579824Y-164390152D02*
X104365539Y-164580628D01*
X104365539Y-164580628D02*
X104163158Y-164675866D01*
X106615539Y-164104438D02*
X106806015Y-164104438D01*
X106806015Y-164104438D02*
X106984586Y-164199676D01*
X106984586Y-164199676D02*
X107067920Y-164294914D01*
X107067920Y-164294914D02*
X107139348Y-164485390D01*
X107139348Y-164485390D02*
X107186967Y-164866342D01*
X107186967Y-164866342D02*
X107127443Y-165342533D01*
X107127443Y-165342533D02*
X106984586Y-165723485D01*
X106984586Y-165723485D02*
X106865539Y-165913961D01*
X106865539Y-165913961D02*
X106758396Y-166009200D01*
X106758396Y-166009200D02*
X106556015Y-166104438D01*
X106556015Y-166104438D02*
X106365539Y-166104438D01*
X106365539Y-166104438D02*
X106186967Y-166009200D01*
X106186967Y-166009200D02*
X106103634Y-165913961D01*
X106103634Y-165913961D02*
X106032205Y-165723485D01*
X106032205Y-165723485D02*
X105984586Y-165342533D01*
X105984586Y-165342533D02*
X106044110Y-164866342D01*
X106044110Y-164866342D02*
X106186967Y-164485390D01*
X106186967Y-164485390D02*
X106306015Y-164294914D01*
X106306015Y-164294914D02*
X106413158Y-164199676D01*
X106413158Y-164199676D02*
X106615539Y-164104438D01*
X108520301Y-164104438D02*
X108710777Y-164104438D01*
X108710777Y-164104438D02*
X108889348Y-164199676D01*
X108889348Y-164199676D02*
X108972682Y-164294914D01*
X108972682Y-164294914D02*
X109044110Y-164485390D01*
X109044110Y-164485390D02*
X109091729Y-164866342D01*
X109091729Y-164866342D02*
X109032205Y-165342533D01*
X109032205Y-165342533D02*
X108889348Y-165723485D01*
X108889348Y-165723485D02*
X108770301Y-165913961D01*
X108770301Y-165913961D02*
X108663158Y-166009200D01*
X108663158Y-166009200D02*
X108460777Y-166104438D01*
X108460777Y-166104438D02*
X108270301Y-166104438D01*
X108270301Y-166104438D02*
X108091729Y-166009200D01*
X108091729Y-166009200D02*
X108008396Y-165913961D01*
X108008396Y-165913961D02*
X107936967Y-165723485D01*
X107936967Y-165723485D02*
X107889348Y-165342533D01*
X107889348Y-165342533D02*
X107948872Y-164866342D01*
X107948872Y-164866342D02*
X108091729Y-164485390D01*
X108091729Y-164485390D02*
X108210777Y-164294914D01*
X108210777Y-164294914D02*
X108317920Y-164199676D01*
X108317920Y-164199676D02*
X108520301Y-164104438D01*
X111294111Y-165533009D02*
X112246492Y-165533009D01*
X111032206Y-166104438D02*
X111948873Y-164104438D01*
X111948873Y-164104438D02*
X112365539Y-166104438D01*
X113032206Y-166104438D02*
X113198873Y-164771104D01*
X113175063Y-164961580D02*
X113282206Y-164866342D01*
X113282206Y-164866342D02*
X113484587Y-164771104D01*
X113484587Y-164771104D02*
X113770301Y-164771104D01*
X113770301Y-164771104D02*
X113948873Y-164866342D01*
X113948873Y-164866342D02*
X114020301Y-165056819D01*
X114020301Y-165056819D02*
X113889349Y-166104438D01*
X114020301Y-165056819D02*
X114139349Y-164866342D01*
X114139349Y-164866342D02*
X114341730Y-164771104D01*
X114341730Y-164771104D02*
X114627444Y-164771104D01*
X114627444Y-164771104D02*
X114806016Y-164866342D01*
X114806016Y-164866342D02*
X114877444Y-165056819D01*
X114877444Y-165056819D02*
X114746492Y-166104438D01*
X115865540Y-164771104D02*
X115615540Y-166771104D01*
X115853635Y-164866342D02*
X116056016Y-164771104D01*
X116056016Y-164771104D02*
X116436968Y-164771104D01*
X116436968Y-164771104D02*
X116615540Y-164866342D01*
X116615540Y-164866342D02*
X116698873Y-164961580D01*
X116698873Y-164961580D02*
X116770302Y-165152057D01*
X116770302Y-165152057D02*
X116698873Y-165723485D01*
X116698873Y-165723485D02*
X116579826Y-165913961D01*
X116579826Y-165913961D02*
X116472683Y-166009200D01*
X116472683Y-166009200D02*
X116270302Y-166104438D01*
X116270302Y-166104438D02*
X115889349Y-166104438D01*
X115889349Y-166104438D02*
X115710778Y-166009200D01*
X117794112Y-166104438D02*
X117615540Y-166009200D01*
X117615540Y-166009200D02*
X117544112Y-165818723D01*
X117544112Y-165818723D02*
X117758397Y-164104438D01*
X118556016Y-166104438D02*
X118722683Y-164771104D01*
X118806016Y-164104438D02*
X118698873Y-164199676D01*
X118698873Y-164199676D02*
X118782207Y-164294914D01*
X118782207Y-164294914D02*
X118889350Y-164199676D01*
X118889350Y-164199676D02*
X118806016Y-164104438D01*
X118806016Y-164104438D02*
X118782207Y-164294914D01*
X119389350Y-164771104D02*
X120151254Y-164771104D01*
X119508397Y-166104438D02*
X119722683Y-164390152D01*
X119722683Y-164390152D02*
X119841731Y-164199676D01*
X119841731Y-164199676D02*
X120044112Y-164104438D01*
X120044112Y-164104438D02*
X120234588Y-164104438D01*
X120651254Y-166104438D02*
X120817921Y-164771104D01*
X120901254Y-164104438D02*
X120794111Y-164199676D01*
X120794111Y-164199676D02*
X120877445Y-164294914D01*
X120877445Y-164294914D02*
X120984588Y-164199676D01*
X120984588Y-164199676D02*
X120901254Y-164104438D01*
X120901254Y-164104438D02*
X120877445Y-164294914D01*
X122377445Y-166009200D02*
X122175064Y-166104438D01*
X122175064Y-166104438D02*
X121794111Y-166104438D01*
X121794111Y-166104438D02*
X121615540Y-166009200D01*
X121615540Y-166009200D02*
X121544111Y-165818723D01*
X121544111Y-165818723D02*
X121639350Y-165056819D01*
X121639350Y-165056819D02*
X121758397Y-164866342D01*
X121758397Y-164866342D02*
X121960778Y-164771104D01*
X121960778Y-164771104D02*
X122341730Y-164771104D01*
X122341730Y-164771104D02*
X122520302Y-164866342D01*
X122520302Y-164866342D02*
X122591730Y-165056819D01*
X122591730Y-165056819D02*
X122567921Y-165247295D01*
X122567921Y-165247295D02*
X121591730Y-165437771D01*
X123317921Y-166104438D02*
X123484588Y-164771104D01*
X123436969Y-165152057D02*
X123556016Y-164961580D01*
X123556016Y-164961580D02*
X123663159Y-164866342D01*
X123663159Y-164866342D02*
X123865540Y-164771104D01*
X123865540Y-164771104D02*
X124056016Y-164771104D01*
D10*
D11*
X91355826Y-161500414D02*
X90855826Y-161500414D01*
X90855826Y-162286128D02*
X90855826Y-160786128D01*
X90855826Y-160786128D02*
X91570112Y-160786128D01*
X92141540Y-162286128D02*
X92141540Y-161286128D01*
X92141540Y-160786128D02*
X92070112Y-160857557D01*
X92070112Y-160857557D02*
X92141540Y-160928985D01*
X92141540Y-160928985D02*
X92212969Y-160857557D01*
X92212969Y-160857557D02*
X92141540Y-160786128D01*
X92141540Y-160786128D02*
X92141540Y-160928985D01*
X93070112Y-162286128D02*
X92927255Y-162214700D01*
X92927255Y-162214700D02*
X92855826Y-162071842D01*
X92855826Y-162071842D02*
X92855826Y-160786128D01*
X94212969Y-162214700D02*
X94070112Y-162286128D01*
X94070112Y-162286128D02*
X93784398Y-162286128D01*
X93784398Y-162286128D02*
X93641540Y-162214700D01*
X93641540Y-162214700D02*
X93570112Y-162071842D01*
X93570112Y-162071842D02*
X93570112Y-161500414D01*
X93570112Y-161500414D02*
X93641540Y-161357557D01*
X93641540Y-161357557D02*
X93784398Y-161286128D01*
X93784398Y-161286128D02*
X94070112Y-161286128D01*
X94070112Y-161286128D02*
X94212969Y-161357557D01*
X94212969Y-161357557D02*
X94284398Y-161500414D01*
X94284398Y-161500414D02*
X94284398Y-161643271D01*
X94284398Y-161643271D02*
X93570112Y-161786128D01*
X94927254Y-162143271D02*
X94998683Y-162214700D01*
X94998683Y-162214700D02*
X94927254Y-162286128D01*
X94927254Y-162286128D02*
X94855826Y-162214700D01*
X94855826Y-162214700D02*
X94927254Y-162143271D01*
X94927254Y-162143271D02*
X94927254Y-162286128D01*
X94927254Y-161357557D02*
X94998683Y-161428985D01*
X94998683Y-161428985D02*
X94927254Y-161500414D01*
X94927254Y-161500414D02*
X94855826Y-161428985D01*
X94855826Y-161428985D02*
X94927254Y-161357557D01*
X94927254Y-161357557D02*
X94927254Y-161500414D01*
X96784397Y-162286128D02*
X96784397Y-160786128D01*
X97427255Y-162286128D02*
X97427255Y-161500414D01*
X97427255Y-161500414D02*
X97355826Y-161357557D01*
X97355826Y-161357557D02*
X97212969Y-161286128D01*
X97212969Y-161286128D02*
X96998683Y-161286128D01*
X96998683Y-161286128D02*
X96855826Y-161357557D01*
X96855826Y-161357557D02*
X96784397Y-161428985D01*
X98141540Y-162286128D02*
X98141540Y-160786128D01*
X98141540Y-161357557D02*
X98284398Y-161286128D01*
X98284398Y-161286128D02*
X98570112Y-161286128D01*
X98570112Y-161286128D02*
X98712969Y-161357557D01*
X98712969Y-161357557D02*
X98784398Y-161428985D01*
X98784398Y-161428985D02*
X98855826Y-161571842D01*
X98855826Y-161571842D02*
X98855826Y-162000414D01*
X98855826Y-162000414D02*
X98784398Y-162143271D01*
X98784398Y-162143271D02*
X98712969Y-162214700D01*
X98712969Y-162214700D02*
X98570112Y-162286128D01*
X98570112Y-162286128D02*
X98284398Y-162286128D01*
X98284398Y-162286128D02*
X98141540Y-162214700D01*
X100284398Y-162286128D02*
X99427255Y-162286128D01*
X99855826Y-162286128D02*
X99855826Y-160786128D01*
X99855826Y-160786128D02*
X99712969Y-161000414D01*
X99712969Y-161000414D02*
X99570112Y-161143271D01*
X99570112Y-161143271D02*
X99427255Y-161214700D01*
X101212969Y-160786128D02*
X101355826Y-160786128D01*
X101355826Y-160786128D02*
X101498683Y-160857557D01*
X101498683Y-160857557D02*
X101570112Y-160928985D01*
X101570112Y-160928985D02*
X101641540Y-161071842D01*
X101641540Y-161071842D02*
X101712969Y-161357557D01*
X101712969Y-161357557D02*
X101712969Y-161714700D01*
X101712969Y-161714700D02*
X101641540Y-162000414D01*
X101641540Y-162000414D02*
X101570112Y-162143271D01*
X101570112Y-162143271D02*
X101498683Y-162214700D01*
X101498683Y-162214700D02*
X101355826Y-162286128D01*
X101355826Y-162286128D02*
X101212969Y-162286128D01*
X101212969Y-162286128D02*
X101070112Y-162214700D01*
X101070112Y-162214700D02*
X100998683Y-162143271D01*
X100998683Y-162143271D02*
X100927254Y-162000414D01*
X100927254Y-162000414D02*
X100855826Y-161714700D01*
X100855826Y-161714700D02*
X100855826Y-161357557D01*
X100855826Y-161357557D02*
X100927254Y-161071842D01*
X100927254Y-161071842D02*
X100998683Y-160928985D01*
X100998683Y-160928985D02*
X101070112Y-160857557D01*
X101070112Y-160857557D02*
X101212969Y-160786128D01*
X102641540Y-160786128D02*
X102784397Y-160786128D01*
X102784397Y-160786128D02*
X102927254Y-160857557D01*
X102927254Y-160857557D02*
X102998683Y-160928985D01*
X102998683Y-160928985D02*
X103070111Y-161071842D01*
X103070111Y-161071842D02*
X103141540Y-161357557D01*
X103141540Y-161357557D02*
X103141540Y-161714700D01*
X103141540Y-161714700D02*
X103070111Y-162000414D01*
X103070111Y-162000414D02*
X102998683Y-162143271D01*
X102998683Y-162143271D02*
X102927254Y-162214700D01*
X102927254Y-162214700D02*
X102784397Y-162286128D01*
X102784397Y-162286128D02*
X102641540Y-162286128D01*
X102641540Y-162286128D02*
X102498683Y-162214700D01*
X102498683Y-162214700D02*
X102427254Y-162143271D01*
X102427254Y-162143271D02*
X102355825Y-162000414D01*
X102355825Y-162000414D02*
X102284397Y-161714700D01*
X102284397Y-161714700D02*
X102284397Y-161357557D01*
X102284397Y-161357557D02*
X102355825Y-161071842D01*
X102355825Y-161071842D02*
X102427254Y-160928985D01*
X102427254Y-160928985D02*
X102498683Y-160857557D01*
X102498683Y-160857557D02*
X102641540Y-160786128D01*
X103427254Y-162428985D02*
X104570111Y-162428985D01*
X105570111Y-162286128D02*
X105570111Y-161500414D01*
X105570111Y-161500414D02*
X105498682Y-161357557D01*
X105498682Y-161357557D02*
X105355825Y-161286128D01*
X105355825Y-161286128D02*
X105070111Y-161286128D01*
X105070111Y-161286128D02*
X104927253Y-161357557D01*
X105570111Y-162214700D02*
X105427253Y-162286128D01*
X105427253Y-162286128D02*
X105070111Y-162286128D01*
X105070111Y-162286128D02*
X104927253Y-162214700D01*
X104927253Y-162214700D02*
X104855825Y-162071842D01*
X104855825Y-162071842D02*
X104855825Y-161928985D01*
X104855825Y-161928985D02*
X104927253Y-161786128D01*
X104927253Y-161786128D02*
X105070111Y-161714700D01*
X105070111Y-161714700D02*
X105427253Y-161714700D01*
X105427253Y-161714700D02*
X105570111Y-161643271D01*
X106284396Y-162286128D02*
X106284396Y-161286128D01*
X106284396Y-161428985D02*
X106355825Y-161357557D01*
X106355825Y-161357557D02*
X106498682Y-161286128D01*
X106498682Y-161286128D02*
X106712968Y-161286128D01*
X106712968Y-161286128D02*
X106855825Y-161357557D01*
X106855825Y-161357557D02*
X106927254Y-161500414D01*
X106927254Y-161500414D02*
X106927254Y-162286128D01*
X106927254Y-161500414D02*
X106998682Y-161357557D01*
X106998682Y-161357557D02*
X107141539Y-161286128D01*
X107141539Y-161286128D02*
X107355825Y-161286128D01*
X107355825Y-161286128D02*
X107498682Y-161357557D01*
X107498682Y-161357557D02*
X107570111Y-161500414D01*
X107570111Y-161500414D02*
X107570111Y-162286128D01*
X108284396Y-161286128D02*
X108284396Y-162786128D01*
X108284396Y-161357557D02*
X108427254Y-161286128D01*
X108427254Y-161286128D02*
X108712968Y-161286128D01*
X108712968Y-161286128D02*
X108855825Y-161357557D01*
X108855825Y-161357557D02*
X108927254Y-161428985D01*
X108927254Y-161428985D02*
X108998682Y-161571842D01*
X108998682Y-161571842D02*
X108998682Y-162000414D01*
X108998682Y-162000414D02*
X108927254Y-162143271D01*
X108927254Y-162143271D02*
X108855825Y-162214700D01*
X108855825Y-162214700D02*
X108712968Y-162286128D01*
X108712968Y-162286128D02*
X108427254Y-162286128D01*
X108427254Y-162286128D02*
X108284396Y-162214700D01*
X109855825Y-162286128D02*
X109712968Y-162214700D01*
X109712968Y-162214700D02*
X109641539Y-162071842D01*
X109641539Y-162071842D02*
X109641539Y-160786128D01*
X110427253Y-162286128D02*
X110427253Y-161286128D01*
X110427253Y-160786128D02*
X110355825Y-160857557D01*
X110355825Y-160857557D02*
X110427253Y-160928985D01*
X110427253Y-160928985D02*
X110498682Y-160857557D01*
X110498682Y-160857557D02*
X110427253Y-160786128D01*
X110427253Y-160786128D02*
X110427253Y-160928985D01*
X110927254Y-161286128D02*
X111498682Y-161286128D01*
X111141539Y-162286128D02*
X111141539Y-161000414D01*
X111141539Y-161000414D02*
X111212968Y-160857557D01*
X111212968Y-160857557D02*
X111355825Y-160786128D01*
X111355825Y-160786128D02*
X111498682Y-160786128D01*
X111998682Y-162286128D02*
X111998682Y-161286128D01*
X111998682Y-160786128D02*
X111927254Y-160857557D01*
X111927254Y-160857557D02*
X111998682Y-160928985D01*
X111998682Y-160928985D02*
X112070111Y-160857557D01*
X112070111Y-160857557D02*
X111998682Y-160786128D01*
X111998682Y-160786128D02*
X111998682Y-160928985D01*
X113284397Y-162214700D02*
X113141540Y-162286128D01*
X113141540Y-162286128D02*
X112855826Y-162286128D01*
X112855826Y-162286128D02*
X112712968Y-162214700D01*
X112712968Y-162214700D02*
X112641540Y-162071842D01*
X112641540Y-162071842D02*
X112641540Y-161500414D01*
X112641540Y-161500414D02*
X112712968Y-161357557D01*
X112712968Y-161357557D02*
X112855826Y-161286128D01*
X112855826Y-161286128D02*
X113141540Y-161286128D01*
X113141540Y-161286128D02*
X113284397Y-161357557D01*
X113284397Y-161357557D02*
X113355826Y-161500414D01*
X113355826Y-161500414D02*
X113355826Y-161643271D01*
X113355826Y-161643271D02*
X112641540Y-161786128D01*
X113998682Y-162286128D02*
X113998682Y-161286128D01*
X113998682Y-161571842D02*
X114070111Y-161428985D01*
X114070111Y-161428985D02*
X114141540Y-161357557D01*
X114141540Y-161357557D02*
X114284397Y-161286128D01*
X114284397Y-161286128D02*
X114427254Y-161286128D01*
X114927253Y-162143271D02*
X114998682Y-162214700D01*
X114998682Y-162214700D02*
X114927253Y-162286128D01*
X114927253Y-162286128D02*
X114855825Y-162214700D01*
X114855825Y-162214700D02*
X114927253Y-162143271D01*
X114927253Y-162143271D02*
X114927253Y-162286128D01*
X115641539Y-162286128D02*
X115641539Y-160786128D01*
X115784397Y-161714700D02*
X116212968Y-162286128D01*
X116212968Y-161286128D02*
X115641539Y-161857557D01*
X116855825Y-162286128D02*
X116855825Y-161286128D01*
X116855825Y-160786128D02*
X116784397Y-160857557D01*
X116784397Y-160857557D02*
X116855825Y-160928985D01*
X116855825Y-160928985D02*
X116927254Y-160857557D01*
X116927254Y-160857557D02*
X116855825Y-160786128D01*
X116855825Y-160786128D02*
X116855825Y-160928985D01*
X118212969Y-162214700D02*
X118070111Y-162286128D01*
X118070111Y-162286128D02*
X117784397Y-162286128D01*
X117784397Y-162286128D02*
X117641540Y-162214700D01*
X117641540Y-162214700D02*
X117570111Y-162143271D01*
X117570111Y-162143271D02*
X117498683Y-162000414D01*
X117498683Y-162000414D02*
X117498683Y-161571842D01*
X117498683Y-161571842D02*
X117570111Y-161428985D01*
X117570111Y-161428985D02*
X117641540Y-161357557D01*
X117641540Y-161357557D02*
X117784397Y-161286128D01*
X117784397Y-161286128D02*
X118070111Y-161286128D01*
X118070111Y-161286128D02*
X118212969Y-161357557D01*
X119498683Y-162286128D02*
X119498683Y-161500414D01*
X119498683Y-161500414D02*
X119427254Y-161357557D01*
X119427254Y-161357557D02*
X119284397Y-161286128D01*
X119284397Y-161286128D02*
X118998683Y-161286128D01*
X118998683Y-161286128D02*
X118855825Y-161357557D01*
X119498683Y-162214700D02*
X119355825Y-162286128D01*
X119355825Y-162286128D02*
X118998683Y-162286128D01*
X118998683Y-162286128D02*
X118855825Y-162214700D01*
X118855825Y-162214700D02*
X118784397Y-162071842D01*
X118784397Y-162071842D02*
X118784397Y-161928985D01*
X118784397Y-161928985D02*
X118855825Y-161786128D01*
X118855825Y-161786128D02*
X118998683Y-161714700D01*
X118998683Y-161714700D02*
X119355825Y-161714700D01*
X119355825Y-161714700D02*
X119498683Y-161643271D01*
X120855826Y-162286128D02*
X120855826Y-160786128D01*
X120855826Y-162214700D02*
X120712968Y-162286128D01*
X120712968Y-162286128D02*
X120427254Y-162286128D01*
X120427254Y-162286128D02*
X120284397Y-162214700D01*
X120284397Y-162214700D02*
X120212968Y-162143271D01*
X120212968Y-162143271D02*
X120141540Y-162000414D01*
X120141540Y-162000414D02*
X120141540Y-161571842D01*
X120141540Y-161571842D02*
X120212968Y-161428985D01*
X120212968Y-161428985D02*
X120284397Y-161357557D01*
X120284397Y-161357557D02*
X120427254Y-161286128D01*
X120427254Y-161286128D02*
X120712968Y-161286128D01*
X120712968Y-161286128D02*
X120855826Y-161357557D01*
X121212969Y-162428985D02*
X122355826Y-162428985D01*
X122712968Y-161286128D02*
X122712968Y-162786128D01*
X122712968Y-161357557D02*
X122855826Y-161286128D01*
X122855826Y-161286128D02*
X123141540Y-161286128D01*
X123141540Y-161286128D02*
X123284397Y-161357557D01*
X123284397Y-161357557D02*
X123355826Y-161428985D01*
X123355826Y-161428985D02*
X123427254Y-161571842D01*
X123427254Y-161571842D02*
X123427254Y-162000414D01*
X123427254Y-162000414D02*
X123355826Y-162143271D01*
X123355826Y-162143271D02*
X123284397Y-162214700D01*
X123284397Y-162214700D02*
X123141540Y-162286128D01*
X123141540Y-162286128D02*
X122855826Y-162286128D01*
X122855826Y-162286128D02*
X122712968Y-162214700D01*
X124712969Y-162214700D02*
X124570111Y-162286128D01*
X124570111Y-162286128D02*
X124284397Y-162286128D01*
X124284397Y-162286128D02*
X124141540Y-162214700D01*
X124141540Y-162214700D02*
X124070111Y-162143271D01*
X124070111Y-162143271D02*
X123998683Y-162000414D01*
X123998683Y-162000414D02*
X123998683Y-161571842D01*
X123998683Y-161571842D02*
X124070111Y-161428985D01*
X124070111Y-161428985D02*
X124141540Y-161357557D01*
X124141540Y-161357557D02*
X124284397Y-161286128D01*
X124284397Y-161286128D02*
X124570111Y-161286128D01*
X124570111Y-161286128D02*
X124712969Y-161357557D01*
X125355825Y-162286128D02*
X125355825Y-160786128D01*
X125355825Y-161357557D02*
X125498683Y-161286128D01*
X125498683Y-161286128D02*
X125784397Y-161286128D01*
X125784397Y-161286128D02*
X125927254Y-161357557D01*
X125927254Y-161357557D02*
X125998683Y-161428985D01*
X125998683Y-161428985D02*
X126070111Y-161571842D01*
X126070111Y-161571842D02*
X126070111Y-162000414D01*
X126070111Y-162000414D02*
X125998683Y-162143271D01*
X125998683Y-162143271D02*
X125927254Y-162214700D01*
X125927254Y-162214700D02*
X125784397Y-162286128D01*
X125784397Y-162286128D02*
X125498683Y-162286128D01*
X125498683Y-162286128D02*
X125355825Y-162214700D01*
D10*
D11*
X89400000Y-157400000D02*
X197400000Y-157400000D01*
D10*
D11*
X90784398Y-159514700D02*
X90998684Y-159586128D01*
X90998684Y-159586128D02*
X91355826Y-159586128D01*
X91355826Y-159586128D02*
X91498684Y-159514700D01*
X91498684Y-159514700D02*
X91570112Y-159443271D01*
X91570112Y-159443271D02*
X91641541Y-159300414D01*
X91641541Y-159300414D02*
X91641541Y-159157557D01*
X91641541Y-159157557D02*
X91570112Y-159014700D01*
X91570112Y-159014700D02*
X91498684Y-158943271D01*
X91498684Y-158943271D02*
X91355826Y-158871842D01*
X91355826Y-158871842D02*
X91070112Y-158800414D01*
X91070112Y-158800414D02*
X90927255Y-158728985D01*
X90927255Y-158728985D02*
X90855826Y-158657557D01*
X90855826Y-158657557D02*
X90784398Y-158514700D01*
X90784398Y-158514700D02*
X90784398Y-158371842D01*
X90784398Y-158371842D02*
X90855826Y-158228985D01*
X90855826Y-158228985D02*
X90927255Y-158157557D01*
X90927255Y-158157557D02*
X91070112Y-158086128D01*
X91070112Y-158086128D02*
X91427255Y-158086128D01*
X91427255Y-158086128D02*
X91641541Y-158157557D01*
X92284397Y-159586128D02*
X92284397Y-158086128D01*
X92927255Y-159586128D02*
X92927255Y-158800414D01*
X92927255Y-158800414D02*
X92855826Y-158657557D01*
X92855826Y-158657557D02*
X92712969Y-158586128D01*
X92712969Y-158586128D02*
X92498683Y-158586128D01*
X92498683Y-158586128D02*
X92355826Y-158657557D01*
X92355826Y-158657557D02*
X92284397Y-158728985D01*
X94212969Y-159514700D02*
X94070112Y-159586128D01*
X94070112Y-159586128D02*
X93784398Y-159586128D01*
X93784398Y-159586128D02*
X93641540Y-159514700D01*
X93641540Y-159514700D02*
X93570112Y-159371842D01*
X93570112Y-159371842D02*
X93570112Y-158800414D01*
X93570112Y-158800414D02*
X93641540Y-158657557D01*
X93641540Y-158657557D02*
X93784398Y-158586128D01*
X93784398Y-158586128D02*
X94070112Y-158586128D01*
X94070112Y-158586128D02*
X94212969Y-158657557D01*
X94212969Y-158657557D02*
X94284398Y-158800414D01*
X94284398Y-158800414D02*
X94284398Y-158943271D01*
X94284398Y-158943271D02*
X93570112Y-159086128D01*
X95498683Y-159514700D02*
X95355826Y-159586128D01*
X95355826Y-159586128D02*
X95070112Y-159586128D01*
X95070112Y-159586128D02*
X94927254Y-159514700D01*
X94927254Y-159514700D02*
X94855826Y-159371842D01*
X94855826Y-159371842D02*
X94855826Y-158800414D01*
X94855826Y-158800414D02*
X94927254Y-158657557D01*
X94927254Y-158657557D02*
X95070112Y-158586128D01*
X95070112Y-158586128D02*
X95355826Y-158586128D01*
X95355826Y-158586128D02*
X95498683Y-158657557D01*
X95498683Y-158657557D02*
X95570112Y-158800414D01*
X95570112Y-158800414D02*
X95570112Y-158943271D01*
X95570112Y-158943271D02*
X94855826Y-159086128D01*
X95998683Y-158586128D02*
X96570111Y-158586128D01*
X96212968Y-158086128D02*
X96212968Y-159371842D01*
X96212968Y-159371842D02*
X96284397Y-159514700D01*
X96284397Y-159514700D02*
X96427254Y-159586128D01*
X96427254Y-159586128D02*
X96570111Y-159586128D01*
X97070111Y-159443271D02*
X97141540Y-159514700D01*
X97141540Y-159514700D02*
X97070111Y-159586128D01*
X97070111Y-159586128D02*
X96998683Y-159514700D01*
X96998683Y-159514700D02*
X97070111Y-159443271D01*
X97070111Y-159443271D02*
X97070111Y-159586128D01*
X97070111Y-158657557D02*
X97141540Y-158728985D01*
X97141540Y-158728985D02*
X97070111Y-158800414D01*
X97070111Y-158800414D02*
X96998683Y-158728985D01*
X96998683Y-158728985D02*
X97070111Y-158657557D01*
X97070111Y-158657557D02*
X97070111Y-158800414D01*
D10*
D12*
X106194510Y-156578128D02*
X106194510Y-155078128D01*
X106194510Y-155078128D02*
X106765939Y-155078128D01*
X106765939Y-155078128D02*
X106908796Y-155149557D01*
X106908796Y-155149557D02*
X106980225Y-155220985D01*
X106980225Y-155220985D02*
X107051653Y-155363842D01*
X107051653Y-155363842D02*
X107051653Y-155578128D01*
X107051653Y-155578128D02*
X106980225Y-155720985D01*
X106980225Y-155720985D02*
X106908796Y-155792414D01*
X106908796Y-155792414D02*
X106765939Y-155863842D01*
X106765939Y-155863842D02*
X106194510Y-155863842D01*
X108337368Y-156578128D02*
X108337368Y-155792414D01*
X108337368Y-155792414D02*
X108265939Y-155649557D01*
X108265939Y-155649557D02*
X108123082Y-155578128D01*
X108123082Y-155578128D02*
X107837368Y-155578128D01*
X107837368Y-155578128D02*
X107694510Y-155649557D01*
X108337368Y-156506700D02*
X108194510Y-156578128D01*
X108194510Y-156578128D02*
X107837368Y-156578128D01*
X107837368Y-156578128D02*
X107694510Y-156506700D01*
X107694510Y-156506700D02*
X107623082Y-156363842D01*
X107623082Y-156363842D02*
X107623082Y-156220985D01*
X107623082Y-156220985D02*
X107694510Y-156078128D01*
X107694510Y-156078128D02*
X107837368Y-156006700D01*
X107837368Y-156006700D02*
X108194510Y-156006700D01*
X108194510Y-156006700D02*
X108337368Y-155935271D01*
X109051653Y-155578128D02*
X109051653Y-156578128D01*
X109051653Y-155720985D02*
X109123082Y-155649557D01*
X109123082Y-155649557D02*
X109265939Y-155578128D01*
X109265939Y-155578128D02*
X109480225Y-155578128D01*
X109480225Y-155578128D02*
X109623082Y-155649557D01*
X109623082Y-155649557D02*
X109694511Y-155792414D01*
X109694511Y-155792414D02*
X109694511Y-156578128D01*
X110194511Y-155578128D02*
X110765939Y-155578128D01*
X110408796Y-155078128D02*
X110408796Y-156363842D01*
X110408796Y-156363842D02*
X110480225Y-156506700D01*
X110480225Y-156506700D02*
X110623082Y-156578128D01*
X110623082Y-156578128D02*
X110765939Y-156578128D01*
X111194511Y-156506700D02*
X111337368Y-156578128D01*
X111337368Y-156578128D02*
X111623082Y-156578128D01*
X111623082Y-156578128D02*
X111765939Y-156506700D01*
X111765939Y-156506700D02*
X111837368Y-156363842D01*
X111837368Y-156363842D02*
X111837368Y-156292414D01*
X111837368Y-156292414D02*
X111765939Y-156149557D01*
X111765939Y-156149557D02*
X111623082Y-156078128D01*
X111623082Y-156078128D02*
X111408797Y-156078128D01*
X111408797Y-156078128D02*
X111265939Y-156006700D01*
X111265939Y-156006700D02*
X111194511Y-155863842D01*
X111194511Y-155863842D02*
X111194511Y-155792414D01*
X111194511Y-155792414D02*
X111265939Y-155649557D01*
X111265939Y-155649557D02*
X111408797Y-155578128D01*
X111408797Y-155578128D02*
X111623082Y-155578128D01*
X111623082Y-155578128D02*
X111765939Y-155649557D01*
X113408797Y-155578128D02*
X113980225Y-155578128D01*
X113623082Y-156578128D02*
X113623082Y-155292414D01*
X113623082Y-155292414D02*
X113694511Y-155149557D01*
X113694511Y-155149557D02*
X113837368Y-155078128D01*
X113837368Y-155078128D02*
X113980225Y-155078128D01*
X114694511Y-156578128D02*
X114551654Y-156506700D01*
X114551654Y-156506700D02*
X114480225Y-156435271D01*
X114480225Y-156435271D02*
X114408797Y-156292414D01*
X114408797Y-156292414D02*
X114408797Y-155863842D01*
X114408797Y-155863842D02*
X114480225Y-155720985D01*
X114480225Y-155720985D02*
X114551654Y-155649557D01*
X114551654Y-155649557D02*
X114694511Y-155578128D01*
X114694511Y-155578128D02*
X114908797Y-155578128D01*
X114908797Y-155578128D02*
X115051654Y-155649557D01*
X115051654Y-155649557D02*
X115123083Y-155720985D01*
X115123083Y-155720985D02*
X115194511Y-155863842D01*
X115194511Y-155863842D02*
X115194511Y-156292414D01*
X115194511Y-156292414D02*
X115123083Y-156435271D01*
X115123083Y-156435271D02*
X115051654Y-156506700D01*
X115051654Y-156506700D02*
X114908797Y-156578128D01*
X114908797Y-156578128D02*
X114694511Y-156578128D01*
X115837368Y-156578128D02*
X115837368Y-155578128D01*
X115837368Y-155863842D02*
X115908797Y-155720985D01*
X115908797Y-155720985D02*
X115980226Y-155649557D01*
X115980226Y-155649557D02*
X116123083Y-155578128D01*
X116123083Y-155578128D02*
X116265940Y-155578128D01*
X118408796Y-155792414D02*
X118623082Y-155863842D01*
X118623082Y-155863842D02*
X118694511Y-155935271D01*
X118694511Y-155935271D02*
X118765939Y-156078128D01*
X118765939Y-156078128D02*
X118765939Y-156292414D01*
X118765939Y-156292414D02*
X118694511Y-156435271D01*
X118694511Y-156435271D02*
X118623082Y-156506700D01*
X118623082Y-156506700D02*
X118480225Y-156578128D01*
X118480225Y-156578128D02*
X117908796Y-156578128D01*
X117908796Y-156578128D02*
X117908796Y-155078128D01*
X117908796Y-155078128D02*
X118408796Y-155078128D01*
X118408796Y-155078128D02*
X118551654Y-155149557D01*
X118551654Y-155149557D02*
X118623082Y-155220985D01*
X118623082Y-155220985D02*
X118694511Y-155363842D01*
X118694511Y-155363842D02*
X118694511Y-155506700D01*
X118694511Y-155506700D02*
X118623082Y-155649557D01*
X118623082Y-155649557D02*
X118551654Y-155720985D01*
X118551654Y-155720985D02*
X118408796Y-155792414D01*
X118408796Y-155792414D02*
X117908796Y-155792414D01*
X119408796Y-156578128D02*
X119408796Y-155578128D01*
X119408796Y-155078128D02*
X119337368Y-155149557D01*
X119337368Y-155149557D02*
X119408796Y-155220985D01*
X119408796Y-155220985D02*
X119480225Y-155149557D01*
X119480225Y-155149557D02*
X119408796Y-155078128D01*
X119408796Y-155078128D02*
X119408796Y-155220985D01*
X120123082Y-156578128D02*
X120123082Y-155578128D01*
X120123082Y-155863842D02*
X120194511Y-155720985D01*
X120194511Y-155720985D02*
X120265940Y-155649557D01*
X120265940Y-155649557D02*
X120408797Y-155578128D01*
X120408797Y-155578128D02*
X120551654Y-155578128D01*
X121694511Y-156578128D02*
X121694511Y-155078128D01*
X121694511Y-156506700D02*
X121551653Y-156578128D01*
X121551653Y-156578128D02*
X121265939Y-156578128D01*
X121265939Y-156578128D02*
X121123082Y-156506700D01*
X121123082Y-156506700D02*
X121051653Y-156435271D01*
X121051653Y-156435271D02*
X120980225Y-156292414D01*
X120980225Y-156292414D02*
X120980225Y-155863842D01*
X120980225Y-155863842D02*
X121051653Y-155720985D01*
X121051653Y-155720985D02*
X121123082Y-155649557D01*
X121123082Y-155649557D02*
X121265939Y-155578128D01*
X121265939Y-155578128D02*
X121551653Y-155578128D01*
X121551653Y-155578128D02*
X121694511Y-155649557D01*
X122337368Y-156506700D02*
X122480225Y-156578128D01*
X122480225Y-156578128D02*
X122765939Y-156578128D01*
X122765939Y-156578128D02*
X122908796Y-156506700D01*
X122908796Y-156506700D02*
X122980225Y-156363842D01*
X122980225Y-156363842D02*
X122980225Y-156292414D01*
X122980225Y-156292414D02*
X122908796Y-156149557D01*
X122908796Y-156149557D02*
X122765939Y-156078128D01*
X122765939Y-156078128D02*
X122551654Y-156078128D01*
X122551654Y-156078128D02*
X122408796Y-156006700D01*
X122408796Y-156006700D02*
X122337368Y-155863842D01*
X122337368Y-155863842D02*
X122337368Y-155792414D01*
X122337368Y-155792414D02*
X122408796Y-155649557D01*
X122408796Y-155649557D02*
X122551654Y-155578128D01*
X122551654Y-155578128D02*
X122765939Y-155578128D01*
X122765939Y-155578128D02*
X122908796Y-155649557D01*
D10*
D11*
X106524398Y-152085928D02*
X106524398Y-153157357D01*
X106524398Y-153157357D02*
X106452969Y-153371642D01*
X106452969Y-153371642D02*
X106310112Y-153514500D01*
X106310112Y-153514500D02*
X106095826Y-153585928D01*
X106095826Y-153585928D02*
X105952969Y-153585928D01*
X107452969Y-153585928D02*
X107310112Y-153514500D01*
X107310112Y-153514500D02*
X107238683Y-153443071D01*
X107238683Y-153443071D02*
X107167255Y-153300214D01*
X107167255Y-153300214D02*
X107167255Y-152871642D01*
X107167255Y-152871642D02*
X107238683Y-152728785D01*
X107238683Y-152728785D02*
X107310112Y-152657357D01*
X107310112Y-152657357D02*
X107452969Y-152585928D01*
X107452969Y-152585928D02*
X107667255Y-152585928D01*
X107667255Y-152585928D02*
X107810112Y-152657357D01*
X107810112Y-152657357D02*
X107881541Y-152728785D01*
X107881541Y-152728785D02*
X107952969Y-152871642D01*
X107952969Y-152871642D02*
X107952969Y-153300214D01*
X107952969Y-153300214D02*
X107881541Y-153443071D01*
X107881541Y-153443071D02*
X107810112Y-153514500D01*
X107810112Y-153514500D02*
X107667255Y-153585928D01*
X107667255Y-153585928D02*
X107452969Y-153585928D01*
X108595826Y-153585928D02*
X108595826Y-152085928D01*
X109238684Y-153585928D02*
X109238684Y-152800214D01*
X109238684Y-152800214D02*
X109167255Y-152657357D01*
X109167255Y-152657357D02*
X109024398Y-152585928D01*
X109024398Y-152585928D02*
X108810112Y-152585928D01*
X108810112Y-152585928D02*
X108667255Y-152657357D01*
X108667255Y-152657357D02*
X108595826Y-152728785D01*
X109952969Y-152585928D02*
X109952969Y-153585928D01*
X109952969Y-152728785D02*
X110024398Y-152657357D01*
X110024398Y-152657357D02*
X110167255Y-152585928D01*
X110167255Y-152585928D02*
X110381541Y-152585928D01*
X110381541Y-152585928D02*
X110524398Y-152657357D01*
X110524398Y-152657357D02*
X110595827Y-152800214D01*
X110595827Y-152800214D02*
X110595827Y-153585928D01*
X112452969Y-153585928D02*
X112452969Y-152085928D01*
X112452969Y-152085928D02*
X112952969Y-153157357D01*
X112952969Y-153157357D02*
X113452969Y-152085928D01*
X113452969Y-152085928D02*
X113452969Y-153585928D01*
X114810113Y-153514500D02*
X114667255Y-153585928D01*
X114667255Y-153585928D02*
X114381541Y-153585928D01*
X114381541Y-153585928D02*
X114238684Y-153514500D01*
X114238684Y-153514500D02*
X114167255Y-153443071D01*
X114167255Y-153443071D02*
X114095827Y-153300214D01*
X114095827Y-153300214D02*
X114095827Y-152871642D01*
X114095827Y-152871642D02*
X114167255Y-152728785D01*
X114167255Y-152728785D02*
X114238684Y-152657357D01*
X114238684Y-152657357D02*
X114381541Y-152585928D01*
X114381541Y-152585928D02*
X114667255Y-152585928D01*
X114667255Y-152585928D02*
X114810113Y-152657357D01*
X115452969Y-153585928D02*
X115452969Y-152085928D01*
X115452969Y-152085928D02*
X116310112Y-153585928D01*
X116310112Y-153585928D02*
X116310112Y-152085928D01*
X117595827Y-153514500D02*
X117452970Y-153585928D01*
X117452970Y-153585928D02*
X117167256Y-153585928D01*
X117167256Y-153585928D02*
X117024398Y-153514500D01*
X117024398Y-153514500D02*
X116952970Y-153371642D01*
X116952970Y-153371642D02*
X116952970Y-152800214D01*
X116952970Y-152800214D02*
X117024398Y-152657357D01*
X117024398Y-152657357D02*
X117167256Y-152585928D01*
X117167256Y-152585928D02*
X117452970Y-152585928D01*
X117452970Y-152585928D02*
X117595827Y-152657357D01*
X117595827Y-152657357D02*
X117667256Y-152800214D01*
X117667256Y-152800214D02*
X117667256Y-152943071D01*
X117667256Y-152943071D02*
X116952970Y-153085928D01*
X118524398Y-153585928D02*
X118381541Y-153514500D01*
X118381541Y-153514500D02*
X118310112Y-153371642D01*
X118310112Y-153371642D02*
X118310112Y-152085928D01*
X119310112Y-153585928D02*
X119167255Y-153514500D01*
X119167255Y-153514500D02*
X119095826Y-153371642D01*
X119095826Y-153371642D02*
X119095826Y-152085928D01*
X119738683Y-152585928D02*
X120095826Y-153585928D01*
X120452969Y-152585928D02*
X120095826Y-153585928D01*
X120095826Y-153585928D02*
X119952969Y-153943071D01*
X119952969Y-153943071D02*
X119881540Y-154014500D01*
X119881540Y-154014500D02*
X119738683Y-154085928D01*
X122167254Y-153014500D02*
X123310112Y-153014500D01*
X125167254Y-152585928D02*
X125167254Y-153871642D01*
X125167254Y-153871642D02*
X125095826Y-154014500D01*
X125095826Y-154014500D02*
X124952969Y-154085928D01*
X124952969Y-154085928D02*
X124881540Y-154085928D01*
X125167254Y-152085928D02*
X125095826Y-152157357D01*
X125095826Y-152157357D02*
X125167254Y-152228785D01*
X125167254Y-152228785D02*
X125238683Y-152157357D01*
X125238683Y-152157357D02*
X125167254Y-152085928D01*
X125167254Y-152085928D02*
X125167254Y-152228785D01*
X125881540Y-153585928D02*
X125881540Y-152085928D01*
X126024398Y-153014500D02*
X126452969Y-153585928D01*
X126452969Y-152585928D02*
X125881540Y-153157357D01*
X127738684Y-153585928D02*
X127738684Y-152800214D01*
X127738684Y-152800214D02*
X127667255Y-152657357D01*
X127667255Y-152657357D02*
X127524398Y-152585928D01*
X127524398Y-152585928D02*
X127238684Y-152585928D01*
X127238684Y-152585928D02*
X127095826Y-152657357D01*
X127738684Y-153514500D02*
X127595826Y-153585928D01*
X127595826Y-153585928D02*
X127238684Y-153585928D01*
X127238684Y-153585928D02*
X127095826Y-153514500D01*
X127095826Y-153514500D02*
X127024398Y-153371642D01*
X127024398Y-153371642D02*
X127024398Y-153228785D01*
X127024398Y-153228785D02*
X127095826Y-153085928D01*
X127095826Y-153085928D02*
X127238684Y-153014500D01*
X127238684Y-153014500D02*
X127595826Y-153014500D01*
X127595826Y-153014500D02*
X127738684Y-152943071D01*
X128452969Y-153585928D02*
X128452969Y-152585928D01*
X128452969Y-152085928D02*
X128381541Y-152157357D01*
X128381541Y-152157357D02*
X128452969Y-152228785D01*
X128452969Y-152228785D02*
X128524398Y-152157357D01*
X128524398Y-152157357D02*
X128452969Y-152085928D01*
X128452969Y-152085928D02*
X128452969Y-152228785D01*
X129381541Y-153585928D02*
X129238684Y-153514500D01*
X129238684Y-153514500D02*
X129167255Y-153371642D01*
X129167255Y-153371642D02*
X129167255Y-152085928D01*
X129952969Y-153585928D02*
X129952969Y-152585928D01*
X129952969Y-152085928D02*
X129881541Y-152157357D01*
X129881541Y-152157357D02*
X129952969Y-152228785D01*
X129952969Y-152228785D02*
X130024398Y-152157357D01*
X130024398Y-152157357D02*
X129952969Y-152085928D01*
X129952969Y-152085928D02*
X129952969Y-152228785D01*
X130667255Y-153585928D02*
X130667255Y-152585928D01*
X130667255Y-152728785D02*
X130738684Y-152657357D01*
X130738684Y-152657357D02*
X130881541Y-152585928D01*
X130881541Y-152585928D02*
X131095827Y-152585928D01*
X131095827Y-152585928D02*
X131238684Y-152657357D01*
X131238684Y-152657357D02*
X131310113Y-152800214D01*
X131310113Y-152800214D02*
X131310113Y-153585928D01*
X131310113Y-152800214D02*
X131381541Y-152657357D01*
X131381541Y-152657357D02*
X131524398Y-152585928D01*
X131524398Y-152585928D02*
X131738684Y-152585928D01*
X131738684Y-152585928D02*
X131881541Y-152657357D01*
X131881541Y-152657357D02*
X131952970Y-152800214D01*
X131952970Y-152800214D02*
X131952970Y-153585928D01*
X133310113Y-153514500D02*
X133167255Y-153585928D01*
X133167255Y-153585928D02*
X132881541Y-153585928D01*
X132881541Y-153585928D02*
X132738684Y-153514500D01*
X132738684Y-153514500D02*
X132667255Y-153443071D01*
X132667255Y-153443071D02*
X132595827Y-153300214D01*
X132595827Y-153300214D02*
X132595827Y-152871642D01*
X132595827Y-152871642D02*
X132667255Y-152728785D01*
X132667255Y-152728785D02*
X132738684Y-152657357D01*
X132738684Y-152657357D02*
X132881541Y-152585928D01*
X132881541Y-152585928D02*
X133167255Y-152585928D01*
X133167255Y-152585928D02*
X133310113Y-152657357D01*
X133952969Y-152585928D02*
X133952969Y-153585928D01*
X133952969Y-152728785D02*
X134024398Y-152657357D01*
X134024398Y-152657357D02*
X134167255Y-152585928D01*
X134167255Y-152585928D02*
X134381541Y-152585928D01*
X134381541Y-152585928D02*
X134524398Y-152657357D01*
X134524398Y-152657357D02*
X134595827Y-152800214D01*
X134595827Y-152800214D02*
X134595827Y-153585928D01*
X135881541Y-153514500D02*
X135738684Y-153585928D01*
X135738684Y-153585928D02*
X135452970Y-153585928D01*
X135452970Y-153585928D02*
X135310112Y-153514500D01*
X135310112Y-153514500D02*
X135238684Y-153371642D01*
X135238684Y-153371642D02*
X135238684Y-152800214D01*
X135238684Y-152800214D02*
X135310112Y-152657357D01*
X135310112Y-152657357D02*
X135452970Y-152585928D01*
X135452970Y-152585928D02*
X135738684Y-152585928D01*
X135738684Y-152585928D02*
X135881541Y-152657357D01*
X135881541Y-152657357D02*
X135952970Y-152800214D01*
X135952970Y-152800214D02*
X135952970Y-152943071D01*
X135952970Y-152943071D02*
X135238684Y-153085928D01*
X136810112Y-153585928D02*
X136667255Y-153514500D01*
X136667255Y-153514500D02*
X136595826Y-153371642D01*
X136595826Y-153371642D02*
X136595826Y-152085928D01*
X137595826Y-153585928D02*
X137452969Y-153514500D01*
X137452969Y-153514500D02*
X137381540Y-153371642D01*
X137381540Y-153371642D02*
X137381540Y-152085928D01*
X138024397Y-152585928D02*
X138381540Y-153585928D01*
X138738683Y-152585928D02*
X138381540Y-153585928D01*
X138381540Y-153585928D02*
X138238683Y-153943071D01*
X138238683Y-153943071D02*
X138167254Y-154014500D01*
X138167254Y-154014500D02*
X138024397Y-154085928D01*
X140238683Y-152871642D02*
X140167254Y-152800214D01*
X140167254Y-152800214D02*
X140024397Y-152728785D01*
X140024397Y-152728785D02*
X139881540Y-152728785D01*
X139881540Y-152728785D02*
X139738683Y-152800214D01*
X139738683Y-152800214D02*
X139667254Y-152871642D01*
X139667254Y-152871642D02*
X139595826Y-153014500D01*
X139595826Y-153014500D02*
X139595826Y-153157357D01*
X139595826Y-153157357D02*
X139667254Y-153300214D01*
X139667254Y-153300214D02*
X139738683Y-153371642D01*
X139738683Y-153371642D02*
X139881540Y-153443071D01*
X139881540Y-153443071D02*
X140024397Y-153443071D01*
X140024397Y-153443071D02*
X140167254Y-153371642D01*
X140167254Y-153371642D02*
X140238683Y-153300214D01*
X140238683Y-152728785D02*
X140238683Y-153300214D01*
X140238683Y-153300214D02*
X140310111Y-153371642D01*
X140310111Y-153371642D02*
X140381540Y-153371642D01*
X140381540Y-153371642D02*
X140524397Y-153300214D01*
X140524397Y-153300214D02*
X140595826Y-153157357D01*
X140595826Y-153157357D02*
X140595826Y-152800214D01*
X140595826Y-152800214D02*
X140452969Y-152585928D01*
X140452969Y-152585928D02*
X140238683Y-152443071D01*
X140238683Y-152443071D02*
X139952969Y-152371642D01*
X139952969Y-152371642D02*
X139667254Y-152443071D01*
X139667254Y-152443071D02*
X139452969Y-152585928D01*
X139452969Y-152585928D02*
X139310111Y-152800214D01*
X139310111Y-152800214D02*
X139238683Y-153085928D01*
X139238683Y-153085928D02*
X139310111Y-153371642D01*
X139310111Y-153371642D02*
X139452969Y-153585928D01*
X139452969Y-153585928D02*
X139667254Y-153728785D01*
X139667254Y-153728785D02*
X139952969Y-153800214D01*
X139952969Y-153800214D02*
X140238683Y-153728785D01*
X140238683Y-153728785D02*
X140452969Y-153585928D01*
X141881540Y-152585928D02*
X141881540Y-153800214D01*
X141881540Y-153800214D02*
X141810111Y-153943071D01*
X141810111Y-153943071D02*
X141738682Y-154014500D01*
X141738682Y-154014500D02*
X141595825Y-154085928D01*
X141595825Y-154085928D02*
X141381540Y-154085928D01*
X141381540Y-154085928D02*
X141238682Y-154014500D01*
X141881540Y-153514500D02*
X141738682Y-153585928D01*
X141738682Y-153585928D02*
X141452968Y-153585928D01*
X141452968Y-153585928D02*
X141310111Y-153514500D01*
X141310111Y-153514500D02*
X141238682Y-153443071D01*
X141238682Y-153443071D02*
X141167254Y-153300214D01*
X141167254Y-153300214D02*
X141167254Y-152871642D01*
X141167254Y-152871642D02*
X141238682Y-152728785D01*
X141238682Y-152728785D02*
X141310111Y-152657357D01*
X141310111Y-152657357D02*
X141452968Y-152585928D01*
X141452968Y-152585928D02*
X141738682Y-152585928D01*
X141738682Y-152585928D02*
X141881540Y-152657357D01*
X142595825Y-153585928D02*
X142595825Y-152585928D01*
X142595825Y-152728785D02*
X142667254Y-152657357D01*
X142667254Y-152657357D02*
X142810111Y-152585928D01*
X142810111Y-152585928D02*
X143024397Y-152585928D01*
X143024397Y-152585928D02*
X143167254Y-152657357D01*
X143167254Y-152657357D02*
X143238683Y-152800214D01*
X143238683Y-152800214D02*
X143238683Y-153585928D01*
X143238683Y-152800214D02*
X143310111Y-152657357D01*
X143310111Y-152657357D02*
X143452968Y-152585928D01*
X143452968Y-152585928D02*
X143667254Y-152585928D01*
X143667254Y-152585928D02*
X143810111Y-152657357D01*
X143810111Y-152657357D02*
X143881540Y-152800214D01*
X143881540Y-152800214D02*
X143881540Y-153585928D01*
X145238683Y-153585928D02*
X145238683Y-152800214D01*
X145238683Y-152800214D02*
X145167254Y-152657357D01*
X145167254Y-152657357D02*
X145024397Y-152585928D01*
X145024397Y-152585928D02*
X144738683Y-152585928D01*
X144738683Y-152585928D02*
X144595825Y-152657357D01*
X145238683Y-153514500D02*
X145095825Y-153585928D01*
X145095825Y-153585928D02*
X144738683Y-153585928D01*
X144738683Y-153585928D02*
X144595825Y-153514500D01*
X144595825Y-153514500D02*
X144524397Y-153371642D01*
X144524397Y-153371642D02*
X144524397Y-153228785D01*
X144524397Y-153228785D02*
X144595825Y-153085928D01*
X144595825Y-153085928D02*
X144738683Y-153014500D01*
X144738683Y-153014500D02*
X145095825Y-153014500D01*
X145095825Y-153014500D02*
X145238683Y-152943071D01*
X145952968Y-153585928D02*
X145952968Y-152585928D01*
X145952968Y-152085928D02*
X145881540Y-152157357D01*
X145881540Y-152157357D02*
X145952968Y-152228785D01*
X145952968Y-152228785D02*
X146024397Y-152157357D01*
X146024397Y-152157357D02*
X145952968Y-152085928D01*
X145952968Y-152085928D02*
X145952968Y-152228785D01*
X146881540Y-153585928D02*
X146738683Y-153514500D01*
X146738683Y-153514500D02*
X146667254Y-153371642D01*
X146667254Y-153371642D02*
X146667254Y-152085928D01*
X147452968Y-153443071D02*
X147524397Y-153514500D01*
X147524397Y-153514500D02*
X147452968Y-153585928D01*
X147452968Y-153585928D02*
X147381540Y-153514500D01*
X147381540Y-153514500D02*
X147452968Y-153443071D01*
X147452968Y-153443071D02*
X147452968Y-153585928D01*
X148810112Y-153514500D02*
X148667254Y-153585928D01*
X148667254Y-153585928D02*
X148381540Y-153585928D01*
X148381540Y-153585928D02*
X148238683Y-153514500D01*
X148238683Y-153514500D02*
X148167254Y-153443071D01*
X148167254Y-153443071D02*
X148095826Y-153300214D01*
X148095826Y-153300214D02*
X148095826Y-152871642D01*
X148095826Y-152871642D02*
X148167254Y-152728785D01*
X148167254Y-152728785D02*
X148238683Y-152657357D01*
X148238683Y-152657357D02*
X148381540Y-152585928D01*
X148381540Y-152585928D02*
X148667254Y-152585928D01*
X148667254Y-152585928D02*
X148810112Y-152657357D01*
X149667254Y-153585928D02*
X149524397Y-153514500D01*
X149524397Y-153514500D02*
X149452968Y-153443071D01*
X149452968Y-153443071D02*
X149381540Y-153300214D01*
X149381540Y-153300214D02*
X149381540Y-152871642D01*
X149381540Y-152871642D02*
X149452968Y-152728785D01*
X149452968Y-152728785D02*
X149524397Y-152657357D01*
X149524397Y-152657357D02*
X149667254Y-152585928D01*
X149667254Y-152585928D02*
X149881540Y-152585928D01*
X149881540Y-152585928D02*
X150024397Y-152657357D01*
X150024397Y-152657357D02*
X150095826Y-152728785D01*
X150095826Y-152728785D02*
X150167254Y-152871642D01*
X150167254Y-152871642D02*
X150167254Y-153300214D01*
X150167254Y-153300214D02*
X150095826Y-153443071D01*
X150095826Y-153443071D02*
X150024397Y-153514500D01*
X150024397Y-153514500D02*
X149881540Y-153585928D01*
X149881540Y-153585928D02*
X149667254Y-153585928D01*
X150810111Y-153585928D02*
X150810111Y-152585928D01*
X150810111Y-152728785D02*
X150881540Y-152657357D01*
X150881540Y-152657357D02*
X151024397Y-152585928D01*
X151024397Y-152585928D02*
X151238683Y-152585928D01*
X151238683Y-152585928D02*
X151381540Y-152657357D01*
X151381540Y-152657357D02*
X151452969Y-152800214D01*
X151452969Y-152800214D02*
X151452969Y-153585928D01*
X151452969Y-152800214D02*
X151524397Y-152657357D01*
X151524397Y-152657357D02*
X151667254Y-152585928D01*
X151667254Y-152585928D02*
X151881540Y-152585928D01*
X151881540Y-152585928D02*
X152024397Y-152657357D01*
X152024397Y-152657357D02*
X152095826Y-152800214D01*
X152095826Y-152800214D02*
X152095826Y-153585928D01*
D10*
D11*
D10*
D11*
D10*
D11*
D10*
D11*
X109400000Y-167400000D02*
X109400000Y-170400000D01*
D10*
D11*
X173400000Y-167400000D02*
X173400000Y-173900000D01*
D10*
D11*
X104411000Y-141997800D02*
X104411000Y-157397800D01*
X26452381Y-22104819D02*
X26547619Y-22104819D01*
X26547619Y-22104819D02*
X26642857Y-22152438D01*
X26642857Y-22152438D02*
X26690476Y-22200057D01*
X26690476Y-22200057D02*
X26738095Y-22295295D01*
X26738095Y-22295295D02*
X26785714Y-22485771D01*
X26785714Y-22485771D02*
X26785714Y-22723866D01*
X26785714Y-22723866D02*
X26738095Y-22914342D01*
X26738095Y-22914342D02*
X26690476Y-23009580D01*
X26690476Y-23009580D02*
X26642857Y-23057200D01*
X26642857Y-23057200D02*
X26547619Y-23104819D01*
X26547619Y-23104819D02*
X26452381Y-23104819D01*
X26452381Y-23104819D02*
X26357143Y-23057200D01*
X26357143Y-23057200D02*
X26309524Y-23009580D01*
X26309524Y-23009580D02*
X26261905Y-22914342D01*
X26261905Y-22914342D02*
X26214286Y-22723866D01*
X26214286Y-22723866D02*
X26214286Y-22485771D01*
X26214286Y-22485771D02*
X26261905Y-22295295D01*
X26261905Y-22295295D02*
X26309524Y-22200057D01*
X26309524Y-22200057D02*
X26357143Y-22152438D01*
X26357143Y-22152438D02*
X26452381Y-22104819D01*
X27785714Y-23104819D02*
X27452381Y-22628628D01*
X27214286Y-23104819D02*
X27214286Y-22104819D01*
X27214286Y-22104819D02*
X27595238Y-22104819D01*
X27595238Y-22104819D02*
X27690476Y-22152438D01*
X27690476Y-22152438D02*
X27738095Y-22200057D01*
X27738095Y-22200057D02*
X27785714Y-22295295D01*
X27785714Y-22295295D02*
X27785714Y-22438152D01*
X27785714Y-22438152D02*
X27738095Y-22533390D01*
X27738095Y-22533390D02*
X27690476Y-22581009D01*
X27690476Y-22581009D02*
X27595238Y-22628628D01*
X27595238Y-22628628D02*
X27214286Y-22628628D01*
D14*
X26916666Y-21227149D02*
X26750000Y-20989054D01*
X26630952Y-21227149D02*
X26630952Y-20727149D01*
X26630952Y-20727149D02*
X26821428Y-20727149D01*
X26821428Y-20727149D02*
X26869047Y-20750959D01*
X26869047Y-20750959D02*
X26892857Y-20774768D01*
X26892857Y-20774768D02*
X26916666Y-20822387D01*
X26916666Y-20822387D02*
X26916666Y-20893816D01*
X26916666Y-20893816D02*
X26892857Y-20941435D01*
X26892857Y-20941435D02*
X26869047Y-20965244D01*
X26869047Y-20965244D02*
X26821428Y-20989054D01*
X26821428Y-20989054D02*
X26630952Y-20989054D01*
X27202381Y-20941435D02*
X27154762Y-20917625D01*
X27154762Y-20917625D02*
X27130952Y-20893816D01*
X27130952Y-20893816D02*
X27107143Y-20846197D01*
X27107143Y-20846197D02*
X27107143Y-20822387D01*
X27107143Y-20822387D02*
X27130952Y-20774768D01*
X27130952Y-20774768D02*
X27154762Y-20750959D01*
X27154762Y-20750959D02*
X27202381Y-20727149D01*
X27202381Y-20727149D02*
X27297619Y-20727149D01*
X27297619Y-20727149D02*
X27345238Y-20750959D01*
X27345238Y-20750959D02*
X27369047Y-20774768D01*
X27369047Y-20774768D02*
X27392857Y-20822387D01*
X27392857Y-20822387D02*
X27392857Y-20846197D01*
X27392857Y-20846197D02*
X27369047Y-20893816D01*
X27369047Y-20893816D02*
X27345238Y-20917625D01*
X27345238Y-20917625D02*
X27297619Y-20941435D01*
X27297619Y-20941435D02*
X27202381Y-20941435D01*
X27202381Y-20941435D02*
X27154762Y-20965244D01*
X27154762Y-20965244D02*
X27130952Y-20989054D01*
X27130952Y-20989054D02*
X27107143Y-21036673D01*
X27107143Y-21036673D02*
X27107143Y-21131911D01*
X27107143Y-21131911D02*
X27130952Y-21179530D01*
X27130952Y-21179530D02*
X27154762Y-21203340D01*
X27154762Y-21203340D02*
X27202381Y-21227149D01*
X27202381Y-21227149D02*
X27297619Y-21227149D01*
X27297619Y-21227149D02*
X27345238Y-21203340D01*
X27345238Y-21203340D02*
X27369047Y-21179530D01*
X27369047Y-21179530D02*
X27392857Y-21131911D01*
X27392857Y-21131911D02*
X27392857Y-21036673D01*
X27392857Y-21036673D02*
X27369047Y-20989054D01*
X27369047Y-20989054D02*
X27345238Y-20965244D01*
X27345238Y-20965244D02*
X27297619Y-20941435D01*
D11*
X27354819Y-10142857D02*
X27354819Y-10714285D01*
X27354819Y-10428571D02*
X26354819Y-10428571D01*
X26354819Y-10428571D02*
X26497676Y-10523809D01*
X26497676Y-10523809D02*
X26592914Y-10619047D01*
X26592914Y-10619047D02*
X26640533Y-10714285D01*
X27354819Y-9714285D02*
X26354819Y-9714285D01*
X26354819Y-9714285D02*
X27354819Y-9142857D01*
X27354819Y-9142857D02*
X26354819Y-9142857D01*
X26354819Y-8190476D02*
X26354819Y-8666666D01*
X26354819Y-8666666D02*
X26831009Y-8714285D01*
X26831009Y-8714285D02*
X26783390Y-8666666D01*
X26783390Y-8666666D02*
X26735771Y-8571428D01*
X26735771Y-8571428D02*
X26735771Y-8333333D01*
X26735771Y-8333333D02*
X26783390Y-8238095D01*
X26783390Y-8238095D02*
X26831009Y-8190476D01*
X26831009Y-8190476D02*
X26926247Y-8142857D01*
X26926247Y-8142857D02*
X27164342Y-8142857D01*
X27164342Y-8142857D02*
X27259580Y-8190476D01*
X27259580Y-8190476D02*
X27307200Y-8238095D01*
X27307200Y-8238095D02*
X27354819Y-8333333D01*
X27354819Y-8333333D02*
X27354819Y-8571428D01*
X27354819Y-8571428D02*
X27307200Y-8666666D01*
X27307200Y-8666666D02*
X27259580Y-8714285D01*
X26783390Y-7571428D02*
X26735771Y-7666666D01*
X26735771Y-7666666D02*
X26688152Y-7714285D01*
X26688152Y-7714285D02*
X26592914Y-7761904D01*
X26592914Y-7761904D02*
X26545295Y-7761904D01*
X26545295Y-7761904D02*
X26450057Y-7714285D01*
X26450057Y-7714285D02*
X26402438Y-7666666D01*
X26402438Y-7666666D02*
X26354819Y-7571428D01*
X26354819Y-7571428D02*
X26354819Y-7380952D01*
X26354819Y-7380952D02*
X26402438Y-7285714D01*
X26402438Y-7285714D02*
X26450057Y-7238095D01*
X26450057Y-7238095D02*
X26545295Y-7190476D01*
X26545295Y-7190476D02*
X26592914Y-7190476D01*
X26592914Y-7190476D02*
X26688152Y-7238095D01*
X26688152Y-7238095D02*
X26735771Y-7285714D01*
X26735771Y-7285714D02*
X26783390Y-7380952D01*
X26783390Y-7380952D02*
X26783390Y-7571428D01*
X26783390Y-7571428D02*
X26831009Y-7666666D01*
X26831009Y-7666666D02*
X26878628Y-7714285D01*
X26878628Y-7714285D02*
X26973866Y-7761904D01*
X26973866Y-7761904D02*
X27164342Y-7761904D01*
X27164342Y-7761904D02*
X27259580Y-7714285D01*
X27259580Y-7714285D02*
X27307200Y-7666666D01*
X27307200Y-7666666D02*
X27354819Y-7571428D01*
X27354819Y-7571428D02*
X27354819Y-7380952D01*
X27354819Y-7380952D02*
X27307200Y-7285714D01*
X27307200Y-7285714D02*
X27259580Y-7238095D01*
X27259580Y-7238095D02*
X27164342Y-7190476D01*
X27164342Y-7190476D02*
X26973866Y-7190476D01*
X26973866Y-7190476D02*
X26878628Y-7238095D01*
X26878628Y-7238095D02*
X26831009Y-7285714D01*
X26831009Y-7285714D02*
X26783390Y-7380952D01*
X27354819Y-6238095D02*
X27354819Y-6809523D01*
X27354819Y-6523809D02*
X26354819Y-6523809D01*
X26354819Y-6523809D02*
X26497676Y-6619047D01*
X26497676Y-6619047D02*
X26592914Y-6714285D01*
X26592914Y-6714285D02*
X26640533Y-6809523D01*
X27354819Y-5761904D02*
X27354819Y-5571428D01*
X27354819Y-5571428D02*
X27307200Y-5476190D01*
X27307200Y-5476190D02*
X27259580Y-5428571D01*
X27259580Y-5428571D02*
X27116723Y-5333333D01*
X27116723Y-5333333D02*
X26926247Y-5285714D01*
X26926247Y-5285714D02*
X26545295Y-5285714D01*
X26545295Y-5285714D02*
X26450057Y-5333333D01*
X26450057Y-5333333D02*
X26402438Y-5380952D01*
X26402438Y-5380952D02*
X26354819Y-5476190D01*
X26354819Y-5476190D02*
X26354819Y-5666666D01*
X26354819Y-5666666D02*
X26402438Y-5761904D01*
X26402438Y-5761904D02*
X26450057Y-5809523D01*
X26450057Y-5809523D02*
X26545295Y-5857142D01*
X26545295Y-5857142D02*
X26783390Y-5857142D01*
X26783390Y-5857142D02*
X26878628Y-5809523D01*
X26878628Y-5809523D02*
X26926247Y-5761904D01*
X26926247Y-5761904D02*
X26973866Y-5666666D01*
X26973866Y-5666666D02*
X26973866Y-5476190D01*
X26973866Y-5476190D02*
X26926247Y-5380952D01*
X26926247Y-5380952D02*
X26878628Y-5333333D01*
X26878628Y-5333333D02*
X26783390Y-5285714D01*
X31454819Y-8738094D02*
X30454819Y-8738094D01*
X30454819Y-8738094D02*
X30454819Y-8499999D01*
X30454819Y-8499999D02*
X30502438Y-8357142D01*
X30502438Y-8357142D02*
X30597676Y-8261904D01*
X30597676Y-8261904D02*
X30692914Y-8214285D01*
X30692914Y-8214285D02*
X30883390Y-8166666D01*
X30883390Y-8166666D02*
X31026247Y-8166666D01*
X31026247Y-8166666D02*
X31216723Y-8214285D01*
X31216723Y-8214285D02*
X31311961Y-8261904D01*
X31311961Y-8261904D02*
X31407200Y-8357142D01*
X31407200Y-8357142D02*
X31454819Y-8499999D01*
X31454819Y-8499999D02*
X31454819Y-8738094D01*
X31454819Y-7214285D02*
X31454819Y-7785713D01*
X31454819Y-7499999D02*
X30454819Y-7499999D01*
X30454819Y-7499999D02*
X30597676Y-7595237D01*
X30597676Y-7595237D02*
X30692914Y-7690475D01*
X30692914Y-7690475D02*
X30740533Y-7785713D01*
X9884819Y-20595238D02*
X9884819Y-21166666D01*
X9884819Y-20880952D02*
X8884819Y-20880952D01*
X8884819Y-20880952D02*
X9027676Y-20976190D01*
X9027676Y-20976190D02*
X9122914Y-21071428D01*
X9122914Y-21071428D02*
X9170533Y-21166666D01*
X8884819Y-19976190D02*
X8884819Y-19880952D01*
X8884819Y-19880952D02*
X8932438Y-19785714D01*
X8932438Y-19785714D02*
X8980057Y-19738095D01*
X8980057Y-19738095D02*
X9075295Y-19690476D01*
X9075295Y-19690476D02*
X9265771Y-19642857D01*
X9265771Y-19642857D02*
X9503866Y-19642857D01*
X9503866Y-19642857D02*
X9694342Y-19690476D01*
X9694342Y-19690476D02*
X9789580Y-19738095D01*
X9789580Y-19738095D02*
X9837200Y-19785714D01*
X9837200Y-19785714D02*
X9884819Y-19880952D01*
X9884819Y-19880952D02*
X9884819Y-19976190D01*
X9884819Y-19976190D02*
X9837200Y-20071428D01*
X9837200Y-20071428D02*
X9789580Y-20119047D01*
X9789580Y-20119047D02*
X9694342Y-20166666D01*
X9694342Y-20166666D02*
X9503866Y-20214285D01*
X9503866Y-20214285D02*
X9265771Y-20214285D01*
X9265771Y-20214285D02*
X9075295Y-20166666D01*
X9075295Y-20166666D02*
X8980057Y-20119047D01*
X8980057Y-20119047D02*
X8932438Y-20071428D01*
X8932438Y-20071428D02*
X8884819Y-19976190D01*
X9884819Y-19214285D02*
X8884819Y-19214285D01*
X9503866Y-19119047D02*
X9884819Y-18833333D01*
X9218152Y-18833333D02*
X9599104Y-19214285D01*
D15*
X8181927Y-20066666D02*
X7991451Y-20199999D01*
X8181927Y-20295237D02*
X7781927Y-20295237D01*
X7781927Y-20295237D02*
X7781927Y-20142856D01*
X7781927Y-20142856D02*
X7800975Y-20104761D01*
X7800975Y-20104761D02*
X7820022Y-20085714D01*
X7820022Y-20085714D02*
X7858118Y-20066666D01*
X7858118Y-20066666D02*
X7915260Y-20066666D01*
X7915260Y-20066666D02*
X7953356Y-20085714D01*
X7953356Y-20085714D02*
X7972403Y-20104761D01*
X7972403Y-20104761D02*
X7991451Y-20142856D01*
X7991451Y-20142856D02*
X7991451Y-20295237D01*
X7820022Y-19914285D02*
X7800975Y-19895237D01*
X7800975Y-19895237D02*
X7781927Y-19857142D01*
X7781927Y-19857142D02*
X7781927Y-19761904D01*
X7781927Y-19761904D02*
X7800975Y-19723809D01*
X7800975Y-19723809D02*
X7820022Y-19704761D01*
X7820022Y-19704761D02*
X7858118Y-19685714D01*
X7858118Y-19685714D02*
X7896213Y-19685714D01*
X7896213Y-19685714D02*
X7953356Y-19704761D01*
X7953356Y-19704761D02*
X8181927Y-19933333D01*
X8181927Y-19933333D02*
X8181927Y-19685714D01*
D11*
X18928571Y-11134818D02*
X18357143Y-11134818D01*
X18642857Y-11134818D02*
X18642857Y-10134818D01*
X18642857Y-10134818D02*
X18547619Y-10277675D01*
X18547619Y-10277675D02*
X18452381Y-10372913D01*
X18452381Y-10372913D02*
X18357143Y-10420532D01*
X19547619Y-10134818D02*
X19642857Y-10134818D01*
X19642857Y-10134818D02*
X19738095Y-10182437D01*
X19738095Y-10182437D02*
X19785714Y-10230056D01*
X19785714Y-10230056D02*
X19833333Y-10325294D01*
X19833333Y-10325294D02*
X19880952Y-10515770D01*
X19880952Y-10515770D02*
X19880952Y-10753865D01*
X19880952Y-10753865D02*
X19833333Y-10944341D01*
X19833333Y-10944341D02*
X19785714Y-11039579D01*
X19785714Y-11039579D02*
X19738095Y-11087199D01*
X19738095Y-11087199D02*
X19642857Y-11134818D01*
X19642857Y-11134818D02*
X19547619Y-11134818D01*
X19547619Y-11134818D02*
X19452381Y-11087199D01*
X19452381Y-11087199D02*
X19404762Y-11039579D01*
X19404762Y-11039579D02*
X19357143Y-10944341D01*
X19357143Y-10944341D02*
X19309524Y-10753865D01*
X19309524Y-10753865D02*
X19309524Y-10515770D01*
X19309524Y-10515770D02*
X19357143Y-10325294D01*
X19357143Y-10325294D02*
X19404762Y-10230056D01*
X19404762Y-10230056D02*
X19452381Y-10182437D01*
X19452381Y-10182437D02*
X19547619Y-10134818D01*
X20738095Y-10468151D02*
X20738095Y-11134818D01*
X20309524Y-10468151D02*
X20309524Y-10991960D01*
X20309524Y-10991960D02*
X20357143Y-11087199D01*
X20357143Y-11087199D02*
X20452381Y-11134818D01*
X20452381Y-11134818D02*
X20595238Y-11134818D01*
X20595238Y-11134818D02*
X20690476Y-11087199D01*
X20690476Y-11087199D02*
X20738095Y-11039579D01*
X21547619Y-10611008D02*
X21214286Y-10611008D01*
X21214286Y-11134818D02*
X21214286Y-10134818D01*
X21214286Y-10134818D02*
X21690476Y-10134818D01*
D14*
X19916666Y-9179529D02*
X19892857Y-9203339D01*
X19892857Y-9203339D02*
X19821428Y-9227148D01*
X19821428Y-9227148D02*
X19773809Y-9227148D01*
X19773809Y-9227148D02*
X19702381Y-9203339D01*
X19702381Y-9203339D02*
X19654762Y-9155719D01*
X19654762Y-9155719D02*
X19630952Y-9108100D01*
X19630952Y-9108100D02*
X19607143Y-9012862D01*
X19607143Y-9012862D02*
X19607143Y-8941434D01*
X19607143Y-8941434D02*
X19630952Y-8846196D01*
X19630952Y-8846196D02*
X19654762Y-8798577D01*
X19654762Y-8798577D02*
X19702381Y-8750958D01*
X19702381Y-8750958D02*
X19773809Y-8727148D01*
X19773809Y-8727148D02*
X19821428Y-8727148D01*
X19821428Y-8727148D02*
X19892857Y-8750958D01*
X19892857Y-8750958D02*
X19916666Y-8774767D01*
X20345238Y-8893815D02*
X20345238Y-9227148D01*
X20226190Y-8703339D02*
X20107143Y-9060481D01*
X20107143Y-9060481D02*
X20416666Y-9060481D01*
D11*
X23928571Y-25524819D02*
X23357143Y-25524819D01*
X23642857Y-25524819D02*
X23642857Y-24524819D01*
X23642857Y-24524819D02*
X23547619Y-24667676D01*
X23547619Y-24667676D02*
X23452381Y-24762914D01*
X23452381Y-24762914D02*
X23357143Y-24810533D01*
X24547619Y-24524819D02*
X24642857Y-24524819D01*
X24642857Y-24524819D02*
X24738095Y-24572438D01*
X24738095Y-24572438D02*
X24785714Y-24620057D01*
X24785714Y-24620057D02*
X24833333Y-24715295D01*
X24833333Y-24715295D02*
X24880952Y-24905771D01*
X24880952Y-24905771D02*
X24880952Y-25143866D01*
X24880952Y-25143866D02*
X24833333Y-25334342D01*
X24833333Y-25334342D02*
X24785714Y-25429580D01*
X24785714Y-25429580D02*
X24738095Y-25477200D01*
X24738095Y-25477200D02*
X24642857Y-25524819D01*
X24642857Y-25524819D02*
X24547619Y-25524819D01*
X24547619Y-25524819D02*
X24452381Y-25477200D01*
X24452381Y-25477200D02*
X24404762Y-25429580D01*
X24404762Y-25429580D02*
X24357143Y-25334342D01*
X24357143Y-25334342D02*
X24309524Y-25143866D01*
X24309524Y-25143866D02*
X24309524Y-24905771D01*
X24309524Y-24905771D02*
X24357143Y-24715295D01*
X24357143Y-24715295D02*
X24404762Y-24620057D01*
X24404762Y-24620057D02*
X24452381Y-24572438D01*
X24452381Y-24572438D02*
X24547619Y-24524819D01*
X25500000Y-24524819D02*
X25595238Y-24524819D01*
X25595238Y-24524819D02*
X25690476Y-24572438D01*
X25690476Y-24572438D02*
X25738095Y-24620057D01*
X25738095Y-24620057D02*
X25785714Y-24715295D01*
X25785714Y-24715295D02*
X25833333Y-24905771D01*
X25833333Y-24905771D02*
X25833333Y-25143866D01*
X25833333Y-25143866D02*
X25785714Y-25334342D01*
X25785714Y-25334342D02*
X25738095Y-25429580D01*
X25738095Y-25429580D02*
X25690476Y-25477200D01*
X25690476Y-25477200D02*
X25595238Y-25524819D01*
X25595238Y-25524819D02*
X25500000Y-25524819D01*
X25500000Y-25524819D02*
X25404762Y-25477200D01*
X25404762Y-25477200D02*
X25357143Y-25429580D01*
X25357143Y-25429580D02*
X25309524Y-25334342D01*
X25309524Y-25334342D02*
X25261905Y-25143866D01*
X25261905Y-25143866D02*
X25261905Y-24905771D01*
X25261905Y-24905771D02*
X25309524Y-24715295D01*
X25309524Y-24715295D02*
X25357143Y-24620057D01*
X25357143Y-24620057D02*
X25404762Y-24572438D01*
X25404762Y-24572438D02*
X25500000Y-24524819D01*
X26261905Y-25524819D02*
X26261905Y-24524819D01*
X26357143Y-25143866D02*
X26642857Y-25524819D01*
X26642857Y-24858152D02*
X26261905Y-25239104D01*
D15*
X24933333Y-26681927D02*
X24800000Y-26491451D01*
X24704762Y-26681927D02*
X24704762Y-26281927D01*
X24704762Y-26281927D02*
X24857143Y-26281927D01*
X24857143Y-26281927D02*
X24895238Y-26300975D01*
X24895238Y-26300975D02*
X24914285Y-26320022D01*
X24914285Y-26320022D02*
X24933333Y-26358118D01*
X24933333Y-26358118D02*
X24933333Y-26415260D01*
X24933333Y-26415260D02*
X24914285Y-26453356D01*
X24914285Y-26453356D02*
X24895238Y-26472403D01*
X24895238Y-26472403D02*
X24857143Y-26491451D01*
X24857143Y-26491451D02*
X24704762Y-26491451D01*
X25066666Y-26281927D02*
X25314285Y-26281927D01*
X25314285Y-26281927D02*
X25180952Y-26434308D01*
X25180952Y-26434308D02*
X25238095Y-26434308D01*
X25238095Y-26434308D02*
X25276190Y-26453356D01*
X25276190Y-26453356D02*
X25295238Y-26472403D01*
X25295238Y-26472403D02*
X25314285Y-26510499D01*
X25314285Y-26510499D02*
X25314285Y-26605737D01*
X25314285Y-26605737D02*
X25295238Y-26643832D01*
X25295238Y-26643832D02*
X25276190Y-26662880D01*
X25276190Y-26662880D02*
X25238095Y-26681927D01*
X25238095Y-26681927D02*
X25123809Y-26681927D01*
X25123809Y-26681927D02*
X25085714Y-26662880D01*
X25085714Y-26662880D02*
X25066666Y-26643832D01*
D11*
X26575476Y-19804819D02*
X26670714Y-19804819D01*
X26670714Y-19804819D02*
X26765952Y-19852438D01*
X26765952Y-19852438D02*
X26813571Y-19900057D01*
X26813571Y-19900057D02*
X26861190Y-19995295D01*
X26861190Y-19995295D02*
X26908809Y-20185771D01*
X26908809Y-20185771D02*
X26908809Y-20423866D01*
X26908809Y-20423866D02*
X26861190Y-20614342D01*
X26861190Y-20614342D02*
X26813571Y-20709580D01*
X26813571Y-20709580D02*
X26765952Y-20757200D01*
X26765952Y-20757200D02*
X26670714Y-20804819D01*
X26670714Y-20804819D02*
X26575476Y-20804819D01*
X26575476Y-20804819D02*
X26480238Y-20757200D01*
X26480238Y-20757200D02*
X26432619Y-20709580D01*
X26432619Y-20709580D02*
X26385000Y-20614342D01*
X26385000Y-20614342D02*
X26337381Y-20423866D01*
X26337381Y-20423866D02*
X26337381Y-20185771D01*
X26337381Y-20185771D02*
X26385000Y-19995295D01*
X26385000Y-19995295D02*
X26432619Y-19900057D01*
X26432619Y-19900057D02*
X26480238Y-19852438D01*
X26480238Y-19852438D02*
X26575476Y-19804819D01*
X27861190Y-20804819D02*
X27289762Y-20804819D01*
X27575476Y-20804819D02*
X27575476Y-19804819D01*
X27575476Y-19804819D02*
X27480238Y-19947676D01*
X27480238Y-19947676D02*
X27385000Y-20042914D01*
X27385000Y-20042914D02*
X27289762Y-20090533D01*
X28194524Y-20804819D02*
X28718333Y-20138152D01*
X28194524Y-20138152D02*
X28718333Y-20804819D01*
X29289762Y-19804819D02*
X29385000Y-19804819D01*
X29385000Y-19804819D02*
X29480238Y-19852438D01*
X29480238Y-19852438D02*
X29527857Y-19900057D01*
X29527857Y-19900057D02*
X29575476Y-19995295D01*
X29575476Y-19995295D02*
X29623095Y-20185771D01*
X29623095Y-20185771D02*
X29623095Y-20423866D01*
X29623095Y-20423866D02*
X29575476Y-20614342D01*
X29575476Y-20614342D02*
X29527857Y-20709580D01*
X29527857Y-20709580D02*
X29480238Y-20757200D01*
X29480238Y-20757200D02*
X29385000Y-20804819D01*
X29385000Y-20804819D02*
X29289762Y-20804819D01*
X29289762Y-20804819D02*
X29194524Y-20757200D01*
X29194524Y-20757200D02*
X29146905Y-20709580D01*
X29146905Y-20709580D02*
X29099286Y-20614342D01*
X29099286Y-20614342D02*
X29051667Y-20423866D01*
X29051667Y-20423866D02*
X29051667Y-20185771D01*
X29051667Y-20185771D02*
X29099286Y-19995295D01*
X29099286Y-19995295D02*
X29146905Y-19900057D01*
X29146905Y-19900057D02*
X29194524Y-19852438D01*
X29194524Y-19852438D02*
X29289762Y-19804819D01*
X29956429Y-19804819D02*
X30575476Y-19804819D01*
X30575476Y-19804819D02*
X30242143Y-20185771D01*
X30242143Y-20185771D02*
X30385000Y-20185771D01*
X30385000Y-20185771D02*
X30480238Y-20233390D01*
X30480238Y-20233390D02*
X30527857Y-20281009D01*
X30527857Y-20281009D02*
X30575476Y-20376247D01*
X30575476Y-20376247D02*
X30575476Y-20614342D01*
X30575476Y-20614342D02*
X30527857Y-20709580D01*
X30527857Y-20709580D02*
X30480238Y-20757200D01*
X30480238Y-20757200D02*
X30385000Y-20804819D01*
X30385000Y-20804819D02*
X30099286Y-20804819D01*
X30099286Y-20804819D02*
X30004048Y-20757200D01*
X30004048Y-20757200D02*
X29956429Y-20709580D01*
X31718334Y-19900057D02*
X31765953Y-19852438D01*
X31765953Y-19852438D02*
X31861191Y-19804819D01*
X31861191Y-19804819D02*
X32099286Y-19804819D01*
X32099286Y-19804819D02*
X32194524Y-19852438D01*
X32194524Y-19852438D02*
X32242143Y-19900057D01*
X32242143Y-19900057D02*
X32289762Y-19995295D01*
X32289762Y-19995295D02*
X32289762Y-20090533D01*
X32289762Y-20090533D02*
X32242143Y-20233390D01*
X32242143Y-20233390D02*
X31670715Y-20804819D01*
X31670715Y-20804819D02*
X32289762Y-20804819D01*
X32718334Y-20709580D02*
X32765953Y-20757200D01*
X32765953Y-20757200D02*
X32718334Y-20804819D01*
X32718334Y-20804819D02*
X32670715Y-20757200D01*
X32670715Y-20757200D02*
X32718334Y-20709580D01*
X32718334Y-20709580D02*
X32718334Y-20804819D01*
X33670714Y-19804819D02*
X33194524Y-19804819D01*
X33194524Y-19804819D02*
X33146905Y-20281009D01*
X33146905Y-20281009D02*
X33194524Y-20233390D01*
X33194524Y-20233390D02*
X33289762Y-20185771D01*
X33289762Y-20185771D02*
X33527857Y-20185771D01*
X33527857Y-20185771D02*
X33623095Y-20233390D01*
X33623095Y-20233390D02*
X33670714Y-20281009D01*
X33670714Y-20281009D02*
X33718333Y-20376247D01*
X33718333Y-20376247D02*
X33718333Y-20614342D01*
X33718333Y-20614342D02*
X33670714Y-20709580D01*
X33670714Y-20709580D02*
X33623095Y-20757200D01*
X33623095Y-20757200D02*
X33527857Y-20804819D01*
X33527857Y-20804819D02*
X33289762Y-20804819D01*
X33289762Y-20804819D02*
X33194524Y-20757200D01*
X33194524Y-20757200D02*
X33146905Y-20709580D01*
X34575476Y-20138152D02*
X34575476Y-20804819D01*
X34337381Y-19757200D02*
X34099286Y-20471485D01*
X34099286Y-20471485D02*
X34718333Y-20471485D01*
X35099286Y-20804819D02*
X35099286Y-20138152D01*
X35099286Y-20233390D02*
X35146905Y-20185771D01*
X35146905Y-20185771D02*
X35242143Y-20138152D01*
X35242143Y-20138152D02*
X35385000Y-20138152D01*
X35385000Y-20138152D02*
X35480238Y-20185771D01*
X35480238Y-20185771D02*
X35527857Y-20281009D01*
X35527857Y-20281009D02*
X35527857Y-20804819D01*
X35527857Y-20281009D02*
X35575476Y-20185771D01*
X35575476Y-20185771D02*
X35670714Y-20138152D01*
X35670714Y-20138152D02*
X35813571Y-20138152D01*
X35813571Y-20138152D02*
X35908810Y-20185771D01*
X35908810Y-20185771D02*
X35956429Y-20281009D01*
X35956429Y-20281009D02*
X35956429Y-20804819D01*
X36432619Y-20804819D02*
X36432619Y-20138152D01*
X36432619Y-20233390D02*
X36480238Y-20185771D01*
X36480238Y-20185771D02*
X36575476Y-20138152D01*
X36575476Y-20138152D02*
X36718333Y-20138152D01*
X36718333Y-20138152D02*
X36813571Y-20185771D01*
X36813571Y-20185771D02*
X36861190Y-20281009D01*
X36861190Y-20281009D02*
X36861190Y-20804819D01*
X36861190Y-20281009D02*
X36908809Y-20185771D01*
X36908809Y-20185771D02*
X37004047Y-20138152D01*
X37004047Y-20138152D02*
X37146904Y-20138152D01*
X37146904Y-20138152D02*
X37242143Y-20185771D01*
X37242143Y-20185771D02*
X37289762Y-20281009D01*
X37289762Y-20281009D02*
X37289762Y-20804819D01*
X38527857Y-20804819D02*
X38527857Y-19804819D01*
X38527857Y-19804819D02*
X38908809Y-19804819D01*
X38908809Y-19804819D02*
X39004047Y-19852438D01*
X39004047Y-19852438D02*
X39051666Y-19900057D01*
X39051666Y-19900057D02*
X39099285Y-19995295D01*
X39099285Y-19995295D02*
X39099285Y-20138152D01*
X39099285Y-20138152D02*
X39051666Y-20233390D01*
X39051666Y-20233390D02*
X39004047Y-20281009D01*
X39004047Y-20281009D02*
X38908809Y-20328628D01*
X38908809Y-20328628D02*
X38527857Y-20328628D01*
X39527857Y-20804819D02*
X39527857Y-20138152D01*
X39527857Y-19804819D02*
X39480238Y-19852438D01*
X39480238Y-19852438D02*
X39527857Y-19900057D01*
X39527857Y-19900057D02*
X39575476Y-19852438D01*
X39575476Y-19852438D02*
X39527857Y-19804819D01*
X39527857Y-19804819D02*
X39527857Y-19900057D01*
X40004047Y-20138152D02*
X40004047Y-20804819D01*
X40004047Y-20233390D02*
X40051666Y-20185771D01*
X40051666Y-20185771D02*
X40146904Y-20138152D01*
X40146904Y-20138152D02*
X40289761Y-20138152D01*
X40289761Y-20138152D02*
X40384999Y-20185771D01*
X40384999Y-20185771D02*
X40432618Y-20281009D01*
X40432618Y-20281009D02*
X40432618Y-20804819D01*
X41670714Y-20804819D02*
X41670714Y-19804819D01*
X41670714Y-20281009D02*
X42242142Y-20281009D01*
X42242142Y-20804819D02*
X42242142Y-19804819D01*
X43099285Y-20757200D02*
X43004047Y-20804819D01*
X43004047Y-20804819D02*
X42813571Y-20804819D01*
X42813571Y-20804819D02*
X42718333Y-20757200D01*
X42718333Y-20757200D02*
X42670714Y-20661961D01*
X42670714Y-20661961D02*
X42670714Y-20281009D01*
X42670714Y-20281009D02*
X42718333Y-20185771D01*
X42718333Y-20185771D02*
X42813571Y-20138152D01*
X42813571Y-20138152D02*
X43004047Y-20138152D01*
X43004047Y-20138152D02*
X43099285Y-20185771D01*
X43099285Y-20185771D02*
X43146904Y-20281009D01*
X43146904Y-20281009D02*
X43146904Y-20376247D01*
X43146904Y-20376247D02*
X42670714Y-20471485D01*
X44004047Y-20804819D02*
X44004047Y-20281009D01*
X44004047Y-20281009D02*
X43956428Y-20185771D01*
X43956428Y-20185771D02*
X43861190Y-20138152D01*
X43861190Y-20138152D02*
X43670714Y-20138152D01*
X43670714Y-20138152D02*
X43575476Y-20185771D01*
X44004047Y-20757200D02*
X43908809Y-20804819D01*
X43908809Y-20804819D02*
X43670714Y-20804819D01*
X43670714Y-20804819D02*
X43575476Y-20757200D01*
X43575476Y-20757200D02*
X43527857Y-20661961D01*
X43527857Y-20661961D02*
X43527857Y-20566723D01*
X43527857Y-20566723D02*
X43575476Y-20471485D01*
X43575476Y-20471485D02*
X43670714Y-20423866D01*
X43670714Y-20423866D02*
X43908809Y-20423866D01*
X43908809Y-20423866D02*
X44004047Y-20376247D01*
X44908809Y-20804819D02*
X44908809Y-19804819D01*
X44908809Y-20757200D02*
X44813571Y-20804819D01*
X44813571Y-20804819D02*
X44623095Y-20804819D01*
X44623095Y-20804819D02*
X44527857Y-20757200D01*
X44527857Y-20757200D02*
X44480238Y-20709580D01*
X44480238Y-20709580D02*
X44432619Y-20614342D01*
X44432619Y-20614342D02*
X44432619Y-20328628D01*
X44432619Y-20328628D02*
X44480238Y-20233390D01*
X44480238Y-20233390D02*
X44527857Y-20185771D01*
X44527857Y-20185771D02*
X44623095Y-20138152D01*
X44623095Y-20138152D02*
X44813571Y-20138152D01*
X44813571Y-20138152D02*
X44908809Y-20185771D01*
X45765952Y-20757200D02*
X45670714Y-20804819D01*
X45670714Y-20804819D02*
X45480238Y-20804819D01*
X45480238Y-20804819D02*
X45385000Y-20757200D01*
X45385000Y-20757200D02*
X45337381Y-20661961D01*
X45337381Y-20661961D02*
X45337381Y-20281009D01*
X45337381Y-20281009D02*
X45385000Y-20185771D01*
X45385000Y-20185771D02*
X45480238Y-20138152D01*
X45480238Y-20138152D02*
X45670714Y-20138152D01*
X45670714Y-20138152D02*
X45765952Y-20185771D01*
X45765952Y-20185771D02*
X45813571Y-20281009D01*
X45813571Y-20281009D02*
X45813571Y-20376247D01*
X45813571Y-20376247D02*
X45337381Y-20471485D01*
X46242143Y-20804819D02*
X46242143Y-20138152D01*
X46242143Y-20328628D02*
X46289762Y-20233390D01*
X46289762Y-20233390D02*
X46337381Y-20185771D01*
X46337381Y-20185771D02*
X46432619Y-20138152D01*
X46432619Y-20138152D02*
X46527857Y-20138152D01*
X31666666Y-9954819D02*
X31666666Y-10669104D01*
X31666666Y-10669104D02*
X31619047Y-10811961D01*
X31619047Y-10811961D02*
X31523809Y-10907200D01*
X31523809Y-10907200D02*
X31380952Y-10954819D01*
X31380952Y-10954819D02*
X31285714Y-10954819D01*
X32619047Y-9954819D02*
X32142857Y-9954819D01*
X32142857Y-9954819D02*
X32095238Y-10431009D01*
X32095238Y-10431009D02*
X32142857Y-10383390D01*
X32142857Y-10383390D02*
X32238095Y-10335771D01*
X32238095Y-10335771D02*
X32476190Y-10335771D01*
X32476190Y-10335771D02*
X32571428Y-10383390D01*
X32571428Y-10383390D02*
X32619047Y-10431009D01*
X32619047Y-10431009D02*
X32666666Y-10526247D01*
X32666666Y-10526247D02*
X32666666Y-10764342D01*
X32666666Y-10764342D02*
X32619047Y-10859580D01*
X32619047Y-10859580D02*
X32571428Y-10907200D01*
X32571428Y-10907200D02*
X32476190Y-10954819D01*
X32476190Y-10954819D02*
X32238095Y-10954819D01*
X32238095Y-10954819D02*
X32142857Y-10907200D01*
X32142857Y-10907200D02*
X32095238Y-10859580D01*
X21124820Y-28571428D02*
X21124820Y-29142856D01*
X21124820Y-28857142D02*
X20124820Y-28857142D01*
X20124820Y-28857142D02*
X20267677Y-28952380D01*
X20267677Y-28952380D02*
X20362915Y-29047618D01*
X20362915Y-29047618D02*
X20410534Y-29142856D01*
X20124820Y-27952380D02*
X20124820Y-27857142D01*
X20124820Y-27857142D02*
X20172439Y-27761904D01*
X20172439Y-27761904D02*
X20220058Y-27714285D01*
X20220058Y-27714285D02*
X20315296Y-27666666D01*
X20315296Y-27666666D02*
X20505772Y-27619047D01*
X20505772Y-27619047D02*
X20743867Y-27619047D01*
X20743867Y-27619047D02*
X20934343Y-27666666D01*
X20934343Y-27666666D02*
X21029581Y-27714285D01*
X21029581Y-27714285D02*
X21077201Y-27761904D01*
X21077201Y-27761904D02*
X21124820Y-27857142D01*
X21124820Y-27857142D02*
X21124820Y-27952380D01*
X21124820Y-27952380D02*
X21077201Y-28047618D01*
X21077201Y-28047618D02*
X21029581Y-28095237D01*
X21029581Y-28095237D02*
X20934343Y-28142856D01*
X20934343Y-28142856D02*
X20743867Y-28190475D01*
X20743867Y-28190475D02*
X20505772Y-28190475D01*
X20505772Y-28190475D02*
X20315296Y-28142856D01*
X20315296Y-28142856D02*
X20220058Y-28095237D01*
X20220058Y-28095237D02*
X20172439Y-28047618D01*
X20172439Y-28047618D02*
X20124820Y-27952380D01*
X20458153Y-26761904D02*
X21124820Y-26761904D01*
X20458153Y-27190475D02*
X20981962Y-27190475D01*
X20981962Y-27190475D02*
X21077201Y-27142856D01*
X21077201Y-27142856D02*
X21124820Y-27047618D01*
X21124820Y-27047618D02*
X21124820Y-26904761D01*
X21124820Y-26904761D02*
X21077201Y-26809523D01*
X21077201Y-26809523D02*
X21029581Y-26761904D01*
X20601010Y-25952380D02*
X20601010Y-26285713D01*
X21124820Y-26285713D02*
X20124820Y-26285713D01*
X20124820Y-26285713D02*
X20124820Y-25809523D01*
D14*
X22529531Y-27583333D02*
X22553341Y-27607142D01*
X22553341Y-27607142D02*
X22577150Y-27678571D01*
X22577150Y-27678571D02*
X22577150Y-27726190D01*
X22577150Y-27726190D02*
X22553341Y-27797618D01*
X22553341Y-27797618D02*
X22505721Y-27845237D01*
X22505721Y-27845237D02*
X22458102Y-27869047D01*
X22458102Y-27869047D02*
X22362864Y-27892856D01*
X22362864Y-27892856D02*
X22291436Y-27892856D01*
X22291436Y-27892856D02*
X22196198Y-27869047D01*
X22196198Y-27869047D02*
X22148579Y-27845237D01*
X22148579Y-27845237D02*
X22100960Y-27797618D01*
X22100960Y-27797618D02*
X22077150Y-27726190D01*
X22077150Y-27726190D02*
X22077150Y-27678571D01*
X22077150Y-27678571D02*
X22100960Y-27607142D01*
X22100960Y-27607142D02*
X22124769Y-27583333D01*
X22077150Y-27416666D02*
X22077150Y-27083333D01*
X22077150Y-27083333D02*
X22577150Y-27297618D01*
D11*
X18928571Y-13134819D02*
X18357143Y-13134819D01*
X18642857Y-13134819D02*
X18642857Y-12134819D01*
X18642857Y-12134819D02*
X18547619Y-12277676D01*
X18547619Y-12277676D02*
X18452381Y-12372914D01*
X18452381Y-12372914D02*
X18357143Y-12420533D01*
X19547619Y-12134819D02*
X19642857Y-12134819D01*
X19642857Y-12134819D02*
X19738095Y-12182438D01*
X19738095Y-12182438D02*
X19785714Y-12230057D01*
X19785714Y-12230057D02*
X19833333Y-12325295D01*
X19833333Y-12325295D02*
X19880952Y-12515771D01*
X19880952Y-12515771D02*
X19880952Y-12753866D01*
X19880952Y-12753866D02*
X19833333Y-12944342D01*
X19833333Y-12944342D02*
X19785714Y-13039580D01*
X19785714Y-13039580D02*
X19738095Y-13087200D01*
X19738095Y-13087200D02*
X19642857Y-13134819D01*
X19642857Y-13134819D02*
X19547619Y-13134819D01*
X19547619Y-13134819D02*
X19452381Y-13087200D01*
X19452381Y-13087200D02*
X19404762Y-13039580D01*
X19404762Y-13039580D02*
X19357143Y-12944342D01*
X19357143Y-12944342D02*
X19309524Y-12753866D01*
X19309524Y-12753866D02*
X19309524Y-12515771D01*
X19309524Y-12515771D02*
X19357143Y-12325295D01*
X19357143Y-12325295D02*
X19404762Y-12230057D01*
X19404762Y-12230057D02*
X19452381Y-12182438D01*
X19452381Y-12182438D02*
X19547619Y-12134819D01*
X20738095Y-12468152D02*
X20738095Y-13134819D01*
X20309524Y-12468152D02*
X20309524Y-12991961D01*
X20309524Y-12991961D02*
X20357143Y-13087200D01*
X20357143Y-13087200D02*
X20452381Y-13134819D01*
X20452381Y-13134819D02*
X20595238Y-13134819D01*
X20595238Y-13134819D02*
X20690476Y-13087200D01*
X20690476Y-13087200D02*
X20738095Y-13039580D01*
X21547619Y-12611009D02*
X21214286Y-12611009D01*
X21214286Y-13134819D02*
X21214286Y-12134819D01*
X21214286Y-12134819D02*
X21690476Y-12134819D01*
D14*
X19916666Y-11179530D02*
X19892857Y-11203340D01*
X19892857Y-11203340D02*
X19821428Y-11227149D01*
X19821428Y-11227149D02*
X19773809Y-11227149D01*
X19773809Y-11227149D02*
X19702381Y-11203340D01*
X19702381Y-11203340D02*
X19654762Y-11155720D01*
X19654762Y-11155720D02*
X19630952Y-11108101D01*
X19630952Y-11108101D02*
X19607143Y-11012863D01*
X19607143Y-11012863D02*
X19607143Y-10941435D01*
X19607143Y-10941435D02*
X19630952Y-10846197D01*
X19630952Y-10846197D02*
X19654762Y-10798578D01*
X19654762Y-10798578D02*
X19702381Y-10750959D01*
X19702381Y-10750959D02*
X19773809Y-10727149D01*
X19773809Y-10727149D02*
X19821428Y-10727149D01*
X19821428Y-10727149D02*
X19892857Y-10750959D01*
X19892857Y-10750959D02*
X19916666Y-10774768D01*
X20083333Y-10727149D02*
X20392857Y-10727149D01*
X20392857Y-10727149D02*
X20226190Y-10917625D01*
X20226190Y-10917625D02*
X20297619Y-10917625D01*
X20297619Y-10917625D02*
X20345238Y-10941435D01*
X20345238Y-10941435D02*
X20369047Y-10965244D01*
X20369047Y-10965244D02*
X20392857Y-11012863D01*
X20392857Y-11012863D02*
X20392857Y-11131911D01*
X20392857Y-11131911D02*
X20369047Y-11179530D01*
X20369047Y-11179530D02*
X20345238Y-11203340D01*
X20345238Y-11203340D02*
X20297619Y-11227149D01*
X20297619Y-11227149D02*
X20154762Y-11227149D01*
X20154762Y-11227149D02*
X20107143Y-11203340D01*
X20107143Y-11203340D02*
X20083333Y-11179530D01*
D11*
X23884819Y-22285714D02*
X23884819Y-22857142D01*
X23884819Y-22571428D02*
X22884819Y-22571428D01*
X22884819Y-22571428D02*
X23027676Y-22666666D01*
X23027676Y-22666666D02*
X23122914Y-22761904D01*
X23122914Y-22761904D02*
X23170533Y-22857142D01*
X23884819Y-21857142D02*
X22884819Y-21857142D01*
X22884819Y-21857142D02*
X23599104Y-21523809D01*
X23599104Y-21523809D02*
X22884819Y-21190476D01*
X22884819Y-21190476D02*
X23884819Y-21190476D01*
D15*
X22181927Y-22066666D02*
X21991451Y-22199999D01*
X22181927Y-22295237D02*
X21781927Y-22295237D01*
X21781927Y-22295237D02*
X21781927Y-22142856D01*
X21781927Y-22142856D02*
X21800975Y-22104761D01*
X21800975Y-22104761D02*
X21820022Y-22085714D01*
X21820022Y-22085714D02*
X21858118Y-22066666D01*
X21858118Y-22066666D02*
X21915260Y-22066666D01*
X21915260Y-22066666D02*
X21953356Y-22085714D01*
X21953356Y-22085714D02*
X21972403Y-22104761D01*
X21972403Y-22104761D02*
X21991451Y-22142856D01*
X21991451Y-22142856D02*
X21991451Y-22295237D01*
X21781927Y-21933333D02*
X21781927Y-21666666D01*
X21781927Y-21666666D02*
X22181927Y-21838095D01*
D11*
X13518152Y-17454762D02*
X14184819Y-17454762D01*
X13137200Y-17692857D02*
X13851485Y-17930952D01*
X13851485Y-17930952D02*
X13851485Y-17311905D01*
X14089580Y-16930952D02*
X14137200Y-16883333D01*
X14137200Y-16883333D02*
X14184819Y-16930952D01*
X14184819Y-16930952D02*
X14137200Y-16978571D01*
X14137200Y-16978571D02*
X14089580Y-16930952D01*
X14089580Y-16930952D02*
X14184819Y-16930952D01*
X13184819Y-16550000D02*
X13184819Y-15883334D01*
X13184819Y-15883334D02*
X14184819Y-16311905D01*
X13518152Y-15073810D02*
X14184819Y-15073810D01*
X13518152Y-15502381D02*
X14041961Y-15502381D01*
X14041961Y-15502381D02*
X14137200Y-15454762D01*
X14137200Y-15454762D02*
X14184819Y-15359524D01*
X14184819Y-15359524D02*
X14184819Y-15216667D01*
X14184819Y-15216667D02*
X14137200Y-15121429D01*
X14137200Y-15121429D02*
X14089580Y-15073810D01*
X13661009Y-14264286D02*
X13661009Y-14597619D01*
X14184819Y-14597619D02*
X13184819Y-14597619D01*
X13184819Y-14597619D02*
X13184819Y-14121429D01*
D14*
X12229530Y-16133334D02*
X12253340Y-16157143D01*
X12253340Y-16157143D02*
X12277149Y-16228572D01*
X12277149Y-16228572D02*
X12277149Y-16276191D01*
X12277149Y-16276191D02*
X12253340Y-16347619D01*
X12253340Y-16347619D02*
X12205720Y-16395238D01*
X12205720Y-16395238D02*
X12158101Y-16419048D01*
X12158101Y-16419048D02*
X12062863Y-16442857D01*
X12062863Y-16442857D02*
X11991435Y-16442857D01*
X11991435Y-16442857D02*
X11896197Y-16419048D01*
X11896197Y-16419048D02*
X11848578Y-16395238D01*
X11848578Y-16395238D02*
X11800959Y-16347619D01*
X11800959Y-16347619D02*
X11777149Y-16276191D01*
X11777149Y-16276191D02*
X11777149Y-16228572D01*
X11777149Y-16228572D02*
X11800959Y-16157143D01*
X11800959Y-16157143D02*
X11824768Y-16133334D01*
X11991435Y-15847619D02*
X11967625Y-15895238D01*
X11967625Y-15895238D02*
X11943816Y-15919048D01*
X11943816Y-15919048D02*
X11896197Y-15942857D01*
X11896197Y-15942857D02*
X11872387Y-15942857D01*
X11872387Y-15942857D02*
X11824768Y-15919048D01*
X11824768Y-15919048D02*
X11800959Y-15895238D01*
X11800959Y-15895238D02*
X11777149Y-15847619D01*
X11777149Y-15847619D02*
X11777149Y-15752381D01*
X11777149Y-15752381D02*
X11800959Y-15704762D01*
X11800959Y-15704762D02*
X11824768Y-15680953D01*
X11824768Y-15680953D02*
X11872387Y-15657143D01*
X11872387Y-15657143D02*
X11896197Y-15657143D01*
X11896197Y-15657143D02*
X11943816Y-15680953D01*
X11943816Y-15680953D02*
X11967625Y-15704762D01*
X11967625Y-15704762D02*
X11991435Y-15752381D01*
X11991435Y-15752381D02*
X11991435Y-15847619D01*
X11991435Y-15847619D02*
X12015244Y-15895238D01*
X12015244Y-15895238D02*
X12039054Y-15919048D01*
X12039054Y-15919048D02*
X12086673Y-15942857D01*
X12086673Y-15942857D02*
X12181911Y-15942857D01*
X12181911Y-15942857D02*
X12229530Y-15919048D01*
X12229530Y-15919048D02*
X12253340Y-15895238D01*
X12253340Y-15895238D02*
X12277149Y-15847619D01*
X12277149Y-15847619D02*
X12277149Y-15752381D01*
X12277149Y-15752381D02*
X12253340Y-15704762D01*
X12253340Y-15704762D02*
X12229530Y-15680953D01*
X12229530Y-15680953D02*
X12181911Y-15657143D01*
X12181911Y-15657143D02*
X12086673Y-15657143D01*
X12086673Y-15657143D02*
X12039054Y-15680953D01*
X12039054Y-15680953D02*
X12015244Y-15704762D01*
X12015244Y-15704762D02*
X11991435Y-15752381D01*
D11*
X26884819Y-32095238D02*
X26884819Y-32666666D01*
X26884819Y-32380952D02*
X25884819Y-32380952D01*
X25884819Y-32380952D02*
X26027676Y-32476190D01*
X26027676Y-32476190D02*
X26122914Y-32571428D01*
X26122914Y-32571428D02*
X26170533Y-32666666D01*
X25980057Y-31714285D02*
X25932438Y-31666666D01*
X25932438Y-31666666D02*
X25884819Y-31571428D01*
X25884819Y-31571428D02*
X25884819Y-31333333D01*
X25884819Y-31333333D02*
X25932438Y-31238095D01*
X25932438Y-31238095D02*
X25980057Y-31190476D01*
X25980057Y-31190476D02*
X26075295Y-31142857D01*
X26075295Y-31142857D02*
X26170533Y-31142857D01*
X26170533Y-31142857D02*
X26313390Y-31190476D01*
X26313390Y-31190476D02*
X26884819Y-31761904D01*
X26884819Y-31761904D02*
X26884819Y-31142857D01*
X26884819Y-30714285D02*
X25884819Y-30714285D01*
X26503866Y-30619047D02*
X26884819Y-30333333D01*
X26218152Y-30333333D02*
X26599104Y-30714285D01*
D15*
X25181927Y-31566666D02*
X24991451Y-31699999D01*
X25181927Y-31795237D02*
X24781927Y-31795237D01*
X24781927Y-31795237D02*
X24781927Y-31642856D01*
X24781927Y-31642856D02*
X24800975Y-31604761D01*
X24800975Y-31604761D02*
X24820022Y-31585714D01*
X24820022Y-31585714D02*
X24858118Y-31566666D01*
X24858118Y-31566666D02*
X24915260Y-31566666D01*
X24915260Y-31566666D02*
X24953356Y-31585714D01*
X24953356Y-31585714D02*
X24972403Y-31604761D01*
X24972403Y-31604761D02*
X24991451Y-31642856D01*
X24991451Y-31642856D02*
X24991451Y-31795237D01*
X25181927Y-31376190D02*
X25181927Y-31299999D01*
X25181927Y-31299999D02*
X25162880Y-31261904D01*
X25162880Y-31261904D02*
X25143832Y-31242856D01*
X25143832Y-31242856D02*
X25086689Y-31204761D01*
X25086689Y-31204761D02*
X25010499Y-31185714D01*
X25010499Y-31185714D02*
X24858118Y-31185714D01*
X24858118Y-31185714D02*
X24820022Y-31204761D01*
X24820022Y-31204761D02*
X24800975Y-31223809D01*
X24800975Y-31223809D02*
X24781927Y-31261904D01*
X24781927Y-31261904D02*
X24781927Y-31338095D01*
X24781927Y-31338095D02*
X24800975Y-31376190D01*
X24800975Y-31376190D02*
X24820022Y-31395237D01*
X24820022Y-31395237D02*
X24858118Y-31414285D01*
X24858118Y-31414285D02*
X24953356Y-31414285D01*
X24953356Y-31414285D02*
X24991451Y-31395237D01*
X24991451Y-31395237D02*
X25010499Y-31376190D01*
X25010499Y-31376190D02*
X25029546Y-31338095D01*
X25029546Y-31338095D02*
X25029546Y-31261904D01*
X25029546Y-31261904D02*
X25010499Y-31223809D01*
X25010499Y-31223809D02*
X24991451Y-31204761D01*
X24991451Y-31204761D02*
X24953356Y-31185714D01*
D11*
X12453390Y-17214285D02*
X12405771Y-17309523D01*
X12405771Y-17309523D02*
X12358152Y-17357142D01*
X12358152Y-17357142D02*
X12262914Y-17404761D01*
X12262914Y-17404761D02*
X12215295Y-17404761D01*
X12215295Y-17404761D02*
X12120057Y-17357142D01*
X12120057Y-17357142D02*
X12072438Y-17309523D01*
X12072438Y-17309523D02*
X12024819Y-17214285D01*
X12024819Y-17214285D02*
X12024819Y-17023809D01*
X12024819Y-17023809D02*
X12072438Y-16928571D01*
X12072438Y-16928571D02*
X12120057Y-16880952D01*
X12120057Y-16880952D02*
X12215295Y-16833333D01*
X12215295Y-16833333D02*
X12262914Y-16833333D01*
X12262914Y-16833333D02*
X12358152Y-16880952D01*
X12358152Y-16880952D02*
X12405771Y-16928571D01*
X12405771Y-16928571D02*
X12453390Y-17023809D01*
X12453390Y-17023809D02*
X12453390Y-17214285D01*
X12453390Y-17214285D02*
X12501009Y-17309523D01*
X12501009Y-17309523D02*
X12548628Y-17357142D01*
X12548628Y-17357142D02*
X12643866Y-17404761D01*
X12643866Y-17404761D02*
X12834342Y-17404761D01*
X12834342Y-17404761D02*
X12929580Y-17357142D01*
X12929580Y-17357142D02*
X12977200Y-17309523D01*
X12977200Y-17309523D02*
X13024819Y-17214285D01*
X13024819Y-17214285D02*
X13024819Y-17023809D01*
X13024819Y-17023809D02*
X12977200Y-16928571D01*
X12977200Y-16928571D02*
X12929580Y-16880952D01*
X12929580Y-16880952D02*
X12834342Y-16833333D01*
X12834342Y-16833333D02*
X12643866Y-16833333D01*
X12643866Y-16833333D02*
X12548628Y-16880952D01*
X12548628Y-16880952D02*
X12501009Y-16928571D01*
X12501009Y-16928571D02*
X12453390Y-17023809D01*
X12929580Y-16404761D02*
X12977200Y-16357142D01*
X12977200Y-16357142D02*
X13024819Y-16404761D01*
X13024819Y-16404761D02*
X12977200Y-16452380D01*
X12977200Y-16452380D02*
X12929580Y-16404761D01*
X12929580Y-16404761D02*
X13024819Y-16404761D01*
X12120057Y-15976190D02*
X12072438Y-15928571D01*
X12072438Y-15928571D02*
X12024819Y-15833333D01*
X12024819Y-15833333D02*
X12024819Y-15595238D01*
X12024819Y-15595238D02*
X12072438Y-15500000D01*
X12072438Y-15500000D02*
X12120057Y-15452381D01*
X12120057Y-15452381D02*
X12215295Y-15404762D01*
X12215295Y-15404762D02*
X12310533Y-15404762D01*
X12310533Y-15404762D02*
X12453390Y-15452381D01*
X12453390Y-15452381D02*
X13024819Y-16023809D01*
X13024819Y-16023809D02*
X13024819Y-15404762D01*
X13024819Y-14976190D02*
X12024819Y-14976190D01*
X12643866Y-14880952D02*
X13024819Y-14595238D01*
X12358152Y-14595238D02*
X12739104Y-14976190D01*
D15*
X14181927Y-16066666D02*
X13991451Y-16199999D01*
X14181927Y-16295237D02*
X13781927Y-16295237D01*
X13781927Y-16295237D02*
X13781927Y-16142856D01*
X13781927Y-16142856D02*
X13800975Y-16104761D01*
X13800975Y-16104761D02*
X13820022Y-16085714D01*
X13820022Y-16085714D02*
X13858118Y-16066666D01*
X13858118Y-16066666D02*
X13915260Y-16066666D01*
X13915260Y-16066666D02*
X13953356Y-16085714D01*
X13953356Y-16085714D02*
X13972403Y-16104761D01*
X13972403Y-16104761D02*
X13991451Y-16142856D01*
X13991451Y-16142856D02*
X13991451Y-16295237D01*
X13781927Y-15723809D02*
X13781927Y-15799999D01*
X13781927Y-15799999D02*
X13800975Y-15838095D01*
X13800975Y-15838095D02*
X13820022Y-15857142D01*
X13820022Y-15857142D02*
X13877165Y-15895237D01*
X13877165Y-15895237D02*
X13953356Y-15914285D01*
X13953356Y-15914285D02*
X14105737Y-15914285D01*
X14105737Y-15914285D02*
X14143832Y-15895237D01*
X14143832Y-15895237D02*
X14162880Y-15876190D01*
X14162880Y-15876190D02*
X14181927Y-15838095D01*
X14181927Y-15838095D02*
X14181927Y-15761904D01*
X14181927Y-15761904D02*
X14162880Y-15723809D01*
X14162880Y-15723809D02*
X14143832Y-15704761D01*
X14143832Y-15704761D02*
X14105737Y-15685714D01*
X14105737Y-15685714D02*
X14010499Y-15685714D01*
X14010499Y-15685714D02*
X13972403Y-15704761D01*
X13972403Y-15704761D02*
X13953356Y-15723809D01*
X13953356Y-15723809D02*
X13934308Y-15761904D01*
X13934308Y-15761904D02*
X13934308Y-15838095D01*
X13934308Y-15838095D02*
X13953356Y-15876190D01*
X13953356Y-15876190D02*
X13972403Y-15895237D01*
X13972403Y-15895237D02*
X14010499Y-15914285D01*
D11*
X21761905Y-13980057D02*
X21809524Y-13932438D01*
X21809524Y-13932438D02*
X21904762Y-13884819D01*
X21904762Y-13884819D02*
X22142857Y-13884819D01*
X22142857Y-13884819D02*
X22238095Y-13932438D01*
X22238095Y-13932438D02*
X22285714Y-13980057D01*
X22285714Y-13980057D02*
X22333333Y-14075295D01*
X22333333Y-14075295D02*
X22333333Y-14170533D01*
X22333333Y-14170533D02*
X22285714Y-14313390D01*
X22285714Y-14313390D02*
X21714286Y-14884819D01*
X21714286Y-14884819D02*
X22333333Y-14884819D01*
X22904762Y-14313390D02*
X22809524Y-14265771D01*
X22809524Y-14265771D02*
X22761905Y-14218152D01*
X22761905Y-14218152D02*
X22714286Y-14122914D01*
X22714286Y-14122914D02*
X22714286Y-14075295D01*
X22714286Y-14075295D02*
X22761905Y-13980057D01*
X22761905Y-13980057D02*
X22809524Y-13932438D01*
X22809524Y-13932438D02*
X22904762Y-13884819D01*
X22904762Y-13884819D02*
X23095238Y-13884819D01*
X23095238Y-13884819D02*
X23190476Y-13932438D01*
X23190476Y-13932438D02*
X23238095Y-13980057D01*
X23238095Y-13980057D02*
X23285714Y-14075295D01*
X23285714Y-14075295D02*
X23285714Y-14122914D01*
X23285714Y-14122914D02*
X23238095Y-14218152D01*
X23238095Y-14218152D02*
X23190476Y-14265771D01*
X23190476Y-14265771D02*
X23095238Y-14313390D01*
X23095238Y-14313390D02*
X22904762Y-14313390D01*
X22904762Y-14313390D02*
X22809524Y-14361009D01*
X22809524Y-14361009D02*
X22761905Y-14408628D01*
X22761905Y-14408628D02*
X22714286Y-14503866D01*
X22714286Y-14503866D02*
X22714286Y-14694342D01*
X22714286Y-14694342D02*
X22761905Y-14789580D01*
X22761905Y-14789580D02*
X22809524Y-14837200D01*
X22809524Y-14837200D02*
X22904762Y-14884819D01*
X22904762Y-14884819D02*
X23095238Y-14884819D01*
X23095238Y-14884819D02*
X23190476Y-14837200D01*
X23190476Y-14837200D02*
X23238095Y-14789580D01*
X23238095Y-14789580D02*
X23285714Y-14694342D01*
X23285714Y-14694342D02*
X23285714Y-14503866D01*
X23285714Y-14503866D02*
X23238095Y-14408628D01*
X23238095Y-14408628D02*
X23190476Y-14361009D01*
X23190476Y-14361009D02*
X23095238Y-14313390D01*
X23619048Y-13884819D02*
X24285714Y-13884819D01*
X24285714Y-13884819D02*
X23857143Y-14884819D01*
X25238095Y-14884819D02*
X24904762Y-14408628D01*
X24666667Y-14884819D02*
X24666667Y-13884819D01*
X24666667Y-13884819D02*
X25047619Y-13884819D01*
X25047619Y-13884819D02*
X25142857Y-13932438D01*
X25142857Y-13932438D02*
X25190476Y-13980057D01*
X25190476Y-13980057D02*
X25238095Y-14075295D01*
X25238095Y-14075295D02*
X25238095Y-14218152D01*
X25238095Y-14218152D02*
X25190476Y-14313390D01*
X25190476Y-14313390D02*
X25142857Y-14361009D01*
X25142857Y-14361009D02*
X25047619Y-14408628D01*
X25047619Y-14408628D02*
X24666667Y-14408628D01*
D15*
X23242857Y-13181927D02*
X23109524Y-12991451D01*
X23014286Y-13181927D02*
X23014286Y-12781927D01*
X23014286Y-12781927D02*
X23166667Y-12781927D01*
X23166667Y-12781927D02*
X23204762Y-12800975D01*
X23204762Y-12800975D02*
X23223809Y-12820022D01*
X23223809Y-12820022D02*
X23242857Y-12858118D01*
X23242857Y-12858118D02*
X23242857Y-12915260D01*
X23242857Y-12915260D02*
X23223809Y-12953356D01*
X23223809Y-12953356D02*
X23204762Y-12972403D01*
X23204762Y-12972403D02*
X23166667Y-12991451D01*
X23166667Y-12991451D02*
X23014286Y-12991451D01*
X23623809Y-13181927D02*
X23395238Y-13181927D01*
X23509524Y-13181927D02*
X23509524Y-12781927D01*
X23509524Y-12781927D02*
X23471428Y-12839070D01*
X23471428Y-12839070D02*
X23433333Y-12877165D01*
X23433333Y-12877165D02*
X23395238Y-12896213D01*
X23871428Y-12781927D02*
X23909523Y-12781927D01*
X23909523Y-12781927D02*
X23947619Y-12800975D01*
X23947619Y-12800975D02*
X23966666Y-12820022D01*
X23966666Y-12820022D02*
X23985714Y-12858118D01*
X23985714Y-12858118D02*
X24004761Y-12934308D01*
X24004761Y-12934308D02*
X24004761Y-13029546D01*
X24004761Y-13029546D02*
X23985714Y-13105737D01*
X23985714Y-13105737D02*
X23966666Y-13143832D01*
X23966666Y-13143832D02*
X23947619Y-13162880D01*
X23947619Y-13162880D02*
X23909523Y-13181927D01*
X23909523Y-13181927D02*
X23871428Y-13181927D01*
X23871428Y-13181927D02*
X23833333Y-13162880D01*
X23833333Y-13162880D02*
X23814285Y-13143832D01*
X23814285Y-13143832D02*
X23795238Y-13105737D01*
X23795238Y-13105737D02*
X23776190Y-13029546D01*
X23776190Y-13029546D02*
X23776190Y-12934308D01*
X23776190Y-12934308D02*
X23795238Y-12858118D01*
X23795238Y-12858118D02*
X23814285Y-12820022D01*
X23814285Y-12820022D02*
X23833333Y-12800975D01*
X23833333Y-12800975D02*
X23871428Y-12781927D01*
D11*
X17357143Y-16024819D02*
X17452381Y-16024819D01*
X17452381Y-16024819D02*
X17547619Y-16072438D01*
X17547619Y-16072438D02*
X17595238Y-16120057D01*
X17595238Y-16120057D02*
X17642857Y-16215295D01*
X17642857Y-16215295D02*
X17690476Y-16405771D01*
X17690476Y-16405771D02*
X17690476Y-16643866D01*
X17690476Y-16643866D02*
X17642857Y-16834342D01*
X17642857Y-16834342D02*
X17595238Y-16929580D01*
X17595238Y-16929580D02*
X17547619Y-16977200D01*
X17547619Y-16977200D02*
X17452381Y-17024819D01*
X17452381Y-17024819D02*
X17357143Y-17024819D01*
X17357143Y-17024819D02*
X17261905Y-16977200D01*
X17261905Y-16977200D02*
X17214286Y-16929580D01*
X17214286Y-16929580D02*
X17166667Y-16834342D01*
X17166667Y-16834342D02*
X17119048Y-16643866D01*
X17119048Y-16643866D02*
X17119048Y-16405771D01*
X17119048Y-16405771D02*
X17166667Y-16215295D01*
X17166667Y-16215295D02*
X17214286Y-16120057D01*
X17214286Y-16120057D02*
X17261905Y-16072438D01*
X17261905Y-16072438D02*
X17357143Y-16024819D01*
X18119048Y-16929580D02*
X18166667Y-16977200D01*
X18166667Y-16977200D02*
X18119048Y-17024819D01*
X18119048Y-17024819D02*
X18071429Y-16977200D01*
X18071429Y-16977200D02*
X18119048Y-16929580D01*
X18119048Y-16929580D02*
X18119048Y-17024819D01*
X19119047Y-17024819D02*
X18547619Y-17024819D01*
X18833333Y-17024819D02*
X18833333Y-16024819D01*
X18833333Y-16024819D02*
X18738095Y-16167676D01*
X18738095Y-16167676D02*
X18642857Y-16262914D01*
X18642857Y-16262914D02*
X18547619Y-16310533D01*
X19976190Y-16358152D02*
X19976190Y-17024819D01*
X19547619Y-16358152D02*
X19547619Y-16881961D01*
X19547619Y-16881961D02*
X19595238Y-16977200D01*
X19595238Y-16977200D02*
X19690476Y-17024819D01*
X19690476Y-17024819D02*
X19833333Y-17024819D01*
X19833333Y-17024819D02*
X19928571Y-16977200D01*
X19928571Y-16977200D02*
X19976190Y-16929580D01*
X20785714Y-16501009D02*
X20452381Y-16501009D01*
X20452381Y-17024819D02*
X20452381Y-16024819D01*
X20452381Y-16024819D02*
X20928571Y-16024819D01*
D15*
X18933333Y-18143832D02*
X18914285Y-18162880D01*
X18914285Y-18162880D02*
X18857143Y-18181927D01*
X18857143Y-18181927D02*
X18819047Y-18181927D01*
X18819047Y-18181927D02*
X18761904Y-18162880D01*
X18761904Y-18162880D02*
X18723809Y-18124784D01*
X18723809Y-18124784D02*
X18704762Y-18086689D01*
X18704762Y-18086689D02*
X18685714Y-18010499D01*
X18685714Y-18010499D02*
X18685714Y-17953356D01*
X18685714Y-17953356D02*
X18704762Y-17877165D01*
X18704762Y-17877165D02*
X18723809Y-17839070D01*
X18723809Y-17839070D02*
X18761904Y-17800975D01*
X18761904Y-17800975D02*
X18819047Y-17781927D01*
X18819047Y-17781927D02*
X18857143Y-17781927D01*
X18857143Y-17781927D02*
X18914285Y-17800975D01*
X18914285Y-17800975D02*
X18933333Y-17820022D01*
X19314285Y-18181927D02*
X19085714Y-18181927D01*
X19200000Y-18181927D02*
X19200000Y-17781927D01*
X19200000Y-17781927D02*
X19161904Y-17839070D01*
X19161904Y-17839070D02*
X19123809Y-17877165D01*
X19123809Y-17877165D02*
X19085714Y-17896213D01*
D11*
X18468152Y-30904761D02*
X19134819Y-30904761D01*
X18087200Y-31142856D02*
X18801485Y-31380951D01*
X18801485Y-31380951D02*
X18801485Y-30761904D01*
X19039580Y-30380951D02*
X19087200Y-30333332D01*
X19087200Y-30333332D02*
X19134819Y-30380951D01*
X19134819Y-30380951D02*
X19087200Y-30428570D01*
X19087200Y-30428570D02*
X19039580Y-30380951D01*
X19039580Y-30380951D02*
X19134819Y-30380951D01*
X18134819Y-29999999D02*
X18134819Y-29333333D01*
X18134819Y-29333333D02*
X19134819Y-29761904D01*
X18468152Y-28523809D02*
X19134819Y-28523809D01*
X18468152Y-28952380D02*
X18991961Y-28952380D01*
X18991961Y-28952380D02*
X19087200Y-28904761D01*
X19087200Y-28904761D02*
X19134819Y-28809523D01*
X19134819Y-28809523D02*
X19134819Y-28666666D01*
X19134819Y-28666666D02*
X19087200Y-28571428D01*
X19087200Y-28571428D02*
X19039580Y-28523809D01*
X18611009Y-27714285D02*
X18611009Y-28047618D01*
X19134819Y-28047618D02*
X18134819Y-28047618D01*
X18134819Y-28047618D02*
X18134819Y-27571428D01*
D14*
X17179530Y-29583333D02*
X17203340Y-29607142D01*
X17203340Y-29607142D02*
X17227149Y-29678571D01*
X17227149Y-29678571D02*
X17227149Y-29726190D01*
X17227149Y-29726190D02*
X17203340Y-29797618D01*
X17203340Y-29797618D02*
X17155720Y-29845237D01*
X17155720Y-29845237D02*
X17108101Y-29869047D01*
X17108101Y-29869047D02*
X17012863Y-29892856D01*
X17012863Y-29892856D02*
X16941435Y-29892856D01*
X16941435Y-29892856D02*
X16846197Y-29869047D01*
X16846197Y-29869047D02*
X16798578Y-29845237D01*
X16798578Y-29845237D02*
X16750959Y-29797618D01*
X16750959Y-29797618D02*
X16727149Y-29726190D01*
X16727149Y-29726190D02*
X16727149Y-29678571D01*
X16727149Y-29678571D02*
X16750959Y-29607142D01*
X16750959Y-29607142D02*
X16774768Y-29583333D01*
X16727149Y-29154761D02*
X16727149Y-29249999D01*
X16727149Y-29249999D02*
X16750959Y-29297618D01*
X16750959Y-29297618D02*
X16774768Y-29321428D01*
X16774768Y-29321428D02*
X16846197Y-29369047D01*
X16846197Y-29369047D02*
X16941435Y-29392856D01*
X16941435Y-29392856D02*
X17131911Y-29392856D01*
X17131911Y-29392856D02*
X17179530Y-29369047D01*
X17179530Y-29369047D02*
X17203340Y-29345237D01*
X17203340Y-29345237D02*
X17227149Y-29297618D01*
X17227149Y-29297618D02*
X17227149Y-29202380D01*
X17227149Y-29202380D02*
X17203340Y-29154761D01*
X17203340Y-29154761D02*
X17179530Y-29130952D01*
X17179530Y-29130952D02*
X17131911Y-29107142D01*
X17131911Y-29107142D02*
X17012863Y-29107142D01*
X17012863Y-29107142D02*
X16965244Y-29130952D01*
X16965244Y-29130952D02*
X16941435Y-29154761D01*
X16941435Y-29154761D02*
X16917625Y-29202380D01*
X16917625Y-29202380D02*
X16917625Y-29297618D01*
X16917625Y-29297618D02*
X16941435Y-29345237D01*
X16941435Y-29345237D02*
X16965244Y-29369047D01*
X16965244Y-29369047D02*
X17012863Y-29392856D01*
D11*
X7468152Y-21404761D02*
X8134819Y-21404761D01*
X7087200Y-21642856D02*
X7801485Y-21880951D01*
X7801485Y-21880951D02*
X7801485Y-21261904D01*
X8039580Y-20880951D02*
X8087200Y-20833332D01*
X8087200Y-20833332D02*
X8134819Y-20880951D01*
X8134819Y-20880951D02*
X8087200Y-20928570D01*
X8087200Y-20928570D02*
X8039580Y-20880951D01*
X8039580Y-20880951D02*
X8134819Y-20880951D01*
X7134819Y-20499999D02*
X7134819Y-19833333D01*
X7134819Y-19833333D02*
X8134819Y-20261904D01*
X7468152Y-19023809D02*
X8134819Y-19023809D01*
X7468152Y-19452380D02*
X7991961Y-19452380D01*
X7991961Y-19452380D02*
X8087200Y-19404761D01*
X8087200Y-19404761D02*
X8134819Y-19309523D01*
X8134819Y-19309523D02*
X8134819Y-19166666D01*
X8134819Y-19166666D02*
X8087200Y-19071428D01*
X8087200Y-19071428D02*
X8039580Y-19023809D01*
X7611009Y-18214285D02*
X7611009Y-18547618D01*
X8134819Y-18547618D02*
X7134819Y-18547618D01*
X7134819Y-18547618D02*
X7134819Y-18071428D01*
D14*
X6179530Y-20321428D02*
X6203340Y-20345237D01*
X6203340Y-20345237D02*
X6227149Y-20416666D01*
X6227149Y-20416666D02*
X6227149Y-20464285D01*
X6227149Y-20464285D02*
X6203340Y-20535713D01*
X6203340Y-20535713D02*
X6155720Y-20583332D01*
X6155720Y-20583332D02*
X6108101Y-20607142D01*
X6108101Y-20607142D02*
X6012863Y-20630951D01*
X6012863Y-20630951D02*
X5941435Y-20630951D01*
X5941435Y-20630951D02*
X5846197Y-20607142D01*
X5846197Y-20607142D02*
X5798578Y-20583332D01*
X5798578Y-20583332D02*
X5750959Y-20535713D01*
X5750959Y-20535713D02*
X5727149Y-20464285D01*
X5727149Y-20464285D02*
X5727149Y-20416666D01*
X5727149Y-20416666D02*
X5750959Y-20345237D01*
X5750959Y-20345237D02*
X5774768Y-20321428D01*
X6227149Y-19845237D02*
X6227149Y-20130951D01*
X6227149Y-19988094D02*
X5727149Y-19988094D01*
X5727149Y-19988094D02*
X5798578Y-20035713D01*
X5798578Y-20035713D02*
X5846197Y-20083332D01*
X5846197Y-20083332D02*
X5870006Y-20130951D01*
X6227149Y-19369047D02*
X6227149Y-19654761D01*
X6227149Y-19511904D02*
X5727149Y-19511904D01*
X5727149Y-19511904D02*
X5798578Y-19559523D01*
X5798578Y-19559523D02*
X5846197Y-19607142D01*
X5846197Y-19607142D02*
X5870006Y-19654761D01*
D11*
X19357142Y-12024819D02*
X19023809Y-11548628D01*
X18785714Y-12024819D02*
X18785714Y-11024819D01*
X18785714Y-11024819D02*
X19166666Y-11024819D01*
X19166666Y-11024819D02*
X19261904Y-11072438D01*
X19261904Y-11072438D02*
X19309523Y-11120057D01*
X19309523Y-11120057D02*
X19357142Y-11215295D01*
X19357142Y-11215295D02*
X19357142Y-11358152D01*
X19357142Y-11358152D02*
X19309523Y-11453390D01*
X19309523Y-11453390D02*
X19261904Y-11501009D01*
X19261904Y-11501009D02*
X19166666Y-11548628D01*
X19166666Y-11548628D02*
X18785714Y-11548628D01*
X19785714Y-11501009D02*
X20119047Y-11501009D01*
X20261904Y-12024819D02*
X19785714Y-12024819D01*
X19785714Y-12024819D02*
X19785714Y-11024819D01*
X19785714Y-11024819D02*
X20261904Y-11024819D01*
X20690476Y-12024819D02*
X20690476Y-11024819D01*
X20690476Y-11024819D02*
X20928571Y-11024819D01*
X20928571Y-11024819D02*
X21071428Y-11072438D01*
X21071428Y-11072438D02*
X21166666Y-11167676D01*
X21166666Y-11167676D02*
X21214285Y-11262914D01*
X21214285Y-11262914D02*
X21261904Y-11453390D01*
X21261904Y-11453390D02*
X21261904Y-11596247D01*
X21261904Y-11596247D02*
X21214285Y-11786723D01*
X21214285Y-11786723D02*
X21166666Y-11881961D01*
X21166666Y-11881961D02*
X21071428Y-11977200D01*
X21071428Y-11977200D02*
X20928571Y-12024819D01*
X20928571Y-12024819D02*
X20690476Y-12024819D01*
D15*
X19704762Y-13181927D02*
X19704762Y-12781927D01*
X19704762Y-12781927D02*
X19800000Y-12781927D01*
X19800000Y-12781927D02*
X19857143Y-12800975D01*
X19857143Y-12800975D02*
X19895238Y-12839070D01*
X19895238Y-12839070D02*
X19914285Y-12877165D01*
X19914285Y-12877165D02*
X19933333Y-12953356D01*
X19933333Y-12953356D02*
X19933333Y-13010499D01*
X19933333Y-13010499D02*
X19914285Y-13086689D01*
X19914285Y-13086689D02*
X19895238Y-13124784D01*
X19895238Y-13124784D02*
X19857143Y-13162880D01*
X19857143Y-13162880D02*
X19800000Y-13181927D01*
X19800000Y-13181927D02*
X19704762Y-13181927D01*
X20085714Y-12820022D02*
X20104762Y-12800975D01*
X20104762Y-12800975D02*
X20142857Y-12781927D01*
X20142857Y-12781927D02*
X20238095Y-12781927D01*
X20238095Y-12781927D02*
X20276190Y-12800975D01*
X20276190Y-12800975D02*
X20295238Y-12820022D01*
X20295238Y-12820022D02*
X20314285Y-12858118D01*
X20314285Y-12858118D02*
X20314285Y-12896213D01*
X20314285Y-12896213D02*
X20295238Y-12953356D01*
X20295238Y-12953356D02*
X20066666Y-13181927D01*
X20066666Y-13181927D02*
X20314285Y-13181927D01*
D11*
X14880952Y-25854819D02*
X14404762Y-25854819D01*
X14404762Y-25854819D02*
X14404762Y-24854819D01*
X15214286Y-25854819D02*
X15214286Y-24854819D01*
X15214286Y-24854819D02*
X15547619Y-25569104D01*
X15547619Y-25569104D02*
X15880952Y-24854819D01*
X15880952Y-24854819D02*
X15880952Y-25854819D01*
X16214286Y-24854819D02*
X16547619Y-25854819D01*
X16547619Y-25854819D02*
X16880952Y-24854819D01*
X17119048Y-24854819D02*
X17738095Y-24854819D01*
X17738095Y-24854819D02*
X17404762Y-25235771D01*
X17404762Y-25235771D02*
X17547619Y-25235771D01*
X17547619Y-25235771D02*
X17642857Y-25283390D01*
X17642857Y-25283390D02*
X17690476Y-25331009D01*
X17690476Y-25331009D02*
X17738095Y-25426247D01*
X17738095Y-25426247D02*
X17738095Y-25664342D01*
X17738095Y-25664342D02*
X17690476Y-25759580D01*
X17690476Y-25759580D02*
X17642857Y-25807200D01*
X17642857Y-25807200D02*
X17547619Y-25854819D01*
X17547619Y-25854819D02*
X17261905Y-25854819D01*
X17261905Y-25854819D02*
X17166667Y-25807200D01*
X17166667Y-25807200D02*
X17119048Y-25759580D01*
X18642857Y-24854819D02*
X18166667Y-24854819D01*
X18166667Y-24854819D02*
X18119048Y-25331009D01*
X18119048Y-25331009D02*
X18166667Y-25283390D01*
X18166667Y-25283390D02*
X18261905Y-25235771D01*
X18261905Y-25235771D02*
X18500000Y-25235771D01*
X18500000Y-25235771D02*
X18595238Y-25283390D01*
X18595238Y-25283390D02*
X18642857Y-25331009D01*
X18642857Y-25331009D02*
X18690476Y-25426247D01*
X18690476Y-25426247D02*
X18690476Y-25664342D01*
X18690476Y-25664342D02*
X18642857Y-25759580D01*
X18642857Y-25759580D02*
X18595238Y-25807200D01*
X18595238Y-25807200D02*
X18500000Y-25854819D01*
X18500000Y-25854819D02*
X18261905Y-25854819D01*
X18261905Y-25854819D02*
X18166667Y-25807200D01*
X18166667Y-25807200D02*
X18119048Y-25759580D01*
X19261905Y-25283390D02*
X19166667Y-25235771D01*
X19166667Y-25235771D02*
X19119048Y-25188152D01*
X19119048Y-25188152D02*
X19071429Y-25092914D01*
X19071429Y-25092914D02*
X19071429Y-25045295D01*
X19071429Y-25045295D02*
X19119048Y-24950057D01*
X19119048Y-24950057D02*
X19166667Y-24902438D01*
X19166667Y-24902438D02*
X19261905Y-24854819D01*
X19261905Y-24854819D02*
X19452381Y-24854819D01*
X19452381Y-24854819D02*
X19547619Y-24902438D01*
X19547619Y-24902438D02*
X19595238Y-24950057D01*
X19595238Y-24950057D02*
X19642857Y-25045295D01*
X19642857Y-25045295D02*
X19642857Y-25092914D01*
X19642857Y-25092914D02*
X19595238Y-25188152D01*
X19595238Y-25188152D02*
X19547619Y-25235771D01*
X19547619Y-25235771D02*
X19452381Y-25283390D01*
X19452381Y-25283390D02*
X19261905Y-25283390D01*
X19261905Y-25283390D02*
X19166667Y-25331009D01*
X19166667Y-25331009D02*
X19119048Y-25378628D01*
X19119048Y-25378628D02*
X19071429Y-25473866D01*
X19071429Y-25473866D02*
X19071429Y-25664342D01*
X19071429Y-25664342D02*
X19119048Y-25759580D01*
X19119048Y-25759580D02*
X19166667Y-25807200D01*
X19166667Y-25807200D02*
X19261905Y-25854819D01*
X19261905Y-25854819D02*
X19452381Y-25854819D01*
X19452381Y-25854819D02*
X19547619Y-25807200D01*
X19547619Y-25807200D02*
X19595238Y-25759580D01*
X19595238Y-25759580D02*
X19642857Y-25664342D01*
X19642857Y-25664342D02*
X19642857Y-25473866D01*
X19642857Y-25473866D02*
X19595238Y-25378628D01*
X19595238Y-25378628D02*
X19547619Y-25331009D01*
X19547619Y-25331009D02*
X19452381Y-25283390D01*
X16253333Y-21465566D02*
X16253333Y-22258900D01*
X16253333Y-22258900D02*
X16300000Y-22352233D01*
X16300000Y-22352233D02*
X16346666Y-22398900D01*
X16346666Y-22398900D02*
X16440000Y-22445566D01*
X16440000Y-22445566D02*
X16626666Y-22445566D01*
X16626666Y-22445566D02*
X16720000Y-22398900D01*
X16720000Y-22398900D02*
X16766666Y-22352233D01*
X16766666Y-22352233D02*
X16813333Y-22258900D01*
X16813333Y-22258900D02*
X16813333Y-21465566D01*
X17793333Y-22445566D02*
X17233333Y-22445566D01*
X17513333Y-22445566D02*
X17513333Y-21465566D01*
X17513333Y-21465566D02*
X17420000Y-21605566D01*
X17420000Y-21605566D02*
X17326667Y-21698900D01*
X17326667Y-21698900D02*
X17233333Y-21745566D01*
X19374818Y-28571428D02*
X19374818Y-29142856D01*
X19374818Y-28857142D02*
X18374818Y-28857142D01*
X18374818Y-28857142D02*
X18517675Y-28952380D01*
X18517675Y-28952380D02*
X18612913Y-29047618D01*
X18612913Y-29047618D02*
X18660532Y-29142856D01*
X18374818Y-27952380D02*
X18374818Y-27857142D01*
X18374818Y-27857142D02*
X18422437Y-27761904D01*
X18422437Y-27761904D02*
X18470056Y-27714285D01*
X18470056Y-27714285D02*
X18565294Y-27666666D01*
X18565294Y-27666666D02*
X18755770Y-27619047D01*
X18755770Y-27619047D02*
X18993865Y-27619047D01*
X18993865Y-27619047D02*
X19184341Y-27666666D01*
X19184341Y-27666666D02*
X19279579Y-27714285D01*
X19279579Y-27714285D02*
X19327199Y-27761904D01*
X19327199Y-27761904D02*
X19374818Y-27857142D01*
X19374818Y-27857142D02*
X19374818Y-27952380D01*
X19374818Y-27952380D02*
X19327199Y-28047618D01*
X19327199Y-28047618D02*
X19279579Y-28095237D01*
X19279579Y-28095237D02*
X19184341Y-28142856D01*
X19184341Y-28142856D02*
X18993865Y-28190475D01*
X18993865Y-28190475D02*
X18755770Y-28190475D01*
X18755770Y-28190475D02*
X18565294Y-28142856D01*
X18565294Y-28142856D02*
X18470056Y-28095237D01*
X18470056Y-28095237D02*
X18422437Y-28047618D01*
X18422437Y-28047618D02*
X18374818Y-27952380D01*
X18374818Y-26999999D02*
X18374818Y-26904761D01*
X18374818Y-26904761D02*
X18422437Y-26809523D01*
X18422437Y-26809523D02*
X18470056Y-26761904D01*
X18470056Y-26761904D02*
X18565294Y-26714285D01*
X18565294Y-26714285D02*
X18755770Y-26666666D01*
X18755770Y-26666666D02*
X18993865Y-26666666D01*
X18993865Y-26666666D02*
X19184341Y-26714285D01*
X19184341Y-26714285D02*
X19279579Y-26761904D01*
X19279579Y-26761904D02*
X19327199Y-26809523D01*
X19327199Y-26809523D02*
X19374818Y-26904761D01*
X19374818Y-26904761D02*
X19374818Y-26999999D01*
X19374818Y-26999999D02*
X19327199Y-27095237D01*
X19327199Y-27095237D02*
X19279579Y-27142856D01*
X19279579Y-27142856D02*
X19184341Y-27190475D01*
X19184341Y-27190475D02*
X18993865Y-27238094D01*
X18993865Y-27238094D02*
X18755770Y-27238094D01*
X18755770Y-27238094D02*
X18565294Y-27190475D01*
X18565294Y-27190475D02*
X18470056Y-27142856D01*
X18470056Y-27142856D02*
X18422437Y-27095237D01*
X18422437Y-27095237D02*
X18374818Y-26999999D01*
X19374818Y-26238094D02*
X18374818Y-26238094D01*
X18993865Y-26142856D02*
X19374818Y-25857142D01*
X18708151Y-25857142D02*
X19089103Y-26238094D01*
D15*
X20531926Y-27566666D02*
X20341450Y-27699999D01*
X20531926Y-27795237D02*
X20131926Y-27795237D01*
X20131926Y-27795237D02*
X20131926Y-27642856D01*
X20131926Y-27642856D02*
X20150974Y-27604761D01*
X20150974Y-27604761D02*
X20170021Y-27585714D01*
X20170021Y-27585714D02*
X20208117Y-27566666D01*
X20208117Y-27566666D02*
X20265259Y-27566666D01*
X20265259Y-27566666D02*
X20303355Y-27585714D01*
X20303355Y-27585714D02*
X20322402Y-27604761D01*
X20322402Y-27604761D02*
X20341450Y-27642856D01*
X20341450Y-27642856D02*
X20341450Y-27795237D01*
X20265259Y-27223809D02*
X20531926Y-27223809D01*
X20112879Y-27319047D02*
X20398593Y-27414285D01*
X20398593Y-27414285D02*
X20398593Y-27166666D01*
D11*
X12980058Y-21880951D02*
X12932439Y-21833332D01*
X12932439Y-21833332D02*
X12884820Y-21738094D01*
X12884820Y-21738094D02*
X12884820Y-21499999D01*
X12884820Y-21499999D02*
X12932439Y-21404761D01*
X12932439Y-21404761D02*
X12980058Y-21357142D01*
X12980058Y-21357142D02*
X13075296Y-21309523D01*
X13075296Y-21309523D02*
X13170534Y-21309523D01*
X13170534Y-21309523D02*
X13313391Y-21357142D01*
X13313391Y-21357142D02*
X13884820Y-21928570D01*
X13884820Y-21928570D02*
X13884820Y-21309523D01*
X13789581Y-20880951D02*
X13837201Y-20833332D01*
X13837201Y-20833332D02*
X13884820Y-20880951D01*
X13884820Y-20880951D02*
X13837201Y-20928570D01*
X13837201Y-20928570D02*
X13789581Y-20880951D01*
X13789581Y-20880951D02*
X13884820Y-20880951D01*
X12980058Y-20452380D02*
X12932439Y-20404761D01*
X12932439Y-20404761D02*
X12884820Y-20309523D01*
X12884820Y-20309523D02*
X12884820Y-20071428D01*
X12884820Y-20071428D02*
X12932439Y-19976190D01*
X12932439Y-19976190D02*
X12980058Y-19928571D01*
X12980058Y-19928571D02*
X13075296Y-19880952D01*
X13075296Y-19880952D02*
X13170534Y-19880952D01*
X13170534Y-19880952D02*
X13313391Y-19928571D01*
X13313391Y-19928571D02*
X13884820Y-20499999D01*
X13884820Y-20499999D02*
X13884820Y-19880952D01*
X13218153Y-19452380D02*
X13884820Y-19452380D01*
X13313391Y-19452380D02*
X13265772Y-19404761D01*
X13265772Y-19404761D02*
X13218153Y-19309523D01*
X13218153Y-19309523D02*
X13218153Y-19166666D01*
X13218153Y-19166666D02*
X13265772Y-19071428D01*
X13265772Y-19071428D02*
X13361010Y-19023809D01*
X13361010Y-19023809D02*
X13884820Y-19023809D01*
X13361010Y-18214285D02*
X13361010Y-18547618D01*
X13884820Y-18547618D02*
X12884820Y-18547618D01*
X12884820Y-18547618D02*
X12884820Y-18071428D01*
D15*
X12143833Y-20066666D02*
X12162881Y-20085714D01*
X12162881Y-20085714D02*
X12181928Y-20142856D01*
X12181928Y-20142856D02*
X12181928Y-20180952D01*
X12181928Y-20180952D02*
X12162881Y-20238095D01*
X12162881Y-20238095D02*
X12124785Y-20276190D01*
X12124785Y-20276190D02*
X12086690Y-20295237D01*
X12086690Y-20295237D02*
X12010500Y-20314285D01*
X12010500Y-20314285D02*
X11953357Y-20314285D01*
X11953357Y-20314285D02*
X11877166Y-20295237D01*
X11877166Y-20295237D02*
X11839071Y-20276190D01*
X11839071Y-20276190D02*
X11800976Y-20238095D01*
X11800976Y-20238095D02*
X11781928Y-20180952D01*
X11781928Y-20180952D02*
X11781928Y-20142856D01*
X11781928Y-20142856D02*
X11800976Y-20085714D01*
X11800976Y-20085714D02*
X11820023Y-20066666D01*
X11781928Y-19704761D02*
X11781928Y-19895237D01*
X11781928Y-19895237D02*
X11972404Y-19914285D01*
X11972404Y-19914285D02*
X11953357Y-19895237D01*
X11953357Y-19895237D02*
X11934309Y-19857142D01*
X11934309Y-19857142D02*
X11934309Y-19761904D01*
X11934309Y-19761904D02*
X11953357Y-19723809D01*
X11953357Y-19723809D02*
X11972404Y-19704761D01*
X11972404Y-19704761D02*
X12010500Y-19685714D01*
X12010500Y-19685714D02*
X12105738Y-19685714D01*
X12105738Y-19685714D02*
X12143833Y-19704761D01*
X12143833Y-19704761D02*
X12162881Y-19723809D01*
X12162881Y-19723809D02*
X12181928Y-19761904D01*
X12181928Y-19761904D02*
X12181928Y-19857142D01*
X12181928Y-19857142D02*
X12162881Y-19895237D01*
X12162881Y-19895237D02*
X12143833Y-19914285D01*
D11*
X16309524Y-24524819D02*
X16928571Y-24524819D01*
X16928571Y-24524819D02*
X16595238Y-24905771D01*
X16595238Y-24905771D02*
X16738095Y-24905771D01*
X16738095Y-24905771D02*
X16833333Y-24953390D01*
X16833333Y-24953390D02*
X16880952Y-25001009D01*
X16880952Y-25001009D02*
X16928571Y-25096247D01*
X16928571Y-25096247D02*
X16928571Y-25334342D01*
X16928571Y-25334342D02*
X16880952Y-25429580D01*
X16880952Y-25429580D02*
X16833333Y-25477200D01*
X16833333Y-25477200D02*
X16738095Y-25524819D01*
X16738095Y-25524819D02*
X16452381Y-25524819D01*
X16452381Y-25524819D02*
X16357143Y-25477200D01*
X16357143Y-25477200D02*
X16309524Y-25429580D01*
X17261905Y-24524819D02*
X17880952Y-24524819D01*
X17880952Y-24524819D02*
X17547619Y-24905771D01*
X17547619Y-24905771D02*
X17690476Y-24905771D01*
X17690476Y-24905771D02*
X17785714Y-24953390D01*
X17785714Y-24953390D02*
X17833333Y-25001009D01*
X17833333Y-25001009D02*
X17880952Y-25096247D01*
X17880952Y-25096247D02*
X17880952Y-25334342D01*
X17880952Y-25334342D02*
X17833333Y-25429580D01*
X17833333Y-25429580D02*
X17785714Y-25477200D01*
X17785714Y-25477200D02*
X17690476Y-25524819D01*
X17690476Y-25524819D02*
X17404762Y-25524819D01*
X17404762Y-25524819D02*
X17309524Y-25477200D01*
X17309524Y-25477200D02*
X17261905Y-25429580D01*
X18500000Y-24524819D02*
X18595238Y-24524819D01*
X18595238Y-24524819D02*
X18690476Y-24572438D01*
X18690476Y-24572438D02*
X18738095Y-24620057D01*
X18738095Y-24620057D02*
X18785714Y-24715295D01*
X18785714Y-24715295D02*
X18833333Y-24905771D01*
X18833333Y-24905771D02*
X18833333Y-25143866D01*
X18833333Y-25143866D02*
X18785714Y-25334342D01*
X18785714Y-25334342D02*
X18738095Y-25429580D01*
X18738095Y-25429580D02*
X18690476Y-25477200D01*
X18690476Y-25477200D02*
X18595238Y-25524819D01*
X18595238Y-25524819D02*
X18500000Y-25524819D01*
X18500000Y-25524819D02*
X18404762Y-25477200D01*
X18404762Y-25477200D02*
X18357143Y-25429580D01*
X18357143Y-25429580D02*
X18309524Y-25334342D01*
X18309524Y-25334342D02*
X18261905Y-25143866D01*
X18261905Y-25143866D02*
X18261905Y-24905771D01*
X18261905Y-24905771D02*
X18309524Y-24715295D01*
X18309524Y-24715295D02*
X18357143Y-24620057D01*
X18357143Y-24620057D02*
X18404762Y-24572438D01*
X18404762Y-24572438D02*
X18500000Y-24524819D01*
X19261905Y-25524819D02*
X19261905Y-24524819D01*
X19357143Y-25143866D02*
X19642857Y-25524819D01*
X19642857Y-24858152D02*
X19261905Y-25239104D01*
D15*
X17933333Y-26681927D02*
X17800000Y-26491451D01*
X17704762Y-26681927D02*
X17704762Y-26281927D01*
X17704762Y-26281927D02*
X17857143Y-26281927D01*
X17857143Y-26281927D02*
X17895238Y-26300975D01*
X17895238Y-26300975D02*
X17914285Y-26320022D01*
X17914285Y-26320022D02*
X17933333Y-26358118D01*
X17933333Y-26358118D02*
X17933333Y-26415260D01*
X17933333Y-26415260D02*
X17914285Y-26453356D01*
X17914285Y-26453356D02*
X17895238Y-26472403D01*
X17895238Y-26472403D02*
X17857143Y-26491451D01*
X17857143Y-26491451D02*
X17704762Y-26491451D01*
X18295238Y-26281927D02*
X18104762Y-26281927D01*
X18104762Y-26281927D02*
X18085714Y-26472403D01*
X18085714Y-26472403D02*
X18104762Y-26453356D01*
X18104762Y-26453356D02*
X18142857Y-26434308D01*
X18142857Y-26434308D02*
X18238095Y-26434308D01*
X18238095Y-26434308D02*
X18276190Y-26453356D01*
X18276190Y-26453356D02*
X18295238Y-26472403D01*
X18295238Y-26472403D02*
X18314285Y-26510499D01*
X18314285Y-26510499D02*
X18314285Y-26605737D01*
X18314285Y-26605737D02*
X18295238Y-26643832D01*
X18295238Y-26643832D02*
X18276190Y-26662880D01*
X18276190Y-26662880D02*
X18238095Y-26681927D01*
X18238095Y-26681927D02*
X18142857Y-26681927D01*
X18142857Y-26681927D02*
X18104762Y-26662880D01*
X18104762Y-26662880D02*
X18085714Y-26643832D01*
D11*
X12738095Y45181D02*
X12261905Y45181D01*
X12261905Y45181D02*
X12261905Y1045181D01*
X13071429Y45181D02*
X13071429Y1045181D01*
X13071429Y1045181D02*
X13404762Y330896D01*
X13404762Y330896D02*
X13738095Y1045181D01*
X13738095Y1045181D02*
X13738095Y45181D01*
X14738095Y45181D02*
X14166667Y45181D01*
X14452381Y45181D02*
X14452381Y1045181D01*
X14452381Y1045181D02*
X14357143Y902324D01*
X14357143Y902324D02*
X14261905Y807086D01*
X14261905Y807086D02*
X14166667Y759467D01*
X15690476Y45181D02*
X15119048Y45181D01*
X15404762Y45181D02*
X15404762Y1045181D01*
X15404762Y1045181D02*
X15309524Y902324D01*
X15309524Y902324D02*
X15214286Y807086D01*
X15214286Y807086D02*
X15119048Y759467D01*
X16642857Y45181D02*
X16071429Y45181D01*
X16357143Y45181D02*
X16357143Y1045181D01*
X16357143Y1045181D02*
X16261905Y902324D01*
X16261905Y902324D02*
X16166667Y807086D01*
X16166667Y807086D02*
X16071429Y759467D01*
X16976191Y1045181D02*
X17642857Y1045181D01*
X17642857Y1045181D02*
X17214286Y45181D01*
X18023810Y45181D02*
X18023810Y1045181D01*
X18500000Y45181D02*
X18500000Y1045181D01*
X18500000Y1045181D02*
X18833333Y330896D01*
X18833333Y330896D02*
X19166666Y1045181D01*
X19166666Y1045181D02*
X19166666Y45181D01*
X19642857Y45181D02*
X19642857Y1045181D01*
X19642857Y1045181D02*
X20023809Y1045181D01*
X20023809Y1045181D02*
X20119047Y997562D01*
X20119047Y997562D02*
X20166666Y949943D01*
X20166666Y949943D02*
X20214285Y854705D01*
X20214285Y854705D02*
X20214285Y711848D01*
X20214285Y711848D02*
X20166666Y616610D01*
X20166666Y616610D02*
X20119047Y568991D01*
X20119047Y568991D02*
X20023809Y521372D01*
X20023809Y521372D02*
X19642857Y521372D01*
X20547619Y1045181D02*
X21214285Y45181D01*
X21214285Y1045181D02*
X20547619Y45181D01*
X21595238Y426134D02*
X22357143Y426134D01*
X22738095Y1045181D02*
X23357142Y1045181D01*
X23357142Y1045181D02*
X23023809Y664229D01*
X23023809Y664229D02*
X23166666Y664229D01*
X23166666Y664229D02*
X23261904Y616610D01*
X23261904Y616610D02*
X23309523Y568991D01*
X23309523Y568991D02*
X23357142Y473753D01*
X23357142Y473753D02*
X23357142Y235658D01*
X23357142Y235658D02*
X23309523Y140420D01*
X23309523Y140420D02*
X23261904Y92800D01*
X23261904Y92800D02*
X23166666Y45181D01*
X23166666Y45181D02*
X22880952Y45181D01*
X22880952Y45181D02*
X22785714Y92800D01*
X22785714Y92800D02*
X22738095Y140420D01*
X23785714Y140420D02*
X23833333Y92800D01*
X23833333Y92800D02*
X23785714Y45181D01*
X23785714Y45181D02*
X23738095Y92800D01*
X23738095Y92800D02*
X23785714Y140420D01*
X23785714Y140420D02*
X23785714Y45181D01*
X24166666Y1045181D02*
X24785713Y1045181D01*
X24785713Y1045181D02*
X24452380Y664229D01*
X24452380Y664229D02*
X24595237Y664229D01*
X24595237Y664229D02*
X24690475Y616610D01*
X24690475Y616610D02*
X24738094Y568991D01*
X24738094Y568991D02*
X24785713Y473753D01*
X24785713Y473753D02*
X24785713Y235658D01*
X24785713Y235658D02*
X24738094Y140420D01*
X24738094Y140420D02*
X24690475Y92800D01*
X24690475Y92800D02*
X24595237Y45181D01*
X24595237Y45181D02*
X24309523Y45181D01*
X24309523Y45181D02*
X24214285Y92800D01*
X24214285Y92800D02*
X24166666Y140420D01*
D16*
X18063855Y-4609523D02*
X18711474Y-4609523D01*
X18711474Y-4609523D02*
X18787664Y-4571428D01*
X18787664Y-4571428D02*
X18825760Y-4533333D01*
X18825760Y-4533333D02*
X18863855Y-4457142D01*
X18863855Y-4457142D02*
X18863855Y-4304761D01*
X18863855Y-4304761D02*
X18825760Y-4228571D01*
X18825760Y-4228571D02*
X18787664Y-4190476D01*
X18787664Y-4190476D02*
X18711474Y-4152380D01*
X18711474Y-4152380D02*
X18063855Y-4152380D01*
X18140045Y-3809524D02*
X18101950Y-3771428D01*
X18101950Y-3771428D02*
X18063855Y-3695238D01*
X18063855Y-3695238D02*
X18063855Y-3504762D01*
X18063855Y-3504762D02*
X18101950Y-3428571D01*
X18101950Y-3428571D02*
X18140045Y-3390476D01*
X18140045Y-3390476D02*
X18216236Y-3352381D01*
X18216236Y-3352381D02*
X18292426Y-3352381D01*
X18292426Y-3352381D02*
X18406712Y-3390476D01*
X18406712Y-3390476D02*
X18863855Y-3847619D01*
X18863855Y-3847619D02*
X18863855Y-3352381D01*
D11*
X11884819Y-20285714D02*
X11884819Y-20857142D01*
X11884819Y-20571428D02*
X10884819Y-20571428D01*
X10884819Y-20571428D02*
X11027676Y-20666666D01*
X11027676Y-20666666D02*
X11122914Y-20761904D01*
X11122914Y-20761904D02*
X11170533Y-20857142D01*
X11884819Y-19857142D02*
X10884819Y-19857142D01*
X10884819Y-19857142D02*
X11599104Y-19523809D01*
X11599104Y-19523809D02*
X10884819Y-19190476D01*
X10884819Y-19190476D02*
X11884819Y-19190476D01*
D15*
X10181927Y-20066666D02*
X9991451Y-20199999D01*
X10181927Y-20295237D02*
X9781927Y-20295237D01*
X9781927Y-20295237D02*
X9781927Y-20142856D01*
X9781927Y-20142856D02*
X9800975Y-20104761D01*
X9800975Y-20104761D02*
X9820022Y-20085714D01*
X9820022Y-20085714D02*
X9858118Y-20066666D01*
X9858118Y-20066666D02*
X9915260Y-20066666D01*
X9915260Y-20066666D02*
X9953356Y-20085714D01*
X9953356Y-20085714D02*
X9972403Y-20104761D01*
X9972403Y-20104761D02*
X9991451Y-20142856D01*
X9991451Y-20142856D02*
X9991451Y-20295237D01*
X10181927Y-19685714D02*
X10181927Y-19914285D01*
X10181927Y-19799999D02*
X9781927Y-19799999D01*
X9781927Y-19799999D02*
X9839070Y-19838095D01*
X9839070Y-19838095D02*
X9877165Y-19876190D01*
X9877165Y-19876190D02*
X9896213Y-19914285D01*
D11*
X23774819Y-6071428D02*
X23774819Y-6642856D01*
X23774819Y-6357142D02*
X22774819Y-6357142D01*
X22774819Y-6357142D02*
X22917676Y-6452380D01*
X22917676Y-6452380D02*
X23012914Y-6547618D01*
X23012914Y-6547618D02*
X23060533Y-6642856D01*
X22774819Y-5452380D02*
X22774819Y-5357142D01*
X22774819Y-5357142D02*
X22822438Y-5261904D01*
X22822438Y-5261904D02*
X22870057Y-5214285D01*
X22870057Y-5214285D02*
X22965295Y-5166666D01*
X22965295Y-5166666D02*
X23155771Y-5119047D01*
X23155771Y-5119047D02*
X23393866Y-5119047D01*
X23393866Y-5119047D02*
X23584342Y-5166666D01*
X23584342Y-5166666D02*
X23679580Y-5214285D01*
X23679580Y-5214285D02*
X23727200Y-5261904D01*
X23727200Y-5261904D02*
X23774819Y-5357142D01*
X23774819Y-5357142D02*
X23774819Y-5452380D01*
X23774819Y-5452380D02*
X23727200Y-5547618D01*
X23727200Y-5547618D02*
X23679580Y-5595237D01*
X23679580Y-5595237D02*
X23584342Y-5642856D01*
X23584342Y-5642856D02*
X23393866Y-5690475D01*
X23393866Y-5690475D02*
X23155771Y-5690475D01*
X23155771Y-5690475D02*
X22965295Y-5642856D01*
X22965295Y-5642856D02*
X22870057Y-5595237D01*
X22870057Y-5595237D02*
X22822438Y-5547618D01*
X22822438Y-5547618D02*
X22774819Y-5452380D01*
X23108152Y-4261904D02*
X23774819Y-4261904D01*
X23108152Y-4690475D02*
X23631961Y-4690475D01*
X23631961Y-4690475D02*
X23727200Y-4642856D01*
X23727200Y-4642856D02*
X23774819Y-4547618D01*
X23774819Y-4547618D02*
X23774819Y-4404761D01*
X23774819Y-4404761D02*
X23727200Y-4309523D01*
X23727200Y-4309523D02*
X23679580Y-4261904D01*
X23251009Y-3452380D02*
X23251009Y-3785713D01*
X23774819Y-3785713D02*
X22774819Y-3785713D01*
X22774819Y-3785713D02*
X22774819Y-3309523D01*
D14*
X25179530Y-5083333D02*
X25203340Y-5107142D01*
X25203340Y-5107142D02*
X25227149Y-5178571D01*
X25227149Y-5178571D02*
X25227149Y-5226190D01*
X25227149Y-5226190D02*
X25203340Y-5297618D01*
X25203340Y-5297618D02*
X25155720Y-5345237D01*
X25155720Y-5345237D02*
X25108101Y-5369047D01*
X25108101Y-5369047D02*
X25012863Y-5392856D01*
X25012863Y-5392856D02*
X24941435Y-5392856D01*
X24941435Y-5392856D02*
X24846197Y-5369047D01*
X24846197Y-5369047D02*
X24798578Y-5345237D01*
X24798578Y-5345237D02*
X24750959Y-5297618D01*
X24750959Y-5297618D02*
X24727149Y-5226190D01*
X24727149Y-5226190D02*
X24727149Y-5178571D01*
X24727149Y-5178571D02*
X24750959Y-5107142D01*
X24750959Y-5107142D02*
X24774768Y-5083333D01*
X24774768Y-4892856D02*
X24750959Y-4869047D01*
X24750959Y-4869047D02*
X24727149Y-4821428D01*
X24727149Y-4821428D02*
X24727149Y-4702380D01*
X24727149Y-4702380D02*
X24750959Y-4654761D01*
X24750959Y-4654761D02*
X24774768Y-4630952D01*
X24774768Y-4630952D02*
X24822387Y-4607142D01*
X24822387Y-4607142D02*
X24870006Y-4607142D01*
X24870006Y-4607142D02*
X24941435Y-4630952D01*
X24941435Y-4630952D02*
X25227149Y-4916666D01*
X25227149Y-4916666D02*
X25227149Y-4607142D01*
D11*
X24980058Y-23880951D02*
X24932439Y-23833332D01*
X24932439Y-23833332D02*
X24884820Y-23738094D01*
X24884820Y-23738094D02*
X24884820Y-23499999D01*
X24884820Y-23499999D02*
X24932439Y-23404761D01*
X24932439Y-23404761D02*
X24980058Y-23357142D01*
X24980058Y-23357142D02*
X25075296Y-23309523D01*
X25075296Y-23309523D02*
X25170534Y-23309523D01*
X25170534Y-23309523D02*
X25313391Y-23357142D01*
X25313391Y-23357142D02*
X25884820Y-23928570D01*
X25884820Y-23928570D02*
X25884820Y-23309523D01*
X25789581Y-22880951D02*
X25837201Y-22833332D01*
X25837201Y-22833332D02*
X25884820Y-22880951D01*
X25884820Y-22880951D02*
X25837201Y-22928570D01*
X25837201Y-22928570D02*
X25789581Y-22880951D01*
X25789581Y-22880951D02*
X25884820Y-22880951D01*
X24980058Y-22452380D02*
X24932439Y-22404761D01*
X24932439Y-22404761D02*
X24884820Y-22309523D01*
X24884820Y-22309523D02*
X24884820Y-22071428D01*
X24884820Y-22071428D02*
X24932439Y-21976190D01*
X24932439Y-21976190D02*
X24980058Y-21928571D01*
X24980058Y-21928571D02*
X25075296Y-21880952D01*
X25075296Y-21880952D02*
X25170534Y-21880952D01*
X25170534Y-21880952D02*
X25313391Y-21928571D01*
X25313391Y-21928571D02*
X25884820Y-22499999D01*
X25884820Y-22499999D02*
X25884820Y-21880952D01*
X25218153Y-21452380D02*
X25884820Y-21452380D01*
X25313391Y-21452380D02*
X25265772Y-21404761D01*
X25265772Y-21404761D02*
X25218153Y-21309523D01*
X25218153Y-21309523D02*
X25218153Y-21166666D01*
X25218153Y-21166666D02*
X25265772Y-21071428D01*
X25265772Y-21071428D02*
X25361010Y-21023809D01*
X25361010Y-21023809D02*
X25884820Y-21023809D01*
X25361010Y-20214285D02*
X25361010Y-20547618D01*
X25884820Y-20547618D02*
X24884820Y-20547618D01*
X24884820Y-20547618D02*
X24884820Y-20071428D01*
D15*
X24143833Y-22066666D02*
X24162881Y-22085714D01*
X24162881Y-22085714D02*
X24181928Y-22142856D01*
X24181928Y-22142856D02*
X24181928Y-22180952D01*
X24181928Y-22180952D02*
X24162881Y-22238095D01*
X24162881Y-22238095D02*
X24124785Y-22276190D01*
X24124785Y-22276190D02*
X24086690Y-22295237D01*
X24086690Y-22295237D02*
X24010500Y-22314285D01*
X24010500Y-22314285D02*
X23953357Y-22314285D01*
X23953357Y-22314285D02*
X23877166Y-22295237D01*
X23877166Y-22295237D02*
X23839071Y-22276190D01*
X23839071Y-22276190D02*
X23800976Y-22238095D01*
X23800976Y-22238095D02*
X23781928Y-22180952D01*
X23781928Y-22180952D02*
X23781928Y-22142856D01*
X23781928Y-22142856D02*
X23800976Y-22085714D01*
X23800976Y-22085714D02*
X23820023Y-22066666D01*
X24181928Y-21876190D02*
X24181928Y-21799999D01*
X24181928Y-21799999D02*
X24162881Y-21761904D01*
X24162881Y-21761904D02*
X24143833Y-21742856D01*
X24143833Y-21742856D02*
X24086690Y-21704761D01*
X24086690Y-21704761D02*
X24010500Y-21685714D01*
X24010500Y-21685714D02*
X23858119Y-21685714D01*
X23858119Y-21685714D02*
X23820023Y-21704761D01*
X23820023Y-21704761D02*
X23800976Y-21723809D01*
X23800976Y-21723809D02*
X23781928Y-21761904D01*
X23781928Y-21761904D02*
X23781928Y-21838095D01*
X23781928Y-21838095D02*
X23800976Y-21876190D01*
X23800976Y-21876190D02*
X23820023Y-21895237D01*
X23820023Y-21895237D02*
X23858119Y-21914285D01*
X23858119Y-21914285D02*
X23953357Y-21914285D01*
X23953357Y-21914285D02*
X23991452Y-21895237D01*
X23991452Y-21895237D02*
X24010500Y-21876190D01*
X24010500Y-21876190D02*
X24029547Y-21838095D01*
X24029547Y-21838095D02*
X24029547Y-21761904D01*
X24029547Y-21761904D02*
X24010500Y-21723809D01*
X24010500Y-21723809D02*
X23991452Y-21704761D01*
X23991452Y-21704761D02*
X23953357Y-21685714D01*
D10*
%TO.C,R8*%
X26000000Y-20375000D02*
X28000000Y-20375000D01*
X26000000Y-21625000D02*
X26000000Y-20375000D01*
X28000000Y-20375000D02*
X28000000Y-21625000D01*
X28000000Y-21625000D02*
X26000000Y-21625000D01*
%TO.C,D1*%
X29900000Y-6600000D02*
X29900000Y-9400000D01*
X28100000Y-6600000D02*
X29900000Y-6600000D01*
X29000000Y-7250000D02*
X29000000Y-7650000D01*
X29000000Y-7650000D02*
X29550000Y-7650000D01*
X29000000Y-7650000D02*
X28450000Y-7650000D01*
X29000000Y-7650000D02*
X29400000Y-8250000D01*
X29400000Y-8250000D02*
X28600000Y-8250000D01*
X29000000Y-8250000D02*
X29000000Y-8750000D01*
X28600000Y-8250000D02*
X29000000Y-7650000D01*
X29900000Y-9400000D02*
X28100000Y-9400000D01*
X28100000Y-9400000D02*
X28100000Y-6600000D01*
%TO.C,R2*%
X7587500Y-20800000D02*
X7587500Y-19200000D01*
X8412500Y-20800000D02*
X7587500Y-20800000D01*
X7587500Y-19200000D02*
X8412500Y-19200000D01*
X8412500Y-19200000D02*
X8412500Y-20800000D01*
%TO.C,C4*%
X19000000Y-8374999D02*
X21000000Y-8374999D01*
X19000000Y-9624999D02*
X19000000Y-8374999D01*
X21000000Y-8374999D02*
X21000000Y-9624999D01*
X21000000Y-9624999D02*
X19000000Y-9624999D01*
%TO.C,R3*%
X25800000Y-26912500D02*
X24200000Y-26912500D01*
X25800000Y-26087500D02*
X25800000Y-26912500D01*
X24200000Y-26912500D02*
X24200000Y-26087500D01*
X24200000Y-26087500D02*
X25800000Y-26087500D01*
%TO.C,J5*%
X31680000Y-12680000D02*
X31680000Y-13320000D01*
X31680000Y-12680000D02*
X33500000Y-12680000D01*
X31680000Y-13320000D02*
X33500000Y-13320000D01*
X31680000Y-15220000D02*
X31680000Y-15860000D01*
X31680000Y-15220000D02*
X33500000Y-15220000D01*
X31680000Y-15860000D02*
X33500000Y-15860000D01*
X31680000Y-17760000D02*
X31680000Y-18400000D01*
X31680000Y-17760000D02*
X33500000Y-17760000D01*
X31680000Y-18400000D02*
X33500000Y-18400000D01*
X33500000Y-12365000D02*
X34135000Y-11730000D01*
X33500000Y-19350000D02*
X33500000Y-12365000D01*
X34135000Y-11730000D02*
X36040000Y-11730000D01*
X36040000Y-11730000D02*
X36040000Y-19350000D01*
X36040000Y-12680000D02*
X42040000Y-12680000D01*
X36040000Y-13320000D02*
X42040000Y-13320000D01*
X36040000Y-15220000D02*
X42040000Y-15220000D01*
X36040000Y-15860000D02*
X42040000Y-15860000D01*
X36040000Y-17760000D02*
X42040000Y-17760000D01*
X36040000Y-18400000D02*
X42040000Y-18400000D01*
X36040000Y-19350000D02*
X33500000Y-19350000D01*
X42040000Y-12680000D02*
X42040000Y-13320000D01*
X42040000Y-15220000D02*
X42040000Y-15860000D01*
X42040000Y-17760000D02*
X42040000Y-18400000D01*
%TO.C,C7*%
X22975001Y-26500000D02*
X22975001Y-28500000D01*
X21725001Y-26500000D02*
X22975001Y-26500000D01*
X22975001Y-28500000D02*
X21725001Y-28500000D01*
X21725001Y-28500000D02*
X21725001Y-26500000D01*
%TO.C,C3*%
X19000000Y-10375000D02*
X21000000Y-10375000D01*
X19000000Y-11625000D02*
X19000000Y-10375000D01*
X21000000Y-10375000D02*
X21000000Y-11625000D01*
X21000000Y-11625000D02*
X19000000Y-11625000D01*
%TO.C,R7*%
X21587500Y-22800000D02*
X21587500Y-21200000D01*
X22412500Y-22800000D02*
X21587500Y-22800000D01*
X21587500Y-21200000D02*
X22412500Y-21200000D01*
X22412500Y-21200000D02*
X22412500Y-22800000D01*
%TO.C,C8*%
X11425000Y-17050001D02*
X11425000Y-15050001D01*
X12675000Y-17050001D02*
X11425000Y-17050001D01*
X11425000Y-15050001D02*
X12675000Y-15050001D01*
X12675000Y-15050001D02*
X12675000Y-17050001D01*
%TO.C,R9*%
X24587500Y-32300000D02*
X24587500Y-30700000D01*
X25412500Y-32300000D02*
X24587500Y-32300000D01*
X24587500Y-30700000D02*
X25412500Y-30700000D01*
X25412500Y-30700000D02*
X25412500Y-32300000D01*
%TO.C,R6*%
X14412500Y-15200000D02*
X14412500Y-16800000D01*
X13587500Y-15200000D02*
X14412500Y-15200000D01*
X14412500Y-16800000D02*
X13587500Y-16800000D01*
X13587500Y-16800000D02*
X13587500Y-15200000D01*
%TO.C,R10*%
X22700000Y-12587500D02*
X24300000Y-12587500D01*
X22700000Y-13412500D02*
X22700000Y-12587500D01*
X24300000Y-12587500D02*
X24300000Y-13412500D01*
X24300000Y-13412500D02*
X22700000Y-13412500D01*
%TO.C,C1*%
X19800000Y-18400000D02*
X18200000Y-18400000D01*
X19800000Y-17600000D02*
X19800000Y-18400000D01*
X18200000Y-18400000D02*
X18200000Y-17600000D01*
X18200000Y-17600000D02*
X19800000Y-17600000D01*
%TO.C,C6*%
X16375000Y-30500000D02*
X16375000Y-28500000D01*
X17625000Y-30500000D02*
X16375000Y-30500000D01*
X16375000Y-28500000D02*
X17625000Y-28500000D01*
X17625000Y-28500000D02*
X17625000Y-30500000D01*
%TO.C,C11*%
X5375000Y-21000000D02*
X5375000Y-19000000D01*
X6625000Y-21000000D02*
X5375000Y-21000000D01*
X5375000Y-19000000D02*
X6625000Y-19000000D01*
X6625000Y-19000000D02*
X6625000Y-21000000D01*
%TO.C,D2*%
X20800000Y-13100000D02*
X20800000Y-12600000D01*
X20800000Y-12600000D02*
X19200000Y-12600000D01*
X20500000Y-13400000D02*
X20800000Y-13100000D01*
X19200000Y-13400000D02*
X20500000Y-13400000D01*
X19200000Y-12600000D02*
X19200000Y-13400000D01*
%TO.C,U1*%
X15050000Y-20525000D02*
X16025000Y-19550000D01*
X15050000Y-24450000D02*
X15050000Y-20525000D01*
X16025000Y-19550000D02*
X18950000Y-19550000D01*
X18950000Y-19550000D02*
X18950000Y-24450000D01*
X18950000Y-24450000D02*
X15050000Y-24450000D01*
%TO.C,R4*%
X20762499Y-26700000D02*
X20762499Y-28300000D01*
X19937499Y-26700000D02*
X20762499Y-26700000D01*
X20762499Y-28300000D02*
X19937499Y-28300000D01*
X19937499Y-28300000D02*
X19937499Y-26700000D01*
%TO.C,C5*%
X11600001Y-20800000D02*
X11600001Y-19200000D01*
X12400001Y-20800000D02*
X11600001Y-20800000D01*
X11600001Y-19200000D02*
X12400001Y-19200000D01*
X12400001Y-19200000D02*
X12400001Y-20800000D01*
%TO.C,R5*%
X18800000Y-26912500D02*
X17200000Y-26912500D01*
X18800000Y-26087500D02*
X18800000Y-26912500D01*
X17200000Y-26912500D02*
X17200000Y-26087500D01*
X17200000Y-26087500D02*
X18800000Y-26087500D01*
%TO.C,U2*%
X20350000Y-6350000D02*
X20350000Y-650000D01*
X20350000Y-6350000D02*
X19350000Y-7350000D01*
X20350000Y-650000D02*
X16650000Y-650000D01*
X19350000Y-7350000D02*
X16650000Y-7350000D01*
X16650000Y-7350000D02*
X16650000Y-650000D01*
%TO.C,R1*%
X9587500Y-20800000D02*
X9587500Y-19200000D01*
X10412500Y-20800000D02*
X9587500Y-20800000D01*
X9587500Y-19200000D02*
X10412500Y-19200000D01*
X10412500Y-19200000D02*
X10412500Y-20800000D01*
%TO.C,C2*%
X25625000Y-4000000D02*
X25625000Y-6000000D01*
X24375000Y-4000000D02*
X25625000Y-4000000D01*
X25625000Y-6000000D02*
X24375000Y-6000000D01*
X24375000Y-6000000D02*
X24375000Y-4000000D01*
%TO.C,C9*%
X23600001Y-22800000D02*
X23600001Y-21200000D01*
X24400001Y-22800000D02*
X23600001Y-22800000D01*
X23600001Y-21200000D02*
X24400001Y-21200000D01*
X24400001Y-21200000D02*
X24400001Y-22800000D01*
%TD*%
M02*
