%TF.GenerationSoftware,KiCad,Pcbnew,7.0.7*%
%TF.CreationDate,2024-02-20T22:27:51-08:00*%
%TF.ProjectId,hb100_amplifier,68623130-305f-4616-9d70-6c6966696572,A*%
%TF.SameCoordinates,PX42c1d80PY1c9c380*%
%TF.FileFunction,Copper,L1,Top*%
%TF.FilePolarity,Positive*%
%FSLAX46Y46*%
G04 Gerber Fmt 4.6, Leading zero omitted, Abs format (unit mm)*
G04 Created by KiCad (PCBNEW 7.0.7) date 2024-02-20 22:27:51*
%MOMM*%
%LPD*%
G01*
G04 APERTURE LIST*
G04 Aperture macros list*
%AMRoundRect*
0 Rectangle with rounded corners*
0 $1 Rounding radius*
0 $2 $3 $4 $5 $6 $7 $8 $9 X,Y pos of 4 corners*
0 Add a 4 corners polygon primitive as box body*
4,1,4,$2,$3,$4,$5,$6,$7,$8,$9,$2,$3,0*
0 Add four circle primitives for the rounded corners*
1,1,$1+$1,$2,$3*
1,1,$1+$1,$4,$5*
1,1,$1+$1,$6,$7*
1,1,$1+$1,$8,$9*
0 Add four rect primitives between the rounded corners*
20,1,$1+$1,$2,$3,$4,$5,0*
20,1,$1+$1,$4,$5,$6,$7,0*
20,1,$1+$1,$6,$7,$8,$9,0*
20,1,$1+$1,$8,$9,$2,$3,0*%
G04 Aperture macros list end*
%ADD10C,0.100000*%
%ADD11C,0.150000*%
%ADD12C,0.300000*%
%ADD13C,0.400000*%
%TA.AperFunction,NonConductor*%
%ADD14C,0.300000*%
%TD*%
%TA.AperFunction,SMDPad,CuDef*%
%ADD15RoundRect,0.250000X-0.262500X-0.450000X0.262500X-0.450000X0.262500X0.450000X-0.262500X0.450000X0*%
%TD*%
%TA.AperFunction,SMDPad,CuDef*%
%ADD16RoundRect,0.225000X-0.375000X0.225000X-0.375000X-0.225000X0.375000X-0.225000X0.375000X0.225000X0*%
%TD*%
%TA.AperFunction,SMDPad,CuDef*%
%ADD17RoundRect,0.200000X0.275000X-0.200000X0.275000X0.200000X-0.275000X0.200000X-0.275000X-0.200000X0*%
%TD*%
%TA.AperFunction,SMDPad,CuDef*%
%ADD18RoundRect,0.250000X-0.250000X-0.475000X0.250000X-0.475000X0.250000X0.475000X-0.250000X0.475000X0*%
%TD*%
%TA.AperFunction,SMDPad,CuDef*%
%ADD19RoundRect,0.200000X0.200000X0.275000X-0.200000X0.275000X-0.200000X-0.275000X0.200000X-0.275000X0*%
%TD*%
%TA.AperFunction,ComponentPad*%
%ADD20R,1.700000X1.700000*%
%TD*%
%TA.AperFunction,ComponentPad*%
%ADD21O,1.700000X1.700000*%
%TD*%
%TA.AperFunction,SMDPad,CuDef*%
%ADD22RoundRect,0.250000X-0.475000X0.250000X-0.475000X-0.250000X0.475000X-0.250000X0.475000X0.250000X0*%
%TD*%
%TA.AperFunction,SMDPad,CuDef*%
%ADD23RoundRect,0.250000X0.475000X-0.250000X0.475000X0.250000X-0.475000X0.250000X-0.475000X-0.250000X0*%
%TD*%
%TA.AperFunction,SMDPad,CuDef*%
%ADD24RoundRect,0.200000X-0.275000X0.200000X-0.275000X-0.200000X0.275000X-0.200000X0.275000X0.200000X0*%
%TD*%
%TA.AperFunction,SMDPad,CuDef*%
%ADD25RoundRect,0.200000X-0.200000X-0.275000X0.200000X-0.275000X0.200000X0.275000X-0.200000X0.275000X0*%
%TD*%
%TA.AperFunction,SMDPad,CuDef*%
%ADD26RoundRect,0.225000X0.225000X0.250000X-0.225000X0.250000X-0.225000X-0.250000X0.225000X-0.250000X0*%
%TD*%
%TA.AperFunction,SMDPad,CuDef*%
%ADD27RoundRect,0.218750X0.218750X0.256250X-0.218750X0.256250X-0.218750X-0.256250X0.218750X-0.256250X0*%
%TD*%
%TA.AperFunction,SMDPad,CuDef*%
%ADD28RoundRect,0.150000X-0.825000X-0.150000X0.825000X-0.150000X0.825000X0.150000X-0.825000X0.150000X0*%
%TD*%
%TA.AperFunction,SMDPad,CuDef*%
%ADD29RoundRect,0.225000X0.250000X-0.225000X0.250000X0.225000X-0.250000X0.225000X-0.250000X-0.225000X0*%
%TD*%
%TA.AperFunction,SMDPad,CuDef*%
%ADD30R,2.000000X1.500000*%
%TD*%
%TA.AperFunction,SMDPad,CuDef*%
%ADD31R,2.000000X3.800000*%
%TD*%
%TA.AperFunction,ViaPad*%
%ADD32C,1.200000*%
%TD*%
%TA.AperFunction,Conductor*%
%ADD33C,0.250000*%
%TD*%
%TA.AperFunction,Conductor*%
%ADD34C,0.400000*%
%TD*%
G04 APERTURE END LIST*
D10*
D11*
X89400000Y-141900000D02*
X197400000Y-141900000D01*
X197400000Y-173900000D01*
X89400000Y-173900000D01*
X89400000Y-141900000D01*
D10*
D11*
X-60000000Y20000000D02*
X199400000Y20000000D01*
X199400000Y-175900000D01*
X-60000000Y-175900000D01*
X-60000000Y20000000D01*
D10*
D11*
X-58000000Y18000000D02*
X197400000Y18000000D01*
X197400000Y-173900000D01*
X-58000000Y-173900000D01*
X-58000000Y18000000D01*
D10*
D11*
X-10000000Y18000000D02*
X-10000000Y20000000D01*
D10*
D11*
X40000000Y18000000D02*
X40000000Y20000000D01*
D10*
D11*
X90000000Y18000000D02*
X90000000Y20000000D01*
D10*
D11*
X140000000Y18000000D02*
X140000000Y20000000D01*
D10*
D11*
X190000000Y18000000D02*
X190000000Y20000000D01*
D10*
D11*
X-33910840Y18406396D02*
X-34653697Y18406396D01*
X-34282269Y18406396D02*
X-34282269Y19706396D01*
X-34282269Y19706396D02*
X-34406078Y19520681D01*
X-34406078Y19520681D02*
X-34529888Y19396872D01*
X-34529888Y19396872D02*
X-34653697Y19334967D01*
D10*
D11*
X15346303Y19582586D02*
X15408207Y19644491D01*
X15408207Y19644491D02*
X15532017Y19706396D01*
X15532017Y19706396D02*
X15841541Y19706396D01*
X15841541Y19706396D02*
X15965350Y19644491D01*
X15965350Y19644491D02*
X16027255Y19582586D01*
X16027255Y19582586D02*
X16089160Y19458777D01*
X16089160Y19458777D02*
X16089160Y19334967D01*
X16089160Y19334967D02*
X16027255Y19149253D01*
X16027255Y19149253D02*
X15284398Y18406396D01*
X15284398Y18406396D02*
X16089160Y18406396D01*
D10*
D11*
X65284398Y19706396D02*
X66089160Y19706396D01*
X66089160Y19706396D02*
X65655826Y19211158D01*
X65655826Y19211158D02*
X65841541Y19211158D01*
X65841541Y19211158D02*
X65965350Y19149253D01*
X65965350Y19149253D02*
X66027255Y19087348D01*
X66027255Y19087348D02*
X66089160Y18963539D01*
X66089160Y18963539D02*
X66089160Y18654015D01*
X66089160Y18654015D02*
X66027255Y18530205D01*
X66027255Y18530205D02*
X65965350Y18468300D01*
X65965350Y18468300D02*
X65841541Y18406396D01*
X65841541Y18406396D02*
X65470112Y18406396D01*
X65470112Y18406396D02*
X65346303Y18468300D01*
X65346303Y18468300D02*
X65284398Y18530205D01*
D10*
D11*
X115965350Y19273062D02*
X115965350Y18406396D01*
X115655826Y19768300D02*
X115346303Y18839729D01*
X115346303Y18839729D02*
X116151064Y18839729D01*
D10*
D11*
X166027255Y19706396D02*
X165408207Y19706396D01*
X165408207Y19706396D02*
X165346303Y19087348D01*
X165346303Y19087348D02*
X165408207Y19149253D01*
X165408207Y19149253D02*
X165532017Y19211158D01*
X165532017Y19211158D02*
X165841541Y19211158D01*
X165841541Y19211158D02*
X165965350Y19149253D01*
X165965350Y19149253D02*
X166027255Y19087348D01*
X166027255Y19087348D02*
X166089160Y18963539D01*
X166089160Y18963539D02*
X166089160Y18654015D01*
X166089160Y18654015D02*
X166027255Y18530205D01*
X166027255Y18530205D02*
X165965350Y18468300D01*
X165965350Y18468300D02*
X165841541Y18406396D01*
X165841541Y18406396D02*
X165532017Y18406396D01*
X165532017Y18406396D02*
X165408207Y18468300D01*
X165408207Y18468300D02*
X165346303Y18530205D01*
D10*
D11*
X-10000000Y-173900000D02*
X-10000000Y-175900000D01*
D10*
D11*
X40000000Y-173900000D02*
X40000000Y-175900000D01*
D10*
D11*
X90000000Y-173900000D02*
X90000000Y-175900000D01*
D10*
D11*
X140000000Y-173900000D02*
X140000000Y-175900000D01*
D10*
D11*
X190000000Y-173900000D02*
X190000000Y-175900000D01*
D10*
D11*
X-33910840Y-175493604D02*
X-34653697Y-175493604D01*
X-34282269Y-175493604D02*
X-34282269Y-174193604D01*
X-34282269Y-174193604D02*
X-34406078Y-174379319D01*
X-34406078Y-174379319D02*
X-34529888Y-174503128D01*
X-34529888Y-174503128D02*
X-34653697Y-174565033D01*
D10*
D11*
X15346303Y-174317414D02*
X15408207Y-174255509D01*
X15408207Y-174255509D02*
X15532017Y-174193604D01*
X15532017Y-174193604D02*
X15841541Y-174193604D01*
X15841541Y-174193604D02*
X15965350Y-174255509D01*
X15965350Y-174255509D02*
X16027255Y-174317414D01*
X16027255Y-174317414D02*
X16089160Y-174441223D01*
X16089160Y-174441223D02*
X16089160Y-174565033D01*
X16089160Y-174565033D02*
X16027255Y-174750747D01*
X16027255Y-174750747D02*
X15284398Y-175493604D01*
X15284398Y-175493604D02*
X16089160Y-175493604D01*
D10*
D11*
X65284398Y-174193604D02*
X66089160Y-174193604D01*
X66089160Y-174193604D02*
X65655826Y-174688842D01*
X65655826Y-174688842D02*
X65841541Y-174688842D01*
X65841541Y-174688842D02*
X65965350Y-174750747D01*
X65965350Y-174750747D02*
X66027255Y-174812652D01*
X66027255Y-174812652D02*
X66089160Y-174936461D01*
X66089160Y-174936461D02*
X66089160Y-175245985D01*
X66089160Y-175245985D02*
X66027255Y-175369795D01*
X66027255Y-175369795D02*
X65965350Y-175431700D01*
X65965350Y-175431700D02*
X65841541Y-175493604D01*
X65841541Y-175493604D02*
X65470112Y-175493604D01*
X65470112Y-175493604D02*
X65346303Y-175431700D01*
X65346303Y-175431700D02*
X65284398Y-175369795D01*
D10*
D11*
X115965350Y-174626938D02*
X115965350Y-175493604D01*
X115655826Y-174131700D02*
X115346303Y-175060271D01*
X115346303Y-175060271D02*
X116151064Y-175060271D01*
D10*
D11*
X166027255Y-174193604D02*
X165408207Y-174193604D01*
X165408207Y-174193604D02*
X165346303Y-174812652D01*
X165346303Y-174812652D02*
X165408207Y-174750747D01*
X165408207Y-174750747D02*
X165532017Y-174688842D01*
X165532017Y-174688842D02*
X165841541Y-174688842D01*
X165841541Y-174688842D02*
X165965350Y-174750747D01*
X165965350Y-174750747D02*
X166027255Y-174812652D01*
X166027255Y-174812652D02*
X166089160Y-174936461D01*
X166089160Y-174936461D02*
X166089160Y-175245985D01*
X166089160Y-175245985D02*
X166027255Y-175369795D01*
X166027255Y-175369795D02*
X165965350Y-175431700D01*
X165965350Y-175431700D02*
X165841541Y-175493604D01*
X165841541Y-175493604D02*
X165532017Y-175493604D01*
X165532017Y-175493604D02*
X165408207Y-175431700D01*
X165408207Y-175431700D02*
X165346303Y-175369795D01*
D10*
D11*
X-60000000Y-30000000D02*
X-58000000Y-30000000D01*
D10*
D11*
X-60000000Y-80000000D02*
X-58000000Y-80000000D01*
D10*
D11*
X-60000000Y-130000000D02*
X-58000000Y-130000000D01*
D10*
D11*
X-59309524Y-5222176D02*
X-58690477Y-5222176D01*
X-59433334Y-5593604D02*
X-59000001Y-4293604D01*
X-59000001Y-4293604D02*
X-58566667Y-5593604D01*
D10*
D11*
X-58907143Y-54912652D02*
X-58721429Y-54974557D01*
X-58721429Y-54974557D02*
X-58659524Y-55036461D01*
X-58659524Y-55036461D02*
X-58597620Y-55160271D01*
X-58597620Y-55160271D02*
X-58597620Y-55345985D01*
X-58597620Y-55345985D02*
X-58659524Y-55469795D01*
X-58659524Y-55469795D02*
X-58721429Y-55531700D01*
X-58721429Y-55531700D02*
X-58845239Y-55593604D01*
X-58845239Y-55593604D02*
X-59340477Y-55593604D01*
X-59340477Y-55593604D02*
X-59340477Y-54293604D01*
X-59340477Y-54293604D02*
X-58907143Y-54293604D01*
X-58907143Y-54293604D02*
X-58783334Y-54355509D01*
X-58783334Y-54355509D02*
X-58721429Y-54417414D01*
X-58721429Y-54417414D02*
X-58659524Y-54541223D01*
X-58659524Y-54541223D02*
X-58659524Y-54665033D01*
X-58659524Y-54665033D02*
X-58721429Y-54788842D01*
X-58721429Y-54788842D02*
X-58783334Y-54850747D01*
X-58783334Y-54850747D02*
X-58907143Y-54912652D01*
X-58907143Y-54912652D02*
X-59340477Y-54912652D01*
D10*
D11*
X-58597620Y-105469795D02*
X-58659524Y-105531700D01*
X-58659524Y-105531700D02*
X-58845239Y-105593604D01*
X-58845239Y-105593604D02*
X-58969048Y-105593604D01*
X-58969048Y-105593604D02*
X-59154762Y-105531700D01*
X-59154762Y-105531700D02*
X-59278572Y-105407890D01*
X-59278572Y-105407890D02*
X-59340477Y-105284080D01*
X-59340477Y-105284080D02*
X-59402381Y-105036461D01*
X-59402381Y-105036461D02*
X-59402381Y-104850747D01*
X-59402381Y-104850747D02*
X-59340477Y-104603128D01*
X-59340477Y-104603128D02*
X-59278572Y-104479319D01*
X-59278572Y-104479319D02*
X-59154762Y-104355509D01*
X-59154762Y-104355509D02*
X-58969048Y-104293604D01*
X-58969048Y-104293604D02*
X-58845239Y-104293604D01*
X-58845239Y-104293604D02*
X-58659524Y-104355509D01*
X-58659524Y-104355509D02*
X-58597620Y-104417414D01*
D10*
D11*
X-59340477Y-155593604D02*
X-59340477Y-154293604D01*
X-59340477Y-154293604D02*
X-59030953Y-154293604D01*
X-59030953Y-154293604D02*
X-58845239Y-154355509D01*
X-58845239Y-154355509D02*
X-58721429Y-154479319D01*
X-58721429Y-154479319D02*
X-58659524Y-154603128D01*
X-58659524Y-154603128D02*
X-58597620Y-154850747D01*
X-58597620Y-154850747D02*
X-58597620Y-155036461D01*
X-58597620Y-155036461D02*
X-58659524Y-155284080D01*
X-58659524Y-155284080D02*
X-58721429Y-155407890D01*
X-58721429Y-155407890D02*
X-58845239Y-155531700D01*
X-58845239Y-155531700D02*
X-59030953Y-155593604D01*
X-59030953Y-155593604D02*
X-59340477Y-155593604D01*
D10*
D11*
X199400000Y-30000000D02*
X197400000Y-30000000D01*
D10*
D11*
X199400000Y-80000000D02*
X197400000Y-80000000D01*
D10*
D11*
X199400000Y-130000000D02*
X197400000Y-130000000D01*
D10*
D11*
X198090476Y-5222176D02*
X198709523Y-5222176D01*
X197966666Y-5593604D02*
X198399999Y-4293604D01*
X198399999Y-4293604D02*
X198833333Y-5593604D01*
D10*
D11*
X198492857Y-54912652D02*
X198678571Y-54974557D01*
X198678571Y-54974557D02*
X198740476Y-55036461D01*
X198740476Y-55036461D02*
X198802380Y-55160271D01*
X198802380Y-55160271D02*
X198802380Y-55345985D01*
X198802380Y-55345985D02*
X198740476Y-55469795D01*
X198740476Y-55469795D02*
X198678571Y-55531700D01*
X198678571Y-55531700D02*
X198554761Y-55593604D01*
X198554761Y-55593604D02*
X198059523Y-55593604D01*
X198059523Y-55593604D02*
X198059523Y-54293604D01*
X198059523Y-54293604D02*
X198492857Y-54293604D01*
X198492857Y-54293604D02*
X198616666Y-54355509D01*
X198616666Y-54355509D02*
X198678571Y-54417414D01*
X198678571Y-54417414D02*
X198740476Y-54541223D01*
X198740476Y-54541223D02*
X198740476Y-54665033D01*
X198740476Y-54665033D02*
X198678571Y-54788842D01*
X198678571Y-54788842D02*
X198616666Y-54850747D01*
X198616666Y-54850747D02*
X198492857Y-54912652D01*
X198492857Y-54912652D02*
X198059523Y-54912652D01*
D10*
D11*
X198802380Y-105469795D02*
X198740476Y-105531700D01*
X198740476Y-105531700D02*
X198554761Y-105593604D01*
X198554761Y-105593604D02*
X198430952Y-105593604D01*
X198430952Y-105593604D02*
X198245238Y-105531700D01*
X198245238Y-105531700D02*
X198121428Y-105407890D01*
X198121428Y-105407890D02*
X198059523Y-105284080D01*
X198059523Y-105284080D02*
X197997619Y-105036461D01*
X197997619Y-105036461D02*
X197997619Y-104850747D01*
X197997619Y-104850747D02*
X198059523Y-104603128D01*
X198059523Y-104603128D02*
X198121428Y-104479319D01*
X198121428Y-104479319D02*
X198245238Y-104355509D01*
X198245238Y-104355509D02*
X198430952Y-104293604D01*
X198430952Y-104293604D02*
X198554761Y-104293604D01*
X198554761Y-104293604D02*
X198740476Y-104355509D01*
X198740476Y-104355509D02*
X198802380Y-104417414D01*
D10*
D11*
X198059523Y-155593604D02*
X198059523Y-154293604D01*
X198059523Y-154293604D02*
X198369047Y-154293604D01*
X198369047Y-154293604D02*
X198554761Y-154355509D01*
X198554761Y-154355509D02*
X198678571Y-154479319D01*
X198678571Y-154479319D02*
X198740476Y-154603128D01*
X198740476Y-154603128D02*
X198802380Y-154850747D01*
X198802380Y-154850747D02*
X198802380Y-155036461D01*
X198802380Y-155036461D02*
X198740476Y-155284080D01*
X198740476Y-155284080D02*
X198678571Y-155407890D01*
X198678571Y-155407890D02*
X198554761Y-155531700D01*
X198554761Y-155531700D02*
X198369047Y-155593604D01*
X198369047Y-155593604D02*
X198059523Y-155593604D01*
D10*
D11*
X112855826Y-169686128D02*
X112855826Y-168186128D01*
X112855826Y-168186128D02*
X113212969Y-168186128D01*
X113212969Y-168186128D02*
X113427255Y-168257557D01*
X113427255Y-168257557D02*
X113570112Y-168400414D01*
X113570112Y-168400414D02*
X113641541Y-168543271D01*
X113641541Y-168543271D02*
X113712969Y-168828985D01*
X113712969Y-168828985D02*
X113712969Y-169043271D01*
X113712969Y-169043271D02*
X113641541Y-169328985D01*
X113641541Y-169328985D02*
X113570112Y-169471842D01*
X113570112Y-169471842D02*
X113427255Y-169614700D01*
X113427255Y-169614700D02*
X113212969Y-169686128D01*
X113212969Y-169686128D02*
X112855826Y-169686128D01*
X114998684Y-169686128D02*
X114998684Y-168900414D01*
X114998684Y-168900414D02*
X114927255Y-168757557D01*
X114927255Y-168757557D02*
X114784398Y-168686128D01*
X114784398Y-168686128D02*
X114498684Y-168686128D01*
X114498684Y-168686128D02*
X114355826Y-168757557D01*
X114998684Y-169614700D02*
X114855826Y-169686128D01*
X114855826Y-169686128D02*
X114498684Y-169686128D01*
X114498684Y-169686128D02*
X114355826Y-169614700D01*
X114355826Y-169614700D02*
X114284398Y-169471842D01*
X114284398Y-169471842D02*
X114284398Y-169328985D01*
X114284398Y-169328985D02*
X114355826Y-169186128D01*
X114355826Y-169186128D02*
X114498684Y-169114700D01*
X114498684Y-169114700D02*
X114855826Y-169114700D01*
X114855826Y-169114700D02*
X114998684Y-169043271D01*
X115498684Y-168686128D02*
X116070112Y-168686128D01*
X115712969Y-168186128D02*
X115712969Y-169471842D01*
X115712969Y-169471842D02*
X115784398Y-169614700D01*
X115784398Y-169614700D02*
X115927255Y-169686128D01*
X115927255Y-169686128D02*
X116070112Y-169686128D01*
X117141541Y-169614700D02*
X116998684Y-169686128D01*
X116998684Y-169686128D02*
X116712970Y-169686128D01*
X116712970Y-169686128D02*
X116570112Y-169614700D01*
X116570112Y-169614700D02*
X116498684Y-169471842D01*
X116498684Y-169471842D02*
X116498684Y-168900414D01*
X116498684Y-168900414D02*
X116570112Y-168757557D01*
X116570112Y-168757557D02*
X116712970Y-168686128D01*
X116712970Y-168686128D02*
X116998684Y-168686128D01*
X116998684Y-168686128D02*
X117141541Y-168757557D01*
X117141541Y-168757557D02*
X117212970Y-168900414D01*
X117212970Y-168900414D02*
X117212970Y-169043271D01*
X117212970Y-169043271D02*
X116498684Y-169186128D01*
X117855826Y-169543271D02*
X117927255Y-169614700D01*
X117927255Y-169614700D02*
X117855826Y-169686128D01*
X117855826Y-169686128D02*
X117784398Y-169614700D01*
X117784398Y-169614700D02*
X117855826Y-169543271D01*
X117855826Y-169543271D02*
X117855826Y-169686128D01*
X117855826Y-168757557D02*
X117927255Y-168828985D01*
X117927255Y-168828985D02*
X117855826Y-168900414D01*
X117855826Y-168900414D02*
X117784398Y-168828985D01*
X117784398Y-168828985D02*
X117855826Y-168757557D01*
X117855826Y-168757557D02*
X117855826Y-168900414D01*
X119641541Y-168328985D02*
X119712969Y-168257557D01*
X119712969Y-168257557D02*
X119855827Y-168186128D01*
X119855827Y-168186128D02*
X120212969Y-168186128D01*
X120212969Y-168186128D02*
X120355827Y-168257557D01*
X120355827Y-168257557D02*
X120427255Y-168328985D01*
X120427255Y-168328985D02*
X120498684Y-168471842D01*
X120498684Y-168471842D02*
X120498684Y-168614700D01*
X120498684Y-168614700D02*
X120427255Y-168828985D01*
X120427255Y-168828985D02*
X119570112Y-169686128D01*
X119570112Y-169686128D02*
X120498684Y-169686128D01*
X121427255Y-168186128D02*
X121570112Y-168186128D01*
X121570112Y-168186128D02*
X121712969Y-168257557D01*
X121712969Y-168257557D02*
X121784398Y-168328985D01*
X121784398Y-168328985D02*
X121855826Y-168471842D01*
X121855826Y-168471842D02*
X121927255Y-168757557D01*
X121927255Y-168757557D02*
X121927255Y-169114700D01*
X121927255Y-169114700D02*
X121855826Y-169400414D01*
X121855826Y-169400414D02*
X121784398Y-169543271D01*
X121784398Y-169543271D02*
X121712969Y-169614700D01*
X121712969Y-169614700D02*
X121570112Y-169686128D01*
X121570112Y-169686128D02*
X121427255Y-169686128D01*
X121427255Y-169686128D02*
X121284398Y-169614700D01*
X121284398Y-169614700D02*
X121212969Y-169543271D01*
X121212969Y-169543271D02*
X121141540Y-169400414D01*
X121141540Y-169400414D02*
X121070112Y-169114700D01*
X121070112Y-169114700D02*
X121070112Y-168757557D01*
X121070112Y-168757557D02*
X121141540Y-168471842D01*
X121141540Y-168471842D02*
X121212969Y-168328985D01*
X121212969Y-168328985D02*
X121284398Y-168257557D01*
X121284398Y-168257557D02*
X121427255Y-168186128D01*
X122498683Y-168328985D02*
X122570111Y-168257557D01*
X122570111Y-168257557D02*
X122712969Y-168186128D01*
X122712969Y-168186128D02*
X123070111Y-168186128D01*
X123070111Y-168186128D02*
X123212969Y-168257557D01*
X123212969Y-168257557D02*
X123284397Y-168328985D01*
X123284397Y-168328985D02*
X123355826Y-168471842D01*
X123355826Y-168471842D02*
X123355826Y-168614700D01*
X123355826Y-168614700D02*
X123284397Y-168828985D01*
X123284397Y-168828985D02*
X122427254Y-169686128D01*
X122427254Y-169686128D02*
X123355826Y-169686128D01*
X124641540Y-168686128D02*
X124641540Y-169686128D01*
X124284397Y-168114700D02*
X123927254Y-169186128D01*
X123927254Y-169186128D02*
X124855825Y-169186128D01*
X125427253Y-169114700D02*
X126570111Y-169114700D01*
X127570111Y-168186128D02*
X127712968Y-168186128D01*
X127712968Y-168186128D02*
X127855825Y-168257557D01*
X127855825Y-168257557D02*
X127927254Y-168328985D01*
X127927254Y-168328985D02*
X127998682Y-168471842D01*
X127998682Y-168471842D02*
X128070111Y-168757557D01*
X128070111Y-168757557D02*
X128070111Y-169114700D01*
X128070111Y-169114700D02*
X127998682Y-169400414D01*
X127998682Y-169400414D02*
X127927254Y-169543271D01*
X127927254Y-169543271D02*
X127855825Y-169614700D01*
X127855825Y-169614700D02*
X127712968Y-169686128D01*
X127712968Y-169686128D02*
X127570111Y-169686128D01*
X127570111Y-169686128D02*
X127427254Y-169614700D01*
X127427254Y-169614700D02*
X127355825Y-169543271D01*
X127355825Y-169543271D02*
X127284396Y-169400414D01*
X127284396Y-169400414D02*
X127212968Y-169114700D01*
X127212968Y-169114700D02*
X127212968Y-168757557D01*
X127212968Y-168757557D02*
X127284396Y-168471842D01*
X127284396Y-168471842D02*
X127355825Y-168328985D01*
X127355825Y-168328985D02*
X127427254Y-168257557D01*
X127427254Y-168257557D02*
X127570111Y-168186128D01*
X128641539Y-168328985D02*
X128712967Y-168257557D01*
X128712967Y-168257557D02*
X128855825Y-168186128D01*
X128855825Y-168186128D02*
X129212967Y-168186128D01*
X129212967Y-168186128D02*
X129355825Y-168257557D01*
X129355825Y-168257557D02*
X129427253Y-168328985D01*
X129427253Y-168328985D02*
X129498682Y-168471842D01*
X129498682Y-168471842D02*
X129498682Y-168614700D01*
X129498682Y-168614700D02*
X129427253Y-168828985D01*
X129427253Y-168828985D02*
X128570110Y-169686128D01*
X128570110Y-169686128D02*
X129498682Y-169686128D01*
X130141538Y-169114700D02*
X131284396Y-169114700D01*
X131927253Y-168328985D02*
X131998681Y-168257557D01*
X131998681Y-168257557D02*
X132141539Y-168186128D01*
X132141539Y-168186128D02*
X132498681Y-168186128D01*
X132498681Y-168186128D02*
X132641539Y-168257557D01*
X132641539Y-168257557D02*
X132712967Y-168328985D01*
X132712967Y-168328985D02*
X132784396Y-168471842D01*
X132784396Y-168471842D02*
X132784396Y-168614700D01*
X132784396Y-168614700D02*
X132712967Y-168828985D01*
X132712967Y-168828985D02*
X131855824Y-169686128D01*
X131855824Y-169686128D02*
X132784396Y-169686128D01*
X133712967Y-168186128D02*
X133855824Y-168186128D01*
X133855824Y-168186128D02*
X133998681Y-168257557D01*
X133998681Y-168257557D02*
X134070110Y-168328985D01*
X134070110Y-168328985D02*
X134141538Y-168471842D01*
X134141538Y-168471842D02*
X134212967Y-168757557D01*
X134212967Y-168757557D02*
X134212967Y-169114700D01*
X134212967Y-169114700D02*
X134141538Y-169400414D01*
X134141538Y-169400414D02*
X134070110Y-169543271D01*
X134070110Y-169543271D02*
X133998681Y-169614700D01*
X133998681Y-169614700D02*
X133855824Y-169686128D01*
X133855824Y-169686128D02*
X133712967Y-169686128D01*
X133712967Y-169686128D02*
X133570110Y-169614700D01*
X133570110Y-169614700D02*
X133498681Y-169543271D01*
X133498681Y-169543271D02*
X133427252Y-169400414D01*
X133427252Y-169400414D02*
X133355824Y-169114700D01*
X133355824Y-169114700D02*
X133355824Y-168757557D01*
X133355824Y-168757557D02*
X133427252Y-168471842D01*
X133427252Y-168471842D02*
X133498681Y-168328985D01*
X133498681Y-168328985D02*
X133570110Y-168257557D01*
X133570110Y-168257557D02*
X133712967Y-168186128D01*
D10*
D11*
X89400000Y-170400000D02*
X197400000Y-170400000D01*
D10*
D11*
X90855826Y-172486128D02*
X90855826Y-170986128D01*
X91712969Y-172486128D02*
X91070112Y-171628985D01*
X91712969Y-170986128D02*
X90855826Y-171843271D01*
X92355826Y-172486128D02*
X92355826Y-171486128D01*
X92355826Y-170986128D02*
X92284398Y-171057557D01*
X92284398Y-171057557D02*
X92355826Y-171128985D01*
X92355826Y-171128985D02*
X92427255Y-171057557D01*
X92427255Y-171057557D02*
X92355826Y-170986128D01*
X92355826Y-170986128D02*
X92355826Y-171128985D01*
X93927255Y-172343271D02*
X93855827Y-172414700D01*
X93855827Y-172414700D02*
X93641541Y-172486128D01*
X93641541Y-172486128D02*
X93498684Y-172486128D01*
X93498684Y-172486128D02*
X93284398Y-172414700D01*
X93284398Y-172414700D02*
X93141541Y-172271842D01*
X93141541Y-172271842D02*
X93070112Y-172128985D01*
X93070112Y-172128985D02*
X92998684Y-171843271D01*
X92998684Y-171843271D02*
X92998684Y-171628985D01*
X92998684Y-171628985D02*
X93070112Y-171343271D01*
X93070112Y-171343271D02*
X93141541Y-171200414D01*
X93141541Y-171200414D02*
X93284398Y-171057557D01*
X93284398Y-171057557D02*
X93498684Y-170986128D01*
X93498684Y-170986128D02*
X93641541Y-170986128D01*
X93641541Y-170986128D02*
X93855827Y-171057557D01*
X93855827Y-171057557D02*
X93927255Y-171128985D01*
X95212970Y-172486128D02*
X95212970Y-171700414D01*
X95212970Y-171700414D02*
X95141541Y-171557557D01*
X95141541Y-171557557D02*
X94998684Y-171486128D01*
X94998684Y-171486128D02*
X94712970Y-171486128D01*
X94712970Y-171486128D02*
X94570112Y-171557557D01*
X95212970Y-172414700D02*
X95070112Y-172486128D01*
X95070112Y-172486128D02*
X94712970Y-172486128D01*
X94712970Y-172486128D02*
X94570112Y-172414700D01*
X94570112Y-172414700D02*
X94498684Y-172271842D01*
X94498684Y-172271842D02*
X94498684Y-172128985D01*
X94498684Y-172128985D02*
X94570112Y-171986128D01*
X94570112Y-171986128D02*
X94712970Y-171914700D01*
X94712970Y-171914700D02*
X95070112Y-171914700D01*
X95070112Y-171914700D02*
X95212970Y-171843271D01*
X96570113Y-172486128D02*
X96570113Y-170986128D01*
X96570113Y-172414700D02*
X96427255Y-172486128D01*
X96427255Y-172486128D02*
X96141541Y-172486128D01*
X96141541Y-172486128D02*
X95998684Y-172414700D01*
X95998684Y-172414700D02*
X95927255Y-172343271D01*
X95927255Y-172343271D02*
X95855827Y-172200414D01*
X95855827Y-172200414D02*
X95855827Y-171771842D01*
X95855827Y-171771842D02*
X95927255Y-171628985D01*
X95927255Y-171628985D02*
X95998684Y-171557557D01*
X95998684Y-171557557D02*
X96141541Y-171486128D01*
X96141541Y-171486128D02*
X96427255Y-171486128D01*
X96427255Y-171486128D02*
X96570113Y-171557557D01*
X98427255Y-171700414D02*
X98927255Y-171700414D01*
X99141541Y-172486128D02*
X98427255Y-172486128D01*
X98427255Y-172486128D02*
X98427255Y-170986128D01*
X98427255Y-170986128D02*
X99141541Y-170986128D01*
X99784398Y-172343271D02*
X99855827Y-172414700D01*
X99855827Y-172414700D02*
X99784398Y-172486128D01*
X99784398Y-172486128D02*
X99712970Y-172414700D01*
X99712970Y-172414700D02*
X99784398Y-172343271D01*
X99784398Y-172343271D02*
X99784398Y-172486128D01*
X100498684Y-172486128D02*
X100498684Y-170986128D01*
X100498684Y-170986128D02*
X100855827Y-170986128D01*
X100855827Y-170986128D02*
X101070113Y-171057557D01*
X101070113Y-171057557D02*
X101212970Y-171200414D01*
X101212970Y-171200414D02*
X101284399Y-171343271D01*
X101284399Y-171343271D02*
X101355827Y-171628985D01*
X101355827Y-171628985D02*
X101355827Y-171843271D01*
X101355827Y-171843271D02*
X101284399Y-172128985D01*
X101284399Y-172128985D02*
X101212970Y-172271842D01*
X101212970Y-172271842D02*
X101070113Y-172414700D01*
X101070113Y-172414700D02*
X100855827Y-172486128D01*
X100855827Y-172486128D02*
X100498684Y-172486128D01*
X101998684Y-172343271D02*
X102070113Y-172414700D01*
X102070113Y-172414700D02*
X101998684Y-172486128D01*
X101998684Y-172486128D02*
X101927256Y-172414700D01*
X101927256Y-172414700D02*
X101998684Y-172343271D01*
X101998684Y-172343271D02*
X101998684Y-172486128D01*
X102641542Y-172057557D02*
X103355828Y-172057557D01*
X102498685Y-172486128D02*
X102998685Y-170986128D01*
X102998685Y-170986128D02*
X103498685Y-172486128D01*
X103998684Y-172343271D02*
X104070113Y-172414700D01*
X104070113Y-172414700D02*
X103998684Y-172486128D01*
X103998684Y-172486128D02*
X103927256Y-172414700D01*
X103927256Y-172414700D02*
X103998684Y-172343271D01*
X103998684Y-172343271D02*
X103998684Y-172486128D01*
X106998684Y-172486128D02*
X106998684Y-170986128D01*
X107141542Y-171914700D02*
X107570113Y-172486128D01*
X107570113Y-171486128D02*
X106998684Y-172057557D01*
X108212970Y-172486128D02*
X108212970Y-171486128D01*
X108212970Y-170986128D02*
X108141542Y-171057557D01*
X108141542Y-171057557D02*
X108212970Y-171128985D01*
X108212970Y-171128985D02*
X108284399Y-171057557D01*
X108284399Y-171057557D02*
X108212970Y-170986128D01*
X108212970Y-170986128D02*
X108212970Y-171128985D01*
X109570114Y-172414700D02*
X109427256Y-172486128D01*
X109427256Y-172486128D02*
X109141542Y-172486128D01*
X109141542Y-172486128D02*
X108998685Y-172414700D01*
X108998685Y-172414700D02*
X108927256Y-172343271D01*
X108927256Y-172343271D02*
X108855828Y-172200414D01*
X108855828Y-172200414D02*
X108855828Y-171771842D01*
X108855828Y-171771842D02*
X108927256Y-171628985D01*
X108927256Y-171628985D02*
X108998685Y-171557557D01*
X108998685Y-171557557D02*
X109141542Y-171486128D01*
X109141542Y-171486128D02*
X109427256Y-171486128D01*
X109427256Y-171486128D02*
X109570114Y-171557557D01*
X110855828Y-172486128D02*
X110855828Y-171700414D01*
X110855828Y-171700414D02*
X110784399Y-171557557D01*
X110784399Y-171557557D02*
X110641542Y-171486128D01*
X110641542Y-171486128D02*
X110355828Y-171486128D01*
X110355828Y-171486128D02*
X110212970Y-171557557D01*
X110855828Y-172414700D02*
X110712970Y-172486128D01*
X110712970Y-172486128D02*
X110355828Y-172486128D01*
X110355828Y-172486128D02*
X110212970Y-172414700D01*
X110212970Y-172414700D02*
X110141542Y-172271842D01*
X110141542Y-172271842D02*
X110141542Y-172128985D01*
X110141542Y-172128985D02*
X110212970Y-171986128D01*
X110212970Y-171986128D02*
X110355828Y-171914700D01*
X110355828Y-171914700D02*
X110712970Y-171914700D01*
X110712970Y-171914700D02*
X110855828Y-171843271D01*
X112212971Y-172486128D02*
X112212971Y-170986128D01*
X112212971Y-172414700D02*
X112070113Y-172486128D01*
X112070113Y-172486128D02*
X111784399Y-172486128D01*
X111784399Y-172486128D02*
X111641542Y-172414700D01*
X111641542Y-172414700D02*
X111570113Y-172343271D01*
X111570113Y-172343271D02*
X111498685Y-172200414D01*
X111498685Y-172200414D02*
X111498685Y-171771842D01*
X111498685Y-171771842D02*
X111570113Y-171628985D01*
X111570113Y-171628985D02*
X111641542Y-171557557D01*
X111641542Y-171557557D02*
X111784399Y-171486128D01*
X111784399Y-171486128D02*
X112070113Y-171486128D01*
X112070113Y-171486128D02*
X112212971Y-171557557D01*
X113927256Y-170986128D02*
X114927256Y-170986128D01*
X114927256Y-170986128D02*
X114284399Y-172486128D01*
X115498684Y-172343271D02*
X115570113Y-172414700D01*
X115570113Y-172414700D02*
X115498684Y-172486128D01*
X115498684Y-172486128D02*
X115427256Y-172414700D01*
X115427256Y-172414700D02*
X115498684Y-172343271D01*
X115498684Y-172343271D02*
X115498684Y-172486128D01*
X116498685Y-170986128D02*
X116641542Y-170986128D01*
X116641542Y-170986128D02*
X116784399Y-171057557D01*
X116784399Y-171057557D02*
X116855828Y-171128985D01*
X116855828Y-171128985D02*
X116927256Y-171271842D01*
X116927256Y-171271842D02*
X116998685Y-171557557D01*
X116998685Y-171557557D02*
X116998685Y-171914700D01*
X116998685Y-171914700D02*
X116927256Y-172200414D01*
X116927256Y-172200414D02*
X116855828Y-172343271D01*
X116855828Y-172343271D02*
X116784399Y-172414700D01*
X116784399Y-172414700D02*
X116641542Y-172486128D01*
X116641542Y-172486128D02*
X116498685Y-172486128D01*
X116498685Y-172486128D02*
X116355828Y-172414700D01*
X116355828Y-172414700D02*
X116284399Y-172343271D01*
X116284399Y-172343271D02*
X116212970Y-172200414D01*
X116212970Y-172200414D02*
X116141542Y-171914700D01*
X116141542Y-171914700D02*
X116141542Y-171557557D01*
X116141542Y-171557557D02*
X116212970Y-171271842D01*
X116212970Y-171271842D02*
X116284399Y-171128985D01*
X116284399Y-171128985D02*
X116355828Y-171057557D01*
X116355828Y-171057557D02*
X116498685Y-170986128D01*
X117641541Y-172343271D02*
X117712970Y-172414700D01*
X117712970Y-172414700D02*
X117641541Y-172486128D01*
X117641541Y-172486128D02*
X117570113Y-172414700D01*
X117570113Y-172414700D02*
X117641541Y-172343271D01*
X117641541Y-172343271D02*
X117641541Y-172486128D01*
X118212970Y-170986128D02*
X119212970Y-170986128D01*
X119212970Y-170986128D02*
X118570113Y-172486128D01*
D10*
D11*
X89400000Y-167400000D02*
X197400000Y-167400000D01*
D10*
D12*
X176811653Y-169678328D02*
X176311653Y-168964042D01*
X175954510Y-169678328D02*
X175954510Y-168178328D01*
X175954510Y-168178328D02*
X176525939Y-168178328D01*
X176525939Y-168178328D02*
X176668796Y-168249757D01*
X176668796Y-168249757D02*
X176740225Y-168321185D01*
X176740225Y-168321185D02*
X176811653Y-168464042D01*
X176811653Y-168464042D02*
X176811653Y-168678328D01*
X176811653Y-168678328D02*
X176740225Y-168821185D01*
X176740225Y-168821185D02*
X176668796Y-168892614D01*
X176668796Y-168892614D02*
X176525939Y-168964042D01*
X176525939Y-168964042D02*
X175954510Y-168964042D01*
X178025939Y-169606900D02*
X177883082Y-169678328D01*
X177883082Y-169678328D02*
X177597368Y-169678328D01*
X177597368Y-169678328D02*
X177454510Y-169606900D01*
X177454510Y-169606900D02*
X177383082Y-169464042D01*
X177383082Y-169464042D02*
X177383082Y-168892614D01*
X177383082Y-168892614D02*
X177454510Y-168749757D01*
X177454510Y-168749757D02*
X177597368Y-168678328D01*
X177597368Y-168678328D02*
X177883082Y-168678328D01*
X177883082Y-168678328D02*
X178025939Y-168749757D01*
X178025939Y-168749757D02*
X178097368Y-168892614D01*
X178097368Y-168892614D02*
X178097368Y-169035471D01*
X178097368Y-169035471D02*
X177383082Y-169178328D01*
X178597367Y-168678328D02*
X178954510Y-169678328D01*
X178954510Y-169678328D02*
X179311653Y-168678328D01*
X179883081Y-169535471D02*
X179954510Y-169606900D01*
X179954510Y-169606900D02*
X179883081Y-169678328D01*
X179883081Y-169678328D02*
X179811653Y-169606900D01*
X179811653Y-169606900D02*
X179883081Y-169535471D01*
X179883081Y-169535471D02*
X179883081Y-169678328D01*
X179883081Y-168749757D02*
X179954510Y-168821185D01*
X179954510Y-168821185D02*
X179883081Y-168892614D01*
X179883081Y-168892614D02*
X179811653Y-168821185D01*
X179811653Y-168821185D02*
X179883081Y-168749757D01*
X179883081Y-168749757D02*
X179883081Y-168892614D01*
X181668796Y-169249757D02*
X182383082Y-169249757D01*
X181525939Y-169678328D02*
X182025939Y-168178328D01*
X182025939Y-168178328D02*
X182525939Y-169678328D01*
D10*
D11*
X90784398Y-169614700D02*
X90998684Y-169686128D01*
X90998684Y-169686128D02*
X91355826Y-169686128D01*
X91355826Y-169686128D02*
X91498684Y-169614700D01*
X91498684Y-169614700D02*
X91570112Y-169543271D01*
X91570112Y-169543271D02*
X91641541Y-169400414D01*
X91641541Y-169400414D02*
X91641541Y-169257557D01*
X91641541Y-169257557D02*
X91570112Y-169114700D01*
X91570112Y-169114700D02*
X91498684Y-169043271D01*
X91498684Y-169043271D02*
X91355826Y-168971842D01*
X91355826Y-168971842D02*
X91070112Y-168900414D01*
X91070112Y-168900414D02*
X90927255Y-168828985D01*
X90927255Y-168828985D02*
X90855826Y-168757557D01*
X90855826Y-168757557D02*
X90784398Y-168614700D01*
X90784398Y-168614700D02*
X90784398Y-168471842D01*
X90784398Y-168471842D02*
X90855826Y-168328985D01*
X90855826Y-168328985D02*
X90927255Y-168257557D01*
X90927255Y-168257557D02*
X91070112Y-168186128D01*
X91070112Y-168186128D02*
X91427255Y-168186128D01*
X91427255Y-168186128D02*
X91641541Y-168257557D01*
X92284397Y-169686128D02*
X92284397Y-168686128D01*
X92284397Y-168186128D02*
X92212969Y-168257557D01*
X92212969Y-168257557D02*
X92284397Y-168328985D01*
X92284397Y-168328985D02*
X92355826Y-168257557D01*
X92355826Y-168257557D02*
X92284397Y-168186128D01*
X92284397Y-168186128D02*
X92284397Y-168328985D01*
X92855826Y-168686128D02*
X93641541Y-168686128D01*
X93641541Y-168686128D02*
X92855826Y-169686128D01*
X92855826Y-169686128D02*
X93641541Y-169686128D01*
X94784398Y-169614700D02*
X94641541Y-169686128D01*
X94641541Y-169686128D02*
X94355827Y-169686128D01*
X94355827Y-169686128D02*
X94212969Y-169614700D01*
X94212969Y-169614700D02*
X94141541Y-169471842D01*
X94141541Y-169471842D02*
X94141541Y-168900414D01*
X94141541Y-168900414D02*
X94212969Y-168757557D01*
X94212969Y-168757557D02*
X94355827Y-168686128D01*
X94355827Y-168686128D02*
X94641541Y-168686128D01*
X94641541Y-168686128D02*
X94784398Y-168757557D01*
X94784398Y-168757557D02*
X94855827Y-168900414D01*
X94855827Y-168900414D02*
X94855827Y-169043271D01*
X94855827Y-169043271D02*
X94141541Y-169186128D01*
X95498683Y-169543271D02*
X95570112Y-169614700D01*
X95570112Y-169614700D02*
X95498683Y-169686128D01*
X95498683Y-169686128D02*
X95427255Y-169614700D01*
X95427255Y-169614700D02*
X95498683Y-169543271D01*
X95498683Y-169543271D02*
X95498683Y-169686128D01*
X95498683Y-168757557D02*
X95570112Y-168828985D01*
X95570112Y-168828985D02*
X95498683Y-168900414D01*
X95498683Y-168900414D02*
X95427255Y-168828985D01*
X95427255Y-168828985D02*
X95498683Y-168757557D01*
X95498683Y-168757557D02*
X95498683Y-168900414D01*
X97284398Y-169257557D02*
X97998684Y-169257557D01*
X97141541Y-169686128D02*
X97641541Y-168186128D01*
X97641541Y-168186128D02*
X98141541Y-169686128D01*
D10*
D11*
X175855826Y-172486128D02*
X175855826Y-170986128D01*
X177212970Y-172486128D02*
X177212970Y-170986128D01*
X177212970Y-172414700D02*
X177070112Y-172486128D01*
X177070112Y-172486128D02*
X176784398Y-172486128D01*
X176784398Y-172486128D02*
X176641541Y-172414700D01*
X176641541Y-172414700D02*
X176570112Y-172343271D01*
X176570112Y-172343271D02*
X176498684Y-172200414D01*
X176498684Y-172200414D02*
X176498684Y-171771842D01*
X176498684Y-171771842D02*
X176570112Y-171628985D01*
X176570112Y-171628985D02*
X176641541Y-171557557D01*
X176641541Y-171557557D02*
X176784398Y-171486128D01*
X176784398Y-171486128D02*
X177070112Y-171486128D01*
X177070112Y-171486128D02*
X177212970Y-171557557D01*
X177927255Y-172343271D02*
X177998684Y-172414700D01*
X177998684Y-172414700D02*
X177927255Y-172486128D01*
X177927255Y-172486128D02*
X177855827Y-172414700D01*
X177855827Y-172414700D02*
X177927255Y-172343271D01*
X177927255Y-172343271D02*
X177927255Y-172486128D01*
X177927255Y-171557557D02*
X177998684Y-171628985D01*
X177998684Y-171628985D02*
X177927255Y-171700414D01*
X177927255Y-171700414D02*
X177855827Y-171628985D01*
X177855827Y-171628985D02*
X177927255Y-171557557D01*
X177927255Y-171557557D02*
X177927255Y-171700414D01*
X180570113Y-172486128D02*
X179712970Y-172486128D01*
X180141541Y-172486128D02*
X180141541Y-170986128D01*
X180141541Y-170986128D02*
X179998684Y-171200414D01*
X179998684Y-171200414D02*
X179855827Y-171343271D01*
X179855827Y-171343271D02*
X179712970Y-171414700D01*
X182284398Y-170914700D02*
X180998684Y-172843271D01*
X183570113Y-172486128D02*
X182712970Y-172486128D01*
X183141541Y-172486128D02*
X183141541Y-170986128D01*
X183141541Y-170986128D02*
X182998684Y-171200414D01*
X182998684Y-171200414D02*
X182855827Y-171343271D01*
X182855827Y-171343271D02*
X182712970Y-171414700D01*
D10*
D11*
X89400000Y-163400000D02*
X197400000Y-163400000D01*
D10*
D13*
X91091728Y-164104438D02*
X92234585Y-164104438D01*
X91413157Y-166104438D02*
X91663157Y-164104438D01*
X92651252Y-166104438D02*
X92817919Y-164771104D01*
X92901252Y-164104438D02*
X92794109Y-164199676D01*
X92794109Y-164199676D02*
X92877443Y-164294914D01*
X92877443Y-164294914D02*
X92984586Y-164199676D01*
X92984586Y-164199676D02*
X92901252Y-164104438D01*
X92901252Y-164104438D02*
X92877443Y-164294914D01*
X93484586Y-164771104D02*
X94246490Y-164771104D01*
X93853633Y-164104438D02*
X93639348Y-165818723D01*
X93639348Y-165818723D02*
X93710776Y-166009200D01*
X93710776Y-166009200D02*
X93889348Y-166104438D01*
X93889348Y-166104438D02*
X94079824Y-166104438D01*
X95032205Y-166104438D02*
X94853633Y-166009200D01*
X94853633Y-166009200D02*
X94782205Y-165818723D01*
X94782205Y-165818723D02*
X94996490Y-164104438D01*
X96567919Y-166009200D02*
X96365538Y-166104438D01*
X96365538Y-166104438D02*
X95984585Y-166104438D01*
X95984585Y-166104438D02*
X95806014Y-166009200D01*
X95806014Y-166009200D02*
X95734585Y-165818723D01*
X95734585Y-165818723D02*
X95829824Y-165056819D01*
X95829824Y-165056819D02*
X95948871Y-164866342D01*
X95948871Y-164866342D02*
X96151252Y-164771104D01*
X96151252Y-164771104D02*
X96532204Y-164771104D01*
X96532204Y-164771104D02*
X96710776Y-164866342D01*
X96710776Y-164866342D02*
X96782204Y-165056819D01*
X96782204Y-165056819D02*
X96758395Y-165247295D01*
X96758395Y-165247295D02*
X95782204Y-165437771D01*
X97532205Y-165913961D02*
X97615538Y-166009200D01*
X97615538Y-166009200D02*
X97508395Y-166104438D01*
X97508395Y-166104438D02*
X97425062Y-166009200D01*
X97425062Y-166009200D02*
X97532205Y-165913961D01*
X97532205Y-165913961D02*
X97508395Y-166104438D01*
X97663157Y-164866342D02*
X97746490Y-164961580D01*
X97746490Y-164961580D02*
X97639348Y-165056819D01*
X97639348Y-165056819D02*
X97556014Y-164961580D01*
X97556014Y-164961580D02*
X97663157Y-164866342D01*
X97663157Y-164866342D02*
X97639348Y-165056819D01*
X99984586Y-166104438D02*
X100234586Y-164104438D01*
X100115539Y-165056819D02*
X101258396Y-165056819D01*
X101127443Y-166104438D02*
X101377443Y-164104438D01*
X102877443Y-165056819D02*
X103151253Y-165152057D01*
X103151253Y-165152057D02*
X103234586Y-165247295D01*
X103234586Y-165247295D02*
X103306015Y-165437771D01*
X103306015Y-165437771D02*
X103270300Y-165723485D01*
X103270300Y-165723485D02*
X103151253Y-165913961D01*
X103151253Y-165913961D02*
X103044110Y-166009200D01*
X103044110Y-166009200D02*
X102841729Y-166104438D01*
X102841729Y-166104438D02*
X102079824Y-166104438D01*
X102079824Y-166104438D02*
X102329824Y-164104438D01*
X102329824Y-164104438D02*
X102996491Y-164104438D01*
X102996491Y-164104438D02*
X103175062Y-164199676D01*
X103175062Y-164199676D02*
X103258396Y-164294914D01*
X103258396Y-164294914D02*
X103329824Y-164485390D01*
X103329824Y-164485390D02*
X103306015Y-164675866D01*
X103306015Y-164675866D02*
X103186967Y-164866342D01*
X103186967Y-164866342D02*
X103079824Y-164961580D01*
X103079824Y-164961580D02*
X102877443Y-165056819D01*
X102877443Y-165056819D02*
X102210777Y-165056819D01*
X105127443Y-166104438D02*
X103984586Y-166104438D01*
X104556015Y-166104438D02*
X104806015Y-164104438D01*
X104806015Y-164104438D02*
X104579824Y-164390152D01*
X104579824Y-164390152D02*
X104365539Y-164580628D01*
X104365539Y-164580628D02*
X104163158Y-164675866D01*
X106615539Y-164104438D02*
X106806015Y-164104438D01*
X106806015Y-164104438D02*
X106984586Y-164199676D01*
X106984586Y-164199676D02*
X107067920Y-164294914D01*
X107067920Y-164294914D02*
X107139348Y-164485390D01*
X107139348Y-164485390D02*
X107186967Y-164866342D01*
X107186967Y-164866342D02*
X107127443Y-165342533D01*
X107127443Y-165342533D02*
X106984586Y-165723485D01*
X106984586Y-165723485D02*
X106865539Y-165913961D01*
X106865539Y-165913961D02*
X106758396Y-166009200D01*
X106758396Y-166009200D02*
X106556015Y-166104438D01*
X106556015Y-166104438D02*
X106365539Y-166104438D01*
X106365539Y-166104438D02*
X106186967Y-166009200D01*
X106186967Y-166009200D02*
X106103634Y-165913961D01*
X106103634Y-165913961D02*
X106032205Y-165723485D01*
X106032205Y-165723485D02*
X105984586Y-165342533D01*
X105984586Y-165342533D02*
X106044110Y-164866342D01*
X106044110Y-164866342D02*
X106186967Y-164485390D01*
X106186967Y-164485390D02*
X106306015Y-164294914D01*
X106306015Y-164294914D02*
X106413158Y-164199676D01*
X106413158Y-164199676D02*
X106615539Y-164104438D01*
X108520301Y-164104438D02*
X108710777Y-164104438D01*
X108710777Y-164104438D02*
X108889348Y-164199676D01*
X108889348Y-164199676D02*
X108972682Y-164294914D01*
X108972682Y-164294914D02*
X109044110Y-164485390D01*
X109044110Y-164485390D02*
X109091729Y-164866342D01*
X109091729Y-164866342D02*
X109032205Y-165342533D01*
X109032205Y-165342533D02*
X108889348Y-165723485D01*
X108889348Y-165723485D02*
X108770301Y-165913961D01*
X108770301Y-165913961D02*
X108663158Y-166009200D01*
X108663158Y-166009200D02*
X108460777Y-166104438D01*
X108460777Y-166104438D02*
X108270301Y-166104438D01*
X108270301Y-166104438D02*
X108091729Y-166009200D01*
X108091729Y-166009200D02*
X108008396Y-165913961D01*
X108008396Y-165913961D02*
X107936967Y-165723485D01*
X107936967Y-165723485D02*
X107889348Y-165342533D01*
X107889348Y-165342533D02*
X107948872Y-164866342D01*
X107948872Y-164866342D02*
X108091729Y-164485390D01*
X108091729Y-164485390D02*
X108210777Y-164294914D01*
X108210777Y-164294914D02*
X108317920Y-164199676D01*
X108317920Y-164199676D02*
X108520301Y-164104438D01*
X111294111Y-165533009D02*
X112246492Y-165533009D01*
X111032206Y-166104438D02*
X111948873Y-164104438D01*
X111948873Y-164104438D02*
X112365539Y-166104438D01*
X113032206Y-166104438D02*
X113198873Y-164771104D01*
X113175063Y-164961580D02*
X113282206Y-164866342D01*
X113282206Y-164866342D02*
X113484587Y-164771104D01*
X113484587Y-164771104D02*
X113770301Y-164771104D01*
X113770301Y-164771104D02*
X113948873Y-164866342D01*
X113948873Y-164866342D02*
X114020301Y-165056819D01*
X114020301Y-165056819D02*
X113889349Y-166104438D01*
X114020301Y-165056819D02*
X114139349Y-164866342D01*
X114139349Y-164866342D02*
X114341730Y-164771104D01*
X114341730Y-164771104D02*
X114627444Y-164771104D01*
X114627444Y-164771104D02*
X114806016Y-164866342D01*
X114806016Y-164866342D02*
X114877444Y-165056819D01*
X114877444Y-165056819D02*
X114746492Y-166104438D01*
X115865540Y-164771104D02*
X115615540Y-166771104D01*
X115853635Y-164866342D02*
X116056016Y-164771104D01*
X116056016Y-164771104D02*
X116436968Y-164771104D01*
X116436968Y-164771104D02*
X116615540Y-164866342D01*
X116615540Y-164866342D02*
X116698873Y-164961580D01*
X116698873Y-164961580D02*
X116770302Y-165152057D01*
X116770302Y-165152057D02*
X116698873Y-165723485D01*
X116698873Y-165723485D02*
X116579826Y-165913961D01*
X116579826Y-165913961D02*
X116472683Y-166009200D01*
X116472683Y-166009200D02*
X116270302Y-166104438D01*
X116270302Y-166104438D02*
X115889349Y-166104438D01*
X115889349Y-166104438D02*
X115710778Y-166009200D01*
X117794112Y-166104438D02*
X117615540Y-166009200D01*
X117615540Y-166009200D02*
X117544112Y-165818723D01*
X117544112Y-165818723D02*
X117758397Y-164104438D01*
X118556016Y-166104438D02*
X118722683Y-164771104D01*
X118806016Y-164104438D02*
X118698873Y-164199676D01*
X118698873Y-164199676D02*
X118782207Y-164294914D01*
X118782207Y-164294914D02*
X118889350Y-164199676D01*
X118889350Y-164199676D02*
X118806016Y-164104438D01*
X118806016Y-164104438D02*
X118782207Y-164294914D01*
X119389350Y-164771104D02*
X120151254Y-164771104D01*
X119508397Y-166104438D02*
X119722683Y-164390152D01*
X119722683Y-164390152D02*
X119841731Y-164199676D01*
X119841731Y-164199676D02*
X120044112Y-164104438D01*
X120044112Y-164104438D02*
X120234588Y-164104438D01*
X120651254Y-166104438D02*
X120817921Y-164771104D01*
X120901254Y-164104438D02*
X120794111Y-164199676D01*
X120794111Y-164199676D02*
X120877445Y-164294914D01*
X120877445Y-164294914D02*
X120984588Y-164199676D01*
X120984588Y-164199676D02*
X120901254Y-164104438D01*
X120901254Y-164104438D02*
X120877445Y-164294914D01*
X122377445Y-166009200D02*
X122175064Y-166104438D01*
X122175064Y-166104438D02*
X121794111Y-166104438D01*
X121794111Y-166104438D02*
X121615540Y-166009200D01*
X121615540Y-166009200D02*
X121544111Y-165818723D01*
X121544111Y-165818723D02*
X121639350Y-165056819D01*
X121639350Y-165056819D02*
X121758397Y-164866342D01*
X121758397Y-164866342D02*
X121960778Y-164771104D01*
X121960778Y-164771104D02*
X122341730Y-164771104D01*
X122341730Y-164771104D02*
X122520302Y-164866342D01*
X122520302Y-164866342D02*
X122591730Y-165056819D01*
X122591730Y-165056819D02*
X122567921Y-165247295D01*
X122567921Y-165247295D02*
X121591730Y-165437771D01*
X123317921Y-166104438D02*
X123484588Y-164771104D01*
X123436969Y-165152057D02*
X123556016Y-164961580D01*
X123556016Y-164961580D02*
X123663159Y-164866342D01*
X123663159Y-164866342D02*
X123865540Y-164771104D01*
X123865540Y-164771104D02*
X124056016Y-164771104D01*
D10*
D11*
X91355826Y-161500414D02*
X90855826Y-161500414D01*
X90855826Y-162286128D02*
X90855826Y-160786128D01*
X90855826Y-160786128D02*
X91570112Y-160786128D01*
X92141540Y-162286128D02*
X92141540Y-161286128D01*
X92141540Y-160786128D02*
X92070112Y-160857557D01*
X92070112Y-160857557D02*
X92141540Y-160928985D01*
X92141540Y-160928985D02*
X92212969Y-160857557D01*
X92212969Y-160857557D02*
X92141540Y-160786128D01*
X92141540Y-160786128D02*
X92141540Y-160928985D01*
X93070112Y-162286128D02*
X92927255Y-162214700D01*
X92927255Y-162214700D02*
X92855826Y-162071842D01*
X92855826Y-162071842D02*
X92855826Y-160786128D01*
X94212969Y-162214700D02*
X94070112Y-162286128D01*
X94070112Y-162286128D02*
X93784398Y-162286128D01*
X93784398Y-162286128D02*
X93641540Y-162214700D01*
X93641540Y-162214700D02*
X93570112Y-162071842D01*
X93570112Y-162071842D02*
X93570112Y-161500414D01*
X93570112Y-161500414D02*
X93641540Y-161357557D01*
X93641540Y-161357557D02*
X93784398Y-161286128D01*
X93784398Y-161286128D02*
X94070112Y-161286128D01*
X94070112Y-161286128D02*
X94212969Y-161357557D01*
X94212969Y-161357557D02*
X94284398Y-161500414D01*
X94284398Y-161500414D02*
X94284398Y-161643271D01*
X94284398Y-161643271D02*
X93570112Y-161786128D01*
X94927254Y-162143271D02*
X94998683Y-162214700D01*
X94998683Y-162214700D02*
X94927254Y-162286128D01*
X94927254Y-162286128D02*
X94855826Y-162214700D01*
X94855826Y-162214700D02*
X94927254Y-162143271D01*
X94927254Y-162143271D02*
X94927254Y-162286128D01*
X94927254Y-161357557D02*
X94998683Y-161428985D01*
X94998683Y-161428985D02*
X94927254Y-161500414D01*
X94927254Y-161500414D02*
X94855826Y-161428985D01*
X94855826Y-161428985D02*
X94927254Y-161357557D01*
X94927254Y-161357557D02*
X94927254Y-161500414D01*
X96784397Y-162286128D02*
X96784397Y-160786128D01*
X97427255Y-162286128D02*
X97427255Y-161500414D01*
X97427255Y-161500414D02*
X97355826Y-161357557D01*
X97355826Y-161357557D02*
X97212969Y-161286128D01*
X97212969Y-161286128D02*
X96998683Y-161286128D01*
X96998683Y-161286128D02*
X96855826Y-161357557D01*
X96855826Y-161357557D02*
X96784397Y-161428985D01*
X98141540Y-162286128D02*
X98141540Y-160786128D01*
X98141540Y-161357557D02*
X98284398Y-161286128D01*
X98284398Y-161286128D02*
X98570112Y-161286128D01*
X98570112Y-161286128D02*
X98712969Y-161357557D01*
X98712969Y-161357557D02*
X98784398Y-161428985D01*
X98784398Y-161428985D02*
X98855826Y-161571842D01*
X98855826Y-161571842D02*
X98855826Y-162000414D01*
X98855826Y-162000414D02*
X98784398Y-162143271D01*
X98784398Y-162143271D02*
X98712969Y-162214700D01*
X98712969Y-162214700D02*
X98570112Y-162286128D01*
X98570112Y-162286128D02*
X98284398Y-162286128D01*
X98284398Y-162286128D02*
X98141540Y-162214700D01*
X100284398Y-162286128D02*
X99427255Y-162286128D01*
X99855826Y-162286128D02*
X99855826Y-160786128D01*
X99855826Y-160786128D02*
X99712969Y-161000414D01*
X99712969Y-161000414D02*
X99570112Y-161143271D01*
X99570112Y-161143271D02*
X99427255Y-161214700D01*
X101212969Y-160786128D02*
X101355826Y-160786128D01*
X101355826Y-160786128D02*
X101498683Y-160857557D01*
X101498683Y-160857557D02*
X101570112Y-160928985D01*
X101570112Y-160928985D02*
X101641540Y-161071842D01*
X101641540Y-161071842D02*
X101712969Y-161357557D01*
X101712969Y-161357557D02*
X101712969Y-161714700D01*
X101712969Y-161714700D02*
X101641540Y-162000414D01*
X101641540Y-162000414D02*
X101570112Y-162143271D01*
X101570112Y-162143271D02*
X101498683Y-162214700D01*
X101498683Y-162214700D02*
X101355826Y-162286128D01*
X101355826Y-162286128D02*
X101212969Y-162286128D01*
X101212969Y-162286128D02*
X101070112Y-162214700D01*
X101070112Y-162214700D02*
X100998683Y-162143271D01*
X100998683Y-162143271D02*
X100927254Y-162000414D01*
X100927254Y-162000414D02*
X100855826Y-161714700D01*
X100855826Y-161714700D02*
X100855826Y-161357557D01*
X100855826Y-161357557D02*
X100927254Y-161071842D01*
X100927254Y-161071842D02*
X100998683Y-160928985D01*
X100998683Y-160928985D02*
X101070112Y-160857557D01*
X101070112Y-160857557D02*
X101212969Y-160786128D01*
X102641540Y-160786128D02*
X102784397Y-160786128D01*
X102784397Y-160786128D02*
X102927254Y-160857557D01*
X102927254Y-160857557D02*
X102998683Y-160928985D01*
X102998683Y-160928985D02*
X103070111Y-161071842D01*
X103070111Y-161071842D02*
X103141540Y-161357557D01*
X103141540Y-161357557D02*
X103141540Y-161714700D01*
X103141540Y-161714700D02*
X103070111Y-162000414D01*
X103070111Y-162000414D02*
X102998683Y-162143271D01*
X102998683Y-162143271D02*
X102927254Y-162214700D01*
X102927254Y-162214700D02*
X102784397Y-162286128D01*
X102784397Y-162286128D02*
X102641540Y-162286128D01*
X102641540Y-162286128D02*
X102498683Y-162214700D01*
X102498683Y-162214700D02*
X102427254Y-162143271D01*
X102427254Y-162143271D02*
X102355825Y-162000414D01*
X102355825Y-162000414D02*
X102284397Y-161714700D01*
X102284397Y-161714700D02*
X102284397Y-161357557D01*
X102284397Y-161357557D02*
X102355825Y-161071842D01*
X102355825Y-161071842D02*
X102427254Y-160928985D01*
X102427254Y-160928985D02*
X102498683Y-160857557D01*
X102498683Y-160857557D02*
X102641540Y-160786128D01*
X103427254Y-162428985D02*
X104570111Y-162428985D01*
X105570111Y-162286128D02*
X105570111Y-161500414D01*
X105570111Y-161500414D02*
X105498682Y-161357557D01*
X105498682Y-161357557D02*
X105355825Y-161286128D01*
X105355825Y-161286128D02*
X105070111Y-161286128D01*
X105070111Y-161286128D02*
X104927253Y-161357557D01*
X105570111Y-162214700D02*
X105427253Y-162286128D01*
X105427253Y-162286128D02*
X105070111Y-162286128D01*
X105070111Y-162286128D02*
X104927253Y-162214700D01*
X104927253Y-162214700D02*
X104855825Y-162071842D01*
X104855825Y-162071842D02*
X104855825Y-161928985D01*
X104855825Y-161928985D02*
X104927253Y-161786128D01*
X104927253Y-161786128D02*
X105070111Y-161714700D01*
X105070111Y-161714700D02*
X105427253Y-161714700D01*
X105427253Y-161714700D02*
X105570111Y-161643271D01*
X106284396Y-162286128D02*
X106284396Y-161286128D01*
X106284396Y-161428985D02*
X106355825Y-161357557D01*
X106355825Y-161357557D02*
X106498682Y-161286128D01*
X106498682Y-161286128D02*
X106712968Y-161286128D01*
X106712968Y-161286128D02*
X106855825Y-161357557D01*
X106855825Y-161357557D02*
X106927254Y-161500414D01*
X106927254Y-161500414D02*
X106927254Y-162286128D01*
X106927254Y-161500414D02*
X106998682Y-161357557D01*
X106998682Y-161357557D02*
X107141539Y-161286128D01*
X107141539Y-161286128D02*
X107355825Y-161286128D01*
X107355825Y-161286128D02*
X107498682Y-161357557D01*
X107498682Y-161357557D02*
X107570111Y-161500414D01*
X107570111Y-161500414D02*
X107570111Y-162286128D01*
X108284396Y-161286128D02*
X108284396Y-162786128D01*
X108284396Y-161357557D02*
X108427254Y-161286128D01*
X108427254Y-161286128D02*
X108712968Y-161286128D01*
X108712968Y-161286128D02*
X108855825Y-161357557D01*
X108855825Y-161357557D02*
X108927254Y-161428985D01*
X108927254Y-161428985D02*
X108998682Y-161571842D01*
X108998682Y-161571842D02*
X108998682Y-162000414D01*
X108998682Y-162000414D02*
X108927254Y-162143271D01*
X108927254Y-162143271D02*
X108855825Y-162214700D01*
X108855825Y-162214700D02*
X108712968Y-162286128D01*
X108712968Y-162286128D02*
X108427254Y-162286128D01*
X108427254Y-162286128D02*
X108284396Y-162214700D01*
X109855825Y-162286128D02*
X109712968Y-162214700D01*
X109712968Y-162214700D02*
X109641539Y-162071842D01*
X109641539Y-162071842D02*
X109641539Y-160786128D01*
X110427253Y-162286128D02*
X110427253Y-161286128D01*
X110427253Y-160786128D02*
X110355825Y-160857557D01*
X110355825Y-160857557D02*
X110427253Y-160928985D01*
X110427253Y-160928985D02*
X110498682Y-160857557D01*
X110498682Y-160857557D02*
X110427253Y-160786128D01*
X110427253Y-160786128D02*
X110427253Y-160928985D01*
X110927254Y-161286128D02*
X111498682Y-161286128D01*
X111141539Y-162286128D02*
X111141539Y-161000414D01*
X111141539Y-161000414D02*
X111212968Y-160857557D01*
X111212968Y-160857557D02*
X111355825Y-160786128D01*
X111355825Y-160786128D02*
X111498682Y-160786128D01*
X111998682Y-162286128D02*
X111998682Y-161286128D01*
X111998682Y-160786128D02*
X111927254Y-160857557D01*
X111927254Y-160857557D02*
X111998682Y-160928985D01*
X111998682Y-160928985D02*
X112070111Y-160857557D01*
X112070111Y-160857557D02*
X111998682Y-160786128D01*
X111998682Y-160786128D02*
X111998682Y-160928985D01*
X113284397Y-162214700D02*
X113141540Y-162286128D01*
X113141540Y-162286128D02*
X112855826Y-162286128D01*
X112855826Y-162286128D02*
X112712968Y-162214700D01*
X112712968Y-162214700D02*
X112641540Y-162071842D01*
X112641540Y-162071842D02*
X112641540Y-161500414D01*
X112641540Y-161500414D02*
X112712968Y-161357557D01*
X112712968Y-161357557D02*
X112855826Y-161286128D01*
X112855826Y-161286128D02*
X113141540Y-161286128D01*
X113141540Y-161286128D02*
X113284397Y-161357557D01*
X113284397Y-161357557D02*
X113355826Y-161500414D01*
X113355826Y-161500414D02*
X113355826Y-161643271D01*
X113355826Y-161643271D02*
X112641540Y-161786128D01*
X113998682Y-162286128D02*
X113998682Y-161286128D01*
X113998682Y-161571842D02*
X114070111Y-161428985D01*
X114070111Y-161428985D02*
X114141540Y-161357557D01*
X114141540Y-161357557D02*
X114284397Y-161286128D01*
X114284397Y-161286128D02*
X114427254Y-161286128D01*
X114927253Y-162143271D02*
X114998682Y-162214700D01*
X114998682Y-162214700D02*
X114927253Y-162286128D01*
X114927253Y-162286128D02*
X114855825Y-162214700D01*
X114855825Y-162214700D02*
X114927253Y-162143271D01*
X114927253Y-162143271D02*
X114927253Y-162286128D01*
X115641539Y-162286128D02*
X115641539Y-160786128D01*
X115784397Y-161714700D02*
X116212968Y-162286128D01*
X116212968Y-161286128D02*
X115641539Y-161857557D01*
X116855825Y-162286128D02*
X116855825Y-161286128D01*
X116855825Y-160786128D02*
X116784397Y-160857557D01*
X116784397Y-160857557D02*
X116855825Y-160928985D01*
X116855825Y-160928985D02*
X116927254Y-160857557D01*
X116927254Y-160857557D02*
X116855825Y-160786128D01*
X116855825Y-160786128D02*
X116855825Y-160928985D01*
X118212969Y-162214700D02*
X118070111Y-162286128D01*
X118070111Y-162286128D02*
X117784397Y-162286128D01*
X117784397Y-162286128D02*
X117641540Y-162214700D01*
X117641540Y-162214700D02*
X117570111Y-162143271D01*
X117570111Y-162143271D02*
X117498683Y-162000414D01*
X117498683Y-162000414D02*
X117498683Y-161571842D01*
X117498683Y-161571842D02*
X117570111Y-161428985D01*
X117570111Y-161428985D02*
X117641540Y-161357557D01*
X117641540Y-161357557D02*
X117784397Y-161286128D01*
X117784397Y-161286128D02*
X118070111Y-161286128D01*
X118070111Y-161286128D02*
X118212969Y-161357557D01*
X119498683Y-162286128D02*
X119498683Y-161500414D01*
X119498683Y-161500414D02*
X119427254Y-161357557D01*
X119427254Y-161357557D02*
X119284397Y-161286128D01*
X119284397Y-161286128D02*
X118998683Y-161286128D01*
X118998683Y-161286128D02*
X118855825Y-161357557D01*
X119498683Y-162214700D02*
X119355825Y-162286128D01*
X119355825Y-162286128D02*
X118998683Y-162286128D01*
X118998683Y-162286128D02*
X118855825Y-162214700D01*
X118855825Y-162214700D02*
X118784397Y-162071842D01*
X118784397Y-162071842D02*
X118784397Y-161928985D01*
X118784397Y-161928985D02*
X118855825Y-161786128D01*
X118855825Y-161786128D02*
X118998683Y-161714700D01*
X118998683Y-161714700D02*
X119355825Y-161714700D01*
X119355825Y-161714700D02*
X119498683Y-161643271D01*
X120855826Y-162286128D02*
X120855826Y-160786128D01*
X120855826Y-162214700D02*
X120712968Y-162286128D01*
X120712968Y-162286128D02*
X120427254Y-162286128D01*
X120427254Y-162286128D02*
X120284397Y-162214700D01*
X120284397Y-162214700D02*
X120212968Y-162143271D01*
X120212968Y-162143271D02*
X120141540Y-162000414D01*
X120141540Y-162000414D02*
X120141540Y-161571842D01*
X120141540Y-161571842D02*
X120212968Y-161428985D01*
X120212968Y-161428985D02*
X120284397Y-161357557D01*
X120284397Y-161357557D02*
X120427254Y-161286128D01*
X120427254Y-161286128D02*
X120712968Y-161286128D01*
X120712968Y-161286128D02*
X120855826Y-161357557D01*
X121212969Y-162428985D02*
X122355826Y-162428985D01*
X122712968Y-161286128D02*
X122712968Y-162786128D01*
X122712968Y-161357557D02*
X122855826Y-161286128D01*
X122855826Y-161286128D02*
X123141540Y-161286128D01*
X123141540Y-161286128D02*
X123284397Y-161357557D01*
X123284397Y-161357557D02*
X123355826Y-161428985D01*
X123355826Y-161428985D02*
X123427254Y-161571842D01*
X123427254Y-161571842D02*
X123427254Y-162000414D01*
X123427254Y-162000414D02*
X123355826Y-162143271D01*
X123355826Y-162143271D02*
X123284397Y-162214700D01*
X123284397Y-162214700D02*
X123141540Y-162286128D01*
X123141540Y-162286128D02*
X122855826Y-162286128D01*
X122855826Y-162286128D02*
X122712968Y-162214700D01*
X124712969Y-162214700D02*
X124570111Y-162286128D01*
X124570111Y-162286128D02*
X124284397Y-162286128D01*
X124284397Y-162286128D02*
X124141540Y-162214700D01*
X124141540Y-162214700D02*
X124070111Y-162143271D01*
X124070111Y-162143271D02*
X123998683Y-162000414D01*
X123998683Y-162000414D02*
X123998683Y-161571842D01*
X123998683Y-161571842D02*
X124070111Y-161428985D01*
X124070111Y-161428985D02*
X124141540Y-161357557D01*
X124141540Y-161357557D02*
X124284397Y-161286128D01*
X124284397Y-161286128D02*
X124570111Y-161286128D01*
X124570111Y-161286128D02*
X124712969Y-161357557D01*
X125355825Y-162286128D02*
X125355825Y-160786128D01*
X125355825Y-161357557D02*
X125498683Y-161286128D01*
X125498683Y-161286128D02*
X125784397Y-161286128D01*
X125784397Y-161286128D02*
X125927254Y-161357557D01*
X125927254Y-161357557D02*
X125998683Y-161428985D01*
X125998683Y-161428985D02*
X126070111Y-161571842D01*
X126070111Y-161571842D02*
X126070111Y-162000414D01*
X126070111Y-162000414D02*
X125998683Y-162143271D01*
X125998683Y-162143271D02*
X125927254Y-162214700D01*
X125927254Y-162214700D02*
X125784397Y-162286128D01*
X125784397Y-162286128D02*
X125498683Y-162286128D01*
X125498683Y-162286128D02*
X125355825Y-162214700D01*
D10*
D11*
X89400000Y-157400000D02*
X197400000Y-157400000D01*
D10*
D11*
X90784398Y-159514700D02*
X90998684Y-159586128D01*
X90998684Y-159586128D02*
X91355826Y-159586128D01*
X91355826Y-159586128D02*
X91498684Y-159514700D01*
X91498684Y-159514700D02*
X91570112Y-159443271D01*
X91570112Y-159443271D02*
X91641541Y-159300414D01*
X91641541Y-159300414D02*
X91641541Y-159157557D01*
X91641541Y-159157557D02*
X91570112Y-159014700D01*
X91570112Y-159014700D02*
X91498684Y-158943271D01*
X91498684Y-158943271D02*
X91355826Y-158871842D01*
X91355826Y-158871842D02*
X91070112Y-158800414D01*
X91070112Y-158800414D02*
X90927255Y-158728985D01*
X90927255Y-158728985D02*
X90855826Y-158657557D01*
X90855826Y-158657557D02*
X90784398Y-158514700D01*
X90784398Y-158514700D02*
X90784398Y-158371842D01*
X90784398Y-158371842D02*
X90855826Y-158228985D01*
X90855826Y-158228985D02*
X90927255Y-158157557D01*
X90927255Y-158157557D02*
X91070112Y-158086128D01*
X91070112Y-158086128D02*
X91427255Y-158086128D01*
X91427255Y-158086128D02*
X91641541Y-158157557D01*
X92284397Y-159586128D02*
X92284397Y-158086128D01*
X92927255Y-159586128D02*
X92927255Y-158800414D01*
X92927255Y-158800414D02*
X92855826Y-158657557D01*
X92855826Y-158657557D02*
X92712969Y-158586128D01*
X92712969Y-158586128D02*
X92498683Y-158586128D01*
X92498683Y-158586128D02*
X92355826Y-158657557D01*
X92355826Y-158657557D02*
X92284397Y-158728985D01*
X94212969Y-159514700D02*
X94070112Y-159586128D01*
X94070112Y-159586128D02*
X93784398Y-159586128D01*
X93784398Y-159586128D02*
X93641540Y-159514700D01*
X93641540Y-159514700D02*
X93570112Y-159371842D01*
X93570112Y-159371842D02*
X93570112Y-158800414D01*
X93570112Y-158800414D02*
X93641540Y-158657557D01*
X93641540Y-158657557D02*
X93784398Y-158586128D01*
X93784398Y-158586128D02*
X94070112Y-158586128D01*
X94070112Y-158586128D02*
X94212969Y-158657557D01*
X94212969Y-158657557D02*
X94284398Y-158800414D01*
X94284398Y-158800414D02*
X94284398Y-158943271D01*
X94284398Y-158943271D02*
X93570112Y-159086128D01*
X95498683Y-159514700D02*
X95355826Y-159586128D01*
X95355826Y-159586128D02*
X95070112Y-159586128D01*
X95070112Y-159586128D02*
X94927254Y-159514700D01*
X94927254Y-159514700D02*
X94855826Y-159371842D01*
X94855826Y-159371842D02*
X94855826Y-158800414D01*
X94855826Y-158800414D02*
X94927254Y-158657557D01*
X94927254Y-158657557D02*
X95070112Y-158586128D01*
X95070112Y-158586128D02*
X95355826Y-158586128D01*
X95355826Y-158586128D02*
X95498683Y-158657557D01*
X95498683Y-158657557D02*
X95570112Y-158800414D01*
X95570112Y-158800414D02*
X95570112Y-158943271D01*
X95570112Y-158943271D02*
X94855826Y-159086128D01*
X95998683Y-158586128D02*
X96570111Y-158586128D01*
X96212968Y-158086128D02*
X96212968Y-159371842D01*
X96212968Y-159371842D02*
X96284397Y-159514700D01*
X96284397Y-159514700D02*
X96427254Y-159586128D01*
X96427254Y-159586128D02*
X96570111Y-159586128D01*
X97070111Y-159443271D02*
X97141540Y-159514700D01*
X97141540Y-159514700D02*
X97070111Y-159586128D01*
X97070111Y-159586128D02*
X96998683Y-159514700D01*
X96998683Y-159514700D02*
X97070111Y-159443271D01*
X97070111Y-159443271D02*
X97070111Y-159586128D01*
X97070111Y-158657557D02*
X97141540Y-158728985D01*
X97141540Y-158728985D02*
X97070111Y-158800414D01*
X97070111Y-158800414D02*
X96998683Y-158728985D01*
X96998683Y-158728985D02*
X97070111Y-158657557D01*
X97070111Y-158657557D02*
X97070111Y-158800414D01*
D10*
D12*
X106194510Y-156578128D02*
X106194510Y-155078128D01*
X106194510Y-155078128D02*
X106765939Y-155078128D01*
X106765939Y-155078128D02*
X106908796Y-155149557D01*
X106908796Y-155149557D02*
X106980225Y-155220985D01*
X106980225Y-155220985D02*
X107051653Y-155363842D01*
X107051653Y-155363842D02*
X107051653Y-155578128D01*
X107051653Y-155578128D02*
X106980225Y-155720985D01*
X106980225Y-155720985D02*
X106908796Y-155792414D01*
X106908796Y-155792414D02*
X106765939Y-155863842D01*
X106765939Y-155863842D02*
X106194510Y-155863842D01*
X108337368Y-156578128D02*
X108337368Y-155792414D01*
X108337368Y-155792414D02*
X108265939Y-155649557D01*
X108265939Y-155649557D02*
X108123082Y-155578128D01*
X108123082Y-155578128D02*
X107837368Y-155578128D01*
X107837368Y-155578128D02*
X107694510Y-155649557D01*
X108337368Y-156506700D02*
X108194510Y-156578128D01*
X108194510Y-156578128D02*
X107837368Y-156578128D01*
X107837368Y-156578128D02*
X107694510Y-156506700D01*
X107694510Y-156506700D02*
X107623082Y-156363842D01*
X107623082Y-156363842D02*
X107623082Y-156220985D01*
X107623082Y-156220985D02*
X107694510Y-156078128D01*
X107694510Y-156078128D02*
X107837368Y-156006700D01*
X107837368Y-156006700D02*
X108194510Y-156006700D01*
X108194510Y-156006700D02*
X108337368Y-155935271D01*
X109051653Y-155578128D02*
X109051653Y-156578128D01*
X109051653Y-155720985D02*
X109123082Y-155649557D01*
X109123082Y-155649557D02*
X109265939Y-155578128D01*
X109265939Y-155578128D02*
X109480225Y-155578128D01*
X109480225Y-155578128D02*
X109623082Y-155649557D01*
X109623082Y-155649557D02*
X109694511Y-155792414D01*
X109694511Y-155792414D02*
X109694511Y-156578128D01*
X110194511Y-155578128D02*
X110765939Y-155578128D01*
X110408796Y-155078128D02*
X110408796Y-156363842D01*
X110408796Y-156363842D02*
X110480225Y-156506700D01*
X110480225Y-156506700D02*
X110623082Y-156578128D01*
X110623082Y-156578128D02*
X110765939Y-156578128D01*
X111194511Y-156506700D02*
X111337368Y-156578128D01*
X111337368Y-156578128D02*
X111623082Y-156578128D01*
X111623082Y-156578128D02*
X111765939Y-156506700D01*
X111765939Y-156506700D02*
X111837368Y-156363842D01*
X111837368Y-156363842D02*
X111837368Y-156292414D01*
X111837368Y-156292414D02*
X111765939Y-156149557D01*
X111765939Y-156149557D02*
X111623082Y-156078128D01*
X111623082Y-156078128D02*
X111408797Y-156078128D01*
X111408797Y-156078128D02*
X111265939Y-156006700D01*
X111265939Y-156006700D02*
X111194511Y-155863842D01*
X111194511Y-155863842D02*
X111194511Y-155792414D01*
X111194511Y-155792414D02*
X111265939Y-155649557D01*
X111265939Y-155649557D02*
X111408797Y-155578128D01*
X111408797Y-155578128D02*
X111623082Y-155578128D01*
X111623082Y-155578128D02*
X111765939Y-155649557D01*
X113408797Y-155578128D02*
X113980225Y-155578128D01*
X113623082Y-156578128D02*
X113623082Y-155292414D01*
X113623082Y-155292414D02*
X113694511Y-155149557D01*
X113694511Y-155149557D02*
X113837368Y-155078128D01*
X113837368Y-155078128D02*
X113980225Y-155078128D01*
X114694511Y-156578128D02*
X114551654Y-156506700D01*
X114551654Y-156506700D02*
X114480225Y-156435271D01*
X114480225Y-156435271D02*
X114408797Y-156292414D01*
X114408797Y-156292414D02*
X114408797Y-155863842D01*
X114408797Y-155863842D02*
X114480225Y-155720985D01*
X114480225Y-155720985D02*
X114551654Y-155649557D01*
X114551654Y-155649557D02*
X114694511Y-155578128D01*
X114694511Y-155578128D02*
X114908797Y-155578128D01*
X114908797Y-155578128D02*
X115051654Y-155649557D01*
X115051654Y-155649557D02*
X115123083Y-155720985D01*
X115123083Y-155720985D02*
X115194511Y-155863842D01*
X115194511Y-155863842D02*
X115194511Y-156292414D01*
X115194511Y-156292414D02*
X115123083Y-156435271D01*
X115123083Y-156435271D02*
X115051654Y-156506700D01*
X115051654Y-156506700D02*
X114908797Y-156578128D01*
X114908797Y-156578128D02*
X114694511Y-156578128D01*
X115837368Y-156578128D02*
X115837368Y-155578128D01*
X115837368Y-155863842D02*
X115908797Y-155720985D01*
X115908797Y-155720985D02*
X115980226Y-155649557D01*
X115980226Y-155649557D02*
X116123083Y-155578128D01*
X116123083Y-155578128D02*
X116265940Y-155578128D01*
X118408796Y-155792414D02*
X118623082Y-155863842D01*
X118623082Y-155863842D02*
X118694511Y-155935271D01*
X118694511Y-155935271D02*
X118765939Y-156078128D01*
X118765939Y-156078128D02*
X118765939Y-156292414D01*
X118765939Y-156292414D02*
X118694511Y-156435271D01*
X118694511Y-156435271D02*
X118623082Y-156506700D01*
X118623082Y-156506700D02*
X118480225Y-156578128D01*
X118480225Y-156578128D02*
X117908796Y-156578128D01*
X117908796Y-156578128D02*
X117908796Y-155078128D01*
X117908796Y-155078128D02*
X118408796Y-155078128D01*
X118408796Y-155078128D02*
X118551654Y-155149557D01*
X118551654Y-155149557D02*
X118623082Y-155220985D01*
X118623082Y-155220985D02*
X118694511Y-155363842D01*
X118694511Y-155363842D02*
X118694511Y-155506700D01*
X118694511Y-155506700D02*
X118623082Y-155649557D01*
X118623082Y-155649557D02*
X118551654Y-155720985D01*
X118551654Y-155720985D02*
X118408796Y-155792414D01*
X118408796Y-155792414D02*
X117908796Y-155792414D01*
X119408796Y-156578128D02*
X119408796Y-155578128D01*
X119408796Y-155078128D02*
X119337368Y-155149557D01*
X119337368Y-155149557D02*
X119408796Y-155220985D01*
X119408796Y-155220985D02*
X119480225Y-155149557D01*
X119480225Y-155149557D02*
X119408796Y-155078128D01*
X119408796Y-155078128D02*
X119408796Y-155220985D01*
X120123082Y-156578128D02*
X120123082Y-155578128D01*
X120123082Y-155863842D02*
X120194511Y-155720985D01*
X120194511Y-155720985D02*
X120265940Y-155649557D01*
X120265940Y-155649557D02*
X120408797Y-155578128D01*
X120408797Y-155578128D02*
X120551654Y-155578128D01*
X121694511Y-156578128D02*
X121694511Y-155078128D01*
X121694511Y-156506700D02*
X121551653Y-156578128D01*
X121551653Y-156578128D02*
X121265939Y-156578128D01*
X121265939Y-156578128D02*
X121123082Y-156506700D01*
X121123082Y-156506700D02*
X121051653Y-156435271D01*
X121051653Y-156435271D02*
X120980225Y-156292414D01*
X120980225Y-156292414D02*
X120980225Y-155863842D01*
X120980225Y-155863842D02*
X121051653Y-155720985D01*
X121051653Y-155720985D02*
X121123082Y-155649557D01*
X121123082Y-155649557D02*
X121265939Y-155578128D01*
X121265939Y-155578128D02*
X121551653Y-155578128D01*
X121551653Y-155578128D02*
X121694511Y-155649557D01*
X122337368Y-156506700D02*
X122480225Y-156578128D01*
X122480225Y-156578128D02*
X122765939Y-156578128D01*
X122765939Y-156578128D02*
X122908796Y-156506700D01*
X122908796Y-156506700D02*
X122980225Y-156363842D01*
X122980225Y-156363842D02*
X122980225Y-156292414D01*
X122980225Y-156292414D02*
X122908796Y-156149557D01*
X122908796Y-156149557D02*
X122765939Y-156078128D01*
X122765939Y-156078128D02*
X122551654Y-156078128D01*
X122551654Y-156078128D02*
X122408796Y-156006700D01*
X122408796Y-156006700D02*
X122337368Y-155863842D01*
X122337368Y-155863842D02*
X122337368Y-155792414D01*
X122337368Y-155792414D02*
X122408796Y-155649557D01*
X122408796Y-155649557D02*
X122551654Y-155578128D01*
X122551654Y-155578128D02*
X122765939Y-155578128D01*
X122765939Y-155578128D02*
X122908796Y-155649557D01*
D10*
D11*
X106524398Y-152085928D02*
X106524398Y-153157357D01*
X106524398Y-153157357D02*
X106452969Y-153371642D01*
X106452969Y-153371642D02*
X106310112Y-153514500D01*
X106310112Y-153514500D02*
X106095826Y-153585928D01*
X106095826Y-153585928D02*
X105952969Y-153585928D01*
X107452969Y-153585928D02*
X107310112Y-153514500D01*
X107310112Y-153514500D02*
X107238683Y-153443071D01*
X107238683Y-153443071D02*
X107167255Y-153300214D01*
X107167255Y-153300214D02*
X107167255Y-152871642D01*
X107167255Y-152871642D02*
X107238683Y-152728785D01*
X107238683Y-152728785D02*
X107310112Y-152657357D01*
X107310112Y-152657357D02*
X107452969Y-152585928D01*
X107452969Y-152585928D02*
X107667255Y-152585928D01*
X107667255Y-152585928D02*
X107810112Y-152657357D01*
X107810112Y-152657357D02*
X107881541Y-152728785D01*
X107881541Y-152728785D02*
X107952969Y-152871642D01*
X107952969Y-152871642D02*
X107952969Y-153300214D01*
X107952969Y-153300214D02*
X107881541Y-153443071D01*
X107881541Y-153443071D02*
X107810112Y-153514500D01*
X107810112Y-153514500D02*
X107667255Y-153585928D01*
X107667255Y-153585928D02*
X107452969Y-153585928D01*
X108595826Y-153585928D02*
X108595826Y-152085928D01*
X109238684Y-153585928D02*
X109238684Y-152800214D01*
X109238684Y-152800214D02*
X109167255Y-152657357D01*
X109167255Y-152657357D02*
X109024398Y-152585928D01*
X109024398Y-152585928D02*
X108810112Y-152585928D01*
X108810112Y-152585928D02*
X108667255Y-152657357D01*
X108667255Y-152657357D02*
X108595826Y-152728785D01*
X109952969Y-152585928D02*
X109952969Y-153585928D01*
X109952969Y-152728785D02*
X110024398Y-152657357D01*
X110024398Y-152657357D02*
X110167255Y-152585928D01*
X110167255Y-152585928D02*
X110381541Y-152585928D01*
X110381541Y-152585928D02*
X110524398Y-152657357D01*
X110524398Y-152657357D02*
X110595827Y-152800214D01*
X110595827Y-152800214D02*
X110595827Y-153585928D01*
X112452969Y-153585928D02*
X112452969Y-152085928D01*
X112452969Y-152085928D02*
X112952969Y-153157357D01*
X112952969Y-153157357D02*
X113452969Y-152085928D01*
X113452969Y-152085928D02*
X113452969Y-153585928D01*
X114810113Y-153514500D02*
X114667255Y-153585928D01*
X114667255Y-153585928D02*
X114381541Y-153585928D01*
X114381541Y-153585928D02*
X114238684Y-153514500D01*
X114238684Y-153514500D02*
X114167255Y-153443071D01*
X114167255Y-153443071D02*
X114095827Y-153300214D01*
X114095827Y-153300214D02*
X114095827Y-152871642D01*
X114095827Y-152871642D02*
X114167255Y-152728785D01*
X114167255Y-152728785D02*
X114238684Y-152657357D01*
X114238684Y-152657357D02*
X114381541Y-152585928D01*
X114381541Y-152585928D02*
X114667255Y-152585928D01*
X114667255Y-152585928D02*
X114810113Y-152657357D01*
X115452969Y-153585928D02*
X115452969Y-152085928D01*
X115452969Y-152085928D02*
X116310112Y-153585928D01*
X116310112Y-153585928D02*
X116310112Y-152085928D01*
X117595827Y-153514500D02*
X117452970Y-153585928D01*
X117452970Y-153585928D02*
X117167256Y-153585928D01*
X117167256Y-153585928D02*
X117024398Y-153514500D01*
X117024398Y-153514500D02*
X116952970Y-153371642D01*
X116952970Y-153371642D02*
X116952970Y-152800214D01*
X116952970Y-152800214D02*
X117024398Y-152657357D01*
X117024398Y-152657357D02*
X117167256Y-152585928D01*
X117167256Y-152585928D02*
X117452970Y-152585928D01*
X117452970Y-152585928D02*
X117595827Y-152657357D01*
X117595827Y-152657357D02*
X117667256Y-152800214D01*
X117667256Y-152800214D02*
X117667256Y-152943071D01*
X117667256Y-152943071D02*
X116952970Y-153085928D01*
X118524398Y-153585928D02*
X118381541Y-153514500D01*
X118381541Y-153514500D02*
X118310112Y-153371642D01*
X118310112Y-153371642D02*
X118310112Y-152085928D01*
X119310112Y-153585928D02*
X119167255Y-153514500D01*
X119167255Y-153514500D02*
X119095826Y-153371642D01*
X119095826Y-153371642D02*
X119095826Y-152085928D01*
X119738683Y-152585928D02*
X120095826Y-153585928D01*
X120452969Y-152585928D02*
X120095826Y-153585928D01*
X120095826Y-153585928D02*
X119952969Y-153943071D01*
X119952969Y-153943071D02*
X119881540Y-154014500D01*
X119881540Y-154014500D02*
X119738683Y-154085928D01*
X122167254Y-153014500D02*
X123310112Y-153014500D01*
X125167254Y-152585928D02*
X125167254Y-153871642D01*
X125167254Y-153871642D02*
X125095826Y-154014500D01*
X125095826Y-154014500D02*
X124952969Y-154085928D01*
X124952969Y-154085928D02*
X124881540Y-154085928D01*
X125167254Y-152085928D02*
X125095826Y-152157357D01*
X125095826Y-152157357D02*
X125167254Y-152228785D01*
X125167254Y-152228785D02*
X125238683Y-152157357D01*
X125238683Y-152157357D02*
X125167254Y-152085928D01*
X125167254Y-152085928D02*
X125167254Y-152228785D01*
X125881540Y-153585928D02*
X125881540Y-152085928D01*
X126024398Y-153014500D02*
X126452969Y-153585928D01*
X126452969Y-152585928D02*
X125881540Y-153157357D01*
X127738684Y-153585928D02*
X127738684Y-152800214D01*
X127738684Y-152800214D02*
X127667255Y-152657357D01*
X127667255Y-152657357D02*
X127524398Y-152585928D01*
X127524398Y-152585928D02*
X127238684Y-152585928D01*
X127238684Y-152585928D02*
X127095826Y-152657357D01*
X127738684Y-153514500D02*
X127595826Y-153585928D01*
X127595826Y-153585928D02*
X127238684Y-153585928D01*
X127238684Y-153585928D02*
X127095826Y-153514500D01*
X127095826Y-153514500D02*
X127024398Y-153371642D01*
X127024398Y-153371642D02*
X127024398Y-153228785D01*
X127024398Y-153228785D02*
X127095826Y-153085928D01*
X127095826Y-153085928D02*
X127238684Y-153014500D01*
X127238684Y-153014500D02*
X127595826Y-153014500D01*
X127595826Y-153014500D02*
X127738684Y-152943071D01*
X128452969Y-153585928D02*
X128452969Y-152585928D01*
X128452969Y-152085928D02*
X128381541Y-152157357D01*
X128381541Y-152157357D02*
X128452969Y-152228785D01*
X128452969Y-152228785D02*
X128524398Y-152157357D01*
X128524398Y-152157357D02*
X128452969Y-152085928D01*
X128452969Y-152085928D02*
X128452969Y-152228785D01*
X129381541Y-153585928D02*
X129238684Y-153514500D01*
X129238684Y-153514500D02*
X129167255Y-153371642D01*
X129167255Y-153371642D02*
X129167255Y-152085928D01*
X129952969Y-153585928D02*
X129952969Y-152585928D01*
X129952969Y-152085928D02*
X129881541Y-152157357D01*
X129881541Y-152157357D02*
X129952969Y-152228785D01*
X129952969Y-152228785D02*
X130024398Y-152157357D01*
X130024398Y-152157357D02*
X129952969Y-152085928D01*
X129952969Y-152085928D02*
X129952969Y-152228785D01*
X130667255Y-153585928D02*
X130667255Y-152585928D01*
X130667255Y-152728785D02*
X130738684Y-152657357D01*
X130738684Y-152657357D02*
X130881541Y-152585928D01*
X130881541Y-152585928D02*
X131095827Y-152585928D01*
X131095827Y-152585928D02*
X131238684Y-152657357D01*
X131238684Y-152657357D02*
X131310113Y-152800214D01*
X131310113Y-152800214D02*
X131310113Y-153585928D01*
X131310113Y-152800214D02*
X131381541Y-152657357D01*
X131381541Y-152657357D02*
X131524398Y-152585928D01*
X131524398Y-152585928D02*
X131738684Y-152585928D01*
X131738684Y-152585928D02*
X131881541Y-152657357D01*
X131881541Y-152657357D02*
X131952970Y-152800214D01*
X131952970Y-152800214D02*
X131952970Y-153585928D01*
X133310113Y-153514500D02*
X133167255Y-153585928D01*
X133167255Y-153585928D02*
X132881541Y-153585928D01*
X132881541Y-153585928D02*
X132738684Y-153514500D01*
X132738684Y-153514500D02*
X132667255Y-153443071D01*
X132667255Y-153443071D02*
X132595827Y-153300214D01*
X132595827Y-153300214D02*
X132595827Y-152871642D01*
X132595827Y-152871642D02*
X132667255Y-152728785D01*
X132667255Y-152728785D02*
X132738684Y-152657357D01*
X132738684Y-152657357D02*
X132881541Y-152585928D01*
X132881541Y-152585928D02*
X133167255Y-152585928D01*
X133167255Y-152585928D02*
X133310113Y-152657357D01*
X133952969Y-152585928D02*
X133952969Y-153585928D01*
X133952969Y-152728785D02*
X134024398Y-152657357D01*
X134024398Y-152657357D02*
X134167255Y-152585928D01*
X134167255Y-152585928D02*
X134381541Y-152585928D01*
X134381541Y-152585928D02*
X134524398Y-152657357D01*
X134524398Y-152657357D02*
X134595827Y-152800214D01*
X134595827Y-152800214D02*
X134595827Y-153585928D01*
X135881541Y-153514500D02*
X135738684Y-153585928D01*
X135738684Y-153585928D02*
X135452970Y-153585928D01*
X135452970Y-153585928D02*
X135310112Y-153514500D01*
X135310112Y-153514500D02*
X135238684Y-153371642D01*
X135238684Y-153371642D02*
X135238684Y-152800214D01*
X135238684Y-152800214D02*
X135310112Y-152657357D01*
X135310112Y-152657357D02*
X135452970Y-152585928D01*
X135452970Y-152585928D02*
X135738684Y-152585928D01*
X135738684Y-152585928D02*
X135881541Y-152657357D01*
X135881541Y-152657357D02*
X135952970Y-152800214D01*
X135952970Y-152800214D02*
X135952970Y-152943071D01*
X135952970Y-152943071D02*
X135238684Y-153085928D01*
X136810112Y-153585928D02*
X136667255Y-153514500D01*
X136667255Y-153514500D02*
X136595826Y-153371642D01*
X136595826Y-153371642D02*
X136595826Y-152085928D01*
X137595826Y-153585928D02*
X137452969Y-153514500D01*
X137452969Y-153514500D02*
X137381540Y-153371642D01*
X137381540Y-153371642D02*
X137381540Y-152085928D01*
X138024397Y-152585928D02*
X138381540Y-153585928D01*
X138738683Y-152585928D02*
X138381540Y-153585928D01*
X138381540Y-153585928D02*
X138238683Y-153943071D01*
X138238683Y-153943071D02*
X138167254Y-154014500D01*
X138167254Y-154014500D02*
X138024397Y-154085928D01*
X140238683Y-152871642D02*
X140167254Y-152800214D01*
X140167254Y-152800214D02*
X140024397Y-152728785D01*
X140024397Y-152728785D02*
X139881540Y-152728785D01*
X139881540Y-152728785D02*
X139738683Y-152800214D01*
X139738683Y-152800214D02*
X139667254Y-152871642D01*
X139667254Y-152871642D02*
X139595826Y-153014500D01*
X139595826Y-153014500D02*
X139595826Y-153157357D01*
X139595826Y-153157357D02*
X139667254Y-153300214D01*
X139667254Y-153300214D02*
X139738683Y-153371642D01*
X139738683Y-153371642D02*
X139881540Y-153443071D01*
X139881540Y-153443071D02*
X140024397Y-153443071D01*
X140024397Y-153443071D02*
X140167254Y-153371642D01*
X140167254Y-153371642D02*
X140238683Y-153300214D01*
X140238683Y-152728785D02*
X140238683Y-153300214D01*
X140238683Y-153300214D02*
X140310111Y-153371642D01*
X140310111Y-153371642D02*
X140381540Y-153371642D01*
X140381540Y-153371642D02*
X140524397Y-153300214D01*
X140524397Y-153300214D02*
X140595826Y-153157357D01*
X140595826Y-153157357D02*
X140595826Y-152800214D01*
X140595826Y-152800214D02*
X140452969Y-152585928D01*
X140452969Y-152585928D02*
X140238683Y-152443071D01*
X140238683Y-152443071D02*
X139952969Y-152371642D01*
X139952969Y-152371642D02*
X139667254Y-152443071D01*
X139667254Y-152443071D02*
X139452969Y-152585928D01*
X139452969Y-152585928D02*
X139310111Y-152800214D01*
X139310111Y-152800214D02*
X139238683Y-153085928D01*
X139238683Y-153085928D02*
X139310111Y-153371642D01*
X139310111Y-153371642D02*
X139452969Y-153585928D01*
X139452969Y-153585928D02*
X139667254Y-153728785D01*
X139667254Y-153728785D02*
X139952969Y-153800214D01*
X139952969Y-153800214D02*
X140238683Y-153728785D01*
X140238683Y-153728785D02*
X140452969Y-153585928D01*
X141881540Y-152585928D02*
X141881540Y-153800214D01*
X141881540Y-153800214D02*
X141810111Y-153943071D01*
X141810111Y-153943071D02*
X141738682Y-154014500D01*
X141738682Y-154014500D02*
X141595825Y-154085928D01*
X141595825Y-154085928D02*
X141381540Y-154085928D01*
X141381540Y-154085928D02*
X141238682Y-154014500D01*
X141881540Y-153514500D02*
X141738682Y-153585928D01*
X141738682Y-153585928D02*
X141452968Y-153585928D01*
X141452968Y-153585928D02*
X141310111Y-153514500D01*
X141310111Y-153514500D02*
X141238682Y-153443071D01*
X141238682Y-153443071D02*
X141167254Y-153300214D01*
X141167254Y-153300214D02*
X141167254Y-152871642D01*
X141167254Y-152871642D02*
X141238682Y-152728785D01*
X141238682Y-152728785D02*
X141310111Y-152657357D01*
X141310111Y-152657357D02*
X141452968Y-152585928D01*
X141452968Y-152585928D02*
X141738682Y-152585928D01*
X141738682Y-152585928D02*
X141881540Y-152657357D01*
X142595825Y-153585928D02*
X142595825Y-152585928D01*
X142595825Y-152728785D02*
X142667254Y-152657357D01*
X142667254Y-152657357D02*
X142810111Y-152585928D01*
X142810111Y-152585928D02*
X143024397Y-152585928D01*
X143024397Y-152585928D02*
X143167254Y-152657357D01*
X143167254Y-152657357D02*
X143238683Y-152800214D01*
X143238683Y-152800214D02*
X143238683Y-153585928D01*
X143238683Y-152800214D02*
X143310111Y-152657357D01*
X143310111Y-152657357D02*
X143452968Y-152585928D01*
X143452968Y-152585928D02*
X143667254Y-152585928D01*
X143667254Y-152585928D02*
X143810111Y-152657357D01*
X143810111Y-152657357D02*
X143881540Y-152800214D01*
X143881540Y-152800214D02*
X143881540Y-153585928D01*
X145238683Y-153585928D02*
X145238683Y-152800214D01*
X145238683Y-152800214D02*
X145167254Y-152657357D01*
X145167254Y-152657357D02*
X145024397Y-152585928D01*
X145024397Y-152585928D02*
X144738683Y-152585928D01*
X144738683Y-152585928D02*
X144595825Y-152657357D01*
X145238683Y-153514500D02*
X145095825Y-153585928D01*
X145095825Y-153585928D02*
X144738683Y-153585928D01*
X144738683Y-153585928D02*
X144595825Y-153514500D01*
X144595825Y-153514500D02*
X144524397Y-153371642D01*
X144524397Y-153371642D02*
X144524397Y-153228785D01*
X144524397Y-153228785D02*
X144595825Y-153085928D01*
X144595825Y-153085928D02*
X144738683Y-153014500D01*
X144738683Y-153014500D02*
X145095825Y-153014500D01*
X145095825Y-153014500D02*
X145238683Y-152943071D01*
X145952968Y-153585928D02*
X145952968Y-152585928D01*
X145952968Y-152085928D02*
X145881540Y-152157357D01*
X145881540Y-152157357D02*
X145952968Y-152228785D01*
X145952968Y-152228785D02*
X146024397Y-152157357D01*
X146024397Y-152157357D02*
X145952968Y-152085928D01*
X145952968Y-152085928D02*
X145952968Y-152228785D01*
X146881540Y-153585928D02*
X146738683Y-153514500D01*
X146738683Y-153514500D02*
X146667254Y-153371642D01*
X146667254Y-153371642D02*
X146667254Y-152085928D01*
X147452968Y-153443071D02*
X147524397Y-153514500D01*
X147524397Y-153514500D02*
X147452968Y-153585928D01*
X147452968Y-153585928D02*
X147381540Y-153514500D01*
X147381540Y-153514500D02*
X147452968Y-153443071D01*
X147452968Y-153443071D02*
X147452968Y-153585928D01*
X148810112Y-153514500D02*
X148667254Y-153585928D01*
X148667254Y-153585928D02*
X148381540Y-153585928D01*
X148381540Y-153585928D02*
X148238683Y-153514500D01*
X148238683Y-153514500D02*
X148167254Y-153443071D01*
X148167254Y-153443071D02*
X148095826Y-153300214D01*
X148095826Y-153300214D02*
X148095826Y-152871642D01*
X148095826Y-152871642D02*
X148167254Y-152728785D01*
X148167254Y-152728785D02*
X148238683Y-152657357D01*
X148238683Y-152657357D02*
X148381540Y-152585928D01*
X148381540Y-152585928D02*
X148667254Y-152585928D01*
X148667254Y-152585928D02*
X148810112Y-152657357D01*
X149667254Y-153585928D02*
X149524397Y-153514500D01*
X149524397Y-153514500D02*
X149452968Y-153443071D01*
X149452968Y-153443071D02*
X149381540Y-153300214D01*
X149381540Y-153300214D02*
X149381540Y-152871642D01*
X149381540Y-152871642D02*
X149452968Y-152728785D01*
X149452968Y-152728785D02*
X149524397Y-152657357D01*
X149524397Y-152657357D02*
X149667254Y-152585928D01*
X149667254Y-152585928D02*
X149881540Y-152585928D01*
X149881540Y-152585928D02*
X150024397Y-152657357D01*
X150024397Y-152657357D02*
X150095826Y-152728785D01*
X150095826Y-152728785D02*
X150167254Y-152871642D01*
X150167254Y-152871642D02*
X150167254Y-153300214D01*
X150167254Y-153300214D02*
X150095826Y-153443071D01*
X150095826Y-153443071D02*
X150024397Y-153514500D01*
X150024397Y-153514500D02*
X149881540Y-153585928D01*
X149881540Y-153585928D02*
X149667254Y-153585928D01*
X150810111Y-153585928D02*
X150810111Y-152585928D01*
X150810111Y-152728785D02*
X150881540Y-152657357D01*
X150881540Y-152657357D02*
X151024397Y-152585928D01*
X151024397Y-152585928D02*
X151238683Y-152585928D01*
X151238683Y-152585928D02*
X151381540Y-152657357D01*
X151381540Y-152657357D02*
X151452969Y-152800214D01*
X151452969Y-152800214D02*
X151452969Y-153585928D01*
X151452969Y-152800214D02*
X151524397Y-152657357D01*
X151524397Y-152657357D02*
X151667254Y-152585928D01*
X151667254Y-152585928D02*
X151881540Y-152585928D01*
X151881540Y-152585928D02*
X152024397Y-152657357D01*
X152024397Y-152657357D02*
X152095826Y-152800214D01*
X152095826Y-152800214D02*
X152095826Y-153585928D01*
D10*
D11*
D10*
D11*
D10*
D11*
D10*
D11*
X109400000Y-167400000D02*
X109400000Y-170400000D01*
D10*
D11*
X173400000Y-167400000D02*
X173400000Y-173900000D01*
D10*
D11*
X104411000Y-141997800D02*
X104411000Y-157397800D01*
D12*
D14*
X-8445490Y-39385828D02*
X-8445490Y-37885828D01*
X-7802632Y-39385828D02*
X-7802632Y-38600114D01*
X-7802632Y-38600114D02*
X-7874061Y-38457257D01*
X-7874061Y-38457257D02*
X-8016918Y-38385828D01*
X-8016918Y-38385828D02*
X-8231204Y-38385828D01*
X-8231204Y-38385828D02*
X-8374061Y-38457257D01*
X-8374061Y-38457257D02*
X-8445490Y-38528685D01*
X-7088347Y-39385828D02*
X-7088347Y-37885828D01*
X-7088347Y-38457257D02*
X-6945489Y-38385828D01*
X-6945489Y-38385828D02*
X-6659775Y-38385828D01*
X-6659775Y-38385828D02*
X-6516918Y-38457257D01*
X-6516918Y-38457257D02*
X-6445489Y-38528685D01*
X-6445489Y-38528685D02*
X-6374061Y-38671542D01*
X-6374061Y-38671542D02*
X-6374061Y-39100114D01*
X-6374061Y-39100114D02*
X-6445489Y-39242971D01*
X-6445489Y-39242971D02*
X-6516918Y-39314400D01*
X-6516918Y-39314400D02*
X-6659775Y-39385828D01*
X-6659775Y-39385828D02*
X-6945489Y-39385828D01*
X-6945489Y-39385828D02*
X-7088347Y-39314400D01*
X-4945489Y-39385828D02*
X-5802632Y-39385828D01*
X-5374061Y-39385828D02*
X-5374061Y-37885828D01*
X-5374061Y-37885828D02*
X-5516918Y-38100114D01*
X-5516918Y-38100114D02*
X-5659775Y-38242971D01*
X-5659775Y-38242971D02*
X-5802632Y-38314400D01*
X-4016918Y-37885828D02*
X-3874061Y-37885828D01*
X-3874061Y-37885828D02*
X-3731204Y-37957257D01*
X-3731204Y-37957257D02*
X-3659775Y-38028685D01*
X-3659775Y-38028685D02*
X-3588347Y-38171542D01*
X-3588347Y-38171542D02*
X-3516918Y-38457257D01*
X-3516918Y-38457257D02*
X-3516918Y-38814400D01*
X-3516918Y-38814400D02*
X-3588347Y-39100114D01*
X-3588347Y-39100114D02*
X-3659775Y-39242971D01*
X-3659775Y-39242971D02*
X-3731204Y-39314400D01*
X-3731204Y-39314400D02*
X-3874061Y-39385828D01*
X-3874061Y-39385828D02*
X-4016918Y-39385828D01*
X-4016918Y-39385828D02*
X-4159775Y-39314400D01*
X-4159775Y-39314400D02*
X-4231204Y-39242971D01*
X-4231204Y-39242971D02*
X-4302633Y-39100114D01*
X-4302633Y-39100114D02*
X-4374061Y-38814400D01*
X-4374061Y-38814400D02*
X-4374061Y-38457257D01*
X-4374061Y-38457257D02*
X-4302633Y-38171542D01*
X-4302633Y-38171542D02*
X-4231204Y-38028685D01*
X-4231204Y-38028685D02*
X-4159775Y-37957257D01*
X-4159775Y-37957257D02*
X-4016918Y-37885828D01*
X-2588347Y-37885828D02*
X-2445490Y-37885828D01*
X-2445490Y-37885828D02*
X-2302633Y-37957257D01*
X-2302633Y-37957257D02*
X-2231204Y-38028685D01*
X-2231204Y-38028685D02*
X-2159776Y-38171542D01*
X-2159776Y-38171542D02*
X-2088347Y-38457257D01*
X-2088347Y-38457257D02*
X-2088347Y-38814400D01*
X-2088347Y-38814400D02*
X-2159776Y-39100114D01*
X-2159776Y-39100114D02*
X-2231204Y-39242971D01*
X-2231204Y-39242971D02*
X-2302633Y-39314400D01*
X-2302633Y-39314400D02*
X-2445490Y-39385828D01*
X-2445490Y-39385828D02*
X-2588347Y-39385828D01*
X-2588347Y-39385828D02*
X-2731204Y-39314400D01*
X-2731204Y-39314400D02*
X-2802633Y-39242971D01*
X-2802633Y-39242971D02*
X-2874062Y-39100114D01*
X-2874062Y-39100114D02*
X-2945490Y-38814400D01*
X-2945490Y-38814400D02*
X-2945490Y-38457257D01*
X-2945490Y-38457257D02*
X-2874062Y-38171542D01*
X-2874062Y-38171542D02*
X-2802633Y-38028685D01*
X-2802633Y-38028685D02*
X-2731204Y-37957257D01*
X-2731204Y-37957257D02*
X-2588347Y-37885828D01*
X-1802633Y-39528685D02*
X-659776Y-39528685D01*
X340224Y-39385828D02*
X340224Y-38600114D01*
X340224Y-38600114D02*
X268795Y-38457257D01*
X268795Y-38457257D02*
X125938Y-38385828D01*
X125938Y-38385828D02*
X-159776Y-38385828D01*
X-159776Y-38385828D02*
X-302634Y-38457257D01*
X340224Y-39314400D02*
X197366Y-39385828D01*
X197366Y-39385828D02*
X-159776Y-39385828D01*
X-159776Y-39385828D02*
X-302634Y-39314400D01*
X-302634Y-39314400D02*
X-374062Y-39171542D01*
X-374062Y-39171542D02*
X-374062Y-39028685D01*
X-374062Y-39028685D02*
X-302634Y-38885828D01*
X-302634Y-38885828D02*
X-159776Y-38814400D01*
X-159776Y-38814400D02*
X197366Y-38814400D01*
X197366Y-38814400D02*
X340224Y-38742971D01*
X1054509Y-39385828D02*
X1054509Y-38385828D01*
X1054509Y-38528685D02*
X1125938Y-38457257D01*
X1125938Y-38457257D02*
X1268795Y-38385828D01*
X1268795Y-38385828D02*
X1483081Y-38385828D01*
X1483081Y-38385828D02*
X1625938Y-38457257D01*
X1625938Y-38457257D02*
X1697367Y-38600114D01*
X1697367Y-38600114D02*
X1697367Y-39385828D01*
X1697367Y-38600114D02*
X1768795Y-38457257D01*
X1768795Y-38457257D02*
X1911652Y-38385828D01*
X1911652Y-38385828D02*
X2125938Y-38385828D01*
X2125938Y-38385828D02*
X2268795Y-38457257D01*
X2268795Y-38457257D02*
X2340224Y-38600114D01*
X2340224Y-38600114D02*
X2340224Y-39385828D01*
X3054509Y-38385828D02*
X3054509Y-39885828D01*
X3054509Y-38457257D02*
X3197367Y-38385828D01*
X3197367Y-38385828D02*
X3483081Y-38385828D01*
X3483081Y-38385828D02*
X3625938Y-38457257D01*
X3625938Y-38457257D02*
X3697367Y-38528685D01*
X3697367Y-38528685D02*
X3768795Y-38671542D01*
X3768795Y-38671542D02*
X3768795Y-39100114D01*
X3768795Y-39100114D02*
X3697367Y-39242971D01*
X3697367Y-39242971D02*
X3625938Y-39314400D01*
X3625938Y-39314400D02*
X3483081Y-39385828D01*
X3483081Y-39385828D02*
X3197367Y-39385828D01*
X3197367Y-39385828D02*
X3054509Y-39314400D01*
X4625938Y-39385828D02*
X4483081Y-39314400D01*
X4483081Y-39314400D02*
X4411652Y-39171542D01*
X4411652Y-39171542D02*
X4411652Y-37885828D01*
X5197366Y-39385828D02*
X5197366Y-38385828D01*
X5197366Y-37885828D02*
X5125938Y-37957257D01*
X5125938Y-37957257D02*
X5197366Y-38028685D01*
X5197366Y-38028685D02*
X5268795Y-37957257D01*
X5268795Y-37957257D02*
X5197366Y-37885828D01*
X5197366Y-37885828D02*
X5197366Y-38028685D01*
X5697367Y-38385828D02*
X6268795Y-38385828D01*
X5911652Y-39385828D02*
X5911652Y-38100114D01*
X5911652Y-38100114D02*
X5983081Y-37957257D01*
X5983081Y-37957257D02*
X6125938Y-37885828D01*
X6125938Y-37885828D02*
X6268795Y-37885828D01*
X6768795Y-39385828D02*
X6768795Y-38385828D01*
X6768795Y-37885828D02*
X6697367Y-37957257D01*
X6697367Y-37957257D02*
X6768795Y-38028685D01*
X6768795Y-38028685D02*
X6840224Y-37957257D01*
X6840224Y-37957257D02*
X6768795Y-37885828D01*
X6768795Y-37885828D02*
X6768795Y-38028685D01*
X8054510Y-39314400D02*
X7911653Y-39385828D01*
X7911653Y-39385828D02*
X7625939Y-39385828D01*
X7625939Y-39385828D02*
X7483081Y-39314400D01*
X7483081Y-39314400D02*
X7411653Y-39171542D01*
X7411653Y-39171542D02*
X7411653Y-38600114D01*
X7411653Y-38600114D02*
X7483081Y-38457257D01*
X7483081Y-38457257D02*
X7625939Y-38385828D01*
X7625939Y-38385828D02*
X7911653Y-38385828D01*
X7911653Y-38385828D02*
X8054510Y-38457257D01*
X8054510Y-38457257D02*
X8125939Y-38600114D01*
X8125939Y-38600114D02*
X8125939Y-38742971D01*
X8125939Y-38742971D02*
X7411653Y-38885828D01*
X8768795Y-39385828D02*
X8768795Y-38385828D01*
X8768795Y-38671542D02*
X8840224Y-38528685D01*
X8840224Y-38528685D02*
X8911653Y-38457257D01*
X8911653Y-38457257D02*
X9054510Y-38385828D01*
X9054510Y-38385828D02*
X9197367Y-38385828D01*
X-7588347Y-41800828D02*
X-8088347Y-41086542D01*
X-8445490Y-41800828D02*
X-8445490Y-40300828D01*
X-8445490Y-40300828D02*
X-7874061Y-40300828D01*
X-7874061Y-40300828D02*
X-7731204Y-40372257D01*
X-7731204Y-40372257D02*
X-7659775Y-40443685D01*
X-7659775Y-40443685D02*
X-7588347Y-40586542D01*
X-7588347Y-40586542D02*
X-7588347Y-40800828D01*
X-7588347Y-40800828D02*
X-7659775Y-40943685D01*
X-7659775Y-40943685D02*
X-7731204Y-41015114D01*
X-7731204Y-41015114D02*
X-7874061Y-41086542D01*
X-7874061Y-41086542D02*
X-8445490Y-41086542D01*
X-6945490Y-41015114D02*
X-6445490Y-41015114D01*
X-6231204Y-41800828D02*
X-6945490Y-41800828D01*
X-6945490Y-41800828D02*
X-6945490Y-40300828D01*
X-6945490Y-40300828D02*
X-6231204Y-40300828D01*
X-5802632Y-40300828D02*
X-5302632Y-41800828D01*
X-5302632Y-41800828D02*
X-4802632Y-40300828D01*
X-3231204Y-41372257D02*
X-2516918Y-41372257D01*
X-3374061Y-41800828D02*
X-2874061Y-40300828D01*
X-2874061Y-40300828D02*
X-2374061Y-41800828D01*
D15*
%TO.P,R8,1*%
%TO.N,/OP2_OUT*%
X26087500Y-21000000D03*
%TO.P,R8,2*%
%TO.N,/PWM_OUT*%
X27912500Y-21000000D03*
%TD*%
D16*
%TO.P,D1,1,K*%
%TO.N,+5V*%
X29000000Y-6350000D03*
%TO.P,D1,2,A*%
%TO.N,VDD*%
X29000000Y-9650000D03*
%TD*%
D17*
%TO.P,R2,1*%
%TO.N,Net-(U1A--)*%
X8000000Y-20825000D03*
%TO.P,R2,2*%
%TO.N,Net-(C11-Pad2)*%
X8000000Y-19175000D03*
%TD*%
D18*
%TO.P,C4,1*%
%TO.N,+3V3*%
X19050000Y-8999999D03*
%TO.P,C4,2*%
%TO.N,GND*%
X20950000Y-8999999D03*
%TD*%
D19*
%TO.P,R3,1*%
%TO.N,+3V3*%
X25825000Y-26500000D03*
%TO.P,R3,2*%
%TO.N,/BIAS_1V65*%
X24175000Y-26500000D03*
%TD*%
D20*
%TO.P,J5,1,Pin_1*%
%TO.N,GND*%
X32000000Y-13000000D03*
D21*
%TO.P,J5,2,Pin_2*%
%TO.N,VDD*%
X32000000Y-15540000D03*
%TO.P,J5,3,Pin_3*%
%TO.N,/PWM_OUT*%
X32000000Y-18080000D03*
%TD*%
D22*
%TO.P,C7,1*%
%TO.N,/BIAS_1V65*%
X22350001Y-26550000D03*
%TO.P,C7,2*%
%TO.N,GND*%
X22350001Y-28450000D03*
%TD*%
D18*
%TO.P,C3,1*%
%TO.N,+3V3*%
X19050000Y-11000000D03*
%TO.P,C3,2*%
%TO.N,GND*%
X20950000Y-11000000D03*
%TD*%
D17*
%TO.P,R7,1*%
%TO.N,/OP2_IN*%
X22000000Y-22825000D03*
%TO.P,R7,2*%
%TO.N,/OP2_OUT*%
X22000000Y-21175000D03*
%TD*%
D23*
%TO.P,C8,1*%
%TO.N,/OP1_OUT*%
X12050000Y-17000001D03*
%TO.P,C8,2*%
%TO.N,Net-(C8-Pad2)*%
X12050000Y-15100001D03*
%TD*%
D17*
%TO.P,R9,1*%
%TO.N,/HB100_OUT*%
X25000000Y-32325000D03*
%TO.P,R9,2*%
%TO.N,GND*%
X25000000Y-30675000D03*
%TD*%
D24*
%TO.P,R6,1*%
%TO.N,Net-(C8-Pad2)*%
X14000000Y-15175000D03*
%TO.P,R6,2*%
%TO.N,/OP2_IN*%
X14000000Y-16825000D03*
%TD*%
D25*
%TO.P,R10,1*%
%TO.N,Net-(D2-K)*%
X22675000Y-13000000D03*
%TO.P,R10,2*%
%TO.N,GND*%
X24325000Y-13000000D03*
%TD*%
D26*
%TO.P,C1,1*%
%TO.N,+3V3*%
X19775000Y-18000000D03*
%TO.P,C1,2*%
%TO.N,GND*%
X18225000Y-18000000D03*
%TD*%
D23*
%TO.P,C6,1*%
%TO.N,/HB100_OUT*%
X17000000Y-30450000D03*
%TO.P,C6,2*%
%TO.N,/OP1_IN*%
X17000000Y-28550000D03*
%TD*%
%TO.P,C11,1*%
%TO.N,GND*%
X6000000Y-20950000D03*
%TO.P,C11,2*%
%TO.N,Net-(C11-Pad2)*%
X6000000Y-19050000D03*
%TD*%
D27*
%TO.P,D2,1,K*%
%TO.N,Net-(D2-K)*%
X20787500Y-13000000D03*
%TO.P,D2,2,A*%
%TO.N,+3V3*%
X19212500Y-13000000D03*
%TD*%
D28*
%TO.P,U1,1*%
%TO.N,/OP1_OUT*%
X14525000Y-20095000D03*
%TO.P,U1,2,-*%
%TO.N,Net-(U1A--)*%
X14525000Y-21365000D03*
%TO.P,U1,3,+*%
%TO.N,/OP1_IN*%
X14525000Y-22635000D03*
%TO.P,U1,4,V-*%
%TO.N,GND*%
X14525000Y-23905000D03*
%TO.P,U1,5,+*%
%TO.N,/BIAS_1V65*%
X19475000Y-23905000D03*
%TO.P,U1,6,-*%
%TO.N,/OP2_IN*%
X19475000Y-22635000D03*
%TO.P,U1,7*%
%TO.N,/OP2_OUT*%
X19475000Y-21365000D03*
%TO.P,U1,8,V+*%
%TO.N,+3V3*%
X19475000Y-20095000D03*
%TD*%
D24*
%TO.P,R4,1*%
%TO.N,/BIAS_1V65*%
X20349999Y-26675000D03*
%TO.P,R4,2*%
%TO.N,GND*%
X20349999Y-28325000D03*
%TD*%
D29*
%TO.P,C5,1*%
%TO.N,Net-(U1A--)*%
X12000001Y-20775000D03*
%TO.P,C5,2*%
%TO.N,/OP1_OUT*%
X12000001Y-19225000D03*
%TD*%
D19*
%TO.P,R5,1*%
%TO.N,/BIAS_1V65*%
X18825000Y-26500000D03*
%TO.P,R5,2*%
%TO.N,/OP1_IN*%
X17175000Y-26500000D03*
%TD*%
D30*
%TO.P,U2,1,GND*%
%TO.N,GND*%
X21650000Y-6300000D03*
%TO.P,U2,2,VO*%
%TO.N,+3V3*%
X21650000Y-4000000D03*
D31*
X15350000Y-4000000D03*
D30*
%TO.P,U2,3,VI*%
%TO.N,+5V*%
X21650000Y-1700000D03*
%TD*%
D17*
%TO.P,R1,1*%
%TO.N,Net-(U1A--)*%
X10000000Y-20825000D03*
%TO.P,R1,2*%
%TO.N,/OP1_OUT*%
X10000000Y-19175000D03*
%TD*%
D22*
%TO.P,C2,1*%
%TO.N,+5V*%
X25000000Y-4050000D03*
%TO.P,C2,2*%
%TO.N,GND*%
X25000000Y-5950000D03*
%TD*%
D29*
%TO.P,C9,1*%
%TO.N,/OP2_IN*%
X24000001Y-22775000D03*
%TO.P,C9,2*%
%TO.N,/OP2_OUT*%
X24000001Y-21225000D03*
%TD*%
D20*
%TO.P,J4,1,Pin_1*%
%TO.N,+5V*%
X35620000Y0D03*
D21*
%TO.P,J4,2,Pin_2*%
X38160000Y0D03*
%TD*%
D20*
%TO.P,J1,1,Pin_1*%
%TO.N,GND*%
X0Y0D03*
D21*
%TO.P,J1,2,Pin_2*%
X2540000Y0D03*
%TD*%
D20*
%TO.P,J2,1,Pin_1*%
%TO.N,GND*%
X-2540000Y-34200000D03*
D21*
%TO.P,J2,2,Pin_2*%
X0Y-34200000D03*
%TD*%
D20*
%TO.P,J3,1,Pin_1*%
%TO.N,/HB100_OUT*%
X35620000Y-34200000D03*
D21*
%TO.P,J3,2,Pin_2*%
X38160000Y-34200000D03*
%TD*%
D32*
%TO.N,GND*%
X25000000Y-29000000D03*
X6000000Y-22300000D03*
X13900000Y-25200000D03*
X25000000Y-7500000D03*
X16900000Y-18000000D03*
X25000000Y-11000000D03*
%TD*%
D33*
%TO.N,+3V3*%
X27000000Y-20000000D02*
X27000000Y-22000000D01*
D34*
X25000000Y-15500000D02*
X19000000Y-15500000D01*
X27000000Y-22000000D02*
X27000000Y-26050000D01*
X19775000Y-18000000D02*
X19775000Y-15000000D01*
X19775000Y-18000000D02*
X19775000Y-19945000D01*
X27000000Y-17500000D02*
X25000000Y-15500000D01*
X19775000Y-19945000D02*
X19625000Y-20095000D01*
X27000000Y-20000000D02*
X27000000Y-17500000D01*
X27000000Y-26050000D02*
X26550000Y-26500000D01*
X25825000Y-26500000D02*
X26550000Y-26500000D01*
%TO.N,GND*%
X14375000Y-23905000D02*
X14375000Y-24725000D01*
X14375000Y-24725000D02*
X13900000Y-25200000D01*
X6000000Y-20950000D02*
X6000000Y-22300000D01*
X18225000Y-18000000D02*
X16900000Y-18000000D01*
D33*
%TO.N,Net-(U1A--)*%
X12590001Y-21365000D02*
X12000001Y-20775000D01*
X10000000Y-20825000D02*
X11950001Y-20825000D01*
X14375000Y-21365000D02*
X12590001Y-21365000D01*
X11950001Y-20825000D02*
X12000001Y-20775000D01*
X10000000Y-20825000D02*
X8000000Y-20825000D01*
%TO.N,/OP1_OUT*%
X12325000Y-19225000D02*
X13195000Y-20095000D01*
X12000001Y-17050000D02*
X12050000Y-17000001D01*
X12000001Y-19225000D02*
X12325000Y-19225000D01*
X12000001Y-19225000D02*
X10050000Y-19225000D01*
X13195000Y-20095000D02*
X14375000Y-20095000D01*
X10050000Y-19225000D02*
X10000000Y-19175000D01*
X12000001Y-19225000D02*
X12000001Y-17050000D01*
D34*
%TO.N,/HB100_OUT*%
X26875000Y-34200000D02*
X25000000Y-32325000D01*
D33*
X25000000Y-32325000D02*
X17325000Y-32325000D01*
D34*
X35620000Y-34200000D02*
X26875000Y-34200000D01*
D33*
X17325000Y-32325000D02*
X17000000Y-32000000D01*
D34*
X35620000Y-34200000D02*
X38160000Y-34200000D01*
D33*
X17000000Y-32000000D02*
X17000000Y-30450000D01*
%TO.N,/OP1_IN*%
X14375000Y-22635000D02*
X15635000Y-22635000D01*
X17175000Y-28375000D02*
X17000000Y-28550000D01*
X17175000Y-24175000D02*
X17175000Y-26500000D01*
X17175000Y-26500000D02*
X17175000Y-28375000D01*
X15635000Y-22635000D02*
X17175000Y-24175000D01*
D34*
%TO.N,/BIAS_1V65*%
X20349999Y-26675000D02*
X22225001Y-26675000D01*
X22225001Y-26675000D02*
X22350001Y-26550000D01*
X22400001Y-26500000D02*
X22350001Y-26550000D01*
X18825000Y-24705000D02*
X19625000Y-23905000D01*
X20349999Y-26675000D02*
X19000000Y-26675000D01*
X18825000Y-26500000D02*
X18825000Y-24705000D01*
X24175000Y-26500000D02*
X22400001Y-26500000D01*
X19000000Y-26675000D02*
X18825000Y-26500000D01*
D33*
%TO.N,Net-(C8-Pad2)*%
X13925001Y-15100001D02*
X14000000Y-15175000D01*
X12050000Y-15100001D02*
X13925001Y-15100001D01*
%TO.N,/OP2_IN*%
X17835000Y-22635000D02*
X15900000Y-20700000D01*
X19625000Y-22635000D02*
X17835000Y-22635000D01*
X19625000Y-22635000D02*
X21810000Y-22635000D01*
X23950001Y-22825000D02*
X24000001Y-22775000D01*
X15900000Y-20700000D02*
X15900000Y-18725000D01*
X22000000Y-22825000D02*
X23950001Y-22825000D01*
X21810000Y-22635000D02*
X22000000Y-22825000D01*
X15900000Y-18725000D02*
X14000000Y-16825000D01*
%TO.N,/OP2_OUT*%
X24000001Y-21225000D02*
X25862500Y-21225000D01*
X23950001Y-21175000D02*
X24000001Y-21225000D01*
X22000000Y-21175000D02*
X23950001Y-21175000D01*
X19625000Y-21365000D02*
X21810000Y-21365000D01*
X25862500Y-21225000D02*
X26087500Y-21000000D01*
X21810000Y-21365000D02*
X22000000Y-21175000D01*
%TO.N,Net-(C11-Pad2)*%
X6125000Y-19175000D02*
X6000000Y-19050000D01*
X8000000Y-19175000D02*
X6125000Y-19175000D01*
D34*
%TO.N,/PWM_OUT*%
X30832500Y-18080000D02*
X27912500Y-21000000D01*
X32000000Y-18080000D02*
X30832500Y-18080000D01*
D33*
%TO.N,Net-(D2-K)*%
X20787500Y-13000000D02*
X22490000Y-13000000D01*
%TD*%
%TA.AperFunction,Conductor*%
%TO.N,+5V*%
G36*
X39943039Y1980315D02*
G01*
X39988794Y1927511D01*
X40000000Y1876000D01*
X40000000Y-1876000D01*
X39980315Y-1943039D01*
X39927511Y-1988794D01*
X39876000Y-2000000D01*
X30500000Y-2000000D01*
X30500000Y-7376000D01*
X30480315Y-7443039D01*
X30427511Y-7488794D01*
X30376000Y-7500000D01*
X27624000Y-7500000D01*
X27556961Y-7480315D01*
X27511206Y-7427511D01*
X27500000Y-7376000D01*
X27500000Y-6600000D01*
X28150001Y-6600000D01*
X28150001Y-6620439D01*
X28156081Y-6677007D01*
X28203813Y-6804981D01*
X28203815Y-6804984D01*
X28285670Y-6914329D01*
X28395015Y-6996184D01*
X28395016Y-6996185D01*
X28522991Y-7043917D01*
X28522994Y-7043918D01*
X28579555Y-7049999D01*
X28749999Y-7049999D01*
X28750000Y-7049998D01*
X28750000Y-6600000D01*
X29250000Y-6600000D01*
X29250000Y-7049999D01*
X29420433Y-7049999D01*
X29420439Y-7049998D01*
X29477007Y-7043918D01*
X29604981Y-6996186D01*
X29604984Y-6996184D01*
X29714329Y-6914329D01*
X29796184Y-6804984D01*
X29796185Y-6804983D01*
X29843916Y-6677010D01*
X29849999Y-6620428D01*
X29850000Y-6620427D01*
X29850000Y-6600000D01*
X29250000Y-6600000D01*
X28750000Y-6600000D01*
X28150001Y-6600000D01*
X27500000Y-6600000D01*
X27500000Y-6100000D01*
X28150000Y-6100000D01*
X28750000Y-6100000D01*
X28750000Y-5650000D01*
X29250000Y-5650000D01*
X29250000Y-6100000D01*
X29849999Y-6100000D01*
X29849999Y-6079566D01*
X29849998Y-6079560D01*
X29843918Y-6022992D01*
X29796186Y-5895018D01*
X29796184Y-5895015D01*
X29714329Y-5785670D01*
X29604984Y-5703815D01*
X29604983Y-5703814D01*
X29477010Y-5656083D01*
X29420428Y-5650000D01*
X29250000Y-5650000D01*
X28750000Y-5650000D01*
X28579566Y-5650000D01*
X28579559Y-5650001D01*
X28522992Y-5656081D01*
X28395018Y-5703813D01*
X28395015Y-5703815D01*
X28285670Y-5785670D01*
X28203815Y-5895015D01*
X28203814Y-5895016D01*
X28156083Y-6022989D01*
X28150000Y-6079571D01*
X28150000Y-6100000D01*
X27500000Y-6100000D01*
X27500000Y-4500000D01*
X26096686Y-4500000D01*
X26029647Y-4480315D01*
X25983892Y-4427511D01*
X25973397Y-4362743D01*
X25974999Y-4347841D01*
X25975000Y-4347827D01*
X25975000Y-4300000D01*
X24025000Y-4300000D01*
X24025000Y-4347841D01*
X24026603Y-4362743D01*
X24014199Y-4431503D01*
X23966589Y-4482641D01*
X23903314Y-4500000D01*
X23624000Y-4500000D01*
X23556961Y-4480315D01*
X23511206Y-4427511D01*
X23500000Y-4376000D01*
X23500000Y-3800000D01*
X24025000Y-3800000D01*
X24750000Y-3800000D01*
X24750000Y-3300000D01*
X25250000Y-3300000D01*
X25250000Y-3800000D01*
X25975000Y-3800000D01*
X25975000Y-3752172D01*
X25974999Y-3752155D01*
X25968598Y-3692627D01*
X25968596Y-3692620D01*
X25918354Y-3557913D01*
X25918350Y-3557906D01*
X25832190Y-3442812D01*
X25832187Y-3442809D01*
X25717093Y-3356649D01*
X25717086Y-3356645D01*
X25582379Y-3306403D01*
X25582372Y-3306401D01*
X25522844Y-3300000D01*
X25250000Y-3300000D01*
X24750000Y-3300000D01*
X24477155Y-3300000D01*
X24417627Y-3306401D01*
X24417620Y-3306403D01*
X24282913Y-3356645D01*
X24282906Y-3356649D01*
X24167812Y-3442809D01*
X24167809Y-3442812D01*
X24081649Y-3557906D01*
X24081645Y-3557913D01*
X24031403Y-3692620D01*
X24031401Y-3692627D01*
X24025000Y-3752155D01*
X24025000Y-3800000D01*
X23500000Y-3800000D01*
X23500000Y-2000000D01*
X23001362Y-2000000D01*
X22934323Y-1980315D01*
X22913681Y-1963681D01*
X22900000Y-1950000D01*
X21524000Y-1950000D01*
X21456961Y-1930315D01*
X21411206Y-1877511D01*
X21400000Y-1826000D01*
X21400000Y-700000D01*
X21900000Y-700000D01*
X21900000Y-1450000D01*
X22900000Y-1450000D01*
X22900000Y-925373D01*
X22899999Y-925371D01*
X22889906Y-874628D01*
X34520000Y-874628D01*
X34534503Y-947540D01*
X34534505Y-947544D01*
X34589760Y-1030239D01*
X34672455Y-1085494D01*
X34672459Y-1085496D01*
X34745371Y-1099999D01*
X34745374Y-1100000D01*
X35370000Y-1100000D01*
X35370000Y-612301D01*
X35389685Y-545262D01*
X35442489Y-499507D01*
X35511647Y-489563D01*
X35584237Y-500000D01*
X35584238Y-500000D01*
X35655762Y-500000D01*
X35655763Y-500000D01*
X35728353Y-489563D01*
X35797512Y-499507D01*
X35850315Y-545262D01*
X35870000Y-612301D01*
X35870000Y-1100000D01*
X36494626Y-1100000D01*
X36494628Y-1099999D01*
X36567540Y-1085496D01*
X36567544Y-1085494D01*
X36650239Y-1030239D01*
X36705494Y-947544D01*
X36705496Y-947540D01*
X36719999Y-874628D01*
X36720000Y-874626D01*
X36720000Y-250000D01*
X36233347Y-250000D01*
X36166308Y-230315D01*
X36120553Y-177511D01*
X36110609Y-108353D01*
X36114369Y-91067D01*
X36120000Y-71888D01*
X36120000Y71889D01*
X36114369Y91067D01*
X36114370Y160936D01*
X36152145Y219714D01*
X36215701Y248738D01*
X36233347Y250000D01*
X36720000Y250000D01*
X36720000Y250001D01*
X37087471Y250001D01*
X37087472Y250000D01*
X37546653Y250000D01*
X37613692Y230315D01*
X37659447Y177511D01*
X37669391Y108353D01*
X37665631Y91067D01*
X37660000Y71889D01*
X37660000Y-71888D01*
X37665631Y-91067D01*
X37665630Y-160936D01*
X37627855Y-219714D01*
X37564299Y-248738D01*
X37546653Y-250000D01*
X37087472Y-250000D01*
X37129885Y-399065D01*
X37129890Y-399078D01*
X37220754Y-581556D01*
X37343608Y-744242D01*
X37494260Y-881578D01*
X37667584Y-988897D01*
X37857678Y-1062539D01*
X37910000Y-1072320D01*
X37910000Y-612301D01*
X37929685Y-545262D01*
X37982489Y-499507D01*
X38051647Y-489563D01*
X38124237Y-500000D01*
X38124238Y-500000D01*
X38195762Y-500000D01*
X38195763Y-500000D01*
X38268353Y-489563D01*
X38337512Y-499507D01*
X38390315Y-545262D01*
X38410000Y-612301D01*
X38409999Y-1072320D01*
X38462321Y-1062539D01*
X38652415Y-988897D01*
X38825739Y-881578D01*
X38976391Y-744242D01*
X39099245Y-581556D01*
X39190109Y-399078D01*
X39190114Y-399065D01*
X39232528Y-250000D01*
X38773347Y-250000D01*
X38706308Y-230315D01*
X38660553Y-177511D01*
X38650609Y-108353D01*
X38654369Y-91067D01*
X38660000Y-71888D01*
X38660000Y71889D01*
X38654369Y91067D01*
X38654370Y160936D01*
X38692145Y219714D01*
X38755701Y248738D01*
X38773347Y250000D01*
X39232528Y250000D01*
X39232528Y250001D01*
X39190114Y399066D01*
X39190109Y399079D01*
X39099245Y581557D01*
X38976391Y744243D01*
X38825739Y881579D01*
X38652413Y988899D01*
X38462315Y1062542D01*
X38462309Y1062544D01*
X38410001Y1072323D01*
X38409999Y1072321D01*
X38410000Y612302D01*
X38390315Y545263D01*
X38337511Y499508D01*
X38268355Y489564D01*
X38195766Y500000D01*
X38195763Y500000D01*
X38124237Y500000D01*
X38124233Y500000D01*
X38051645Y489564D01*
X37982487Y499508D01*
X37929684Y545264D01*
X37910000Y612302D01*
X37910000Y1072322D01*
X37909998Y1072323D01*
X37857690Y1062544D01*
X37857684Y1062542D01*
X37667586Y988899D01*
X37494260Y881579D01*
X37343608Y744243D01*
X37220754Y581557D01*
X37129890Y399079D01*
X37129885Y399066D01*
X37087471Y250001D01*
X36720000Y250001D01*
X36720000Y874627D01*
X36719999Y874629D01*
X36705496Y947541D01*
X36705494Y947545D01*
X36650239Y1030240D01*
X36567544Y1085495D01*
X36567540Y1085497D01*
X36494627Y1100000D01*
X35870000Y1100000D01*
X35870000Y612302D01*
X35850315Y545263D01*
X35797511Y499508D01*
X35728355Y489564D01*
X35655766Y500000D01*
X35655763Y500000D01*
X35584237Y500000D01*
X35584233Y500000D01*
X35511645Y489564D01*
X35442487Y499508D01*
X35389684Y545264D01*
X35370000Y612302D01*
X35370000Y1100000D01*
X34745373Y1100000D01*
X34672459Y1085497D01*
X34672455Y1085495D01*
X34589760Y1030240D01*
X34534505Y947545D01*
X34534503Y947541D01*
X34520000Y874629D01*
X34520000Y250000D01*
X35006653Y250000D01*
X35073692Y230315D01*
X35119447Y177511D01*
X35129391Y108353D01*
X35125631Y91067D01*
X35120000Y71889D01*
X35120000Y-71888D01*
X35125631Y-91067D01*
X35125630Y-160936D01*
X35087855Y-219714D01*
X35024299Y-248738D01*
X35006653Y-250000D01*
X34520000Y-250000D01*
X34520000Y-874628D01*
X22889906Y-874628D01*
X22885496Y-852459D01*
X22885494Y-852455D01*
X22830239Y-769760D01*
X22747544Y-714505D01*
X22747540Y-714503D01*
X22674627Y-700000D01*
X21900000Y-700000D01*
X21400000Y-700000D01*
X20624000Y-700000D01*
X20556961Y-680315D01*
X20511206Y-627511D01*
X20500000Y-576000D01*
X20500000Y1876000D01*
X20519685Y1943039D01*
X20572489Y1988794D01*
X20624000Y2000000D01*
X39876000Y2000000D01*
X39943039Y1980315D01*
G37*
%TD.AperFunction*%
%TD*%
%TA.AperFunction,Conductor*%
%TO.N,GND*%
G36*
X19854246Y-27519685D02*
G01*
X19900001Y-27572489D01*
X19909945Y-27641647D01*
X19880920Y-27705203D01*
X19860841Y-27723770D01*
X19753206Y-27803207D01*
X19672652Y-27912354D01*
X19627849Y-28040395D01*
X19627849Y-28040399D01*
X19624999Y-28070793D01*
X19624999Y-28075000D01*
X21074998Y-28075000D01*
X21074998Y-28070803D01*
X21072147Y-28040393D01*
X21027345Y-27912354D01*
X20946791Y-27803207D01*
X20839157Y-27723770D01*
X20796907Y-27668122D01*
X20791448Y-27598466D01*
X20824516Y-27536917D01*
X20885610Y-27503016D01*
X20912791Y-27500000D01*
X21633723Y-27500000D01*
X21700762Y-27519685D01*
X21746517Y-27572489D01*
X21756461Y-27641647D01*
X21727436Y-27705203D01*
X21677056Y-27740182D01*
X21632914Y-27756645D01*
X21632907Y-27756649D01*
X21517813Y-27842809D01*
X21517810Y-27842812D01*
X21431650Y-27957906D01*
X21431646Y-27957913D01*
X21381404Y-28092620D01*
X21381402Y-28092627D01*
X21375001Y-28152155D01*
X21375001Y-28200000D01*
X23325001Y-28200000D01*
X23325001Y-28152172D01*
X23325000Y-28152155D01*
X23323163Y-28135070D01*
X23335567Y-28066311D01*
X23382847Y-28015527D01*
X23358353Y-28019049D01*
X23294797Y-27990024D01*
X23274275Y-27964558D01*
X23273670Y-27965011D01*
X23182191Y-27842812D01*
X23182188Y-27842809D01*
X23067094Y-27756649D01*
X23067087Y-27756645D01*
X23022946Y-27740182D01*
X22967012Y-27698311D01*
X22942595Y-27632847D01*
X22957446Y-27564574D01*
X23006852Y-27515168D01*
X23066279Y-27500000D01*
X23376000Y-27500000D01*
X23443039Y-27519685D01*
X23488794Y-27572489D01*
X23500000Y-27624000D01*
X23500000Y-27896311D01*
X23480315Y-27963350D01*
X23436096Y-28001665D01*
X23450876Y-27997893D01*
X23457207Y-28000000D01*
X23500000Y-28000000D01*
X26376000Y-28000000D01*
X26443039Y-28019685D01*
X26488794Y-28072489D01*
X26500000Y-28124000D01*
X26500000Y-31376000D01*
X26480315Y-31443039D01*
X26427511Y-31488794D01*
X26376000Y-31500000D01*
X25562792Y-31500000D01*
X25495753Y-31480315D01*
X25449998Y-31427511D01*
X25440054Y-31358353D01*
X25469079Y-31294797D01*
X25489158Y-31276230D01*
X25596792Y-31196792D01*
X25677346Y-31087645D01*
X25722149Y-30959604D01*
X25722149Y-30959600D01*
X25725000Y-30929206D01*
X25725000Y-30925000D01*
X24275001Y-30925000D01*
X24275001Y-30929196D01*
X24277851Y-30959606D01*
X24322653Y-31087645D01*
X24403207Y-31196792D01*
X24510842Y-31276230D01*
X24553092Y-31331878D01*
X24558551Y-31401534D01*
X24525483Y-31463083D01*
X24464389Y-31496984D01*
X24437208Y-31500000D01*
X19124000Y-31500000D01*
X19056961Y-31480315D01*
X19011206Y-31427511D01*
X19000000Y-31376000D01*
X19000000Y-30425000D01*
X24275000Y-30425000D01*
X24750000Y-30425000D01*
X24750000Y-30025000D01*
X25250000Y-30025000D01*
X25250000Y-30425000D01*
X25724999Y-30425000D01*
X25724998Y-30420803D01*
X25722148Y-30390393D01*
X25677346Y-30262354D01*
X25596792Y-30153207D01*
X25487645Y-30072653D01*
X25359602Y-30027850D01*
X25329207Y-30025000D01*
X25250000Y-30025000D01*
X24750000Y-30025000D01*
X24749999Y-30024999D01*
X24670804Y-30025000D01*
X24640393Y-30027851D01*
X24512354Y-30072653D01*
X24403207Y-30153207D01*
X24322653Y-30262354D01*
X24277850Y-30390395D01*
X24277850Y-30390399D01*
X24275000Y-30420793D01*
X24275000Y-30425000D01*
X19000000Y-30425000D01*
X19000000Y-28575000D01*
X19625000Y-28575000D01*
X19625000Y-28579196D01*
X19627850Y-28609606D01*
X19672652Y-28737645D01*
X19753206Y-28846792D01*
X19862353Y-28927346D01*
X19990396Y-28972149D01*
X20020777Y-28974998D01*
X20020805Y-28974999D01*
X20099998Y-28974998D01*
X20099999Y-28974998D01*
X20099999Y-28575000D01*
X20599999Y-28575000D01*
X20599999Y-28974999D01*
X20679195Y-28974999D01*
X20709605Y-28972148D01*
X20837644Y-28927346D01*
X20946791Y-28846792D01*
X21027345Y-28737645D01*
X21040517Y-28700000D01*
X21375001Y-28700000D01*
X21375001Y-28747844D01*
X21381402Y-28807372D01*
X21381404Y-28807379D01*
X21431646Y-28942086D01*
X21431650Y-28942093D01*
X21517810Y-29057187D01*
X21517813Y-29057190D01*
X21632907Y-29143350D01*
X21632914Y-29143354D01*
X21767621Y-29193596D01*
X21767628Y-29193598D01*
X21827156Y-29199999D01*
X21827173Y-29200000D01*
X22100001Y-29200000D01*
X22100001Y-28700000D01*
X22600001Y-28700000D01*
X22600001Y-29200000D01*
X22872829Y-29200000D01*
X22872845Y-29199999D01*
X22932373Y-29193598D01*
X22932380Y-29193596D01*
X23067087Y-29143354D01*
X23067094Y-29143350D01*
X23182188Y-29057190D01*
X23182191Y-29057187D01*
X23268351Y-28942093D01*
X23268355Y-28942086D01*
X23318597Y-28807379D01*
X23318599Y-28807372D01*
X23325000Y-28747844D01*
X23325001Y-28747827D01*
X23325001Y-28700000D01*
X22600001Y-28700000D01*
X22100001Y-28700000D01*
X21375001Y-28700000D01*
X21040517Y-28700000D01*
X21072148Y-28609604D01*
X21072148Y-28609600D01*
X21074999Y-28579206D01*
X21074999Y-28575000D01*
X20599999Y-28575000D01*
X20099999Y-28575000D01*
X19625000Y-28575000D01*
X19000000Y-28575000D01*
X19000000Y-27624000D01*
X19019685Y-27556961D01*
X19072489Y-27511206D01*
X19124000Y-27500000D01*
X19787207Y-27500000D01*
X19854246Y-27519685D01*
G37*
%TD.AperFunction*%
%TD*%
%TA.AperFunction,Conductor*%
%TO.N,GND*%
G36*
X23970353Y-5519685D02*
G01*
X24016108Y-5572489D01*
X24026603Y-5637257D01*
X24025000Y-5652158D01*
X24025000Y-5700000D01*
X25975000Y-5700000D01*
X25975000Y-5652172D01*
X25974999Y-5652158D01*
X25973397Y-5637257D01*
X25985801Y-5568497D01*
X26033411Y-5517359D01*
X26096686Y-5500000D01*
X26376000Y-5500000D01*
X26443039Y-5519685D01*
X26488794Y-5572489D01*
X26500000Y-5624000D01*
X26500000Y-13376000D01*
X26480315Y-13443039D01*
X26427511Y-13488794D01*
X26376000Y-13500000D01*
X25095156Y-13500000D01*
X25028117Y-13480315D01*
X24982362Y-13427511D01*
X24971698Y-13364424D01*
X24975000Y-13329208D01*
X24975000Y-13250000D01*
X24199000Y-13250000D01*
X24131961Y-13230315D01*
X24086206Y-13177511D01*
X24075000Y-13126000D01*
X24075000Y-12275000D01*
X24575000Y-12275000D01*
X24575000Y-12750000D01*
X24974999Y-12750000D01*
X24974999Y-12670803D01*
X24972148Y-12640393D01*
X24927346Y-12512354D01*
X24846792Y-12403207D01*
X24737645Y-12322653D01*
X24609602Y-12277850D01*
X24579207Y-12275000D01*
X24575000Y-12275000D01*
X24075000Y-12275000D01*
X24070796Y-12275001D01*
X24070774Y-12275002D01*
X24040399Y-12277850D01*
X24040394Y-12277851D01*
X23912354Y-12322653D01*
X23803207Y-12403207D01*
X23723770Y-12510842D01*
X23668122Y-12553092D01*
X23598466Y-12558551D01*
X23536917Y-12525483D01*
X23503016Y-12464389D01*
X23500000Y-12437208D01*
X23500000Y-12000000D01*
X21679288Y-12000000D01*
X21612249Y-11980315D01*
X21566494Y-11927511D01*
X21556550Y-11858353D01*
X21580022Y-11801689D01*
X21643350Y-11717093D01*
X21643354Y-11717086D01*
X21693596Y-11582379D01*
X21693598Y-11582372D01*
X21699999Y-11522844D01*
X21700000Y-11522827D01*
X21700000Y-11250000D01*
X20824000Y-11250000D01*
X20756961Y-11230315D01*
X20711206Y-11177511D01*
X20700000Y-11126000D01*
X20700000Y-9249999D01*
X21200000Y-9249999D01*
X21200000Y-10750000D01*
X21700000Y-10750000D01*
X21700000Y-10477172D01*
X21699999Y-10477155D01*
X21693598Y-10417627D01*
X21693596Y-10417620D01*
X21643354Y-10282913D01*
X21643350Y-10282906D01*
X21557190Y-10167812D01*
X21465624Y-10099265D01*
X21423754Y-10043331D01*
X21418770Y-9973639D01*
X21452256Y-9912317D01*
X21465625Y-9900732D01*
X21557190Y-9832185D01*
X21643350Y-9717092D01*
X21643354Y-9717085D01*
X21693596Y-9582378D01*
X21693598Y-9582371D01*
X21699999Y-9522843D01*
X21700000Y-9522826D01*
X21700000Y-9249999D01*
X21200000Y-9249999D01*
X20700000Y-9249999D01*
X20700000Y-8024999D01*
X21200000Y-8024999D01*
X21200000Y-8749999D01*
X21700000Y-8749999D01*
X21700000Y-8477171D01*
X21699999Y-8477154D01*
X21693598Y-8417626D01*
X21693596Y-8417619D01*
X21643354Y-8282912D01*
X21643350Y-8282905D01*
X21557190Y-8167811D01*
X21557187Y-8167808D01*
X21442093Y-8081648D01*
X21442086Y-8081644D01*
X21307379Y-8031402D01*
X21307372Y-8031400D01*
X21247844Y-8024999D01*
X21200000Y-8024999D01*
X20700000Y-8024999D01*
X20652159Y-8024999D01*
X20637250Y-8026602D01*
X20568491Y-8014194D01*
X20517356Y-7966581D01*
X20500000Y-7903312D01*
X20500000Y-7424000D01*
X20519685Y-7356961D01*
X20572489Y-7311206D01*
X20624000Y-7300000D01*
X21400000Y-7300000D01*
X21400000Y-6550000D01*
X21900000Y-6550000D01*
X21900000Y-7300000D01*
X22674626Y-7300000D01*
X22674628Y-7299999D01*
X22747540Y-7285496D01*
X22747544Y-7285494D01*
X22830239Y-7230239D01*
X22885494Y-7147544D01*
X22885496Y-7147540D01*
X22899999Y-7074628D01*
X22900000Y-7074626D01*
X22900000Y-6550000D01*
X21900000Y-6550000D01*
X21400000Y-6550000D01*
X21400000Y-6200000D01*
X24025000Y-6200000D01*
X24025000Y-6247844D01*
X24031401Y-6307372D01*
X24031403Y-6307379D01*
X24081645Y-6442086D01*
X24081649Y-6442093D01*
X24167809Y-6557187D01*
X24167812Y-6557190D01*
X24282906Y-6643350D01*
X24282913Y-6643354D01*
X24417620Y-6693596D01*
X24417627Y-6693598D01*
X24477155Y-6699999D01*
X24477172Y-6700000D01*
X24750000Y-6700000D01*
X24750000Y-6200000D01*
X25250000Y-6200000D01*
X25250000Y-6700000D01*
X25522828Y-6700000D01*
X25522844Y-6699999D01*
X25582372Y-6693598D01*
X25582379Y-6693596D01*
X25717086Y-6643354D01*
X25717093Y-6643350D01*
X25832187Y-6557190D01*
X25832190Y-6557187D01*
X25918350Y-6442093D01*
X25918354Y-6442086D01*
X25968596Y-6307379D01*
X25968598Y-6307372D01*
X25974999Y-6247844D01*
X25975000Y-6247827D01*
X25975000Y-6200000D01*
X25250000Y-6200000D01*
X24750000Y-6200000D01*
X24025000Y-6200000D01*
X21400000Y-6200000D01*
X21400000Y-6174000D01*
X21419685Y-6106961D01*
X21472489Y-6061206D01*
X21524000Y-6050000D01*
X22900000Y-6050000D01*
X22900000Y-5624000D01*
X22919685Y-5556961D01*
X22972489Y-5511206D01*
X23024000Y-5500000D01*
X23903314Y-5500000D01*
X23970353Y-5519685D01*
G37*
%TD.AperFunction*%
%TD*%
%TA.AperFunction,Conductor*%
%TO.N,VDD*%
G36*
X30443039Y-8519685D02*
G01*
X30488794Y-8572489D01*
X30500000Y-8624000D01*
X30500000Y-14500000D01*
X31187959Y-14500000D01*
X31254998Y-14519685D01*
X31300753Y-14572489D01*
X31310697Y-14641647D01*
X31281672Y-14705203D01*
X31271497Y-14715637D01*
X31183608Y-14795757D01*
X31060754Y-14958443D01*
X30969890Y-15140921D01*
X30969885Y-15140934D01*
X30927471Y-15289999D01*
X30927472Y-15290000D01*
X31386653Y-15290000D01*
X31453692Y-15309685D01*
X31499447Y-15362489D01*
X31509391Y-15431647D01*
X31505631Y-15448933D01*
X31500000Y-15468111D01*
X31500000Y-15611888D01*
X31505631Y-15631067D01*
X31505630Y-15700936D01*
X31467855Y-15759714D01*
X31404299Y-15788738D01*
X31386653Y-15790000D01*
X30927472Y-15790000D01*
X30969885Y-15939065D01*
X30969890Y-15939078D01*
X31060754Y-16121556D01*
X31183607Y-16284240D01*
X31183745Y-16284366D01*
X31183791Y-16284443D01*
X31187470Y-16288478D01*
X31186680Y-16289197D01*
X31220024Y-16344079D01*
X31218261Y-16413926D01*
X31179015Y-16471732D01*
X31114747Y-16499144D01*
X31100203Y-16500000D01*
X27624000Y-16500000D01*
X27556961Y-16480315D01*
X27511206Y-16427511D01*
X27500000Y-16376000D01*
X27500000Y-9900000D01*
X28150001Y-9900000D01*
X28150001Y-9920439D01*
X28156081Y-9977007D01*
X28203813Y-10104981D01*
X28203815Y-10104984D01*
X28285670Y-10214329D01*
X28395015Y-10296184D01*
X28395016Y-10296185D01*
X28522991Y-10343917D01*
X28522994Y-10343918D01*
X28579555Y-10349999D01*
X28749999Y-10349999D01*
X28750000Y-10349998D01*
X28750000Y-9900000D01*
X29250000Y-9900000D01*
X29250000Y-10349999D01*
X29420433Y-10349999D01*
X29420439Y-10349998D01*
X29477007Y-10343918D01*
X29604981Y-10296186D01*
X29604984Y-10296184D01*
X29714329Y-10214329D01*
X29796184Y-10104984D01*
X29796185Y-10104983D01*
X29843916Y-9977010D01*
X29849999Y-9920428D01*
X29850000Y-9920427D01*
X29850000Y-9900000D01*
X29250000Y-9900000D01*
X28750000Y-9900000D01*
X28150001Y-9900000D01*
X27500000Y-9900000D01*
X27500000Y-9400000D01*
X28150000Y-9400000D01*
X28750000Y-9400000D01*
X28750000Y-8950000D01*
X29250000Y-8950000D01*
X29250000Y-9400000D01*
X29849999Y-9400000D01*
X29849999Y-9379566D01*
X29849998Y-9379560D01*
X29843918Y-9322992D01*
X29796186Y-9195018D01*
X29796184Y-9195015D01*
X29714329Y-9085670D01*
X29604984Y-9003815D01*
X29604983Y-9003814D01*
X29477010Y-8956083D01*
X29420428Y-8950000D01*
X29250000Y-8950000D01*
X28750000Y-8950000D01*
X28579566Y-8950000D01*
X28579559Y-8950001D01*
X28522992Y-8956081D01*
X28395018Y-9003813D01*
X28395015Y-9003815D01*
X28285670Y-9085670D01*
X28203815Y-9195015D01*
X28203814Y-9195016D01*
X28156083Y-9322989D01*
X28150000Y-9379571D01*
X28150000Y-9400000D01*
X27500000Y-9400000D01*
X27500000Y-8624000D01*
X27519685Y-8556961D01*
X27572489Y-8511206D01*
X27624000Y-8500000D01*
X30376000Y-8500000D01*
X30443039Y-8519685D01*
G37*
%TD.AperFunction*%
%TD*%
%TA.AperFunction,Conductor*%
%TO.N,+3V3*%
G36*
X19443039Y1980315D02*
G01*
X19488794Y1927511D01*
X19500000Y1876001D01*
X19500000Y-3000000D01*
X20293735Y-3000000D01*
X20360774Y-3019685D01*
X20406529Y-3072489D01*
X20416473Y-3141647D01*
X20415352Y-3148191D01*
X20400000Y-3225371D01*
X20400000Y-3750000D01*
X21776000Y-3750000D01*
X21843039Y-3769685D01*
X21888794Y-3822489D01*
X21900000Y-3874000D01*
X21900000Y-4126000D01*
X21880315Y-4193039D01*
X21827511Y-4238794D01*
X21776000Y-4250000D01*
X20400000Y-4250000D01*
X20400000Y-4774628D01*
X20415352Y-4851809D01*
X20409125Y-4921401D01*
X20366261Y-4976578D01*
X20300372Y-4999822D01*
X20293735Y-5000000D01*
X19500000Y-5000000D01*
X19499999Y-7903312D01*
X19480314Y-7970351D01*
X19427510Y-8016106D01*
X19362748Y-8026602D01*
X19347838Y-8024999D01*
X19300000Y-8024999D01*
X19300000Y-11975000D01*
X19347828Y-11975000D01*
X19347844Y-11974999D01*
X19407372Y-11968598D01*
X19407379Y-11968596D01*
X19542086Y-11918354D01*
X19542093Y-11918350D01*
X19657187Y-11832190D01*
X19657190Y-11832187D01*
X19743350Y-11717093D01*
X19743354Y-11717086D01*
X19759818Y-11672945D01*
X19801689Y-11617011D01*
X19867153Y-11592594D01*
X19935426Y-11607445D01*
X19984832Y-11656851D01*
X20000000Y-11716278D01*
X20000000Y-12348168D01*
X19980315Y-12415207D01*
X19927511Y-12460962D01*
X19858353Y-12470906D01*
X19794797Y-12441881D01*
X19776230Y-12421802D01*
X19766449Y-12408550D01*
X19652755Y-12324640D01*
X19519379Y-12277968D01*
X19519380Y-12277968D01*
X19487722Y-12275000D01*
X19462500Y-12275000D01*
X19462500Y-13725000D01*
X19487722Y-13725000D01*
X19519379Y-13722031D01*
X19652755Y-13675359D01*
X19766448Y-13591451D01*
X19776228Y-13578199D01*
X19831875Y-13535948D01*
X19901531Y-13530488D01*
X19963081Y-13563554D01*
X19996984Y-13624647D01*
X20000000Y-13651831D01*
X20000000Y-15876000D01*
X19980315Y-15943039D01*
X19927511Y-15988794D01*
X19876000Y-16000000D01*
X16124000Y-16000000D01*
X16056961Y-15980315D01*
X16011206Y-15927511D01*
X16000000Y-15876000D01*
X16000000Y-13500000D01*
X12124000Y-13500000D01*
X12056961Y-13480315D01*
X12011206Y-13427511D01*
X12000000Y-13376000D01*
X12000000Y-13250000D01*
X18525000Y-13250000D01*
X18525000Y-13312722D01*
X18527968Y-13344379D01*
X18574640Y-13477755D01*
X18658550Y-13591449D01*
X18772244Y-13675359D01*
X18905620Y-13722031D01*
X18905619Y-13722031D01*
X18937278Y-13725000D01*
X18962500Y-13725000D01*
X18962500Y-13250000D01*
X18525000Y-13250000D01*
X12000000Y-13250000D01*
X12000000Y-12750000D01*
X18525000Y-12750000D01*
X18962500Y-12750000D01*
X18962500Y-12275000D01*
X18937278Y-12275000D01*
X18905620Y-12277968D01*
X18772244Y-12324640D01*
X18658550Y-12408550D01*
X18574640Y-12522244D01*
X18527968Y-12655620D01*
X18525000Y-12687277D01*
X18525000Y-12750000D01*
X12000000Y-12750000D01*
X12000000Y-11250000D01*
X18300000Y-11250000D01*
X18300000Y-11522844D01*
X18306401Y-11582372D01*
X18306403Y-11582379D01*
X18356645Y-11717086D01*
X18356649Y-11717093D01*
X18442809Y-11832187D01*
X18442812Y-11832190D01*
X18557906Y-11918350D01*
X18557913Y-11918354D01*
X18692620Y-11968596D01*
X18692627Y-11968598D01*
X18752155Y-11974999D01*
X18752172Y-11975000D01*
X18800000Y-11975000D01*
X18800000Y-11250000D01*
X18300000Y-11250000D01*
X12000000Y-11250000D01*
X12000000Y-9249999D01*
X18300000Y-9249999D01*
X18300000Y-9522843D01*
X18306401Y-9582371D01*
X18306403Y-9582378D01*
X18356645Y-9717085D01*
X18356649Y-9717092D01*
X18442809Y-9832186D01*
X18442812Y-9832189D01*
X18534374Y-9900733D01*
X18576245Y-9956667D01*
X18581229Y-10026358D01*
X18547743Y-10087681D01*
X18534375Y-10099265D01*
X18442809Y-10167812D01*
X18356649Y-10282906D01*
X18356645Y-10282913D01*
X18306403Y-10417620D01*
X18306401Y-10417627D01*
X18300000Y-10477155D01*
X18300000Y-10750000D01*
X18800000Y-10750000D01*
X18800000Y-9249999D01*
X18300000Y-9249999D01*
X12000000Y-9249999D01*
X12000000Y-8749999D01*
X18300000Y-8749999D01*
X18800000Y-8749999D01*
X18800000Y-8024999D01*
X18752155Y-8024999D01*
X18692627Y-8031400D01*
X18692620Y-8031402D01*
X18557913Y-8081644D01*
X18557906Y-8081648D01*
X18442812Y-8167808D01*
X18442809Y-8167811D01*
X18356649Y-8282905D01*
X18356645Y-8282912D01*
X18306403Y-8417619D01*
X18306401Y-8417626D01*
X18300000Y-8477154D01*
X18300000Y-8749999D01*
X12000000Y-8749999D01*
X12000000Y-4250000D01*
X14100000Y-4250000D01*
X14100000Y-5924628D01*
X14114503Y-5997540D01*
X14114505Y-5997544D01*
X14169760Y-6080239D01*
X14252455Y-6135494D01*
X14252459Y-6135496D01*
X14325371Y-6149999D01*
X14325374Y-6150000D01*
X15100000Y-6150000D01*
X15100000Y-4250000D01*
X15600000Y-4250000D01*
X15600000Y-6150000D01*
X16374626Y-6150000D01*
X16374628Y-6149999D01*
X16447540Y-6135496D01*
X16447544Y-6135494D01*
X16530239Y-6080239D01*
X16585494Y-5997544D01*
X16585496Y-5997540D01*
X16599999Y-5924628D01*
X16600000Y-5924626D01*
X16600000Y-4250000D01*
X15600000Y-4250000D01*
X15100000Y-4250000D01*
X14100000Y-4250000D01*
X12000000Y-4250000D01*
X12000000Y-3750000D01*
X14100000Y-3750000D01*
X15100000Y-3750000D01*
X15100000Y-1850000D01*
X15600000Y-1850000D01*
X15600000Y-3750000D01*
X16600000Y-3750000D01*
X16600000Y-2075373D01*
X16599999Y-2075371D01*
X16585496Y-2002459D01*
X16585494Y-2002455D01*
X16530239Y-1919760D01*
X16447544Y-1864505D01*
X16447540Y-1864503D01*
X16374627Y-1850000D01*
X15600000Y-1850000D01*
X15100000Y-1850000D01*
X14325373Y-1850000D01*
X14252459Y-1864503D01*
X14252455Y-1864505D01*
X14169760Y-1919760D01*
X14114505Y-2002455D01*
X14114503Y-2002459D01*
X14100000Y-2075371D01*
X14100000Y-3750000D01*
X12000000Y-3750000D01*
X12000000Y1876000D01*
X12019685Y1943039D01*
X12072489Y1988794D01*
X12124000Y2000000D01*
X19376000Y2000000D01*
X19443039Y1980315D01*
G37*
%TD.AperFunction*%
%TD*%
M02*
