<?xml version="1.0" standalone="no"?>
 <!DOCTYPE svg PUBLIC "-//W3C//DTD SVG 1.1//EN" 
 "http://www.w3.org/Graphics/SVG/1.1/DTD/svg11.dtd"> 
<svg
  xmlns:svg="http://www.w3.org/2000/svg"
  xmlns="http://www.w3.org/2000/svg"
  xmlns:xlink="http://www.w3.org/1999/xlink"
  version="1.1"
  width="255.1938mm" height="123.4694mm" viewBox="0.0000 0.0000 255.1938 123.4694">
<title>SVG Image created as pico_radar_speed_sign-brd.svg date 2023/07/05 22:23:51 </title>
  <desc>Image generated by PCBNEW </desc>
<g style="fill:#000000; fill-opacity:1.0000;stroke:#000000; stroke-opacity:1.0000;
stroke-linecap:round; stroke-linejoin:round;"
 transform="translate(0 0) scale(1 1)">
</g>
<g style="fill:#000000; fill-opacity:0.0; 
stroke:#000000; stroke-width:0.0000; stroke-opacity:1; 
stroke-linecap:round; stroke-linejoin:round;">
<g >
</g>
<g >
</g>
<g >
</g>
<g >
</g>
<g >
</g>
<g >
</g>
<g >
</g>
<g >
</g>
<g >
</g>
<g >
</g>
<g >
</g>
<g >
</g>
<g >
</g>
<g >
</g>
<g >
</g>
<g >
</g>
<g >
</g>
<g >
</g>
<g >
</g>
<g >
</g>
<g >
</g>
<g >
</g>
<g >
</g>
<g >
</g>
<g >
</g>
<g >
</g>
<g >
</g>
<g >
</g>
<g >
</g>
<g >
</g>
<g >
</g>
<g >
</g>
</g>
<g style="fill:#000000; fill-opacity:0.0; 
stroke:#000000; stroke-width:0.0000; stroke-opacity:1; 
stroke-linecap:round; stroke-linejoin:round;">
</g>
<g style="fill:#E8B2A7; fill-opacity:0.0; 
stroke:#E8B2A7; stroke-width:0.0000; stroke-opacity:1; 
stroke-linecap:round; stroke-linejoin:round;">
</g>
<g style="fill:#E8B2A7; fill-opacity:0.0; 
stroke:#E8B2A7; stroke-width:0.1200; stroke-opacity:1; 
stroke-linecap:round; stroke-linejoin:round;">
<path d="M185.4046 96.9700
L181.9046 96.9700
" />
<path d="M181.9046 96.9700
L181.9046 99.9700
" />
<path d="M181.9046 99.9700
L185.4046 99.9700
" />
<path d="M185.4046 99.9700
L185.4046 96.9700
" />
</g>
<g style="fill:#E8B2A7; fill-opacity:1.0000; 
stroke:#E8B2A7; stroke-width:0.0212; stroke-opacity:1; 
stroke-linecap:round; stroke-linejoin:round;">
<path style="fill:#E8B2A7; fill-opacity:1.0000; 
stroke:#E8B2A7; stroke-width:0.0000; stroke-opacity:1; 
stroke-linecap:round; stroke-linejoin:round;fill-rule:evenodd;"
d="M 185.4046,96.9700
181.9046,96.9700
181.9046,99.9700
185.4046,99.9700
" /> 
</g>
<g style="fill:#E8B2A7; fill-opacity:1.0000; 
stroke:#E8B2A7; stroke-width:0.1500; stroke-opacity:1; 
stroke-linecap:round; stroke-linejoin:round;">
</g>
<g style="fill:#E8B2A7; fill-opacity:0.0; 
stroke:#E8B2A7; stroke-width:0.1500; stroke-opacity:1; 
stroke-linecap:round; stroke-linejoin:round;">
<g transform="rotate(-90.000000 182.9046 88.9700)">
<text x="182.9046" y="88.9700"
transform="scale(-1 1) translate(-365.809266 0)"
textLength="7.3940" font-size="1.3333" lengthAdjust="spacingAndGlyphs"
text-anchor="start" opacity="0">PCBA REV</text>
</g>
<g class="stroked-text"><desc>PCBA REV</desc>
<path d="M183.1223 89.2081
L184.1223 89.2081
" />
<path d="M184.1223 89.2081
L184.1223 89.5890
" />
<path d="M184.1223 89.5890
L184.0746 89.6843
" />
<path d="M184.0746 89.6843
L184.0270 89.7319
" />
<path d="M184.0270 89.7319
L183.9318 89.7795
" />
<path d="M183.9318 89.7795
L183.7889 89.7795
" />
<path d="M183.7889 89.7795
L183.6937 89.7319
" />
<path d="M183.6937 89.7319
L183.6461 89.6843
" />
<path d="M183.6461 89.6843
L183.5984 89.5890
" />
<path d="M183.5984 89.5890
L183.5984 89.2081
" />
<path d="M183.2175 90.7795
L183.1699 90.7319
" />
<path d="M183.1699 90.7319
L183.1223 90.5890
" />
<path d="M183.1223 90.5890
L183.1223 90.4938
" />
<path d="M183.1223 90.4938
L183.1699 90.3510
" />
<path d="M183.1699 90.3510
L183.2651 90.2557
" />
<path d="M183.2651 90.2557
L183.3603 90.2081
" />
<path d="M183.3603 90.2081
L183.5508 90.1605
" />
<path d="M183.5508 90.1605
L183.6937 90.1605
" />
<path d="M183.6937 90.1605
L183.8842 90.2081
" />
<path d="M183.8842 90.2081
L183.9794 90.2557
" />
<path d="M183.9794 90.2557
L184.0746 90.3510
" />
<path d="M184.0746 90.3510
L184.1223 90.4938
" />
<path d="M184.1223 90.4938
L184.1223 90.5890
" />
<path d="M184.1223 90.5890
L184.0746 90.7319
" />
<path d="M184.0746 90.7319
L184.0270 90.7795
" />
<path d="M183.6461 91.5414
L183.5984 91.6843
" />
<path d="M183.5984 91.6843
L183.5508 91.7319
" />
<path d="M183.5508 91.7319
L183.4556 91.7795
" />
<path d="M183.4556 91.7795
L183.3127 91.7795
" />
<path d="M183.3127 91.7795
L183.2175 91.7319
" />
<path d="M183.2175 91.7319
L183.1699 91.6843
" />
<path d="M183.1699 91.6843
L183.1223 91.5890
" />
<path d="M183.1223 91.5890
L183.1223 91.2081
" />
<path d="M183.1223 91.2081
L184.1223 91.2081
" />
<path d="M184.1223 91.2081
L184.1223 91.5414
" />
<path d="M184.1223 91.5414
L184.0746 91.6367
" />
<path d="M184.0746 91.6367
L184.0270 91.6843
" />
<path d="M184.0270 91.6843
L183.9318 91.7319
" />
<path d="M183.9318 91.7319
L183.8365 91.7319
" />
<path d="M183.8365 91.7319
L183.7413 91.6843
" />
<path d="M183.7413 91.6843
L183.6937 91.6367
" />
<path d="M183.6937 91.6367
L183.6461 91.5414
" />
<path d="M183.6461 91.5414
L183.6461 91.2081
" />
<path d="M183.4080 92.1605
L183.4080 92.6367
" />
<path d="M183.1223 92.0652
L184.1223 92.3986
" />
<path d="M184.1223 92.3986
L183.1223 92.7319
" />
<path d="M183.1223 94.2367
L183.5984 93.9033
" />
<path d="M183.1223 93.6652
L184.1223 93.6652
" />
<path d="M184.1223 93.6652
L184.1223 94.0462
" />
<path d="M184.1223 94.0462
L184.0746 94.1414
" />
<path d="M184.0746 94.1414
L184.0270 94.1890
" />
<path d="M184.0270 94.1890
L183.9318 94.2367
" />
<path d="M183.9318 94.2367
L183.7889 94.2367
" />
<path d="M183.7889 94.2367
L183.6937 94.1890
" />
<path d="M183.6937 94.1890
L183.6461 94.1414
" />
<path d="M183.6461 94.1414
L183.5984 94.0462
" />
<path d="M183.5984 94.0462
L183.5984 93.6652
" />
<path d="M183.6461 94.6652
L183.6461 94.9986
" />
<path d="M183.1223 95.1414
L183.1223 94.6652
" />
<path d="M183.1223 94.6652
L184.1223 94.6652
" />
<path d="M184.1223 94.6652
L184.1223 95.1414
" />
<path d="M184.1223 95.4271
L183.1223 95.7605
" />
<path d="M183.1223 95.7605
L184.1223 96.0938
" />
</g><g >
</g>
<g >
</g>
<g >
</g>
<g >
</g>
<g >
</g>
<g >
</g>
<g >
</g>
<g >
</g>
<g >
</g>
<g >
</g>
<g >
</g>
<g >
</g>
<g >
</g>
<g >
</g>
<g >
</g>
<g >
</g>
<g >
</g>
<g >
</g>
<g >
</g>
<g >
</g>
<g >
</g>
<g >
</g>
<g >
</g>
<g >
</g>
<g >
</g>
<g >
</g>
<g >
</g>
<g >
</g>
<g >
</g>
<g >
</g>
<g >
</g>
<g >
</g>
</g>
<g style="fill:#000000; fill-opacity:0.0; 
stroke:#000000; stroke-width:0.1500; stroke-opacity:1; 
stroke-linecap:round; stroke-linejoin:round;">
</g>
<g style="fill:#02FFEE; fill-opacity:0.0; 
stroke:#02FFEE; stroke-width:0.1500; stroke-opacity:1; 
stroke-linecap:round; stroke-linejoin:round;">
</g>
<g style="fill:#02FFEE; fill-opacity:0.0; 
stroke:#02FFEE; stroke-width:0.3000; stroke-opacity:1; 
stroke-linecap:round; stroke-linejoin:round;">
<g transform="rotate(-90.000000 183.8046 61.9200)">
<text x="183.8046" y="62.6700"
transform="scale(-1 1) translate(-367.609266 0)"
textLength="25.6643" font-size="2.0000" lengthAdjust="spacingAndGlyphs"
text-anchor="start" opacity="0">pico_radar_speed_sign</text>
</g>
<g class="stroked-text"><desc>pico_radar_speed_sign</desc>
<path d="M184.2536 62.2771
L182.7536 62.2771
" />
<path d="M184.1821 62.2771
L184.2536 62.4200
" />
<path d="M184.2536 62.4200
L184.2536 62.7057
" />
<path d="M184.2536 62.7057
L184.1821 62.8486
" />
<path d="M184.1821 62.8486
L184.1107 62.9200
" />
<path d="M184.1107 62.9200
L183.9678 62.9914
" />
<path d="M183.9678 62.9914
L183.5393 62.9914
" />
<path d="M183.5393 62.9914
L183.3964 62.9200
" />
<path d="M183.3964 62.9200
L183.3250 62.8486
" />
<path d="M183.3250 62.8486
L183.2536 62.7057
" />
<path d="M183.2536 62.7057
L183.2536 62.4200
" />
<path d="M183.2536 62.4200
L183.3250 62.2771
" />
<path d="M183.2536 63.6343
L184.2536 63.6343
" />
<path d="M184.7536 63.6343
L184.6821 63.5629
" />
<path d="M184.6821 63.5629
L184.6107 63.6343
" />
<path d="M184.6107 63.6343
L184.6821 63.7057
" />
<path d="M184.6821 63.7057
L184.7536 63.6343
" />
<path d="M184.7536 63.6343
L184.6107 63.6343
" />
<path d="M183.3250 64.9914
L183.2536 64.8486
" />
<path d="M183.2536 64.8486
L183.2536 64.5629
" />
<path d="M183.2536 64.5629
L183.3250 64.4200
" />
<path d="M183.3250 64.4200
L183.3964 64.3486
" />
<path d="M183.3964 64.3486
L183.5393 64.2771
" />
<path d="M183.5393 64.2771
L183.9678 64.2771
" />
<path d="M183.9678 64.2771
L184.1107 64.3486
" />
<path d="M184.1107 64.3486
L184.1821 64.4200
" />
<path d="M184.1821 64.4200
L184.2536 64.5629
" />
<path d="M184.2536 64.5629
L184.2536 64.8486
" />
<path d="M184.2536 64.8486
L184.1821 64.9914
" />
<path d="M183.2536 65.8486
L183.3250 65.7057
" />
<path d="M183.3250 65.7057
L183.3964 65.6343
" />
<path d="M183.3964 65.6343
L183.5393 65.5629
" />
<path d="M183.5393 65.5629
L183.9678 65.5629
" />
<path d="M183.9678 65.5629
L184.1107 65.6343
" />
<path d="M184.1107 65.6343
L184.1821 65.7057
" />
<path d="M184.1821 65.7057
L184.2536 65.8486
" />
<path d="M184.2536 65.8486
L184.2536 66.0629
" />
<path d="M184.2536 66.0629
L184.1821 66.2057
" />
<path d="M184.1821 66.2057
L184.1107 66.2771
" />
<path d="M184.1107 66.2771
L183.9678 66.3486
" />
<path d="M183.9678 66.3486
L183.5393 66.3486
" />
<path d="M183.5393 66.3486
L183.3964 66.2771
" />
<path d="M183.3964 66.2771
L183.3250 66.2057
" />
<path d="M183.3250 66.2057
L183.2536 66.0629
" />
<path d="M183.2536 66.0629
L183.2536 65.8486
" />
<path d="M183.1107 66.6343
L183.1107 67.7771
" />
<path d="M183.2536 68.1343
L184.2536 68.1343
" />
<path d="M183.9678 68.1343
L184.1107 68.2057
" />
<path d="M184.1107 68.2057
L184.1821 68.2771
" />
<path d="M184.1821 68.2771
L184.2536 68.4200
" />
<path d="M184.2536 68.4200
L184.2536 68.5629
" />
<path d="M183.2536 69.7057
L184.0393 69.7057
" />
<path d="M184.0393 69.7057
L184.1821 69.6343
" />
<path d="M184.1821 69.6343
L184.2536 69.4914
" />
<path d="M184.2536 69.4914
L184.2536 69.2057
" />
<path d="M184.2536 69.2057
L184.1821 69.0629
" />
<path d="M183.3250 69.7057
L183.2536 69.5629
" />
<path d="M183.2536 69.5629
L183.2536 69.2057
" />
<path d="M183.2536 69.2057
L183.3250 69.0629
" />
<path d="M183.3250 69.0629
L183.4678 68.9914
" />
<path d="M183.4678 68.9914
L183.6107 68.9914
" />
<path d="M183.6107 68.9914
L183.7536 69.0629
" />
<path d="M183.7536 69.0629
L183.8250 69.2057
" />
<path d="M183.8250 69.2057
L183.8250 69.5629
" />
<path d="M183.8250 69.5629
L183.8964 69.7057
" />
<path d="M183.2536 71.0629
L184.7536 71.0629
" />
<path d="M183.3250 71.0629
L183.2536 70.9200
" />
<path d="M183.2536 70.9200
L183.2536 70.6343
" />
<path d="M183.2536 70.6343
L183.3250 70.4914
" />
<path d="M183.3250 70.4914
L183.3964 70.4200
" />
<path d="M183.3964 70.4200
L183.5393 70.3486
" />
<path d="M183.5393 70.3486
L183.9678 70.3486
" />
<path d="M183.9678 70.3486
L184.1107 70.4200
" />
<path d="M184.1107 70.4200
L184.1821 70.4914
" />
<path d="M184.1821 70.4914
L184.2536 70.6343
" />
<path d="M184.2536 70.6343
L184.2536 70.9200
" />
<path d="M184.2536 70.9200
L184.1821 71.0629
" />
<path d="M183.2536 72.4200
L184.0393 72.4200
" />
<path d="M184.0393 72.4200
L184.1821 72.3486
" />
<path d="M184.1821 72.3486
L184.2536 72.2057
" />
<path d="M184.2536 72.2057
L184.2536 71.9200
" />
<path d="M184.2536 71.9200
L184.1821 71.7771
" />
<path d="M183.3250 72.4200
L183.2536 72.2771
" />
<path d="M183.2536 72.2771
L183.2536 71.9200
" />
<path d="M183.2536 71.9200
L183.3250 71.7771
" />
<path d="M183.3250 71.7771
L183.4678 71.7057
" />
<path d="M183.4678 71.7057
L183.6107 71.7057
" />
<path d="M183.6107 71.7057
L183.7536 71.7771
" />
<path d="M183.7536 71.7771
L183.8250 71.9200
" />
<path d="M183.8250 71.9200
L183.8250 72.2771
" />
<path d="M183.8250 72.2771
L183.8964 72.4200
" />
<path d="M183.2536 73.1343
L184.2536 73.1343
" />
<path d="M183.9678 73.1343
L184.1107 73.2057
" />
<path d="M184.1107 73.2057
L184.1821 73.2771
" />
<path d="M184.1821 73.2771
L184.2536 73.4200
" />
<path d="M184.2536 73.4200
L184.2536 73.5629
" />
<path d="M183.1107 73.7057
L183.1107 74.8486
" />
<path d="M183.3250 75.1343
L183.2536 75.2771
" />
<path d="M183.2536 75.2771
L183.2536 75.5629
" />
<path d="M183.2536 75.5629
L183.3250 75.7057
" />
<path d="M183.3250 75.7057
L183.4678 75.7771
" />
<path d="M183.4678 75.7771
L183.5393 75.7771
" />
<path d="M183.5393 75.7771
L183.6821 75.7057
" />
<path d="M183.6821 75.7057
L183.7536 75.5629
" />
<path d="M183.7536 75.5629
L183.7536 75.3486
" />
<path d="M183.7536 75.3486
L183.8250 75.2057
" />
<path d="M183.8250 75.2057
L183.9678 75.1343
" />
<path d="M183.9678 75.1343
L184.0393 75.1343
" />
<path d="M184.0393 75.1343
L184.1821 75.2057
" />
<path d="M184.1821 75.2057
L184.2536 75.3486
" />
<path d="M184.2536 75.3486
L184.2536 75.5629
" />
<path d="M184.2536 75.5629
L184.1821 75.7057
" />
<path d="M184.2536 76.4200
L182.7536 76.4200
" />
<path d="M184.1821 76.4200
L184.2536 76.5629
" />
<path d="M184.2536 76.5629
L184.2536 76.8486
" />
<path d="M184.2536 76.8486
L184.1821 76.9914
" />
<path d="M184.1821 76.9914
L184.1107 77.0629
" />
<path d="M184.1107 77.0629
L183.9678 77.1343
" />
<path d="M183.9678 77.1343
L183.5393 77.1343
" />
<path d="M183.5393 77.1343
L183.3964 77.0629
" />
<path d="M183.3964 77.0629
L183.3250 76.9914
" />
<path d="M183.3250 76.9914
L183.2536 76.8486
" />
<path d="M183.2536 76.8486
L183.2536 76.5629
" />
<path d="M183.2536 76.5629
L183.3250 76.4200
" />
<path d="M183.3250 78.3486
L183.2536 78.2057
" />
<path d="M183.2536 78.2057
L183.2536 77.9200
" />
<path d="M183.2536 77.9200
L183.3250 77.7771
" />
<path d="M183.3250 77.7771
L183.4678 77.7057
" />
<path d="M183.4678 77.7057
L184.0393 77.7057
" />
<path d="M184.0393 77.7057
L184.1821 77.7771
" />
<path d="M184.1821 77.7771
L184.2536 77.9200
" />
<path d="M184.2536 77.9200
L184.2536 78.2057
" />
<path d="M184.2536 78.2057
L184.1821 78.3486
" />
<path d="M184.1821 78.3486
L184.0393 78.4200
" />
<path d="M184.0393 78.4200
L183.8964 78.4200
" />
<path d="M183.8964 78.4200
L183.7536 77.7057
" />
<path d="M183.3250 79.6343
L183.2536 79.4914
" />
<path d="M183.2536 79.4914
L183.2536 79.2057
" />
<path d="M183.2536 79.2057
L183.3250 79.0629
" />
<path d="M183.3250 79.0629
L183.4678 78.9914
" />
<path d="M183.4678 78.9914
L184.0393 78.9914
" />
<path d="M184.0393 78.9914
L184.1821 79.0629
" />
<path d="M184.1821 79.0629
L184.2536 79.2057
" />
<path d="M184.2536 79.2057
L184.2536 79.4914
" />
<path d="M184.2536 79.4914
L184.1821 79.6343
" />
<path d="M184.1821 79.6343
L184.0393 79.7057
" />
<path d="M184.0393 79.7057
L183.8964 79.7057
" />
<path d="M183.8964 79.7057
L183.7536 78.9914
" />
<path d="M183.2536 80.9914
L184.7536 80.9914
" />
<path d="M183.3250 80.9914
L183.2536 80.8486
" />
<path d="M183.2536 80.8486
L183.2536 80.5629
" />
<path d="M183.2536 80.5629
L183.3250 80.4200
" />
<path d="M183.3250 80.4200
L183.3964 80.3486
" />
<path d="M183.3964 80.3486
L183.5393 80.2771
" />
<path d="M183.5393 80.2771
L183.9678 80.2771
" />
<path d="M183.9678 80.2771
L184.1107 80.3486
" />
<path d="M184.1107 80.3486
L184.1821 80.4200
" />
<path d="M184.1821 80.4200
L184.2536 80.5629
" />
<path d="M184.2536 80.5629
L184.2536 80.8486
" />
<path d="M184.2536 80.8486
L184.1821 80.9914
" />
<path d="M183.1107 81.3486
L183.1107 82.4914
" />
<path d="M183.3250 82.7771
L183.2536 82.9200
" />
<path d="M183.2536 82.9200
L183.2536 83.2057
" />
<path d="M183.2536 83.2057
L183.3250 83.3486
" />
<path d="M183.3250 83.3486
L183.4678 83.4200
" />
<path d="M183.4678 83.4200
L183.5393 83.4200
" />
<path d="M183.5393 83.4200
L183.6821 83.3486
" />
<path d="M183.6821 83.3486
L183.7536 83.2057
" />
<path d="M183.7536 83.2057
L183.7536 82.9914
" />
<path d="M183.7536 82.9914
L183.8250 82.8486
" />
<path d="M183.8250 82.8486
L183.9678 82.7771
" />
<path d="M183.9678 82.7771
L184.0393 82.7771
" />
<path d="M184.0393 82.7771
L184.1821 82.8486
" />
<path d="M184.1821 82.8486
L184.2536 82.9914
" />
<path d="M184.2536 82.9914
L184.2536 83.2057
" />
<path d="M184.2536 83.2057
L184.1821 83.3486
" />
<path d="M183.2536 84.0629
L184.2536 84.0629
" />
<path d="M184.7536 84.0629
L184.6821 83.9914
" />
<path d="M184.6821 83.9914
L184.6107 84.0629
" />
<path d="M184.6107 84.0629
L184.6821 84.1343
" />
<path d="M184.6821 84.1343
L184.7536 84.0629
" />
<path d="M184.7536 84.0629
L184.6107 84.0629
" />
<path d="M184.2536 85.4200
L183.0393 85.4200
" />
<path d="M183.0393 85.4200
L182.8964 85.3486
" />
<path d="M182.8964 85.3486
L182.8250 85.2771
" />
<path d="M182.8250 85.2771
L182.7536 85.1343
" />
<path d="M182.7536 85.1343
L182.7536 84.9200
" />
<path d="M182.7536 84.9200
L182.8250 84.7771
" />
<path d="M183.3250 85.4200
L183.2536 85.2771
" />
<path d="M183.2536 85.2771
L183.2536 84.9914
" />
<path d="M183.2536 84.9914
L183.3250 84.8486
" />
<path d="M183.3250 84.8486
L183.3964 84.7771
" />
<path d="M183.3964 84.7771
L183.5393 84.7057
" />
<path d="M183.5393 84.7057
L183.9678 84.7057
" />
<path d="M183.9678 84.7057
L184.1107 84.7771
" />
<path d="M184.1107 84.7771
L184.1821 84.8486
" />
<path d="M184.1821 84.8486
L184.2536 84.9914
" />
<path d="M184.2536 84.9914
L184.2536 85.2771
" />
<path d="M184.2536 85.2771
L184.1821 85.4200
" />
<path d="M184.2536 86.1343
L183.2536 86.1343
" />
<path d="M184.1107 86.1343
L184.1821 86.2057
" />
<path d="M184.1821 86.2057
L184.2536 86.3486
" />
<path d="M184.2536 86.3486
L184.2536 86.5629
" />
<path d="M184.2536 86.5629
L184.1821 86.7057
" />
<path d="M184.1821 86.7057
L184.0393 86.7771
" />
<path d="M184.0393 86.7771
L183.2536 86.7771
" />
</g><g transform="rotate(-90.000000 181.5046 61.9200)">
<text x="181.5046" y="62.6700"
transform="scale(-1 1) translate(-363.009266 0)"
textLength="6.7786" font-size="2.0000" lengthAdjust="spacingAndGlyphs"
text-anchor="start" opacity="0">REV A</text>
</g>
<g class="stroked-text"><desc>REV A</desc>
<path d="M180.9536 63.1343
L181.6678 62.6343
" />
<path d="M180.9536 62.2771
L182.4536 62.2771
" />
<path d="M182.4536 62.2771
L182.4536 62.8486
" />
<path d="M182.4536 62.8486
L182.3821 62.9914
" />
<path d="M182.3821 62.9914
L182.3107 63.0629
" />
<path d="M182.3107 63.0629
L182.1678 63.1343
" />
<path d="M182.1678 63.1343
L181.9536 63.1343
" />
<path d="M181.9536 63.1343
L181.8107 63.0629
" />
<path d="M181.8107 63.0629
L181.7393 62.9914
" />
<path d="M181.7393 62.9914
L181.6678 62.8486
" />
<path d="M181.6678 62.8486
L181.6678 62.2771
" />
<path d="M181.7393 63.7771
L181.7393 64.2771
" />
<path d="M180.9536 64.4914
L180.9536 63.7771
" />
<path d="M180.9536 63.7771
L182.4536 63.7771
" />
<path d="M182.4536 63.7771
L182.4536 64.4914
" />
<path d="M182.4536 64.9200
L180.9536 65.4200
" />
<path d="M180.9536 65.4200
L182.4536 65.9200
" />
<path d="M181.3821 67.2486
L181.3821 67.9629
" />
<path d="M180.9536 67.1057
L182.4536 67.6057
" />
<path d="M182.4536 67.6057
L180.9536 68.1057
" />
</g><g >
</g>
<g style="fill:#02FFEE; fill-opacity:0.0; 
stroke:#02FFEE; stroke-width:0.0000; stroke-opacity:1; 
stroke-linecap:round; stroke-linejoin:round;">
</g>
<g style="fill:#02FFEE; fill-opacity:0.4000; 
stroke:#02FFEE; stroke-width:0.0000; stroke-opacity:1; 
stroke-linecap:round; stroke-linejoin:round;">
<path style="fill:#02FFEE; fill-opacity:0.4000; 
stroke:#02FFEE; stroke-width:0.0000; stroke-opacity:1; 
stroke-linecap:round; stroke-linejoin:round;fill-rule:evenodd;"
d="M 241.3046,113.7000
241.3046,115.4000
243.0046,115.4000
243.0046,113.7000
Z" /> 
<circle cx="242.1546" cy="112.0100" r="0.8500" /> 
<circle cx="242.1546" cy="109.4700" r="0.8500" /> 
</g>
<g >
</g>
<g style="fill:#02FFEE; fill-opacity:0.4000; 
stroke:#02FFEE; stroke-width:0.0000; stroke-opacity:1; 
stroke-linecap:round; stroke-linejoin:round;">
<path style="fill:#02FFEE; fill-opacity:0.4000; 
stroke:#02FFEE; stroke-width:0.0000; stroke-opacity:1; 
stroke-linecap:round; stroke-linejoin:round;fill-rule:evenodd;"
d="M 244.8796,114.5700
244.9753,114.5510
245.0564,114.4968
245.1106,114.4157
245.1296,114.3200
245.1296,113.6200
245.1106,113.5243
245.0564,113.4432
244.9753,113.3890
244.8796,113.3700
243.6296,113.3700
243.5340,113.3890
243.4529,113.4432
243.3987,113.5243
243.3796,113.6200
243.3796,114.3200
243.3987,114.4157
243.4529,114.4968
243.5340,114.5510
243.6296,114.5700
Z" /> 
</g>
<g style="fill:#02FFEE; fill-opacity:0.4000; 
stroke:#02FFEE; stroke-width:1.2000; stroke-opacity:1; 
stroke-linecap:round; stroke-linejoin:round;">
</g>
<g style="fill:#02FFEE; fill-opacity:0.0; 
stroke:#02FFEE; stroke-width:1.2000; stroke-opacity:1; 
stroke-linecap:round; stroke-linejoin:round;">
<path d="M244.5296 111.9700
L243.9796 111.9700
" />
<path d="M244.5296 109.9700
L243.9796 109.9700
" />
</g>
<g >
</g>
<g >
</g>
<g style="fill:#02FFEE; fill-opacity:0.0; 
stroke:#02FFEE; stroke-width:1.2000; stroke-opacity:1; 
stroke-linecap:round; stroke-linejoin:round;">
</g>
<g style="fill:#02FFEE; fill-opacity:0.0; 
stroke:#02FFEE; stroke-width:0.0000; stroke-opacity:1; 
stroke-linecap:round; stroke-linejoin:round;">
</g>
<g style="fill:#02FFEE; fill-opacity:0.4000; 
stroke:#02FFEE; stroke-width:0.0000; stroke-opacity:1; 
stroke-linecap:round; stroke-linejoin:round;">
<path style="fill:#02FFEE; fill-opacity:0.4000; 
stroke:#02FFEE; stroke-width:0.0000; stroke-opacity:1; 
stroke-linecap:round; stroke-linejoin:round;fill-rule:evenodd;"
d="M 181.5546,60.0700
183.7546,60.0700
183.7546,57.8700
181.5546,57.8700
Z" /> 
<circle cx="182.6546" cy="56.4300" r="1.1000" /> 
</g>
<g style="fill:#02FFEE; fill-opacity:0.4000; 
stroke:#02FFEE; stroke-width:0.0212; stroke-opacity:1; 
stroke-linecap:round; stroke-linejoin:round;">
</g>
<g style="fill:#02FFEE; fill-opacity:0.4000; 
stroke:#02FFEE; stroke-width:0.0000; stroke-opacity:1; 
stroke-linecap:round; stroke-linejoin:round;">
<circle cx="182.6546" cy="53.8900" r="1.1000" /> 
</g>
<g style="fill:#02FFEE; fill-opacity:0.4000; 
stroke:#02FFEE; stroke-width:0.0212; stroke-opacity:1; 
stroke-linecap:round; stroke-linejoin:round;">
</g>
<g style="fill:#02FFEE; fill-opacity:0.4000; 
stroke:#02FFEE; stroke-width:0.0000; stroke-opacity:1; 
stroke-linecap:round; stroke-linejoin:round;">
<circle cx="182.6546" cy="51.3500" r="1.1000" /> 
</g>
<g style="fill:#02FFEE; fill-opacity:0.4000; 
stroke:#02FFEE; stroke-width:0.0212; stroke-opacity:1; 
stroke-linecap:round; stroke-linejoin:round;">
</g>
<g >
</g>
<g >
</g>
<g >
</g>
<g style="fill:#02FFEE; fill-opacity:0.4000; 
stroke:#02FFEE; stroke-width:0.0212; stroke-opacity:1; 
stroke-linecap:round; stroke-linejoin:round;">
</g>
<g style="fill:#02FFEE; fill-opacity:0.4000; 
stroke:#02FFEE; stroke-width:0.0000; stroke-opacity:1; 
stroke-linecap:round; stroke-linejoin:round;">
<circle cx="230.6546" cy="114.4700" r="1.6000" /> 
</g>
<g style="fill:#02FFEE; fill-opacity:0.4000; 
stroke:#02FFEE; stroke-width:0.0212; stroke-opacity:1; 
stroke-linecap:round; stroke-linejoin:round;">
</g>
<g >
</g>
<g style="fill:#02FFEE; fill-opacity:0.4000; 
stroke:#02FFEE; stroke-width:0.0212; stroke-opacity:1; 
stroke-linecap:round; stroke-linejoin:round;">
</g>
<g style="fill:#02FFEE; fill-opacity:0.4000; 
stroke:#02FFEE; stroke-width:0.0000; stroke-opacity:1; 
stroke-linecap:round; stroke-linejoin:round;">
<circle cx="182.6546" cy="114.4700" r="1.6000" /> 
</g>
<g style="fill:#02FFEE; fill-opacity:0.4000; 
stroke:#02FFEE; stroke-width:0.0212; stroke-opacity:1; 
stroke-linecap:round; stroke-linejoin:round;">
</g>
<g >
</g>
<g style="fill:#02FFEE; fill-opacity:0.4000; 
stroke:#02FFEE; stroke-width:0.0212; stroke-opacity:1; 
stroke-linecap:round; stroke-linejoin:round;">
</g>
<g style="fill:#02FFEE; fill-opacity:0.4000; 
stroke:#02FFEE; stroke-width:0.0000; stroke-opacity:1; 
stroke-linecap:round; stroke-linejoin:round;">
<circle cx="182.6546" cy="44.4700" r="1.6000" /> 
</g>
<g style="fill:#02FFEE; fill-opacity:0.4000; 
stroke:#02FFEE; stroke-width:0.0212; stroke-opacity:1; 
stroke-linecap:round; stroke-linejoin:round;">
</g>
<g >
</g>
<g style="fill:#02FFEE; fill-opacity:0.4000; 
stroke:#02FFEE; stroke-width:0.0212; stroke-opacity:1; 
stroke-linecap:round; stroke-linejoin:round;">
</g>
<g style="fill:#02FFEE; fill-opacity:0.4000; 
stroke:#02FFEE; stroke-width:0.0000; stroke-opacity:1; 
stroke-linecap:round; stroke-linejoin:round;">
<circle cx="230.6546" cy="44.4700" r="1.6000" /> 
</g>
<g style="fill:#02FFEE; fill-opacity:0.4000; 
stroke:#02FFEE; stroke-width:0.0212; stroke-opacity:1; 
stroke-linecap:round; stroke-linejoin:round;">
</g>
<g >
</g>
<g >
</g>
<g >
</g>
<g >
</g>
<g >
</g>
<g >
</g>
<g style="fill:#02FFEE; fill-opacity:0.4000; 
stroke:#02FFEE; stroke-width:0.0212; stroke-opacity:1; 
stroke-linecap:round; stroke-linejoin:round;">
</g>
<g style="fill:#02FFEE; fill-opacity:0.4000; 
stroke:#02FFEE; stroke-width:0.0000; stroke-opacity:1; 
stroke-linecap:round; stroke-linejoin:round;">
<circle cx="190.8746" cy="116.7100" r="0.8500" /> 
<circle cx="190.8746" cy="114.1700" r="0.8500" /> 
<path style="fill:#02FFEE; fill-opacity:0.4000; 
stroke:#02FFEE; stroke-width:0.0000; stroke-opacity:1; 
stroke-linecap:round; stroke-linejoin:round;fill-rule:evenodd;"
d="M 190.0246,110.7800
190.0246,112.4800
191.7246,112.4800
191.7246,110.7800
Z" /> 
<circle cx="190.8746" cy="109.0900" r="0.8500" /> 
<circle cx="190.8746" cy="106.5500" r="0.8500" /> 
<circle cx="190.8746" cy="104.0100" r="0.8500" /> 
<circle cx="190.8746" cy="101.4700" r="0.8500" /> 
<path style="fill:#02FFEE; fill-opacity:0.4000; 
stroke:#02FFEE; stroke-width:0.0000; stroke-opacity:1; 
stroke-linecap:round; stroke-linejoin:round;fill-rule:evenodd;"
d="M 190.0246,98.0800
190.0246,99.7800
191.7246,99.7800
191.7246,98.0800
Z" /> 
<circle cx="190.8746" cy="96.3900" r="0.8500" /> 
<circle cx="190.8746" cy="93.8500" r="0.8500" /> 
<circle cx="190.8746" cy="91.3100" r="0.8500" /> 
<circle cx="190.8746" cy="88.7700" r="0.8500" /> 
<path style="fill:#02FFEE; fill-opacity:0.4000; 
stroke:#02FFEE; stroke-width:0.0000; stroke-opacity:1; 
stroke-linecap:round; stroke-linejoin:round;fill-rule:evenodd;"
d="M 190.0246,85.3800
190.0246,87.0800
191.7246,87.0800
191.7246,85.3800
Z" /> 
<circle cx="190.8746" cy="83.6900" r="0.8500" /> 
<circle cx="190.8746" cy="81.1500" r="0.8500" /> 
<circle cx="190.8746" cy="78.6100" r="0.8500" /> 
<circle cx="190.8746" cy="76.0700" r="0.8500" /> 
<path style="fill:#02FFEE; fill-opacity:0.4000; 
stroke:#02FFEE; stroke-width:0.0000; stroke-opacity:1; 
stroke-linecap:round; stroke-linejoin:round;fill-rule:evenodd;"
d="M 190.0246,72.6800
190.0246,74.3800
191.7246,74.3800
191.7246,72.6800
Z" /> 
<circle cx="190.8746" cy="70.9900" r="0.8500" /> 
<circle cx="190.8746" cy="68.4500" r="0.8500" /> 
<circle cx="208.6546" cy="68.4500" r="0.8500" /> 
<circle cx="208.6546" cy="70.9900" r="0.8500" /> 
<path style="fill:#02FFEE; fill-opacity:0.4000; 
stroke:#02FFEE; stroke-width:0.0000; stroke-opacity:1; 
stroke-linecap:round; stroke-linejoin:round;fill-rule:evenodd;"
d="M 207.8046,72.6800
207.8046,74.3800
209.5046,74.3800
209.5046,72.6800
Z" /> 
<circle cx="208.6546" cy="76.0700" r="0.8500" /> 
<circle cx="208.6546" cy="78.6100" r="0.8500" /> 
<circle cx="208.6546" cy="81.1500" r="0.8500" /> 
<circle cx="208.6546" cy="83.6900" r="0.8500" /> 
<path style="fill:#02FFEE; fill-opacity:0.4000; 
stroke:#02FFEE; stroke-width:0.0000; stroke-opacity:1; 
stroke-linecap:round; stroke-linejoin:round;fill-rule:evenodd;"
d="M 207.8046,85.3800
207.8046,87.0800
209.5046,87.0800
209.5046,85.3800
Z" /> 
<circle cx="208.6546" cy="88.7700" r="0.8500" /> 
<circle cx="208.6546" cy="91.3100" r="0.8500" /> 
<circle cx="208.6546" cy="93.8500" r="0.8500" /> 
<circle cx="208.6546" cy="96.3900" r="0.8500" /> 
<path style="fill:#02FFEE; fill-opacity:0.4000; 
stroke:#02FFEE; stroke-width:0.0000; stroke-opacity:1; 
stroke-linecap:round; stroke-linejoin:round;fill-rule:evenodd;"
d="M 207.8046,98.0800
207.8046,99.7800
209.5046,99.7800
209.5046,98.0800
Z" /> 
<circle cx="208.6546" cy="101.4700" r="0.8500" /> 
<circle cx="208.6546" cy="104.0100" r="0.8500" /> 
<circle cx="208.6546" cy="106.5500" r="0.8500" /> 
<circle cx="208.6546" cy="109.0900" r="0.8500" /> 
<path style="fill:#02FFEE; fill-opacity:0.4000; 
stroke:#02FFEE; stroke-width:0.0000; stroke-opacity:1; 
stroke-linecap:round; stroke-linejoin:round;fill-rule:evenodd;"
d="M 207.8046,110.7800
207.8046,112.4800
209.5046,112.4800
209.5046,110.7800
Z" /> 
<circle cx="208.6546" cy="114.1700" r="0.8500" /> 
<circle cx="208.6546" cy="116.7100" r="0.8500" /> 
</g>
<g >
</g>
<g >
</g>
<g >
</g>
<g >
</g>
<g >
</g>
<g style="fill:#02FFEE; fill-opacity:0.4000; 
stroke:#02FFEE; stroke-width:0.0000; stroke-opacity:1; 
stroke-linecap:round; stroke-linejoin:round;">
<path style="fill:#02FFEE; fill-opacity:0.4000; 
stroke:#02FFEE; stroke-width:0.0000; stroke-opacity:1; 
stroke-linecap:round; stroke-linejoin:round;fill-rule:evenodd;"
d="M 241.9546,46.0900
239.3546,46.0900
239.3546,48.6900
241.9546,48.6900
Z" /> 
<circle cx="240.6546" cy="52.4700" r="1.3000" /> 
</g>
<g style="fill:#02FFEE; fill-opacity:0.4000; 
stroke:#02FFEE; stroke-width:0.0212; stroke-opacity:1; 
stroke-linecap:round; stroke-linejoin:round;">
</g>
<g >
</g>
<g style="fill:#02FFEE; fill-opacity:0.4000; 
stroke:#02FFEE; stroke-width:0.0212; stroke-opacity:1; 
stroke-linecap:round; stroke-linejoin:round;">
</g>
<g style="fill:#02FFEE; fill-opacity:0.4000; 
stroke:#02FFEE; stroke-width:0.0000; stroke-opacity:1; 
stroke-linecap:round; stroke-linejoin:round;">
<circle cx="242.1946" cy="60.4700" r="0.8500" /> 
<circle cx="239.6546" cy="60.4700" r="0.8500" /> 
<circle cx="242.1946" cy="63.0100" r="0.8500" /> 
<circle cx="239.6546" cy="63.0100" r="0.8500" /> 
<circle cx="242.1946" cy="65.5500" r="0.8500" /> 
<circle cx="239.6546" cy="65.5500" r="0.8500" /> 
<circle cx="242.1946" cy="68.0900" r="0.8500" /> 
<circle cx="239.6546" cy="68.0900" r="0.8500" /> 
<circle cx="242.1946" cy="70.6300" r="0.8500" /> 
<circle cx="239.6546" cy="70.6300" r="0.8500" /> 
<circle cx="242.1946" cy="73.1700" r="0.8500" /> 
<circle cx="239.6546" cy="73.1700" r="0.8500" /> 
<circle cx="242.1946" cy="75.7100" r="0.8500" /> 
<circle cx="239.6546" cy="75.7100" r="0.8500" /> 
<circle cx="242.1946" cy="78.2500" r="0.8500" /> 
<path style="fill:#02FFEE; fill-opacity:0.4000; 
stroke:#02FFEE; stroke-width:0.0000; stroke-opacity:1; 
stroke-linecap:round; stroke-linejoin:round;fill-rule:evenodd;"
d="M 238.8046,77.4000
238.8046,79.1000
240.5046,79.1000
240.5046,77.4000
Z" /> 
</g>
<g >
</g>
<g style="fill:#02FFEE; fill-opacity:0.4000; 
stroke:#02FFEE; stroke-width:0.0000; stroke-opacity:1; 
stroke-linecap:round; stroke-linejoin:round;">
<path style="fill:#02FFEE; fill-opacity:0.4000; 
stroke:#02FFEE; stroke-width:0.0000; stroke-opacity:1; 
stroke-linecap:round; stroke-linejoin:round;fill-rule:evenodd;"
d="M 238.8046,101.6200
238.8046,103.3200
240.5046,103.3200
240.5046,101.6200
Z" /> 
<circle cx="242.1946" cy="102.4700" r="0.8500" /> 
<circle cx="239.6546" cy="99.9300" r="0.8500" /> 
<circle cx="242.1946" cy="99.9300" r="0.8500" /> 
<circle cx="239.6546" cy="97.3900" r="0.8500" /> 
<circle cx="242.1946" cy="97.3900" r="0.8500" /> 
<circle cx="239.6546" cy="94.8500" r="0.8500" /> 
<circle cx="242.1946" cy="94.8500" r="0.8500" /> 
<circle cx="239.6546" cy="92.3100" r="0.8500" /> 
<circle cx="242.1946" cy="92.3100" r="0.8500" /> 
<circle cx="239.6546" cy="89.7700" r="0.8500" /> 
<circle cx="242.1946" cy="89.7700" r="0.8500" /> 
<circle cx="239.6546" cy="87.2300" r="0.8500" /> 
<circle cx="242.1946" cy="87.2300" r="0.8500" /> 
<circle cx="239.6546" cy="84.6900" r="0.8500" /> 
<circle cx="242.1946" cy="84.6900" r="0.8500" /> 
</g>
<g >
</g>
<g >
</g>
<g >
</g>
<g style="fill:#02FFEE; fill-opacity:0.4000; 
stroke:#02FFEE; stroke-width:0.0000; stroke-opacity:1; 
stroke-linecap:round; stroke-linejoin:round;">
<path style="fill:#02FFEE; fill-opacity:0.4000; 
stroke:#02FFEE; stroke-width:0.0000; stroke-opacity:1; 
stroke-linecap:round; stroke-linejoin:round;fill-rule:evenodd;"
d="M 195.1596,50.7250
196.7596,50.7250
196.7596,49.1250
195.1596,49.1250
Z" /> 
<circle cx="195.9596" cy="47.4250" r="0.8000" /> 
</g>
<g style="fill:#02FFEE; fill-opacity:0.4000; 
stroke:#02FFEE; stroke-width:0.0212; stroke-opacity:1; 
stroke-linecap:round; stroke-linejoin:round;">
</g>
<g >
</g>
<g style="fill:#02FFEE; fill-opacity:0.4000; 
stroke:#02FFEE; stroke-width:0.0212; stroke-opacity:1; 
stroke-linecap:round; stroke-linejoin:round;">
</g>
<g style="fill:#02FFEE; fill-opacity:0.4000; 
stroke:#02FFEE; stroke-width:0.0000; stroke-opacity:1; 
stroke-linecap:round; stroke-linejoin:round;">
<path style="fill:#02FFEE; fill-opacity:0.4000; 
stroke:#02FFEE; stroke-width:0.0000; stroke-opacity:1; 
stroke-linecap:round; stroke-linejoin:round;fill-rule:evenodd;"
d="M 214.9596,58.3124
212.9596,58.3124
212.9596,60.3124
214.9596,60.3124
Z" /> 
<circle cx="213.9596" cy="64.3124" r="1.0000" /> 
</g>
<g style="fill:#02FFEE; fill-opacity:0.4000; 
stroke:#02FFEE; stroke-width:0.0212; stroke-opacity:1; 
stroke-linecap:round; stroke-linejoin:round;">
</g>
<g >
</g>
<g >
</g>
<g >
</g>
<g >
</g>
<g >
</g>
</g>
<g style="fill:#000000; fill-opacity:1.0000; 
stroke:#000000; stroke-width:0.0212; stroke-opacity:1; 
stroke-linecap:round; stroke-linejoin:round;">
</g>
<g style="fill:#D0D2CD; fill-opacity:1.0000; 
stroke:#D0D2CD; stroke-width:0.0212; stroke-opacity:1; 
stroke-linecap:round; stroke-linejoin:round;">
</g>
<g style="fill:#D0D2CD; fill-opacity:1.0000; 
stroke:#D0D2CD; stroke-width:0.1000; stroke-opacity:1; 
stroke-linecap:round; stroke-linejoin:round;">
</g>
<g style="fill:#D0D2CD; fill-opacity:0.0; 
stroke:#D0D2CD; stroke-width:0.1000; stroke-opacity:1; 
stroke-linecap:round; stroke-linejoin:round;">
<path d="M246.6546 40.4700
L178.6546 40.4700
" />
<path d="M178.6546 40.4700
L178.6546 119.4700
" />
<path d="M178.6546 119.4700
L246.6546 119.4700
" />
<path d="M246.6546 119.4700
L246.6546 40.4700
" />
<g >
</g>
<g >
</g>
<g >
</g>
<g >
</g>
<g >
</g>
<g >
</g>
<g >
</g>
<g >
</g>
<g >
</g>
<g >
</g>
<g >
</g>
<g >
</g>
<g >
</g>
<g >
</g>
<g >
</g>
<g >
</g>
<g >
</g>
<g >
</g>
<g >
</g>
<g >
</g>
<g >
</g>
<g >
</g>
<g >
</g>
<g >
</g>
<g >
</g>
<g >
</g>
<g >
</g>
<g >
</g>
<g >
</g>
<g >
</g>
<g >
</g>
<g >
</g>
</g> 
</svg>
