G04 #@! TF.GenerationSoftware,KiCad,Pcbnew,(7.0.0)*
G04 #@! TF.CreationDate,2023-06-29T12:31:04-07:00*
G04 #@! TF.ProjectId,bigass_7_segment,62696761-7373-45f3-975f-7365676d656e,B*
G04 #@! TF.SameCoordinates,Original*
G04 #@! TF.FileFunction,Legend,Top*
G04 #@! TF.FilePolarity,Positive*
%FSLAX46Y46*%
G04 Gerber Fmt 4.6, Leading zero omitted, Abs format (unit mm)*
G04 Created by KiCad (PCBNEW (7.0.0)) date 2023-06-29 12:31:04*
%MOMM*%
%LPD*%
G01*
G04 APERTURE LIST*
%ADD10C,0.100000*%
%ADD11C,0.150000*%
%ADD12C,0.300000*%
%ADD13C,0.400000*%
%ADD14C,0.187500*%
%ADD15C,0.120000*%
G04 APERTURE END LIST*
D10*
D11*
X159400000Y-171900000D02*
X267400000Y-171900000D01*
X267400000Y-203900000D01*
X159400000Y-203900000D01*
X159400000Y-171900000D01*
D10*
D11*
X10000000Y-10000000D02*
X269400000Y-10000000D01*
X269400000Y-205900000D01*
X10000000Y-205900000D01*
X10000000Y-10000000D01*
D10*
D11*
X12000000Y-12000000D02*
X267400000Y-12000000D01*
X267400000Y-203900000D01*
X12000000Y-203900000D01*
X12000000Y-12000000D01*
D10*
D11*
X60000000Y-12000000D02*
X60000000Y-10000000D01*
D10*
D11*
X110000000Y-12000000D02*
X110000000Y-10000000D01*
D10*
D11*
X160000000Y-12000000D02*
X160000000Y-10000000D01*
D10*
D11*
X210000000Y-12000000D02*
X210000000Y-10000000D01*
D10*
D11*
X260000000Y-12000000D02*
X260000000Y-10000000D01*
D10*
D11*
X35990476Y-11477595D02*
X35247619Y-11477595D01*
X35619047Y-11477595D02*
X35619047Y-10177595D01*
X35619047Y-10177595D02*
X35495238Y-10363309D01*
X35495238Y-10363309D02*
X35371428Y-10487119D01*
X35371428Y-10487119D02*
X35247619Y-10549023D01*
D10*
D11*
X85247619Y-10301404D02*
X85309523Y-10239500D01*
X85309523Y-10239500D02*
X85433333Y-10177595D01*
X85433333Y-10177595D02*
X85742857Y-10177595D01*
X85742857Y-10177595D02*
X85866666Y-10239500D01*
X85866666Y-10239500D02*
X85928571Y-10301404D01*
X85928571Y-10301404D02*
X85990476Y-10425214D01*
X85990476Y-10425214D02*
X85990476Y-10549023D01*
X85990476Y-10549023D02*
X85928571Y-10734738D01*
X85928571Y-10734738D02*
X85185714Y-11477595D01*
X85185714Y-11477595D02*
X85990476Y-11477595D01*
D10*
D11*
X135185714Y-10177595D02*
X135990476Y-10177595D01*
X135990476Y-10177595D02*
X135557142Y-10672833D01*
X135557142Y-10672833D02*
X135742857Y-10672833D01*
X135742857Y-10672833D02*
X135866666Y-10734738D01*
X135866666Y-10734738D02*
X135928571Y-10796642D01*
X135928571Y-10796642D02*
X135990476Y-10920452D01*
X135990476Y-10920452D02*
X135990476Y-11229976D01*
X135990476Y-11229976D02*
X135928571Y-11353785D01*
X135928571Y-11353785D02*
X135866666Y-11415690D01*
X135866666Y-11415690D02*
X135742857Y-11477595D01*
X135742857Y-11477595D02*
X135371428Y-11477595D01*
X135371428Y-11477595D02*
X135247619Y-11415690D01*
X135247619Y-11415690D02*
X135185714Y-11353785D01*
D10*
D11*
X185866666Y-10610928D02*
X185866666Y-11477595D01*
X185557142Y-10115690D02*
X185247619Y-11044261D01*
X185247619Y-11044261D02*
X186052380Y-11044261D01*
D10*
D11*
X235928571Y-10177595D02*
X235309523Y-10177595D01*
X235309523Y-10177595D02*
X235247619Y-10796642D01*
X235247619Y-10796642D02*
X235309523Y-10734738D01*
X235309523Y-10734738D02*
X235433333Y-10672833D01*
X235433333Y-10672833D02*
X235742857Y-10672833D01*
X235742857Y-10672833D02*
X235866666Y-10734738D01*
X235866666Y-10734738D02*
X235928571Y-10796642D01*
X235928571Y-10796642D02*
X235990476Y-10920452D01*
X235990476Y-10920452D02*
X235990476Y-11229976D01*
X235990476Y-11229976D02*
X235928571Y-11353785D01*
X235928571Y-11353785D02*
X235866666Y-11415690D01*
X235866666Y-11415690D02*
X235742857Y-11477595D01*
X235742857Y-11477595D02*
X235433333Y-11477595D01*
X235433333Y-11477595D02*
X235309523Y-11415690D01*
X235309523Y-11415690D02*
X235247619Y-11353785D01*
D10*
D11*
X60000000Y-203900000D02*
X60000000Y-205900000D01*
D10*
D11*
X110000000Y-203900000D02*
X110000000Y-205900000D01*
D10*
D11*
X160000000Y-203900000D02*
X160000000Y-205900000D01*
D10*
D11*
X210000000Y-203900000D02*
X210000000Y-205900000D01*
D10*
D11*
X260000000Y-203900000D02*
X260000000Y-205900000D01*
D10*
D11*
X35990476Y-205377595D02*
X35247619Y-205377595D01*
X35619047Y-205377595D02*
X35619047Y-204077595D01*
X35619047Y-204077595D02*
X35495238Y-204263309D01*
X35495238Y-204263309D02*
X35371428Y-204387119D01*
X35371428Y-204387119D02*
X35247619Y-204449023D01*
D10*
D11*
X85247619Y-204201404D02*
X85309523Y-204139500D01*
X85309523Y-204139500D02*
X85433333Y-204077595D01*
X85433333Y-204077595D02*
X85742857Y-204077595D01*
X85742857Y-204077595D02*
X85866666Y-204139500D01*
X85866666Y-204139500D02*
X85928571Y-204201404D01*
X85928571Y-204201404D02*
X85990476Y-204325214D01*
X85990476Y-204325214D02*
X85990476Y-204449023D01*
X85990476Y-204449023D02*
X85928571Y-204634738D01*
X85928571Y-204634738D02*
X85185714Y-205377595D01*
X85185714Y-205377595D02*
X85990476Y-205377595D01*
D10*
D11*
X135185714Y-204077595D02*
X135990476Y-204077595D01*
X135990476Y-204077595D02*
X135557142Y-204572833D01*
X135557142Y-204572833D02*
X135742857Y-204572833D01*
X135742857Y-204572833D02*
X135866666Y-204634738D01*
X135866666Y-204634738D02*
X135928571Y-204696642D01*
X135928571Y-204696642D02*
X135990476Y-204820452D01*
X135990476Y-204820452D02*
X135990476Y-205129976D01*
X135990476Y-205129976D02*
X135928571Y-205253785D01*
X135928571Y-205253785D02*
X135866666Y-205315690D01*
X135866666Y-205315690D02*
X135742857Y-205377595D01*
X135742857Y-205377595D02*
X135371428Y-205377595D01*
X135371428Y-205377595D02*
X135247619Y-205315690D01*
X135247619Y-205315690D02*
X135185714Y-205253785D01*
D10*
D11*
X185866666Y-204510928D02*
X185866666Y-205377595D01*
X185557142Y-204015690D02*
X185247619Y-204944261D01*
X185247619Y-204944261D02*
X186052380Y-204944261D01*
D10*
D11*
X235928571Y-204077595D02*
X235309523Y-204077595D01*
X235309523Y-204077595D02*
X235247619Y-204696642D01*
X235247619Y-204696642D02*
X235309523Y-204634738D01*
X235309523Y-204634738D02*
X235433333Y-204572833D01*
X235433333Y-204572833D02*
X235742857Y-204572833D01*
X235742857Y-204572833D02*
X235866666Y-204634738D01*
X235866666Y-204634738D02*
X235928571Y-204696642D01*
X235928571Y-204696642D02*
X235990476Y-204820452D01*
X235990476Y-204820452D02*
X235990476Y-205129976D01*
X235990476Y-205129976D02*
X235928571Y-205253785D01*
X235928571Y-205253785D02*
X235866666Y-205315690D01*
X235866666Y-205315690D02*
X235742857Y-205377595D01*
X235742857Y-205377595D02*
X235433333Y-205377595D01*
X235433333Y-205377595D02*
X235309523Y-205315690D01*
X235309523Y-205315690D02*
X235247619Y-205253785D01*
D10*
D11*
X10000000Y-60000000D02*
X12000000Y-60000000D01*
D10*
D11*
X10000000Y-110000000D02*
X12000000Y-110000000D01*
D10*
D11*
X10000000Y-160000000D02*
X12000000Y-160000000D01*
D10*
D11*
X10690476Y-35106166D02*
X11309523Y-35106166D01*
X10566666Y-35477595D02*
X10999999Y-34177595D01*
X10999999Y-34177595D02*
X11433333Y-35477595D01*
D10*
D11*
X11092857Y-84796642D02*
X11278571Y-84858547D01*
X11278571Y-84858547D02*
X11340476Y-84920452D01*
X11340476Y-84920452D02*
X11402380Y-85044261D01*
X11402380Y-85044261D02*
X11402380Y-85229976D01*
X11402380Y-85229976D02*
X11340476Y-85353785D01*
X11340476Y-85353785D02*
X11278571Y-85415690D01*
X11278571Y-85415690D02*
X11154761Y-85477595D01*
X11154761Y-85477595D02*
X10659523Y-85477595D01*
X10659523Y-85477595D02*
X10659523Y-84177595D01*
X10659523Y-84177595D02*
X11092857Y-84177595D01*
X11092857Y-84177595D02*
X11216666Y-84239500D01*
X11216666Y-84239500D02*
X11278571Y-84301404D01*
X11278571Y-84301404D02*
X11340476Y-84425214D01*
X11340476Y-84425214D02*
X11340476Y-84549023D01*
X11340476Y-84549023D02*
X11278571Y-84672833D01*
X11278571Y-84672833D02*
X11216666Y-84734738D01*
X11216666Y-84734738D02*
X11092857Y-84796642D01*
X11092857Y-84796642D02*
X10659523Y-84796642D01*
D10*
D11*
X11402380Y-135353785D02*
X11340476Y-135415690D01*
X11340476Y-135415690D02*
X11154761Y-135477595D01*
X11154761Y-135477595D02*
X11030952Y-135477595D01*
X11030952Y-135477595D02*
X10845238Y-135415690D01*
X10845238Y-135415690D02*
X10721428Y-135291880D01*
X10721428Y-135291880D02*
X10659523Y-135168071D01*
X10659523Y-135168071D02*
X10597619Y-134920452D01*
X10597619Y-134920452D02*
X10597619Y-134734738D01*
X10597619Y-134734738D02*
X10659523Y-134487119D01*
X10659523Y-134487119D02*
X10721428Y-134363309D01*
X10721428Y-134363309D02*
X10845238Y-134239500D01*
X10845238Y-134239500D02*
X11030952Y-134177595D01*
X11030952Y-134177595D02*
X11154761Y-134177595D01*
X11154761Y-134177595D02*
X11340476Y-134239500D01*
X11340476Y-134239500D02*
X11402380Y-134301404D01*
D10*
D11*
X10659523Y-185477595D02*
X10659523Y-184177595D01*
X10659523Y-184177595D02*
X10969047Y-184177595D01*
X10969047Y-184177595D02*
X11154761Y-184239500D01*
X11154761Y-184239500D02*
X11278571Y-184363309D01*
X11278571Y-184363309D02*
X11340476Y-184487119D01*
X11340476Y-184487119D02*
X11402380Y-184734738D01*
X11402380Y-184734738D02*
X11402380Y-184920452D01*
X11402380Y-184920452D02*
X11340476Y-185168071D01*
X11340476Y-185168071D02*
X11278571Y-185291880D01*
X11278571Y-185291880D02*
X11154761Y-185415690D01*
X11154761Y-185415690D02*
X10969047Y-185477595D01*
X10969047Y-185477595D02*
X10659523Y-185477595D01*
D10*
D11*
X269400000Y-60000000D02*
X267400000Y-60000000D01*
D10*
D11*
X269400000Y-110000000D02*
X267400000Y-110000000D01*
D10*
D11*
X269400000Y-160000000D02*
X267400000Y-160000000D01*
D10*
D11*
X268090476Y-35106166D02*
X268709523Y-35106166D01*
X267966666Y-35477595D02*
X268399999Y-34177595D01*
X268399999Y-34177595D02*
X268833333Y-35477595D01*
D10*
D11*
X268492857Y-84796642D02*
X268678571Y-84858547D01*
X268678571Y-84858547D02*
X268740476Y-84920452D01*
X268740476Y-84920452D02*
X268802380Y-85044261D01*
X268802380Y-85044261D02*
X268802380Y-85229976D01*
X268802380Y-85229976D02*
X268740476Y-85353785D01*
X268740476Y-85353785D02*
X268678571Y-85415690D01*
X268678571Y-85415690D02*
X268554761Y-85477595D01*
X268554761Y-85477595D02*
X268059523Y-85477595D01*
X268059523Y-85477595D02*
X268059523Y-84177595D01*
X268059523Y-84177595D02*
X268492857Y-84177595D01*
X268492857Y-84177595D02*
X268616666Y-84239500D01*
X268616666Y-84239500D02*
X268678571Y-84301404D01*
X268678571Y-84301404D02*
X268740476Y-84425214D01*
X268740476Y-84425214D02*
X268740476Y-84549023D01*
X268740476Y-84549023D02*
X268678571Y-84672833D01*
X268678571Y-84672833D02*
X268616666Y-84734738D01*
X268616666Y-84734738D02*
X268492857Y-84796642D01*
X268492857Y-84796642D02*
X268059523Y-84796642D01*
D10*
D11*
X268802380Y-135353785D02*
X268740476Y-135415690D01*
X268740476Y-135415690D02*
X268554761Y-135477595D01*
X268554761Y-135477595D02*
X268430952Y-135477595D01*
X268430952Y-135477595D02*
X268245238Y-135415690D01*
X268245238Y-135415690D02*
X268121428Y-135291880D01*
X268121428Y-135291880D02*
X268059523Y-135168071D01*
X268059523Y-135168071D02*
X267997619Y-134920452D01*
X267997619Y-134920452D02*
X267997619Y-134734738D01*
X267997619Y-134734738D02*
X268059523Y-134487119D01*
X268059523Y-134487119D02*
X268121428Y-134363309D01*
X268121428Y-134363309D02*
X268245238Y-134239500D01*
X268245238Y-134239500D02*
X268430952Y-134177595D01*
X268430952Y-134177595D02*
X268554761Y-134177595D01*
X268554761Y-134177595D02*
X268740476Y-134239500D01*
X268740476Y-134239500D02*
X268802380Y-134301404D01*
D10*
D11*
X268059523Y-185477595D02*
X268059523Y-184177595D01*
X268059523Y-184177595D02*
X268369047Y-184177595D01*
X268369047Y-184177595D02*
X268554761Y-184239500D01*
X268554761Y-184239500D02*
X268678571Y-184363309D01*
X268678571Y-184363309D02*
X268740476Y-184487119D01*
X268740476Y-184487119D02*
X268802380Y-184734738D01*
X268802380Y-184734738D02*
X268802380Y-184920452D01*
X268802380Y-184920452D02*
X268740476Y-185168071D01*
X268740476Y-185168071D02*
X268678571Y-185291880D01*
X268678571Y-185291880D02*
X268554761Y-185415690D01*
X268554761Y-185415690D02*
X268369047Y-185477595D01*
X268369047Y-185477595D02*
X268059523Y-185477595D01*
D10*
D11*
X182757142Y-199551071D02*
X182757142Y-198051071D01*
X182757142Y-198051071D02*
X183114285Y-198051071D01*
X183114285Y-198051071D02*
X183328571Y-198122500D01*
X183328571Y-198122500D02*
X183471428Y-198265357D01*
X183471428Y-198265357D02*
X183542857Y-198408214D01*
X183542857Y-198408214D02*
X183614285Y-198693928D01*
X183614285Y-198693928D02*
X183614285Y-198908214D01*
X183614285Y-198908214D02*
X183542857Y-199193928D01*
X183542857Y-199193928D02*
X183471428Y-199336785D01*
X183471428Y-199336785D02*
X183328571Y-199479642D01*
X183328571Y-199479642D02*
X183114285Y-199551071D01*
X183114285Y-199551071D02*
X182757142Y-199551071D01*
X184900000Y-199551071D02*
X184900000Y-198765357D01*
X184900000Y-198765357D02*
X184828571Y-198622500D01*
X184828571Y-198622500D02*
X184685714Y-198551071D01*
X184685714Y-198551071D02*
X184400000Y-198551071D01*
X184400000Y-198551071D02*
X184257142Y-198622500D01*
X184900000Y-199479642D02*
X184757142Y-199551071D01*
X184757142Y-199551071D02*
X184400000Y-199551071D01*
X184400000Y-199551071D02*
X184257142Y-199479642D01*
X184257142Y-199479642D02*
X184185714Y-199336785D01*
X184185714Y-199336785D02*
X184185714Y-199193928D01*
X184185714Y-199193928D02*
X184257142Y-199051071D01*
X184257142Y-199051071D02*
X184400000Y-198979642D01*
X184400000Y-198979642D02*
X184757142Y-198979642D01*
X184757142Y-198979642D02*
X184900000Y-198908214D01*
X185400000Y-198551071D02*
X185971428Y-198551071D01*
X185614285Y-198051071D02*
X185614285Y-199336785D01*
X185614285Y-199336785D02*
X185685714Y-199479642D01*
X185685714Y-199479642D02*
X185828571Y-199551071D01*
X185828571Y-199551071D02*
X185971428Y-199551071D01*
X187042857Y-199479642D02*
X186900000Y-199551071D01*
X186900000Y-199551071D02*
X186614286Y-199551071D01*
X186614286Y-199551071D02*
X186471428Y-199479642D01*
X186471428Y-199479642D02*
X186400000Y-199336785D01*
X186400000Y-199336785D02*
X186400000Y-198765357D01*
X186400000Y-198765357D02*
X186471428Y-198622500D01*
X186471428Y-198622500D02*
X186614286Y-198551071D01*
X186614286Y-198551071D02*
X186900000Y-198551071D01*
X186900000Y-198551071D02*
X187042857Y-198622500D01*
X187042857Y-198622500D02*
X187114286Y-198765357D01*
X187114286Y-198765357D02*
X187114286Y-198908214D01*
X187114286Y-198908214D02*
X186400000Y-199051071D01*
X187757142Y-199408214D02*
X187828571Y-199479642D01*
X187828571Y-199479642D02*
X187757142Y-199551071D01*
X187757142Y-199551071D02*
X187685714Y-199479642D01*
X187685714Y-199479642D02*
X187757142Y-199408214D01*
X187757142Y-199408214D02*
X187757142Y-199551071D01*
X187757142Y-198622500D02*
X187828571Y-198693928D01*
X187828571Y-198693928D02*
X187757142Y-198765357D01*
X187757142Y-198765357D02*
X187685714Y-198693928D01*
X187685714Y-198693928D02*
X187757142Y-198622500D01*
X187757142Y-198622500D02*
X187757142Y-198765357D01*
X189300000Y-198193928D02*
X189371428Y-198122500D01*
X189371428Y-198122500D02*
X189514286Y-198051071D01*
X189514286Y-198051071D02*
X189871428Y-198051071D01*
X189871428Y-198051071D02*
X190014286Y-198122500D01*
X190014286Y-198122500D02*
X190085714Y-198193928D01*
X190085714Y-198193928D02*
X190157143Y-198336785D01*
X190157143Y-198336785D02*
X190157143Y-198479642D01*
X190157143Y-198479642D02*
X190085714Y-198693928D01*
X190085714Y-198693928D02*
X189228571Y-199551071D01*
X189228571Y-199551071D02*
X190157143Y-199551071D01*
X191085714Y-198051071D02*
X191228571Y-198051071D01*
X191228571Y-198051071D02*
X191371428Y-198122500D01*
X191371428Y-198122500D02*
X191442857Y-198193928D01*
X191442857Y-198193928D02*
X191514285Y-198336785D01*
X191514285Y-198336785D02*
X191585714Y-198622500D01*
X191585714Y-198622500D02*
X191585714Y-198979642D01*
X191585714Y-198979642D02*
X191514285Y-199265357D01*
X191514285Y-199265357D02*
X191442857Y-199408214D01*
X191442857Y-199408214D02*
X191371428Y-199479642D01*
X191371428Y-199479642D02*
X191228571Y-199551071D01*
X191228571Y-199551071D02*
X191085714Y-199551071D01*
X191085714Y-199551071D02*
X190942857Y-199479642D01*
X190942857Y-199479642D02*
X190871428Y-199408214D01*
X190871428Y-199408214D02*
X190799999Y-199265357D01*
X190799999Y-199265357D02*
X190728571Y-198979642D01*
X190728571Y-198979642D02*
X190728571Y-198622500D01*
X190728571Y-198622500D02*
X190799999Y-198336785D01*
X190799999Y-198336785D02*
X190871428Y-198193928D01*
X190871428Y-198193928D02*
X190942857Y-198122500D01*
X190942857Y-198122500D02*
X191085714Y-198051071D01*
X192157142Y-198193928D02*
X192228570Y-198122500D01*
X192228570Y-198122500D02*
X192371428Y-198051071D01*
X192371428Y-198051071D02*
X192728570Y-198051071D01*
X192728570Y-198051071D02*
X192871428Y-198122500D01*
X192871428Y-198122500D02*
X192942856Y-198193928D01*
X192942856Y-198193928D02*
X193014285Y-198336785D01*
X193014285Y-198336785D02*
X193014285Y-198479642D01*
X193014285Y-198479642D02*
X192942856Y-198693928D01*
X192942856Y-198693928D02*
X192085713Y-199551071D01*
X192085713Y-199551071D02*
X193014285Y-199551071D01*
X193514284Y-198051071D02*
X194442856Y-198051071D01*
X194442856Y-198051071D02*
X193942856Y-198622500D01*
X193942856Y-198622500D02*
X194157141Y-198622500D01*
X194157141Y-198622500D02*
X194299999Y-198693928D01*
X194299999Y-198693928D02*
X194371427Y-198765357D01*
X194371427Y-198765357D02*
X194442856Y-198908214D01*
X194442856Y-198908214D02*
X194442856Y-199265357D01*
X194442856Y-199265357D02*
X194371427Y-199408214D01*
X194371427Y-199408214D02*
X194299999Y-199479642D01*
X194299999Y-199479642D02*
X194157141Y-199551071D01*
X194157141Y-199551071D02*
X193728570Y-199551071D01*
X193728570Y-199551071D02*
X193585713Y-199479642D01*
X193585713Y-199479642D02*
X193514284Y-199408214D01*
X195085712Y-198979642D02*
X196228570Y-198979642D01*
X197228570Y-198051071D02*
X197371427Y-198051071D01*
X197371427Y-198051071D02*
X197514284Y-198122500D01*
X197514284Y-198122500D02*
X197585713Y-198193928D01*
X197585713Y-198193928D02*
X197657141Y-198336785D01*
X197657141Y-198336785D02*
X197728570Y-198622500D01*
X197728570Y-198622500D02*
X197728570Y-198979642D01*
X197728570Y-198979642D02*
X197657141Y-199265357D01*
X197657141Y-199265357D02*
X197585713Y-199408214D01*
X197585713Y-199408214D02*
X197514284Y-199479642D01*
X197514284Y-199479642D02*
X197371427Y-199551071D01*
X197371427Y-199551071D02*
X197228570Y-199551071D01*
X197228570Y-199551071D02*
X197085713Y-199479642D01*
X197085713Y-199479642D02*
X197014284Y-199408214D01*
X197014284Y-199408214D02*
X196942855Y-199265357D01*
X196942855Y-199265357D02*
X196871427Y-198979642D01*
X196871427Y-198979642D02*
X196871427Y-198622500D01*
X196871427Y-198622500D02*
X196942855Y-198336785D01*
X196942855Y-198336785D02*
X197014284Y-198193928D01*
X197014284Y-198193928D02*
X197085713Y-198122500D01*
X197085713Y-198122500D02*
X197228570Y-198051071D01*
X199014284Y-198051071D02*
X198728569Y-198051071D01*
X198728569Y-198051071D02*
X198585712Y-198122500D01*
X198585712Y-198122500D02*
X198514284Y-198193928D01*
X198514284Y-198193928D02*
X198371426Y-198408214D01*
X198371426Y-198408214D02*
X198299998Y-198693928D01*
X198299998Y-198693928D02*
X198299998Y-199265357D01*
X198299998Y-199265357D02*
X198371426Y-199408214D01*
X198371426Y-199408214D02*
X198442855Y-199479642D01*
X198442855Y-199479642D02*
X198585712Y-199551071D01*
X198585712Y-199551071D02*
X198871426Y-199551071D01*
X198871426Y-199551071D02*
X199014284Y-199479642D01*
X199014284Y-199479642D02*
X199085712Y-199408214D01*
X199085712Y-199408214D02*
X199157141Y-199265357D01*
X199157141Y-199265357D02*
X199157141Y-198908214D01*
X199157141Y-198908214D02*
X199085712Y-198765357D01*
X199085712Y-198765357D02*
X199014284Y-198693928D01*
X199014284Y-198693928D02*
X198871426Y-198622500D01*
X198871426Y-198622500D02*
X198585712Y-198622500D01*
X198585712Y-198622500D02*
X198442855Y-198693928D01*
X198442855Y-198693928D02*
X198371426Y-198765357D01*
X198371426Y-198765357D02*
X198299998Y-198908214D01*
X199799997Y-198979642D02*
X200942855Y-198979642D01*
X201585712Y-198193928D02*
X201657140Y-198122500D01*
X201657140Y-198122500D02*
X201799998Y-198051071D01*
X201799998Y-198051071D02*
X202157140Y-198051071D01*
X202157140Y-198051071D02*
X202299998Y-198122500D01*
X202299998Y-198122500D02*
X202371426Y-198193928D01*
X202371426Y-198193928D02*
X202442855Y-198336785D01*
X202442855Y-198336785D02*
X202442855Y-198479642D01*
X202442855Y-198479642D02*
X202371426Y-198693928D01*
X202371426Y-198693928D02*
X201514283Y-199551071D01*
X201514283Y-199551071D02*
X202442855Y-199551071D01*
X203157140Y-199551071D02*
X203442854Y-199551071D01*
X203442854Y-199551071D02*
X203585711Y-199479642D01*
X203585711Y-199479642D02*
X203657140Y-199408214D01*
X203657140Y-199408214D02*
X203799997Y-199193928D01*
X203799997Y-199193928D02*
X203871426Y-198908214D01*
X203871426Y-198908214D02*
X203871426Y-198336785D01*
X203871426Y-198336785D02*
X203799997Y-198193928D01*
X203799997Y-198193928D02*
X203728569Y-198122500D01*
X203728569Y-198122500D02*
X203585711Y-198051071D01*
X203585711Y-198051071D02*
X203299997Y-198051071D01*
X203299997Y-198051071D02*
X203157140Y-198122500D01*
X203157140Y-198122500D02*
X203085711Y-198193928D01*
X203085711Y-198193928D02*
X203014283Y-198336785D01*
X203014283Y-198336785D02*
X203014283Y-198693928D01*
X203014283Y-198693928D02*
X203085711Y-198836785D01*
X203085711Y-198836785D02*
X203157140Y-198908214D01*
X203157140Y-198908214D02*
X203299997Y-198979642D01*
X203299997Y-198979642D02*
X203585711Y-198979642D01*
X203585711Y-198979642D02*
X203728569Y-198908214D01*
X203728569Y-198908214D02*
X203799997Y-198836785D01*
X203799997Y-198836785D02*
X203871426Y-198693928D01*
D10*
D11*
X159400000Y-200400000D02*
X267400000Y-200400000D01*
D10*
D11*
X160757142Y-202351071D02*
X160757142Y-200851071D01*
X161614285Y-202351071D02*
X160971428Y-201493928D01*
X161614285Y-200851071D02*
X160757142Y-201708214D01*
X162257142Y-202351071D02*
X162257142Y-201351071D01*
X162257142Y-200851071D02*
X162185714Y-200922500D01*
X162185714Y-200922500D02*
X162257142Y-200993928D01*
X162257142Y-200993928D02*
X162328571Y-200922500D01*
X162328571Y-200922500D02*
X162257142Y-200851071D01*
X162257142Y-200851071D02*
X162257142Y-200993928D01*
X163828571Y-202208214D02*
X163757143Y-202279642D01*
X163757143Y-202279642D02*
X163542857Y-202351071D01*
X163542857Y-202351071D02*
X163400000Y-202351071D01*
X163400000Y-202351071D02*
X163185714Y-202279642D01*
X163185714Y-202279642D02*
X163042857Y-202136785D01*
X163042857Y-202136785D02*
X162971428Y-201993928D01*
X162971428Y-201993928D02*
X162900000Y-201708214D01*
X162900000Y-201708214D02*
X162900000Y-201493928D01*
X162900000Y-201493928D02*
X162971428Y-201208214D01*
X162971428Y-201208214D02*
X163042857Y-201065357D01*
X163042857Y-201065357D02*
X163185714Y-200922500D01*
X163185714Y-200922500D02*
X163400000Y-200851071D01*
X163400000Y-200851071D02*
X163542857Y-200851071D01*
X163542857Y-200851071D02*
X163757143Y-200922500D01*
X163757143Y-200922500D02*
X163828571Y-200993928D01*
X165114286Y-202351071D02*
X165114286Y-201565357D01*
X165114286Y-201565357D02*
X165042857Y-201422500D01*
X165042857Y-201422500D02*
X164900000Y-201351071D01*
X164900000Y-201351071D02*
X164614286Y-201351071D01*
X164614286Y-201351071D02*
X164471428Y-201422500D01*
X165114286Y-202279642D02*
X164971428Y-202351071D01*
X164971428Y-202351071D02*
X164614286Y-202351071D01*
X164614286Y-202351071D02*
X164471428Y-202279642D01*
X164471428Y-202279642D02*
X164400000Y-202136785D01*
X164400000Y-202136785D02*
X164400000Y-201993928D01*
X164400000Y-201993928D02*
X164471428Y-201851071D01*
X164471428Y-201851071D02*
X164614286Y-201779642D01*
X164614286Y-201779642D02*
X164971428Y-201779642D01*
X164971428Y-201779642D02*
X165114286Y-201708214D01*
X166471429Y-202351071D02*
X166471429Y-200851071D01*
X166471429Y-202279642D02*
X166328571Y-202351071D01*
X166328571Y-202351071D02*
X166042857Y-202351071D01*
X166042857Y-202351071D02*
X165900000Y-202279642D01*
X165900000Y-202279642D02*
X165828571Y-202208214D01*
X165828571Y-202208214D02*
X165757143Y-202065357D01*
X165757143Y-202065357D02*
X165757143Y-201636785D01*
X165757143Y-201636785D02*
X165828571Y-201493928D01*
X165828571Y-201493928D02*
X165900000Y-201422500D01*
X165900000Y-201422500D02*
X166042857Y-201351071D01*
X166042857Y-201351071D02*
X166328571Y-201351071D01*
X166328571Y-201351071D02*
X166471429Y-201422500D01*
X168085714Y-201565357D02*
X168585714Y-201565357D01*
X168800000Y-202351071D02*
X168085714Y-202351071D01*
X168085714Y-202351071D02*
X168085714Y-200851071D01*
X168085714Y-200851071D02*
X168800000Y-200851071D01*
X169442857Y-202208214D02*
X169514286Y-202279642D01*
X169514286Y-202279642D02*
X169442857Y-202351071D01*
X169442857Y-202351071D02*
X169371429Y-202279642D01*
X169371429Y-202279642D02*
X169442857Y-202208214D01*
X169442857Y-202208214D02*
X169442857Y-202351071D01*
X170157143Y-202351071D02*
X170157143Y-200851071D01*
X170157143Y-200851071D02*
X170514286Y-200851071D01*
X170514286Y-200851071D02*
X170728572Y-200922500D01*
X170728572Y-200922500D02*
X170871429Y-201065357D01*
X170871429Y-201065357D02*
X170942858Y-201208214D01*
X170942858Y-201208214D02*
X171014286Y-201493928D01*
X171014286Y-201493928D02*
X171014286Y-201708214D01*
X171014286Y-201708214D02*
X170942858Y-201993928D01*
X170942858Y-201993928D02*
X170871429Y-202136785D01*
X170871429Y-202136785D02*
X170728572Y-202279642D01*
X170728572Y-202279642D02*
X170514286Y-202351071D01*
X170514286Y-202351071D02*
X170157143Y-202351071D01*
X171657143Y-202208214D02*
X171728572Y-202279642D01*
X171728572Y-202279642D02*
X171657143Y-202351071D01*
X171657143Y-202351071D02*
X171585715Y-202279642D01*
X171585715Y-202279642D02*
X171657143Y-202208214D01*
X171657143Y-202208214D02*
X171657143Y-202351071D01*
X172300001Y-201922500D02*
X173014287Y-201922500D01*
X172157144Y-202351071D02*
X172657144Y-200851071D01*
X172657144Y-200851071D02*
X173157144Y-202351071D01*
X173657143Y-202208214D02*
X173728572Y-202279642D01*
X173728572Y-202279642D02*
X173657143Y-202351071D01*
X173657143Y-202351071D02*
X173585715Y-202279642D01*
X173585715Y-202279642D02*
X173657143Y-202208214D01*
X173657143Y-202208214D02*
X173657143Y-202351071D01*
X176171429Y-202351071D02*
X176171429Y-200851071D01*
X176314287Y-201779642D02*
X176742858Y-202351071D01*
X176742858Y-201351071D02*
X176171429Y-201922500D01*
X177385715Y-202351071D02*
X177385715Y-201351071D01*
X177385715Y-200851071D02*
X177314287Y-200922500D01*
X177314287Y-200922500D02*
X177385715Y-200993928D01*
X177385715Y-200993928D02*
X177457144Y-200922500D01*
X177457144Y-200922500D02*
X177385715Y-200851071D01*
X177385715Y-200851071D02*
X177385715Y-200993928D01*
X178742859Y-202279642D02*
X178600001Y-202351071D01*
X178600001Y-202351071D02*
X178314287Y-202351071D01*
X178314287Y-202351071D02*
X178171430Y-202279642D01*
X178171430Y-202279642D02*
X178100001Y-202208214D01*
X178100001Y-202208214D02*
X178028573Y-202065357D01*
X178028573Y-202065357D02*
X178028573Y-201636785D01*
X178028573Y-201636785D02*
X178100001Y-201493928D01*
X178100001Y-201493928D02*
X178171430Y-201422500D01*
X178171430Y-201422500D02*
X178314287Y-201351071D01*
X178314287Y-201351071D02*
X178600001Y-201351071D01*
X178600001Y-201351071D02*
X178742859Y-201422500D01*
X180028573Y-202351071D02*
X180028573Y-201565357D01*
X180028573Y-201565357D02*
X179957144Y-201422500D01*
X179957144Y-201422500D02*
X179814287Y-201351071D01*
X179814287Y-201351071D02*
X179528573Y-201351071D01*
X179528573Y-201351071D02*
X179385715Y-201422500D01*
X180028573Y-202279642D02*
X179885715Y-202351071D01*
X179885715Y-202351071D02*
X179528573Y-202351071D01*
X179528573Y-202351071D02*
X179385715Y-202279642D01*
X179385715Y-202279642D02*
X179314287Y-202136785D01*
X179314287Y-202136785D02*
X179314287Y-201993928D01*
X179314287Y-201993928D02*
X179385715Y-201851071D01*
X179385715Y-201851071D02*
X179528573Y-201779642D01*
X179528573Y-201779642D02*
X179885715Y-201779642D01*
X179885715Y-201779642D02*
X180028573Y-201708214D01*
X181385716Y-202351071D02*
X181385716Y-200851071D01*
X181385716Y-202279642D02*
X181242858Y-202351071D01*
X181242858Y-202351071D02*
X180957144Y-202351071D01*
X180957144Y-202351071D02*
X180814287Y-202279642D01*
X180814287Y-202279642D02*
X180742858Y-202208214D01*
X180742858Y-202208214D02*
X180671430Y-202065357D01*
X180671430Y-202065357D02*
X180671430Y-201636785D01*
X180671430Y-201636785D02*
X180742858Y-201493928D01*
X180742858Y-201493928D02*
X180814287Y-201422500D01*
X180814287Y-201422500D02*
X180957144Y-201351071D01*
X180957144Y-201351071D02*
X181242858Y-201351071D01*
X181242858Y-201351071D02*
X181385716Y-201422500D01*
X183428573Y-202922500D02*
X183357144Y-202851071D01*
X183357144Y-202851071D02*
X183214287Y-202636785D01*
X183214287Y-202636785D02*
X183142859Y-202493928D01*
X183142859Y-202493928D02*
X183071430Y-202279642D01*
X183071430Y-202279642D02*
X183000001Y-201922500D01*
X183000001Y-201922500D02*
X183000001Y-201636785D01*
X183000001Y-201636785D02*
X183071430Y-201279642D01*
X183071430Y-201279642D02*
X183142859Y-201065357D01*
X183142859Y-201065357D02*
X183214287Y-200922500D01*
X183214287Y-200922500D02*
X183357144Y-200708214D01*
X183357144Y-200708214D02*
X183428573Y-200636785D01*
X183857144Y-200851071D02*
X184857144Y-200851071D01*
X184857144Y-200851071D02*
X184214287Y-202351071D01*
X185428572Y-202208214D02*
X185500001Y-202279642D01*
X185500001Y-202279642D02*
X185428572Y-202351071D01*
X185428572Y-202351071D02*
X185357144Y-202279642D01*
X185357144Y-202279642D02*
X185428572Y-202208214D01*
X185428572Y-202208214D02*
X185428572Y-202351071D01*
X186428573Y-200851071D02*
X186571430Y-200851071D01*
X186571430Y-200851071D02*
X186714287Y-200922500D01*
X186714287Y-200922500D02*
X186785716Y-200993928D01*
X186785716Y-200993928D02*
X186857144Y-201136785D01*
X186857144Y-201136785D02*
X186928573Y-201422500D01*
X186928573Y-201422500D02*
X186928573Y-201779642D01*
X186928573Y-201779642D02*
X186857144Y-202065357D01*
X186857144Y-202065357D02*
X186785716Y-202208214D01*
X186785716Y-202208214D02*
X186714287Y-202279642D01*
X186714287Y-202279642D02*
X186571430Y-202351071D01*
X186571430Y-202351071D02*
X186428573Y-202351071D01*
X186428573Y-202351071D02*
X186285716Y-202279642D01*
X186285716Y-202279642D02*
X186214287Y-202208214D01*
X186214287Y-202208214D02*
X186142858Y-202065357D01*
X186142858Y-202065357D02*
X186071430Y-201779642D01*
X186071430Y-201779642D02*
X186071430Y-201422500D01*
X186071430Y-201422500D02*
X186142858Y-201136785D01*
X186142858Y-201136785D02*
X186214287Y-200993928D01*
X186214287Y-200993928D02*
X186285716Y-200922500D01*
X186285716Y-200922500D02*
X186428573Y-200851071D01*
X187571429Y-202208214D02*
X187642858Y-202279642D01*
X187642858Y-202279642D02*
X187571429Y-202351071D01*
X187571429Y-202351071D02*
X187500001Y-202279642D01*
X187500001Y-202279642D02*
X187571429Y-202208214D01*
X187571429Y-202208214D02*
X187571429Y-202351071D01*
X188571430Y-200851071D02*
X188714287Y-200851071D01*
X188714287Y-200851071D02*
X188857144Y-200922500D01*
X188857144Y-200922500D02*
X188928573Y-200993928D01*
X188928573Y-200993928D02*
X189000001Y-201136785D01*
X189000001Y-201136785D02*
X189071430Y-201422500D01*
X189071430Y-201422500D02*
X189071430Y-201779642D01*
X189071430Y-201779642D02*
X189000001Y-202065357D01*
X189000001Y-202065357D02*
X188928573Y-202208214D01*
X188928573Y-202208214D02*
X188857144Y-202279642D01*
X188857144Y-202279642D02*
X188714287Y-202351071D01*
X188714287Y-202351071D02*
X188571430Y-202351071D01*
X188571430Y-202351071D02*
X188428573Y-202279642D01*
X188428573Y-202279642D02*
X188357144Y-202208214D01*
X188357144Y-202208214D02*
X188285715Y-202065357D01*
X188285715Y-202065357D02*
X188214287Y-201779642D01*
X188214287Y-201779642D02*
X188214287Y-201422500D01*
X188214287Y-201422500D02*
X188285715Y-201136785D01*
X188285715Y-201136785D02*
X188357144Y-200993928D01*
X188357144Y-200993928D02*
X188428573Y-200922500D01*
X188428573Y-200922500D02*
X188571430Y-200851071D01*
X189571429Y-202922500D02*
X189642858Y-202851071D01*
X189642858Y-202851071D02*
X189785715Y-202636785D01*
X189785715Y-202636785D02*
X189857144Y-202493928D01*
X189857144Y-202493928D02*
X189928572Y-202279642D01*
X189928572Y-202279642D02*
X190000001Y-201922500D01*
X190000001Y-201922500D02*
X190000001Y-201636785D01*
X190000001Y-201636785D02*
X189928572Y-201279642D01*
X189928572Y-201279642D02*
X189857144Y-201065357D01*
X189857144Y-201065357D02*
X189785715Y-200922500D01*
X189785715Y-200922500D02*
X189642858Y-200708214D01*
X189642858Y-200708214D02*
X189571429Y-200636785D01*
D10*
D11*
X159400000Y-197400000D02*
X267400000Y-197400000D01*
D10*
D12*
X246614285Y-199551071D02*
X246114285Y-198836785D01*
X245757142Y-199551071D02*
X245757142Y-198051071D01*
X245757142Y-198051071D02*
X246328571Y-198051071D01*
X246328571Y-198051071D02*
X246471428Y-198122500D01*
X246471428Y-198122500D02*
X246542857Y-198193928D01*
X246542857Y-198193928D02*
X246614285Y-198336785D01*
X246614285Y-198336785D02*
X246614285Y-198551071D01*
X246614285Y-198551071D02*
X246542857Y-198693928D01*
X246542857Y-198693928D02*
X246471428Y-198765357D01*
X246471428Y-198765357D02*
X246328571Y-198836785D01*
X246328571Y-198836785D02*
X245757142Y-198836785D01*
X247828571Y-199479642D02*
X247685714Y-199551071D01*
X247685714Y-199551071D02*
X247400000Y-199551071D01*
X247400000Y-199551071D02*
X247257142Y-199479642D01*
X247257142Y-199479642D02*
X247185714Y-199336785D01*
X247185714Y-199336785D02*
X247185714Y-198765357D01*
X247185714Y-198765357D02*
X247257142Y-198622500D01*
X247257142Y-198622500D02*
X247400000Y-198551071D01*
X247400000Y-198551071D02*
X247685714Y-198551071D01*
X247685714Y-198551071D02*
X247828571Y-198622500D01*
X247828571Y-198622500D02*
X247900000Y-198765357D01*
X247900000Y-198765357D02*
X247900000Y-198908214D01*
X247900000Y-198908214D02*
X247185714Y-199051071D01*
X248399999Y-198551071D02*
X248757142Y-199551071D01*
X248757142Y-199551071D02*
X249114285Y-198551071D01*
X249685713Y-199408214D02*
X249757142Y-199479642D01*
X249757142Y-199479642D02*
X249685713Y-199551071D01*
X249685713Y-199551071D02*
X249614285Y-199479642D01*
X249614285Y-199479642D02*
X249685713Y-199408214D01*
X249685713Y-199408214D02*
X249685713Y-199551071D01*
X249685713Y-198622500D02*
X249757142Y-198693928D01*
X249757142Y-198693928D02*
X249685713Y-198765357D01*
X249685713Y-198765357D02*
X249614285Y-198693928D01*
X249614285Y-198693928D02*
X249685713Y-198622500D01*
X249685713Y-198622500D02*
X249685713Y-198765357D01*
X251799999Y-198765357D02*
X252014285Y-198836785D01*
X252014285Y-198836785D02*
X252085714Y-198908214D01*
X252085714Y-198908214D02*
X252157142Y-199051071D01*
X252157142Y-199051071D02*
X252157142Y-199265357D01*
X252157142Y-199265357D02*
X252085714Y-199408214D01*
X252085714Y-199408214D02*
X252014285Y-199479642D01*
X252014285Y-199479642D02*
X251871428Y-199551071D01*
X251871428Y-199551071D02*
X251299999Y-199551071D01*
X251299999Y-199551071D02*
X251299999Y-198051071D01*
X251299999Y-198051071D02*
X251799999Y-198051071D01*
X251799999Y-198051071D02*
X251942857Y-198122500D01*
X251942857Y-198122500D02*
X252014285Y-198193928D01*
X252014285Y-198193928D02*
X252085714Y-198336785D01*
X252085714Y-198336785D02*
X252085714Y-198479642D01*
X252085714Y-198479642D02*
X252014285Y-198622500D01*
X252014285Y-198622500D02*
X251942857Y-198693928D01*
X251942857Y-198693928D02*
X251799999Y-198765357D01*
X251799999Y-198765357D02*
X251299999Y-198765357D01*
D10*
D11*
X160685714Y-199479642D02*
X160900000Y-199551071D01*
X160900000Y-199551071D02*
X161257142Y-199551071D01*
X161257142Y-199551071D02*
X161400000Y-199479642D01*
X161400000Y-199479642D02*
X161471428Y-199408214D01*
X161471428Y-199408214D02*
X161542857Y-199265357D01*
X161542857Y-199265357D02*
X161542857Y-199122500D01*
X161542857Y-199122500D02*
X161471428Y-198979642D01*
X161471428Y-198979642D02*
X161400000Y-198908214D01*
X161400000Y-198908214D02*
X161257142Y-198836785D01*
X161257142Y-198836785D02*
X160971428Y-198765357D01*
X160971428Y-198765357D02*
X160828571Y-198693928D01*
X160828571Y-198693928D02*
X160757142Y-198622500D01*
X160757142Y-198622500D02*
X160685714Y-198479642D01*
X160685714Y-198479642D02*
X160685714Y-198336785D01*
X160685714Y-198336785D02*
X160757142Y-198193928D01*
X160757142Y-198193928D02*
X160828571Y-198122500D01*
X160828571Y-198122500D02*
X160971428Y-198051071D01*
X160971428Y-198051071D02*
X161328571Y-198051071D01*
X161328571Y-198051071D02*
X161542857Y-198122500D01*
X162185713Y-199551071D02*
X162185713Y-198551071D01*
X162185713Y-198051071D02*
X162114285Y-198122500D01*
X162114285Y-198122500D02*
X162185713Y-198193928D01*
X162185713Y-198193928D02*
X162257142Y-198122500D01*
X162257142Y-198122500D02*
X162185713Y-198051071D01*
X162185713Y-198051071D02*
X162185713Y-198193928D01*
X162757142Y-198551071D02*
X163542857Y-198551071D01*
X163542857Y-198551071D02*
X162757142Y-199551071D01*
X162757142Y-199551071D02*
X163542857Y-199551071D01*
X164685714Y-199479642D02*
X164542857Y-199551071D01*
X164542857Y-199551071D02*
X164257143Y-199551071D01*
X164257143Y-199551071D02*
X164114285Y-199479642D01*
X164114285Y-199479642D02*
X164042857Y-199336785D01*
X164042857Y-199336785D02*
X164042857Y-198765357D01*
X164042857Y-198765357D02*
X164114285Y-198622500D01*
X164114285Y-198622500D02*
X164257143Y-198551071D01*
X164257143Y-198551071D02*
X164542857Y-198551071D01*
X164542857Y-198551071D02*
X164685714Y-198622500D01*
X164685714Y-198622500D02*
X164757143Y-198765357D01*
X164757143Y-198765357D02*
X164757143Y-198908214D01*
X164757143Y-198908214D02*
X164042857Y-199051071D01*
X165399999Y-199408214D02*
X165471428Y-199479642D01*
X165471428Y-199479642D02*
X165399999Y-199551071D01*
X165399999Y-199551071D02*
X165328571Y-199479642D01*
X165328571Y-199479642D02*
X165399999Y-199408214D01*
X165399999Y-199408214D02*
X165399999Y-199551071D01*
X165399999Y-198622500D02*
X165471428Y-198693928D01*
X165471428Y-198693928D02*
X165399999Y-198765357D01*
X165399999Y-198765357D02*
X165328571Y-198693928D01*
X165328571Y-198693928D02*
X165399999Y-198622500D01*
X165399999Y-198622500D02*
X165399999Y-198765357D01*
X166942857Y-199122500D02*
X167657143Y-199122500D01*
X166800000Y-199551071D02*
X167300000Y-198051071D01*
X167300000Y-198051071D02*
X167800000Y-199551071D01*
D10*
D11*
X245757142Y-202351071D02*
X245757142Y-200851071D01*
X247114286Y-202351071D02*
X247114286Y-200851071D01*
X247114286Y-202279642D02*
X246971428Y-202351071D01*
X246971428Y-202351071D02*
X246685714Y-202351071D01*
X246685714Y-202351071D02*
X246542857Y-202279642D01*
X246542857Y-202279642D02*
X246471428Y-202208214D01*
X246471428Y-202208214D02*
X246400000Y-202065357D01*
X246400000Y-202065357D02*
X246400000Y-201636785D01*
X246400000Y-201636785D02*
X246471428Y-201493928D01*
X246471428Y-201493928D02*
X246542857Y-201422500D01*
X246542857Y-201422500D02*
X246685714Y-201351071D01*
X246685714Y-201351071D02*
X246971428Y-201351071D01*
X246971428Y-201351071D02*
X247114286Y-201422500D01*
X247828571Y-202208214D02*
X247900000Y-202279642D01*
X247900000Y-202279642D02*
X247828571Y-202351071D01*
X247828571Y-202351071D02*
X247757143Y-202279642D01*
X247757143Y-202279642D02*
X247828571Y-202208214D01*
X247828571Y-202208214D02*
X247828571Y-202351071D01*
X247828571Y-201422500D02*
X247900000Y-201493928D01*
X247900000Y-201493928D02*
X247828571Y-201565357D01*
X247828571Y-201565357D02*
X247757143Y-201493928D01*
X247757143Y-201493928D02*
X247828571Y-201422500D01*
X247828571Y-201422500D02*
X247828571Y-201565357D01*
X250228572Y-202351071D02*
X249371429Y-202351071D01*
X249800000Y-202351071D02*
X249800000Y-200851071D01*
X249800000Y-200851071D02*
X249657143Y-201065357D01*
X249657143Y-201065357D02*
X249514286Y-201208214D01*
X249514286Y-201208214D02*
X249371429Y-201279642D01*
X251942857Y-200779642D02*
X250657143Y-202708214D01*
X253228572Y-202351071D02*
X252371429Y-202351071D01*
X252800000Y-202351071D02*
X252800000Y-200851071D01*
X252800000Y-200851071D02*
X252657143Y-201065357D01*
X252657143Y-201065357D02*
X252514286Y-201208214D01*
X252514286Y-201208214D02*
X252371429Y-201279642D01*
D10*
D11*
X159400000Y-193400000D02*
X267400000Y-193400000D01*
D10*
D13*
X160852380Y-193934761D02*
X161995238Y-193934761D01*
X161173809Y-195934761D02*
X161423809Y-193934761D01*
X162411905Y-195934761D02*
X162578571Y-194601428D01*
X162661905Y-193934761D02*
X162554762Y-194030000D01*
X162554762Y-194030000D02*
X162638095Y-194125238D01*
X162638095Y-194125238D02*
X162745238Y-194030000D01*
X162745238Y-194030000D02*
X162661905Y-193934761D01*
X162661905Y-193934761D02*
X162638095Y-194125238D01*
X163245238Y-194601428D02*
X164007143Y-194601428D01*
X163614286Y-193934761D02*
X163400000Y-195649047D01*
X163400000Y-195649047D02*
X163471429Y-195839523D01*
X163471429Y-195839523D02*
X163650000Y-195934761D01*
X163650000Y-195934761D02*
X163840476Y-195934761D01*
X164792857Y-195934761D02*
X164614286Y-195839523D01*
X164614286Y-195839523D02*
X164542857Y-195649047D01*
X164542857Y-195649047D02*
X164757143Y-193934761D01*
X166328571Y-195839523D02*
X166126190Y-195934761D01*
X166126190Y-195934761D02*
X165745238Y-195934761D01*
X165745238Y-195934761D02*
X165566667Y-195839523D01*
X165566667Y-195839523D02*
X165495238Y-195649047D01*
X165495238Y-195649047D02*
X165590476Y-194887142D01*
X165590476Y-194887142D02*
X165709524Y-194696666D01*
X165709524Y-194696666D02*
X165911905Y-194601428D01*
X165911905Y-194601428D02*
X166292857Y-194601428D01*
X166292857Y-194601428D02*
X166471428Y-194696666D01*
X166471428Y-194696666D02*
X166542857Y-194887142D01*
X166542857Y-194887142D02*
X166519047Y-195077619D01*
X166519047Y-195077619D02*
X165542857Y-195268095D01*
X167292857Y-195744285D02*
X167376191Y-195839523D01*
X167376191Y-195839523D02*
X167269048Y-195934761D01*
X167269048Y-195934761D02*
X167185714Y-195839523D01*
X167185714Y-195839523D02*
X167292857Y-195744285D01*
X167292857Y-195744285D02*
X167269048Y-195934761D01*
X167423810Y-194696666D02*
X167507143Y-194791904D01*
X167507143Y-194791904D02*
X167400000Y-194887142D01*
X167400000Y-194887142D02*
X167316667Y-194791904D01*
X167316667Y-194791904D02*
X167423810Y-194696666D01*
X167423810Y-194696666D02*
X167400000Y-194887142D01*
X170219048Y-194887142D02*
X170492857Y-194982380D01*
X170492857Y-194982380D02*
X170576191Y-195077619D01*
X170576191Y-195077619D02*
X170647619Y-195268095D01*
X170647619Y-195268095D02*
X170611905Y-195553809D01*
X170611905Y-195553809D02*
X170492857Y-195744285D01*
X170492857Y-195744285D02*
X170385714Y-195839523D01*
X170385714Y-195839523D02*
X170183334Y-195934761D01*
X170183334Y-195934761D02*
X169421429Y-195934761D01*
X169421429Y-195934761D02*
X169671429Y-193934761D01*
X169671429Y-193934761D02*
X170338095Y-193934761D01*
X170338095Y-193934761D02*
X170516667Y-194030000D01*
X170516667Y-194030000D02*
X170600000Y-194125238D01*
X170600000Y-194125238D02*
X170671429Y-194315714D01*
X170671429Y-194315714D02*
X170647619Y-194506190D01*
X170647619Y-194506190D02*
X170528572Y-194696666D01*
X170528572Y-194696666D02*
X170421429Y-194791904D01*
X170421429Y-194791904D02*
X170219048Y-194887142D01*
X170219048Y-194887142D02*
X169552381Y-194887142D01*
X171421429Y-195934761D02*
X171588095Y-194601428D01*
X171671429Y-193934761D02*
X171564286Y-194030000D01*
X171564286Y-194030000D02*
X171647619Y-194125238D01*
X171647619Y-194125238D02*
X171754762Y-194030000D01*
X171754762Y-194030000D02*
X171671429Y-193934761D01*
X171671429Y-193934761D02*
X171647619Y-194125238D01*
X173397619Y-194601428D02*
X173195238Y-196220476D01*
X173195238Y-196220476D02*
X173076191Y-196410952D01*
X173076191Y-196410952D02*
X172969048Y-196506190D01*
X172969048Y-196506190D02*
X172766667Y-196601428D01*
X172766667Y-196601428D02*
X172480953Y-196601428D01*
X172480953Y-196601428D02*
X172302381Y-196506190D01*
X173242857Y-195839523D02*
X173040476Y-195934761D01*
X173040476Y-195934761D02*
X172659524Y-195934761D01*
X172659524Y-195934761D02*
X172480953Y-195839523D01*
X172480953Y-195839523D02*
X172397619Y-195744285D01*
X172397619Y-195744285D02*
X172326191Y-195553809D01*
X172326191Y-195553809D02*
X172397619Y-194982380D01*
X172397619Y-194982380D02*
X172516667Y-194791904D01*
X172516667Y-194791904D02*
X172623810Y-194696666D01*
X172623810Y-194696666D02*
X172826191Y-194601428D01*
X172826191Y-194601428D02*
X173207143Y-194601428D01*
X173207143Y-194601428D02*
X173385715Y-194696666D01*
X174969048Y-195934761D02*
X175100000Y-194887142D01*
X175100000Y-194887142D02*
X175028571Y-194696666D01*
X175028571Y-194696666D02*
X174850000Y-194601428D01*
X174850000Y-194601428D02*
X174469048Y-194601428D01*
X174469048Y-194601428D02*
X174266667Y-194696666D01*
X174980952Y-195839523D02*
X174778571Y-195934761D01*
X174778571Y-195934761D02*
X174302381Y-195934761D01*
X174302381Y-195934761D02*
X174123810Y-195839523D01*
X174123810Y-195839523D02*
X174052381Y-195649047D01*
X174052381Y-195649047D02*
X174076190Y-195458571D01*
X174076190Y-195458571D02*
X174195238Y-195268095D01*
X174195238Y-195268095D02*
X174397619Y-195172857D01*
X174397619Y-195172857D02*
X174873810Y-195172857D01*
X174873810Y-195172857D02*
X175076190Y-195077619D01*
X175838095Y-195839523D02*
X176016667Y-195934761D01*
X176016667Y-195934761D02*
X176397619Y-195934761D01*
X176397619Y-195934761D02*
X176600000Y-195839523D01*
X176600000Y-195839523D02*
X176719048Y-195649047D01*
X176719048Y-195649047D02*
X176730953Y-195553809D01*
X176730953Y-195553809D02*
X176659524Y-195363333D01*
X176659524Y-195363333D02*
X176480953Y-195268095D01*
X176480953Y-195268095D02*
X176195238Y-195268095D01*
X176195238Y-195268095D02*
X176016667Y-195172857D01*
X176016667Y-195172857D02*
X175945238Y-194982380D01*
X175945238Y-194982380D02*
X175957143Y-194887142D01*
X175957143Y-194887142D02*
X176076191Y-194696666D01*
X176076191Y-194696666D02*
X176278572Y-194601428D01*
X176278572Y-194601428D02*
X176564286Y-194601428D01*
X176564286Y-194601428D02*
X176742857Y-194696666D01*
X177457143Y-195839523D02*
X177635715Y-195934761D01*
X177635715Y-195934761D02*
X178016667Y-195934761D01*
X178016667Y-195934761D02*
X178219048Y-195839523D01*
X178219048Y-195839523D02*
X178338096Y-195649047D01*
X178338096Y-195649047D02*
X178350001Y-195553809D01*
X178350001Y-195553809D02*
X178278572Y-195363333D01*
X178278572Y-195363333D02*
X178100001Y-195268095D01*
X178100001Y-195268095D02*
X177814286Y-195268095D01*
X177814286Y-195268095D02*
X177635715Y-195172857D01*
X177635715Y-195172857D02*
X177564286Y-194982380D01*
X177564286Y-194982380D02*
X177576191Y-194887142D01*
X177576191Y-194887142D02*
X177695239Y-194696666D01*
X177695239Y-194696666D02*
X177897620Y-194601428D01*
X177897620Y-194601428D02*
X178183334Y-194601428D01*
X178183334Y-194601428D02*
X178361905Y-194696666D01*
X180419049Y-193934761D02*
X181752382Y-193934761D01*
X181752382Y-193934761D02*
X180645239Y-195934761D01*
X183380953Y-195839523D02*
X183654763Y-195934761D01*
X183654763Y-195934761D02*
X184130953Y-195934761D01*
X184130953Y-195934761D02*
X184333334Y-195839523D01*
X184333334Y-195839523D02*
X184440477Y-195744285D01*
X184440477Y-195744285D02*
X184559525Y-195553809D01*
X184559525Y-195553809D02*
X184583334Y-195363333D01*
X184583334Y-195363333D02*
X184511906Y-195172857D01*
X184511906Y-195172857D02*
X184428572Y-195077619D01*
X184428572Y-195077619D02*
X184250001Y-194982380D01*
X184250001Y-194982380D02*
X183880953Y-194887142D01*
X183880953Y-194887142D02*
X183702382Y-194791904D01*
X183702382Y-194791904D02*
X183619049Y-194696666D01*
X183619049Y-194696666D02*
X183547620Y-194506190D01*
X183547620Y-194506190D02*
X183571430Y-194315714D01*
X183571430Y-194315714D02*
X183690477Y-194125238D01*
X183690477Y-194125238D02*
X183797620Y-194030000D01*
X183797620Y-194030000D02*
X184000001Y-193934761D01*
X184000001Y-193934761D02*
X184476192Y-193934761D01*
X184476192Y-193934761D02*
X184750001Y-194030000D01*
X186142858Y-195839523D02*
X185940477Y-195934761D01*
X185940477Y-195934761D02*
X185559525Y-195934761D01*
X185559525Y-195934761D02*
X185380954Y-195839523D01*
X185380954Y-195839523D02*
X185309525Y-195649047D01*
X185309525Y-195649047D02*
X185404763Y-194887142D01*
X185404763Y-194887142D02*
X185523811Y-194696666D01*
X185523811Y-194696666D02*
X185726192Y-194601428D01*
X185726192Y-194601428D02*
X186107144Y-194601428D01*
X186107144Y-194601428D02*
X186285715Y-194696666D01*
X186285715Y-194696666D02*
X186357144Y-194887142D01*
X186357144Y-194887142D02*
X186333334Y-195077619D01*
X186333334Y-195077619D02*
X185357144Y-195268095D01*
X188107144Y-194601428D02*
X187904763Y-196220476D01*
X187904763Y-196220476D02*
X187785716Y-196410952D01*
X187785716Y-196410952D02*
X187678573Y-196506190D01*
X187678573Y-196506190D02*
X187476192Y-196601428D01*
X187476192Y-196601428D02*
X187190478Y-196601428D01*
X187190478Y-196601428D02*
X187011906Y-196506190D01*
X187952382Y-195839523D02*
X187750001Y-195934761D01*
X187750001Y-195934761D02*
X187369049Y-195934761D01*
X187369049Y-195934761D02*
X187190478Y-195839523D01*
X187190478Y-195839523D02*
X187107144Y-195744285D01*
X187107144Y-195744285D02*
X187035716Y-195553809D01*
X187035716Y-195553809D02*
X187107144Y-194982380D01*
X187107144Y-194982380D02*
X187226192Y-194791904D01*
X187226192Y-194791904D02*
X187333335Y-194696666D01*
X187333335Y-194696666D02*
X187535716Y-194601428D01*
X187535716Y-194601428D02*
X187916668Y-194601428D01*
X187916668Y-194601428D02*
X188095240Y-194696666D01*
X188821430Y-195934761D02*
X188988096Y-194601428D01*
X188964287Y-194791904D02*
X189071430Y-194696666D01*
X189071430Y-194696666D02*
X189273811Y-194601428D01*
X189273811Y-194601428D02*
X189559525Y-194601428D01*
X189559525Y-194601428D02*
X189738096Y-194696666D01*
X189738096Y-194696666D02*
X189809525Y-194887142D01*
X189809525Y-194887142D02*
X189678573Y-195934761D01*
X189809525Y-194887142D02*
X189928573Y-194696666D01*
X189928573Y-194696666D02*
X190130954Y-194601428D01*
X190130954Y-194601428D02*
X190416668Y-194601428D01*
X190416668Y-194601428D02*
X190595239Y-194696666D01*
X190595239Y-194696666D02*
X190666668Y-194887142D01*
X190666668Y-194887142D02*
X190535715Y-195934761D01*
X192261906Y-195839523D02*
X192059525Y-195934761D01*
X192059525Y-195934761D02*
X191678573Y-195934761D01*
X191678573Y-195934761D02*
X191500002Y-195839523D01*
X191500002Y-195839523D02*
X191428573Y-195649047D01*
X191428573Y-195649047D02*
X191523811Y-194887142D01*
X191523811Y-194887142D02*
X191642859Y-194696666D01*
X191642859Y-194696666D02*
X191845240Y-194601428D01*
X191845240Y-194601428D02*
X192226192Y-194601428D01*
X192226192Y-194601428D02*
X192404763Y-194696666D01*
X192404763Y-194696666D02*
X192476192Y-194887142D01*
X192476192Y-194887142D02*
X192452382Y-195077619D01*
X192452382Y-195077619D02*
X191476192Y-195268095D01*
X193369049Y-194601428D02*
X193202383Y-195934761D01*
X193345240Y-194791904D02*
X193452383Y-194696666D01*
X193452383Y-194696666D02*
X193654764Y-194601428D01*
X193654764Y-194601428D02*
X193940478Y-194601428D01*
X193940478Y-194601428D02*
X194119049Y-194696666D01*
X194119049Y-194696666D02*
X194190478Y-194887142D01*
X194190478Y-194887142D02*
X194059526Y-195934761D01*
X194892859Y-194601428D02*
X195654764Y-194601428D01*
X195261907Y-193934761D02*
X195047621Y-195649047D01*
X195047621Y-195649047D02*
X195119050Y-195839523D01*
X195119050Y-195839523D02*
X195297621Y-195934761D01*
X195297621Y-195934761D02*
X195488097Y-195934761D01*
X197354764Y-195934761D02*
X197604764Y-193934761D01*
X197604764Y-193934761D02*
X198080954Y-193934761D01*
X198080954Y-193934761D02*
X198354764Y-194030000D01*
X198354764Y-194030000D02*
X198521430Y-194220476D01*
X198521430Y-194220476D02*
X198592859Y-194410952D01*
X198592859Y-194410952D02*
X198640478Y-194791904D01*
X198640478Y-194791904D02*
X198604764Y-195077619D01*
X198604764Y-195077619D02*
X198461907Y-195458571D01*
X198461907Y-195458571D02*
X198342859Y-195649047D01*
X198342859Y-195649047D02*
X198128573Y-195839523D01*
X198128573Y-195839523D02*
X197830954Y-195934761D01*
X197830954Y-195934761D02*
X197354764Y-195934761D01*
X199354764Y-195934761D02*
X199521430Y-194601428D01*
X199604764Y-193934761D02*
X199497621Y-194030000D01*
X199497621Y-194030000D02*
X199580954Y-194125238D01*
X199580954Y-194125238D02*
X199688097Y-194030000D01*
X199688097Y-194030000D02*
X199604764Y-193934761D01*
X199604764Y-193934761D02*
X199580954Y-194125238D01*
X200223811Y-195839523D02*
X200402383Y-195934761D01*
X200402383Y-195934761D02*
X200783335Y-195934761D01*
X200783335Y-195934761D02*
X200985716Y-195839523D01*
X200985716Y-195839523D02*
X201104764Y-195649047D01*
X201104764Y-195649047D02*
X201116669Y-195553809D01*
X201116669Y-195553809D02*
X201045240Y-195363333D01*
X201045240Y-195363333D02*
X200866669Y-195268095D01*
X200866669Y-195268095D02*
X200580954Y-195268095D01*
X200580954Y-195268095D02*
X200402383Y-195172857D01*
X200402383Y-195172857D02*
X200330954Y-194982380D01*
X200330954Y-194982380D02*
X200342859Y-194887142D01*
X200342859Y-194887142D02*
X200461907Y-194696666D01*
X200461907Y-194696666D02*
X200664288Y-194601428D01*
X200664288Y-194601428D02*
X200950002Y-194601428D01*
X200950002Y-194601428D02*
X201128573Y-194696666D01*
X202092859Y-194601428D02*
X201842859Y-196601428D01*
X202080955Y-194696666D02*
X202283336Y-194601428D01*
X202283336Y-194601428D02*
X202664288Y-194601428D01*
X202664288Y-194601428D02*
X202842859Y-194696666D01*
X202842859Y-194696666D02*
X202926193Y-194791904D01*
X202926193Y-194791904D02*
X202997621Y-194982380D01*
X202997621Y-194982380D02*
X202926193Y-195553809D01*
X202926193Y-195553809D02*
X202807145Y-195744285D01*
X202807145Y-195744285D02*
X202700002Y-195839523D01*
X202700002Y-195839523D02*
X202497621Y-195934761D01*
X202497621Y-195934761D02*
X202116669Y-195934761D01*
X202116669Y-195934761D02*
X201938098Y-195839523D01*
X203950002Y-195934761D02*
X203771431Y-195839523D01*
X203771431Y-195839523D02*
X203700002Y-195649047D01*
X203700002Y-195649047D02*
X203914288Y-193934761D01*
X205569050Y-195934761D02*
X205700002Y-194887142D01*
X205700002Y-194887142D02*
X205628573Y-194696666D01*
X205628573Y-194696666D02*
X205450002Y-194601428D01*
X205450002Y-194601428D02*
X205069050Y-194601428D01*
X205069050Y-194601428D02*
X204866669Y-194696666D01*
X205580954Y-195839523D02*
X205378573Y-195934761D01*
X205378573Y-195934761D02*
X204902383Y-195934761D01*
X204902383Y-195934761D02*
X204723812Y-195839523D01*
X204723812Y-195839523D02*
X204652383Y-195649047D01*
X204652383Y-195649047D02*
X204676192Y-195458571D01*
X204676192Y-195458571D02*
X204795240Y-195268095D01*
X204795240Y-195268095D02*
X204997621Y-195172857D01*
X204997621Y-195172857D02*
X205473812Y-195172857D01*
X205473812Y-195172857D02*
X205676192Y-195077619D01*
X206497621Y-194601428D02*
X206807145Y-195934761D01*
X207450002Y-194601428D02*
X206807145Y-195934761D01*
X206807145Y-195934761D02*
X206557145Y-196410952D01*
X206557145Y-196410952D02*
X206450002Y-196506190D01*
X206450002Y-196506190D02*
X206247621Y-196601428D01*
D10*
D11*
X161257142Y-191365357D02*
X160757142Y-191365357D01*
X160757142Y-192151071D02*
X160757142Y-190651071D01*
X160757142Y-190651071D02*
X161471428Y-190651071D01*
X162042856Y-192151071D02*
X162042856Y-191151071D01*
X162042856Y-190651071D02*
X161971428Y-190722500D01*
X161971428Y-190722500D02*
X162042856Y-190793928D01*
X162042856Y-190793928D02*
X162114285Y-190722500D01*
X162114285Y-190722500D02*
X162042856Y-190651071D01*
X162042856Y-190651071D02*
X162042856Y-190793928D01*
X162971428Y-192151071D02*
X162828571Y-192079642D01*
X162828571Y-192079642D02*
X162757142Y-191936785D01*
X162757142Y-191936785D02*
X162757142Y-190651071D01*
X164114285Y-192079642D02*
X163971428Y-192151071D01*
X163971428Y-192151071D02*
X163685714Y-192151071D01*
X163685714Y-192151071D02*
X163542856Y-192079642D01*
X163542856Y-192079642D02*
X163471428Y-191936785D01*
X163471428Y-191936785D02*
X163471428Y-191365357D01*
X163471428Y-191365357D02*
X163542856Y-191222500D01*
X163542856Y-191222500D02*
X163685714Y-191151071D01*
X163685714Y-191151071D02*
X163971428Y-191151071D01*
X163971428Y-191151071D02*
X164114285Y-191222500D01*
X164114285Y-191222500D02*
X164185714Y-191365357D01*
X164185714Y-191365357D02*
X164185714Y-191508214D01*
X164185714Y-191508214D02*
X163471428Y-191651071D01*
X164828570Y-192008214D02*
X164899999Y-192079642D01*
X164899999Y-192079642D02*
X164828570Y-192151071D01*
X164828570Y-192151071D02*
X164757142Y-192079642D01*
X164757142Y-192079642D02*
X164828570Y-192008214D01*
X164828570Y-192008214D02*
X164828570Y-192151071D01*
X164828570Y-191222500D02*
X164899999Y-191293928D01*
X164899999Y-191293928D02*
X164828570Y-191365357D01*
X164828570Y-191365357D02*
X164757142Y-191293928D01*
X164757142Y-191293928D02*
X164828570Y-191222500D01*
X164828570Y-191222500D02*
X164828570Y-191365357D01*
X166442856Y-192151071D02*
X166442856Y-190651071D01*
X166442856Y-191222500D02*
X166585714Y-191151071D01*
X166585714Y-191151071D02*
X166871428Y-191151071D01*
X166871428Y-191151071D02*
X167014285Y-191222500D01*
X167014285Y-191222500D02*
X167085714Y-191293928D01*
X167085714Y-191293928D02*
X167157142Y-191436785D01*
X167157142Y-191436785D02*
X167157142Y-191865357D01*
X167157142Y-191865357D02*
X167085714Y-192008214D01*
X167085714Y-192008214D02*
X167014285Y-192079642D01*
X167014285Y-192079642D02*
X166871428Y-192151071D01*
X166871428Y-192151071D02*
X166585714Y-192151071D01*
X166585714Y-192151071D02*
X166442856Y-192079642D01*
X167799999Y-192151071D02*
X167799999Y-191151071D01*
X167799999Y-190651071D02*
X167728571Y-190722500D01*
X167728571Y-190722500D02*
X167799999Y-190793928D01*
X167799999Y-190793928D02*
X167871428Y-190722500D01*
X167871428Y-190722500D02*
X167799999Y-190651071D01*
X167799999Y-190651071D02*
X167799999Y-190793928D01*
X169157143Y-191151071D02*
X169157143Y-192365357D01*
X169157143Y-192365357D02*
X169085714Y-192508214D01*
X169085714Y-192508214D02*
X169014285Y-192579642D01*
X169014285Y-192579642D02*
X168871428Y-192651071D01*
X168871428Y-192651071D02*
X168657143Y-192651071D01*
X168657143Y-192651071D02*
X168514285Y-192579642D01*
X169157143Y-192079642D02*
X169014285Y-192151071D01*
X169014285Y-192151071D02*
X168728571Y-192151071D01*
X168728571Y-192151071D02*
X168585714Y-192079642D01*
X168585714Y-192079642D02*
X168514285Y-192008214D01*
X168514285Y-192008214D02*
X168442857Y-191865357D01*
X168442857Y-191865357D02*
X168442857Y-191436785D01*
X168442857Y-191436785D02*
X168514285Y-191293928D01*
X168514285Y-191293928D02*
X168585714Y-191222500D01*
X168585714Y-191222500D02*
X168728571Y-191151071D01*
X168728571Y-191151071D02*
X169014285Y-191151071D01*
X169014285Y-191151071D02*
X169157143Y-191222500D01*
X170514286Y-192151071D02*
X170514286Y-191365357D01*
X170514286Y-191365357D02*
X170442857Y-191222500D01*
X170442857Y-191222500D02*
X170300000Y-191151071D01*
X170300000Y-191151071D02*
X170014286Y-191151071D01*
X170014286Y-191151071D02*
X169871428Y-191222500D01*
X170514286Y-192079642D02*
X170371428Y-192151071D01*
X170371428Y-192151071D02*
X170014286Y-192151071D01*
X170014286Y-192151071D02*
X169871428Y-192079642D01*
X169871428Y-192079642D02*
X169800000Y-191936785D01*
X169800000Y-191936785D02*
X169800000Y-191793928D01*
X169800000Y-191793928D02*
X169871428Y-191651071D01*
X169871428Y-191651071D02*
X170014286Y-191579642D01*
X170014286Y-191579642D02*
X170371428Y-191579642D01*
X170371428Y-191579642D02*
X170514286Y-191508214D01*
X171157143Y-192079642D02*
X171300000Y-192151071D01*
X171300000Y-192151071D02*
X171585714Y-192151071D01*
X171585714Y-192151071D02*
X171728571Y-192079642D01*
X171728571Y-192079642D02*
X171800000Y-191936785D01*
X171800000Y-191936785D02*
X171800000Y-191865357D01*
X171800000Y-191865357D02*
X171728571Y-191722500D01*
X171728571Y-191722500D02*
X171585714Y-191651071D01*
X171585714Y-191651071D02*
X171371429Y-191651071D01*
X171371429Y-191651071D02*
X171228571Y-191579642D01*
X171228571Y-191579642D02*
X171157143Y-191436785D01*
X171157143Y-191436785D02*
X171157143Y-191365357D01*
X171157143Y-191365357D02*
X171228571Y-191222500D01*
X171228571Y-191222500D02*
X171371429Y-191151071D01*
X171371429Y-191151071D02*
X171585714Y-191151071D01*
X171585714Y-191151071D02*
X171728571Y-191222500D01*
X172371429Y-192079642D02*
X172514286Y-192151071D01*
X172514286Y-192151071D02*
X172800000Y-192151071D01*
X172800000Y-192151071D02*
X172942857Y-192079642D01*
X172942857Y-192079642D02*
X173014286Y-191936785D01*
X173014286Y-191936785D02*
X173014286Y-191865357D01*
X173014286Y-191865357D02*
X172942857Y-191722500D01*
X172942857Y-191722500D02*
X172800000Y-191651071D01*
X172800000Y-191651071D02*
X172585715Y-191651071D01*
X172585715Y-191651071D02*
X172442857Y-191579642D01*
X172442857Y-191579642D02*
X172371429Y-191436785D01*
X172371429Y-191436785D02*
X172371429Y-191365357D01*
X172371429Y-191365357D02*
X172442857Y-191222500D01*
X172442857Y-191222500D02*
X172585715Y-191151071D01*
X172585715Y-191151071D02*
X172800000Y-191151071D01*
X172800000Y-191151071D02*
X172942857Y-191222500D01*
X173300001Y-192293928D02*
X174442858Y-192293928D01*
X174657143Y-190651071D02*
X175657143Y-190651071D01*
X175657143Y-190651071D02*
X175014286Y-192151071D01*
X175871429Y-192293928D02*
X177014286Y-192293928D01*
X177300000Y-192079642D02*
X177442857Y-192151071D01*
X177442857Y-192151071D02*
X177728571Y-192151071D01*
X177728571Y-192151071D02*
X177871428Y-192079642D01*
X177871428Y-192079642D02*
X177942857Y-191936785D01*
X177942857Y-191936785D02*
X177942857Y-191865357D01*
X177942857Y-191865357D02*
X177871428Y-191722500D01*
X177871428Y-191722500D02*
X177728571Y-191651071D01*
X177728571Y-191651071D02*
X177514286Y-191651071D01*
X177514286Y-191651071D02*
X177371428Y-191579642D01*
X177371428Y-191579642D02*
X177300000Y-191436785D01*
X177300000Y-191436785D02*
X177300000Y-191365357D01*
X177300000Y-191365357D02*
X177371428Y-191222500D01*
X177371428Y-191222500D02*
X177514286Y-191151071D01*
X177514286Y-191151071D02*
X177728571Y-191151071D01*
X177728571Y-191151071D02*
X177871428Y-191222500D01*
X179157143Y-192079642D02*
X179014286Y-192151071D01*
X179014286Y-192151071D02*
X178728572Y-192151071D01*
X178728572Y-192151071D02*
X178585714Y-192079642D01*
X178585714Y-192079642D02*
X178514286Y-191936785D01*
X178514286Y-191936785D02*
X178514286Y-191365357D01*
X178514286Y-191365357D02*
X178585714Y-191222500D01*
X178585714Y-191222500D02*
X178728572Y-191151071D01*
X178728572Y-191151071D02*
X179014286Y-191151071D01*
X179014286Y-191151071D02*
X179157143Y-191222500D01*
X179157143Y-191222500D02*
X179228572Y-191365357D01*
X179228572Y-191365357D02*
X179228572Y-191508214D01*
X179228572Y-191508214D02*
X178514286Y-191651071D01*
X180514286Y-191151071D02*
X180514286Y-192365357D01*
X180514286Y-192365357D02*
X180442857Y-192508214D01*
X180442857Y-192508214D02*
X180371428Y-192579642D01*
X180371428Y-192579642D02*
X180228571Y-192651071D01*
X180228571Y-192651071D02*
X180014286Y-192651071D01*
X180014286Y-192651071D02*
X179871428Y-192579642D01*
X180514286Y-192079642D02*
X180371428Y-192151071D01*
X180371428Y-192151071D02*
X180085714Y-192151071D01*
X180085714Y-192151071D02*
X179942857Y-192079642D01*
X179942857Y-192079642D02*
X179871428Y-192008214D01*
X179871428Y-192008214D02*
X179800000Y-191865357D01*
X179800000Y-191865357D02*
X179800000Y-191436785D01*
X179800000Y-191436785D02*
X179871428Y-191293928D01*
X179871428Y-191293928D02*
X179942857Y-191222500D01*
X179942857Y-191222500D02*
X180085714Y-191151071D01*
X180085714Y-191151071D02*
X180371428Y-191151071D01*
X180371428Y-191151071D02*
X180514286Y-191222500D01*
X181228571Y-192151071D02*
X181228571Y-191151071D01*
X181228571Y-191293928D02*
X181300000Y-191222500D01*
X181300000Y-191222500D02*
X181442857Y-191151071D01*
X181442857Y-191151071D02*
X181657143Y-191151071D01*
X181657143Y-191151071D02*
X181800000Y-191222500D01*
X181800000Y-191222500D02*
X181871429Y-191365357D01*
X181871429Y-191365357D02*
X181871429Y-192151071D01*
X181871429Y-191365357D02*
X181942857Y-191222500D01*
X181942857Y-191222500D02*
X182085714Y-191151071D01*
X182085714Y-191151071D02*
X182300000Y-191151071D01*
X182300000Y-191151071D02*
X182442857Y-191222500D01*
X182442857Y-191222500D02*
X182514286Y-191365357D01*
X182514286Y-191365357D02*
X182514286Y-192151071D01*
X183800000Y-192079642D02*
X183657143Y-192151071D01*
X183657143Y-192151071D02*
X183371429Y-192151071D01*
X183371429Y-192151071D02*
X183228571Y-192079642D01*
X183228571Y-192079642D02*
X183157143Y-191936785D01*
X183157143Y-191936785D02*
X183157143Y-191365357D01*
X183157143Y-191365357D02*
X183228571Y-191222500D01*
X183228571Y-191222500D02*
X183371429Y-191151071D01*
X183371429Y-191151071D02*
X183657143Y-191151071D01*
X183657143Y-191151071D02*
X183800000Y-191222500D01*
X183800000Y-191222500D02*
X183871429Y-191365357D01*
X183871429Y-191365357D02*
X183871429Y-191508214D01*
X183871429Y-191508214D02*
X183157143Y-191651071D01*
X184514285Y-191151071D02*
X184514285Y-192151071D01*
X184514285Y-191293928D02*
X184585714Y-191222500D01*
X184585714Y-191222500D02*
X184728571Y-191151071D01*
X184728571Y-191151071D02*
X184942857Y-191151071D01*
X184942857Y-191151071D02*
X185085714Y-191222500D01*
X185085714Y-191222500D02*
X185157143Y-191365357D01*
X185157143Y-191365357D02*
X185157143Y-192151071D01*
X185657143Y-191151071D02*
X186228571Y-191151071D01*
X185871428Y-190651071D02*
X185871428Y-191936785D01*
X185871428Y-191936785D02*
X185942857Y-192079642D01*
X185942857Y-192079642D02*
X186085714Y-192151071D01*
X186085714Y-192151071D02*
X186228571Y-192151071D01*
X186728571Y-192008214D02*
X186800000Y-192079642D01*
X186800000Y-192079642D02*
X186728571Y-192151071D01*
X186728571Y-192151071D02*
X186657143Y-192079642D01*
X186657143Y-192079642D02*
X186728571Y-192008214D01*
X186728571Y-192008214D02*
X186728571Y-192151071D01*
X187442857Y-192151071D02*
X187442857Y-190651071D01*
X187585715Y-191579642D02*
X188014286Y-192151071D01*
X188014286Y-191151071D02*
X187442857Y-191722500D01*
X188657143Y-192151071D02*
X188657143Y-191151071D01*
X188657143Y-190651071D02*
X188585715Y-190722500D01*
X188585715Y-190722500D02*
X188657143Y-190793928D01*
X188657143Y-190793928D02*
X188728572Y-190722500D01*
X188728572Y-190722500D02*
X188657143Y-190651071D01*
X188657143Y-190651071D02*
X188657143Y-190793928D01*
X190014287Y-192079642D02*
X189871429Y-192151071D01*
X189871429Y-192151071D02*
X189585715Y-192151071D01*
X189585715Y-192151071D02*
X189442858Y-192079642D01*
X189442858Y-192079642D02*
X189371429Y-192008214D01*
X189371429Y-192008214D02*
X189300001Y-191865357D01*
X189300001Y-191865357D02*
X189300001Y-191436785D01*
X189300001Y-191436785D02*
X189371429Y-191293928D01*
X189371429Y-191293928D02*
X189442858Y-191222500D01*
X189442858Y-191222500D02*
X189585715Y-191151071D01*
X189585715Y-191151071D02*
X189871429Y-191151071D01*
X189871429Y-191151071D02*
X190014287Y-191222500D01*
X191300001Y-192151071D02*
X191300001Y-191365357D01*
X191300001Y-191365357D02*
X191228572Y-191222500D01*
X191228572Y-191222500D02*
X191085715Y-191151071D01*
X191085715Y-191151071D02*
X190800001Y-191151071D01*
X190800001Y-191151071D02*
X190657143Y-191222500D01*
X191300001Y-192079642D02*
X191157143Y-192151071D01*
X191157143Y-192151071D02*
X190800001Y-192151071D01*
X190800001Y-192151071D02*
X190657143Y-192079642D01*
X190657143Y-192079642D02*
X190585715Y-191936785D01*
X190585715Y-191936785D02*
X190585715Y-191793928D01*
X190585715Y-191793928D02*
X190657143Y-191651071D01*
X190657143Y-191651071D02*
X190800001Y-191579642D01*
X190800001Y-191579642D02*
X191157143Y-191579642D01*
X191157143Y-191579642D02*
X191300001Y-191508214D01*
X192657144Y-192151071D02*
X192657144Y-190651071D01*
X192657144Y-192079642D02*
X192514286Y-192151071D01*
X192514286Y-192151071D02*
X192228572Y-192151071D01*
X192228572Y-192151071D02*
X192085715Y-192079642D01*
X192085715Y-192079642D02*
X192014286Y-192008214D01*
X192014286Y-192008214D02*
X191942858Y-191865357D01*
X191942858Y-191865357D02*
X191942858Y-191436785D01*
X191942858Y-191436785D02*
X192014286Y-191293928D01*
X192014286Y-191293928D02*
X192085715Y-191222500D01*
X192085715Y-191222500D02*
X192228572Y-191151071D01*
X192228572Y-191151071D02*
X192514286Y-191151071D01*
X192514286Y-191151071D02*
X192657144Y-191222500D01*
X193014287Y-192293928D02*
X194157144Y-192293928D01*
X194514286Y-191151071D02*
X194514286Y-192651071D01*
X194514286Y-191222500D02*
X194657144Y-191151071D01*
X194657144Y-191151071D02*
X194942858Y-191151071D01*
X194942858Y-191151071D02*
X195085715Y-191222500D01*
X195085715Y-191222500D02*
X195157144Y-191293928D01*
X195157144Y-191293928D02*
X195228572Y-191436785D01*
X195228572Y-191436785D02*
X195228572Y-191865357D01*
X195228572Y-191865357D02*
X195157144Y-192008214D01*
X195157144Y-192008214D02*
X195085715Y-192079642D01*
X195085715Y-192079642D02*
X194942858Y-192151071D01*
X194942858Y-192151071D02*
X194657144Y-192151071D01*
X194657144Y-192151071D02*
X194514286Y-192079642D01*
X196514287Y-192079642D02*
X196371429Y-192151071D01*
X196371429Y-192151071D02*
X196085715Y-192151071D01*
X196085715Y-192151071D02*
X195942858Y-192079642D01*
X195942858Y-192079642D02*
X195871429Y-192008214D01*
X195871429Y-192008214D02*
X195800001Y-191865357D01*
X195800001Y-191865357D02*
X195800001Y-191436785D01*
X195800001Y-191436785D02*
X195871429Y-191293928D01*
X195871429Y-191293928D02*
X195942858Y-191222500D01*
X195942858Y-191222500D02*
X196085715Y-191151071D01*
X196085715Y-191151071D02*
X196371429Y-191151071D01*
X196371429Y-191151071D02*
X196514287Y-191222500D01*
X197157143Y-192151071D02*
X197157143Y-190651071D01*
X197157143Y-191222500D02*
X197300001Y-191151071D01*
X197300001Y-191151071D02*
X197585715Y-191151071D01*
X197585715Y-191151071D02*
X197728572Y-191222500D01*
X197728572Y-191222500D02*
X197800001Y-191293928D01*
X197800001Y-191293928D02*
X197871429Y-191436785D01*
X197871429Y-191436785D02*
X197871429Y-191865357D01*
X197871429Y-191865357D02*
X197800001Y-192008214D01*
X197800001Y-192008214D02*
X197728572Y-192079642D01*
X197728572Y-192079642D02*
X197585715Y-192151071D01*
X197585715Y-192151071D02*
X197300001Y-192151071D01*
X197300001Y-192151071D02*
X197157143Y-192079642D01*
D10*
D11*
X159400000Y-187400000D02*
X267400000Y-187400000D01*
D10*
D11*
X160685714Y-189379642D02*
X160900000Y-189451071D01*
X160900000Y-189451071D02*
X161257142Y-189451071D01*
X161257142Y-189451071D02*
X161400000Y-189379642D01*
X161400000Y-189379642D02*
X161471428Y-189308214D01*
X161471428Y-189308214D02*
X161542857Y-189165357D01*
X161542857Y-189165357D02*
X161542857Y-189022500D01*
X161542857Y-189022500D02*
X161471428Y-188879642D01*
X161471428Y-188879642D02*
X161400000Y-188808214D01*
X161400000Y-188808214D02*
X161257142Y-188736785D01*
X161257142Y-188736785D02*
X160971428Y-188665357D01*
X160971428Y-188665357D02*
X160828571Y-188593928D01*
X160828571Y-188593928D02*
X160757142Y-188522500D01*
X160757142Y-188522500D02*
X160685714Y-188379642D01*
X160685714Y-188379642D02*
X160685714Y-188236785D01*
X160685714Y-188236785D02*
X160757142Y-188093928D01*
X160757142Y-188093928D02*
X160828571Y-188022500D01*
X160828571Y-188022500D02*
X160971428Y-187951071D01*
X160971428Y-187951071D02*
X161328571Y-187951071D01*
X161328571Y-187951071D02*
X161542857Y-188022500D01*
X162185713Y-189451071D02*
X162185713Y-187951071D01*
X162828571Y-189451071D02*
X162828571Y-188665357D01*
X162828571Y-188665357D02*
X162757142Y-188522500D01*
X162757142Y-188522500D02*
X162614285Y-188451071D01*
X162614285Y-188451071D02*
X162399999Y-188451071D01*
X162399999Y-188451071D02*
X162257142Y-188522500D01*
X162257142Y-188522500D02*
X162185713Y-188593928D01*
X164114285Y-189379642D02*
X163971428Y-189451071D01*
X163971428Y-189451071D02*
X163685714Y-189451071D01*
X163685714Y-189451071D02*
X163542856Y-189379642D01*
X163542856Y-189379642D02*
X163471428Y-189236785D01*
X163471428Y-189236785D02*
X163471428Y-188665357D01*
X163471428Y-188665357D02*
X163542856Y-188522500D01*
X163542856Y-188522500D02*
X163685714Y-188451071D01*
X163685714Y-188451071D02*
X163971428Y-188451071D01*
X163971428Y-188451071D02*
X164114285Y-188522500D01*
X164114285Y-188522500D02*
X164185714Y-188665357D01*
X164185714Y-188665357D02*
X164185714Y-188808214D01*
X164185714Y-188808214D02*
X163471428Y-188951071D01*
X165399999Y-189379642D02*
X165257142Y-189451071D01*
X165257142Y-189451071D02*
X164971428Y-189451071D01*
X164971428Y-189451071D02*
X164828570Y-189379642D01*
X164828570Y-189379642D02*
X164757142Y-189236785D01*
X164757142Y-189236785D02*
X164757142Y-188665357D01*
X164757142Y-188665357D02*
X164828570Y-188522500D01*
X164828570Y-188522500D02*
X164971428Y-188451071D01*
X164971428Y-188451071D02*
X165257142Y-188451071D01*
X165257142Y-188451071D02*
X165399999Y-188522500D01*
X165399999Y-188522500D02*
X165471428Y-188665357D01*
X165471428Y-188665357D02*
X165471428Y-188808214D01*
X165471428Y-188808214D02*
X164757142Y-188951071D01*
X165899999Y-188451071D02*
X166471427Y-188451071D01*
X166114284Y-187951071D02*
X166114284Y-189236785D01*
X166114284Y-189236785D02*
X166185713Y-189379642D01*
X166185713Y-189379642D02*
X166328570Y-189451071D01*
X166328570Y-189451071D02*
X166471427Y-189451071D01*
X166971427Y-189308214D02*
X167042856Y-189379642D01*
X167042856Y-189379642D02*
X166971427Y-189451071D01*
X166971427Y-189451071D02*
X166899999Y-189379642D01*
X166899999Y-189379642D02*
X166971427Y-189308214D01*
X166971427Y-189308214D02*
X166971427Y-189451071D01*
X166971427Y-188522500D02*
X167042856Y-188593928D01*
X167042856Y-188593928D02*
X166971427Y-188665357D01*
X166971427Y-188665357D02*
X166899999Y-188593928D01*
X166899999Y-188593928D02*
X166971427Y-188522500D01*
X166971427Y-188522500D02*
X166971427Y-188665357D01*
D10*
D12*
X160757142Y-186451071D02*
X160757142Y-184951071D01*
X160757142Y-184951071D02*
X161328571Y-184951071D01*
X161328571Y-184951071D02*
X161471428Y-185022500D01*
X161471428Y-185022500D02*
X161542857Y-185093928D01*
X161542857Y-185093928D02*
X161614285Y-185236785D01*
X161614285Y-185236785D02*
X161614285Y-185451071D01*
X161614285Y-185451071D02*
X161542857Y-185593928D01*
X161542857Y-185593928D02*
X161471428Y-185665357D01*
X161471428Y-185665357D02*
X161328571Y-185736785D01*
X161328571Y-185736785D02*
X160757142Y-185736785D01*
X162900000Y-186451071D02*
X162900000Y-185665357D01*
X162900000Y-185665357D02*
X162828571Y-185522500D01*
X162828571Y-185522500D02*
X162685714Y-185451071D01*
X162685714Y-185451071D02*
X162400000Y-185451071D01*
X162400000Y-185451071D02*
X162257142Y-185522500D01*
X162900000Y-186379642D02*
X162757142Y-186451071D01*
X162757142Y-186451071D02*
X162400000Y-186451071D01*
X162400000Y-186451071D02*
X162257142Y-186379642D01*
X162257142Y-186379642D02*
X162185714Y-186236785D01*
X162185714Y-186236785D02*
X162185714Y-186093928D01*
X162185714Y-186093928D02*
X162257142Y-185951071D01*
X162257142Y-185951071D02*
X162400000Y-185879642D01*
X162400000Y-185879642D02*
X162757142Y-185879642D01*
X162757142Y-185879642D02*
X162900000Y-185808214D01*
X163614285Y-185451071D02*
X163614285Y-186451071D01*
X163614285Y-185593928D02*
X163685714Y-185522500D01*
X163685714Y-185522500D02*
X163828571Y-185451071D01*
X163828571Y-185451071D02*
X164042857Y-185451071D01*
X164042857Y-185451071D02*
X164185714Y-185522500D01*
X164185714Y-185522500D02*
X164257143Y-185665357D01*
X164257143Y-185665357D02*
X164257143Y-186451071D01*
X164757143Y-185451071D02*
X165328571Y-185451071D01*
X164971428Y-184951071D02*
X164971428Y-186236785D01*
X164971428Y-186236785D02*
X165042857Y-186379642D01*
X165042857Y-186379642D02*
X165185714Y-186451071D01*
X165185714Y-186451071D02*
X165328571Y-186451071D01*
X165757143Y-186379642D02*
X165900000Y-186451071D01*
X165900000Y-186451071D02*
X166185714Y-186451071D01*
X166185714Y-186451071D02*
X166328571Y-186379642D01*
X166328571Y-186379642D02*
X166400000Y-186236785D01*
X166400000Y-186236785D02*
X166400000Y-186165357D01*
X166400000Y-186165357D02*
X166328571Y-186022500D01*
X166328571Y-186022500D02*
X166185714Y-185951071D01*
X166185714Y-185951071D02*
X165971429Y-185951071D01*
X165971429Y-185951071D02*
X165828571Y-185879642D01*
X165828571Y-185879642D02*
X165757143Y-185736785D01*
X165757143Y-185736785D02*
X165757143Y-185665357D01*
X165757143Y-185665357D02*
X165828571Y-185522500D01*
X165828571Y-185522500D02*
X165971429Y-185451071D01*
X165971429Y-185451071D02*
X166185714Y-185451071D01*
X166185714Y-185451071D02*
X166328571Y-185522500D01*
X167728572Y-185451071D02*
X168300000Y-185451071D01*
X167942857Y-186451071D02*
X167942857Y-185165357D01*
X167942857Y-185165357D02*
X168014286Y-185022500D01*
X168014286Y-185022500D02*
X168157143Y-184951071D01*
X168157143Y-184951071D02*
X168300000Y-184951071D01*
X169014286Y-186451071D02*
X168871429Y-186379642D01*
X168871429Y-186379642D02*
X168800000Y-186308214D01*
X168800000Y-186308214D02*
X168728572Y-186165357D01*
X168728572Y-186165357D02*
X168728572Y-185736785D01*
X168728572Y-185736785D02*
X168800000Y-185593928D01*
X168800000Y-185593928D02*
X168871429Y-185522500D01*
X168871429Y-185522500D02*
X169014286Y-185451071D01*
X169014286Y-185451071D02*
X169228572Y-185451071D01*
X169228572Y-185451071D02*
X169371429Y-185522500D01*
X169371429Y-185522500D02*
X169442858Y-185593928D01*
X169442858Y-185593928D02*
X169514286Y-185736785D01*
X169514286Y-185736785D02*
X169514286Y-186165357D01*
X169514286Y-186165357D02*
X169442858Y-186308214D01*
X169442858Y-186308214D02*
X169371429Y-186379642D01*
X169371429Y-186379642D02*
X169228572Y-186451071D01*
X169228572Y-186451071D02*
X169014286Y-186451071D01*
X170157143Y-186451071D02*
X170157143Y-185451071D01*
X170157143Y-185736785D02*
X170228572Y-185593928D01*
X170228572Y-185593928D02*
X170300001Y-185522500D01*
X170300001Y-185522500D02*
X170442858Y-185451071D01*
X170442858Y-185451071D02*
X170585715Y-185451071D01*
X172485714Y-185665357D02*
X172700000Y-185736785D01*
X172700000Y-185736785D02*
X172771429Y-185808214D01*
X172771429Y-185808214D02*
X172842857Y-185951071D01*
X172842857Y-185951071D02*
X172842857Y-186165357D01*
X172842857Y-186165357D02*
X172771429Y-186308214D01*
X172771429Y-186308214D02*
X172700000Y-186379642D01*
X172700000Y-186379642D02*
X172557143Y-186451071D01*
X172557143Y-186451071D02*
X171985714Y-186451071D01*
X171985714Y-186451071D02*
X171985714Y-184951071D01*
X171985714Y-184951071D02*
X172485714Y-184951071D01*
X172485714Y-184951071D02*
X172628572Y-185022500D01*
X172628572Y-185022500D02*
X172700000Y-185093928D01*
X172700000Y-185093928D02*
X172771429Y-185236785D01*
X172771429Y-185236785D02*
X172771429Y-185379642D01*
X172771429Y-185379642D02*
X172700000Y-185522500D01*
X172700000Y-185522500D02*
X172628572Y-185593928D01*
X172628572Y-185593928D02*
X172485714Y-185665357D01*
X172485714Y-185665357D02*
X171985714Y-185665357D01*
X173485714Y-186451071D02*
X173485714Y-185451071D01*
X173485714Y-184951071D02*
X173414286Y-185022500D01*
X173414286Y-185022500D02*
X173485714Y-185093928D01*
X173485714Y-185093928D02*
X173557143Y-185022500D01*
X173557143Y-185022500D02*
X173485714Y-184951071D01*
X173485714Y-184951071D02*
X173485714Y-185093928D01*
X174200000Y-186451071D02*
X174200000Y-185451071D01*
X174200000Y-185736785D02*
X174271429Y-185593928D01*
X174271429Y-185593928D02*
X174342858Y-185522500D01*
X174342858Y-185522500D02*
X174485715Y-185451071D01*
X174485715Y-185451071D02*
X174628572Y-185451071D01*
X175771429Y-186451071D02*
X175771429Y-184951071D01*
X175771429Y-186379642D02*
X175628571Y-186451071D01*
X175628571Y-186451071D02*
X175342857Y-186451071D01*
X175342857Y-186451071D02*
X175200000Y-186379642D01*
X175200000Y-186379642D02*
X175128571Y-186308214D01*
X175128571Y-186308214D02*
X175057143Y-186165357D01*
X175057143Y-186165357D02*
X175057143Y-185736785D01*
X175057143Y-185736785D02*
X175128571Y-185593928D01*
X175128571Y-185593928D02*
X175200000Y-185522500D01*
X175200000Y-185522500D02*
X175342857Y-185451071D01*
X175342857Y-185451071D02*
X175628571Y-185451071D01*
X175628571Y-185451071D02*
X175771429Y-185522500D01*
X176414286Y-186379642D02*
X176557143Y-186451071D01*
X176557143Y-186451071D02*
X176842857Y-186451071D01*
X176842857Y-186451071D02*
X176985714Y-186379642D01*
X176985714Y-186379642D02*
X177057143Y-186236785D01*
X177057143Y-186236785D02*
X177057143Y-186165357D01*
X177057143Y-186165357D02*
X176985714Y-186022500D01*
X176985714Y-186022500D02*
X176842857Y-185951071D01*
X176842857Y-185951071D02*
X176628572Y-185951071D01*
X176628572Y-185951071D02*
X176485714Y-185879642D01*
X176485714Y-185879642D02*
X176414286Y-185736785D01*
X176414286Y-185736785D02*
X176414286Y-185665357D01*
X176414286Y-185665357D02*
X176485714Y-185522500D01*
X176485714Y-185522500D02*
X176628572Y-185451071D01*
X176628572Y-185451071D02*
X176842857Y-185451071D01*
X176842857Y-185451071D02*
X176985714Y-185522500D01*
D10*
D11*
X161185714Y-181951071D02*
X161185714Y-183022500D01*
X161185714Y-183022500D02*
X161114285Y-183236785D01*
X161114285Y-183236785D02*
X160971428Y-183379642D01*
X160971428Y-183379642D02*
X160757142Y-183451071D01*
X160757142Y-183451071D02*
X160614285Y-183451071D01*
X162114285Y-183451071D02*
X161971428Y-183379642D01*
X161971428Y-183379642D02*
X161899999Y-183308214D01*
X161899999Y-183308214D02*
X161828571Y-183165357D01*
X161828571Y-183165357D02*
X161828571Y-182736785D01*
X161828571Y-182736785D02*
X161899999Y-182593928D01*
X161899999Y-182593928D02*
X161971428Y-182522500D01*
X161971428Y-182522500D02*
X162114285Y-182451071D01*
X162114285Y-182451071D02*
X162328571Y-182451071D01*
X162328571Y-182451071D02*
X162471428Y-182522500D01*
X162471428Y-182522500D02*
X162542857Y-182593928D01*
X162542857Y-182593928D02*
X162614285Y-182736785D01*
X162614285Y-182736785D02*
X162614285Y-183165357D01*
X162614285Y-183165357D02*
X162542857Y-183308214D01*
X162542857Y-183308214D02*
X162471428Y-183379642D01*
X162471428Y-183379642D02*
X162328571Y-183451071D01*
X162328571Y-183451071D02*
X162114285Y-183451071D01*
X163257142Y-183451071D02*
X163257142Y-181951071D01*
X163900000Y-183451071D02*
X163900000Y-182665357D01*
X163900000Y-182665357D02*
X163828571Y-182522500D01*
X163828571Y-182522500D02*
X163685714Y-182451071D01*
X163685714Y-182451071D02*
X163471428Y-182451071D01*
X163471428Y-182451071D02*
X163328571Y-182522500D01*
X163328571Y-182522500D02*
X163257142Y-182593928D01*
X164614285Y-182451071D02*
X164614285Y-183451071D01*
X164614285Y-182593928D02*
X164685714Y-182522500D01*
X164685714Y-182522500D02*
X164828571Y-182451071D01*
X164828571Y-182451071D02*
X165042857Y-182451071D01*
X165042857Y-182451071D02*
X165185714Y-182522500D01*
X165185714Y-182522500D02*
X165257143Y-182665357D01*
X165257143Y-182665357D02*
X165257143Y-183451071D01*
X166871428Y-183451071D02*
X166871428Y-181951071D01*
X166871428Y-181951071D02*
X167371428Y-183022500D01*
X167371428Y-183022500D02*
X167871428Y-181951071D01*
X167871428Y-181951071D02*
X167871428Y-183451071D01*
X169228572Y-183379642D02*
X169085714Y-183451071D01*
X169085714Y-183451071D02*
X168800000Y-183451071D01*
X168800000Y-183451071D02*
X168657143Y-183379642D01*
X168657143Y-183379642D02*
X168585714Y-183308214D01*
X168585714Y-183308214D02*
X168514286Y-183165357D01*
X168514286Y-183165357D02*
X168514286Y-182736785D01*
X168514286Y-182736785D02*
X168585714Y-182593928D01*
X168585714Y-182593928D02*
X168657143Y-182522500D01*
X168657143Y-182522500D02*
X168800000Y-182451071D01*
X168800000Y-182451071D02*
X169085714Y-182451071D01*
X169085714Y-182451071D02*
X169228572Y-182522500D01*
X169871428Y-183451071D02*
X169871428Y-181951071D01*
X169871428Y-181951071D02*
X170728571Y-183451071D01*
X170728571Y-183451071D02*
X170728571Y-181951071D01*
X172014286Y-183379642D02*
X171871429Y-183451071D01*
X171871429Y-183451071D02*
X171585715Y-183451071D01*
X171585715Y-183451071D02*
X171442857Y-183379642D01*
X171442857Y-183379642D02*
X171371429Y-183236785D01*
X171371429Y-183236785D02*
X171371429Y-182665357D01*
X171371429Y-182665357D02*
X171442857Y-182522500D01*
X171442857Y-182522500D02*
X171585715Y-182451071D01*
X171585715Y-182451071D02*
X171871429Y-182451071D01*
X171871429Y-182451071D02*
X172014286Y-182522500D01*
X172014286Y-182522500D02*
X172085715Y-182665357D01*
X172085715Y-182665357D02*
X172085715Y-182808214D01*
X172085715Y-182808214D02*
X171371429Y-182951071D01*
X172942857Y-183451071D02*
X172800000Y-183379642D01*
X172800000Y-183379642D02*
X172728571Y-183236785D01*
X172728571Y-183236785D02*
X172728571Y-181951071D01*
X173728571Y-183451071D02*
X173585714Y-183379642D01*
X173585714Y-183379642D02*
X173514285Y-183236785D01*
X173514285Y-183236785D02*
X173514285Y-181951071D01*
X174157142Y-182451071D02*
X174514285Y-183451071D01*
X174871428Y-182451071D02*
X174514285Y-183451071D01*
X174514285Y-183451071D02*
X174371428Y-183808214D01*
X174371428Y-183808214D02*
X174299999Y-183879642D01*
X174299999Y-183879642D02*
X174157142Y-183951071D01*
X176342856Y-182879642D02*
X177485714Y-182879642D01*
X179099999Y-182451071D02*
X179099999Y-183736785D01*
X179099999Y-183736785D02*
X179028571Y-183879642D01*
X179028571Y-183879642D02*
X178885714Y-183951071D01*
X178885714Y-183951071D02*
X178814285Y-183951071D01*
X179099999Y-181951071D02*
X179028571Y-182022500D01*
X179028571Y-182022500D02*
X179099999Y-182093928D01*
X179099999Y-182093928D02*
X179171428Y-182022500D01*
X179171428Y-182022500D02*
X179099999Y-181951071D01*
X179099999Y-181951071D02*
X179099999Y-182093928D01*
X179814285Y-183451071D02*
X179814285Y-181951071D01*
X179957143Y-182879642D02*
X180385714Y-183451071D01*
X180385714Y-182451071D02*
X179814285Y-183022500D01*
X181671429Y-183451071D02*
X181671429Y-182665357D01*
X181671429Y-182665357D02*
X181600000Y-182522500D01*
X181600000Y-182522500D02*
X181457143Y-182451071D01*
X181457143Y-182451071D02*
X181171429Y-182451071D01*
X181171429Y-182451071D02*
X181028571Y-182522500D01*
X181671429Y-183379642D02*
X181528571Y-183451071D01*
X181528571Y-183451071D02*
X181171429Y-183451071D01*
X181171429Y-183451071D02*
X181028571Y-183379642D01*
X181028571Y-183379642D02*
X180957143Y-183236785D01*
X180957143Y-183236785D02*
X180957143Y-183093928D01*
X180957143Y-183093928D02*
X181028571Y-182951071D01*
X181028571Y-182951071D02*
X181171429Y-182879642D01*
X181171429Y-182879642D02*
X181528571Y-182879642D01*
X181528571Y-182879642D02*
X181671429Y-182808214D01*
X182385714Y-183451071D02*
X182385714Y-182451071D01*
X182385714Y-181951071D02*
X182314286Y-182022500D01*
X182314286Y-182022500D02*
X182385714Y-182093928D01*
X182385714Y-182093928D02*
X182457143Y-182022500D01*
X182457143Y-182022500D02*
X182385714Y-181951071D01*
X182385714Y-181951071D02*
X182385714Y-182093928D01*
X183314286Y-183451071D02*
X183171429Y-183379642D01*
X183171429Y-183379642D02*
X183100000Y-183236785D01*
X183100000Y-183236785D02*
X183100000Y-181951071D01*
X183885714Y-183451071D02*
X183885714Y-182451071D01*
X183885714Y-181951071D02*
X183814286Y-182022500D01*
X183814286Y-182022500D02*
X183885714Y-182093928D01*
X183885714Y-182093928D02*
X183957143Y-182022500D01*
X183957143Y-182022500D02*
X183885714Y-181951071D01*
X183885714Y-181951071D02*
X183885714Y-182093928D01*
X184600000Y-183451071D02*
X184600000Y-182451071D01*
X184600000Y-182593928D02*
X184671429Y-182522500D01*
X184671429Y-182522500D02*
X184814286Y-182451071D01*
X184814286Y-182451071D02*
X185028572Y-182451071D01*
X185028572Y-182451071D02*
X185171429Y-182522500D01*
X185171429Y-182522500D02*
X185242858Y-182665357D01*
X185242858Y-182665357D02*
X185242858Y-183451071D01*
X185242858Y-182665357D02*
X185314286Y-182522500D01*
X185314286Y-182522500D02*
X185457143Y-182451071D01*
X185457143Y-182451071D02*
X185671429Y-182451071D01*
X185671429Y-182451071D02*
X185814286Y-182522500D01*
X185814286Y-182522500D02*
X185885715Y-182665357D01*
X185885715Y-182665357D02*
X185885715Y-183451071D01*
X187242858Y-183379642D02*
X187100000Y-183451071D01*
X187100000Y-183451071D02*
X186814286Y-183451071D01*
X186814286Y-183451071D02*
X186671429Y-183379642D01*
X186671429Y-183379642D02*
X186600000Y-183308214D01*
X186600000Y-183308214D02*
X186528572Y-183165357D01*
X186528572Y-183165357D02*
X186528572Y-182736785D01*
X186528572Y-182736785D02*
X186600000Y-182593928D01*
X186600000Y-182593928D02*
X186671429Y-182522500D01*
X186671429Y-182522500D02*
X186814286Y-182451071D01*
X186814286Y-182451071D02*
X187100000Y-182451071D01*
X187100000Y-182451071D02*
X187242858Y-182522500D01*
X187885714Y-182451071D02*
X187885714Y-183451071D01*
X187885714Y-182593928D02*
X187957143Y-182522500D01*
X187957143Y-182522500D02*
X188100000Y-182451071D01*
X188100000Y-182451071D02*
X188314286Y-182451071D01*
X188314286Y-182451071D02*
X188457143Y-182522500D01*
X188457143Y-182522500D02*
X188528572Y-182665357D01*
X188528572Y-182665357D02*
X188528572Y-183451071D01*
X189814286Y-183379642D02*
X189671429Y-183451071D01*
X189671429Y-183451071D02*
X189385715Y-183451071D01*
X189385715Y-183451071D02*
X189242857Y-183379642D01*
X189242857Y-183379642D02*
X189171429Y-183236785D01*
X189171429Y-183236785D02*
X189171429Y-182665357D01*
X189171429Y-182665357D02*
X189242857Y-182522500D01*
X189242857Y-182522500D02*
X189385715Y-182451071D01*
X189385715Y-182451071D02*
X189671429Y-182451071D01*
X189671429Y-182451071D02*
X189814286Y-182522500D01*
X189814286Y-182522500D02*
X189885715Y-182665357D01*
X189885715Y-182665357D02*
X189885715Y-182808214D01*
X189885715Y-182808214D02*
X189171429Y-182951071D01*
X190742857Y-183451071D02*
X190600000Y-183379642D01*
X190600000Y-183379642D02*
X190528571Y-183236785D01*
X190528571Y-183236785D02*
X190528571Y-181951071D01*
X191528571Y-183451071D02*
X191385714Y-183379642D01*
X191385714Y-183379642D02*
X191314285Y-183236785D01*
X191314285Y-183236785D02*
X191314285Y-181951071D01*
X191957142Y-182451071D02*
X192314285Y-183451071D01*
X192671428Y-182451071D02*
X192314285Y-183451071D01*
X192314285Y-183451071D02*
X192171428Y-183808214D01*
X192171428Y-183808214D02*
X192099999Y-183879642D01*
X192099999Y-183879642D02*
X191957142Y-183951071D01*
X194171428Y-182736785D02*
X194099999Y-182665357D01*
X194099999Y-182665357D02*
X193957142Y-182593928D01*
X193957142Y-182593928D02*
X193814285Y-182593928D01*
X193814285Y-182593928D02*
X193671428Y-182665357D01*
X193671428Y-182665357D02*
X193599999Y-182736785D01*
X193599999Y-182736785D02*
X193528571Y-182879642D01*
X193528571Y-182879642D02*
X193528571Y-183022500D01*
X193528571Y-183022500D02*
X193599999Y-183165357D01*
X193599999Y-183165357D02*
X193671428Y-183236785D01*
X193671428Y-183236785D02*
X193814285Y-183308214D01*
X193814285Y-183308214D02*
X193957142Y-183308214D01*
X193957142Y-183308214D02*
X194099999Y-183236785D01*
X194099999Y-183236785D02*
X194171428Y-183165357D01*
X194171428Y-182593928D02*
X194171428Y-183165357D01*
X194171428Y-183165357D02*
X194242856Y-183236785D01*
X194242856Y-183236785D02*
X194314285Y-183236785D01*
X194314285Y-183236785D02*
X194457142Y-183165357D01*
X194457142Y-183165357D02*
X194528571Y-183022500D01*
X194528571Y-183022500D02*
X194528571Y-182665357D01*
X194528571Y-182665357D02*
X194385714Y-182451071D01*
X194385714Y-182451071D02*
X194171428Y-182308214D01*
X194171428Y-182308214D02*
X193885714Y-182236785D01*
X193885714Y-182236785D02*
X193599999Y-182308214D01*
X193599999Y-182308214D02*
X193385714Y-182451071D01*
X193385714Y-182451071D02*
X193242856Y-182665357D01*
X193242856Y-182665357D02*
X193171428Y-182951071D01*
X193171428Y-182951071D02*
X193242856Y-183236785D01*
X193242856Y-183236785D02*
X193385714Y-183451071D01*
X193385714Y-183451071D02*
X193599999Y-183593928D01*
X193599999Y-183593928D02*
X193885714Y-183665357D01*
X193885714Y-183665357D02*
X194171428Y-183593928D01*
X194171428Y-183593928D02*
X194385714Y-183451071D01*
X195814285Y-182451071D02*
X195814285Y-183665357D01*
X195814285Y-183665357D02*
X195742856Y-183808214D01*
X195742856Y-183808214D02*
X195671427Y-183879642D01*
X195671427Y-183879642D02*
X195528570Y-183951071D01*
X195528570Y-183951071D02*
X195314285Y-183951071D01*
X195314285Y-183951071D02*
X195171427Y-183879642D01*
X195814285Y-183379642D02*
X195671427Y-183451071D01*
X195671427Y-183451071D02*
X195385713Y-183451071D01*
X195385713Y-183451071D02*
X195242856Y-183379642D01*
X195242856Y-183379642D02*
X195171427Y-183308214D01*
X195171427Y-183308214D02*
X195099999Y-183165357D01*
X195099999Y-183165357D02*
X195099999Y-182736785D01*
X195099999Y-182736785D02*
X195171427Y-182593928D01*
X195171427Y-182593928D02*
X195242856Y-182522500D01*
X195242856Y-182522500D02*
X195385713Y-182451071D01*
X195385713Y-182451071D02*
X195671427Y-182451071D01*
X195671427Y-182451071D02*
X195814285Y-182522500D01*
X196528570Y-183451071D02*
X196528570Y-182451071D01*
X196528570Y-182593928D02*
X196599999Y-182522500D01*
X196599999Y-182522500D02*
X196742856Y-182451071D01*
X196742856Y-182451071D02*
X196957142Y-182451071D01*
X196957142Y-182451071D02*
X197099999Y-182522500D01*
X197099999Y-182522500D02*
X197171428Y-182665357D01*
X197171428Y-182665357D02*
X197171428Y-183451071D01*
X197171428Y-182665357D02*
X197242856Y-182522500D01*
X197242856Y-182522500D02*
X197385713Y-182451071D01*
X197385713Y-182451071D02*
X197599999Y-182451071D01*
X197599999Y-182451071D02*
X197742856Y-182522500D01*
X197742856Y-182522500D02*
X197814285Y-182665357D01*
X197814285Y-182665357D02*
X197814285Y-183451071D01*
X199171428Y-183451071D02*
X199171428Y-182665357D01*
X199171428Y-182665357D02*
X199099999Y-182522500D01*
X199099999Y-182522500D02*
X198957142Y-182451071D01*
X198957142Y-182451071D02*
X198671428Y-182451071D01*
X198671428Y-182451071D02*
X198528570Y-182522500D01*
X199171428Y-183379642D02*
X199028570Y-183451071D01*
X199028570Y-183451071D02*
X198671428Y-183451071D01*
X198671428Y-183451071D02*
X198528570Y-183379642D01*
X198528570Y-183379642D02*
X198457142Y-183236785D01*
X198457142Y-183236785D02*
X198457142Y-183093928D01*
X198457142Y-183093928D02*
X198528570Y-182951071D01*
X198528570Y-182951071D02*
X198671428Y-182879642D01*
X198671428Y-182879642D02*
X199028570Y-182879642D01*
X199028570Y-182879642D02*
X199171428Y-182808214D01*
X199885713Y-183451071D02*
X199885713Y-182451071D01*
X199885713Y-181951071D02*
X199814285Y-182022500D01*
X199814285Y-182022500D02*
X199885713Y-182093928D01*
X199885713Y-182093928D02*
X199957142Y-182022500D01*
X199957142Y-182022500D02*
X199885713Y-181951071D01*
X199885713Y-181951071D02*
X199885713Y-182093928D01*
X200814285Y-183451071D02*
X200671428Y-183379642D01*
X200671428Y-183379642D02*
X200599999Y-183236785D01*
X200599999Y-183236785D02*
X200599999Y-181951071D01*
X201385713Y-183308214D02*
X201457142Y-183379642D01*
X201457142Y-183379642D02*
X201385713Y-183451071D01*
X201385713Y-183451071D02*
X201314285Y-183379642D01*
X201314285Y-183379642D02*
X201385713Y-183308214D01*
X201385713Y-183308214D02*
X201385713Y-183451071D01*
X202742857Y-183379642D02*
X202599999Y-183451071D01*
X202599999Y-183451071D02*
X202314285Y-183451071D01*
X202314285Y-183451071D02*
X202171428Y-183379642D01*
X202171428Y-183379642D02*
X202099999Y-183308214D01*
X202099999Y-183308214D02*
X202028571Y-183165357D01*
X202028571Y-183165357D02*
X202028571Y-182736785D01*
X202028571Y-182736785D02*
X202099999Y-182593928D01*
X202099999Y-182593928D02*
X202171428Y-182522500D01*
X202171428Y-182522500D02*
X202314285Y-182451071D01*
X202314285Y-182451071D02*
X202599999Y-182451071D01*
X202599999Y-182451071D02*
X202742857Y-182522500D01*
X203599999Y-183451071D02*
X203457142Y-183379642D01*
X203457142Y-183379642D02*
X203385713Y-183308214D01*
X203385713Y-183308214D02*
X203314285Y-183165357D01*
X203314285Y-183165357D02*
X203314285Y-182736785D01*
X203314285Y-182736785D02*
X203385713Y-182593928D01*
X203385713Y-182593928D02*
X203457142Y-182522500D01*
X203457142Y-182522500D02*
X203599999Y-182451071D01*
X203599999Y-182451071D02*
X203814285Y-182451071D01*
X203814285Y-182451071D02*
X203957142Y-182522500D01*
X203957142Y-182522500D02*
X204028571Y-182593928D01*
X204028571Y-182593928D02*
X204099999Y-182736785D01*
X204099999Y-182736785D02*
X204099999Y-183165357D01*
X204099999Y-183165357D02*
X204028571Y-183308214D01*
X204028571Y-183308214D02*
X203957142Y-183379642D01*
X203957142Y-183379642D02*
X203814285Y-183451071D01*
X203814285Y-183451071D02*
X203599999Y-183451071D01*
X204742856Y-183451071D02*
X204742856Y-182451071D01*
X204742856Y-182593928D02*
X204814285Y-182522500D01*
X204814285Y-182522500D02*
X204957142Y-182451071D01*
X204957142Y-182451071D02*
X205171428Y-182451071D01*
X205171428Y-182451071D02*
X205314285Y-182522500D01*
X205314285Y-182522500D02*
X205385714Y-182665357D01*
X205385714Y-182665357D02*
X205385714Y-183451071D01*
X205385714Y-182665357D02*
X205457142Y-182522500D01*
X205457142Y-182522500D02*
X205599999Y-182451071D01*
X205599999Y-182451071D02*
X205814285Y-182451071D01*
X205814285Y-182451071D02*
X205957142Y-182522500D01*
X205957142Y-182522500D02*
X206028571Y-182665357D01*
X206028571Y-182665357D02*
X206028571Y-183451071D01*
D10*
D11*
D10*
D11*
D10*
D11*
D10*
D11*
X179400000Y-197400000D02*
X179400000Y-200400000D01*
D10*
D11*
X243400000Y-197400000D02*
X243400000Y-203900000D01*
G36*
X29421464Y-108620103D02*
G01*
X29474360Y-108672997D01*
X29499095Y-108722466D01*
X29499095Y-108839437D01*
X29474360Y-108888906D01*
X29421465Y-108941801D01*
X29298194Y-108972619D01*
X29049996Y-108972619D01*
X28926722Y-108941801D01*
X28873830Y-108888907D01*
X28849095Y-108839438D01*
X28849095Y-108722467D01*
X28873829Y-108672997D01*
X28926723Y-108620103D01*
X29049996Y-108589285D01*
X29298196Y-108589285D01*
X29421464Y-108620103D01*
G37*
G36*
X30114286Y-110484881D02*
G01*
X28260714Y-110484881D01*
X28260714Y-109854703D01*
X28696251Y-109854703D01*
X28697024Y-109856660D01*
X28696725Y-109858743D01*
X28705061Y-109876998D01*
X28712438Y-109895664D01*
X28714146Y-109896892D01*
X28715021Y-109898807D01*
X28731905Y-109909657D01*
X28748201Y-109921372D01*
X28750303Y-109921481D01*
X28752073Y-109922619D01*
X28772142Y-109922619D01*
X28792185Y-109923663D01*
X28794012Y-109922619D01*
X29584877Y-109922619D01*
X29616355Y-109913376D01*
X29645197Y-109880090D01*
X29651465Y-109836495D01*
X29633169Y-109796431D01*
X29596117Y-109772619D01*
X29056512Y-109772619D01*
X29603669Y-109459957D01*
X29616355Y-109456233D01*
X29629494Y-109441069D01*
X29643412Y-109426602D01*
X29643819Y-109424536D01*
X29645197Y-109422947D01*
X29648052Y-109403086D01*
X29651939Y-109383392D01*
X29651165Y-109381434D01*
X29651465Y-109379352D01*
X29643128Y-109361096D01*
X29635752Y-109342431D01*
X29634043Y-109341202D01*
X29633169Y-109339288D01*
X29616284Y-109328437D01*
X29599989Y-109316723D01*
X29597886Y-109316613D01*
X29596117Y-109315476D01*
X29576048Y-109315476D01*
X29556005Y-109314432D01*
X29554178Y-109315476D01*
X28763313Y-109315476D01*
X28731835Y-109324719D01*
X28702993Y-109358005D01*
X28696725Y-109401600D01*
X28715021Y-109441664D01*
X28752073Y-109465476D01*
X29291678Y-109465476D01*
X28744520Y-109778137D01*
X28731835Y-109781862D01*
X28718695Y-109797025D01*
X28704778Y-109811493D01*
X28704370Y-109813558D01*
X28702993Y-109815148D01*
X28700137Y-109835008D01*
X28696251Y-109854703D01*
X28260714Y-109854703D01*
X28260714Y-108713153D01*
X28696381Y-108713153D01*
X28699095Y-108719696D01*
X28699095Y-108853103D01*
X28697164Y-108870987D01*
X28704020Y-108884700D01*
X28708338Y-108899403D01*
X28713691Y-108904041D01*
X28740902Y-108958463D01*
X28743585Y-108970794D01*
X28758206Y-108985415D01*
X28772274Y-109000539D01*
X28773692Y-109000901D01*
X28834525Y-109061735D01*
X28848825Y-109076944D01*
X28860871Y-109079955D01*
X28871765Y-109085904D01*
X28881795Y-109085186D01*
X29010597Y-109117386D01*
X29018739Y-109122619D01*
X29031527Y-109122619D01*
X29033031Y-109122995D01*
X29042277Y-109122619D01*
X29295085Y-109122619D01*
X29304254Y-109125721D01*
X29316662Y-109122619D01*
X29318210Y-109122619D01*
X29327078Y-109120014D01*
X29476886Y-109082563D01*
X29497270Y-109078129D01*
X29506049Y-109069349D01*
X29516756Y-109063068D01*
X29521301Y-109054097D01*
X29582384Y-108993014D01*
X29593234Y-108986571D01*
X29602487Y-108968062D01*
X29612379Y-108949948D01*
X29612274Y-108948489D01*
X29639371Y-108894294D01*
X29649095Y-108879165D01*
X29649095Y-108863835D01*
X29651809Y-108848752D01*
X29649095Y-108842208D01*
X29649095Y-108708803D01*
X29651026Y-108690919D01*
X29644169Y-108677206D01*
X29639852Y-108662502D01*
X29634497Y-108657862D01*
X29607287Y-108603442D01*
X29604605Y-108591110D01*
X29589979Y-108576484D01*
X29575916Y-108561365D01*
X29574496Y-108561002D01*
X29513652Y-108500158D01*
X29499364Y-108484962D01*
X29487319Y-108481950D01*
X29476423Y-108476001D01*
X29466391Y-108476718D01*
X29337592Y-108444517D01*
X29329450Y-108439285D01*
X29316662Y-108439285D01*
X29315158Y-108438909D01*
X29305912Y-108439285D01*
X29053104Y-108439285D01*
X29043935Y-108436183D01*
X29031527Y-108439285D01*
X29029979Y-108439285D01*
X29021108Y-108441889D01*
X28871293Y-108479343D01*
X28850919Y-108483776D01*
X28842140Y-108492554D01*
X28831433Y-108498837D01*
X28826887Y-108507807D01*
X28765806Y-108568888D01*
X28754956Y-108575333D01*
X28745707Y-108593831D01*
X28735810Y-108611956D01*
X28735914Y-108613416D01*
X28708817Y-108667610D01*
X28699095Y-108682740D01*
X28699095Y-108698070D01*
X28696381Y-108713153D01*
X28260714Y-108713153D01*
X28260714Y-107915119D01*
X30114286Y-107915119D01*
X30114286Y-110484881D01*
G37*
G36*
X29421464Y-64220103D02*
G01*
X29474360Y-64272997D01*
X29499095Y-64322466D01*
X29499095Y-64439437D01*
X29474360Y-64488906D01*
X29421465Y-64541801D01*
X29298194Y-64572619D01*
X29049996Y-64572619D01*
X28926722Y-64541801D01*
X28873830Y-64488907D01*
X28849095Y-64439438D01*
X28849095Y-64322467D01*
X28873829Y-64272997D01*
X28926723Y-64220103D01*
X29049996Y-64189285D01*
X29298196Y-64189285D01*
X29421464Y-64220103D01*
G37*
G36*
X30114286Y-66084881D02*
G01*
X28260714Y-66084881D01*
X28260714Y-65454703D01*
X28696251Y-65454703D01*
X28697024Y-65456660D01*
X28696725Y-65458743D01*
X28705061Y-65476998D01*
X28712438Y-65495664D01*
X28714146Y-65496892D01*
X28715021Y-65498807D01*
X28731905Y-65509657D01*
X28748201Y-65521372D01*
X28750303Y-65521481D01*
X28752073Y-65522619D01*
X28772142Y-65522619D01*
X28792185Y-65523663D01*
X28794012Y-65522619D01*
X29584877Y-65522619D01*
X29616355Y-65513376D01*
X29645197Y-65480090D01*
X29651465Y-65436495D01*
X29633169Y-65396431D01*
X29596117Y-65372619D01*
X29056512Y-65372619D01*
X29603669Y-65059957D01*
X29616355Y-65056233D01*
X29629494Y-65041069D01*
X29643412Y-65026602D01*
X29643819Y-65024536D01*
X29645197Y-65022947D01*
X29648052Y-65003086D01*
X29651939Y-64983392D01*
X29651165Y-64981434D01*
X29651465Y-64979352D01*
X29643128Y-64961096D01*
X29635752Y-64942431D01*
X29634043Y-64941202D01*
X29633169Y-64939288D01*
X29616284Y-64928437D01*
X29599989Y-64916723D01*
X29597886Y-64916613D01*
X29596117Y-64915476D01*
X29576048Y-64915476D01*
X29556005Y-64914432D01*
X29554178Y-64915476D01*
X28763313Y-64915476D01*
X28731835Y-64924719D01*
X28702993Y-64958005D01*
X28696725Y-65001600D01*
X28715021Y-65041664D01*
X28752073Y-65065476D01*
X29291678Y-65065476D01*
X28744520Y-65378137D01*
X28731835Y-65381862D01*
X28718695Y-65397025D01*
X28704778Y-65411493D01*
X28704370Y-65413558D01*
X28702993Y-65415148D01*
X28700137Y-65435008D01*
X28696251Y-65454703D01*
X28260714Y-65454703D01*
X28260714Y-64313153D01*
X28696381Y-64313153D01*
X28699095Y-64319696D01*
X28699095Y-64453103D01*
X28697164Y-64470987D01*
X28704020Y-64484700D01*
X28708338Y-64499403D01*
X28713691Y-64504041D01*
X28740902Y-64558463D01*
X28743585Y-64570794D01*
X28758206Y-64585415D01*
X28772274Y-64600539D01*
X28773692Y-64600901D01*
X28834525Y-64661735D01*
X28848825Y-64676944D01*
X28860871Y-64679955D01*
X28871765Y-64685904D01*
X28881795Y-64685186D01*
X29010597Y-64717386D01*
X29018739Y-64722619D01*
X29031527Y-64722619D01*
X29033031Y-64722995D01*
X29042277Y-64722619D01*
X29295085Y-64722619D01*
X29304254Y-64725721D01*
X29316662Y-64722619D01*
X29318210Y-64722619D01*
X29327078Y-64720014D01*
X29476886Y-64682563D01*
X29497270Y-64678129D01*
X29506049Y-64669349D01*
X29516756Y-64663068D01*
X29521301Y-64654097D01*
X29582384Y-64593014D01*
X29593234Y-64586571D01*
X29602487Y-64568062D01*
X29612379Y-64549948D01*
X29612274Y-64548489D01*
X29639371Y-64494294D01*
X29649095Y-64479165D01*
X29649095Y-64463835D01*
X29651809Y-64448752D01*
X29649095Y-64442208D01*
X29649095Y-64308803D01*
X29651026Y-64290919D01*
X29644169Y-64277206D01*
X29639852Y-64262502D01*
X29634497Y-64257862D01*
X29607287Y-64203442D01*
X29604605Y-64191110D01*
X29589979Y-64176484D01*
X29575916Y-64161365D01*
X29574496Y-64161002D01*
X29513652Y-64100158D01*
X29499364Y-64084962D01*
X29487319Y-64081950D01*
X29476423Y-64076001D01*
X29466391Y-64076718D01*
X29337592Y-64044517D01*
X29329450Y-64039285D01*
X29316662Y-64039285D01*
X29315158Y-64038909D01*
X29305912Y-64039285D01*
X29053104Y-64039285D01*
X29043935Y-64036183D01*
X29031527Y-64039285D01*
X29029979Y-64039285D01*
X29021108Y-64041889D01*
X28871293Y-64079343D01*
X28850919Y-64083776D01*
X28842140Y-64092554D01*
X28831433Y-64098837D01*
X28826887Y-64107807D01*
X28765806Y-64168888D01*
X28754956Y-64175333D01*
X28745707Y-64193831D01*
X28735810Y-64211956D01*
X28735914Y-64213416D01*
X28708817Y-64267610D01*
X28699095Y-64282740D01*
X28699095Y-64298070D01*
X28696381Y-64313153D01*
X28260714Y-64313153D01*
X28260714Y-63515119D01*
X30114286Y-63515119D01*
X30114286Y-66084881D01*
G37*
G36*
X51073275Y-65058197D02*
G01*
X51126169Y-65111091D01*
X51150904Y-65160561D01*
X51150904Y-65277532D01*
X51126169Y-65327001D01*
X51073275Y-65379895D01*
X50950003Y-65410714D01*
X50701803Y-65410714D01*
X50578533Y-65379895D01*
X50525638Y-65327000D01*
X50500904Y-65277532D01*
X50500904Y-65160561D01*
X50525637Y-65111095D01*
X50578533Y-65058197D01*
X50701805Y-65027380D01*
X50950003Y-65027380D01*
X51073275Y-65058197D01*
G37*
G36*
X51739286Y-66084881D02*
G01*
X49885714Y-66084881D01*
X49885714Y-65151246D01*
X50348190Y-65151246D01*
X50350904Y-65157790D01*
X50350904Y-65291197D01*
X50348973Y-65309081D01*
X50355829Y-65322794D01*
X50360147Y-65337497D01*
X50365500Y-65342136D01*
X50392712Y-65396558D01*
X50395395Y-65408889D01*
X50410019Y-65423513D01*
X50424085Y-65438634D01*
X50425502Y-65438996D01*
X50486344Y-65499838D01*
X50500635Y-65515037D01*
X50512678Y-65518047D01*
X50523575Y-65523998D01*
X50533607Y-65523280D01*
X50662406Y-65555481D01*
X50670549Y-65560714D01*
X50683337Y-65560714D01*
X50684841Y-65561090D01*
X50694087Y-65560714D01*
X50946895Y-65560714D01*
X50956064Y-65563816D01*
X50968472Y-65560714D01*
X50970020Y-65560714D01*
X50978890Y-65558109D01*
X51128705Y-65520655D01*
X51149080Y-65516223D01*
X51157858Y-65507444D01*
X51168566Y-65501162D01*
X51173111Y-65492191D01*
X51234192Y-65431110D01*
X51245043Y-65424666D01*
X51254291Y-65406167D01*
X51264189Y-65388043D01*
X51264084Y-65386582D01*
X51291181Y-65332388D01*
X51300904Y-65317259D01*
X51300904Y-65301928D01*
X51303618Y-65286845D01*
X51300904Y-65280301D01*
X51300904Y-65146896D01*
X51302835Y-65129012D01*
X51295978Y-65115298D01*
X51291661Y-65100596D01*
X51286307Y-65095957D01*
X51259095Y-65041534D01*
X51256414Y-65029206D01*
X51241804Y-65014596D01*
X51227725Y-64999460D01*
X51226305Y-64999097D01*
X51165475Y-64938265D01*
X51151174Y-64923055D01*
X51139125Y-64920042D01*
X51128234Y-64914096D01*
X51118206Y-64914813D01*
X50989401Y-64882612D01*
X50981260Y-64877380D01*
X50968472Y-64877380D01*
X50966968Y-64877004D01*
X50957722Y-64877380D01*
X50704915Y-64877380D01*
X50695746Y-64874278D01*
X50683338Y-64877380D01*
X50681789Y-64877380D01*
X50672915Y-64879985D01*
X50523112Y-64917435D01*
X50502729Y-64921870D01*
X50493949Y-64930649D01*
X50483243Y-64936931D01*
X50478697Y-64945901D01*
X50417614Y-65006985D01*
X50406767Y-65013428D01*
X50397520Y-65031920D01*
X50387620Y-65050052D01*
X50387724Y-65051511D01*
X50360626Y-65105705D01*
X50350904Y-65120834D01*
X50350904Y-65136163D01*
X50348190Y-65151246D01*
X49885714Y-65151246D01*
X49885714Y-64616607D01*
X50348060Y-64616607D01*
X50348833Y-64618564D01*
X50348534Y-64620647D01*
X50356870Y-64638902D01*
X50364247Y-64657568D01*
X50365955Y-64658796D01*
X50366830Y-64660711D01*
X50383714Y-64671561D01*
X50400010Y-64683276D01*
X50402112Y-64683385D01*
X50403882Y-64684523D01*
X50423951Y-64684523D01*
X50443994Y-64685567D01*
X50445821Y-64684523D01*
X51236686Y-64684523D01*
X51268164Y-64675280D01*
X51297006Y-64641994D01*
X51303274Y-64598399D01*
X51284978Y-64558335D01*
X51247926Y-64534523D01*
X50708321Y-64534523D01*
X51255478Y-64221861D01*
X51268164Y-64218137D01*
X51281303Y-64202973D01*
X51295221Y-64188506D01*
X51295628Y-64186440D01*
X51297006Y-64184851D01*
X51299861Y-64164990D01*
X51303748Y-64145296D01*
X51302974Y-64143338D01*
X51303274Y-64141256D01*
X51294937Y-64123000D01*
X51287561Y-64104335D01*
X51285852Y-64103106D01*
X51284978Y-64101192D01*
X51268093Y-64090341D01*
X51251798Y-64078627D01*
X51249695Y-64078517D01*
X51247926Y-64077380D01*
X51227857Y-64077380D01*
X51207814Y-64076336D01*
X51205987Y-64077380D01*
X50415122Y-64077380D01*
X50383644Y-64086623D01*
X50354802Y-64119909D01*
X50348534Y-64163504D01*
X50366830Y-64203568D01*
X50403882Y-64227380D01*
X50943487Y-64227380D01*
X50396329Y-64540041D01*
X50383644Y-64543766D01*
X50370504Y-64558929D01*
X50356587Y-64573397D01*
X50356179Y-64575462D01*
X50354802Y-64577052D01*
X50351946Y-64596912D01*
X50348060Y-64616607D01*
X49885714Y-64616607D01*
X49885714Y-63515119D01*
X51739286Y-63515119D01*
X51739286Y-66084881D01*
G37*
G36*
X51073275Y-109458197D02*
G01*
X51126169Y-109511091D01*
X51150904Y-109560561D01*
X51150904Y-109677532D01*
X51126169Y-109727001D01*
X51073275Y-109779895D01*
X50950003Y-109810714D01*
X50701803Y-109810714D01*
X50578533Y-109779895D01*
X50525638Y-109727000D01*
X50500904Y-109677532D01*
X50500904Y-109560561D01*
X50525637Y-109511095D01*
X50578533Y-109458197D01*
X50701805Y-109427380D01*
X50950003Y-109427380D01*
X51073275Y-109458197D01*
G37*
G36*
X51739286Y-110484881D02*
G01*
X49885714Y-110484881D01*
X49885714Y-109551246D01*
X50348190Y-109551246D01*
X50350904Y-109557790D01*
X50350904Y-109691197D01*
X50348973Y-109709081D01*
X50355829Y-109722794D01*
X50360147Y-109737497D01*
X50365500Y-109742136D01*
X50392712Y-109796558D01*
X50395395Y-109808889D01*
X50410019Y-109823513D01*
X50424085Y-109838634D01*
X50425502Y-109838996D01*
X50486344Y-109899838D01*
X50500635Y-109915037D01*
X50512678Y-109918047D01*
X50523575Y-109923998D01*
X50533607Y-109923280D01*
X50662406Y-109955481D01*
X50670549Y-109960714D01*
X50683337Y-109960714D01*
X50684841Y-109961090D01*
X50694087Y-109960714D01*
X50946895Y-109960714D01*
X50956064Y-109963816D01*
X50968472Y-109960714D01*
X50970020Y-109960714D01*
X50978890Y-109958109D01*
X51128705Y-109920655D01*
X51149080Y-109916223D01*
X51157858Y-109907444D01*
X51168566Y-109901162D01*
X51173111Y-109892191D01*
X51234192Y-109831110D01*
X51245043Y-109824666D01*
X51254291Y-109806167D01*
X51264189Y-109788043D01*
X51264084Y-109786582D01*
X51291181Y-109732388D01*
X51300904Y-109717259D01*
X51300904Y-109701928D01*
X51303618Y-109686845D01*
X51300904Y-109680301D01*
X51300904Y-109546896D01*
X51302835Y-109529012D01*
X51295978Y-109515298D01*
X51291661Y-109500596D01*
X51286307Y-109495957D01*
X51259095Y-109441534D01*
X51256414Y-109429206D01*
X51241804Y-109414596D01*
X51227725Y-109399460D01*
X51226305Y-109399097D01*
X51165475Y-109338265D01*
X51151174Y-109323055D01*
X51139125Y-109320042D01*
X51128234Y-109314096D01*
X51118206Y-109314813D01*
X50989401Y-109282612D01*
X50981260Y-109277380D01*
X50968472Y-109277380D01*
X50966968Y-109277004D01*
X50957722Y-109277380D01*
X50704915Y-109277380D01*
X50695746Y-109274278D01*
X50683338Y-109277380D01*
X50681789Y-109277380D01*
X50672915Y-109279985D01*
X50523112Y-109317435D01*
X50502729Y-109321870D01*
X50493949Y-109330649D01*
X50483243Y-109336931D01*
X50478697Y-109345901D01*
X50417614Y-109406985D01*
X50406767Y-109413428D01*
X50397520Y-109431920D01*
X50387620Y-109450052D01*
X50387724Y-109451511D01*
X50360626Y-109505705D01*
X50350904Y-109520834D01*
X50350904Y-109536163D01*
X50348190Y-109551246D01*
X49885714Y-109551246D01*
X49885714Y-109016607D01*
X50348060Y-109016607D01*
X50348833Y-109018564D01*
X50348534Y-109020647D01*
X50356870Y-109038902D01*
X50364247Y-109057568D01*
X50365955Y-109058796D01*
X50366830Y-109060711D01*
X50383714Y-109071561D01*
X50400010Y-109083276D01*
X50402112Y-109083385D01*
X50403882Y-109084523D01*
X50423951Y-109084523D01*
X50443994Y-109085567D01*
X50445821Y-109084523D01*
X51236686Y-109084523D01*
X51268164Y-109075280D01*
X51297006Y-109041994D01*
X51303274Y-108998399D01*
X51284978Y-108958335D01*
X51247926Y-108934523D01*
X50708321Y-108934523D01*
X51255478Y-108621861D01*
X51268164Y-108618137D01*
X51281303Y-108602973D01*
X51295221Y-108588506D01*
X51295628Y-108586440D01*
X51297006Y-108584851D01*
X51299861Y-108564990D01*
X51303748Y-108545296D01*
X51302974Y-108543338D01*
X51303274Y-108541256D01*
X51294937Y-108523000D01*
X51287561Y-108504335D01*
X51285852Y-108503106D01*
X51284978Y-108501192D01*
X51268093Y-108490341D01*
X51251798Y-108478627D01*
X51249695Y-108478517D01*
X51247926Y-108477380D01*
X51227857Y-108477380D01*
X51207814Y-108476336D01*
X51205987Y-108477380D01*
X50415122Y-108477380D01*
X50383644Y-108486623D01*
X50354802Y-108519909D01*
X50348534Y-108563504D01*
X50366830Y-108603568D01*
X50403882Y-108627380D01*
X50943487Y-108627380D01*
X50396329Y-108940041D01*
X50383644Y-108943766D01*
X50370504Y-108958929D01*
X50356587Y-108973397D01*
X50356179Y-108975462D01*
X50354802Y-108977052D01*
X50351946Y-108996912D01*
X50348060Y-109016607D01*
X49885714Y-109016607D01*
X49885714Y-107915119D01*
X51739286Y-107915119D01*
X51739286Y-110484881D01*
G37*
D14*
G36*
X33495795Y-119442276D02*
G01*
X33611762Y-119511856D01*
X33676251Y-119576346D01*
X33745829Y-119692309D01*
X33764702Y-119748928D01*
X33764702Y-119819333D01*
X33727528Y-119893680D01*
X33669890Y-119951318D01*
X33236787Y-119518215D01*
X33294427Y-119460575D01*
X33368773Y-119423403D01*
X33439176Y-119423403D01*
X33495795Y-119442276D01*
G37*
G36*
X35001685Y-119557687D02*
G01*
X32500000Y-122059372D01*
X31174557Y-120733929D01*
X31956003Y-120733929D01*
X31964171Y-120758433D01*
X31971450Y-120783223D01*
X31972833Y-120784421D01*
X31986364Y-120825014D01*
X31986031Y-120835839D01*
X31994898Y-120850617D01*
X31995907Y-120853644D01*
X32001812Y-120862141D01*
X32073067Y-120980899D01*
X32075640Y-120992724D01*
X32086945Y-121004029D01*
X32087942Y-121005690D01*
X32096447Y-121013531D01*
X32165007Y-121082089D01*
X32170370Y-121092936D01*
X32184080Y-121101162D01*
X32185450Y-121102532D01*
X32195604Y-121108076D01*
X32314343Y-121179320D01*
X32321135Y-121187756D01*
X32337487Y-121193206D01*
X32340221Y-121194847D01*
X32350229Y-121197454D01*
X32416910Y-121219681D01*
X32430180Y-121228209D01*
X32456013Y-121228209D01*
X32481829Y-121229142D01*
X32483403Y-121228209D01*
X32560409Y-121228209D01*
X32582761Y-121230622D01*
X32599895Y-121222054D01*
X32618282Y-121216656D01*
X32624083Y-121209961D01*
X32704619Y-121169692D01*
X32720033Y-121166340D01*
X32738291Y-121148081D01*
X32757215Y-121130479D01*
X32757668Y-121128704D01*
X32785061Y-121101311D01*
X32798623Y-121093257D01*
X32810172Y-121070159D01*
X32822557Y-121047478D01*
X32822426Y-121045651D01*
X32862552Y-120965400D01*
X32874707Y-120946488D01*
X32874707Y-120927328D01*
X32878100Y-120908472D01*
X32874707Y-120900291D01*
X32874707Y-120882000D01*
X32878416Y-120872056D01*
X32874707Y-120855005D01*
X32874707Y-120851605D01*
X32871853Y-120841888D01*
X32866714Y-120818259D01*
X32864167Y-120815712D01*
X32863154Y-120812260D01*
X32844884Y-120796429D01*
X32663428Y-120614974D01*
X32650949Y-120598304D01*
X32631439Y-120591027D01*
X32613164Y-120581048D01*
X32606049Y-120581556D01*
X32599366Y-120579064D01*
X32579015Y-120583490D01*
X32558250Y-120584976D01*
X32552541Y-120589249D01*
X32545569Y-120590766D01*
X32530841Y-120605493D01*
X32514176Y-120617969D01*
X32511683Y-120624651D01*
X32408822Y-120727514D01*
X32389170Y-120763504D01*
X32393098Y-120818418D01*
X32426091Y-120862492D01*
X32477674Y-120881732D01*
X32531471Y-120870029D01*
X32592395Y-120809105D01*
X32684843Y-120901553D01*
X32650032Y-120971175D01*
X32617673Y-121003535D01*
X32543326Y-121040709D01*
X32472921Y-121040709D01*
X32416305Y-121021837D01*
X32300340Y-120952257D01*
X32235847Y-120887766D01*
X32166267Y-120771798D01*
X32147397Y-120715186D01*
X32147397Y-120644779D01*
X32184571Y-120570432D01*
X32238976Y-120516027D01*
X32311582Y-120491825D01*
X32345254Y-120468422D01*
X32366299Y-120417549D01*
X32356499Y-120363373D01*
X32318966Y-120323096D01*
X32265615Y-120309505D01*
X32163475Y-120343552D01*
X32141508Y-120348331D01*
X32127962Y-120361876D01*
X32112226Y-120372813D01*
X32108839Y-120380999D01*
X32049543Y-120440295D01*
X32035980Y-120448351D01*
X32024421Y-120471466D01*
X32012047Y-120494130D01*
X32012177Y-120495955D01*
X31972051Y-120576208D01*
X31959897Y-120595120D01*
X31959897Y-120614280D01*
X31956504Y-120633136D01*
X31959897Y-120641317D01*
X31959897Y-120718643D01*
X31956003Y-120733929D01*
X31174557Y-120733929D01*
X31043486Y-120602858D01*
X31542477Y-120103867D01*
X32414124Y-120103867D01*
X32419455Y-120128374D01*
X32423506Y-120153139D01*
X32425268Y-120155094D01*
X32425827Y-120157664D01*
X32443556Y-120175393D01*
X32460358Y-120194042D01*
X32462897Y-120194734D01*
X33020508Y-120752346D01*
X33056499Y-120771998D01*
X33111413Y-120768070D01*
X33155486Y-120735077D01*
X33174727Y-120683493D01*
X33163024Y-120629697D01*
X32827497Y-120294170D01*
X33365239Y-120440826D01*
X33379748Y-120448749D01*
X33404770Y-120446959D01*
X33429853Y-120446474D01*
X33432038Y-120445008D01*
X33434662Y-120444821D01*
X33454745Y-120429786D01*
X33475583Y-120415818D01*
X33476628Y-120413405D01*
X33478736Y-120411828D01*
X33487508Y-120388308D01*
X33497480Y-120365306D01*
X33497055Y-120362711D01*
X33497976Y-120360244D01*
X33492640Y-120335716D01*
X33488593Y-120310973D01*
X33486832Y-120309018D01*
X33486273Y-120306448D01*
X33468539Y-120288714D01*
X33451742Y-120270070D01*
X33449202Y-120269377D01*
X32891590Y-119711766D01*
X32855600Y-119692114D01*
X32800685Y-119696042D01*
X32756612Y-119729035D01*
X32737372Y-119780618D01*
X32749075Y-119834415D01*
X33084602Y-120169941D01*
X32546861Y-120023285D01*
X32532352Y-120015363D01*
X32507329Y-120017152D01*
X32482247Y-120017638D01*
X32480061Y-120019103D01*
X32477438Y-120019291D01*
X32457358Y-120034321D01*
X32436516Y-120048294D01*
X32435469Y-120050707D01*
X32433364Y-120052284D01*
X32424596Y-120075789D01*
X32414619Y-120098806D01*
X32415043Y-120101401D01*
X32414124Y-120103867D01*
X31542477Y-120103867D01*
X32135100Y-119511244D01*
X33006746Y-119511244D01*
X33011172Y-119531591D01*
X33012658Y-119552360D01*
X33016932Y-119558070D01*
X33018449Y-119565041D01*
X33033172Y-119579764D01*
X33045651Y-119596434D01*
X33052335Y-119598927D01*
X33598858Y-120145449D01*
X33611337Y-120162119D01*
X33630846Y-120169395D01*
X33649122Y-120179375D01*
X33656236Y-120178866D01*
X33662920Y-120181359D01*
X33683267Y-120176932D01*
X33704036Y-120175447D01*
X33709746Y-120171172D01*
X33716717Y-120169656D01*
X33731440Y-120154932D01*
X33748110Y-120142454D01*
X33750602Y-120135770D01*
X33862557Y-120023816D01*
X33876120Y-120015761D01*
X33887671Y-119992657D01*
X33900053Y-119969982D01*
X33899922Y-119968155D01*
X33940046Y-119887906D01*
X33952202Y-119868992D01*
X33952202Y-119849831D01*
X33955595Y-119830975D01*
X33952202Y-119822794D01*
X33952202Y-119745468D01*
X33956096Y-119730183D01*
X33947929Y-119705683D01*
X33940649Y-119680889D01*
X33939264Y-119679689D01*
X33925734Y-119639099D01*
X33926068Y-119628274D01*
X33917199Y-119613492D01*
X33916191Y-119610468D01*
X33910290Y-119601977D01*
X33839030Y-119483209D01*
X33836459Y-119471389D01*
X33825156Y-119460086D01*
X33824158Y-119458422D01*
X33815635Y-119450565D01*
X33747093Y-119382023D01*
X33741730Y-119371176D01*
X33728020Y-119362950D01*
X33726650Y-119361580D01*
X33716492Y-119356033D01*
X33597757Y-119284793D01*
X33590966Y-119276357D01*
X33574611Y-119270905D01*
X33571879Y-119269266D01*
X33561876Y-119266660D01*
X33495188Y-119244430D01*
X33481919Y-119235903D01*
X33456096Y-119235903D01*
X33430270Y-119234969D01*
X33428694Y-119235903D01*
X33351686Y-119235903D01*
X33329337Y-119233490D01*
X33312201Y-119242057D01*
X33293817Y-119247456D01*
X33288016Y-119254150D01*
X33207478Y-119294419D01*
X33192066Y-119297772D01*
X33173807Y-119316030D01*
X33154884Y-119333633D01*
X33154430Y-119335407D01*
X33042656Y-119447181D01*
X33025986Y-119459661D01*
X33018709Y-119479170D01*
X33008730Y-119497446D01*
X33009238Y-119504560D01*
X33006746Y-119511244D01*
X32135100Y-119511244D01*
X33545171Y-118101173D01*
X35001685Y-119557687D01*
G37*
G36*
X38540433Y-122018939D02*
G01*
X35500000Y-125059372D01*
X34043486Y-123602858D01*
X34057604Y-123588740D01*
X35198624Y-123588740D01*
X35210327Y-123642537D01*
X35378999Y-123811209D01*
X35220260Y-123969949D01*
X35200608Y-124005940D01*
X35204536Y-124060854D01*
X35237529Y-124104928D01*
X35289112Y-124124168D01*
X35342909Y-124112466D01*
X35511582Y-123943792D01*
X35670323Y-124102532D01*
X35706313Y-124122184D01*
X35761228Y-124118256D01*
X35805301Y-124085263D01*
X35824541Y-124033680D01*
X35812838Y-123979883D01*
X35644164Y-123811210D01*
X35802905Y-123652470D01*
X35822557Y-123616480D01*
X35818629Y-123561566D01*
X35785636Y-123517492D01*
X35734053Y-123498252D01*
X35680256Y-123509954D01*
X35511581Y-123678627D01*
X35352842Y-123519888D01*
X35316852Y-123500236D01*
X35261937Y-123504164D01*
X35217864Y-123537157D01*
X35198624Y-123588740D01*
X34057604Y-123588740D01*
X34811851Y-122834493D01*
X35683497Y-122834493D01*
X35689180Y-122860619D01*
X35714144Y-122985435D01*
X35714144Y-123068686D01*
X35687754Y-123147855D01*
X35686272Y-123188834D01*
X35714344Y-123236194D01*
X35763564Y-123260860D01*
X35818306Y-123255001D01*
X35861190Y-123220475D01*
X35893116Y-123124696D01*
X35901644Y-123111428D01*
X35901644Y-123094734D01*
X36214059Y-123407149D01*
X36109194Y-123512015D01*
X36089542Y-123548005D01*
X36093470Y-123602919D01*
X36126463Y-123646993D01*
X36178046Y-123666233D01*
X36231843Y-123654530D01*
X36408193Y-123478179D01*
X36424861Y-123465703D01*
X36427353Y-123459019D01*
X36584089Y-123302285D01*
X36603741Y-123266294D01*
X36599813Y-123211380D01*
X36566820Y-123167306D01*
X36515237Y-123148066D01*
X36461440Y-123159769D01*
X36346641Y-123274567D01*
X35857349Y-122785274D01*
X35851197Y-122773544D01*
X35838281Y-122766207D01*
X35837715Y-122765641D01*
X35826577Y-122759559D01*
X35803326Y-122746352D01*
X35802474Y-122746398D01*
X35801725Y-122745989D01*
X35775041Y-122747897D01*
X35748354Y-122749356D01*
X35747662Y-122749856D01*
X35746810Y-122749917D01*
X35725407Y-122765939D01*
X35703731Y-122781604D01*
X35703418Y-122782399D01*
X35702737Y-122782910D01*
X35693397Y-122807949D01*
X35683628Y-122832857D01*
X35683795Y-122833693D01*
X35683497Y-122834493D01*
X34811851Y-122834493D01*
X35157882Y-122488462D01*
X36117271Y-122488462D01*
X36118205Y-122490038D01*
X36118205Y-122531695D01*
X36129758Y-122571040D01*
X36171366Y-122607093D01*
X36225860Y-122614928D01*
X36275940Y-122592058D01*
X36305705Y-122545743D01*
X36305705Y-122479553D01*
X36320832Y-122434169D01*
X36424222Y-122330780D01*
X36469604Y-122315653D01*
X36493051Y-122315653D01*
X36538437Y-122330782D01*
X36565904Y-122358248D01*
X36603078Y-122432596D01*
X36603078Y-123033035D01*
X36601353Y-123036194D01*
X36603078Y-123060310D01*
X36603078Y-123070443D01*
X36604036Y-123073706D01*
X36605281Y-123091108D01*
X36611640Y-123099603D01*
X36614631Y-123109788D01*
X36627818Y-123121214D01*
X36638274Y-123135182D01*
X36648218Y-123138891D01*
X36656239Y-123145841D01*
X36673507Y-123148323D01*
X36689857Y-123154422D01*
X36700228Y-123152165D01*
X36710733Y-123153676D01*
X36726604Y-123146427D01*
X36743654Y-123142719D01*
X36751157Y-123135215D01*
X36760813Y-123130806D01*
X36770247Y-123116125D01*
X37122837Y-122763536D01*
X37142489Y-122727546D01*
X37138561Y-122672631D01*
X37105568Y-122628558D01*
X37053985Y-122609318D01*
X37000188Y-122621020D01*
X36790578Y-122830631D01*
X36790578Y-122415512D01*
X36792991Y-122393160D01*
X36784423Y-122376025D01*
X36779025Y-122357640D01*
X36772330Y-122351839D01*
X36732062Y-122271304D01*
X36728710Y-122255891D01*
X36710444Y-122237624D01*
X36692848Y-122218708D01*
X36691074Y-122218254D01*
X36658938Y-122186118D01*
X36644841Y-122168607D01*
X36626665Y-122162548D01*
X36609849Y-122153366D01*
X36601014Y-122153997D01*
X36549063Y-122136680D01*
X36535794Y-122128153D01*
X36509971Y-122128153D01*
X36484145Y-122127219D01*
X36482569Y-122128153D01*
X36466146Y-122128153D01*
X36450860Y-122124259D01*
X36426356Y-122132427D01*
X36401567Y-122139706D01*
X36400367Y-122141090D01*
X36348719Y-122158306D01*
X36326753Y-122163085D01*
X36313206Y-122176631D01*
X36297472Y-122187567D01*
X36294086Y-122195751D01*
X36176171Y-122313666D01*
X36158658Y-122327767D01*
X36152599Y-122345942D01*
X36143417Y-122362759D01*
X36144048Y-122371594D01*
X36126732Y-122423542D01*
X36118205Y-122436812D01*
X36118205Y-122462635D01*
X36117271Y-122488462D01*
X35157882Y-122488462D01*
X35642671Y-122003673D01*
X36548292Y-122003673D01*
X36576406Y-122051009D01*
X37340106Y-122432858D01*
X37347306Y-122440598D01*
X37364252Y-122444931D01*
X37367332Y-122446471D01*
X37377261Y-122448257D01*
X37400645Y-122454237D01*
X37404103Y-122453087D01*
X37407690Y-122453733D01*
X37429990Y-122444484D01*
X37452889Y-122436874D01*
X37455175Y-122434038D01*
X37458544Y-122432642D01*
X37472305Y-122412803D01*
X37487455Y-122394022D01*
X37487846Y-122390399D01*
X37489923Y-122387405D01*
X37490774Y-122363274D01*
X37493364Y-122339285D01*
X37491735Y-122336027D01*
X37491864Y-122332384D01*
X37479533Y-122311624D01*
X37097901Y-121548360D01*
X37069972Y-121518335D01*
X37016633Y-121504696D01*
X36964389Y-121522059D01*
X36929823Y-121564911D01*
X36923914Y-121619648D01*
X37187570Y-122146959D01*
X36672823Y-121889586D01*
X36632465Y-121882324D01*
X36581611Y-121903416D01*
X36550233Y-121948653D01*
X36548292Y-122003673D01*
X35642671Y-122003673D01*
X37083919Y-120562425D01*
X38540433Y-122018939D01*
G37*
G36*
X47815429Y-120570434D02*
G01*
X47852602Y-120644779D01*
X47852602Y-120715185D01*
X47833729Y-120771801D01*
X47764152Y-120887764D01*
X47699658Y-120952257D01*
X47583694Y-121021837D01*
X47527079Y-121040709D01*
X47456674Y-121040709D01*
X47382324Y-121003534D01*
X47324687Y-120945897D01*
X47757790Y-120512794D01*
X47815429Y-120570434D01*
G37*
G36*
X48956514Y-120602858D02*
G01*
X47500000Y-122059372D01*
X46379554Y-120938926D01*
X47094646Y-120938926D01*
X47099072Y-120959273D01*
X47100558Y-120980042D01*
X47104832Y-120985752D01*
X47106349Y-120992723D01*
X47121072Y-121007446D01*
X47133551Y-121024116D01*
X47140234Y-121026608D01*
X47252189Y-121138564D01*
X47260244Y-121152126D01*
X47283350Y-121163679D01*
X47306023Y-121176059D01*
X47307848Y-121175928D01*
X47388102Y-121216055D01*
X47407014Y-121228209D01*
X47426174Y-121228209D01*
X47445030Y-121231602D01*
X47453211Y-121228209D01*
X47530536Y-121228209D01*
X47545822Y-121232103D01*
X47570326Y-121223934D01*
X47595116Y-121216656D01*
X47596314Y-121215272D01*
X47636907Y-121201741D01*
X47647732Y-121202075D01*
X47662510Y-121193207D01*
X47665537Y-121192199D01*
X47674035Y-121186292D01*
X47792792Y-121115037D01*
X47804615Y-121112466D01*
X47815920Y-121101160D01*
X47817583Y-121100163D01*
X47825426Y-121091654D01*
X47893984Y-121023098D01*
X47904830Y-121017736D01*
X47913054Y-121004028D01*
X47914426Y-121002657D01*
X47919976Y-120992491D01*
X47991215Y-120873761D01*
X47999649Y-120866971D01*
X48005098Y-120850622D01*
X48006741Y-120847885D01*
X48009350Y-120837867D01*
X48031574Y-120771195D01*
X48040102Y-120757926D01*
X48040102Y-120732093D01*
X48041035Y-120706277D01*
X48040102Y-120704703D01*
X48040102Y-120627695D01*
X48042515Y-120605343D01*
X48033947Y-120588208D01*
X48028549Y-120569823D01*
X48021854Y-120564022D01*
X47981585Y-120483485D01*
X47978233Y-120468073D01*
X47959974Y-120449814D01*
X47942372Y-120430891D01*
X47940597Y-120430437D01*
X47828820Y-120318660D01*
X47816344Y-120301994D01*
X47796838Y-120294718D01*
X47778559Y-120284737D01*
X47771443Y-120285245D01*
X47764760Y-120282753D01*
X47744412Y-120287179D01*
X47723645Y-120288665D01*
X47717934Y-120292939D01*
X47710964Y-120294456D01*
X47696240Y-120309179D01*
X47679571Y-120321658D01*
X47677077Y-120328342D01*
X47130555Y-120874864D01*
X47113886Y-120887343D01*
X47106609Y-120906852D01*
X47096630Y-120925128D01*
X47097138Y-120932242D01*
X47094646Y-120938926D01*
X46379554Y-120938926D01*
X45773133Y-120332505D01*
X46504007Y-120332505D01*
X46507935Y-120387419D01*
X46540928Y-120431493D01*
X46592511Y-120450733D01*
X46646308Y-120439031D01*
X46981835Y-120103504D01*
X46835179Y-120641243D01*
X46827256Y-120655754D01*
X46829045Y-120680776D01*
X46829531Y-120705859D01*
X46830996Y-120708044D01*
X46831184Y-120710668D01*
X46846214Y-120730747D01*
X46860187Y-120751590D01*
X46862600Y-120752636D01*
X46864177Y-120754742D01*
X46887682Y-120763509D01*
X46910699Y-120773487D01*
X46913294Y-120773062D01*
X46915760Y-120773982D01*
X46940276Y-120768649D01*
X46965032Y-120764600D01*
X46966986Y-120762839D01*
X46969557Y-120762280D01*
X46987301Y-120744535D01*
X47005934Y-120727748D01*
X47006625Y-120725211D01*
X47564240Y-120167598D01*
X47583892Y-120131607D01*
X47579964Y-120076693D01*
X47546971Y-120032619D01*
X47495388Y-120013379D01*
X47441591Y-120025082D01*
X47106063Y-120360608D01*
X47252719Y-119822868D01*
X47260643Y-119808358D01*
X47258853Y-119783335D01*
X47258368Y-119758253D01*
X47256902Y-119756067D01*
X47256715Y-119753444D01*
X47241684Y-119733364D01*
X47227712Y-119712522D01*
X47225298Y-119711475D01*
X47223722Y-119709370D01*
X47200216Y-119700602D01*
X47177200Y-119690625D01*
X47174604Y-119691049D01*
X47172139Y-119690130D01*
X47147631Y-119695461D01*
X47122867Y-119699512D01*
X47120911Y-119701274D01*
X47118342Y-119701833D01*
X47100613Y-119719561D01*
X47081965Y-119736363D01*
X47081272Y-119738902D01*
X46523659Y-120296514D01*
X46504007Y-120332505D01*
X45773133Y-120332505D01*
X45299396Y-119858768D01*
X46045383Y-119858768D01*
X46053952Y-119875906D01*
X46059350Y-119894289D01*
X46066043Y-119900088D01*
X46106312Y-119980626D01*
X46109665Y-119996039D01*
X46127923Y-120014297D01*
X46145526Y-120033221D01*
X46147300Y-120033674D01*
X46174692Y-120061066D01*
X46182748Y-120074630D01*
X46205862Y-120086187D01*
X46228527Y-120098563D01*
X46230352Y-120098432D01*
X46310606Y-120138559D01*
X46329518Y-120150713D01*
X46348678Y-120150713D01*
X46367534Y-120154106D01*
X46375715Y-120150713D01*
X46394007Y-120150713D01*
X46403951Y-120154422D01*
X46421000Y-120150713D01*
X46424401Y-120150713D01*
X46434123Y-120147858D01*
X46457747Y-120142719D01*
X46460291Y-120140174D01*
X46463746Y-120139160D01*
X46479582Y-120120883D01*
X46661031Y-119939433D01*
X46677701Y-119926955D01*
X46684977Y-119907445D01*
X46694957Y-119889170D01*
X46694448Y-119882055D01*
X46696941Y-119875372D01*
X46692514Y-119855024D01*
X46691029Y-119834255D01*
X46686754Y-119828544D01*
X46685238Y-119821575D01*
X46670515Y-119806852D01*
X46658036Y-119790182D01*
X46651351Y-119787688D01*
X46548492Y-119684829D01*
X46512502Y-119665177D01*
X46457588Y-119669105D01*
X46413514Y-119702098D01*
X46394274Y-119753681D01*
X46405977Y-119807478D01*
X46466899Y-119868401D01*
X46374451Y-119960850D01*
X46304830Y-119926039D01*
X46272470Y-119893680D01*
X46235297Y-119819333D01*
X46235297Y-119748927D01*
X46254168Y-119692311D01*
X46323749Y-119576343D01*
X46388239Y-119511854D01*
X46504203Y-119442275D01*
X46560820Y-119423403D01*
X46631225Y-119423403D01*
X46705574Y-119460577D01*
X46759978Y-119514982D01*
X46784179Y-119587586D01*
X46807581Y-119621259D01*
X46858455Y-119642304D01*
X46912630Y-119632505D01*
X46952908Y-119594972D01*
X46966500Y-119541621D01*
X46932454Y-119439484D01*
X46927675Y-119417514D01*
X46914127Y-119403966D01*
X46903193Y-119388233D01*
X46895008Y-119384847D01*
X46835710Y-119325549D01*
X46827655Y-119311986D01*
X46804542Y-119300429D01*
X46781876Y-119288053D01*
X46780049Y-119288183D01*
X46699799Y-119248058D01*
X46680885Y-119235903D01*
X46661724Y-119235903D01*
X46642868Y-119232510D01*
X46634687Y-119235903D01*
X46557362Y-119235903D01*
X46542076Y-119232009D01*
X46517572Y-119240177D01*
X46492783Y-119247456D01*
X46491583Y-119248840D01*
X46450990Y-119262371D01*
X46440167Y-119262038D01*
X46425386Y-119270906D01*
X46422360Y-119271915D01*
X46413865Y-119277819D01*
X46295102Y-119349075D01*
X46283282Y-119351647D01*
X46271979Y-119362949D01*
X46270315Y-119363948D01*
X46262458Y-119372470D01*
X46193916Y-119441012D01*
X46183069Y-119446376D01*
X46174843Y-119460085D01*
X46173473Y-119461456D01*
X46167926Y-119471613D01*
X46096685Y-119590349D01*
X46088250Y-119597141D01*
X46082799Y-119613493D01*
X46081159Y-119616227D01*
X46078551Y-119626235D01*
X46056324Y-119692916D01*
X46047797Y-119706186D01*
X46047797Y-119732009D01*
X46046863Y-119757836D01*
X46047797Y-119759412D01*
X46047797Y-119836414D01*
X46045383Y-119858768D01*
X45299396Y-119858768D01*
X44998315Y-119557687D01*
X46454829Y-118101173D01*
X48956514Y-120602858D01*
G37*
G36*
X45956514Y-123602858D02*
G01*
X44500000Y-125059372D01*
X43578530Y-124137902D01*
X44283020Y-124137902D01*
X44284169Y-124141360D01*
X44283524Y-124144947D01*
X44292770Y-124167241D01*
X44300383Y-124190147D01*
X44303219Y-124192434D01*
X44304616Y-124195802D01*
X44324448Y-124209558D01*
X44343235Y-124224712D01*
X44346859Y-124225103D01*
X44349853Y-124227180D01*
X44373973Y-124228030D01*
X44397971Y-124230622D01*
X44401230Y-124228992D01*
X44404873Y-124229121D01*
X44425633Y-124216790D01*
X45188898Y-123835160D01*
X45218922Y-123807231D01*
X45232561Y-123753892D01*
X45215199Y-123701647D01*
X45172347Y-123667082D01*
X45117610Y-123661172D01*
X44590298Y-123924827D01*
X44847672Y-123410081D01*
X44854934Y-123369724D01*
X44833842Y-123318869D01*
X44788605Y-123287491D01*
X44733585Y-123285550D01*
X44686249Y-123313664D01*
X44304398Y-124077364D01*
X44296659Y-124084564D01*
X44292325Y-124101510D01*
X44290786Y-124104590D01*
X44288999Y-124114517D01*
X44283020Y-124137902D01*
X43578530Y-124137902D01*
X42867744Y-123427116D01*
X43582835Y-123427116D01*
X43585091Y-123437487D01*
X43583581Y-123447992D01*
X43590829Y-123463863D01*
X43594538Y-123480913D01*
X43602041Y-123488416D01*
X43606451Y-123498072D01*
X43621131Y-123507506D01*
X43973721Y-123860096D01*
X44009712Y-123879748D01*
X44064626Y-123875820D01*
X44108699Y-123842827D01*
X44127940Y-123791243D01*
X44116237Y-123737447D01*
X43906626Y-123527837D01*
X44321744Y-123527837D01*
X44344096Y-123530250D01*
X44361230Y-123521682D01*
X44379617Y-123516284D01*
X44385418Y-123509589D01*
X44465954Y-123469321D01*
X44481369Y-123465968D01*
X44499637Y-123447698D01*
X44518550Y-123430107D01*
X44519003Y-123428332D01*
X44551139Y-123396197D01*
X44568650Y-123382099D01*
X44574709Y-123363921D01*
X44583891Y-123347105D01*
X44583259Y-123338272D01*
X44600575Y-123286322D01*
X44609104Y-123273053D01*
X44609104Y-123247230D01*
X44610038Y-123221404D01*
X44609104Y-123219828D01*
X44609104Y-123203405D01*
X44612998Y-123188119D01*
X44604832Y-123163622D01*
X44597551Y-123138825D01*
X44596166Y-123137625D01*
X44578950Y-123085978D01*
X44574172Y-123064012D01*
X44560626Y-123050466D01*
X44549690Y-123034730D01*
X44541503Y-123031343D01*
X44423592Y-122913432D01*
X44409492Y-122895918D01*
X44391314Y-122889858D01*
X44374498Y-122880676D01*
X44365663Y-122881307D01*
X44313714Y-122863990D01*
X44300445Y-122855463D01*
X44274623Y-122855463D01*
X44248796Y-122854529D01*
X44247220Y-122855463D01*
X44205562Y-122855463D01*
X44166217Y-122867016D01*
X44130164Y-122908624D01*
X44122329Y-122963118D01*
X44145199Y-123013198D01*
X44191514Y-123042963D01*
X44257702Y-123042963D01*
X44303087Y-123058091D01*
X44406475Y-123161480D01*
X44421604Y-123206864D01*
X44421604Y-123230311D01*
X44406475Y-123275694D01*
X44379006Y-123303164D01*
X44304661Y-123340337D01*
X43704222Y-123340337D01*
X43701063Y-123338612D01*
X43676947Y-123340337D01*
X43666814Y-123340337D01*
X43663550Y-123341295D01*
X43646148Y-123342540D01*
X43637652Y-123348899D01*
X43627469Y-123351890D01*
X43616042Y-123365076D01*
X43602075Y-123375533D01*
X43598365Y-123385477D01*
X43591416Y-123393498D01*
X43588933Y-123410766D01*
X43582835Y-123427116D01*
X42867744Y-123427116D01*
X42355933Y-122915305D01*
X43071025Y-122915305D01*
X43082727Y-122969102D01*
X43259080Y-123145455D01*
X43271554Y-123162119D01*
X43278235Y-123164611D01*
X43434972Y-123321348D01*
X43470962Y-123341000D01*
X43525877Y-123337072D01*
X43569950Y-123304079D01*
X43589191Y-123252496D01*
X43577488Y-123198699D01*
X43462689Y-123083900D01*
X43951984Y-122594606D01*
X43963712Y-122588456D01*
X43971046Y-122575544D01*
X43971616Y-122574975D01*
X43977711Y-122563810D01*
X43990905Y-122540586D01*
X43990858Y-122539734D01*
X43991268Y-122538984D01*
X43989359Y-122512301D01*
X43987901Y-122485613D01*
X43987400Y-122484920D01*
X43987340Y-122484070D01*
X43971342Y-122462700D01*
X43955654Y-122440991D01*
X43954857Y-122440678D01*
X43954347Y-122439997D01*
X43929338Y-122430668D01*
X43904401Y-122420887D01*
X43903563Y-122421054D01*
X43902763Y-122420756D01*
X43876630Y-122426441D01*
X43751823Y-122451402D01*
X43668570Y-122451402D01*
X43589403Y-122425013D01*
X43548423Y-122423531D01*
X43501063Y-122451603D01*
X43476398Y-122500823D01*
X43482258Y-122555566D01*
X43516784Y-122598449D01*
X43612559Y-122630374D01*
X43625829Y-122638902D01*
X43642524Y-122638902D01*
X43330108Y-122951317D01*
X43225244Y-122846453D01*
X43189253Y-122826801D01*
X43134339Y-122830729D01*
X43090265Y-122863722D01*
X43071025Y-122915305D01*
X42355933Y-122915305D01*
X41466999Y-122026371D01*
X42613089Y-122026371D01*
X42624792Y-122080168D01*
X42793464Y-122248841D01*
X42634725Y-122407581D01*
X42615073Y-122443571D01*
X42619001Y-122498485D01*
X42651994Y-122542559D01*
X42703577Y-122561799D01*
X42757374Y-122550096D01*
X42926046Y-122381423D01*
X43084786Y-122540163D01*
X43120777Y-122559815D01*
X43175691Y-122555887D01*
X43219765Y-122522894D01*
X43239005Y-122471311D01*
X43227302Y-122417514D01*
X43058629Y-122248841D01*
X43217369Y-122090102D01*
X43237021Y-122054111D01*
X43233093Y-121999197D01*
X43200100Y-121955123D01*
X43148517Y-121935883D01*
X43094720Y-121947586D01*
X42926047Y-122116259D01*
X42767307Y-121957519D01*
X42731317Y-121937867D01*
X42676403Y-121941795D01*
X42632329Y-121974788D01*
X42613089Y-122026371D01*
X41466999Y-122026371D01*
X41459567Y-122018939D01*
X42916081Y-120562425D01*
X45956514Y-123602858D01*
G37*
G36*
X32617674Y-52996464D02*
G01*
X32675311Y-53054102D01*
X32242209Y-53487205D01*
X32184570Y-53429566D01*
X32147397Y-53355220D01*
X32147397Y-53284814D01*
X32166268Y-53228198D01*
X32235849Y-53112230D01*
X32300340Y-53047741D01*
X32416303Y-52978162D01*
X32472922Y-52959290D01*
X32543325Y-52959290D01*
X32617674Y-52996464D01*
G37*
G36*
X35001685Y-54442313D02*
G01*
X33545171Y-55898827D01*
X32104722Y-54458378D01*
X33033499Y-54458378D01*
X33067546Y-54560522D01*
X33072324Y-54582485D01*
X33085868Y-54596029D01*
X33096805Y-54611766D01*
X33104990Y-54615152D01*
X33164289Y-54674451D01*
X33172344Y-54688013D01*
X33195450Y-54699566D01*
X33218123Y-54711946D01*
X33219948Y-54711815D01*
X33300202Y-54751942D01*
X33319114Y-54764096D01*
X33338274Y-54764096D01*
X33357130Y-54767489D01*
X33365311Y-54764096D01*
X33442637Y-54764096D01*
X33457922Y-54767990D01*
X33482418Y-54759824D01*
X33507216Y-54752543D01*
X33508415Y-54751158D01*
X33549007Y-54737627D01*
X33559833Y-54737961D01*
X33574615Y-54729091D01*
X33577638Y-54728084D01*
X33586124Y-54722185D01*
X33704894Y-54650923D01*
X33716717Y-54648352D01*
X33728021Y-54637047D01*
X33729684Y-54636050D01*
X33737530Y-54627539D01*
X33806084Y-54558985D01*
X33816930Y-54553623D01*
X33825154Y-54539915D01*
X33826526Y-54538544D01*
X33832075Y-54528381D01*
X33903315Y-54409648D01*
X33911749Y-54402858D01*
X33917198Y-54386509D01*
X33918841Y-54383772D01*
X33921450Y-54373754D01*
X33943674Y-54307082D01*
X33952202Y-54293813D01*
X33952202Y-54267980D01*
X33953135Y-54242164D01*
X33952202Y-54240590D01*
X33952202Y-54163585D01*
X33954616Y-54141231D01*
X33946046Y-54124092D01*
X33940649Y-54105710D01*
X33933955Y-54099910D01*
X33893688Y-54019375D01*
X33890335Y-54003960D01*
X33872064Y-53985690D01*
X33854473Y-53966778D01*
X33852698Y-53966324D01*
X33825306Y-53938932D01*
X33817251Y-53925369D01*
X33794138Y-53913812D01*
X33771472Y-53901436D01*
X33769645Y-53901566D01*
X33689395Y-53861441D01*
X33670481Y-53849286D01*
X33651320Y-53849286D01*
X33632464Y-53845893D01*
X33624283Y-53849286D01*
X33605992Y-53849286D01*
X33596048Y-53845577D01*
X33578999Y-53849286D01*
X33575598Y-53849286D01*
X33565875Y-53852140D01*
X33542252Y-53857280D01*
X33539707Y-53859824D01*
X33536253Y-53860839D01*
X33520416Y-53879115D01*
X33338967Y-54060565D01*
X33322298Y-54073044D01*
X33315021Y-54092553D01*
X33305042Y-54110829D01*
X33305550Y-54117943D01*
X33303058Y-54124627D01*
X33307484Y-54144974D01*
X33308970Y-54165744D01*
X33313244Y-54171454D01*
X33314761Y-54178424D01*
X33329483Y-54193146D01*
X33341963Y-54209817D01*
X33348646Y-54212309D01*
X33451506Y-54315170D01*
X33487497Y-54334822D01*
X33542411Y-54330894D01*
X33586485Y-54297901D01*
X33605725Y-54246318D01*
X33594022Y-54192521D01*
X33533098Y-54131597D01*
X33625547Y-54039149D01*
X33695171Y-54073961D01*
X33727528Y-54106318D01*
X33764702Y-54180666D01*
X33764702Y-54251072D01*
X33745829Y-54307688D01*
X33676250Y-54423654D01*
X33611761Y-54488143D01*
X33495793Y-54557723D01*
X33439178Y-54576596D01*
X33368774Y-54576596D01*
X33294424Y-54539421D01*
X33240020Y-54485017D01*
X33215819Y-54412413D01*
X33192417Y-54378740D01*
X33141544Y-54357695D01*
X33087369Y-54367494D01*
X33047090Y-54405027D01*
X33033499Y-54458378D01*
X32104722Y-54458378D01*
X31514736Y-53868392D01*
X32416107Y-53868392D01*
X32420035Y-53923306D01*
X32453028Y-53967380D01*
X32504611Y-53986620D01*
X32558408Y-53974918D01*
X32893935Y-53639391D01*
X32747279Y-54177130D01*
X32739356Y-54191641D01*
X32741145Y-54216663D01*
X32741631Y-54241746D01*
X32743096Y-54243931D01*
X32743284Y-54246555D01*
X32758314Y-54266634D01*
X32772287Y-54287477D01*
X32774700Y-54288523D01*
X32776277Y-54290629D01*
X32799782Y-54299396D01*
X32822799Y-54309374D01*
X32825394Y-54308949D01*
X32827860Y-54309869D01*
X32852376Y-54304536D01*
X32877132Y-54300487D01*
X32879086Y-54298726D01*
X32881657Y-54298167D01*
X32899401Y-54280422D01*
X32918034Y-54263635D01*
X32918725Y-54261098D01*
X33476340Y-53703485D01*
X33495992Y-53667494D01*
X33492064Y-53612580D01*
X33459071Y-53568506D01*
X33407488Y-53549266D01*
X33353691Y-53560969D01*
X33018163Y-53896495D01*
X33164819Y-53358755D01*
X33172743Y-53344245D01*
X33170953Y-53319222D01*
X33170468Y-53294140D01*
X33169002Y-53291954D01*
X33168815Y-53289331D01*
X33153784Y-53269251D01*
X33139812Y-53248409D01*
X33137398Y-53247362D01*
X33135822Y-53245257D01*
X33112316Y-53236489D01*
X33089300Y-53226512D01*
X33086704Y-53226936D01*
X33084239Y-53226017D01*
X33059731Y-53231348D01*
X33034967Y-53235399D01*
X33033011Y-53237161D01*
X33030442Y-53237720D01*
X33012713Y-53255448D01*
X32994065Y-53272250D01*
X32993372Y-53274789D01*
X32435759Y-53832401D01*
X32416107Y-53868392D01*
X31514736Y-53868392D01*
X31043486Y-53397142D01*
X31045972Y-53394656D01*
X31957484Y-53394656D01*
X31966051Y-53411790D01*
X31971450Y-53430176D01*
X31978144Y-53435976D01*
X32018413Y-53516513D01*
X32021766Y-53531926D01*
X32040026Y-53550186D01*
X32057627Y-53569108D01*
X32059401Y-53569561D01*
X32171179Y-53681340D01*
X32183655Y-53698006D01*
X32203163Y-53705282D01*
X32221440Y-53715262D01*
X32228554Y-53714753D01*
X32235238Y-53717246D01*
X32255585Y-53712819D01*
X32276354Y-53711334D01*
X32282064Y-53707059D01*
X32289035Y-53705543D01*
X32303758Y-53690819D01*
X32320428Y-53678341D01*
X32322921Y-53671656D01*
X32869447Y-53125131D01*
X32886113Y-53112656D01*
X32893389Y-53093147D01*
X32903369Y-53074871D01*
X32902860Y-53067756D01*
X32905353Y-53061073D01*
X32900926Y-53040725D01*
X32899441Y-53019957D01*
X32895166Y-53014246D01*
X32893650Y-53007276D01*
X32878924Y-52992550D01*
X32866448Y-52975884D01*
X32859765Y-52973391D01*
X32747810Y-52861436D01*
X32739755Y-52847873D01*
X32716642Y-52836316D01*
X32693976Y-52823940D01*
X32692149Y-52824070D01*
X32611899Y-52783945D01*
X32592985Y-52771790D01*
X32573824Y-52771790D01*
X32554968Y-52768397D01*
X32546787Y-52771790D01*
X32469462Y-52771790D01*
X32454177Y-52767896D01*
X32429677Y-52776062D01*
X32404883Y-52783343D01*
X32403683Y-52784727D01*
X32363093Y-52798257D01*
X32352267Y-52797924D01*
X32337484Y-52806793D01*
X32334462Y-52807801D01*
X32325973Y-52813700D01*
X32207207Y-52884960D01*
X32195383Y-52887533D01*
X32184075Y-52898840D01*
X32182416Y-52899836D01*
X32174581Y-52908334D01*
X32106014Y-52976900D01*
X32095169Y-52982263D01*
X32086944Y-52995970D01*
X32085573Y-52997342D01*
X32080020Y-53007510D01*
X32008785Y-53126236D01*
X32000350Y-53133028D01*
X31994899Y-53149380D01*
X31993259Y-53152114D01*
X31990651Y-53162122D01*
X31968424Y-53228803D01*
X31959897Y-53242073D01*
X31959897Y-53267896D01*
X31958963Y-53293723D01*
X31959897Y-53295299D01*
X31959897Y-53372304D01*
X31957484Y-53394656D01*
X31045972Y-53394656D01*
X32500000Y-51940628D01*
X35001685Y-54442313D01*
G37*
G36*
X38540433Y-51981061D02*
G01*
X37083919Y-53437575D01*
X35107359Y-51461015D01*
X36008731Y-51461015D01*
X36010639Y-51487697D01*
X36012098Y-51514386D01*
X36012598Y-51515078D01*
X36012659Y-51515929D01*
X36028666Y-51537312D01*
X36044345Y-51559008D01*
X36045140Y-51559320D01*
X36045652Y-51560003D01*
X36070696Y-51569344D01*
X36095598Y-51579112D01*
X36096434Y-51578944D01*
X36097235Y-51579243D01*
X36123362Y-51573559D01*
X36248176Y-51548597D01*
X36331429Y-51548597D01*
X36410596Y-51574986D01*
X36451575Y-51576467D01*
X36498936Y-51548395D01*
X36508812Y-51528688D01*
X36760994Y-51528688D01*
X36772697Y-51582485D01*
X36941369Y-51751158D01*
X36782630Y-51909898D01*
X36762978Y-51945888D01*
X36766906Y-52000802D01*
X36799899Y-52044876D01*
X36851482Y-52064116D01*
X36905279Y-52052413D01*
X37073951Y-51883740D01*
X37232691Y-52042480D01*
X37268682Y-52062132D01*
X37323596Y-52058204D01*
X37367670Y-52025211D01*
X37386910Y-51973628D01*
X37375207Y-51919831D01*
X37206534Y-51751158D01*
X37365274Y-51592419D01*
X37384926Y-51556428D01*
X37380998Y-51501514D01*
X37348005Y-51457440D01*
X37296422Y-51438200D01*
X37242625Y-51449903D01*
X37073952Y-51618576D01*
X36915212Y-51459836D01*
X36879222Y-51440184D01*
X36824308Y-51444112D01*
X36780234Y-51477105D01*
X36760994Y-51528688D01*
X36508812Y-51528688D01*
X36523601Y-51499175D01*
X36517741Y-51444433D01*
X36483215Y-51401550D01*
X36387439Y-51369624D01*
X36374170Y-51361097D01*
X36357475Y-51361097D01*
X36669891Y-51048681D01*
X36774755Y-51153546D01*
X36810745Y-51173198D01*
X36865660Y-51169270D01*
X36909733Y-51136277D01*
X36928974Y-51084694D01*
X36917271Y-51030897D01*
X36740918Y-50854543D01*
X36728445Y-50837881D01*
X36721764Y-50835389D01*
X36565027Y-50678651D01*
X36529036Y-50658999D01*
X36474122Y-50662927D01*
X36430048Y-50695920D01*
X36410808Y-50747503D01*
X36422510Y-50801300D01*
X36537308Y-50916099D01*
X36048016Y-51405391D01*
X36036287Y-51411543D01*
X36028951Y-51424456D01*
X36028383Y-51425025D01*
X36022296Y-51436171D01*
X36009094Y-51459413D01*
X36009140Y-51460264D01*
X36008731Y-51461015D01*
X35107359Y-51461015D01*
X34458225Y-50811881D01*
X35387001Y-50811881D01*
X35395169Y-50836384D01*
X35402448Y-50861174D01*
X35403832Y-50862373D01*
X35421049Y-50914023D01*
X35425827Y-50935987D01*
X35439373Y-50949533D01*
X35450310Y-50965269D01*
X35458494Y-50968654D01*
X35576408Y-51086569D01*
X35590508Y-51104082D01*
X35608685Y-51110141D01*
X35625501Y-51119323D01*
X35634334Y-51118691D01*
X35686284Y-51136007D01*
X35699554Y-51144536D01*
X35725377Y-51144536D01*
X35751203Y-51145470D01*
X35752779Y-51144536D01*
X35794437Y-51144536D01*
X35833782Y-51132983D01*
X35869835Y-51091375D01*
X35877670Y-51036881D01*
X35854800Y-50986801D01*
X35808485Y-50957036D01*
X35742296Y-50957036D01*
X35696911Y-50941907D01*
X35593523Y-50838519D01*
X35578395Y-50793136D01*
X35578395Y-50769689D01*
X35593523Y-50724304D01*
X35620993Y-50696834D01*
X35695338Y-50659662D01*
X36295777Y-50659662D01*
X36298936Y-50661387D01*
X36323052Y-50659662D01*
X36333185Y-50659662D01*
X36336448Y-50658703D01*
X36353850Y-50657459D01*
X36362344Y-50651099D01*
X36372530Y-50648109D01*
X36383958Y-50634920D01*
X36397923Y-50624466D01*
X36401631Y-50614523D01*
X36408583Y-50606501D01*
X36411066Y-50589229D01*
X36417164Y-50572882D01*
X36414907Y-50562510D01*
X36416418Y-50552007D01*
X36409170Y-50536135D01*
X36405461Y-50519086D01*
X36397957Y-50511582D01*
X36393548Y-50501927D01*
X36378866Y-50492491D01*
X36026277Y-50139903D01*
X35990287Y-50120251D01*
X35935372Y-50124179D01*
X35891299Y-50157172D01*
X35872059Y-50208755D01*
X35883762Y-50262552D01*
X36093372Y-50472162D01*
X35678251Y-50472162D01*
X35655902Y-50469749D01*
X35638766Y-50478316D01*
X35620382Y-50483715D01*
X35614581Y-50490409D01*
X35534044Y-50530677D01*
X35518630Y-50534031D01*
X35500361Y-50552300D01*
X35481449Y-50569892D01*
X35480995Y-50571666D01*
X35448858Y-50603803D01*
X35431350Y-50617899D01*
X35425290Y-50636075D01*
X35416108Y-50652894D01*
X35416739Y-50661727D01*
X35399422Y-50713676D01*
X35390895Y-50726946D01*
X35390895Y-50752768D01*
X35389961Y-50778595D01*
X35390895Y-50780171D01*
X35390895Y-50796595D01*
X35387001Y-50811881D01*
X34458225Y-50811881D01*
X34043486Y-50397142D01*
X34194522Y-50246106D01*
X34767438Y-50246106D01*
X34784801Y-50298351D01*
X34827653Y-50332916D01*
X34882389Y-50338826D01*
X35409700Y-50075171D01*
X35152327Y-50589918D01*
X35145065Y-50630275D01*
X35166157Y-50681130D01*
X35211394Y-50712508D01*
X35266414Y-50714449D01*
X35313750Y-50686335D01*
X35695600Y-49922634D01*
X35703340Y-49915435D01*
X35707673Y-49898488D01*
X35709213Y-49895409D01*
X35710999Y-49885479D01*
X35716979Y-49862096D01*
X35715829Y-49858637D01*
X35716475Y-49855052D01*
X35707232Y-49832767D01*
X35699617Y-49809851D01*
X35696778Y-49807561D01*
X35695383Y-49804197D01*
X35675566Y-49790451D01*
X35656765Y-49775286D01*
X35653138Y-49774894D01*
X35650146Y-49772819D01*
X35626039Y-49771968D01*
X35602028Y-49769376D01*
X35598767Y-49771006D01*
X35595126Y-49770878D01*
X35574375Y-49783202D01*
X34811102Y-50164839D01*
X34781077Y-50192768D01*
X34767438Y-50246106D01*
X34194522Y-50246106D01*
X35500000Y-48940628D01*
X38540433Y-51981061D01*
G37*
G36*
X46763211Y-54481784D02*
G01*
X46705574Y-54539422D01*
X46631226Y-54576596D01*
X46560822Y-54576596D01*
X46504203Y-54557722D01*
X46388237Y-54488143D01*
X46323748Y-54423654D01*
X46254167Y-54307685D01*
X46235297Y-54251073D01*
X46235297Y-54180666D01*
X46272470Y-54106319D01*
X46330108Y-54048681D01*
X46763211Y-54481784D01*
G37*
G36*
X48956514Y-53397142D02*
G01*
X46454829Y-55898827D01*
X44998315Y-54442313D01*
X45170812Y-54269816D01*
X46043903Y-54269816D01*
X46052071Y-54294320D01*
X46059350Y-54319110D01*
X46060733Y-54320308D01*
X46074264Y-54360901D01*
X46073931Y-54371726D01*
X46082798Y-54386504D01*
X46083807Y-54389531D01*
X46089712Y-54398028D01*
X46160968Y-54516787D01*
X46163540Y-54528610D01*
X46174844Y-54539914D01*
X46175842Y-54541577D01*
X46184352Y-54549423D01*
X46252906Y-54617977D01*
X46258269Y-54628823D01*
X46271976Y-54637047D01*
X46273348Y-54638419D01*
X46283510Y-54643968D01*
X46402242Y-54715207D01*
X46409033Y-54723642D01*
X46425384Y-54729092D01*
X46428120Y-54730734D01*
X46438131Y-54733341D01*
X46504811Y-54755568D01*
X46518080Y-54764096D01*
X46543902Y-54764096D01*
X46569728Y-54765030D01*
X46571304Y-54764096D01*
X46648309Y-54764096D01*
X46670661Y-54766509D01*
X46687795Y-54757941D01*
X46706182Y-54752543D01*
X46711983Y-54745848D01*
X46792519Y-54705579D01*
X46807933Y-54702227D01*
X46826193Y-54683966D01*
X46845115Y-54666366D01*
X46845568Y-54664591D01*
X46957347Y-54552813D01*
X46974013Y-54540338D01*
X46981288Y-54520830D01*
X46991269Y-54502553D01*
X46990760Y-54495437D01*
X46993253Y-54488754D01*
X46988826Y-54468406D01*
X46987341Y-54447639D01*
X46983066Y-54441928D01*
X46981550Y-54434958D01*
X46966826Y-54420234D01*
X46954348Y-54403565D01*
X46947663Y-54401071D01*
X46401140Y-53854549D01*
X46388662Y-53837880D01*
X46369152Y-53830603D01*
X46350877Y-53820624D01*
X46343762Y-53821132D01*
X46337079Y-53818640D01*
X46316731Y-53823066D01*
X46295962Y-53824552D01*
X46290251Y-53828826D01*
X46283282Y-53830343D01*
X46268559Y-53845065D01*
X46251889Y-53857545D01*
X46249395Y-53864229D01*
X46137443Y-53976181D01*
X46123879Y-53984238D01*
X46112323Y-54007348D01*
X46099946Y-54030017D01*
X46100076Y-54031843D01*
X46059952Y-54112092D01*
X46047797Y-54131007D01*
X46047797Y-54150168D01*
X46044404Y-54169024D01*
X46047797Y-54177205D01*
X46047797Y-54254530D01*
X46043903Y-54269816D01*
X45170812Y-54269816D01*
X45800874Y-53639754D01*
X46502023Y-53639754D01*
X46507354Y-53664261D01*
X46511405Y-53689026D01*
X46513167Y-53690981D01*
X46513726Y-53693551D01*
X46531454Y-53711279D01*
X46548257Y-53729929D01*
X46550796Y-53730621D01*
X47108409Y-54288233D01*
X47144399Y-54307885D01*
X47199313Y-54303957D01*
X47243387Y-54270964D01*
X47262627Y-54219380D01*
X47250924Y-54165584D01*
X46915397Y-53830057D01*
X47453137Y-53976713D01*
X47467647Y-53984636D01*
X47492669Y-53982846D01*
X47517752Y-53982361D01*
X47519937Y-53980895D01*
X47522561Y-53980708D01*
X47542640Y-53965676D01*
X47563482Y-53951705D01*
X47564528Y-53949291D01*
X47566634Y-53947715D01*
X47575403Y-53924204D01*
X47585379Y-53901193D01*
X47584954Y-53898598D01*
X47585875Y-53896131D01*
X47580539Y-53871603D01*
X47576492Y-53846860D01*
X47574731Y-53844905D01*
X47574172Y-53842335D01*
X47556438Y-53824601D01*
X47539641Y-53805957D01*
X47537101Y-53805264D01*
X46979490Y-53247653D01*
X46943500Y-53228001D01*
X46888586Y-53231929D01*
X46844512Y-53264922D01*
X46825272Y-53316505D01*
X46836975Y-53370302D01*
X47172500Y-53705828D01*
X46634760Y-53559172D01*
X46620251Y-53551250D01*
X46595228Y-53553039D01*
X46570146Y-53553525D01*
X46567960Y-53554990D01*
X46565336Y-53555178D01*
X46545252Y-53570212D01*
X46524415Y-53584181D01*
X46523368Y-53586594D01*
X46521263Y-53588171D01*
X46512495Y-53611676D01*
X46502518Y-53634693D01*
X46502942Y-53637288D01*
X46502023Y-53639754D01*
X45800874Y-53639754D01*
X46312685Y-53127943D01*
X47121583Y-53127943D01*
X47125292Y-53144993D01*
X47125292Y-53148394D01*
X47128147Y-53158117D01*
X47133286Y-53181740D01*
X47135830Y-53184284D01*
X47136845Y-53187739D01*
X47155121Y-53203575D01*
X47336571Y-53385025D01*
X47349050Y-53401695D01*
X47368559Y-53408971D01*
X47386835Y-53418951D01*
X47393949Y-53418442D01*
X47400633Y-53420935D01*
X47420980Y-53416508D01*
X47441750Y-53415023D01*
X47447460Y-53410748D01*
X47454430Y-53409232D01*
X47469152Y-53394509D01*
X47485823Y-53382030D01*
X47488316Y-53375345D01*
X47591177Y-53272485D01*
X47610829Y-53236495D01*
X47606901Y-53181580D01*
X47573908Y-53137507D01*
X47522325Y-53118267D01*
X47468528Y-53129969D01*
X47407604Y-53190893D01*
X47315154Y-53098444D01*
X47349966Y-53028822D01*
X47382325Y-52996463D01*
X47456673Y-52959290D01*
X47527078Y-52959290D01*
X47583693Y-52978161D01*
X47699658Y-53047741D01*
X47764150Y-53112232D01*
X47833729Y-53228196D01*
X47852602Y-53284815D01*
X47852602Y-53355219D01*
X47815427Y-53429567D01*
X47761023Y-53483971D01*
X47688418Y-53508174D01*
X47654745Y-53531576D01*
X47633700Y-53582450D01*
X47643500Y-53636625D01*
X47681034Y-53676903D01*
X47734385Y-53690494D01*
X47836527Y-53656445D01*
X47858491Y-53651668D01*
X47872037Y-53638121D01*
X47887773Y-53627185D01*
X47891158Y-53619000D01*
X47950458Y-53559701D01*
X47964018Y-53551648D01*
X47975563Y-53528557D01*
X47987952Y-53505869D01*
X47987821Y-53504042D01*
X48027947Y-53423791D01*
X48040102Y-53404879D01*
X48040102Y-53385719D01*
X48043495Y-53366863D01*
X48040102Y-53358682D01*
X48040102Y-53281355D01*
X48043996Y-53266070D01*
X48035829Y-53241570D01*
X48028549Y-53216776D01*
X48027164Y-53215576D01*
X48013634Y-53174986D01*
X48013968Y-53164161D01*
X48005099Y-53149379D01*
X48004091Y-53146355D01*
X47998190Y-53137864D01*
X47926930Y-53019097D01*
X47924359Y-53007275D01*
X47913055Y-52995971D01*
X47912058Y-52994309D01*
X47903543Y-52986459D01*
X47834991Y-52917909D01*
X47829629Y-52907063D01*
X47815918Y-52898836D01*
X47814549Y-52897467D01*
X47804394Y-52891922D01*
X47685655Y-52820678D01*
X47678864Y-52812243D01*
X47662511Y-52806792D01*
X47659778Y-52805152D01*
X47649769Y-52802544D01*
X47583088Y-52780317D01*
X47569819Y-52771790D01*
X47543996Y-52771790D01*
X47518169Y-52770856D01*
X47516593Y-52771790D01*
X47439586Y-52771790D01*
X47417237Y-52769377D01*
X47400101Y-52777944D01*
X47381717Y-52783343D01*
X47375916Y-52790037D01*
X47295381Y-52830304D01*
X47279966Y-52833658D01*
X47261696Y-52851928D01*
X47242784Y-52869520D01*
X47242330Y-52871294D01*
X47214938Y-52898686D01*
X47201375Y-52906742D01*
X47189816Y-52929857D01*
X47177442Y-52952521D01*
X47177572Y-52954346D01*
X47137446Y-53034599D01*
X47125292Y-53053511D01*
X47125292Y-53072671D01*
X47121899Y-53091527D01*
X47125292Y-53099708D01*
X47125292Y-53117999D01*
X47121583Y-53127943D01*
X46312685Y-53127943D01*
X47500000Y-51940628D01*
X48956514Y-53397142D01*
G37*
G36*
X45956514Y-50397142D02*
G01*
X42916081Y-53437575D01*
X41459567Y-51981061D01*
X41779914Y-51660714D01*
X42506635Y-51660714D01*
X42508264Y-51663972D01*
X42508136Y-51667615D01*
X42520463Y-51688371D01*
X42902098Y-52451639D01*
X42930027Y-52481664D01*
X42983366Y-52495303D01*
X43035610Y-52477940D01*
X43070176Y-52435088D01*
X43076085Y-52380351D01*
X42812429Y-51853040D01*
X43327176Y-52110413D01*
X43367534Y-52117675D01*
X43418388Y-52096584D01*
X43449767Y-52051347D01*
X43451708Y-51996326D01*
X43423593Y-51948991D01*
X42659892Y-51567140D01*
X42652693Y-51559401D01*
X42635746Y-51555067D01*
X42632667Y-51553528D01*
X42622737Y-51551741D01*
X42599354Y-51545762D01*
X42595895Y-51546911D01*
X42592309Y-51546266D01*
X42570014Y-51555512D01*
X42547110Y-51563125D01*
X42544821Y-51565961D01*
X42541455Y-51567358D01*
X42527702Y-51587185D01*
X42512544Y-51605977D01*
X42512152Y-51609602D01*
X42510077Y-51612595D01*
X42509226Y-51636710D01*
X42506635Y-51660714D01*
X41779914Y-51660714D01*
X42168175Y-51272453D01*
X42857510Y-51272453D01*
X42861438Y-51327367D01*
X42894431Y-51371441D01*
X42946014Y-51390681D01*
X42999811Y-51378978D01*
X43209421Y-51169368D01*
X43209421Y-51584487D01*
X43207008Y-51606839D01*
X43215575Y-51623973D01*
X43220974Y-51642359D01*
X43227668Y-51648159D01*
X43267936Y-51728694D01*
X43271289Y-51744108D01*
X43289551Y-51762370D01*
X43307151Y-51781291D01*
X43308925Y-51781744D01*
X43341054Y-51813874D01*
X43355158Y-51831392D01*
X43373336Y-51837451D01*
X43390150Y-51846633D01*
X43398984Y-51846001D01*
X43450936Y-51863318D01*
X43464205Y-51871846D01*
X43490027Y-51871846D01*
X43515853Y-51872780D01*
X43517429Y-51871846D01*
X43533853Y-51871846D01*
X43549138Y-51875740D01*
X43573634Y-51867574D01*
X43598432Y-51860293D01*
X43599631Y-51858908D01*
X43651276Y-51841693D01*
X43673246Y-51836914D01*
X43686793Y-51823366D01*
X43702527Y-51812432D01*
X43705912Y-51804247D01*
X43823832Y-51686328D01*
X43841341Y-51672232D01*
X43847399Y-51654057D01*
X43856582Y-51637240D01*
X43855950Y-51628404D01*
X43873266Y-51576456D01*
X43881794Y-51563187D01*
X43881794Y-51537354D01*
X43882727Y-51511538D01*
X43881794Y-51509964D01*
X43881794Y-51468304D01*
X43870241Y-51428959D01*
X43828633Y-51392906D01*
X43774139Y-51385071D01*
X43724059Y-51407941D01*
X43694294Y-51454256D01*
X43694294Y-51520446D01*
X43679166Y-51565829D01*
X43575778Y-51669217D01*
X43530394Y-51684346D01*
X43506947Y-51684346D01*
X43461562Y-51669217D01*
X43434094Y-51641748D01*
X43396921Y-51567403D01*
X43396921Y-50966964D01*
X43398646Y-50963805D01*
X43396921Y-50939689D01*
X43396921Y-50929556D01*
X43395962Y-50926292D01*
X43394718Y-50908890D01*
X43388358Y-50900394D01*
X43385368Y-50890211D01*
X43372181Y-50878784D01*
X43361725Y-50864817D01*
X43351780Y-50861107D01*
X43343760Y-50854158D01*
X43326491Y-50851675D01*
X43310142Y-50845577D01*
X43299769Y-50847833D01*
X43289266Y-50846323D01*
X43273397Y-50853569D01*
X43256345Y-50857279D01*
X43248839Y-50864784D01*
X43239186Y-50869193D01*
X43229752Y-50883871D01*
X42877162Y-51236463D01*
X42857510Y-51272453D01*
X42168175Y-51272453D01*
X42706923Y-50733705D01*
X43396258Y-50733705D01*
X43400186Y-50788619D01*
X43433179Y-50832693D01*
X43484762Y-50851933D01*
X43538559Y-50840230D01*
X43653357Y-50725432D01*
X44142650Y-51214724D01*
X44148802Y-51226454D01*
X44161715Y-51233789D01*
X44162284Y-51234358D01*
X44173443Y-51240451D01*
X44196673Y-51253647D01*
X44197524Y-51253600D01*
X44198274Y-51254010D01*
X44224985Y-51252099D01*
X44251645Y-51250642D01*
X44252335Y-51250142D01*
X44253188Y-51250082D01*
X44274610Y-51234045D01*
X44296267Y-51218395D01*
X44296578Y-51217600D01*
X44297262Y-51217089D01*
X44306607Y-51192033D01*
X44316371Y-51167142D01*
X44316203Y-51166305D01*
X44316502Y-51165505D01*
X44310817Y-51139372D01*
X44285855Y-51014564D01*
X44285855Y-50931314D01*
X44312245Y-50852145D01*
X44313727Y-50811166D01*
X44285655Y-50763805D01*
X44236435Y-50739139D01*
X44181693Y-50744999D01*
X44138809Y-50779524D01*
X44106882Y-50875301D01*
X44098355Y-50888571D01*
X44098355Y-50905265D01*
X43785939Y-50592850D01*
X43890805Y-50487985D01*
X43910457Y-50451994D01*
X43906529Y-50397080D01*
X43873536Y-50353006D01*
X43821953Y-50333766D01*
X43768156Y-50345469D01*
X43591808Y-50521816D01*
X43575138Y-50534296D01*
X43572644Y-50540980D01*
X43415910Y-50697715D01*
X43396258Y-50733705D01*
X42706923Y-50733705D01*
X43474309Y-49966319D01*
X44175458Y-49966319D01*
X44187161Y-50020116D01*
X44355833Y-50188788D01*
X44197094Y-50347528D01*
X44177442Y-50383519D01*
X44181370Y-50438433D01*
X44214363Y-50482507D01*
X44265946Y-50501747D01*
X44319743Y-50490045D01*
X44488416Y-50321371D01*
X44647157Y-50480111D01*
X44683147Y-50499763D01*
X44738062Y-50495835D01*
X44782135Y-50462842D01*
X44801375Y-50411259D01*
X44789672Y-50357462D01*
X44620998Y-50188789D01*
X44779739Y-50030049D01*
X44799391Y-49994059D01*
X44795463Y-49939145D01*
X44762470Y-49895071D01*
X44710887Y-49875831D01*
X44657090Y-49887533D01*
X44488415Y-50056206D01*
X44329676Y-49897467D01*
X44293686Y-49877815D01*
X44238771Y-49881743D01*
X44194698Y-49914736D01*
X44175458Y-49966319D01*
X43474309Y-49966319D01*
X44500000Y-48940628D01*
X45956514Y-50397142D01*
G37*
D11*
X47049285Y-75499999D02*
X46049285Y-75499999D01*
X47001666Y-75499999D02*
X47049285Y-75595237D01*
X47049285Y-75595237D02*
X47049285Y-75785713D01*
X47049285Y-75785713D02*
X47001666Y-75880951D01*
X47001666Y-75880951D02*
X46954047Y-75928570D01*
X46954047Y-75928570D02*
X46858809Y-75976189D01*
X46858809Y-75976189D02*
X46573095Y-75976189D01*
X46573095Y-75976189D02*
X46477857Y-75928570D01*
X46477857Y-75928570D02*
X46430238Y-75880951D01*
X46430238Y-75880951D02*
X46382619Y-75785713D01*
X46382619Y-75785713D02*
X46382619Y-75595237D01*
X46382619Y-75595237D02*
X46430238Y-75499999D01*
X46382619Y-76833332D02*
X46906428Y-76833332D01*
X46906428Y-76833332D02*
X47001666Y-76785713D01*
X47001666Y-76785713D02*
X47049285Y-76690475D01*
X47049285Y-76690475D02*
X47049285Y-76499999D01*
X47049285Y-76499999D02*
X47001666Y-76404761D01*
X46430238Y-76833332D02*
X46382619Y-76738094D01*
X46382619Y-76738094D02*
X46382619Y-76499999D01*
X46382619Y-76499999D02*
X46430238Y-76404761D01*
X46430238Y-76404761D02*
X46525476Y-76357142D01*
X46525476Y-76357142D02*
X46620714Y-76357142D01*
X46620714Y-76357142D02*
X46715952Y-76404761D01*
X46715952Y-76404761D02*
X46763571Y-76499999D01*
X46763571Y-76499999D02*
X46763571Y-76738094D01*
X46763571Y-76738094D02*
X46811190Y-76833332D01*
X47049285Y-77309523D02*
X46382619Y-77309523D01*
X46954047Y-77309523D02*
X47001666Y-77357142D01*
X47001666Y-77357142D02*
X47049285Y-77452380D01*
X47049285Y-77452380D02*
X47049285Y-77595237D01*
X47049285Y-77595237D02*
X47001666Y-77690475D01*
X47001666Y-77690475D02*
X46906428Y-77738094D01*
X46906428Y-77738094D02*
X46382619Y-77738094D01*
X47049285Y-78071428D02*
X47049285Y-78452380D01*
X47382619Y-78214285D02*
X46525476Y-78214285D01*
X46525476Y-78214285D02*
X46430238Y-78261904D01*
X46430238Y-78261904D02*
X46382619Y-78357142D01*
X46382619Y-78357142D02*
X46382619Y-78452380D01*
X46430238Y-78738095D02*
X46382619Y-78833333D01*
X46382619Y-78833333D02*
X46382619Y-79023809D01*
X46382619Y-79023809D02*
X46430238Y-79119047D01*
X46430238Y-79119047D02*
X46525476Y-79166666D01*
X46525476Y-79166666D02*
X46573095Y-79166666D01*
X46573095Y-79166666D02*
X46668333Y-79119047D01*
X46668333Y-79119047D02*
X46715952Y-79023809D01*
X46715952Y-79023809D02*
X46715952Y-78880952D01*
X46715952Y-78880952D02*
X46763571Y-78785714D01*
X46763571Y-78785714D02*
X46858809Y-78738095D01*
X46858809Y-78738095D02*
X46906428Y-78738095D01*
X46906428Y-78738095D02*
X47001666Y-78785714D01*
X47001666Y-78785714D02*
X47049285Y-78880952D01*
X47049285Y-78880952D02*
X47049285Y-79023809D01*
X47049285Y-79023809D02*
X47001666Y-79119047D01*
X47049285Y-79452381D02*
X47049285Y-79833333D01*
X46382619Y-79595238D02*
X47239761Y-79595238D01*
X47239761Y-79595238D02*
X47335000Y-79642857D01*
X47335000Y-79642857D02*
X47382619Y-79738095D01*
X47382619Y-79738095D02*
X47382619Y-79833333D01*
X46382619Y-80309524D02*
X46430238Y-80214286D01*
X46430238Y-80214286D02*
X46477857Y-80166667D01*
X46477857Y-80166667D02*
X46573095Y-80119048D01*
X46573095Y-80119048D02*
X46858809Y-80119048D01*
X46858809Y-80119048D02*
X46954047Y-80166667D01*
X46954047Y-80166667D02*
X47001666Y-80214286D01*
X47001666Y-80214286D02*
X47049285Y-80309524D01*
X47049285Y-80309524D02*
X47049285Y-80452381D01*
X47049285Y-80452381D02*
X47001666Y-80547619D01*
X47001666Y-80547619D02*
X46954047Y-80595238D01*
X46954047Y-80595238D02*
X46858809Y-80642857D01*
X46858809Y-80642857D02*
X46573095Y-80642857D01*
X46573095Y-80642857D02*
X46477857Y-80595238D01*
X46477857Y-80595238D02*
X46430238Y-80547619D01*
X46430238Y-80547619D02*
X46382619Y-80452381D01*
X46382619Y-80452381D02*
X46382619Y-80309524D01*
X46382619Y-81071429D02*
X47049285Y-81071429D01*
X46858809Y-81071429D02*
X46954047Y-81119048D01*
X46954047Y-81119048D02*
X47001666Y-81166667D01*
X47001666Y-81166667D02*
X47049285Y-81261905D01*
X47049285Y-81261905D02*
X47049285Y-81357143D01*
X46382619Y-81690477D02*
X47382619Y-81690477D01*
X47001666Y-81690477D02*
X47049285Y-81785715D01*
X47049285Y-81785715D02*
X47049285Y-81976191D01*
X47049285Y-81976191D02*
X47001666Y-82071429D01*
X47001666Y-82071429D02*
X46954047Y-82119048D01*
X46954047Y-82119048D02*
X46858809Y-82166667D01*
X46858809Y-82166667D02*
X46573095Y-82166667D01*
X46573095Y-82166667D02*
X46477857Y-82119048D01*
X46477857Y-82119048D02*
X46430238Y-82071429D01*
X46430238Y-82071429D02*
X46382619Y-81976191D01*
X46382619Y-81976191D02*
X46382619Y-81785715D01*
X46382619Y-81785715D02*
X46430238Y-81690477D01*
X46382619Y-82595239D02*
X47049285Y-82595239D01*
X47382619Y-82595239D02*
X47335000Y-82547620D01*
X47335000Y-82547620D02*
X47287380Y-82595239D01*
X47287380Y-82595239D02*
X47335000Y-82642858D01*
X47335000Y-82642858D02*
X47382619Y-82595239D01*
X47382619Y-82595239D02*
X47287380Y-82595239D01*
X46382619Y-83071429D02*
X47049285Y-83071429D01*
X46858809Y-83071429D02*
X46954047Y-83119048D01*
X46954047Y-83119048D02*
X47001666Y-83166667D01*
X47001666Y-83166667D02*
X47049285Y-83261905D01*
X47049285Y-83261905D02*
X47049285Y-83357143D01*
X46382619Y-84119048D02*
X47382619Y-84119048D01*
X46430238Y-84119048D02*
X46382619Y-84023810D01*
X46382619Y-84023810D02*
X46382619Y-83833334D01*
X46382619Y-83833334D02*
X46430238Y-83738096D01*
X46430238Y-83738096D02*
X46477857Y-83690477D01*
X46477857Y-83690477D02*
X46573095Y-83642858D01*
X46573095Y-83642858D02*
X46858809Y-83642858D01*
X46858809Y-83642858D02*
X46954047Y-83690477D01*
X46954047Y-83690477D02*
X47001666Y-83738096D01*
X47001666Y-83738096D02*
X47049285Y-83833334D01*
X47049285Y-83833334D02*
X47049285Y-84023810D01*
X47049285Y-84023810D02*
X47001666Y-84119048D01*
X46430238Y-84547620D02*
X46382619Y-84642858D01*
X46382619Y-84642858D02*
X46382619Y-84833334D01*
X46382619Y-84833334D02*
X46430238Y-84928572D01*
X46430238Y-84928572D02*
X46525476Y-84976191D01*
X46525476Y-84976191D02*
X46573095Y-84976191D01*
X46573095Y-84976191D02*
X46668333Y-84928572D01*
X46668333Y-84928572D02*
X46715952Y-84833334D01*
X46715952Y-84833334D02*
X46715952Y-84690477D01*
X46715952Y-84690477D02*
X46763571Y-84595239D01*
X46763571Y-84595239D02*
X46858809Y-84547620D01*
X46858809Y-84547620D02*
X46906428Y-84547620D01*
X46906428Y-84547620D02*
X47001666Y-84595239D01*
X47001666Y-84595239D02*
X47049285Y-84690477D01*
X47049285Y-84690477D02*
X47049285Y-84833334D01*
X47049285Y-84833334D02*
X47001666Y-84928572D01*
X46477857Y-85404763D02*
X46430238Y-85452382D01*
X46430238Y-85452382D02*
X46382619Y-85404763D01*
X46382619Y-85404763D02*
X46430238Y-85357144D01*
X46430238Y-85357144D02*
X46477857Y-85404763D01*
X46477857Y-85404763D02*
X46382619Y-85404763D01*
X46430238Y-86309524D02*
X46382619Y-86214286D01*
X46382619Y-86214286D02*
X46382619Y-86023810D01*
X46382619Y-86023810D02*
X46430238Y-85928572D01*
X46430238Y-85928572D02*
X46477857Y-85880953D01*
X46477857Y-85880953D02*
X46573095Y-85833334D01*
X46573095Y-85833334D02*
X46858809Y-85833334D01*
X46858809Y-85833334D02*
X46954047Y-85880953D01*
X46954047Y-85880953D02*
X47001666Y-85928572D01*
X47001666Y-85928572D02*
X47049285Y-86023810D01*
X47049285Y-86023810D02*
X47049285Y-86214286D01*
X47049285Y-86214286D02*
X47001666Y-86309524D01*
X46382619Y-86880953D02*
X46430238Y-86785715D01*
X46430238Y-86785715D02*
X46477857Y-86738096D01*
X46477857Y-86738096D02*
X46573095Y-86690477D01*
X46573095Y-86690477D02*
X46858809Y-86690477D01*
X46858809Y-86690477D02*
X46954047Y-86738096D01*
X46954047Y-86738096D02*
X47001666Y-86785715D01*
X47001666Y-86785715D02*
X47049285Y-86880953D01*
X47049285Y-86880953D02*
X47049285Y-87023810D01*
X47049285Y-87023810D02*
X47001666Y-87119048D01*
X47001666Y-87119048D02*
X46954047Y-87166667D01*
X46954047Y-87166667D02*
X46858809Y-87214286D01*
X46858809Y-87214286D02*
X46573095Y-87214286D01*
X46573095Y-87214286D02*
X46477857Y-87166667D01*
X46477857Y-87166667D02*
X46430238Y-87119048D01*
X46430238Y-87119048D02*
X46382619Y-87023810D01*
X46382619Y-87023810D02*
X46382619Y-86880953D01*
X46382619Y-87642858D02*
X47049285Y-87642858D01*
X46954047Y-87642858D02*
X47001666Y-87690477D01*
X47001666Y-87690477D02*
X47049285Y-87785715D01*
X47049285Y-87785715D02*
X47049285Y-87928572D01*
X47049285Y-87928572D02*
X47001666Y-88023810D01*
X47001666Y-88023810D02*
X46906428Y-88071429D01*
X46906428Y-88071429D02*
X46382619Y-88071429D01*
X46906428Y-88071429D02*
X47001666Y-88119048D01*
X47001666Y-88119048D02*
X47049285Y-88214286D01*
X47049285Y-88214286D02*
X47049285Y-88357143D01*
X47049285Y-88357143D02*
X47001666Y-88452382D01*
X47001666Y-88452382D02*
X46906428Y-88500001D01*
X46906428Y-88500001D02*
X46382619Y-88500001D01*
X33593571Y-90428571D02*
X33641190Y-90285714D01*
X33641190Y-90285714D02*
X33688809Y-90238095D01*
X33688809Y-90238095D02*
X33784047Y-90190476D01*
X33784047Y-90190476D02*
X33926904Y-90190476D01*
X33926904Y-90190476D02*
X34022142Y-90238095D01*
X34022142Y-90238095D02*
X34069761Y-90285714D01*
X34069761Y-90285714D02*
X34117380Y-90380952D01*
X34117380Y-90380952D02*
X34117380Y-90761904D01*
X34117380Y-90761904D02*
X33117380Y-90761904D01*
X33117380Y-90761904D02*
X33117380Y-90428571D01*
X33117380Y-90428571D02*
X33165000Y-90333333D01*
X33165000Y-90333333D02*
X33212619Y-90285714D01*
X33212619Y-90285714D02*
X33307857Y-90238095D01*
X33307857Y-90238095D02*
X33403095Y-90238095D01*
X33403095Y-90238095D02*
X33498333Y-90285714D01*
X33498333Y-90285714D02*
X33545952Y-90333333D01*
X33545952Y-90333333D02*
X33593571Y-90428571D01*
X33593571Y-90428571D02*
X33593571Y-90761904D01*
X34117380Y-89761904D02*
X33450714Y-89761904D01*
X33117380Y-89761904D02*
X33165000Y-89809523D01*
X33165000Y-89809523D02*
X33212619Y-89761904D01*
X33212619Y-89761904D02*
X33165000Y-89714285D01*
X33165000Y-89714285D02*
X33117380Y-89761904D01*
X33117380Y-89761904D02*
X33212619Y-89761904D01*
X33450714Y-88857143D02*
X34260238Y-88857143D01*
X34260238Y-88857143D02*
X34355476Y-88904762D01*
X34355476Y-88904762D02*
X34403095Y-88952381D01*
X34403095Y-88952381D02*
X34450714Y-89047619D01*
X34450714Y-89047619D02*
X34450714Y-89190476D01*
X34450714Y-89190476D02*
X34403095Y-89285714D01*
X34069761Y-88857143D02*
X34117380Y-88952381D01*
X34117380Y-88952381D02*
X34117380Y-89142857D01*
X34117380Y-89142857D02*
X34069761Y-89238095D01*
X34069761Y-89238095D02*
X34022142Y-89285714D01*
X34022142Y-89285714D02*
X33926904Y-89333333D01*
X33926904Y-89333333D02*
X33641190Y-89333333D01*
X33641190Y-89333333D02*
X33545952Y-89285714D01*
X33545952Y-89285714D02*
X33498333Y-89238095D01*
X33498333Y-89238095D02*
X33450714Y-89142857D01*
X33450714Y-89142857D02*
X33450714Y-88952381D01*
X33450714Y-88952381D02*
X33498333Y-88857143D01*
X34117380Y-87952381D02*
X33593571Y-87952381D01*
X33593571Y-87952381D02*
X33498333Y-88000000D01*
X33498333Y-88000000D02*
X33450714Y-88095238D01*
X33450714Y-88095238D02*
X33450714Y-88285714D01*
X33450714Y-88285714D02*
X33498333Y-88380952D01*
X34069761Y-87952381D02*
X34117380Y-88047619D01*
X34117380Y-88047619D02*
X34117380Y-88285714D01*
X34117380Y-88285714D02*
X34069761Y-88380952D01*
X34069761Y-88380952D02*
X33974523Y-88428571D01*
X33974523Y-88428571D02*
X33879285Y-88428571D01*
X33879285Y-88428571D02*
X33784047Y-88380952D01*
X33784047Y-88380952D02*
X33736428Y-88285714D01*
X33736428Y-88285714D02*
X33736428Y-88047619D01*
X33736428Y-88047619D02*
X33688809Y-87952381D01*
X34069761Y-87523809D02*
X34117380Y-87428571D01*
X34117380Y-87428571D02*
X34117380Y-87238095D01*
X34117380Y-87238095D02*
X34069761Y-87142857D01*
X34069761Y-87142857D02*
X33974523Y-87095238D01*
X33974523Y-87095238D02*
X33926904Y-87095238D01*
X33926904Y-87095238D02*
X33831666Y-87142857D01*
X33831666Y-87142857D02*
X33784047Y-87238095D01*
X33784047Y-87238095D02*
X33784047Y-87380952D01*
X33784047Y-87380952D02*
X33736428Y-87476190D01*
X33736428Y-87476190D02*
X33641190Y-87523809D01*
X33641190Y-87523809D02*
X33593571Y-87523809D01*
X33593571Y-87523809D02*
X33498333Y-87476190D01*
X33498333Y-87476190D02*
X33450714Y-87380952D01*
X33450714Y-87380952D02*
X33450714Y-87238095D01*
X33450714Y-87238095D02*
X33498333Y-87142857D01*
X34069761Y-86714285D02*
X34117380Y-86619047D01*
X34117380Y-86619047D02*
X34117380Y-86428571D01*
X34117380Y-86428571D02*
X34069761Y-86333333D01*
X34069761Y-86333333D02*
X33974523Y-86285714D01*
X33974523Y-86285714D02*
X33926904Y-86285714D01*
X33926904Y-86285714D02*
X33831666Y-86333333D01*
X33831666Y-86333333D02*
X33784047Y-86428571D01*
X33784047Y-86428571D02*
X33784047Y-86571428D01*
X33784047Y-86571428D02*
X33736428Y-86666666D01*
X33736428Y-86666666D02*
X33641190Y-86714285D01*
X33641190Y-86714285D02*
X33593571Y-86714285D01*
X33593571Y-86714285D02*
X33498333Y-86666666D01*
X33498333Y-86666666D02*
X33450714Y-86571428D01*
X33450714Y-86571428D02*
X33450714Y-86428571D01*
X33450714Y-86428571D02*
X33498333Y-86333333D01*
X33117380Y-85352380D02*
X33117380Y-84685714D01*
X33117380Y-84685714D02*
X34117380Y-85114285D01*
X34069761Y-83752380D02*
X34117380Y-83609523D01*
X34117380Y-83609523D02*
X34117380Y-83371428D01*
X34117380Y-83371428D02*
X34069761Y-83276190D01*
X34069761Y-83276190D02*
X34022142Y-83228571D01*
X34022142Y-83228571D02*
X33926904Y-83180952D01*
X33926904Y-83180952D02*
X33831666Y-83180952D01*
X33831666Y-83180952D02*
X33736428Y-83228571D01*
X33736428Y-83228571D02*
X33688809Y-83276190D01*
X33688809Y-83276190D02*
X33641190Y-83371428D01*
X33641190Y-83371428D02*
X33593571Y-83561904D01*
X33593571Y-83561904D02*
X33545952Y-83657142D01*
X33545952Y-83657142D02*
X33498333Y-83704761D01*
X33498333Y-83704761D02*
X33403095Y-83752380D01*
X33403095Y-83752380D02*
X33307857Y-83752380D01*
X33307857Y-83752380D02*
X33212619Y-83704761D01*
X33212619Y-83704761D02*
X33165000Y-83657142D01*
X33165000Y-83657142D02*
X33117380Y-83561904D01*
X33117380Y-83561904D02*
X33117380Y-83323809D01*
X33117380Y-83323809D02*
X33165000Y-83180952D01*
X34069761Y-82371428D02*
X34117380Y-82466666D01*
X34117380Y-82466666D02*
X34117380Y-82657142D01*
X34117380Y-82657142D02*
X34069761Y-82752380D01*
X34069761Y-82752380D02*
X33974523Y-82799999D01*
X33974523Y-82799999D02*
X33593571Y-82799999D01*
X33593571Y-82799999D02*
X33498333Y-82752380D01*
X33498333Y-82752380D02*
X33450714Y-82657142D01*
X33450714Y-82657142D02*
X33450714Y-82466666D01*
X33450714Y-82466666D02*
X33498333Y-82371428D01*
X33498333Y-82371428D02*
X33593571Y-82323809D01*
X33593571Y-82323809D02*
X33688809Y-82323809D01*
X33688809Y-82323809D02*
X33784047Y-82799999D01*
X33450714Y-81466666D02*
X34260238Y-81466666D01*
X34260238Y-81466666D02*
X34355476Y-81514285D01*
X34355476Y-81514285D02*
X34403095Y-81561904D01*
X34403095Y-81561904D02*
X34450714Y-81657142D01*
X34450714Y-81657142D02*
X34450714Y-81799999D01*
X34450714Y-81799999D02*
X34403095Y-81895237D01*
X34069761Y-81466666D02*
X34117380Y-81561904D01*
X34117380Y-81561904D02*
X34117380Y-81752380D01*
X34117380Y-81752380D02*
X34069761Y-81847618D01*
X34069761Y-81847618D02*
X34022142Y-81895237D01*
X34022142Y-81895237D02*
X33926904Y-81942856D01*
X33926904Y-81942856D02*
X33641190Y-81942856D01*
X33641190Y-81942856D02*
X33545952Y-81895237D01*
X33545952Y-81895237D02*
X33498333Y-81847618D01*
X33498333Y-81847618D02*
X33450714Y-81752380D01*
X33450714Y-81752380D02*
X33450714Y-81561904D01*
X33450714Y-81561904D02*
X33498333Y-81466666D01*
X34117380Y-80990475D02*
X33450714Y-80990475D01*
X33545952Y-80990475D02*
X33498333Y-80942856D01*
X33498333Y-80942856D02*
X33450714Y-80847618D01*
X33450714Y-80847618D02*
X33450714Y-80704761D01*
X33450714Y-80704761D02*
X33498333Y-80609523D01*
X33498333Y-80609523D02*
X33593571Y-80561904D01*
X33593571Y-80561904D02*
X34117380Y-80561904D01*
X33593571Y-80561904D02*
X33498333Y-80514285D01*
X33498333Y-80514285D02*
X33450714Y-80419047D01*
X33450714Y-80419047D02*
X33450714Y-80276190D01*
X33450714Y-80276190D02*
X33498333Y-80180951D01*
X33498333Y-80180951D02*
X33593571Y-80133332D01*
X33593571Y-80133332D02*
X34117380Y-80133332D01*
X34069761Y-79276190D02*
X34117380Y-79371428D01*
X34117380Y-79371428D02*
X34117380Y-79561904D01*
X34117380Y-79561904D02*
X34069761Y-79657142D01*
X34069761Y-79657142D02*
X33974523Y-79704761D01*
X33974523Y-79704761D02*
X33593571Y-79704761D01*
X33593571Y-79704761D02*
X33498333Y-79657142D01*
X33498333Y-79657142D02*
X33450714Y-79561904D01*
X33450714Y-79561904D02*
X33450714Y-79371428D01*
X33450714Y-79371428D02*
X33498333Y-79276190D01*
X33498333Y-79276190D02*
X33593571Y-79228571D01*
X33593571Y-79228571D02*
X33688809Y-79228571D01*
X33688809Y-79228571D02*
X33784047Y-79704761D01*
X33450714Y-78799999D02*
X34117380Y-78799999D01*
X33545952Y-78799999D02*
X33498333Y-78752380D01*
X33498333Y-78752380D02*
X33450714Y-78657142D01*
X33450714Y-78657142D02*
X33450714Y-78514285D01*
X33450714Y-78514285D02*
X33498333Y-78419047D01*
X33498333Y-78419047D02*
X33593571Y-78371428D01*
X33593571Y-78371428D02*
X34117380Y-78371428D01*
X33450714Y-78038094D02*
X33450714Y-77657142D01*
X33117380Y-77895237D02*
X33974523Y-77895237D01*
X33974523Y-77895237D02*
X34069761Y-77847618D01*
X34069761Y-77847618D02*
X34117380Y-77752380D01*
X34117380Y-77752380D02*
X34117380Y-77657142D01*
X34117380Y-76723808D02*
X33117380Y-76723808D01*
X33117380Y-76723808D02*
X33117380Y-76485713D01*
X33117380Y-76485713D02*
X33165000Y-76342856D01*
X33165000Y-76342856D02*
X33260238Y-76247618D01*
X33260238Y-76247618D02*
X33355476Y-76199999D01*
X33355476Y-76199999D02*
X33545952Y-76152380D01*
X33545952Y-76152380D02*
X33688809Y-76152380D01*
X33688809Y-76152380D02*
X33879285Y-76199999D01*
X33879285Y-76199999D02*
X33974523Y-76247618D01*
X33974523Y-76247618D02*
X34069761Y-76342856D01*
X34069761Y-76342856D02*
X34117380Y-76485713D01*
X34117380Y-76485713D02*
X34117380Y-76723808D01*
X34117380Y-75723808D02*
X33450714Y-75723808D01*
X33117380Y-75723808D02*
X33165000Y-75771427D01*
X33165000Y-75771427D02*
X33212619Y-75723808D01*
X33212619Y-75723808D02*
X33165000Y-75676189D01*
X33165000Y-75676189D02*
X33117380Y-75723808D01*
X33117380Y-75723808D02*
X33212619Y-75723808D01*
X34069761Y-75295237D02*
X34117380Y-75199999D01*
X34117380Y-75199999D02*
X34117380Y-75009523D01*
X34117380Y-75009523D02*
X34069761Y-74914285D01*
X34069761Y-74914285D02*
X33974523Y-74866666D01*
X33974523Y-74866666D02*
X33926904Y-74866666D01*
X33926904Y-74866666D02*
X33831666Y-74914285D01*
X33831666Y-74914285D02*
X33784047Y-75009523D01*
X33784047Y-75009523D02*
X33784047Y-75152380D01*
X33784047Y-75152380D02*
X33736428Y-75247618D01*
X33736428Y-75247618D02*
X33641190Y-75295237D01*
X33641190Y-75295237D02*
X33593571Y-75295237D01*
X33593571Y-75295237D02*
X33498333Y-75247618D01*
X33498333Y-75247618D02*
X33450714Y-75152380D01*
X33450714Y-75152380D02*
X33450714Y-75009523D01*
X33450714Y-75009523D02*
X33498333Y-74914285D01*
X33450714Y-74438094D02*
X34450714Y-74438094D01*
X33498333Y-74438094D02*
X33450714Y-74342856D01*
X33450714Y-74342856D02*
X33450714Y-74152380D01*
X33450714Y-74152380D02*
X33498333Y-74057142D01*
X33498333Y-74057142D02*
X33545952Y-74009523D01*
X33545952Y-74009523D02*
X33641190Y-73961904D01*
X33641190Y-73961904D02*
X33926904Y-73961904D01*
X33926904Y-73961904D02*
X34022142Y-74009523D01*
X34022142Y-74009523D02*
X34069761Y-74057142D01*
X34069761Y-74057142D02*
X34117380Y-74152380D01*
X34117380Y-74152380D02*
X34117380Y-74342856D01*
X34117380Y-74342856D02*
X34069761Y-74438094D01*
X34117380Y-73390475D02*
X34069761Y-73485713D01*
X34069761Y-73485713D02*
X33974523Y-73533332D01*
X33974523Y-73533332D02*
X33117380Y-73533332D01*
X34117380Y-72580951D02*
X33593571Y-72580951D01*
X33593571Y-72580951D02*
X33498333Y-72628570D01*
X33498333Y-72628570D02*
X33450714Y-72723808D01*
X33450714Y-72723808D02*
X33450714Y-72914284D01*
X33450714Y-72914284D02*
X33498333Y-73009522D01*
X34069761Y-72580951D02*
X34117380Y-72676189D01*
X34117380Y-72676189D02*
X34117380Y-72914284D01*
X34117380Y-72914284D02*
X34069761Y-73009522D01*
X34069761Y-73009522D02*
X33974523Y-73057141D01*
X33974523Y-73057141D02*
X33879285Y-73057141D01*
X33879285Y-73057141D02*
X33784047Y-73009522D01*
X33784047Y-73009522D02*
X33736428Y-72914284D01*
X33736428Y-72914284D02*
X33736428Y-72676189D01*
X33736428Y-72676189D02*
X33688809Y-72580951D01*
X33450714Y-72199998D02*
X34117380Y-71961903D01*
X33450714Y-71723808D02*
X34117380Y-71961903D01*
X34117380Y-71961903D02*
X34355476Y-72057141D01*
X34355476Y-72057141D02*
X34403095Y-72104760D01*
X34403095Y-72104760D02*
X34450714Y-72199998D01*
G04 #@! TO.C,J4*
X35562032Y-128033437D02*
X36067108Y-128538513D01*
X36067108Y-128538513D02*
X36134452Y-128673200D01*
X36134452Y-128673200D02*
X36134452Y-128807887D01*
X36134452Y-128807887D02*
X36067108Y-128942574D01*
X36067108Y-128942574D02*
X35999765Y-129009917D01*
X36437498Y-127629375D02*
X36908902Y-128100780D01*
X35999765Y-127528360D02*
X36336482Y-128201795D01*
X36336482Y-128201795D02*
X36774215Y-127764062D01*
G04 #@! TO.C,J3*
X36456690Y-45071904D02*
X35951614Y-45576980D01*
X35951614Y-45576980D02*
X35816927Y-45644324D01*
X35816927Y-45644324D02*
X35682240Y-45644324D01*
X35682240Y-45644324D02*
X35547553Y-45576980D01*
X35547553Y-45576980D02*
X35480210Y-45509637D01*
X36726065Y-45341278D02*
X37163797Y-45779011D01*
X37163797Y-45779011D02*
X36658721Y-45812683D01*
X36658721Y-45812683D02*
X36759736Y-45913698D01*
X36759736Y-45913698D02*
X36793408Y-46014713D01*
X36793408Y-46014713D02*
X36793408Y-46082057D01*
X36793408Y-46082057D02*
X36759736Y-46183072D01*
X36759736Y-46183072D02*
X36591378Y-46351431D01*
X36591378Y-46351431D02*
X36490362Y-46385102D01*
X36490362Y-46385102D02*
X36423019Y-46385102D01*
X36423019Y-46385102D02*
X36322004Y-46351431D01*
X36322004Y-46351431D02*
X36119973Y-46149400D01*
X36119973Y-46149400D02*
X36086301Y-46048385D01*
X36086301Y-46048385D02*
X36086301Y-45981041D01*
G04 #@! TO.C,J2*
X43966562Y-127562032D02*
X43461486Y-128067108D01*
X43461486Y-128067108D02*
X43326799Y-128134452D01*
X43326799Y-128134452D02*
X43192112Y-128134452D01*
X43192112Y-128134452D02*
X43057425Y-128067108D01*
X43057425Y-128067108D02*
X42990082Y-127999765D01*
X44202265Y-127932421D02*
X44269608Y-127932421D01*
X44269608Y-127932421D02*
X44370624Y-127966093D01*
X44370624Y-127966093D02*
X44538982Y-128134452D01*
X44538982Y-128134452D02*
X44572654Y-128235467D01*
X44572654Y-128235467D02*
X44572654Y-128302811D01*
X44572654Y-128302811D02*
X44538982Y-128403826D01*
X44538982Y-128403826D02*
X44471639Y-128471169D01*
X44471639Y-128471169D02*
X44336952Y-128538513D01*
X44336952Y-128538513D02*
X43528830Y-128538513D01*
X43528830Y-128538513D02*
X43966563Y-128976246D01*
G04 #@! TO.C,J1*
X43071904Y-45543309D02*
X43576980Y-46048385D01*
X43576980Y-46048385D02*
X43644324Y-46183072D01*
X43644324Y-46183072D02*
X43644324Y-46317759D01*
X43644324Y-46317759D02*
X43576980Y-46452446D01*
X43576980Y-46452446D02*
X43509637Y-46519789D01*
X44486118Y-45543308D02*
X44082057Y-45947369D01*
X44284087Y-45745339D02*
X43576980Y-45038232D01*
X43576980Y-45038232D02*
X43610652Y-45206591D01*
X43610652Y-45206591D02*
X43610652Y-45341278D01*
X43610652Y-45341278D02*
X43576980Y-45442293D01*
D15*
G04 #@! TO.C,R5*
X47265000Y-116727064D02*
X47265000Y-116272936D01*
X48735000Y-116727064D02*
X48735000Y-116272936D01*
G04 #@! TO.C,R4*
X43265000Y-116727064D02*
X43265000Y-116272936D01*
X44735000Y-116727064D02*
X44735000Y-116272936D01*
G04 #@! TO.C,R3*
X31265000Y-116727064D02*
X31265000Y-116272936D01*
X32735000Y-116727064D02*
X32735000Y-116272936D01*
G04 #@! TO.C,R2*
X48735000Y-107272936D02*
X48735000Y-107727064D01*
X47265000Y-107272936D02*
X47265000Y-107727064D01*
G04 #@! TO.C,Q3*
X46560000Y-109500000D02*
X46560000Y-110150000D01*
X43440000Y-109500000D02*
X43440000Y-110150000D01*
X46560000Y-109500000D02*
X46560000Y-107825000D01*
X43440000Y-109500000D02*
X43440000Y-108850000D01*
G04 #@! TO.C,J4*
G36*
X32652962Y-124652962D02*
G01*
X31754936Y-124473356D01*
X32473356Y-123754936D01*
X32652962Y-124652962D01*
G37*
D10*
X32652962Y-124652962D02*
X31754936Y-124473356D01*
X32473356Y-123754936D01*
X32652962Y-124652962D01*
G04 #@! TO.C,J3*
G36*
X32473356Y-50245064D02*
G01*
X31754936Y-49526644D01*
X32652962Y-49347038D01*
X32473356Y-50245064D01*
G37*
X32473356Y-50245064D02*
X31754936Y-49526644D01*
X32652962Y-49347038D01*
X32473356Y-50245064D01*
G04 #@! TO.C,J2*
G36*
X48245064Y-124473356D02*
G01*
X47347038Y-124652962D01*
X47526644Y-123754936D01*
X48245064Y-124473356D01*
G37*
X48245064Y-124473356D02*
X47347038Y-124652962D01*
X47526644Y-123754936D01*
X48245064Y-124473356D01*
G04 #@! TO.C,J1*
G36*
X48245064Y-49526644D02*
G01*
X47526644Y-50245064D01*
X47347038Y-49347038D01*
X48245064Y-49526644D01*
G37*
X48245064Y-49526644D02*
X47526644Y-50245064D01*
X47347038Y-49347038D01*
X48245064Y-49526644D01*
G04 #@! TO.C,GRAPHIC1*
G36*
X35337500Y-93619000D02*
G01*
X35337500Y-95600200D01*
X34575500Y-95320800D01*
X34575500Y-93504700D01*
X35337500Y-93619000D01*
G37*
X35337500Y-93619000D02*
X35337500Y-95600200D01*
X34575500Y-95320800D01*
X34575500Y-93504700D01*
X35337500Y-93619000D01*
G36*
X32607000Y-93212600D02*
G01*
X34321500Y-93466600D01*
X34321500Y-95219200D01*
X32226000Y-94444500D01*
X32226000Y-92857000D01*
X32607000Y-93212600D01*
G37*
X32607000Y-93212600D02*
X34321500Y-93466600D01*
X34321500Y-95219200D01*
X32226000Y-94444500D01*
X32226000Y-92857000D01*
X32607000Y-93212600D01*
D15*
G04 #@! TO.C,D13*
X47100000Y-112672500D02*
X48800000Y-112672500D01*
X48800000Y-112672500D02*
X48800000Y-110012500D01*
X47100000Y-112672500D02*
X47100000Y-110012500D01*
G04 #@! TO.C,R1*
X45237258Y-105977500D02*
X44762742Y-105977500D01*
X45237258Y-107022500D02*
X44762742Y-107022500D01*
G04 #@! TO.C,D2*
X29600000Y-69400000D02*
X30700000Y-69400000D01*
X30700000Y-69400000D02*
X30700000Y-75500000D01*
X25300000Y-75500000D02*
X25300000Y-70500000D01*
G04 #@! TO.C,D8*
X41600000Y-54828571D02*
X42700000Y-54828571D01*
X42700000Y-54828571D02*
X42700000Y-60928571D01*
X37300000Y-60928571D02*
X37300000Y-55928571D01*
G04 #@! TO.C,D15*
X53600000Y-69400000D02*
X54700000Y-69400000D01*
X54700000Y-69400000D02*
X54700000Y-75500000D01*
X49300000Y-75500000D02*
X49300000Y-70500000D01*
G04 #@! TO.C,D3*
X41600000Y-77685713D02*
X42700000Y-77685713D01*
X42700000Y-77685713D02*
X42700000Y-83785713D01*
X37300000Y-83785713D02*
X37300000Y-78785713D01*
G04 #@! TO.C,D9*
X41600000Y-66257142D02*
X42700000Y-66257142D01*
X42700000Y-66257142D02*
X42700000Y-72357142D01*
X37300000Y-72357142D02*
X37300000Y-67357142D01*
G04 #@! TO.C,D16*
X53600000Y-83400000D02*
X54700000Y-83400000D01*
X54700000Y-83400000D02*
X54700000Y-89500000D01*
X49300000Y-89500000D02*
X49300000Y-84500000D01*
G04 #@! TO.C,D4*
X29600000Y-83400000D02*
X30700000Y-83400000D01*
X30700000Y-83400000D02*
X30700000Y-89500000D01*
X25300000Y-89500000D02*
X25300000Y-84500000D01*
G04 #@! TO.C,D10*
X41600000Y-100542855D02*
X42700000Y-100542855D01*
X42700000Y-100542855D02*
X42700000Y-106642855D01*
X37300000Y-106642855D02*
X37300000Y-101642855D01*
G04 #@! TO.C,D17*
X41600000Y-89114284D02*
X42700000Y-89114284D01*
X42700000Y-89114284D02*
X42700000Y-95214284D01*
X37300000Y-95214284D02*
X37300000Y-90214284D01*
G04 #@! TO.C,D5*
X29600000Y-97400000D02*
X30700000Y-97400000D01*
X30700000Y-97400000D02*
X30700000Y-103500000D01*
X25300000Y-103500000D02*
X25300000Y-98500000D01*
G04 #@! TO.C,D11*
X41600000Y-111971426D02*
X42700000Y-111971426D01*
X42700000Y-111971426D02*
X42700000Y-118071426D01*
X37300000Y-118071426D02*
X37300000Y-113071426D01*
G04 #@! TO.C,D18*
X53600000Y-97400000D02*
X54700000Y-97400000D01*
X54700000Y-97400000D02*
X54700000Y-103500000D01*
X49300000Y-103500000D02*
X49300000Y-98500000D01*
G04 #@! TO.C,D6*
X29600000Y-111400000D02*
X30700000Y-111400000D01*
X30700000Y-111400000D02*
X30700000Y-117500000D01*
X25300000Y-117500000D02*
X25300000Y-112500000D01*
G04 #@! TO.C,D12*
X41600000Y-123400000D02*
X42700000Y-123400000D01*
X42700000Y-123400000D02*
X42700000Y-129500000D01*
X37300000Y-129500000D02*
X37300000Y-124500000D01*
G04 #@! TO.C,D19*
X53600000Y-111400000D02*
X54700000Y-111400000D01*
X54700000Y-111400000D02*
X54700000Y-117500000D01*
X49300000Y-117500000D02*
X49300000Y-112500000D01*
G04 #@! TO.C,D1*
X29600000Y-55400000D02*
X30700000Y-55400000D01*
X30700000Y-55400000D02*
X30700000Y-61500000D01*
X25300000Y-61500000D02*
X25300000Y-56500000D01*
G04 #@! TO.C,D7*
X41600000Y-43400000D02*
X42700000Y-43400000D01*
X42700000Y-43400000D02*
X42700000Y-49500000D01*
X37300000Y-49500000D02*
X37300000Y-44500000D01*
G04 #@! TO.C,D14*
X53600000Y-55400000D02*
X54700000Y-55400000D01*
X54700000Y-55400000D02*
X54700000Y-61500000D01*
X49300000Y-61500000D02*
X49300000Y-56500000D01*
G04 #@! TO.C,J5*
X52050000Y-110450000D02*
X52050000Y-108050000D01*
X52050000Y-108050000D02*
X54450000Y-108050000D01*
X54450000Y-108050000D02*
X54450000Y-110450000D01*
X54450000Y-110450000D02*
X52050000Y-110450000D01*
G04 #@! TO.C,J6*
X27950000Y-108050000D02*
X27950000Y-110450000D01*
X27950000Y-110450000D02*
X25550000Y-110450000D01*
X25550000Y-110450000D02*
X25550000Y-108050000D01*
X25550000Y-108050000D02*
X27950000Y-108050000D01*
G04 #@! TO.C,J7*
X27950000Y-63550000D02*
X27950000Y-65950000D01*
X27950000Y-65950000D02*
X25550000Y-65950000D01*
X25550000Y-65950000D02*
X25550000Y-63550000D01*
X25550000Y-63550000D02*
X27950000Y-63550000D01*
G04 #@! TO.C,J8*
X52050000Y-65950000D02*
X52050000Y-63550000D01*
X52050000Y-63550000D02*
X54450000Y-63550000D01*
X54450000Y-63550000D02*
X54450000Y-65950000D01*
X54450000Y-65950000D02*
X52050000Y-65950000D01*
G04 #@! TD*
M02*
