M48
; DRILL file {KiCad 7.0.7} date Mon Sep  4 15:56:22 2023
; FORMAT={-:-/ absolute / metric / decimal}
; #@! TF.CreationDate,2023-09-04T15:56:22-07:00
; #@! TF.GenerationSoftware,Kicad,Pcbnew,7.0.7
; #@! TF.FileFunction,MixedPlating,1,2
FMAT,2
METRIC
; #@! TA.AperFunction,Plated,PTH,ViaDrill
T1C0.400
; #@! TA.AperFunction,NonPlated,NPTH,ComponentDrill
T2C3.200
%
G90
G05
T1
X26.3Y-58.2
X26.3Y-59.9
X26.3Y-66.6
X26.3Y-77.1
X26.3Y-83.1
X26.3Y-107.3
X26.3Y-114.2
X27.4Y-105.7
X27.5Y-66.6
X28.0Y-58.2
X28.0Y-73.8
X28.0Y-86.2
X28.996Y-120.996
X29.0Y-53.0
X29.7Y-58.2
X30.8Y-66.6
X30.9Y-75.4
X30.9Y-84.6
X31.2Y-105.7
X31.6Y-102.6
X31.789Y-123.789
X31.793Y-50.207
X31.796Y-120.996
X31.8Y-53.0
X32.0Y-114.5
X32.596Y-124.596
X32.6Y-49.4
X35.396Y-124.596
X35.396Y-127.396
X35.4Y-46.6
X35.4Y-49.4
X37.1Y-83.6
X38.3Y-46.2
X38.3Y-76.4
X38.3Y-88.8
X38.3Y-98.6
X40.0Y-46.2
X40.0Y-74.4
X40.0Y-85.6
X40.0Y-88.4
X40.0Y-99.599
X40.0Y-131.0
X41.7Y-46.2
X41.7Y-75.4
X41.7Y-85.2
X41.7Y-97.6
X42.8Y-90.4
X42.85Y-122.4
X44.0Y-114.5
X44.604Y-46.604
X44.604Y-49.404
X44.604Y-124.596
X44.604Y-127.396
X47.404Y-49.404
X47.404Y-124.596
X47.875Y-69.5
X47.875Y-102.6
X48.0Y-111.2
X48.0Y-114.5
X48.204Y-53.004
X48.204Y-120.996
X48.211Y-50.211
X48.211Y-123.789
X49.1Y-89.4
X49.1Y-98.6
X49.2Y-106.6
X50.3Y-58.2
X51.004Y-53.004
X51.004Y-120.996
X52.0Y-58.2
X52.0Y-87.8
X52.0Y-100.2
X52.4Y-107.2
X52.5Y-67.7
X53.7Y-58.2
X53.7Y-59.8
X53.7Y-66.6
X53.7Y-91.1
X53.7Y-97.0
X53.7Y-107.3
X53.7Y-114.2
T2
X34.0Y-109.0
X46.0Y-65.0
T0
M30
