G04 #@! TF.GenerationSoftware,KiCad,Pcbnew,7.0.7*
G04 #@! TF.CreationDate,2023-09-04T15:56:20-07:00*
G04 #@! TF.ProjectId,bigass_7_segment,62696761-7373-45f3-975f-7365676d656e,C*
G04 #@! TF.SameCoordinates,Original*
G04 #@! TF.FileFunction,Paste,Bot*
G04 #@! TF.FilePolarity,Positive*
%FSLAX46Y46*%
G04 Gerber Fmt 4.6, Leading zero omitted, Abs format (unit mm)*
G04 Created by KiCad (PCBNEW 7.0.7) date 2023-09-04 15:56:20*
%MOMM*%
%LPD*%
G01*
G04 APERTURE LIST*
%ADD10C,0.100000*%
%ADD11C,0.150000*%
%ADD12C,0.300000*%
%ADD13C,0.400000*%
G04 APERTURE END LIST*
D10*
D11*
X159400000Y-171900000D02*
X267400000Y-171900000D01*
X267400000Y-203900000D01*
X159400000Y-203900000D01*
X159400000Y-171900000D01*
D10*
D11*
X10000000Y-10000000D02*
X269400000Y-10000000D01*
X269400000Y-205900000D01*
X10000000Y-205900000D01*
X10000000Y-10000000D01*
D10*
D11*
X12000000Y-12000000D02*
X267400000Y-12000000D01*
X267400000Y-203900000D01*
X12000000Y-203900000D01*
X12000000Y-12000000D01*
D10*
D11*
X60000000Y-12000000D02*
X60000000Y-10000000D01*
D10*
D11*
X110000000Y-12000000D02*
X110000000Y-10000000D01*
D10*
D11*
X160000000Y-12000000D02*
X160000000Y-10000000D01*
D10*
D11*
X210000000Y-12000000D02*
X210000000Y-10000000D01*
D10*
D11*
X260000000Y-12000000D02*
X260000000Y-10000000D01*
D10*
D11*
X36089160Y-11593604D02*
X35346303Y-11593604D01*
X35717731Y-11593604D02*
X35717731Y-10293604D01*
X35717731Y-10293604D02*
X35593922Y-10479319D01*
X35593922Y-10479319D02*
X35470112Y-10603128D01*
X35470112Y-10603128D02*
X35346303Y-10665033D01*
D10*
D11*
X85346303Y-10417414D02*
X85408207Y-10355509D01*
X85408207Y-10355509D02*
X85532017Y-10293604D01*
X85532017Y-10293604D02*
X85841541Y-10293604D01*
X85841541Y-10293604D02*
X85965350Y-10355509D01*
X85965350Y-10355509D02*
X86027255Y-10417414D01*
X86027255Y-10417414D02*
X86089160Y-10541223D01*
X86089160Y-10541223D02*
X86089160Y-10665033D01*
X86089160Y-10665033D02*
X86027255Y-10850747D01*
X86027255Y-10850747D02*
X85284398Y-11593604D01*
X85284398Y-11593604D02*
X86089160Y-11593604D01*
D10*
D11*
X135284398Y-10293604D02*
X136089160Y-10293604D01*
X136089160Y-10293604D02*
X135655826Y-10788842D01*
X135655826Y-10788842D02*
X135841541Y-10788842D01*
X135841541Y-10788842D02*
X135965350Y-10850747D01*
X135965350Y-10850747D02*
X136027255Y-10912652D01*
X136027255Y-10912652D02*
X136089160Y-11036461D01*
X136089160Y-11036461D02*
X136089160Y-11345985D01*
X136089160Y-11345985D02*
X136027255Y-11469795D01*
X136027255Y-11469795D02*
X135965350Y-11531700D01*
X135965350Y-11531700D02*
X135841541Y-11593604D01*
X135841541Y-11593604D02*
X135470112Y-11593604D01*
X135470112Y-11593604D02*
X135346303Y-11531700D01*
X135346303Y-11531700D02*
X135284398Y-11469795D01*
D10*
D11*
X185965350Y-10726938D02*
X185965350Y-11593604D01*
X185655826Y-10231700D02*
X185346303Y-11160271D01*
X185346303Y-11160271D02*
X186151064Y-11160271D01*
D10*
D11*
X236027255Y-10293604D02*
X235408207Y-10293604D01*
X235408207Y-10293604D02*
X235346303Y-10912652D01*
X235346303Y-10912652D02*
X235408207Y-10850747D01*
X235408207Y-10850747D02*
X235532017Y-10788842D01*
X235532017Y-10788842D02*
X235841541Y-10788842D01*
X235841541Y-10788842D02*
X235965350Y-10850747D01*
X235965350Y-10850747D02*
X236027255Y-10912652D01*
X236027255Y-10912652D02*
X236089160Y-11036461D01*
X236089160Y-11036461D02*
X236089160Y-11345985D01*
X236089160Y-11345985D02*
X236027255Y-11469795D01*
X236027255Y-11469795D02*
X235965350Y-11531700D01*
X235965350Y-11531700D02*
X235841541Y-11593604D01*
X235841541Y-11593604D02*
X235532017Y-11593604D01*
X235532017Y-11593604D02*
X235408207Y-11531700D01*
X235408207Y-11531700D02*
X235346303Y-11469795D01*
D10*
D11*
X60000000Y-203900000D02*
X60000000Y-205900000D01*
D10*
D11*
X110000000Y-203900000D02*
X110000000Y-205900000D01*
D10*
D11*
X160000000Y-203900000D02*
X160000000Y-205900000D01*
D10*
D11*
X210000000Y-203900000D02*
X210000000Y-205900000D01*
D10*
D11*
X260000000Y-203900000D02*
X260000000Y-205900000D01*
D10*
D11*
X36089160Y-205493604D02*
X35346303Y-205493604D01*
X35717731Y-205493604D02*
X35717731Y-204193604D01*
X35717731Y-204193604D02*
X35593922Y-204379319D01*
X35593922Y-204379319D02*
X35470112Y-204503128D01*
X35470112Y-204503128D02*
X35346303Y-204565033D01*
D10*
D11*
X85346303Y-204317414D02*
X85408207Y-204255509D01*
X85408207Y-204255509D02*
X85532017Y-204193604D01*
X85532017Y-204193604D02*
X85841541Y-204193604D01*
X85841541Y-204193604D02*
X85965350Y-204255509D01*
X85965350Y-204255509D02*
X86027255Y-204317414D01*
X86027255Y-204317414D02*
X86089160Y-204441223D01*
X86089160Y-204441223D02*
X86089160Y-204565033D01*
X86089160Y-204565033D02*
X86027255Y-204750747D01*
X86027255Y-204750747D02*
X85284398Y-205493604D01*
X85284398Y-205493604D02*
X86089160Y-205493604D01*
D10*
D11*
X135284398Y-204193604D02*
X136089160Y-204193604D01*
X136089160Y-204193604D02*
X135655826Y-204688842D01*
X135655826Y-204688842D02*
X135841541Y-204688842D01*
X135841541Y-204688842D02*
X135965350Y-204750747D01*
X135965350Y-204750747D02*
X136027255Y-204812652D01*
X136027255Y-204812652D02*
X136089160Y-204936461D01*
X136089160Y-204936461D02*
X136089160Y-205245985D01*
X136089160Y-205245985D02*
X136027255Y-205369795D01*
X136027255Y-205369795D02*
X135965350Y-205431700D01*
X135965350Y-205431700D02*
X135841541Y-205493604D01*
X135841541Y-205493604D02*
X135470112Y-205493604D01*
X135470112Y-205493604D02*
X135346303Y-205431700D01*
X135346303Y-205431700D02*
X135284398Y-205369795D01*
D10*
D11*
X185965350Y-204626938D02*
X185965350Y-205493604D01*
X185655826Y-204131700D02*
X185346303Y-205060271D01*
X185346303Y-205060271D02*
X186151064Y-205060271D01*
D10*
D11*
X236027255Y-204193604D02*
X235408207Y-204193604D01*
X235408207Y-204193604D02*
X235346303Y-204812652D01*
X235346303Y-204812652D02*
X235408207Y-204750747D01*
X235408207Y-204750747D02*
X235532017Y-204688842D01*
X235532017Y-204688842D02*
X235841541Y-204688842D01*
X235841541Y-204688842D02*
X235965350Y-204750747D01*
X235965350Y-204750747D02*
X236027255Y-204812652D01*
X236027255Y-204812652D02*
X236089160Y-204936461D01*
X236089160Y-204936461D02*
X236089160Y-205245985D01*
X236089160Y-205245985D02*
X236027255Y-205369795D01*
X236027255Y-205369795D02*
X235965350Y-205431700D01*
X235965350Y-205431700D02*
X235841541Y-205493604D01*
X235841541Y-205493604D02*
X235532017Y-205493604D01*
X235532017Y-205493604D02*
X235408207Y-205431700D01*
X235408207Y-205431700D02*
X235346303Y-205369795D01*
D10*
D11*
X10000000Y-60000000D02*
X12000000Y-60000000D01*
D10*
D11*
X10000000Y-110000000D02*
X12000000Y-110000000D01*
D10*
D11*
X10000000Y-160000000D02*
X12000000Y-160000000D01*
D10*
D11*
X10690476Y-35222176D02*
X11309523Y-35222176D01*
X10566666Y-35593604D02*
X10999999Y-34293604D01*
X10999999Y-34293604D02*
X11433333Y-35593604D01*
D10*
D11*
X11092857Y-84912652D02*
X11278571Y-84974557D01*
X11278571Y-84974557D02*
X11340476Y-85036461D01*
X11340476Y-85036461D02*
X11402380Y-85160271D01*
X11402380Y-85160271D02*
X11402380Y-85345985D01*
X11402380Y-85345985D02*
X11340476Y-85469795D01*
X11340476Y-85469795D02*
X11278571Y-85531700D01*
X11278571Y-85531700D02*
X11154761Y-85593604D01*
X11154761Y-85593604D02*
X10659523Y-85593604D01*
X10659523Y-85593604D02*
X10659523Y-84293604D01*
X10659523Y-84293604D02*
X11092857Y-84293604D01*
X11092857Y-84293604D02*
X11216666Y-84355509D01*
X11216666Y-84355509D02*
X11278571Y-84417414D01*
X11278571Y-84417414D02*
X11340476Y-84541223D01*
X11340476Y-84541223D02*
X11340476Y-84665033D01*
X11340476Y-84665033D02*
X11278571Y-84788842D01*
X11278571Y-84788842D02*
X11216666Y-84850747D01*
X11216666Y-84850747D02*
X11092857Y-84912652D01*
X11092857Y-84912652D02*
X10659523Y-84912652D01*
D10*
D11*
X11402380Y-135469795D02*
X11340476Y-135531700D01*
X11340476Y-135531700D02*
X11154761Y-135593604D01*
X11154761Y-135593604D02*
X11030952Y-135593604D01*
X11030952Y-135593604D02*
X10845238Y-135531700D01*
X10845238Y-135531700D02*
X10721428Y-135407890D01*
X10721428Y-135407890D02*
X10659523Y-135284080D01*
X10659523Y-135284080D02*
X10597619Y-135036461D01*
X10597619Y-135036461D02*
X10597619Y-134850747D01*
X10597619Y-134850747D02*
X10659523Y-134603128D01*
X10659523Y-134603128D02*
X10721428Y-134479319D01*
X10721428Y-134479319D02*
X10845238Y-134355509D01*
X10845238Y-134355509D02*
X11030952Y-134293604D01*
X11030952Y-134293604D02*
X11154761Y-134293604D01*
X11154761Y-134293604D02*
X11340476Y-134355509D01*
X11340476Y-134355509D02*
X11402380Y-134417414D01*
D10*
D11*
X10659523Y-185593604D02*
X10659523Y-184293604D01*
X10659523Y-184293604D02*
X10969047Y-184293604D01*
X10969047Y-184293604D02*
X11154761Y-184355509D01*
X11154761Y-184355509D02*
X11278571Y-184479319D01*
X11278571Y-184479319D02*
X11340476Y-184603128D01*
X11340476Y-184603128D02*
X11402380Y-184850747D01*
X11402380Y-184850747D02*
X11402380Y-185036461D01*
X11402380Y-185036461D02*
X11340476Y-185284080D01*
X11340476Y-185284080D02*
X11278571Y-185407890D01*
X11278571Y-185407890D02*
X11154761Y-185531700D01*
X11154761Y-185531700D02*
X10969047Y-185593604D01*
X10969047Y-185593604D02*
X10659523Y-185593604D01*
D10*
D11*
X269400000Y-60000000D02*
X267400000Y-60000000D01*
D10*
D11*
X269400000Y-110000000D02*
X267400000Y-110000000D01*
D10*
D11*
X269400000Y-160000000D02*
X267400000Y-160000000D01*
D10*
D11*
X268090476Y-35222176D02*
X268709523Y-35222176D01*
X267966666Y-35593604D02*
X268399999Y-34293604D01*
X268399999Y-34293604D02*
X268833333Y-35593604D01*
D10*
D11*
X268492857Y-84912652D02*
X268678571Y-84974557D01*
X268678571Y-84974557D02*
X268740476Y-85036461D01*
X268740476Y-85036461D02*
X268802380Y-85160271D01*
X268802380Y-85160271D02*
X268802380Y-85345985D01*
X268802380Y-85345985D02*
X268740476Y-85469795D01*
X268740476Y-85469795D02*
X268678571Y-85531700D01*
X268678571Y-85531700D02*
X268554761Y-85593604D01*
X268554761Y-85593604D02*
X268059523Y-85593604D01*
X268059523Y-85593604D02*
X268059523Y-84293604D01*
X268059523Y-84293604D02*
X268492857Y-84293604D01*
X268492857Y-84293604D02*
X268616666Y-84355509D01*
X268616666Y-84355509D02*
X268678571Y-84417414D01*
X268678571Y-84417414D02*
X268740476Y-84541223D01*
X268740476Y-84541223D02*
X268740476Y-84665033D01*
X268740476Y-84665033D02*
X268678571Y-84788842D01*
X268678571Y-84788842D02*
X268616666Y-84850747D01*
X268616666Y-84850747D02*
X268492857Y-84912652D01*
X268492857Y-84912652D02*
X268059523Y-84912652D01*
D10*
D11*
X268802380Y-135469795D02*
X268740476Y-135531700D01*
X268740476Y-135531700D02*
X268554761Y-135593604D01*
X268554761Y-135593604D02*
X268430952Y-135593604D01*
X268430952Y-135593604D02*
X268245238Y-135531700D01*
X268245238Y-135531700D02*
X268121428Y-135407890D01*
X268121428Y-135407890D02*
X268059523Y-135284080D01*
X268059523Y-135284080D02*
X267997619Y-135036461D01*
X267997619Y-135036461D02*
X267997619Y-134850747D01*
X267997619Y-134850747D02*
X268059523Y-134603128D01*
X268059523Y-134603128D02*
X268121428Y-134479319D01*
X268121428Y-134479319D02*
X268245238Y-134355509D01*
X268245238Y-134355509D02*
X268430952Y-134293604D01*
X268430952Y-134293604D02*
X268554761Y-134293604D01*
X268554761Y-134293604D02*
X268740476Y-134355509D01*
X268740476Y-134355509D02*
X268802380Y-134417414D01*
D10*
D11*
X268059523Y-185593604D02*
X268059523Y-184293604D01*
X268059523Y-184293604D02*
X268369047Y-184293604D01*
X268369047Y-184293604D02*
X268554761Y-184355509D01*
X268554761Y-184355509D02*
X268678571Y-184479319D01*
X268678571Y-184479319D02*
X268740476Y-184603128D01*
X268740476Y-184603128D02*
X268802380Y-184850747D01*
X268802380Y-184850747D02*
X268802380Y-185036461D01*
X268802380Y-185036461D02*
X268740476Y-185284080D01*
X268740476Y-185284080D02*
X268678571Y-185407890D01*
X268678571Y-185407890D02*
X268554761Y-185531700D01*
X268554761Y-185531700D02*
X268369047Y-185593604D01*
X268369047Y-185593604D02*
X268059523Y-185593604D01*
D10*
D11*
X182855826Y-199686128D02*
X182855826Y-198186128D01*
X182855826Y-198186128D02*
X183212969Y-198186128D01*
X183212969Y-198186128D02*
X183427255Y-198257557D01*
X183427255Y-198257557D02*
X183570112Y-198400414D01*
X183570112Y-198400414D02*
X183641541Y-198543271D01*
X183641541Y-198543271D02*
X183712969Y-198828985D01*
X183712969Y-198828985D02*
X183712969Y-199043271D01*
X183712969Y-199043271D02*
X183641541Y-199328985D01*
X183641541Y-199328985D02*
X183570112Y-199471842D01*
X183570112Y-199471842D02*
X183427255Y-199614700D01*
X183427255Y-199614700D02*
X183212969Y-199686128D01*
X183212969Y-199686128D02*
X182855826Y-199686128D01*
X184998684Y-199686128D02*
X184998684Y-198900414D01*
X184998684Y-198900414D02*
X184927255Y-198757557D01*
X184927255Y-198757557D02*
X184784398Y-198686128D01*
X184784398Y-198686128D02*
X184498684Y-198686128D01*
X184498684Y-198686128D02*
X184355826Y-198757557D01*
X184998684Y-199614700D02*
X184855826Y-199686128D01*
X184855826Y-199686128D02*
X184498684Y-199686128D01*
X184498684Y-199686128D02*
X184355826Y-199614700D01*
X184355826Y-199614700D02*
X184284398Y-199471842D01*
X184284398Y-199471842D02*
X184284398Y-199328985D01*
X184284398Y-199328985D02*
X184355826Y-199186128D01*
X184355826Y-199186128D02*
X184498684Y-199114700D01*
X184498684Y-199114700D02*
X184855826Y-199114700D01*
X184855826Y-199114700D02*
X184998684Y-199043271D01*
X185498684Y-198686128D02*
X186070112Y-198686128D01*
X185712969Y-198186128D02*
X185712969Y-199471842D01*
X185712969Y-199471842D02*
X185784398Y-199614700D01*
X185784398Y-199614700D02*
X185927255Y-199686128D01*
X185927255Y-199686128D02*
X186070112Y-199686128D01*
X187141541Y-199614700D02*
X186998684Y-199686128D01*
X186998684Y-199686128D02*
X186712970Y-199686128D01*
X186712970Y-199686128D02*
X186570112Y-199614700D01*
X186570112Y-199614700D02*
X186498684Y-199471842D01*
X186498684Y-199471842D02*
X186498684Y-198900414D01*
X186498684Y-198900414D02*
X186570112Y-198757557D01*
X186570112Y-198757557D02*
X186712970Y-198686128D01*
X186712970Y-198686128D02*
X186998684Y-198686128D01*
X186998684Y-198686128D02*
X187141541Y-198757557D01*
X187141541Y-198757557D02*
X187212970Y-198900414D01*
X187212970Y-198900414D02*
X187212970Y-199043271D01*
X187212970Y-199043271D02*
X186498684Y-199186128D01*
X187855826Y-199543271D02*
X187927255Y-199614700D01*
X187927255Y-199614700D02*
X187855826Y-199686128D01*
X187855826Y-199686128D02*
X187784398Y-199614700D01*
X187784398Y-199614700D02*
X187855826Y-199543271D01*
X187855826Y-199543271D02*
X187855826Y-199686128D01*
X187855826Y-198757557D02*
X187927255Y-198828985D01*
X187927255Y-198828985D02*
X187855826Y-198900414D01*
X187855826Y-198900414D02*
X187784398Y-198828985D01*
X187784398Y-198828985D02*
X187855826Y-198757557D01*
X187855826Y-198757557D02*
X187855826Y-198900414D01*
X189641541Y-198328985D02*
X189712969Y-198257557D01*
X189712969Y-198257557D02*
X189855827Y-198186128D01*
X189855827Y-198186128D02*
X190212969Y-198186128D01*
X190212969Y-198186128D02*
X190355827Y-198257557D01*
X190355827Y-198257557D02*
X190427255Y-198328985D01*
X190427255Y-198328985D02*
X190498684Y-198471842D01*
X190498684Y-198471842D02*
X190498684Y-198614700D01*
X190498684Y-198614700D02*
X190427255Y-198828985D01*
X190427255Y-198828985D02*
X189570112Y-199686128D01*
X189570112Y-199686128D02*
X190498684Y-199686128D01*
X191427255Y-198186128D02*
X191570112Y-198186128D01*
X191570112Y-198186128D02*
X191712969Y-198257557D01*
X191712969Y-198257557D02*
X191784398Y-198328985D01*
X191784398Y-198328985D02*
X191855826Y-198471842D01*
X191855826Y-198471842D02*
X191927255Y-198757557D01*
X191927255Y-198757557D02*
X191927255Y-199114700D01*
X191927255Y-199114700D02*
X191855826Y-199400414D01*
X191855826Y-199400414D02*
X191784398Y-199543271D01*
X191784398Y-199543271D02*
X191712969Y-199614700D01*
X191712969Y-199614700D02*
X191570112Y-199686128D01*
X191570112Y-199686128D02*
X191427255Y-199686128D01*
X191427255Y-199686128D02*
X191284398Y-199614700D01*
X191284398Y-199614700D02*
X191212969Y-199543271D01*
X191212969Y-199543271D02*
X191141540Y-199400414D01*
X191141540Y-199400414D02*
X191070112Y-199114700D01*
X191070112Y-199114700D02*
X191070112Y-198757557D01*
X191070112Y-198757557D02*
X191141540Y-198471842D01*
X191141540Y-198471842D02*
X191212969Y-198328985D01*
X191212969Y-198328985D02*
X191284398Y-198257557D01*
X191284398Y-198257557D02*
X191427255Y-198186128D01*
X192498683Y-198328985D02*
X192570111Y-198257557D01*
X192570111Y-198257557D02*
X192712969Y-198186128D01*
X192712969Y-198186128D02*
X193070111Y-198186128D01*
X193070111Y-198186128D02*
X193212969Y-198257557D01*
X193212969Y-198257557D02*
X193284397Y-198328985D01*
X193284397Y-198328985D02*
X193355826Y-198471842D01*
X193355826Y-198471842D02*
X193355826Y-198614700D01*
X193355826Y-198614700D02*
X193284397Y-198828985D01*
X193284397Y-198828985D02*
X192427254Y-199686128D01*
X192427254Y-199686128D02*
X193355826Y-199686128D01*
X193855825Y-198186128D02*
X194784397Y-198186128D01*
X194784397Y-198186128D02*
X194284397Y-198757557D01*
X194284397Y-198757557D02*
X194498682Y-198757557D01*
X194498682Y-198757557D02*
X194641540Y-198828985D01*
X194641540Y-198828985D02*
X194712968Y-198900414D01*
X194712968Y-198900414D02*
X194784397Y-199043271D01*
X194784397Y-199043271D02*
X194784397Y-199400414D01*
X194784397Y-199400414D02*
X194712968Y-199543271D01*
X194712968Y-199543271D02*
X194641540Y-199614700D01*
X194641540Y-199614700D02*
X194498682Y-199686128D01*
X194498682Y-199686128D02*
X194070111Y-199686128D01*
X194070111Y-199686128D02*
X193927254Y-199614700D01*
X193927254Y-199614700D02*
X193855825Y-199543271D01*
X195427253Y-199114700D02*
X196570111Y-199114700D01*
X197570111Y-198186128D02*
X197712968Y-198186128D01*
X197712968Y-198186128D02*
X197855825Y-198257557D01*
X197855825Y-198257557D02*
X197927254Y-198328985D01*
X197927254Y-198328985D02*
X197998682Y-198471842D01*
X197998682Y-198471842D02*
X198070111Y-198757557D01*
X198070111Y-198757557D02*
X198070111Y-199114700D01*
X198070111Y-199114700D02*
X197998682Y-199400414D01*
X197998682Y-199400414D02*
X197927254Y-199543271D01*
X197927254Y-199543271D02*
X197855825Y-199614700D01*
X197855825Y-199614700D02*
X197712968Y-199686128D01*
X197712968Y-199686128D02*
X197570111Y-199686128D01*
X197570111Y-199686128D02*
X197427254Y-199614700D01*
X197427254Y-199614700D02*
X197355825Y-199543271D01*
X197355825Y-199543271D02*
X197284396Y-199400414D01*
X197284396Y-199400414D02*
X197212968Y-199114700D01*
X197212968Y-199114700D02*
X197212968Y-198757557D01*
X197212968Y-198757557D02*
X197284396Y-198471842D01*
X197284396Y-198471842D02*
X197355825Y-198328985D01*
X197355825Y-198328985D02*
X197427254Y-198257557D01*
X197427254Y-198257557D02*
X197570111Y-198186128D01*
X198570110Y-198186128D02*
X199570110Y-198186128D01*
X199570110Y-198186128D02*
X198927253Y-199686128D01*
X200141538Y-199114700D02*
X201284396Y-199114700D01*
X202284396Y-198186128D02*
X202427253Y-198186128D01*
X202427253Y-198186128D02*
X202570110Y-198257557D01*
X202570110Y-198257557D02*
X202641539Y-198328985D01*
X202641539Y-198328985D02*
X202712967Y-198471842D01*
X202712967Y-198471842D02*
X202784396Y-198757557D01*
X202784396Y-198757557D02*
X202784396Y-199114700D01*
X202784396Y-199114700D02*
X202712967Y-199400414D01*
X202712967Y-199400414D02*
X202641539Y-199543271D01*
X202641539Y-199543271D02*
X202570110Y-199614700D01*
X202570110Y-199614700D02*
X202427253Y-199686128D01*
X202427253Y-199686128D02*
X202284396Y-199686128D01*
X202284396Y-199686128D02*
X202141539Y-199614700D01*
X202141539Y-199614700D02*
X202070110Y-199543271D01*
X202070110Y-199543271D02*
X201998681Y-199400414D01*
X201998681Y-199400414D02*
X201927253Y-199114700D01*
X201927253Y-199114700D02*
X201927253Y-198757557D01*
X201927253Y-198757557D02*
X201998681Y-198471842D01*
X201998681Y-198471842D02*
X202070110Y-198328985D01*
X202070110Y-198328985D02*
X202141539Y-198257557D01*
X202141539Y-198257557D02*
X202284396Y-198186128D01*
X204070110Y-198186128D02*
X203784395Y-198186128D01*
X203784395Y-198186128D02*
X203641538Y-198257557D01*
X203641538Y-198257557D02*
X203570110Y-198328985D01*
X203570110Y-198328985D02*
X203427252Y-198543271D01*
X203427252Y-198543271D02*
X203355824Y-198828985D01*
X203355824Y-198828985D02*
X203355824Y-199400414D01*
X203355824Y-199400414D02*
X203427252Y-199543271D01*
X203427252Y-199543271D02*
X203498681Y-199614700D01*
X203498681Y-199614700D02*
X203641538Y-199686128D01*
X203641538Y-199686128D02*
X203927252Y-199686128D01*
X203927252Y-199686128D02*
X204070110Y-199614700D01*
X204070110Y-199614700D02*
X204141538Y-199543271D01*
X204141538Y-199543271D02*
X204212967Y-199400414D01*
X204212967Y-199400414D02*
X204212967Y-199043271D01*
X204212967Y-199043271D02*
X204141538Y-198900414D01*
X204141538Y-198900414D02*
X204070110Y-198828985D01*
X204070110Y-198828985D02*
X203927252Y-198757557D01*
X203927252Y-198757557D02*
X203641538Y-198757557D01*
X203641538Y-198757557D02*
X203498681Y-198828985D01*
X203498681Y-198828985D02*
X203427252Y-198900414D01*
X203427252Y-198900414D02*
X203355824Y-199043271D01*
D10*
D11*
X159400000Y-200400000D02*
X267400000Y-200400000D01*
D10*
D11*
X160855826Y-202486128D02*
X160855826Y-200986128D01*
X161712969Y-202486128D02*
X161070112Y-201628985D01*
X161712969Y-200986128D02*
X160855826Y-201843271D01*
X162355826Y-202486128D02*
X162355826Y-201486128D01*
X162355826Y-200986128D02*
X162284398Y-201057557D01*
X162284398Y-201057557D02*
X162355826Y-201128985D01*
X162355826Y-201128985D02*
X162427255Y-201057557D01*
X162427255Y-201057557D02*
X162355826Y-200986128D01*
X162355826Y-200986128D02*
X162355826Y-201128985D01*
X163927255Y-202343271D02*
X163855827Y-202414700D01*
X163855827Y-202414700D02*
X163641541Y-202486128D01*
X163641541Y-202486128D02*
X163498684Y-202486128D01*
X163498684Y-202486128D02*
X163284398Y-202414700D01*
X163284398Y-202414700D02*
X163141541Y-202271842D01*
X163141541Y-202271842D02*
X163070112Y-202128985D01*
X163070112Y-202128985D02*
X162998684Y-201843271D01*
X162998684Y-201843271D02*
X162998684Y-201628985D01*
X162998684Y-201628985D02*
X163070112Y-201343271D01*
X163070112Y-201343271D02*
X163141541Y-201200414D01*
X163141541Y-201200414D02*
X163284398Y-201057557D01*
X163284398Y-201057557D02*
X163498684Y-200986128D01*
X163498684Y-200986128D02*
X163641541Y-200986128D01*
X163641541Y-200986128D02*
X163855827Y-201057557D01*
X163855827Y-201057557D02*
X163927255Y-201128985D01*
X165212970Y-202486128D02*
X165212970Y-201700414D01*
X165212970Y-201700414D02*
X165141541Y-201557557D01*
X165141541Y-201557557D02*
X164998684Y-201486128D01*
X164998684Y-201486128D02*
X164712970Y-201486128D01*
X164712970Y-201486128D02*
X164570112Y-201557557D01*
X165212970Y-202414700D02*
X165070112Y-202486128D01*
X165070112Y-202486128D02*
X164712970Y-202486128D01*
X164712970Y-202486128D02*
X164570112Y-202414700D01*
X164570112Y-202414700D02*
X164498684Y-202271842D01*
X164498684Y-202271842D02*
X164498684Y-202128985D01*
X164498684Y-202128985D02*
X164570112Y-201986128D01*
X164570112Y-201986128D02*
X164712970Y-201914700D01*
X164712970Y-201914700D02*
X165070112Y-201914700D01*
X165070112Y-201914700D02*
X165212970Y-201843271D01*
X166570113Y-202486128D02*
X166570113Y-200986128D01*
X166570113Y-202414700D02*
X166427255Y-202486128D01*
X166427255Y-202486128D02*
X166141541Y-202486128D01*
X166141541Y-202486128D02*
X165998684Y-202414700D01*
X165998684Y-202414700D02*
X165927255Y-202343271D01*
X165927255Y-202343271D02*
X165855827Y-202200414D01*
X165855827Y-202200414D02*
X165855827Y-201771842D01*
X165855827Y-201771842D02*
X165927255Y-201628985D01*
X165927255Y-201628985D02*
X165998684Y-201557557D01*
X165998684Y-201557557D02*
X166141541Y-201486128D01*
X166141541Y-201486128D02*
X166427255Y-201486128D01*
X166427255Y-201486128D02*
X166570113Y-201557557D01*
X168427255Y-201700414D02*
X168927255Y-201700414D01*
X169141541Y-202486128D02*
X168427255Y-202486128D01*
X168427255Y-202486128D02*
X168427255Y-200986128D01*
X168427255Y-200986128D02*
X169141541Y-200986128D01*
X169784398Y-202343271D02*
X169855827Y-202414700D01*
X169855827Y-202414700D02*
X169784398Y-202486128D01*
X169784398Y-202486128D02*
X169712970Y-202414700D01*
X169712970Y-202414700D02*
X169784398Y-202343271D01*
X169784398Y-202343271D02*
X169784398Y-202486128D01*
X170498684Y-202486128D02*
X170498684Y-200986128D01*
X170498684Y-200986128D02*
X170855827Y-200986128D01*
X170855827Y-200986128D02*
X171070113Y-201057557D01*
X171070113Y-201057557D02*
X171212970Y-201200414D01*
X171212970Y-201200414D02*
X171284399Y-201343271D01*
X171284399Y-201343271D02*
X171355827Y-201628985D01*
X171355827Y-201628985D02*
X171355827Y-201843271D01*
X171355827Y-201843271D02*
X171284399Y-202128985D01*
X171284399Y-202128985D02*
X171212970Y-202271842D01*
X171212970Y-202271842D02*
X171070113Y-202414700D01*
X171070113Y-202414700D02*
X170855827Y-202486128D01*
X170855827Y-202486128D02*
X170498684Y-202486128D01*
X171998684Y-202343271D02*
X172070113Y-202414700D01*
X172070113Y-202414700D02*
X171998684Y-202486128D01*
X171998684Y-202486128D02*
X171927256Y-202414700D01*
X171927256Y-202414700D02*
X171998684Y-202343271D01*
X171998684Y-202343271D02*
X171998684Y-202486128D01*
X172641542Y-202057557D02*
X173355828Y-202057557D01*
X172498685Y-202486128D02*
X172998685Y-200986128D01*
X172998685Y-200986128D02*
X173498685Y-202486128D01*
X173998684Y-202343271D02*
X174070113Y-202414700D01*
X174070113Y-202414700D02*
X173998684Y-202486128D01*
X173998684Y-202486128D02*
X173927256Y-202414700D01*
X173927256Y-202414700D02*
X173998684Y-202343271D01*
X173998684Y-202343271D02*
X173998684Y-202486128D01*
X176998684Y-201486128D02*
X176998684Y-202986128D01*
X176998684Y-201557557D02*
X177141542Y-201486128D01*
X177141542Y-201486128D02*
X177427256Y-201486128D01*
X177427256Y-201486128D02*
X177570113Y-201557557D01*
X177570113Y-201557557D02*
X177641542Y-201628985D01*
X177641542Y-201628985D02*
X177712970Y-201771842D01*
X177712970Y-201771842D02*
X177712970Y-202200414D01*
X177712970Y-202200414D02*
X177641542Y-202343271D01*
X177641542Y-202343271D02*
X177570113Y-202414700D01*
X177570113Y-202414700D02*
X177427256Y-202486128D01*
X177427256Y-202486128D02*
X177141542Y-202486128D01*
X177141542Y-202486128D02*
X176998684Y-202414700D01*
X178998685Y-202414700D02*
X178855827Y-202486128D01*
X178855827Y-202486128D02*
X178570113Y-202486128D01*
X178570113Y-202486128D02*
X178427256Y-202414700D01*
X178427256Y-202414700D02*
X178355827Y-202343271D01*
X178355827Y-202343271D02*
X178284399Y-202200414D01*
X178284399Y-202200414D02*
X178284399Y-201771842D01*
X178284399Y-201771842D02*
X178355827Y-201628985D01*
X178355827Y-201628985D02*
X178427256Y-201557557D01*
X178427256Y-201557557D02*
X178570113Y-201486128D01*
X178570113Y-201486128D02*
X178855827Y-201486128D01*
X178855827Y-201486128D02*
X178998685Y-201557557D01*
X179641541Y-202486128D02*
X179641541Y-200986128D01*
X179641541Y-201557557D02*
X179784399Y-201486128D01*
X179784399Y-201486128D02*
X180070113Y-201486128D01*
X180070113Y-201486128D02*
X180212970Y-201557557D01*
X180212970Y-201557557D02*
X180284399Y-201628985D01*
X180284399Y-201628985D02*
X180355827Y-201771842D01*
X180355827Y-201771842D02*
X180355827Y-202200414D01*
X180355827Y-202200414D02*
X180284399Y-202343271D01*
X180284399Y-202343271D02*
X180212970Y-202414700D01*
X180212970Y-202414700D02*
X180070113Y-202486128D01*
X180070113Y-202486128D02*
X179784399Y-202486128D01*
X179784399Y-202486128D02*
X179641541Y-202414700D01*
X180998684Y-201486128D02*
X180998684Y-202486128D01*
X180998684Y-201628985D02*
X181070113Y-201557557D01*
X181070113Y-201557557D02*
X181212970Y-201486128D01*
X181212970Y-201486128D02*
X181427256Y-201486128D01*
X181427256Y-201486128D02*
X181570113Y-201557557D01*
X181570113Y-201557557D02*
X181641542Y-201700414D01*
X181641542Y-201700414D02*
X181641542Y-202486128D01*
X182927256Y-202414700D02*
X182784399Y-202486128D01*
X182784399Y-202486128D02*
X182498685Y-202486128D01*
X182498685Y-202486128D02*
X182355827Y-202414700D01*
X182355827Y-202414700D02*
X182284399Y-202271842D01*
X182284399Y-202271842D02*
X182284399Y-201700414D01*
X182284399Y-201700414D02*
X182355827Y-201557557D01*
X182355827Y-201557557D02*
X182498685Y-201486128D01*
X182498685Y-201486128D02*
X182784399Y-201486128D01*
X182784399Y-201486128D02*
X182927256Y-201557557D01*
X182927256Y-201557557D02*
X182998685Y-201700414D01*
X182998685Y-201700414D02*
X182998685Y-201843271D01*
X182998685Y-201843271D02*
X182284399Y-201986128D01*
X183498684Y-201486128D02*
X183784399Y-202486128D01*
X183784399Y-202486128D02*
X184070113Y-201771842D01*
X184070113Y-201771842D02*
X184355827Y-202486128D01*
X184355827Y-202486128D02*
X184641541Y-201486128D01*
X186212970Y-200986128D02*
X187212970Y-200986128D01*
X187212970Y-200986128D02*
X186570113Y-202486128D01*
X187784398Y-202343271D02*
X187855827Y-202414700D01*
X187855827Y-202414700D02*
X187784398Y-202486128D01*
X187784398Y-202486128D02*
X187712970Y-202414700D01*
X187712970Y-202414700D02*
X187784398Y-202343271D01*
X187784398Y-202343271D02*
X187784398Y-202486128D01*
X188784399Y-200986128D02*
X188927256Y-200986128D01*
X188927256Y-200986128D02*
X189070113Y-201057557D01*
X189070113Y-201057557D02*
X189141542Y-201128985D01*
X189141542Y-201128985D02*
X189212970Y-201271842D01*
X189212970Y-201271842D02*
X189284399Y-201557557D01*
X189284399Y-201557557D02*
X189284399Y-201914700D01*
X189284399Y-201914700D02*
X189212970Y-202200414D01*
X189212970Y-202200414D02*
X189141542Y-202343271D01*
X189141542Y-202343271D02*
X189070113Y-202414700D01*
X189070113Y-202414700D02*
X188927256Y-202486128D01*
X188927256Y-202486128D02*
X188784399Y-202486128D01*
X188784399Y-202486128D02*
X188641542Y-202414700D01*
X188641542Y-202414700D02*
X188570113Y-202343271D01*
X188570113Y-202343271D02*
X188498684Y-202200414D01*
X188498684Y-202200414D02*
X188427256Y-201914700D01*
X188427256Y-201914700D02*
X188427256Y-201557557D01*
X188427256Y-201557557D02*
X188498684Y-201271842D01*
X188498684Y-201271842D02*
X188570113Y-201128985D01*
X188570113Y-201128985D02*
X188641542Y-201057557D01*
X188641542Y-201057557D02*
X188784399Y-200986128D01*
X189927255Y-202343271D02*
X189998684Y-202414700D01*
X189998684Y-202414700D02*
X189927255Y-202486128D01*
X189927255Y-202486128D02*
X189855827Y-202414700D01*
X189855827Y-202414700D02*
X189927255Y-202343271D01*
X189927255Y-202343271D02*
X189927255Y-202486128D01*
X190498684Y-200986128D02*
X191498684Y-200986128D01*
X191498684Y-200986128D02*
X190855827Y-202486128D01*
D10*
D11*
X159400000Y-197400000D02*
X267400000Y-197400000D01*
D10*
D12*
X246811653Y-199678328D02*
X246311653Y-198964042D01*
X245954510Y-199678328D02*
X245954510Y-198178328D01*
X245954510Y-198178328D02*
X246525939Y-198178328D01*
X246525939Y-198178328D02*
X246668796Y-198249757D01*
X246668796Y-198249757D02*
X246740225Y-198321185D01*
X246740225Y-198321185D02*
X246811653Y-198464042D01*
X246811653Y-198464042D02*
X246811653Y-198678328D01*
X246811653Y-198678328D02*
X246740225Y-198821185D01*
X246740225Y-198821185D02*
X246668796Y-198892614D01*
X246668796Y-198892614D02*
X246525939Y-198964042D01*
X246525939Y-198964042D02*
X245954510Y-198964042D01*
X248025939Y-199606900D02*
X247883082Y-199678328D01*
X247883082Y-199678328D02*
X247597368Y-199678328D01*
X247597368Y-199678328D02*
X247454510Y-199606900D01*
X247454510Y-199606900D02*
X247383082Y-199464042D01*
X247383082Y-199464042D02*
X247383082Y-198892614D01*
X247383082Y-198892614D02*
X247454510Y-198749757D01*
X247454510Y-198749757D02*
X247597368Y-198678328D01*
X247597368Y-198678328D02*
X247883082Y-198678328D01*
X247883082Y-198678328D02*
X248025939Y-198749757D01*
X248025939Y-198749757D02*
X248097368Y-198892614D01*
X248097368Y-198892614D02*
X248097368Y-199035471D01*
X248097368Y-199035471D02*
X247383082Y-199178328D01*
X248597367Y-198678328D02*
X248954510Y-199678328D01*
X248954510Y-199678328D02*
X249311653Y-198678328D01*
X249883081Y-199535471D02*
X249954510Y-199606900D01*
X249954510Y-199606900D02*
X249883081Y-199678328D01*
X249883081Y-199678328D02*
X249811653Y-199606900D01*
X249811653Y-199606900D02*
X249883081Y-199535471D01*
X249883081Y-199535471D02*
X249883081Y-199678328D01*
X249883081Y-198749757D02*
X249954510Y-198821185D01*
X249954510Y-198821185D02*
X249883081Y-198892614D01*
X249883081Y-198892614D02*
X249811653Y-198821185D01*
X249811653Y-198821185D02*
X249883081Y-198749757D01*
X249883081Y-198749757D02*
X249883081Y-198892614D01*
X252597367Y-199535471D02*
X252525939Y-199606900D01*
X252525939Y-199606900D02*
X252311653Y-199678328D01*
X252311653Y-199678328D02*
X252168796Y-199678328D01*
X252168796Y-199678328D02*
X251954510Y-199606900D01*
X251954510Y-199606900D02*
X251811653Y-199464042D01*
X251811653Y-199464042D02*
X251740224Y-199321185D01*
X251740224Y-199321185D02*
X251668796Y-199035471D01*
X251668796Y-199035471D02*
X251668796Y-198821185D01*
X251668796Y-198821185D02*
X251740224Y-198535471D01*
X251740224Y-198535471D02*
X251811653Y-198392614D01*
X251811653Y-198392614D02*
X251954510Y-198249757D01*
X251954510Y-198249757D02*
X252168796Y-198178328D01*
X252168796Y-198178328D02*
X252311653Y-198178328D01*
X252311653Y-198178328D02*
X252525939Y-198249757D01*
X252525939Y-198249757D02*
X252597367Y-198321185D01*
D10*
D11*
X160784398Y-199614700D02*
X160998684Y-199686128D01*
X160998684Y-199686128D02*
X161355826Y-199686128D01*
X161355826Y-199686128D02*
X161498684Y-199614700D01*
X161498684Y-199614700D02*
X161570112Y-199543271D01*
X161570112Y-199543271D02*
X161641541Y-199400414D01*
X161641541Y-199400414D02*
X161641541Y-199257557D01*
X161641541Y-199257557D02*
X161570112Y-199114700D01*
X161570112Y-199114700D02*
X161498684Y-199043271D01*
X161498684Y-199043271D02*
X161355826Y-198971842D01*
X161355826Y-198971842D02*
X161070112Y-198900414D01*
X161070112Y-198900414D02*
X160927255Y-198828985D01*
X160927255Y-198828985D02*
X160855826Y-198757557D01*
X160855826Y-198757557D02*
X160784398Y-198614700D01*
X160784398Y-198614700D02*
X160784398Y-198471842D01*
X160784398Y-198471842D02*
X160855826Y-198328985D01*
X160855826Y-198328985D02*
X160927255Y-198257557D01*
X160927255Y-198257557D02*
X161070112Y-198186128D01*
X161070112Y-198186128D02*
X161427255Y-198186128D01*
X161427255Y-198186128D02*
X161641541Y-198257557D01*
X162284397Y-199686128D02*
X162284397Y-198686128D01*
X162284397Y-198186128D02*
X162212969Y-198257557D01*
X162212969Y-198257557D02*
X162284397Y-198328985D01*
X162284397Y-198328985D02*
X162355826Y-198257557D01*
X162355826Y-198257557D02*
X162284397Y-198186128D01*
X162284397Y-198186128D02*
X162284397Y-198328985D01*
X162855826Y-198686128D02*
X163641541Y-198686128D01*
X163641541Y-198686128D02*
X162855826Y-199686128D01*
X162855826Y-199686128D02*
X163641541Y-199686128D01*
X164784398Y-199614700D02*
X164641541Y-199686128D01*
X164641541Y-199686128D02*
X164355827Y-199686128D01*
X164355827Y-199686128D02*
X164212969Y-199614700D01*
X164212969Y-199614700D02*
X164141541Y-199471842D01*
X164141541Y-199471842D02*
X164141541Y-198900414D01*
X164141541Y-198900414D02*
X164212969Y-198757557D01*
X164212969Y-198757557D02*
X164355827Y-198686128D01*
X164355827Y-198686128D02*
X164641541Y-198686128D01*
X164641541Y-198686128D02*
X164784398Y-198757557D01*
X164784398Y-198757557D02*
X164855827Y-198900414D01*
X164855827Y-198900414D02*
X164855827Y-199043271D01*
X164855827Y-199043271D02*
X164141541Y-199186128D01*
X165498683Y-199543271D02*
X165570112Y-199614700D01*
X165570112Y-199614700D02*
X165498683Y-199686128D01*
X165498683Y-199686128D02*
X165427255Y-199614700D01*
X165427255Y-199614700D02*
X165498683Y-199543271D01*
X165498683Y-199543271D02*
X165498683Y-199686128D01*
X165498683Y-198757557D02*
X165570112Y-198828985D01*
X165570112Y-198828985D02*
X165498683Y-198900414D01*
X165498683Y-198900414D02*
X165427255Y-198828985D01*
X165427255Y-198828985D02*
X165498683Y-198757557D01*
X165498683Y-198757557D02*
X165498683Y-198900414D01*
X167284398Y-199257557D02*
X167998684Y-199257557D01*
X167141541Y-199686128D02*
X167641541Y-198186128D01*
X167641541Y-198186128D02*
X168141541Y-199686128D01*
D10*
D11*
X245855826Y-202486128D02*
X245855826Y-200986128D01*
X247212970Y-202486128D02*
X247212970Y-200986128D01*
X247212970Y-202414700D02*
X247070112Y-202486128D01*
X247070112Y-202486128D02*
X246784398Y-202486128D01*
X246784398Y-202486128D02*
X246641541Y-202414700D01*
X246641541Y-202414700D02*
X246570112Y-202343271D01*
X246570112Y-202343271D02*
X246498684Y-202200414D01*
X246498684Y-202200414D02*
X246498684Y-201771842D01*
X246498684Y-201771842D02*
X246570112Y-201628985D01*
X246570112Y-201628985D02*
X246641541Y-201557557D01*
X246641541Y-201557557D02*
X246784398Y-201486128D01*
X246784398Y-201486128D02*
X247070112Y-201486128D01*
X247070112Y-201486128D02*
X247212970Y-201557557D01*
X247927255Y-202343271D02*
X247998684Y-202414700D01*
X247998684Y-202414700D02*
X247927255Y-202486128D01*
X247927255Y-202486128D02*
X247855827Y-202414700D01*
X247855827Y-202414700D02*
X247927255Y-202343271D01*
X247927255Y-202343271D02*
X247927255Y-202486128D01*
X247927255Y-201557557D02*
X247998684Y-201628985D01*
X247998684Y-201628985D02*
X247927255Y-201700414D01*
X247927255Y-201700414D02*
X247855827Y-201628985D01*
X247855827Y-201628985D02*
X247927255Y-201557557D01*
X247927255Y-201557557D02*
X247927255Y-201700414D01*
X250570113Y-202486128D02*
X249712970Y-202486128D01*
X250141541Y-202486128D02*
X250141541Y-200986128D01*
X250141541Y-200986128D02*
X249998684Y-201200414D01*
X249998684Y-201200414D02*
X249855827Y-201343271D01*
X249855827Y-201343271D02*
X249712970Y-201414700D01*
X252284398Y-200914700D02*
X250998684Y-202843271D01*
X253570113Y-202486128D02*
X252712970Y-202486128D01*
X253141541Y-202486128D02*
X253141541Y-200986128D01*
X253141541Y-200986128D02*
X252998684Y-201200414D01*
X252998684Y-201200414D02*
X252855827Y-201343271D01*
X252855827Y-201343271D02*
X252712970Y-201414700D01*
D10*
D11*
X159400000Y-193400000D02*
X267400000Y-193400000D01*
D10*
D13*
X161091728Y-194104438D02*
X162234585Y-194104438D01*
X161413157Y-196104438D02*
X161663157Y-194104438D01*
X162651252Y-196104438D02*
X162817919Y-194771104D01*
X162901252Y-194104438D02*
X162794109Y-194199676D01*
X162794109Y-194199676D02*
X162877443Y-194294914D01*
X162877443Y-194294914D02*
X162984586Y-194199676D01*
X162984586Y-194199676D02*
X162901252Y-194104438D01*
X162901252Y-194104438D02*
X162877443Y-194294914D01*
X163484586Y-194771104D02*
X164246490Y-194771104D01*
X163853633Y-194104438D02*
X163639348Y-195818723D01*
X163639348Y-195818723D02*
X163710776Y-196009200D01*
X163710776Y-196009200D02*
X163889348Y-196104438D01*
X163889348Y-196104438D02*
X164079824Y-196104438D01*
X165032205Y-196104438D02*
X164853633Y-196009200D01*
X164853633Y-196009200D02*
X164782205Y-195818723D01*
X164782205Y-195818723D02*
X164996490Y-194104438D01*
X166567919Y-196009200D02*
X166365538Y-196104438D01*
X166365538Y-196104438D02*
X165984585Y-196104438D01*
X165984585Y-196104438D02*
X165806014Y-196009200D01*
X165806014Y-196009200D02*
X165734585Y-195818723D01*
X165734585Y-195818723D02*
X165829824Y-195056819D01*
X165829824Y-195056819D02*
X165948871Y-194866342D01*
X165948871Y-194866342D02*
X166151252Y-194771104D01*
X166151252Y-194771104D02*
X166532204Y-194771104D01*
X166532204Y-194771104D02*
X166710776Y-194866342D01*
X166710776Y-194866342D02*
X166782204Y-195056819D01*
X166782204Y-195056819D02*
X166758395Y-195247295D01*
X166758395Y-195247295D02*
X165782204Y-195437771D01*
X167532205Y-195913961D02*
X167615538Y-196009200D01*
X167615538Y-196009200D02*
X167508395Y-196104438D01*
X167508395Y-196104438D02*
X167425062Y-196009200D01*
X167425062Y-196009200D02*
X167532205Y-195913961D01*
X167532205Y-195913961D02*
X167508395Y-196104438D01*
X167663157Y-194866342D02*
X167746490Y-194961580D01*
X167746490Y-194961580D02*
X167639348Y-195056819D01*
X167639348Y-195056819D02*
X167556014Y-194961580D01*
X167556014Y-194961580D02*
X167663157Y-194866342D01*
X167663157Y-194866342D02*
X167639348Y-195056819D01*
X170782205Y-195056819D02*
X171056015Y-195152057D01*
X171056015Y-195152057D02*
X171139348Y-195247295D01*
X171139348Y-195247295D02*
X171210777Y-195437771D01*
X171210777Y-195437771D02*
X171175062Y-195723485D01*
X171175062Y-195723485D02*
X171056015Y-195913961D01*
X171056015Y-195913961D02*
X170948872Y-196009200D01*
X170948872Y-196009200D02*
X170746491Y-196104438D01*
X170746491Y-196104438D02*
X169984586Y-196104438D01*
X169984586Y-196104438D02*
X170234586Y-194104438D01*
X170234586Y-194104438D02*
X170901253Y-194104438D01*
X170901253Y-194104438D02*
X171079824Y-194199676D01*
X171079824Y-194199676D02*
X171163158Y-194294914D01*
X171163158Y-194294914D02*
X171234586Y-194485390D01*
X171234586Y-194485390D02*
X171210777Y-194675866D01*
X171210777Y-194675866D02*
X171091729Y-194866342D01*
X171091729Y-194866342D02*
X170984586Y-194961580D01*
X170984586Y-194961580D02*
X170782205Y-195056819D01*
X170782205Y-195056819D02*
X170115539Y-195056819D01*
X171984586Y-196104438D02*
X172151253Y-194771104D01*
X172234586Y-194104438D02*
X172127443Y-194199676D01*
X172127443Y-194199676D02*
X172210777Y-194294914D01*
X172210777Y-194294914D02*
X172317920Y-194199676D01*
X172317920Y-194199676D02*
X172234586Y-194104438D01*
X172234586Y-194104438D02*
X172210777Y-194294914D01*
X173960777Y-194771104D02*
X173758396Y-196390152D01*
X173758396Y-196390152D02*
X173639348Y-196580628D01*
X173639348Y-196580628D02*
X173532205Y-196675866D01*
X173532205Y-196675866D02*
X173329824Y-196771104D01*
X173329824Y-196771104D02*
X173044110Y-196771104D01*
X173044110Y-196771104D02*
X172865539Y-196675866D01*
X173806015Y-196009200D02*
X173603634Y-196104438D01*
X173603634Y-196104438D02*
X173222682Y-196104438D01*
X173222682Y-196104438D02*
X173044110Y-196009200D01*
X173044110Y-196009200D02*
X172960777Y-195913961D01*
X172960777Y-195913961D02*
X172889348Y-195723485D01*
X172889348Y-195723485D02*
X172960777Y-195152057D01*
X172960777Y-195152057D02*
X173079824Y-194961580D01*
X173079824Y-194961580D02*
X173186967Y-194866342D01*
X173186967Y-194866342D02*
X173389348Y-194771104D01*
X173389348Y-194771104D02*
X173770301Y-194771104D01*
X173770301Y-194771104D02*
X173948872Y-194866342D01*
X175603634Y-196104438D02*
X175734586Y-195056819D01*
X175734586Y-195056819D02*
X175663158Y-194866342D01*
X175663158Y-194866342D02*
X175484586Y-194771104D01*
X175484586Y-194771104D02*
X175103634Y-194771104D01*
X175103634Y-194771104D02*
X174901253Y-194866342D01*
X175615539Y-196009200D02*
X175413158Y-196104438D01*
X175413158Y-196104438D02*
X174936967Y-196104438D01*
X174936967Y-196104438D02*
X174758396Y-196009200D01*
X174758396Y-196009200D02*
X174686967Y-195818723D01*
X174686967Y-195818723D02*
X174710777Y-195628247D01*
X174710777Y-195628247D02*
X174829825Y-195437771D01*
X174829825Y-195437771D02*
X175032206Y-195342533D01*
X175032206Y-195342533D02*
X175508396Y-195342533D01*
X175508396Y-195342533D02*
X175710777Y-195247295D01*
X176472682Y-196009200D02*
X176651253Y-196104438D01*
X176651253Y-196104438D02*
X177032206Y-196104438D01*
X177032206Y-196104438D02*
X177234587Y-196009200D01*
X177234587Y-196009200D02*
X177353634Y-195818723D01*
X177353634Y-195818723D02*
X177365539Y-195723485D01*
X177365539Y-195723485D02*
X177294110Y-195533009D01*
X177294110Y-195533009D02*
X177115539Y-195437771D01*
X177115539Y-195437771D02*
X176829825Y-195437771D01*
X176829825Y-195437771D02*
X176651253Y-195342533D01*
X176651253Y-195342533D02*
X176579825Y-195152057D01*
X176579825Y-195152057D02*
X176591730Y-195056819D01*
X176591730Y-195056819D02*
X176710777Y-194866342D01*
X176710777Y-194866342D02*
X176913158Y-194771104D01*
X176913158Y-194771104D02*
X177198872Y-194771104D01*
X177198872Y-194771104D02*
X177377444Y-194866342D01*
X178091730Y-196009200D02*
X178270301Y-196104438D01*
X178270301Y-196104438D02*
X178651254Y-196104438D01*
X178651254Y-196104438D02*
X178853635Y-196009200D01*
X178853635Y-196009200D02*
X178972682Y-195818723D01*
X178972682Y-195818723D02*
X178984587Y-195723485D01*
X178984587Y-195723485D02*
X178913158Y-195533009D01*
X178913158Y-195533009D02*
X178734587Y-195437771D01*
X178734587Y-195437771D02*
X178448873Y-195437771D01*
X178448873Y-195437771D02*
X178270301Y-195342533D01*
X178270301Y-195342533D02*
X178198873Y-195152057D01*
X178198873Y-195152057D02*
X178210778Y-195056819D01*
X178210778Y-195056819D02*
X178329825Y-194866342D01*
X178329825Y-194866342D02*
X178532206Y-194771104D01*
X178532206Y-194771104D02*
X178817920Y-194771104D01*
X178817920Y-194771104D02*
X178996492Y-194866342D01*
X181377445Y-194104438D02*
X182710778Y-194104438D01*
X182710778Y-194104438D02*
X181603636Y-196104438D01*
X184663160Y-196009200D02*
X184936969Y-196104438D01*
X184936969Y-196104438D02*
X185413160Y-196104438D01*
X185413160Y-196104438D02*
X185615541Y-196009200D01*
X185615541Y-196009200D02*
X185722684Y-195913961D01*
X185722684Y-195913961D02*
X185841731Y-195723485D01*
X185841731Y-195723485D02*
X185865541Y-195533009D01*
X185865541Y-195533009D02*
X185794112Y-195342533D01*
X185794112Y-195342533D02*
X185710779Y-195247295D01*
X185710779Y-195247295D02*
X185532208Y-195152057D01*
X185532208Y-195152057D02*
X185163160Y-195056819D01*
X185163160Y-195056819D02*
X184984588Y-194961580D01*
X184984588Y-194961580D02*
X184901255Y-194866342D01*
X184901255Y-194866342D02*
X184829827Y-194675866D01*
X184829827Y-194675866D02*
X184853636Y-194485390D01*
X184853636Y-194485390D02*
X184972684Y-194294914D01*
X184972684Y-194294914D02*
X185079827Y-194199676D01*
X185079827Y-194199676D02*
X185282208Y-194104438D01*
X185282208Y-194104438D02*
X185758398Y-194104438D01*
X185758398Y-194104438D02*
X186032208Y-194199676D01*
X187425065Y-196009200D02*
X187222684Y-196104438D01*
X187222684Y-196104438D02*
X186841731Y-196104438D01*
X186841731Y-196104438D02*
X186663160Y-196009200D01*
X186663160Y-196009200D02*
X186591731Y-195818723D01*
X186591731Y-195818723D02*
X186686970Y-195056819D01*
X186686970Y-195056819D02*
X186806017Y-194866342D01*
X186806017Y-194866342D02*
X187008398Y-194771104D01*
X187008398Y-194771104D02*
X187389350Y-194771104D01*
X187389350Y-194771104D02*
X187567922Y-194866342D01*
X187567922Y-194866342D02*
X187639350Y-195056819D01*
X187639350Y-195056819D02*
X187615541Y-195247295D01*
X187615541Y-195247295D02*
X186639350Y-195437771D01*
X189389351Y-194771104D02*
X189186970Y-196390152D01*
X189186970Y-196390152D02*
X189067922Y-196580628D01*
X189067922Y-196580628D02*
X188960779Y-196675866D01*
X188960779Y-196675866D02*
X188758398Y-196771104D01*
X188758398Y-196771104D02*
X188472684Y-196771104D01*
X188472684Y-196771104D02*
X188294113Y-196675866D01*
X189234589Y-196009200D02*
X189032208Y-196104438D01*
X189032208Y-196104438D02*
X188651256Y-196104438D01*
X188651256Y-196104438D02*
X188472684Y-196009200D01*
X188472684Y-196009200D02*
X188389351Y-195913961D01*
X188389351Y-195913961D02*
X188317922Y-195723485D01*
X188317922Y-195723485D02*
X188389351Y-195152057D01*
X188389351Y-195152057D02*
X188508398Y-194961580D01*
X188508398Y-194961580D02*
X188615541Y-194866342D01*
X188615541Y-194866342D02*
X188817922Y-194771104D01*
X188817922Y-194771104D02*
X189198875Y-194771104D01*
X189198875Y-194771104D02*
X189377446Y-194866342D01*
X190175065Y-196104438D02*
X190341732Y-194771104D01*
X190317922Y-194961580D02*
X190425065Y-194866342D01*
X190425065Y-194866342D02*
X190627446Y-194771104D01*
X190627446Y-194771104D02*
X190913160Y-194771104D01*
X190913160Y-194771104D02*
X191091732Y-194866342D01*
X191091732Y-194866342D02*
X191163160Y-195056819D01*
X191163160Y-195056819D02*
X191032208Y-196104438D01*
X191163160Y-195056819D02*
X191282208Y-194866342D01*
X191282208Y-194866342D02*
X191484589Y-194771104D01*
X191484589Y-194771104D02*
X191770303Y-194771104D01*
X191770303Y-194771104D02*
X191948875Y-194866342D01*
X191948875Y-194866342D02*
X192020303Y-195056819D01*
X192020303Y-195056819D02*
X191889351Y-196104438D01*
X193615542Y-196009200D02*
X193413161Y-196104438D01*
X193413161Y-196104438D02*
X193032208Y-196104438D01*
X193032208Y-196104438D02*
X192853637Y-196009200D01*
X192853637Y-196009200D02*
X192782208Y-195818723D01*
X192782208Y-195818723D02*
X192877447Y-195056819D01*
X192877447Y-195056819D02*
X192996494Y-194866342D01*
X192996494Y-194866342D02*
X193198875Y-194771104D01*
X193198875Y-194771104D02*
X193579827Y-194771104D01*
X193579827Y-194771104D02*
X193758399Y-194866342D01*
X193758399Y-194866342D02*
X193829827Y-195056819D01*
X193829827Y-195056819D02*
X193806018Y-195247295D01*
X193806018Y-195247295D02*
X192829827Y-195437771D01*
X194722685Y-194771104D02*
X194556018Y-196104438D01*
X194698875Y-194961580D02*
X194806018Y-194866342D01*
X194806018Y-194866342D02*
X195008399Y-194771104D01*
X195008399Y-194771104D02*
X195294113Y-194771104D01*
X195294113Y-194771104D02*
X195472685Y-194866342D01*
X195472685Y-194866342D02*
X195544113Y-195056819D01*
X195544113Y-195056819D02*
X195413161Y-196104438D01*
X196246495Y-194771104D02*
X197008399Y-194771104D01*
X196615542Y-194104438D02*
X196401257Y-195818723D01*
X196401257Y-195818723D02*
X196472685Y-196009200D01*
X196472685Y-196009200D02*
X196651257Y-196104438D01*
X196651257Y-196104438D02*
X196841733Y-196104438D01*
X199032209Y-196104438D02*
X199282209Y-194104438D01*
X199282209Y-194104438D02*
X199758400Y-194104438D01*
X199758400Y-194104438D02*
X200032209Y-194199676D01*
X200032209Y-194199676D02*
X200198876Y-194390152D01*
X200198876Y-194390152D02*
X200270304Y-194580628D01*
X200270304Y-194580628D02*
X200317924Y-194961580D01*
X200317924Y-194961580D02*
X200282209Y-195247295D01*
X200282209Y-195247295D02*
X200139352Y-195628247D01*
X200139352Y-195628247D02*
X200020304Y-195818723D01*
X200020304Y-195818723D02*
X199806019Y-196009200D01*
X199806019Y-196009200D02*
X199508400Y-196104438D01*
X199508400Y-196104438D02*
X199032209Y-196104438D01*
X201032209Y-196104438D02*
X201198876Y-194771104D01*
X201282209Y-194104438D02*
X201175066Y-194199676D01*
X201175066Y-194199676D02*
X201258400Y-194294914D01*
X201258400Y-194294914D02*
X201365543Y-194199676D01*
X201365543Y-194199676D02*
X201282209Y-194104438D01*
X201282209Y-194104438D02*
X201258400Y-194294914D01*
X201901257Y-196009200D02*
X202079828Y-196104438D01*
X202079828Y-196104438D02*
X202460781Y-196104438D01*
X202460781Y-196104438D02*
X202663162Y-196009200D01*
X202663162Y-196009200D02*
X202782209Y-195818723D01*
X202782209Y-195818723D02*
X202794114Y-195723485D01*
X202794114Y-195723485D02*
X202722685Y-195533009D01*
X202722685Y-195533009D02*
X202544114Y-195437771D01*
X202544114Y-195437771D02*
X202258400Y-195437771D01*
X202258400Y-195437771D02*
X202079828Y-195342533D01*
X202079828Y-195342533D02*
X202008400Y-195152057D01*
X202008400Y-195152057D02*
X202020305Y-195056819D01*
X202020305Y-195056819D02*
X202139352Y-194866342D01*
X202139352Y-194866342D02*
X202341733Y-194771104D01*
X202341733Y-194771104D02*
X202627447Y-194771104D01*
X202627447Y-194771104D02*
X202806019Y-194866342D01*
X203770305Y-194771104D02*
X203520305Y-196771104D01*
X203758400Y-194866342D02*
X203960781Y-194771104D01*
X203960781Y-194771104D02*
X204341733Y-194771104D01*
X204341733Y-194771104D02*
X204520305Y-194866342D01*
X204520305Y-194866342D02*
X204603638Y-194961580D01*
X204603638Y-194961580D02*
X204675067Y-195152057D01*
X204675067Y-195152057D02*
X204603638Y-195723485D01*
X204603638Y-195723485D02*
X204484591Y-195913961D01*
X204484591Y-195913961D02*
X204377448Y-196009200D01*
X204377448Y-196009200D02*
X204175067Y-196104438D01*
X204175067Y-196104438D02*
X203794114Y-196104438D01*
X203794114Y-196104438D02*
X203615543Y-196009200D01*
X205698877Y-196104438D02*
X205520305Y-196009200D01*
X205520305Y-196009200D02*
X205448877Y-195818723D01*
X205448877Y-195818723D02*
X205663162Y-194104438D01*
X207317924Y-196104438D02*
X207448876Y-195056819D01*
X207448876Y-195056819D02*
X207377448Y-194866342D01*
X207377448Y-194866342D02*
X207198876Y-194771104D01*
X207198876Y-194771104D02*
X206817924Y-194771104D01*
X206817924Y-194771104D02*
X206615543Y-194866342D01*
X207329829Y-196009200D02*
X207127448Y-196104438D01*
X207127448Y-196104438D02*
X206651257Y-196104438D01*
X206651257Y-196104438D02*
X206472686Y-196009200D01*
X206472686Y-196009200D02*
X206401257Y-195818723D01*
X206401257Y-195818723D02*
X206425067Y-195628247D01*
X206425067Y-195628247D02*
X206544115Y-195437771D01*
X206544115Y-195437771D02*
X206746496Y-195342533D01*
X206746496Y-195342533D02*
X207222686Y-195342533D01*
X207222686Y-195342533D02*
X207425067Y-195247295D01*
X208246496Y-194771104D02*
X208556020Y-196104438D01*
X209198877Y-194771104D02*
X208556020Y-196104438D01*
X208556020Y-196104438D02*
X208306020Y-196580628D01*
X208306020Y-196580628D02*
X208198877Y-196675866D01*
X208198877Y-196675866D02*
X207996496Y-196771104D01*
D10*
D11*
X161355826Y-191500414D02*
X160855826Y-191500414D01*
X160855826Y-192286128D02*
X160855826Y-190786128D01*
X160855826Y-190786128D02*
X161570112Y-190786128D01*
X162141540Y-192286128D02*
X162141540Y-191286128D01*
X162141540Y-190786128D02*
X162070112Y-190857557D01*
X162070112Y-190857557D02*
X162141540Y-190928985D01*
X162141540Y-190928985D02*
X162212969Y-190857557D01*
X162212969Y-190857557D02*
X162141540Y-190786128D01*
X162141540Y-190786128D02*
X162141540Y-190928985D01*
X163070112Y-192286128D02*
X162927255Y-192214700D01*
X162927255Y-192214700D02*
X162855826Y-192071842D01*
X162855826Y-192071842D02*
X162855826Y-190786128D01*
X164212969Y-192214700D02*
X164070112Y-192286128D01*
X164070112Y-192286128D02*
X163784398Y-192286128D01*
X163784398Y-192286128D02*
X163641540Y-192214700D01*
X163641540Y-192214700D02*
X163570112Y-192071842D01*
X163570112Y-192071842D02*
X163570112Y-191500414D01*
X163570112Y-191500414D02*
X163641540Y-191357557D01*
X163641540Y-191357557D02*
X163784398Y-191286128D01*
X163784398Y-191286128D02*
X164070112Y-191286128D01*
X164070112Y-191286128D02*
X164212969Y-191357557D01*
X164212969Y-191357557D02*
X164284398Y-191500414D01*
X164284398Y-191500414D02*
X164284398Y-191643271D01*
X164284398Y-191643271D02*
X163570112Y-191786128D01*
X164927254Y-192143271D02*
X164998683Y-192214700D01*
X164998683Y-192214700D02*
X164927254Y-192286128D01*
X164927254Y-192286128D02*
X164855826Y-192214700D01*
X164855826Y-192214700D02*
X164927254Y-192143271D01*
X164927254Y-192143271D02*
X164927254Y-192286128D01*
X164927254Y-191357557D02*
X164998683Y-191428985D01*
X164998683Y-191428985D02*
X164927254Y-191500414D01*
X164927254Y-191500414D02*
X164855826Y-191428985D01*
X164855826Y-191428985D02*
X164927254Y-191357557D01*
X164927254Y-191357557D02*
X164927254Y-191500414D01*
X166784397Y-192286128D02*
X166784397Y-190786128D01*
X166784397Y-191357557D02*
X166927255Y-191286128D01*
X166927255Y-191286128D02*
X167212969Y-191286128D01*
X167212969Y-191286128D02*
X167355826Y-191357557D01*
X167355826Y-191357557D02*
X167427255Y-191428985D01*
X167427255Y-191428985D02*
X167498683Y-191571842D01*
X167498683Y-191571842D02*
X167498683Y-192000414D01*
X167498683Y-192000414D02*
X167427255Y-192143271D01*
X167427255Y-192143271D02*
X167355826Y-192214700D01*
X167355826Y-192214700D02*
X167212969Y-192286128D01*
X167212969Y-192286128D02*
X166927255Y-192286128D01*
X166927255Y-192286128D02*
X166784397Y-192214700D01*
X168141540Y-192286128D02*
X168141540Y-191286128D01*
X168141540Y-190786128D02*
X168070112Y-190857557D01*
X168070112Y-190857557D02*
X168141540Y-190928985D01*
X168141540Y-190928985D02*
X168212969Y-190857557D01*
X168212969Y-190857557D02*
X168141540Y-190786128D01*
X168141540Y-190786128D02*
X168141540Y-190928985D01*
X169498684Y-191286128D02*
X169498684Y-192500414D01*
X169498684Y-192500414D02*
X169427255Y-192643271D01*
X169427255Y-192643271D02*
X169355826Y-192714700D01*
X169355826Y-192714700D02*
X169212969Y-192786128D01*
X169212969Y-192786128D02*
X168998684Y-192786128D01*
X168998684Y-192786128D02*
X168855826Y-192714700D01*
X169498684Y-192214700D02*
X169355826Y-192286128D01*
X169355826Y-192286128D02*
X169070112Y-192286128D01*
X169070112Y-192286128D02*
X168927255Y-192214700D01*
X168927255Y-192214700D02*
X168855826Y-192143271D01*
X168855826Y-192143271D02*
X168784398Y-192000414D01*
X168784398Y-192000414D02*
X168784398Y-191571842D01*
X168784398Y-191571842D02*
X168855826Y-191428985D01*
X168855826Y-191428985D02*
X168927255Y-191357557D01*
X168927255Y-191357557D02*
X169070112Y-191286128D01*
X169070112Y-191286128D02*
X169355826Y-191286128D01*
X169355826Y-191286128D02*
X169498684Y-191357557D01*
X170855827Y-192286128D02*
X170855827Y-191500414D01*
X170855827Y-191500414D02*
X170784398Y-191357557D01*
X170784398Y-191357557D02*
X170641541Y-191286128D01*
X170641541Y-191286128D02*
X170355827Y-191286128D01*
X170355827Y-191286128D02*
X170212969Y-191357557D01*
X170855827Y-192214700D02*
X170712969Y-192286128D01*
X170712969Y-192286128D02*
X170355827Y-192286128D01*
X170355827Y-192286128D02*
X170212969Y-192214700D01*
X170212969Y-192214700D02*
X170141541Y-192071842D01*
X170141541Y-192071842D02*
X170141541Y-191928985D01*
X170141541Y-191928985D02*
X170212969Y-191786128D01*
X170212969Y-191786128D02*
X170355827Y-191714700D01*
X170355827Y-191714700D02*
X170712969Y-191714700D01*
X170712969Y-191714700D02*
X170855827Y-191643271D01*
X171498684Y-192214700D02*
X171641541Y-192286128D01*
X171641541Y-192286128D02*
X171927255Y-192286128D01*
X171927255Y-192286128D02*
X172070112Y-192214700D01*
X172070112Y-192214700D02*
X172141541Y-192071842D01*
X172141541Y-192071842D02*
X172141541Y-192000414D01*
X172141541Y-192000414D02*
X172070112Y-191857557D01*
X172070112Y-191857557D02*
X171927255Y-191786128D01*
X171927255Y-191786128D02*
X171712970Y-191786128D01*
X171712970Y-191786128D02*
X171570112Y-191714700D01*
X171570112Y-191714700D02*
X171498684Y-191571842D01*
X171498684Y-191571842D02*
X171498684Y-191500414D01*
X171498684Y-191500414D02*
X171570112Y-191357557D01*
X171570112Y-191357557D02*
X171712970Y-191286128D01*
X171712970Y-191286128D02*
X171927255Y-191286128D01*
X171927255Y-191286128D02*
X172070112Y-191357557D01*
X172712970Y-192214700D02*
X172855827Y-192286128D01*
X172855827Y-192286128D02*
X173141541Y-192286128D01*
X173141541Y-192286128D02*
X173284398Y-192214700D01*
X173284398Y-192214700D02*
X173355827Y-192071842D01*
X173355827Y-192071842D02*
X173355827Y-192000414D01*
X173355827Y-192000414D02*
X173284398Y-191857557D01*
X173284398Y-191857557D02*
X173141541Y-191786128D01*
X173141541Y-191786128D02*
X172927256Y-191786128D01*
X172927256Y-191786128D02*
X172784398Y-191714700D01*
X172784398Y-191714700D02*
X172712970Y-191571842D01*
X172712970Y-191571842D02*
X172712970Y-191500414D01*
X172712970Y-191500414D02*
X172784398Y-191357557D01*
X172784398Y-191357557D02*
X172927256Y-191286128D01*
X172927256Y-191286128D02*
X173141541Y-191286128D01*
X173141541Y-191286128D02*
X173284398Y-191357557D01*
X173641542Y-192428985D02*
X174784399Y-192428985D01*
X174998684Y-190786128D02*
X175998684Y-190786128D01*
X175998684Y-190786128D02*
X175355827Y-192286128D01*
X176212970Y-192428985D02*
X177355827Y-192428985D01*
X177641541Y-192214700D02*
X177784398Y-192286128D01*
X177784398Y-192286128D02*
X178070112Y-192286128D01*
X178070112Y-192286128D02*
X178212969Y-192214700D01*
X178212969Y-192214700D02*
X178284398Y-192071842D01*
X178284398Y-192071842D02*
X178284398Y-192000414D01*
X178284398Y-192000414D02*
X178212969Y-191857557D01*
X178212969Y-191857557D02*
X178070112Y-191786128D01*
X178070112Y-191786128D02*
X177855827Y-191786128D01*
X177855827Y-191786128D02*
X177712969Y-191714700D01*
X177712969Y-191714700D02*
X177641541Y-191571842D01*
X177641541Y-191571842D02*
X177641541Y-191500414D01*
X177641541Y-191500414D02*
X177712969Y-191357557D01*
X177712969Y-191357557D02*
X177855827Y-191286128D01*
X177855827Y-191286128D02*
X178070112Y-191286128D01*
X178070112Y-191286128D02*
X178212969Y-191357557D01*
X179498684Y-192214700D02*
X179355827Y-192286128D01*
X179355827Y-192286128D02*
X179070113Y-192286128D01*
X179070113Y-192286128D02*
X178927255Y-192214700D01*
X178927255Y-192214700D02*
X178855827Y-192071842D01*
X178855827Y-192071842D02*
X178855827Y-191500414D01*
X178855827Y-191500414D02*
X178927255Y-191357557D01*
X178927255Y-191357557D02*
X179070113Y-191286128D01*
X179070113Y-191286128D02*
X179355827Y-191286128D01*
X179355827Y-191286128D02*
X179498684Y-191357557D01*
X179498684Y-191357557D02*
X179570113Y-191500414D01*
X179570113Y-191500414D02*
X179570113Y-191643271D01*
X179570113Y-191643271D02*
X178855827Y-191786128D01*
X180855827Y-191286128D02*
X180855827Y-192500414D01*
X180855827Y-192500414D02*
X180784398Y-192643271D01*
X180784398Y-192643271D02*
X180712969Y-192714700D01*
X180712969Y-192714700D02*
X180570112Y-192786128D01*
X180570112Y-192786128D02*
X180355827Y-192786128D01*
X180355827Y-192786128D02*
X180212969Y-192714700D01*
X180855827Y-192214700D02*
X180712969Y-192286128D01*
X180712969Y-192286128D02*
X180427255Y-192286128D01*
X180427255Y-192286128D02*
X180284398Y-192214700D01*
X180284398Y-192214700D02*
X180212969Y-192143271D01*
X180212969Y-192143271D02*
X180141541Y-192000414D01*
X180141541Y-192000414D02*
X180141541Y-191571842D01*
X180141541Y-191571842D02*
X180212969Y-191428985D01*
X180212969Y-191428985D02*
X180284398Y-191357557D01*
X180284398Y-191357557D02*
X180427255Y-191286128D01*
X180427255Y-191286128D02*
X180712969Y-191286128D01*
X180712969Y-191286128D02*
X180855827Y-191357557D01*
X181570112Y-192286128D02*
X181570112Y-191286128D01*
X181570112Y-191428985D02*
X181641541Y-191357557D01*
X181641541Y-191357557D02*
X181784398Y-191286128D01*
X181784398Y-191286128D02*
X181998684Y-191286128D01*
X181998684Y-191286128D02*
X182141541Y-191357557D01*
X182141541Y-191357557D02*
X182212970Y-191500414D01*
X182212970Y-191500414D02*
X182212970Y-192286128D01*
X182212970Y-191500414D02*
X182284398Y-191357557D01*
X182284398Y-191357557D02*
X182427255Y-191286128D01*
X182427255Y-191286128D02*
X182641541Y-191286128D01*
X182641541Y-191286128D02*
X182784398Y-191357557D01*
X182784398Y-191357557D02*
X182855827Y-191500414D01*
X182855827Y-191500414D02*
X182855827Y-192286128D01*
X184141541Y-192214700D02*
X183998684Y-192286128D01*
X183998684Y-192286128D02*
X183712970Y-192286128D01*
X183712970Y-192286128D02*
X183570112Y-192214700D01*
X183570112Y-192214700D02*
X183498684Y-192071842D01*
X183498684Y-192071842D02*
X183498684Y-191500414D01*
X183498684Y-191500414D02*
X183570112Y-191357557D01*
X183570112Y-191357557D02*
X183712970Y-191286128D01*
X183712970Y-191286128D02*
X183998684Y-191286128D01*
X183998684Y-191286128D02*
X184141541Y-191357557D01*
X184141541Y-191357557D02*
X184212970Y-191500414D01*
X184212970Y-191500414D02*
X184212970Y-191643271D01*
X184212970Y-191643271D02*
X183498684Y-191786128D01*
X184855826Y-191286128D02*
X184855826Y-192286128D01*
X184855826Y-191428985D02*
X184927255Y-191357557D01*
X184927255Y-191357557D02*
X185070112Y-191286128D01*
X185070112Y-191286128D02*
X185284398Y-191286128D01*
X185284398Y-191286128D02*
X185427255Y-191357557D01*
X185427255Y-191357557D02*
X185498684Y-191500414D01*
X185498684Y-191500414D02*
X185498684Y-192286128D01*
X185998684Y-191286128D02*
X186570112Y-191286128D01*
X186212969Y-190786128D02*
X186212969Y-192071842D01*
X186212969Y-192071842D02*
X186284398Y-192214700D01*
X186284398Y-192214700D02*
X186427255Y-192286128D01*
X186427255Y-192286128D02*
X186570112Y-192286128D01*
X187070112Y-192143271D02*
X187141541Y-192214700D01*
X187141541Y-192214700D02*
X187070112Y-192286128D01*
X187070112Y-192286128D02*
X186998684Y-192214700D01*
X186998684Y-192214700D02*
X187070112Y-192143271D01*
X187070112Y-192143271D02*
X187070112Y-192286128D01*
X187784398Y-192286128D02*
X187784398Y-190786128D01*
X187927256Y-191714700D02*
X188355827Y-192286128D01*
X188355827Y-191286128D02*
X187784398Y-191857557D01*
X188998684Y-192286128D02*
X188998684Y-191286128D01*
X188998684Y-190786128D02*
X188927256Y-190857557D01*
X188927256Y-190857557D02*
X188998684Y-190928985D01*
X188998684Y-190928985D02*
X189070113Y-190857557D01*
X189070113Y-190857557D02*
X188998684Y-190786128D01*
X188998684Y-190786128D02*
X188998684Y-190928985D01*
X190355828Y-192214700D02*
X190212970Y-192286128D01*
X190212970Y-192286128D02*
X189927256Y-192286128D01*
X189927256Y-192286128D02*
X189784399Y-192214700D01*
X189784399Y-192214700D02*
X189712970Y-192143271D01*
X189712970Y-192143271D02*
X189641542Y-192000414D01*
X189641542Y-192000414D02*
X189641542Y-191571842D01*
X189641542Y-191571842D02*
X189712970Y-191428985D01*
X189712970Y-191428985D02*
X189784399Y-191357557D01*
X189784399Y-191357557D02*
X189927256Y-191286128D01*
X189927256Y-191286128D02*
X190212970Y-191286128D01*
X190212970Y-191286128D02*
X190355828Y-191357557D01*
X191641542Y-192286128D02*
X191641542Y-191500414D01*
X191641542Y-191500414D02*
X191570113Y-191357557D01*
X191570113Y-191357557D02*
X191427256Y-191286128D01*
X191427256Y-191286128D02*
X191141542Y-191286128D01*
X191141542Y-191286128D02*
X190998684Y-191357557D01*
X191641542Y-192214700D02*
X191498684Y-192286128D01*
X191498684Y-192286128D02*
X191141542Y-192286128D01*
X191141542Y-192286128D02*
X190998684Y-192214700D01*
X190998684Y-192214700D02*
X190927256Y-192071842D01*
X190927256Y-192071842D02*
X190927256Y-191928985D01*
X190927256Y-191928985D02*
X190998684Y-191786128D01*
X190998684Y-191786128D02*
X191141542Y-191714700D01*
X191141542Y-191714700D02*
X191498684Y-191714700D01*
X191498684Y-191714700D02*
X191641542Y-191643271D01*
X192998685Y-192286128D02*
X192998685Y-190786128D01*
X192998685Y-192214700D02*
X192855827Y-192286128D01*
X192855827Y-192286128D02*
X192570113Y-192286128D01*
X192570113Y-192286128D02*
X192427256Y-192214700D01*
X192427256Y-192214700D02*
X192355827Y-192143271D01*
X192355827Y-192143271D02*
X192284399Y-192000414D01*
X192284399Y-192000414D02*
X192284399Y-191571842D01*
X192284399Y-191571842D02*
X192355827Y-191428985D01*
X192355827Y-191428985D02*
X192427256Y-191357557D01*
X192427256Y-191357557D02*
X192570113Y-191286128D01*
X192570113Y-191286128D02*
X192855827Y-191286128D01*
X192855827Y-191286128D02*
X192998685Y-191357557D01*
X193355828Y-192428985D02*
X194498685Y-192428985D01*
X194855827Y-191286128D02*
X194855827Y-192786128D01*
X194855827Y-191357557D02*
X194998685Y-191286128D01*
X194998685Y-191286128D02*
X195284399Y-191286128D01*
X195284399Y-191286128D02*
X195427256Y-191357557D01*
X195427256Y-191357557D02*
X195498685Y-191428985D01*
X195498685Y-191428985D02*
X195570113Y-191571842D01*
X195570113Y-191571842D02*
X195570113Y-192000414D01*
X195570113Y-192000414D02*
X195498685Y-192143271D01*
X195498685Y-192143271D02*
X195427256Y-192214700D01*
X195427256Y-192214700D02*
X195284399Y-192286128D01*
X195284399Y-192286128D02*
X194998685Y-192286128D01*
X194998685Y-192286128D02*
X194855827Y-192214700D01*
X196855828Y-192214700D02*
X196712970Y-192286128D01*
X196712970Y-192286128D02*
X196427256Y-192286128D01*
X196427256Y-192286128D02*
X196284399Y-192214700D01*
X196284399Y-192214700D02*
X196212970Y-192143271D01*
X196212970Y-192143271D02*
X196141542Y-192000414D01*
X196141542Y-192000414D02*
X196141542Y-191571842D01*
X196141542Y-191571842D02*
X196212970Y-191428985D01*
X196212970Y-191428985D02*
X196284399Y-191357557D01*
X196284399Y-191357557D02*
X196427256Y-191286128D01*
X196427256Y-191286128D02*
X196712970Y-191286128D01*
X196712970Y-191286128D02*
X196855828Y-191357557D01*
X197498684Y-192286128D02*
X197498684Y-190786128D01*
X197498684Y-191357557D02*
X197641542Y-191286128D01*
X197641542Y-191286128D02*
X197927256Y-191286128D01*
X197927256Y-191286128D02*
X198070113Y-191357557D01*
X198070113Y-191357557D02*
X198141542Y-191428985D01*
X198141542Y-191428985D02*
X198212970Y-191571842D01*
X198212970Y-191571842D02*
X198212970Y-192000414D01*
X198212970Y-192000414D02*
X198141542Y-192143271D01*
X198141542Y-192143271D02*
X198070113Y-192214700D01*
X198070113Y-192214700D02*
X197927256Y-192286128D01*
X197927256Y-192286128D02*
X197641542Y-192286128D01*
X197641542Y-192286128D02*
X197498684Y-192214700D01*
D10*
D11*
X159400000Y-187400000D02*
X267400000Y-187400000D01*
D10*
D11*
X160784398Y-189514700D02*
X160998684Y-189586128D01*
X160998684Y-189586128D02*
X161355826Y-189586128D01*
X161355826Y-189586128D02*
X161498684Y-189514700D01*
X161498684Y-189514700D02*
X161570112Y-189443271D01*
X161570112Y-189443271D02*
X161641541Y-189300414D01*
X161641541Y-189300414D02*
X161641541Y-189157557D01*
X161641541Y-189157557D02*
X161570112Y-189014700D01*
X161570112Y-189014700D02*
X161498684Y-188943271D01*
X161498684Y-188943271D02*
X161355826Y-188871842D01*
X161355826Y-188871842D02*
X161070112Y-188800414D01*
X161070112Y-188800414D02*
X160927255Y-188728985D01*
X160927255Y-188728985D02*
X160855826Y-188657557D01*
X160855826Y-188657557D02*
X160784398Y-188514700D01*
X160784398Y-188514700D02*
X160784398Y-188371842D01*
X160784398Y-188371842D02*
X160855826Y-188228985D01*
X160855826Y-188228985D02*
X160927255Y-188157557D01*
X160927255Y-188157557D02*
X161070112Y-188086128D01*
X161070112Y-188086128D02*
X161427255Y-188086128D01*
X161427255Y-188086128D02*
X161641541Y-188157557D01*
X162284397Y-189586128D02*
X162284397Y-188086128D01*
X162927255Y-189586128D02*
X162927255Y-188800414D01*
X162927255Y-188800414D02*
X162855826Y-188657557D01*
X162855826Y-188657557D02*
X162712969Y-188586128D01*
X162712969Y-188586128D02*
X162498683Y-188586128D01*
X162498683Y-188586128D02*
X162355826Y-188657557D01*
X162355826Y-188657557D02*
X162284397Y-188728985D01*
X164212969Y-189514700D02*
X164070112Y-189586128D01*
X164070112Y-189586128D02*
X163784398Y-189586128D01*
X163784398Y-189586128D02*
X163641540Y-189514700D01*
X163641540Y-189514700D02*
X163570112Y-189371842D01*
X163570112Y-189371842D02*
X163570112Y-188800414D01*
X163570112Y-188800414D02*
X163641540Y-188657557D01*
X163641540Y-188657557D02*
X163784398Y-188586128D01*
X163784398Y-188586128D02*
X164070112Y-188586128D01*
X164070112Y-188586128D02*
X164212969Y-188657557D01*
X164212969Y-188657557D02*
X164284398Y-188800414D01*
X164284398Y-188800414D02*
X164284398Y-188943271D01*
X164284398Y-188943271D02*
X163570112Y-189086128D01*
X165498683Y-189514700D02*
X165355826Y-189586128D01*
X165355826Y-189586128D02*
X165070112Y-189586128D01*
X165070112Y-189586128D02*
X164927254Y-189514700D01*
X164927254Y-189514700D02*
X164855826Y-189371842D01*
X164855826Y-189371842D02*
X164855826Y-188800414D01*
X164855826Y-188800414D02*
X164927254Y-188657557D01*
X164927254Y-188657557D02*
X165070112Y-188586128D01*
X165070112Y-188586128D02*
X165355826Y-188586128D01*
X165355826Y-188586128D02*
X165498683Y-188657557D01*
X165498683Y-188657557D02*
X165570112Y-188800414D01*
X165570112Y-188800414D02*
X165570112Y-188943271D01*
X165570112Y-188943271D02*
X164855826Y-189086128D01*
X165998683Y-188586128D02*
X166570111Y-188586128D01*
X166212968Y-188086128D02*
X166212968Y-189371842D01*
X166212968Y-189371842D02*
X166284397Y-189514700D01*
X166284397Y-189514700D02*
X166427254Y-189586128D01*
X166427254Y-189586128D02*
X166570111Y-189586128D01*
X167070111Y-189443271D02*
X167141540Y-189514700D01*
X167141540Y-189514700D02*
X167070111Y-189586128D01*
X167070111Y-189586128D02*
X166998683Y-189514700D01*
X166998683Y-189514700D02*
X167070111Y-189443271D01*
X167070111Y-189443271D02*
X167070111Y-189586128D01*
X167070111Y-188657557D02*
X167141540Y-188728985D01*
X167141540Y-188728985D02*
X167070111Y-188800414D01*
X167070111Y-188800414D02*
X166998683Y-188728985D01*
X166998683Y-188728985D02*
X167070111Y-188657557D01*
X167070111Y-188657557D02*
X167070111Y-188800414D01*
D10*
D12*
X160954510Y-186578328D02*
X160954510Y-185078328D01*
X160954510Y-185078328D02*
X161525939Y-185078328D01*
X161525939Y-185078328D02*
X161668796Y-185149757D01*
X161668796Y-185149757D02*
X161740225Y-185221185D01*
X161740225Y-185221185D02*
X161811653Y-185364042D01*
X161811653Y-185364042D02*
X161811653Y-185578328D01*
X161811653Y-185578328D02*
X161740225Y-185721185D01*
X161740225Y-185721185D02*
X161668796Y-185792614D01*
X161668796Y-185792614D02*
X161525939Y-185864042D01*
X161525939Y-185864042D02*
X160954510Y-185864042D01*
X163097368Y-186578328D02*
X163097368Y-185792614D01*
X163097368Y-185792614D02*
X163025939Y-185649757D01*
X163025939Y-185649757D02*
X162883082Y-185578328D01*
X162883082Y-185578328D02*
X162597368Y-185578328D01*
X162597368Y-185578328D02*
X162454510Y-185649757D01*
X163097368Y-186506900D02*
X162954510Y-186578328D01*
X162954510Y-186578328D02*
X162597368Y-186578328D01*
X162597368Y-186578328D02*
X162454510Y-186506900D01*
X162454510Y-186506900D02*
X162383082Y-186364042D01*
X162383082Y-186364042D02*
X162383082Y-186221185D01*
X162383082Y-186221185D02*
X162454510Y-186078328D01*
X162454510Y-186078328D02*
X162597368Y-186006900D01*
X162597368Y-186006900D02*
X162954510Y-186006900D01*
X162954510Y-186006900D02*
X163097368Y-185935471D01*
X163811653Y-185578328D02*
X163811653Y-186578328D01*
X163811653Y-185721185D02*
X163883082Y-185649757D01*
X163883082Y-185649757D02*
X164025939Y-185578328D01*
X164025939Y-185578328D02*
X164240225Y-185578328D01*
X164240225Y-185578328D02*
X164383082Y-185649757D01*
X164383082Y-185649757D02*
X164454511Y-185792614D01*
X164454511Y-185792614D02*
X164454511Y-186578328D01*
X164954511Y-185578328D02*
X165525939Y-185578328D01*
X165168796Y-185078328D02*
X165168796Y-186364042D01*
X165168796Y-186364042D02*
X165240225Y-186506900D01*
X165240225Y-186506900D02*
X165383082Y-186578328D01*
X165383082Y-186578328D02*
X165525939Y-186578328D01*
X165954511Y-186506900D02*
X166097368Y-186578328D01*
X166097368Y-186578328D02*
X166383082Y-186578328D01*
X166383082Y-186578328D02*
X166525939Y-186506900D01*
X166525939Y-186506900D02*
X166597368Y-186364042D01*
X166597368Y-186364042D02*
X166597368Y-186292614D01*
X166597368Y-186292614D02*
X166525939Y-186149757D01*
X166525939Y-186149757D02*
X166383082Y-186078328D01*
X166383082Y-186078328D02*
X166168797Y-186078328D01*
X166168797Y-186078328D02*
X166025939Y-186006900D01*
X166025939Y-186006900D02*
X165954511Y-185864042D01*
X165954511Y-185864042D02*
X165954511Y-185792614D01*
X165954511Y-185792614D02*
X166025939Y-185649757D01*
X166025939Y-185649757D02*
X166168797Y-185578328D01*
X166168797Y-185578328D02*
X166383082Y-185578328D01*
X166383082Y-185578328D02*
X166525939Y-185649757D01*
X168168797Y-185578328D02*
X168740225Y-185578328D01*
X168383082Y-186578328D02*
X168383082Y-185292614D01*
X168383082Y-185292614D02*
X168454511Y-185149757D01*
X168454511Y-185149757D02*
X168597368Y-185078328D01*
X168597368Y-185078328D02*
X168740225Y-185078328D01*
X169454511Y-186578328D02*
X169311654Y-186506900D01*
X169311654Y-186506900D02*
X169240225Y-186435471D01*
X169240225Y-186435471D02*
X169168797Y-186292614D01*
X169168797Y-186292614D02*
X169168797Y-185864042D01*
X169168797Y-185864042D02*
X169240225Y-185721185D01*
X169240225Y-185721185D02*
X169311654Y-185649757D01*
X169311654Y-185649757D02*
X169454511Y-185578328D01*
X169454511Y-185578328D02*
X169668797Y-185578328D01*
X169668797Y-185578328D02*
X169811654Y-185649757D01*
X169811654Y-185649757D02*
X169883083Y-185721185D01*
X169883083Y-185721185D02*
X169954511Y-185864042D01*
X169954511Y-185864042D02*
X169954511Y-186292614D01*
X169954511Y-186292614D02*
X169883083Y-186435471D01*
X169883083Y-186435471D02*
X169811654Y-186506900D01*
X169811654Y-186506900D02*
X169668797Y-186578328D01*
X169668797Y-186578328D02*
X169454511Y-186578328D01*
X170597368Y-186578328D02*
X170597368Y-185578328D01*
X170597368Y-185864042D02*
X170668797Y-185721185D01*
X170668797Y-185721185D02*
X170740226Y-185649757D01*
X170740226Y-185649757D02*
X170883083Y-185578328D01*
X170883083Y-185578328D02*
X171025940Y-185578328D01*
X173168796Y-185792614D02*
X173383082Y-185864042D01*
X173383082Y-185864042D02*
X173454511Y-185935471D01*
X173454511Y-185935471D02*
X173525939Y-186078328D01*
X173525939Y-186078328D02*
X173525939Y-186292614D01*
X173525939Y-186292614D02*
X173454511Y-186435471D01*
X173454511Y-186435471D02*
X173383082Y-186506900D01*
X173383082Y-186506900D02*
X173240225Y-186578328D01*
X173240225Y-186578328D02*
X172668796Y-186578328D01*
X172668796Y-186578328D02*
X172668796Y-185078328D01*
X172668796Y-185078328D02*
X173168796Y-185078328D01*
X173168796Y-185078328D02*
X173311654Y-185149757D01*
X173311654Y-185149757D02*
X173383082Y-185221185D01*
X173383082Y-185221185D02*
X173454511Y-185364042D01*
X173454511Y-185364042D02*
X173454511Y-185506900D01*
X173454511Y-185506900D02*
X173383082Y-185649757D01*
X173383082Y-185649757D02*
X173311654Y-185721185D01*
X173311654Y-185721185D02*
X173168796Y-185792614D01*
X173168796Y-185792614D02*
X172668796Y-185792614D01*
X174168796Y-186578328D02*
X174168796Y-185578328D01*
X174168796Y-185078328D02*
X174097368Y-185149757D01*
X174097368Y-185149757D02*
X174168796Y-185221185D01*
X174168796Y-185221185D02*
X174240225Y-185149757D01*
X174240225Y-185149757D02*
X174168796Y-185078328D01*
X174168796Y-185078328D02*
X174168796Y-185221185D01*
X174883082Y-186578328D02*
X174883082Y-185578328D01*
X174883082Y-185864042D02*
X174954511Y-185721185D01*
X174954511Y-185721185D02*
X175025940Y-185649757D01*
X175025940Y-185649757D02*
X175168797Y-185578328D01*
X175168797Y-185578328D02*
X175311654Y-185578328D01*
X176454511Y-186578328D02*
X176454511Y-185078328D01*
X176454511Y-186506900D02*
X176311653Y-186578328D01*
X176311653Y-186578328D02*
X176025939Y-186578328D01*
X176025939Y-186578328D02*
X175883082Y-186506900D01*
X175883082Y-186506900D02*
X175811653Y-186435471D01*
X175811653Y-186435471D02*
X175740225Y-186292614D01*
X175740225Y-186292614D02*
X175740225Y-185864042D01*
X175740225Y-185864042D02*
X175811653Y-185721185D01*
X175811653Y-185721185D02*
X175883082Y-185649757D01*
X175883082Y-185649757D02*
X176025939Y-185578328D01*
X176025939Y-185578328D02*
X176311653Y-185578328D01*
X176311653Y-185578328D02*
X176454511Y-185649757D01*
X177097368Y-186506900D02*
X177240225Y-186578328D01*
X177240225Y-186578328D02*
X177525939Y-186578328D01*
X177525939Y-186578328D02*
X177668796Y-186506900D01*
X177668796Y-186506900D02*
X177740225Y-186364042D01*
X177740225Y-186364042D02*
X177740225Y-186292614D01*
X177740225Y-186292614D02*
X177668796Y-186149757D01*
X177668796Y-186149757D02*
X177525939Y-186078328D01*
X177525939Y-186078328D02*
X177311654Y-186078328D01*
X177311654Y-186078328D02*
X177168796Y-186006900D01*
X177168796Y-186006900D02*
X177097368Y-185864042D01*
X177097368Y-185864042D02*
X177097368Y-185792614D01*
X177097368Y-185792614D02*
X177168796Y-185649757D01*
X177168796Y-185649757D02*
X177311654Y-185578328D01*
X177311654Y-185578328D02*
X177525939Y-185578328D01*
X177525939Y-185578328D02*
X177668796Y-185649757D01*
D10*
D11*
X161284398Y-182086128D02*
X161284398Y-183157557D01*
X161284398Y-183157557D02*
X161212969Y-183371842D01*
X161212969Y-183371842D02*
X161070112Y-183514700D01*
X161070112Y-183514700D02*
X160855826Y-183586128D01*
X160855826Y-183586128D02*
X160712969Y-183586128D01*
X162212969Y-183586128D02*
X162070112Y-183514700D01*
X162070112Y-183514700D02*
X161998683Y-183443271D01*
X161998683Y-183443271D02*
X161927255Y-183300414D01*
X161927255Y-183300414D02*
X161927255Y-182871842D01*
X161927255Y-182871842D02*
X161998683Y-182728985D01*
X161998683Y-182728985D02*
X162070112Y-182657557D01*
X162070112Y-182657557D02*
X162212969Y-182586128D01*
X162212969Y-182586128D02*
X162427255Y-182586128D01*
X162427255Y-182586128D02*
X162570112Y-182657557D01*
X162570112Y-182657557D02*
X162641541Y-182728985D01*
X162641541Y-182728985D02*
X162712969Y-182871842D01*
X162712969Y-182871842D02*
X162712969Y-183300414D01*
X162712969Y-183300414D02*
X162641541Y-183443271D01*
X162641541Y-183443271D02*
X162570112Y-183514700D01*
X162570112Y-183514700D02*
X162427255Y-183586128D01*
X162427255Y-183586128D02*
X162212969Y-183586128D01*
X163355826Y-183586128D02*
X163355826Y-182086128D01*
X163998684Y-183586128D02*
X163998684Y-182800414D01*
X163998684Y-182800414D02*
X163927255Y-182657557D01*
X163927255Y-182657557D02*
X163784398Y-182586128D01*
X163784398Y-182586128D02*
X163570112Y-182586128D01*
X163570112Y-182586128D02*
X163427255Y-182657557D01*
X163427255Y-182657557D02*
X163355826Y-182728985D01*
X164712969Y-182586128D02*
X164712969Y-183586128D01*
X164712969Y-182728985D02*
X164784398Y-182657557D01*
X164784398Y-182657557D02*
X164927255Y-182586128D01*
X164927255Y-182586128D02*
X165141541Y-182586128D01*
X165141541Y-182586128D02*
X165284398Y-182657557D01*
X165284398Y-182657557D02*
X165355827Y-182800414D01*
X165355827Y-182800414D02*
X165355827Y-183586128D01*
X167212969Y-183586128D02*
X167212969Y-182086128D01*
X167212969Y-182086128D02*
X167712969Y-183157557D01*
X167712969Y-183157557D02*
X168212969Y-182086128D01*
X168212969Y-182086128D02*
X168212969Y-183586128D01*
X169570113Y-183514700D02*
X169427255Y-183586128D01*
X169427255Y-183586128D02*
X169141541Y-183586128D01*
X169141541Y-183586128D02*
X168998684Y-183514700D01*
X168998684Y-183514700D02*
X168927255Y-183443271D01*
X168927255Y-183443271D02*
X168855827Y-183300414D01*
X168855827Y-183300414D02*
X168855827Y-182871842D01*
X168855827Y-182871842D02*
X168927255Y-182728985D01*
X168927255Y-182728985D02*
X168998684Y-182657557D01*
X168998684Y-182657557D02*
X169141541Y-182586128D01*
X169141541Y-182586128D02*
X169427255Y-182586128D01*
X169427255Y-182586128D02*
X169570113Y-182657557D01*
X170212969Y-183586128D02*
X170212969Y-182086128D01*
X170212969Y-182086128D02*
X171070112Y-183586128D01*
X171070112Y-183586128D02*
X171070112Y-182086128D01*
X172355827Y-183514700D02*
X172212970Y-183586128D01*
X172212970Y-183586128D02*
X171927256Y-183586128D01*
X171927256Y-183586128D02*
X171784398Y-183514700D01*
X171784398Y-183514700D02*
X171712970Y-183371842D01*
X171712970Y-183371842D02*
X171712970Y-182800414D01*
X171712970Y-182800414D02*
X171784398Y-182657557D01*
X171784398Y-182657557D02*
X171927256Y-182586128D01*
X171927256Y-182586128D02*
X172212970Y-182586128D01*
X172212970Y-182586128D02*
X172355827Y-182657557D01*
X172355827Y-182657557D02*
X172427256Y-182800414D01*
X172427256Y-182800414D02*
X172427256Y-182943271D01*
X172427256Y-182943271D02*
X171712970Y-183086128D01*
X173284398Y-183586128D02*
X173141541Y-183514700D01*
X173141541Y-183514700D02*
X173070112Y-183371842D01*
X173070112Y-183371842D02*
X173070112Y-182086128D01*
X174070112Y-183586128D02*
X173927255Y-183514700D01*
X173927255Y-183514700D02*
X173855826Y-183371842D01*
X173855826Y-183371842D02*
X173855826Y-182086128D01*
X174498683Y-182586128D02*
X174855826Y-183586128D01*
X175212969Y-182586128D02*
X174855826Y-183586128D01*
X174855826Y-183586128D02*
X174712969Y-183943271D01*
X174712969Y-183943271D02*
X174641540Y-184014700D01*
X174641540Y-184014700D02*
X174498683Y-184086128D01*
X176927254Y-183014700D02*
X178070112Y-183014700D01*
X179927254Y-182586128D02*
X179927254Y-183871842D01*
X179927254Y-183871842D02*
X179855826Y-184014700D01*
X179855826Y-184014700D02*
X179712969Y-184086128D01*
X179712969Y-184086128D02*
X179641540Y-184086128D01*
X179927254Y-182086128D02*
X179855826Y-182157557D01*
X179855826Y-182157557D02*
X179927254Y-182228985D01*
X179927254Y-182228985D02*
X179998683Y-182157557D01*
X179998683Y-182157557D02*
X179927254Y-182086128D01*
X179927254Y-182086128D02*
X179927254Y-182228985D01*
X180641540Y-183586128D02*
X180641540Y-182086128D01*
X180784398Y-183014700D02*
X181212969Y-183586128D01*
X181212969Y-182586128D02*
X180641540Y-183157557D01*
X182498684Y-183586128D02*
X182498684Y-182800414D01*
X182498684Y-182800414D02*
X182427255Y-182657557D01*
X182427255Y-182657557D02*
X182284398Y-182586128D01*
X182284398Y-182586128D02*
X181998684Y-182586128D01*
X181998684Y-182586128D02*
X181855826Y-182657557D01*
X182498684Y-183514700D02*
X182355826Y-183586128D01*
X182355826Y-183586128D02*
X181998684Y-183586128D01*
X181998684Y-183586128D02*
X181855826Y-183514700D01*
X181855826Y-183514700D02*
X181784398Y-183371842D01*
X181784398Y-183371842D02*
X181784398Y-183228985D01*
X181784398Y-183228985D02*
X181855826Y-183086128D01*
X181855826Y-183086128D02*
X181998684Y-183014700D01*
X181998684Y-183014700D02*
X182355826Y-183014700D01*
X182355826Y-183014700D02*
X182498684Y-182943271D01*
X183212969Y-183586128D02*
X183212969Y-182586128D01*
X183212969Y-182086128D02*
X183141541Y-182157557D01*
X183141541Y-182157557D02*
X183212969Y-182228985D01*
X183212969Y-182228985D02*
X183284398Y-182157557D01*
X183284398Y-182157557D02*
X183212969Y-182086128D01*
X183212969Y-182086128D02*
X183212969Y-182228985D01*
X184141541Y-183586128D02*
X183998684Y-183514700D01*
X183998684Y-183514700D02*
X183927255Y-183371842D01*
X183927255Y-183371842D02*
X183927255Y-182086128D01*
X184712969Y-183586128D02*
X184712969Y-182586128D01*
X184712969Y-182086128D02*
X184641541Y-182157557D01*
X184641541Y-182157557D02*
X184712969Y-182228985D01*
X184712969Y-182228985D02*
X184784398Y-182157557D01*
X184784398Y-182157557D02*
X184712969Y-182086128D01*
X184712969Y-182086128D02*
X184712969Y-182228985D01*
X185427255Y-183586128D02*
X185427255Y-182586128D01*
X185427255Y-182728985D02*
X185498684Y-182657557D01*
X185498684Y-182657557D02*
X185641541Y-182586128D01*
X185641541Y-182586128D02*
X185855827Y-182586128D01*
X185855827Y-182586128D02*
X185998684Y-182657557D01*
X185998684Y-182657557D02*
X186070113Y-182800414D01*
X186070113Y-182800414D02*
X186070113Y-183586128D01*
X186070113Y-182800414D02*
X186141541Y-182657557D01*
X186141541Y-182657557D02*
X186284398Y-182586128D01*
X186284398Y-182586128D02*
X186498684Y-182586128D01*
X186498684Y-182586128D02*
X186641541Y-182657557D01*
X186641541Y-182657557D02*
X186712970Y-182800414D01*
X186712970Y-182800414D02*
X186712970Y-183586128D01*
X188070113Y-183514700D02*
X187927255Y-183586128D01*
X187927255Y-183586128D02*
X187641541Y-183586128D01*
X187641541Y-183586128D02*
X187498684Y-183514700D01*
X187498684Y-183514700D02*
X187427255Y-183443271D01*
X187427255Y-183443271D02*
X187355827Y-183300414D01*
X187355827Y-183300414D02*
X187355827Y-182871842D01*
X187355827Y-182871842D02*
X187427255Y-182728985D01*
X187427255Y-182728985D02*
X187498684Y-182657557D01*
X187498684Y-182657557D02*
X187641541Y-182586128D01*
X187641541Y-182586128D02*
X187927255Y-182586128D01*
X187927255Y-182586128D02*
X188070113Y-182657557D01*
X188712969Y-182586128D02*
X188712969Y-183586128D01*
X188712969Y-182728985D02*
X188784398Y-182657557D01*
X188784398Y-182657557D02*
X188927255Y-182586128D01*
X188927255Y-182586128D02*
X189141541Y-182586128D01*
X189141541Y-182586128D02*
X189284398Y-182657557D01*
X189284398Y-182657557D02*
X189355827Y-182800414D01*
X189355827Y-182800414D02*
X189355827Y-183586128D01*
X190641541Y-183514700D02*
X190498684Y-183586128D01*
X190498684Y-183586128D02*
X190212970Y-183586128D01*
X190212970Y-183586128D02*
X190070112Y-183514700D01*
X190070112Y-183514700D02*
X189998684Y-183371842D01*
X189998684Y-183371842D02*
X189998684Y-182800414D01*
X189998684Y-182800414D02*
X190070112Y-182657557D01*
X190070112Y-182657557D02*
X190212970Y-182586128D01*
X190212970Y-182586128D02*
X190498684Y-182586128D01*
X190498684Y-182586128D02*
X190641541Y-182657557D01*
X190641541Y-182657557D02*
X190712970Y-182800414D01*
X190712970Y-182800414D02*
X190712970Y-182943271D01*
X190712970Y-182943271D02*
X189998684Y-183086128D01*
X191570112Y-183586128D02*
X191427255Y-183514700D01*
X191427255Y-183514700D02*
X191355826Y-183371842D01*
X191355826Y-183371842D02*
X191355826Y-182086128D01*
X192355826Y-183586128D02*
X192212969Y-183514700D01*
X192212969Y-183514700D02*
X192141540Y-183371842D01*
X192141540Y-183371842D02*
X192141540Y-182086128D01*
X192784397Y-182586128D02*
X193141540Y-183586128D01*
X193498683Y-182586128D02*
X193141540Y-183586128D01*
X193141540Y-183586128D02*
X192998683Y-183943271D01*
X192998683Y-183943271D02*
X192927254Y-184014700D01*
X192927254Y-184014700D02*
X192784397Y-184086128D01*
X194998683Y-182871842D02*
X194927254Y-182800414D01*
X194927254Y-182800414D02*
X194784397Y-182728985D01*
X194784397Y-182728985D02*
X194641540Y-182728985D01*
X194641540Y-182728985D02*
X194498683Y-182800414D01*
X194498683Y-182800414D02*
X194427254Y-182871842D01*
X194427254Y-182871842D02*
X194355826Y-183014700D01*
X194355826Y-183014700D02*
X194355826Y-183157557D01*
X194355826Y-183157557D02*
X194427254Y-183300414D01*
X194427254Y-183300414D02*
X194498683Y-183371842D01*
X194498683Y-183371842D02*
X194641540Y-183443271D01*
X194641540Y-183443271D02*
X194784397Y-183443271D01*
X194784397Y-183443271D02*
X194927254Y-183371842D01*
X194927254Y-183371842D02*
X194998683Y-183300414D01*
X194998683Y-182728985D02*
X194998683Y-183300414D01*
X194998683Y-183300414D02*
X195070111Y-183371842D01*
X195070111Y-183371842D02*
X195141540Y-183371842D01*
X195141540Y-183371842D02*
X195284397Y-183300414D01*
X195284397Y-183300414D02*
X195355826Y-183157557D01*
X195355826Y-183157557D02*
X195355826Y-182800414D01*
X195355826Y-182800414D02*
X195212969Y-182586128D01*
X195212969Y-182586128D02*
X194998683Y-182443271D01*
X194998683Y-182443271D02*
X194712969Y-182371842D01*
X194712969Y-182371842D02*
X194427254Y-182443271D01*
X194427254Y-182443271D02*
X194212969Y-182586128D01*
X194212969Y-182586128D02*
X194070111Y-182800414D01*
X194070111Y-182800414D02*
X193998683Y-183086128D01*
X193998683Y-183086128D02*
X194070111Y-183371842D01*
X194070111Y-183371842D02*
X194212969Y-183586128D01*
X194212969Y-183586128D02*
X194427254Y-183728985D01*
X194427254Y-183728985D02*
X194712969Y-183800414D01*
X194712969Y-183800414D02*
X194998683Y-183728985D01*
X194998683Y-183728985D02*
X195212969Y-183586128D01*
X196641540Y-182586128D02*
X196641540Y-183800414D01*
X196641540Y-183800414D02*
X196570111Y-183943271D01*
X196570111Y-183943271D02*
X196498682Y-184014700D01*
X196498682Y-184014700D02*
X196355825Y-184086128D01*
X196355825Y-184086128D02*
X196141540Y-184086128D01*
X196141540Y-184086128D02*
X195998682Y-184014700D01*
X196641540Y-183514700D02*
X196498682Y-183586128D01*
X196498682Y-183586128D02*
X196212968Y-183586128D01*
X196212968Y-183586128D02*
X196070111Y-183514700D01*
X196070111Y-183514700D02*
X195998682Y-183443271D01*
X195998682Y-183443271D02*
X195927254Y-183300414D01*
X195927254Y-183300414D02*
X195927254Y-182871842D01*
X195927254Y-182871842D02*
X195998682Y-182728985D01*
X195998682Y-182728985D02*
X196070111Y-182657557D01*
X196070111Y-182657557D02*
X196212968Y-182586128D01*
X196212968Y-182586128D02*
X196498682Y-182586128D01*
X196498682Y-182586128D02*
X196641540Y-182657557D01*
X197355825Y-183586128D02*
X197355825Y-182586128D01*
X197355825Y-182728985D02*
X197427254Y-182657557D01*
X197427254Y-182657557D02*
X197570111Y-182586128D01*
X197570111Y-182586128D02*
X197784397Y-182586128D01*
X197784397Y-182586128D02*
X197927254Y-182657557D01*
X197927254Y-182657557D02*
X197998683Y-182800414D01*
X197998683Y-182800414D02*
X197998683Y-183586128D01*
X197998683Y-182800414D02*
X198070111Y-182657557D01*
X198070111Y-182657557D02*
X198212968Y-182586128D01*
X198212968Y-182586128D02*
X198427254Y-182586128D01*
X198427254Y-182586128D02*
X198570111Y-182657557D01*
X198570111Y-182657557D02*
X198641540Y-182800414D01*
X198641540Y-182800414D02*
X198641540Y-183586128D01*
X199998683Y-183586128D02*
X199998683Y-182800414D01*
X199998683Y-182800414D02*
X199927254Y-182657557D01*
X199927254Y-182657557D02*
X199784397Y-182586128D01*
X199784397Y-182586128D02*
X199498683Y-182586128D01*
X199498683Y-182586128D02*
X199355825Y-182657557D01*
X199998683Y-183514700D02*
X199855825Y-183586128D01*
X199855825Y-183586128D02*
X199498683Y-183586128D01*
X199498683Y-183586128D02*
X199355825Y-183514700D01*
X199355825Y-183514700D02*
X199284397Y-183371842D01*
X199284397Y-183371842D02*
X199284397Y-183228985D01*
X199284397Y-183228985D02*
X199355825Y-183086128D01*
X199355825Y-183086128D02*
X199498683Y-183014700D01*
X199498683Y-183014700D02*
X199855825Y-183014700D01*
X199855825Y-183014700D02*
X199998683Y-182943271D01*
X200712968Y-183586128D02*
X200712968Y-182586128D01*
X200712968Y-182086128D02*
X200641540Y-182157557D01*
X200641540Y-182157557D02*
X200712968Y-182228985D01*
X200712968Y-182228985D02*
X200784397Y-182157557D01*
X200784397Y-182157557D02*
X200712968Y-182086128D01*
X200712968Y-182086128D02*
X200712968Y-182228985D01*
X201641540Y-183586128D02*
X201498683Y-183514700D01*
X201498683Y-183514700D02*
X201427254Y-183371842D01*
X201427254Y-183371842D02*
X201427254Y-182086128D01*
X202212968Y-183443271D02*
X202284397Y-183514700D01*
X202284397Y-183514700D02*
X202212968Y-183586128D01*
X202212968Y-183586128D02*
X202141540Y-183514700D01*
X202141540Y-183514700D02*
X202212968Y-183443271D01*
X202212968Y-183443271D02*
X202212968Y-183586128D01*
X203570112Y-183514700D02*
X203427254Y-183586128D01*
X203427254Y-183586128D02*
X203141540Y-183586128D01*
X203141540Y-183586128D02*
X202998683Y-183514700D01*
X202998683Y-183514700D02*
X202927254Y-183443271D01*
X202927254Y-183443271D02*
X202855826Y-183300414D01*
X202855826Y-183300414D02*
X202855826Y-182871842D01*
X202855826Y-182871842D02*
X202927254Y-182728985D01*
X202927254Y-182728985D02*
X202998683Y-182657557D01*
X202998683Y-182657557D02*
X203141540Y-182586128D01*
X203141540Y-182586128D02*
X203427254Y-182586128D01*
X203427254Y-182586128D02*
X203570112Y-182657557D01*
X204427254Y-183586128D02*
X204284397Y-183514700D01*
X204284397Y-183514700D02*
X204212968Y-183443271D01*
X204212968Y-183443271D02*
X204141540Y-183300414D01*
X204141540Y-183300414D02*
X204141540Y-182871842D01*
X204141540Y-182871842D02*
X204212968Y-182728985D01*
X204212968Y-182728985D02*
X204284397Y-182657557D01*
X204284397Y-182657557D02*
X204427254Y-182586128D01*
X204427254Y-182586128D02*
X204641540Y-182586128D01*
X204641540Y-182586128D02*
X204784397Y-182657557D01*
X204784397Y-182657557D02*
X204855826Y-182728985D01*
X204855826Y-182728985D02*
X204927254Y-182871842D01*
X204927254Y-182871842D02*
X204927254Y-183300414D01*
X204927254Y-183300414D02*
X204855826Y-183443271D01*
X204855826Y-183443271D02*
X204784397Y-183514700D01*
X204784397Y-183514700D02*
X204641540Y-183586128D01*
X204641540Y-183586128D02*
X204427254Y-183586128D01*
X205570111Y-183586128D02*
X205570111Y-182586128D01*
X205570111Y-182728985D02*
X205641540Y-182657557D01*
X205641540Y-182657557D02*
X205784397Y-182586128D01*
X205784397Y-182586128D02*
X205998683Y-182586128D01*
X205998683Y-182586128D02*
X206141540Y-182657557D01*
X206141540Y-182657557D02*
X206212969Y-182800414D01*
X206212969Y-182800414D02*
X206212969Y-183586128D01*
X206212969Y-182800414D02*
X206284397Y-182657557D01*
X206284397Y-182657557D02*
X206427254Y-182586128D01*
X206427254Y-182586128D02*
X206641540Y-182586128D01*
X206641540Y-182586128D02*
X206784397Y-182657557D01*
X206784397Y-182657557D02*
X206855826Y-182800414D01*
X206855826Y-182800414D02*
X206855826Y-183586128D01*
D10*
D11*
D10*
D11*
D10*
D11*
D10*
D11*
X179400000Y-197400000D02*
X179400000Y-200400000D01*
D10*
D11*
X243400000Y-197400000D02*
X243400000Y-203900000D01*
M02*
