<?xml version="1.0" standalone="no"?>
 <!DOCTYPE svg PUBLIC "-//W3C//DTD SVG 1.1//EN" 
 "http://www.w3.org/Graphics/SVG/1.1/DTD/svg11.dtd"> 
<svg
  xmlns:svg="http://www.w3.org/2000/svg"
  xmlns="http://www.w3.org/2000/svg"
  xmlns:xlink="http://www.w3.org/1999/xlink"
  version="1.1"
  width="145.3388mm" height="103.4796mm" viewBox="0.0000 0.0000 145.3388 103.4796">
<title>SVG Image created as bigass_7_segment-brd.svg date 2023/06/29 12:27:15 </title>
  <desc>Image generated by PCBNEW </desc>
<g style="fill:#000000; fill-opacity:1.0000;stroke:#000000; stroke-opacity:1.0000;
stroke-linecap:round; stroke-linejoin:round;"
 transform="translate(0 0) scale(1 1)">
</g>
<g style="fill:#000000; fill-opacity:0.0; 
stroke:#000000; stroke-width:0.0000; stroke-opacity:1; 
stroke-linecap:round; stroke-linejoin:round;">
<g >
</g>
<g >
</g>
<g >
</g>
<g >
</g>
<g >
</g>
<g >
</g>
<g >
</g>
<g >
</g>
<g >
</g>
<g >
</g>
<g >
</g>
<g >
</g>
<g >
</g>
<g >
</g>
<g >
</g>
<g >
</g>
<g >
</g>
<g >
</g>
<g >
</g>
<g >
</g>
<g >
</g>
<g >
</g>
<g >
</g>
<g >
</g>
<g >
</g>
<g >
</g>
<g >
</g>
<g >
</g>
<g >
</g>
<g >
</g>
<g >
</g>
<g >
</g>
<g >
</g>
<g >
</g>
<g >
</g>
<g >
</g>
<g >
</g>
<g >
</g>
<g >
</g>
<g >
</g>
</g>
<g style="fill:#000000; fill-opacity:0.0; 
stroke:#000000; stroke-width:0.0000; stroke-opacity:1; 
stroke-linecap:round; stroke-linejoin:round;">
</g>
<g style="fill:#E8B2A7; fill-opacity:0.0; 
stroke:#E8B2A7; stroke-width:0.0000; stroke-opacity:1; 
stroke-linecap:round; stroke-linejoin:round;">
</g>
<g style="fill:#E8B2A7; fill-opacity:0.0; 
stroke:#E8B2A7; stroke-width:0.1200; stroke-opacity:1; 
stroke-linecap:round; stroke-linejoin:round;">
<path d="M114.3251 46.3375
L110.8251 46.3375
" />
<path d="M110.8251 46.3375
L110.8251 49.3375
" />
<path d="M110.8251 49.3375
L114.3251 49.3375
" />
<path d="M114.3251 49.3375
L114.3251 46.3375
" />
</g>
<g style="fill:#E8B2A7; fill-opacity:1.0000; 
stroke:#E8B2A7; stroke-width:0.0212; stroke-opacity:1; 
stroke-linecap:round; stroke-linejoin:round;">
<path style="fill:#E8B2A7; fill-opacity:1.0000; 
stroke:#E8B2A7; stroke-width:0.0000; stroke-opacity:1; 
stroke-linecap:round; stroke-linejoin:round;fill-rule:evenodd;"
d="M 114.3251,46.3375
110.8251,46.3375
110.8251,49.3375
114.3251,49.3375
" /> 
</g>
<g style="fill:#E8B2A7; fill-opacity:1.0000; 
stroke:#E8B2A7; stroke-width:0.1500; stroke-opacity:1; 
stroke-linecap:round; stroke-linejoin:round;">
</g>
<g style="fill:#E8B2A7; fill-opacity:0.0; 
stroke:#E8B2A7; stroke-width:0.1500; stroke-opacity:1; 
stroke-linecap:round; stroke-linejoin:round;">
<g transform="rotate(-90.000000 111.8251 38.3375)">
<text x="111.8251" y="38.3375"
transform="scale(-1 1) translate(-223.650222 0)"
textLength="7.3940" font-size="1.3333" lengthAdjust="spacingAndGlyphs"
text-anchor="start" opacity="0">PCBA REV</text>
</g>
<g class="stroked-text"><desc>PCBA REV</desc>
<path d="M112.0427 38.5756
L113.0427 38.5756
" />
<path d="M113.0427 38.5756
L113.0427 38.9565
" />
<path d="M113.0427 38.9565
L112.9951 39.0518
" />
<path d="M112.9951 39.0518
L112.9475 39.0994
" />
<path d="M112.9475 39.0994
L112.8523 39.1470
" />
<path d="M112.8523 39.1470
L112.7094 39.1470
" />
<path d="M112.7094 39.1470
L112.6142 39.0994
" />
<path d="M112.6142 39.0994
L112.5665 39.0518
" />
<path d="M112.5665 39.0518
L112.5189 38.9565
" />
<path d="M112.5189 38.9565
L112.5189 38.5756
" />
<path d="M112.1380 40.1470
L112.0904 40.0994
" />
<path d="M112.0904 40.0994
L112.0427 39.9565
" />
<path d="M112.0427 39.9565
L112.0427 39.8613
" />
<path d="M112.0427 39.8613
L112.0904 39.7185
" />
<path d="M112.0904 39.7185
L112.1856 39.6232
" />
<path d="M112.1856 39.6232
L112.2808 39.5756
" />
<path d="M112.2808 39.5756
L112.4713 39.5280
" />
<path d="M112.4713 39.5280
L112.6142 39.5280
" />
<path d="M112.6142 39.5280
L112.8046 39.5756
" />
<path d="M112.8046 39.5756
L112.8999 39.6232
" />
<path d="M112.8999 39.6232
L112.9951 39.7185
" />
<path d="M112.9951 39.7185
L113.0427 39.8613
" />
<path d="M113.0427 39.8613
L113.0427 39.9565
" />
<path d="M113.0427 39.9565
L112.9951 40.0994
" />
<path d="M112.9951 40.0994
L112.9475 40.1470
" />
<path d="M112.5665 40.9089
L112.5189 41.0518
" />
<path d="M112.5189 41.0518
L112.4713 41.0994
" />
<path d="M112.4713 41.0994
L112.3761 41.1470
" />
<path d="M112.3761 41.1470
L112.2332 41.1470
" />
<path d="M112.2332 41.1470
L112.1380 41.0994
" />
<path d="M112.1380 41.0994
L112.0904 41.0518
" />
<path d="M112.0904 41.0518
L112.0427 40.9565
" />
<path d="M112.0427 40.9565
L112.0427 40.5756
" />
<path d="M112.0427 40.5756
L113.0427 40.5756
" />
<path d="M113.0427 40.5756
L113.0427 40.9089
" />
<path d="M113.0427 40.9089
L112.9951 41.0042
" />
<path d="M112.9951 41.0042
L112.9475 41.0518
" />
<path d="M112.9475 41.0518
L112.8523 41.0994
" />
<path d="M112.8523 41.0994
L112.7570 41.0994
" />
<path d="M112.7570 41.0994
L112.6618 41.0518
" />
<path d="M112.6618 41.0518
L112.6142 41.0042
" />
<path d="M112.6142 41.0042
L112.5665 40.9089
" />
<path d="M112.5665 40.9089
L112.5665 40.5756
" />
<path d="M112.3284 41.5280
L112.3284 42.0042
" />
<path d="M112.0427 41.4327
L113.0427 41.7661
" />
<path d="M113.0427 41.7661
L112.0427 42.0994
" />
<path d="M112.0427 43.6042
L112.5189 43.2708
" />
<path d="M112.0427 43.0327
L113.0427 43.0327
" />
<path d="M113.0427 43.0327
L113.0427 43.4137
" />
<path d="M113.0427 43.4137
L112.9951 43.5089
" />
<path d="M112.9951 43.5089
L112.9475 43.5565
" />
<path d="M112.9475 43.5565
L112.8523 43.6042
" />
<path d="M112.8523 43.6042
L112.7094 43.6042
" />
<path d="M112.7094 43.6042
L112.6142 43.5565
" />
<path d="M112.6142 43.5565
L112.5665 43.5089
" />
<path d="M112.5665 43.5089
L112.5189 43.4137
" />
<path d="M112.5189 43.4137
L112.5189 43.0327
" />
<path d="M112.5665 44.0327
L112.5665 44.3661
" />
<path d="M112.0427 44.5089
L112.0427 44.0327
" />
<path d="M112.0427 44.0327
L113.0427 44.0327
" />
<path d="M113.0427 44.0327
L113.0427 44.5089
" />
<path d="M113.0427 44.7946
L112.0427 45.1280
" />
<path d="M112.0427 45.1280
L113.0427 45.4613
" />
</g></g>
<g style="fill:#E8B2A7; fill-opacity:1.0000; 
stroke:#E8B2A7; stroke-width:0.1000; stroke-opacity:1; 
stroke-linecap:round; stroke-linejoin:round;">
<path style="fill:#E8B2A7; fill-opacity:1.0000; 
stroke:#E8B2A7; stroke-width:0.1000; stroke-opacity:1; 
stroke-linecap:round; stroke-linejoin:round;fill-rule:evenodd;"
d="M 128.6721,90.4905
129.5702,90.3109
128.8518,89.5924
Z" /> 
<path style="fill:#E8B2A7; fill-opacity:1.0000; 
stroke:#E8B2A7; stroke-width:0.1000; stroke-opacity:1; 
stroke-linecap:round; stroke-linejoin:round;fill-rule:evenodd;"
d="M 128.8518,16.0826
129.5702,15.3641
128.6721,15.1845
Z" /> 
<path style="fill:#E8B2A7; fill-opacity:1.0000; 
stroke:#E8B2A7; stroke-width:0.1000; stroke-opacity:1; 
stroke-linecap:round; stroke-linejoin:round;fill-rule:evenodd;"
d="M 113.0800,90.3109
113.9781,90.4905
113.7985,89.5924
Z" /> 
<path style="fill:#E8B2A7; fill-opacity:1.0000; 
stroke:#E8B2A7; stroke-width:0.1000; stroke-opacity:1; 
stroke-linecap:round; stroke-linejoin:round;fill-rule:evenodd;"
d="M 113.0800,15.3641
113.7985,16.0826
113.9781,15.1845
Z" /> 
<g >
</g>
<g >
</g>
<g >
</g>
<g >
</g>
<g >
</g>
<g >
</g>
<g >
</g>
<g >
</g>
<g >
</g>
<g >
</g>
<g >
</g>
<g >
</g>
<g >
</g>
<g >
</g>
<g >
</g>
<g >
</g>
<g >
</g>
<g >
</g>
<g >
</g>
<g >
</g>
<g >
</g>
<g >
</g>
<g >
</g>
<g >
</g>
<g >
</g>
<g >
</g>
<g >
</g>
<g >
</g>
<g >
</g>
<g >
</g>
<g >
</g>
<g >
</g>
<g >
</g>
<g >
</g>
<g >
</g>
<g >
</g>
<g >
</g>
<g >
</g>
<g >
</g>
<g >
</g>
</g>
<g style="fill:#000000; fill-opacity:1.0000; 
stroke:#000000; stroke-width:0.1000; stroke-opacity:1; 
stroke-linecap:round; stroke-linejoin:round;">
</g>
<g style="fill:#02FFEE; fill-opacity:0.4000; 
stroke:#02FFEE; stroke-width:0.1000; stroke-opacity:1; 
stroke-linecap:round; stroke-linejoin:round;">
</g>
<g style="fill:#02FFEE; fill-opacity:0.4000; 
stroke:#02FFEE; stroke-width:0.1500; stroke-opacity:1; 
stroke-linecap:round; stroke-linejoin:round;">
</g>
<g style="fill:#02FFEE; fill-opacity:0.0; 
stroke:#02FFEE; stroke-width:0.1500; stroke-opacity:1; 
stroke-linecap:round; stroke-linejoin:round;">
<g transform="rotate(-90.000000 108.1251 38.3375)">
<text x="108.1251" y="38.7125"
transform="scale(-1 1) translate(-216.250222 0)"
textLength="3.4964" font-size="1.0000" lengthAdjust="spacingAndGlyphs"
text-anchor="start" opacity="0">REV B</text>
</g>
<g class="stroked-text"><desc>REV B</desc>
<path d="M107.8496 38.9446
L108.2067 38.6946
" />
<path d="M107.8496 38.5161
L108.5996 38.5161
" />
<path d="M108.5996 38.5161
L108.5996 38.8018
" />
<path d="M108.5996 38.8018
L108.5639 38.8732
" />
<path d="M108.5639 38.8732
L108.5281 38.9089
" />
<path d="M108.5281 38.9089
L108.4567 38.9446
" />
<path d="M108.4567 38.9446
L108.3496 38.9446
" />
<path d="M108.3496 38.9446
L108.2781 38.9089
" />
<path d="M108.2781 38.9089
L108.2424 38.8732
" />
<path d="M108.2424 38.8732
L108.2067 38.8018
" />
<path d="M108.2067 38.8018
L108.2067 38.5161
" />
<path d="M108.2424 39.2661
L108.2424 39.5161
" />
<path d="M107.8496 39.6232
L107.8496 39.2661
" />
<path d="M107.8496 39.2661
L108.5996 39.2661
" />
<path d="M108.5996 39.2661
L108.5996 39.6232
" />
<path d="M108.5996 39.8375
L107.8496 40.0875
" />
<path d="M107.8496 40.0875
L108.5996 40.3375
" />
<path d="M108.2424 41.2875
L108.2067 41.3946
" />
<path d="M108.2067 41.3946
L108.1710 41.4304
" />
<path d="M108.1710 41.4304
L108.0996 41.4661
" />
<path d="M108.0996 41.4661
L107.9924 41.4661
" />
<path d="M107.9924 41.4661
L107.9210 41.4304
" />
<path d="M107.9210 41.4304
L107.8853 41.3946
" />
<path d="M107.8853 41.3946
L107.8496 41.3232
" />
<path d="M107.8496 41.3232
L107.8496 41.0375
" />
<path d="M107.8496 41.0375
L108.5996 41.0375
" />
<path d="M108.5996 41.0375
L108.5996 41.2875
" />
<path d="M108.5996 41.2875
L108.5639 41.3589
" />
<path d="M108.5639 41.3589
L108.5281 41.3946
" />
<path d="M108.5281 41.3946
L108.4567 41.4304
" />
<path d="M108.4567 41.4304
L108.3853 41.4304
" />
<path d="M108.3853 41.4304
L108.3139 41.3946
" />
<path d="M108.3139 41.3946
L108.2781 41.3589
" />
<path d="M108.2781 41.3589
L108.2424 41.2875
" />
<path d="M108.2424 41.2875
L108.2424 41.0375
" />
</g><g transform="rotate(-90.000000 109.5251 38.3375)">
<text x="109.5251" y="38.7125"
transform="scale(-1 1) translate(-219.050222 0)"
textLength="10.3679" font-size="1.0000" lengthAdjust="spacingAndGlyphs"
text-anchor="start" opacity="0">bigass_7_segment</text>
</g>
<g class="stroked-text"><desc>bigass_7_segment</desc>
<path d="M109.2496 38.5161
L109.9996 38.5161
" />
<path d="M109.7139 38.5161
L109.7496 38.5875
" />
<path d="M109.7496 38.5875
L109.7496 38.7304
" />
<path d="M109.7496 38.7304
L109.7139 38.8018
" />
<path d="M109.7139 38.8018
L109.6781 38.8375
" />
<path d="M109.6781 38.8375
L109.6067 38.8732
" />
<path d="M109.6067 38.8732
L109.3924 38.8732
" />
<path d="M109.3924 38.8732
L109.3210 38.8375
" />
<path d="M109.3210 38.8375
L109.2853 38.8018
" />
<path d="M109.2853 38.8018
L109.2496 38.7304
" />
<path d="M109.2496 38.7304
L109.2496 38.5875
" />
<path d="M109.2496 38.5875
L109.2853 38.5161
" />
<path d="M109.2496 39.1946
L109.7496 39.1946
" />
<path d="M109.9996 39.1946
L109.9639 39.1589
" />
<path d="M109.9639 39.1589
L109.9281 39.1946
" />
<path d="M109.9281 39.1946
L109.9639 39.2304
" />
<path d="M109.9639 39.2304
L109.9996 39.1946
" />
<path d="M109.9996 39.1946
L109.9281 39.1946
" />
<path d="M109.7496 39.8732
L109.1424 39.8732
" />
<path d="M109.1424 39.8732
L109.0710 39.8375
" />
<path d="M109.0710 39.8375
L109.0353 39.8018
" />
<path d="M109.0353 39.8018
L108.9996 39.7304
" />
<path d="M108.9996 39.7304
L108.9996 39.6232
" />
<path d="M108.9996 39.6232
L109.0353 39.5518
" />
<path d="M109.2853 39.8732
L109.2496 39.8018
" />
<path d="M109.2496 39.8018
L109.2496 39.6589
" />
<path d="M109.2496 39.6589
L109.2853 39.5875
" />
<path d="M109.2853 39.5875
L109.3210 39.5518
" />
<path d="M109.3210 39.5518
L109.3924 39.5161
" />
<path d="M109.3924 39.5161
L109.6067 39.5161
" />
<path d="M109.6067 39.5161
L109.6781 39.5518
" />
<path d="M109.6781 39.5518
L109.7139 39.5875
" />
<path d="M109.7139 39.5875
L109.7496 39.6589
" />
<path d="M109.7496 39.6589
L109.7496 39.8018
" />
<path d="M109.7496 39.8018
L109.7139 39.8732
" />
<path d="M109.2496 40.5518
L109.6424 40.5518
" />
<path d="M109.6424 40.5518
L109.7139 40.5161
" />
<path d="M109.7139 40.5161
L109.7496 40.4446
" />
<path d="M109.7496 40.4446
L109.7496 40.3018
" />
<path d="M109.7496 40.3018
L109.7139 40.2304
" />
<path d="M109.2853 40.5518
L109.2496 40.4804
" />
<path d="M109.2496 40.4804
L109.2496 40.3018
" />
<path d="M109.2496 40.3018
L109.2853 40.2304
" />
<path d="M109.2853 40.2304
L109.3567 40.1946
" />
<path d="M109.3567 40.1946
L109.4281 40.1946
" />
<path d="M109.4281 40.1946
L109.4996 40.2304
" />
<path d="M109.4996 40.2304
L109.5353 40.3018
" />
<path d="M109.5353 40.3018
L109.5353 40.4804
" />
<path d="M109.5353 40.4804
L109.5710 40.5518
" />
<path d="M109.2853 40.8732
L109.2496 40.9446
" />
<path d="M109.2496 40.9446
L109.2496 41.0875
" />
<path d="M109.2496 41.0875
L109.2853 41.1589
" />
<path d="M109.2853 41.1589
L109.3567 41.1946
" />
<path d="M109.3567 41.1946
L109.3924 41.1946
" />
<path d="M109.3924 41.1946
L109.4639 41.1589
" />
<path d="M109.4639 41.1589
L109.4996 41.0875
" />
<path d="M109.4996 41.0875
L109.4996 40.9804
" />
<path d="M109.4996 40.9804
L109.5353 40.9089
" />
<path d="M109.5353 40.9089
L109.6067 40.8732
" />
<path d="M109.6067 40.8732
L109.6424 40.8732
" />
<path d="M109.6424 40.8732
L109.7139 40.9089
" />
<path d="M109.7139 40.9089
L109.7496 40.9804
" />
<path d="M109.7496 40.9804
L109.7496 41.0875
" />
<path d="M109.7496 41.0875
L109.7139 41.1589
" />
<path d="M109.2853 41.4804
L109.2496 41.5518
" />
<path d="M109.2496 41.5518
L109.2496 41.6946
" />
<path d="M109.2496 41.6946
L109.2853 41.7661
" />
<path d="M109.2853 41.7661
L109.3567 41.8018
" />
<path d="M109.3567 41.8018
L109.3924 41.8018
" />
<path d="M109.3924 41.8018
L109.4639 41.7661
" />
<path d="M109.4639 41.7661
L109.4996 41.6946
" />
<path d="M109.4996 41.6946
L109.4996 41.5875
" />
<path d="M109.4996 41.5875
L109.5353 41.5161
" />
<path d="M109.5353 41.5161
L109.6067 41.4804
" />
<path d="M109.6067 41.4804
L109.6424 41.4804
" />
<path d="M109.6424 41.4804
L109.7139 41.5161
" />
<path d="M109.7139 41.5161
L109.7496 41.5875
" />
<path d="M109.7496 41.5875
L109.7496 41.6946
" />
<path d="M109.7496 41.6946
L109.7139 41.7661
" />
<path d="M109.1781 41.9446
L109.1781 42.5161
" />
<path d="M109.9996 42.6232
L109.9996 43.1232
" />
<path d="M109.9996 43.1232
L109.2496 42.8018
" />
<path d="M109.1781 43.2304
L109.1781 43.8018
" />
<path d="M109.2853 43.9446
L109.2496 44.0161
" />
<path d="M109.2496 44.0161
L109.2496 44.1589
" />
<path d="M109.2496 44.1589
L109.2853 44.2304
" />
<path d="M109.2853 44.2304
L109.3567 44.2661
" />
<path d="M109.3567 44.2661
L109.3924 44.2661
" />
<path d="M109.3924 44.2661
L109.4639 44.2304
" />
<path d="M109.4639 44.2304
L109.4996 44.1589
" />
<path d="M109.4996 44.1589
L109.4996 44.0518
" />
<path d="M109.4996 44.0518
L109.5353 43.9804
" />
<path d="M109.5353 43.9804
L109.6067 43.9446
" />
<path d="M109.6067 43.9446
L109.6424 43.9446
" />
<path d="M109.6424 43.9446
L109.7139 43.9804
" />
<path d="M109.7139 43.9804
L109.7496 44.0518
" />
<path d="M109.7496 44.0518
L109.7496 44.1589
" />
<path d="M109.7496 44.1589
L109.7139 44.2304
" />
<path d="M109.2853 44.8732
L109.2496 44.8018
" />
<path d="M109.2496 44.8018
L109.2496 44.6589
" />
<path d="M109.2496 44.6589
L109.2853 44.5875
" />
<path d="M109.2853 44.5875
L109.3567 44.5518
" />
<path d="M109.3567 44.5518
L109.6424 44.5518
" />
<path d="M109.6424 44.5518
L109.7139 44.5875
" />
<path d="M109.7139 44.5875
L109.7496 44.6589
" />
<path d="M109.7496 44.6589
L109.7496 44.8018
" />
<path d="M109.7496 44.8018
L109.7139 44.8732
" />
<path d="M109.7139 44.8732
L109.6424 44.9089
" />
<path d="M109.6424 44.9089
L109.5710 44.9089
" />
<path d="M109.5710 44.9089
L109.4996 44.5518
" />
<path d="M109.7496 45.5518
L109.1424 45.5518
" />
<path d="M109.1424 45.5518
L109.0710 45.5161
" />
<path d="M109.0710 45.5161
L109.0353 45.4804
" />
<path d="M109.0353 45.4804
L108.9996 45.4089
" />
<path d="M108.9996 45.4089
L108.9996 45.3018
" />
<path d="M108.9996 45.3018
L109.0353 45.2304
" />
<path d="M109.2853 45.5518
L109.2496 45.4804
" />
<path d="M109.2496 45.4804
L109.2496 45.3375
" />
<path d="M109.2496 45.3375
L109.2853 45.2661
" />
<path d="M109.2853 45.2661
L109.3210 45.2304
" />
<path d="M109.3210 45.2304
L109.3924 45.1946
" />
<path d="M109.3924 45.1946
L109.6067 45.1946
" />
<path d="M109.6067 45.1946
L109.6781 45.2304
" />
<path d="M109.6781 45.2304
L109.7139 45.2661
" />
<path d="M109.7139 45.2661
L109.7496 45.3375
" />
<path d="M109.7496 45.3375
L109.7496 45.4804
" />
<path d="M109.7496 45.4804
L109.7139 45.5518
" />
<path d="M109.2496 45.9089
L109.7496 45.9089
" />
<path d="M109.6781 45.9089
L109.7139 45.9446
" />
<path d="M109.7139 45.9446
L109.7496 46.0161
" />
<path d="M109.7496 46.0161
L109.7496 46.1232
" />
<path d="M109.7496 46.1232
L109.7139 46.1946
" />
<path d="M109.7139 46.1946
L109.6424 46.2304
" />
<path d="M109.6424 46.2304
L109.2496 46.2304
" />
<path d="M109.6424 46.2304
L109.7139 46.2661
" />
<path d="M109.7139 46.2661
L109.7496 46.3375
" />
<path d="M109.7496 46.3375
L109.7496 46.4446
" />
<path d="M109.7496 46.4446
L109.7139 46.5161
" />
<path d="M109.7139 46.5161
L109.6424 46.5518
" />
<path d="M109.6424 46.5518
L109.2496 46.5518
" />
<path d="M109.2853 47.1946
L109.2496 47.1232
" />
<path d="M109.2496 47.1232
L109.2496 46.9804
" />
<path d="M109.2496 46.9804
L109.2853 46.9089
" />
<path d="M109.2853 46.9089
L109.3567 46.8732
" />
<path d="M109.3567 46.8732
L109.6424 46.8732
" />
<path d="M109.6424 46.8732
L109.7139 46.9089
" />
<path d="M109.7139 46.9089
L109.7496 46.9804
" />
<path d="M109.7496 46.9804
L109.7496 47.1232
" />
<path d="M109.7496 47.1232
L109.7139 47.1946
" />
<path d="M109.7139 47.1946
L109.6424 47.2304
" />
<path d="M109.6424 47.2304
L109.5710 47.2304
" />
<path d="M109.5710 47.2304
L109.4996 46.8732
" />
<path d="M109.7496 47.5518
L109.2496 47.5518
" />
<path d="M109.6781 47.5518
L109.7139 47.5875
" />
<path d="M109.7139 47.5875
L109.7496 47.6589
" />
<path d="M109.7496 47.6589
L109.7496 47.7661
" />
<path d="M109.7496 47.7661
L109.7139 47.8375
" />
<path d="M109.7139 47.8375
L109.6424 47.8732
" />
<path d="M109.6424 47.8732
L109.2496 47.8732
" />
<path d="M109.7496 48.1232
L109.7496 48.4089
" />
<path d="M109.9996 48.2304
L109.3567 48.2304
" />
<path d="M109.3567 48.2304
L109.2853 48.2661
" />
<path d="M109.2853 48.2661
L109.2496 48.3375
" />
<path d="M109.2496 48.3375
L109.2496 48.4089
" />
</g><g >
</g>
<g >
</g>
<g >
</g>
<g >
</g>
<g >
</g>
<g >
</g>
<g >
</g>
<g style="fill:#02FFEE; fill-opacity:0.0; 
stroke:#02FFEE; stroke-width:0.1500; stroke-opacity:1; 
stroke-linecap:round; stroke-linejoin:round;">
</g>
<g style="fill:#02FFEE; fill-opacity:0.0; 
stroke:#02FFEE; stroke-width:0.0000; stroke-opacity:1; 
stroke-linecap:round; stroke-linejoin:round;">
</g>
<g style="fill:#02FFEE; fill-opacity:0.4000; 
stroke:#02FFEE; stroke-width:0.0000; stroke-opacity:1; 
stroke-linecap:round; stroke-linejoin:round;">
<path style="fill:#02FFEE; fill-opacity:0.4000; 
stroke:#02FFEE; stroke-width:0.0000; stroke-opacity:1; 
stroke-linecap:round; stroke-linejoin:round;fill-rule:evenodd;"
d="M 125.2038,91.8375
127.3251,93.9588
129.4464,91.8375
127.3251,89.7162
Z" /> 
<path style="fill:#02FFEE; fill-opacity:0.4000; 
stroke:#02FFEE; stroke-width:0.0000; stroke-opacity:1; 
stroke-linecap:round; stroke-linejoin:round;fill-rule:evenodd;"
d="M 128.7959,88.2454
130.9172,90.3667
133.0385,88.2454
130.9172,86.1241
Z" /> 
</g>
<g >
</g>
<g style="fill:#02FFEE; fill-opacity:0.4000; 
stroke:#02FFEE; stroke-width:0.0000; stroke-opacity:1; 
stroke-linecap:round; stroke-linejoin:round;">
<path style="fill:#02FFEE; fill-opacity:0.4000; 
stroke:#02FFEE; stroke-width:0.0000; stroke-opacity:1; 
stroke-linecap:round; stroke-linejoin:round;fill-rule:evenodd;"
d="M 127.3251,11.7162
125.2038,13.8375
127.3251,15.9588
129.4464,13.8375
Z" /> 
<path style="fill:#02FFEE; fill-opacity:0.4000; 
stroke:#02FFEE; stroke-width:0.0000; stroke-opacity:1; 
stroke-linecap:round; stroke-linejoin:round;fill-rule:evenodd;"
d="M 130.9172,15.3083
128.7959,17.4296
130.9172,19.5509
133.0385,17.4296
Z" /> 
</g>
<g >
</g>
<g style="fill:#02FFEE; fill-opacity:0.4000; 
stroke:#02FFEE; stroke-width:0.0000; stroke-opacity:1; 
stroke-linecap:round; stroke-linejoin:round;">
<path style="fill:#02FFEE; fill-opacity:0.4000; 
stroke:#02FFEE; stroke-width:0.0000; stroke-opacity:1; 
stroke-linecap:round; stroke-linejoin:round;fill-rule:evenodd;"
d="M 115.3251,93.9588
117.4464,91.8375
115.3251,89.7162
113.2038,91.8375
Z" /> 
<path style="fill:#02FFEE; fill-opacity:0.4000; 
stroke:#02FFEE; stroke-width:0.0000; stroke-opacity:1; 
stroke-linecap:round; stroke-linejoin:round;fill-rule:evenodd;"
d="M 111.7330,90.3667
113.8543,88.2454
111.7330,86.1241
109.6117,88.2454
Z" /> 
</g>
<g >
</g>
<g style="fill:#02FFEE; fill-opacity:0.4000; 
stroke:#02FFEE; stroke-width:0.0000; stroke-opacity:1; 
stroke-linecap:round; stroke-linejoin:round;">
<path style="fill:#02FFEE; fill-opacity:0.4000; 
stroke:#02FFEE; stroke-width:0.0000; stroke-opacity:1; 
stroke-linecap:round; stroke-linejoin:round;fill-rule:evenodd;"
d="M 117.4464,13.8375
115.3251,11.7162
113.2038,13.8375
115.3251,15.9588
Z" /> 
<path style="fill:#02FFEE; fill-opacity:0.4000; 
stroke:#02FFEE; stroke-width:0.0000; stroke-opacity:1; 
stroke-linecap:round; stroke-linejoin:round;fill-rule:evenodd;"
d="M 113.8543,17.4296
111.7330,15.3083
109.6117,17.4296
111.7330,19.5509
Z" /> 
</g>
<g >
</g>
<g >
</g>
<g >
</g>
<g style="fill:#02FFEE; fill-opacity:0.4000; 
stroke:#02FFEE; stroke-width:0.0000; stroke-opacity:1; 
stroke-linecap:round; stroke-linejoin:round;">
<circle cx="115.3251" cy="30.8375" r="1.5000" /> 
</g>
<g style="fill:#02FFEE; fill-opacity:0.4000; 
stroke:#02FFEE; stroke-width:0.0212; stroke-opacity:1; 
stroke-linecap:round; stroke-linejoin:round;">
</g>
<g >
</g>
<g style="fill:#02FFEE; fill-opacity:0.4000; 
stroke:#02FFEE; stroke-width:0.0212; stroke-opacity:1; 
stroke-linecap:round; stroke-linejoin:round;">
</g>
<g style="fill:#02FFEE; fill-opacity:0.4000; 
stroke:#02FFEE; stroke-width:0.0000; stroke-opacity:1; 
stroke-linecap:round; stroke-linejoin:round;">
<circle cx="127.3251" cy="74.8375" r="1.5000" /> 
</g>
<g style="fill:#02FFEE; fill-opacity:0.4000; 
stroke:#02FFEE; stroke-width:0.0212; stroke-opacity:1; 
stroke-linecap:round; stroke-linejoin:round;">
</g>
<g >
</g>
<g >
</g>
<g >
</g>
<g >
</g>
<g >
</g>
<g >
</g>
<g >
</g>
<g >
</g>
<g >
</g>
<g >
</g>
<g >
</g>
<g >
</g>
<g >
</g>
<g >
</g>
<g >
</g>
<g >
</g>
<g >
</g>
<g >
</g>
<g >
</g>
<g >
</g>
<g >
</g>
<g >
</g>
<g >
</g>
<g >
</g>
<g >
</g>
<g >
</g>
</g>
<g style="fill:#000000; fill-opacity:1.0000; 
stroke:#000000; stroke-width:0.0212; stroke-opacity:1; 
stroke-linecap:round; stroke-linejoin:round;">
</g>
<g style="fill:#D0D2CD; fill-opacity:1.0000; 
stroke:#D0D2CD; stroke-width:0.0212; stroke-opacity:1; 
stroke-linecap:round; stroke-linejoin:round;">
</g>
<g style="fill:#D0D2CD; fill-opacity:1.0000; 
stroke:#D0D2CD; stroke-width:0.0500; stroke-opacity:1; 
stroke-linecap:round; stroke-linejoin:round;">
</g>
<g style="fill:#D0D2CD; fill-opacity:0.0; 
stroke:#D0D2CD; stroke-width:0.0500; stroke-opacity:1; 
stroke-linecap:round; stroke-linejoin:round;">
<path d="M121.3251 99.8375
L136.3251 84.8375
" />
<path d="M106.3251 20.8375
L106.3251 84.8375
" />
<path d="M121.3251 5.8375
L106.3251 20.8375
" />
<path d="M106.3251 84.8375
L121.3251 99.8375
" />
<path d="M136.3251 20.8375
L121.3251 5.8375
" />
<path d="M136.3251 84.8375
L136.3251 20.8375
" />
<g >
</g>
<g >
</g>
<g >
</g>
<g >
</g>
<g >
</g>
<g >
</g>
<g >
</g>
<g >
</g>
<g >
</g>
<g >
</g>
<g >
</g>
<g >
</g>
<g >
</g>
<g >
</g>
<g >
</g>
<g >
</g>
<g >
</g>
<g >
</g>
<g >
</g>
<g >
</g>
<g >
</g>
<g >
</g>
<g >
</g>
<g >
</g>
<g >
</g>
<g >
</g>
<g >
</g>
<g >
</g>
<g >
</g>
<g >
</g>
<g >
</g>
<g >
</g>
<g >
</g>
<g >
</g>
<g >
</g>
<g >
</g>
<g >
</g>
<g >
</g>
<g >
</g>
<g >
</g>
</g> 
</svg>
