  0
SECTION
  2
HEADER
  9
$ANGBASE
  50
0.0
  9
$ANGDIR
  70
1
  9
$MEASUREMENT
  70
1
  0
ENDSEC
  0
SECTION
  2
TABLES
  0
TABLE
  2
LTYPE
  70
4
  0
LTYPE
  5
40F
  2
CONTINUOUS
  70
0
  3
Solid line
  72
65
  73
0
  40
0.0
  0
LTYPE
  5
410
  2
DASHDOT
 70
0
  3
Dash Dot ____ _ ____ _
 72
65
 73
4
 40
2.0
 49
1.25
 49
-0.25
 49
0.25
 49
-0.25
  0
LTYPE
  5
411
  2
DASHED
 70
0
  3
Dashed __ __ __ __ __
 72
65
 73
2
 40
0.75
 49
0.5
 49
-0.25
  0
LTYPE
  5
43B
  2
DOTTED
 70
0
  3
Dotted .  .  .  .
 72
65
 73
2
 40
0.2
 49
0.0
 49
-0.2
  0
ENDTAB
  0
TABLE
  2
STYLE
  70
4
  0
STYLE
  2
KICAD
  70
0
  40
0
  41
1
  42
1
  50
0
  71
0
  3
isocp.shx
  0
STYLE
  2
KICADB
  70
0
  40
0
  41
1
  42
1
  50
0
  71
0
  3
isocp.shx
  0
STYLE
  2
KICADI
  70
0
  40
0
  41
1
  42
1
  50
15
  71
0
  3
isocp.shx
  0
STYLE
  2
KICADBI
  70
0
  40
0
  41
1
  42
1
  50
15
  71
0
  3
isocp.shx
  0
ENDTAB
  0
TABLE
  2
LAYER
  70
1
  0
LAYER
  2
BLACK
  70
0
  62
7
  6
CONTINUOUS
  0
ENDTAB
  0
ENDSEC
  0
SECTION
  2
ENTITIES
0
LINE
8
BLACK
6
CONTINUOUS
10
40
20
-39.975
11
40.0177
21
-39.9823
0
LINE
8
BLACK
6
CONTINUOUS
10
40.0177
20
-39.9823
11
55.0177
21
-54.9823
0
LINE
8
BLACK
6
CONTINUOUS
10
55.0177
20
-54.9823
11
55.0177
21
-54.9823
0
LINE
8
BLACK
6
CONTINUOUS
10
55.0177
20
-54.9823
11
55.025
21
-55
0
LINE
8
BLACK
6
CONTINUOUS
10
55.025
20
-55
11
55.025
21
-119
0
LINE
8
BLACK
6
CONTINUOUS
10
55.025
20
-119
11
55.0177
21
-119.018
0
LINE
8
BLACK
6
CONTINUOUS
10
55.0177
20
-119.018
11
55.0177
21
-119.018
0
LINE
8
BLACK
6
CONTINUOUS
10
55.0177
20
-119.018
11
40.0177
21
-134.018
0
LINE
8
BLACK
6
CONTINUOUS
10
40.0177
20
-134.018
11
40
21
-134.025
0
LINE
8
BLACK
6
CONTINUOUS
10
40
20
-134.025
11
39.9823
21
-134.018
0
LINE
8
BLACK
6
CONTINUOUS
10
39.9823
20
-134.018
11
39.9823
21
-134.018
0
LINE
8
BLACK
6
CONTINUOUS
10
39.9823
20
-134.018
11
24.9823
21
-119.018
0
LINE
8
BLACK
6
CONTINUOUS
10
24.9823
20
-119.018
11
24.975
21
-119
0
LINE
8
BLACK
6
CONTINUOUS
10
24.975
20
-119
11
24.975
21
-55
0
LINE
8
BLACK
6
CONTINUOUS
10
24.975
20
-55
11
24.9823
21
-54.9823
0
LINE
8
BLACK
6
CONTINUOUS
10
24.9823
20
-54.9823
11
24.9823
21
-54.9823
0
LINE
8
BLACK
6
CONTINUOUS
10
24.9823
20
-54.9823
11
39.9823
21
-39.9823
0
LINE
8
BLACK
6
CONTINUOUS
10
39.9823
20
-39.9823
11
39.9823
21
-39.9823
0
LINE
8
BLACK
6
CONTINUOUS
10
39.9823
20
-39.9823
11
39.9823
21
-39.9823
0
LINE
8
BLACK
6
CONTINUOUS
10
39.9823
20
-39.9823
11
40
21
-39.975
0
LINE
8
BLACK
6
CONTINUOUS
10
25.025
20
-55.0104
11
25.025
21
-118.99
0
LINE
8
BLACK
6
CONTINUOUS
10
25.025
20
-118.99
11
40
21
-133.965
0
LINE
8
BLACK
6
CONTINUOUS
10
40
20
-133.965
11
54.975
21
-118.99
0
LINE
8
BLACK
6
CONTINUOUS
10
54.975
20
-118.99
11
54.975
21
-55.0104
0
LINE
8
BLACK
6
CONTINUOUS
10
54.975
20
-55.0104
11
40
21
-40.0354
0
LINE
8
BLACK
6
CONTINUOUS
10
40
20
-40.0354
11
25.025
21
-55.0104
0
LINE
8
BLACK
6
CONTINUOUS
10
42.25
20
-130.4
11
41.15
21
-130.4
0
LINE
8
BLACK
6
CONTINUOUS
10
41.15
20
-130.4
11
41.15
21
-128.4
0
LINE
8
BLACK
6
CONTINUOUS
10
41.15
20
-128.4
11
42.25
21
-128.4
0
LINE
8
BLACK
6
CONTINUOUS
10
42.25
20
-128.4
11
42.25
21
-130.4
0
LINE
8
BLACK
6
CONTINUOUS
10
40.55
20
-130.4
11
39.45
21
-130.4
0
LINE
8
BLACK
6
CONTINUOUS
10
39.45
20
-130.4
11
39.45
21
-128.4
0
LINE
8
BLACK
6
CONTINUOUS
10
39.45
20
-128.4
11
40.55
21
-128.4
0
LINE
8
BLACK
6
CONTINUOUS
10
40.55
20
-128.4
11
40.55
21
-130.4
0
LINE
8
BLACK
6
CONTINUOUS
10
38.85
20
-130.4
11
37.75
21
-130.4
0
LINE
8
BLACK
6
CONTINUOUS
10
37.75
20
-130.4
11
37.75
21
-128.4
0
LINE
8
BLACK
6
CONTINUOUS
10
37.75
20
-128.4
11
38.85
21
-128.4
0
LINE
8
BLACK
6
CONTINUOUS
10
38.85
20
-128.4
11
38.85
21
-130.4
0
LINE
8
BLACK
6
CONTINUOUS
10
48.1213
20
-126
11
46
21
-128.121
0
LINE
8
BLACK
6
CONTINUOUS
10
46
20
-128.121
11
43.8787
21
-126
0
LINE
8
BLACK
6
CONTINUOUS
10
43.8787
20
-126
11
46
21
-123.879
0
LINE
8
BLACK
6
CONTINUOUS
10
46
20
-123.879
11
48.1213
21
-126
0
LINE
8
BLACK
6
CONTINUOUS
10
36.1213
20
-126
11
34
21
-128.121
0
LINE
8
BLACK
6
CONTINUOUS
10
34
20
-128.121
11
31.8787
21
-126
0
LINE
8
BLACK
6
CONTINUOUS
10
31.8787
20
-126
11
34
21
-123.879
0
LINE
8
BLACK
6
CONTINUOUS
10
34
20
-123.879
11
36.1213
21
-126
0
LINE
8
BLACK
6
CONTINUOUS
10
42.25
20
-125.6
11
41.15
21
-125.6
0
LINE
8
BLACK
6
CONTINUOUS
10
41.15
20
-125.6
11
41.15
21
-123.6
0
LINE
8
BLACK
6
CONTINUOUS
10
41.15
20
-123.6
11
42.25
21
-123.6
0
LINE
8
BLACK
6
CONTINUOUS
10
42.25
20
-123.6
11
42.25
21
-125.6
0
LINE
8
BLACK
6
CONTINUOUS
10
40.55
20
-125.6
11
39.45
21
-125.6
0
LINE
8
BLACK
6
CONTINUOUS
10
39.45
20
-125.6
11
39.45
21
-123.6
0
LINE
8
BLACK
6
CONTINUOUS
10
39.45
20
-123.6
11
40.55
21
-123.6
0
LINE
8
BLACK
6
CONTINUOUS
10
40.55
20
-123.6
11
40.55
21
-125.6
0
LINE
8
BLACK
6
CONTINUOUS
10
38.85
20
-125.6
11
37.75
21
-125.6
0
LINE
8
BLACK
6
CONTINUOUS
10
37.75
20
-125.6
11
37.75
21
-123.6
0
LINE
8
BLACK
6
CONTINUOUS
10
37.75
20
-123.6
11
38.85
21
-123.6
0
LINE
8
BLACK
6
CONTINUOUS
10
38.85
20
-123.6
11
38.85
21
-125.6
0
LINE
8
BLACK
6
CONTINUOUS
10
51.7134
20
-122.408
11
49.5921
21
-124.529
0
LINE
8
BLACK
6
CONTINUOUS
10
49.5921
20
-124.529
11
47.4708
21
-122.408
0
LINE
8
BLACK
6
CONTINUOUS
10
47.4708
20
-122.408
11
49.5921
21
-120.287
0
LINE
8
BLACK
6
CONTINUOUS
10
49.5921
20
-120.287
11
51.7134
21
-122.408
0
LINE
8
BLACK
6
CONTINUOUS
10
32.5292
20
-122.408
11
30.4079
21
-124.529
0
LINE
8
BLACK
6
CONTINUOUS
10
30.4079
20
-124.529
11
28.2866
21
-122.408
0
LINE
8
BLACK
6
CONTINUOUS
10
28.2866
20
-122.408
11
30.4079
21
-120.287
0
LINE
8
BLACK
6
CONTINUOUS
10
30.4079
20
-120.287
11
32.5292
21
-122.408
0
LINE
8
BLACK
6
CONTINUOUS
10
42.25
20
-118.971
11
41.15
21
-118.971
0
LINE
8
BLACK
6
CONTINUOUS
10
41.15
20
-118.971
11
41.15
21
-116.971
0
LINE
8
BLACK
6
CONTINUOUS
10
41.15
20
-116.971
11
42.25
21
-116.971
0
LINE
8
BLACK
6
CONTINUOUS
10
42.25
20
-116.971
11
42.25
21
-118.971
0
LINE
8
BLACK
6
CONTINUOUS
10
40.55
20
-118.971
11
39.45
21
-118.971
0
LINE
8
BLACK
6
CONTINUOUS
10
39.45
20
-118.971
11
39.45
21
-116.971
0
LINE
8
BLACK
6
CONTINUOUS
10
39.45
20
-116.971
11
40.55
21
-116.971
0
LINE
8
BLACK
6
CONTINUOUS
10
40.55
20
-116.971
11
40.55
21
-118.971
0
LINE
8
BLACK
6
CONTINUOUS
10
38.85
20
-118.971
11
37.75
21
-118.971
0
LINE
8
BLACK
6
CONTINUOUS
10
37.75
20
-118.971
11
37.75
21
-116.971
0
LINE
8
BLACK
6
CONTINUOUS
10
37.75
20
-116.971
11
38.85
21
-116.971
0
LINE
8
BLACK
6
CONTINUOUS
10
38.85
20
-116.971
11
38.85
21
-118.971
0
LINE
8
BLACK
6
CONTINUOUS
10
54.25
20
-118.4
11
53.15
21
-118.4
0
LINE
8
BLACK
6
CONTINUOUS
10
53.15
20
-118.4
11
53.15
21
-116.4
0
LINE
8
BLACK
6
CONTINUOUS
10
53.15
20
-116.4
11
54.25
21
-116.4
0
LINE
8
BLACK
6
CONTINUOUS
10
54.25
20
-116.4
11
54.25
21
-118.4
0
LINE
8
BLACK
6
CONTINUOUS
10
52.55
20
-118.4
11
51.45
21
-118.4
0
LINE
8
BLACK
6
CONTINUOUS
10
51.45
20
-118.4
11
51.45
21
-116.4
0
LINE
8
BLACK
6
CONTINUOUS
10
51.45
20
-116.4
11
52.55
21
-116.4
0
LINE
8
BLACK
6
CONTINUOUS
10
52.55
20
-116.4
11
52.55
21
-118.4
0
LINE
8
BLACK
6
CONTINUOUS
10
50.85
20
-118.4
11
49.75
21
-118.4
0
LINE
8
BLACK
6
CONTINUOUS
10
49.75
20
-118.4
11
49.75
21
-116.4
0
LINE
8
BLACK
6
CONTINUOUS
10
49.75
20
-116.4
11
50.85
21
-116.4
0
LINE
8
BLACK
6
CONTINUOUS
10
50.85
20
-116.4
11
50.85
21
-118.4
0
LINE
8
BLACK
6
CONTINUOUS
10
30.25
20
-118.4
11
29.15
21
-118.4
0
LINE
8
BLACK
6
CONTINUOUS
10
29.15
20
-118.4
11
29.15
21
-116.4
0
LINE
8
BLACK
6
CONTINUOUS
10
29.15
20
-116.4
11
30.25
21
-116.4
0
LINE
8
BLACK
6
CONTINUOUS
10
30.25
20
-116.4
11
30.25
21
-118.4
0
LINE
8
BLACK
6
CONTINUOUS
10
28.55
20
-118.4
11
27.45
21
-118.4
0
LINE
8
BLACK
6
CONTINUOUS
10
27.45
20
-118.4
11
27.45
21
-116.4
0
LINE
8
BLACK
6
CONTINUOUS
10
27.45
20
-116.4
11
28.55
21
-116.4
0
LINE
8
BLACK
6
CONTINUOUS
10
28.55
20
-116.4
11
28.55
21
-118.4
0
LINE
8
BLACK
6
CONTINUOUS
10
26.85
20
-118.4
11
25.75
21
-118.4
0
LINE
8
BLACK
6
CONTINUOUS
10
25.75
20
-118.4
11
25.75
21
-116.4
0
LINE
8
BLACK
6
CONTINUOUS
10
25.75
20
-116.4
11
26.85
21
-116.4
0
LINE
8
BLACK
6
CONTINUOUS
10
26.85
20
-116.4
11
26.85
21
-118.4
0
LINE
8
BLACK
6
CONTINUOUS
10
48.5457
20
-116.919
11
48.6268
21
-116.973
0
LINE
8
BLACK
6
CONTINUOUS
10
48.6268
20
-116.973
11
48.681
21
-117.054
0
LINE
8
BLACK
6
CONTINUOUS
10
48.681
20
-117.054
11
48.7
21
-117.15
0
LINE
8
BLACK
6
CONTINUOUS
10
48.7
20
-117.15
11
48.7
21
-117.675
0
LINE
8
BLACK
6
CONTINUOUS
10
48.7
20
-117.675
11
48.681
21
-117.771
0
LINE
8
BLACK
6
CONTINUOUS
10
48.681
20
-117.771
11
48.6268
21
-117.852
0
LINE
8
BLACK
6
CONTINUOUS
10
48.6268
20
-117.852
11
48.5457
21
-117.906
0
LINE
8
BLACK
6
CONTINUOUS
10
48.5457
20
-117.906
11
48.45
21
-117.925
0
LINE
8
BLACK
6
CONTINUOUS
10
48.45
20
-117.925
11
47.55
21
-117.925
0
LINE
8
BLACK
6
CONTINUOUS
10
47.55
20
-117.925
11
47.4543
21
-117.906
0
LINE
8
BLACK
6
CONTINUOUS
10
47.4543
20
-117.906
11
47.3732
21
-117.852
0
LINE
8
BLACK
6
CONTINUOUS
10
47.3732
20
-117.852
11
47.319
21
-117.771
0
LINE
8
BLACK
6
CONTINUOUS
10
47.319
20
-117.771
11
47.3
21
-117.675
0
LINE
8
BLACK
6
CONTINUOUS
10
47.3
20
-117.675
11
47.3
21
-117.15
0
LINE
8
BLACK
6
CONTINUOUS
10
47.3
20
-117.15
11
47.319
21
-117.054
0
LINE
8
BLACK
6
CONTINUOUS
10
47.319
20
-117.054
11
47.3732
21
-116.973
0
LINE
8
BLACK
6
CONTINUOUS
10
47.3732
20
-116.973
11
47.4543
21
-116.919
0
LINE
8
BLACK
6
CONTINUOUS
10
47.4543
20
-116.919
11
47.55
21
-116.9
0
LINE
8
BLACK
6
CONTINUOUS
10
47.55
20
-116.9
11
48.45
21
-116.9
0
LINE
8
BLACK
6
CONTINUOUS
10
48.45
20
-116.9
11
48.5457
21
-116.919
0
LINE
8
BLACK
6
CONTINUOUS
10
44.5457
20
-116.919
11
44.6268
21
-116.973
0
LINE
8
BLACK
6
CONTINUOUS
10
44.6268
20
-116.973
11
44.681
21
-117.054
0
LINE
8
BLACK
6
CONTINUOUS
10
44.681
20
-117.054
11
44.7
21
-117.15
0
LINE
8
BLACK
6
CONTINUOUS
10
44.7
20
-117.15
11
44.7
21
-117.675
0
LINE
8
BLACK
6
CONTINUOUS
10
44.7
20
-117.675
11
44.681
21
-117.771
0
LINE
8
BLACK
6
CONTINUOUS
10
44.681
20
-117.771
11
44.6268
21
-117.852
0
LINE
8
BLACK
6
CONTINUOUS
10
44.6268
20
-117.852
11
44.5457
21
-117.906
0
LINE
8
BLACK
6
CONTINUOUS
10
44.5457
20
-117.906
11
44.45
21
-117.925
0
LINE
8
BLACK
6
CONTINUOUS
10
44.45
20
-117.925
11
43.55
21
-117.925
0
LINE
8
BLACK
6
CONTINUOUS
10
43.55
20
-117.925
11
43.4543
21
-117.906
0
LINE
8
BLACK
6
CONTINUOUS
10
43.4543
20
-117.906
11
43.3732
21
-117.852
0
LINE
8
BLACK
6
CONTINUOUS
10
43.3732
20
-117.852
11
43.319
21
-117.771
0
LINE
8
BLACK
6
CONTINUOUS
10
43.319
20
-117.771
11
43.3
21
-117.675
0
LINE
8
BLACK
6
CONTINUOUS
10
43.3
20
-117.675
11
43.3
21
-117.15
0
LINE
8
BLACK
6
CONTINUOUS
10
43.3
20
-117.15
11
43.319
21
-117.054
0
LINE
8
BLACK
6
CONTINUOUS
10
43.319
20
-117.054
11
43.3732
21
-116.973
0
LINE
8
BLACK
6
CONTINUOUS
10
43.3732
20
-116.973
11
43.4543
21
-116.919
0
LINE
8
BLACK
6
CONTINUOUS
10
43.4543
20
-116.919
11
43.55
21
-116.9
0
LINE
8
BLACK
6
CONTINUOUS
10
43.55
20
-116.9
11
44.45
21
-116.9
0
LINE
8
BLACK
6
CONTINUOUS
10
44.45
20
-116.9
11
44.5457
21
-116.919
0
LINE
8
BLACK
6
CONTINUOUS
10
32.5457
20
-116.919
11
32.6268
21
-116.973
0
LINE
8
BLACK
6
CONTINUOUS
10
32.6268
20
-116.973
11
32.681
21
-117.054
0
LINE
8
BLACK
6
CONTINUOUS
10
32.681
20
-117.054
11
32.7
21
-117.15
0
LINE
8
BLACK
6
CONTINUOUS
10
32.7
20
-117.15
11
32.7
21
-117.675
0
LINE
8
BLACK
6
CONTINUOUS
10
32.7
20
-117.675
11
32.681
21
-117.771
0
LINE
8
BLACK
6
CONTINUOUS
10
32.681
20
-117.771
11
32.6268
21
-117.852
0
LINE
8
BLACK
6
CONTINUOUS
10
32.6268
20
-117.852
11
32.5457
21
-117.906
0
LINE
8
BLACK
6
CONTINUOUS
10
32.5457
20
-117.906
11
32.45
21
-117.925
0
LINE
8
BLACK
6
CONTINUOUS
10
32.45
20
-117.925
11
31.55
21
-117.925
0
LINE
8
BLACK
6
CONTINUOUS
10
31.55
20
-117.925
11
31.4543
21
-117.906
0
LINE
8
BLACK
6
CONTINUOUS
10
31.4543
20
-117.906
11
31.3732
21
-117.852
0
LINE
8
BLACK
6
CONTINUOUS
10
31.3732
20
-117.852
11
31.319
21
-117.771
0
LINE
8
BLACK
6
CONTINUOUS
10
31.319
20
-117.771
11
31.3
21
-117.675
0
LINE
8
BLACK
6
CONTINUOUS
10
31.3
20
-117.675
11
31.3
21
-117.15
0
LINE
8
BLACK
6
CONTINUOUS
10
31.3
20
-117.15
11
31.319
21
-117.054
0
LINE
8
BLACK
6
CONTINUOUS
10
31.319
20
-117.054
11
31.3732
21
-116.973
0
LINE
8
BLACK
6
CONTINUOUS
10
31.3732
20
-116.973
11
31.4543
21
-116.919
0
LINE
8
BLACK
6
CONTINUOUS
10
31.4543
20
-116.919
11
31.55
21
-116.9
0
LINE
8
BLACK
6
CONTINUOUS
10
31.55
20
-116.9
11
32.45
21
-116.9
0
LINE
8
BLACK
6
CONTINUOUS
10
32.45
20
-116.9
11
32.5457
21
-116.919
0
LINE
8
BLACK
6
CONTINUOUS
10
48.5457
20
-115.094
11
48.6268
21
-115.148
0
LINE
8
BLACK
6
CONTINUOUS
10
48.6268
20
-115.148
11
48.681
21
-115.229
0
LINE
8
BLACK
6
CONTINUOUS
10
48.681
20
-115.229
11
48.7
21
-115.325
0
LINE
8
BLACK
6
CONTINUOUS
10
48.7
20
-115.325
11
48.7
21
-115.85
0
LINE
8
BLACK
6
CONTINUOUS
10
48.7
20
-115.85
11
48.681
21
-115.946
0
LINE
8
BLACK
6
CONTINUOUS
10
48.681
20
-115.946
11
48.6268
21
-116.027
0
LINE
8
BLACK
6
CONTINUOUS
10
48.6268
20
-116.027
11
48.5457
21
-116.081
0
LINE
8
BLACK
6
CONTINUOUS
10
48.5457
20
-116.081
11
48.45
21
-116.1
0
LINE
8
BLACK
6
CONTINUOUS
10
48.45
20
-116.1
11
47.55
21
-116.1
0
LINE
8
BLACK
6
CONTINUOUS
10
47.55
20
-116.1
11
47.4543
21
-116.081
0
LINE
8
BLACK
6
CONTINUOUS
10
47.4543
20
-116.081
11
47.3732
21
-116.027
0
LINE
8
BLACK
6
CONTINUOUS
10
47.3732
20
-116.027
11
47.319
21
-115.946
0
LINE
8
BLACK
6
CONTINUOUS
10
47.319
20
-115.946
11
47.3
21
-115.85
0
LINE
8
BLACK
6
CONTINUOUS
10
47.3
20
-115.85
11
47.3
21
-115.325
0
LINE
8
BLACK
6
CONTINUOUS
10
47.3
20
-115.325
11
47.319
21
-115.229
0
LINE
8
BLACK
6
CONTINUOUS
10
47.319
20
-115.229
11
47.3732
21
-115.148
0
LINE
8
BLACK
6
CONTINUOUS
10
47.3732
20
-115.148
11
47.4543
21
-115.094
0
LINE
8
BLACK
6
CONTINUOUS
10
47.4543
20
-115.094
11
47.55
21
-115.075
0
LINE
8
BLACK
6
CONTINUOUS
10
47.55
20
-115.075
11
48.45
21
-115.075
0
LINE
8
BLACK
6
CONTINUOUS
10
48.45
20
-115.075
11
48.5457
21
-115.094
0
LINE
8
BLACK
6
CONTINUOUS
10
44.5457
20
-115.094
11
44.6268
21
-115.148
0
LINE
8
BLACK
6
CONTINUOUS
10
44.6268
20
-115.148
11
44.681
21
-115.229
0
LINE
8
BLACK
6
CONTINUOUS
10
44.681
20
-115.229
11
44.7
21
-115.325
0
LINE
8
BLACK
6
CONTINUOUS
10
44.7
20
-115.325
11
44.7
21
-115.85
0
LINE
8
BLACK
6
CONTINUOUS
10
44.7
20
-115.85
11
44.681
21
-115.946
0
LINE
8
BLACK
6
CONTINUOUS
10
44.681
20
-115.946
11
44.6268
21
-116.027
0
LINE
8
BLACK
6
CONTINUOUS
10
44.6268
20
-116.027
11
44.5457
21
-116.081
0
LINE
8
BLACK
6
CONTINUOUS
10
44.5457
20
-116.081
11
44.45
21
-116.1
0
LINE
8
BLACK
6
CONTINUOUS
10
44.45
20
-116.1
11
43.55
21
-116.1
0
LINE
8
BLACK
6
CONTINUOUS
10
43.55
20
-116.1
11
43.4543
21
-116.081
0
LINE
8
BLACK
6
CONTINUOUS
10
43.4543
20
-116.081
11
43.3732
21
-116.027
0
LINE
8
BLACK
6
CONTINUOUS
10
43.3732
20
-116.027
11
43.319
21
-115.946
0
LINE
8
BLACK
6
CONTINUOUS
10
43.319
20
-115.946
11
43.3
21
-115.85
0
LINE
8
BLACK
6
CONTINUOUS
10
43.3
20
-115.85
11
43.3
21
-115.325
0
LINE
8
BLACK
6
CONTINUOUS
10
43.3
20
-115.325
11
43.319
21
-115.229
0
LINE
8
BLACK
6
CONTINUOUS
10
43.319
20
-115.229
11
43.3732
21
-115.148
0
LINE
8
BLACK
6
CONTINUOUS
10
43.3732
20
-115.148
11
43.4543
21
-115.094
0
LINE
8
BLACK
6
CONTINUOUS
10
43.4543
20
-115.094
11
43.55
21
-115.075
0
LINE
8
BLACK
6
CONTINUOUS
10
43.55
20
-115.075
11
44.45
21
-115.075
0
LINE
8
BLACK
6
CONTINUOUS
10
44.45
20
-115.075
11
44.5457
21
-115.094
0
LINE
8
BLACK
6
CONTINUOUS
10
32.5457
20
-115.094
11
32.6268
21
-115.148
0
LINE
8
BLACK
6
CONTINUOUS
10
32.6268
20
-115.148
11
32.681
21
-115.229
0
LINE
8
BLACK
6
CONTINUOUS
10
32.681
20
-115.229
11
32.7
21
-115.325
0
LINE
8
BLACK
6
CONTINUOUS
10
32.7
20
-115.325
11
32.7
21
-115.85
0
LINE
8
BLACK
6
CONTINUOUS
10
32.7
20
-115.85
11
32.681
21
-115.946
0
LINE
8
BLACK
6
CONTINUOUS
10
32.681
20
-115.946
11
32.6268
21
-116.027
0
LINE
8
BLACK
6
CONTINUOUS
10
32.6268
20
-116.027
11
32.5457
21
-116.081
0
LINE
8
BLACK
6
CONTINUOUS
10
32.5457
20
-116.081
11
32.45
21
-116.1
0
LINE
8
BLACK
6
CONTINUOUS
10
32.45
20
-116.1
11
31.55
21
-116.1
0
LINE
8
BLACK
6
CONTINUOUS
10
31.55
20
-116.1
11
31.4543
21
-116.081
0
LINE
8
BLACK
6
CONTINUOUS
10
31.4543
20
-116.081
11
31.3732
21
-116.027
0
LINE
8
BLACK
6
CONTINUOUS
10
31.3732
20
-116.027
11
31.319
21
-115.946
0
LINE
8
BLACK
6
CONTINUOUS
10
31.319
20
-115.946
11
31.3
21
-115.85
0
LINE
8
BLACK
6
CONTINUOUS
10
31.3
20
-115.85
11
31.3
21
-115.325
0
LINE
8
BLACK
6
CONTINUOUS
10
31.3
20
-115.325
11
31.319
21
-115.229
0
LINE
8
BLACK
6
CONTINUOUS
10
31.319
20
-115.229
11
31.3732
21
-115.148
0
LINE
8
BLACK
6
CONTINUOUS
10
31.3732
20
-115.148
11
31.4543
21
-115.094
0
LINE
8
BLACK
6
CONTINUOUS
10
31.4543
20
-115.094
11
31.55
21
-115.075
0
LINE
8
BLACK
6
CONTINUOUS
10
31.55
20
-115.075
11
32.45
21
-115.075
0
LINE
8
BLACK
6
CONTINUOUS
10
32.45
20
-115.075
11
32.5457
21
-115.094
0
LINE
8
BLACK
6
CONTINUOUS
10
42.25
20
-114.171
11
41.15
21
-114.171
0
LINE
8
BLACK
6
CONTINUOUS
10
41.15
20
-114.171
11
41.15
21
-112.171
0
LINE
8
BLACK
6
CONTINUOUS
10
41.15
20
-112.171
11
42.25
21
-112.171
0
LINE
8
BLACK
6
CONTINUOUS
10
42.25
20
-112.171
11
42.25
21
-114.171
0
LINE
8
BLACK
6
CONTINUOUS
10
40.55
20
-114.171
11
39.45
21
-114.171
0
LINE
8
BLACK
6
CONTINUOUS
10
39.45
20
-114.171
11
39.45
21
-112.171
0
LINE
8
BLACK
6
CONTINUOUS
10
39.45
20
-112.171
11
40.55
21
-112.171
0
LINE
8
BLACK
6
CONTINUOUS
10
40.55
20
-112.171
11
40.55
21
-114.171
0
LINE
8
BLACK
6
CONTINUOUS
10
38.85
20
-114.171
11
37.75
21
-114.171
0
LINE
8
BLACK
6
CONTINUOUS
10
37.75
20
-114.171
11
37.75
21
-112.171
0
LINE
8
BLACK
6
CONTINUOUS
10
37.75
20
-112.171
11
38.85
21
-112.171
0
LINE
8
BLACK
6
CONTINUOUS
10
38.85
20
-112.171
11
38.85
21
-114.171
0
LINE
8
BLACK
6
CONTINUOUS
10
54.25
20
-113.6
11
53.15
21
-113.6
0
LINE
8
BLACK
6
CONTINUOUS
10
53.15
20
-113.6
11
53.15
21
-111.6
0
LINE
8
BLACK
6
CONTINUOUS
10
53.15
20
-111.6
11
54.25
21
-111.6
0
LINE
8
BLACK
6
CONTINUOUS
10
54.25
20
-111.6
11
54.25
21
-113.6
0
LINE
8
BLACK
6
CONTINUOUS
10
52.55
20
-113.6
11
51.45
21
-113.6
0
LINE
8
BLACK
6
CONTINUOUS
10
51.45
20
-113.6
11
51.45
21
-111.6
0
LINE
8
BLACK
6
CONTINUOUS
10
51.45
20
-111.6
11
52.55
21
-111.6
0
LINE
8
BLACK
6
CONTINUOUS
10
52.55
20
-111.6
11
52.55
21
-113.6
0
LINE
8
BLACK
6
CONTINUOUS
10
50.85
20
-113.6
11
49.75
21
-113.6
0
LINE
8
BLACK
6
CONTINUOUS
10
49.75
20
-113.6
11
49.75
21
-111.6
0
LINE
8
BLACK
6
CONTINUOUS
10
49.75
20
-111.6
11
50.85
21
-111.6
0
LINE
8
BLACK
6
CONTINUOUS
10
50.85
20
-111.6
11
50.85
21
-113.6
0
LINE
8
BLACK
6
CONTINUOUS
10
30.25
20
-113.6
11
29.15
21
-113.6
0
LINE
8
BLACK
6
CONTINUOUS
10
29.15
20
-113.6
11
29.15
21
-111.6
0
LINE
8
BLACK
6
CONTINUOUS
10
29.15
20
-111.6
11
30.25
21
-111.6
0
LINE
8
BLACK
6
CONTINUOUS
10
30.25
20
-111.6
11
30.25
21
-113.6
0
LINE
8
BLACK
6
CONTINUOUS
10
28.55
20
-113.6
11
27.45
21
-113.6
0
LINE
8
BLACK
6
CONTINUOUS
10
27.45
20
-113.6
11
27.45
21
-111.6
0
LINE
8
BLACK
6
CONTINUOUS
10
27.45
20
-111.6
11
28.55
21
-111.6
0
LINE
8
BLACK
6
CONTINUOUS
10
28.55
20
-111.6
11
28.55
21
-113.6
0
LINE
8
BLACK
6
CONTINUOUS
10
26.85
20
-113.6
11
25.75
21
-113.6
0
LINE
8
BLACK
6
CONTINUOUS
10
25.75
20
-113.6
11
25.75
21
-111.6
0
LINE
8
BLACK
6
CONTINUOUS
10
25.75
20
-111.6
11
26.85
21
-111.6
0
LINE
8
BLACK
6
CONTINUOUS
10
26.85
20
-111.6
11
26.85
21
-113.6
0
LINE
8
BLACK
6
CONTINUOUS
10
48.1056
20
-111.821
11
48.142
21
-111.845
0
LINE
8
BLACK
6
CONTINUOUS
10
48.142
20
-111.845
11
48.1664
21
-111.882
0
LINE
8
BLACK
6
CONTINUOUS
10
48.1664
20
-111.882
11
48.175
21
-111.925
0
LINE
8
BLACK
6
CONTINUOUS
10
48.175
20
-111.925
11
48.175
21
-112.3
0
LINE
8
BLACK
6
CONTINUOUS
10
48.175
20
-112.3
11
48.1664
21
-112.343
0
LINE
8
BLACK
6
CONTINUOUS
10
48.1664
20
-112.343
11
48.142
21
-112.38
0
LINE
8
BLACK
6
CONTINUOUS
10
48.142
20
-112.38
11
48.1056
21
-112.404
0
LINE
8
BLACK
6
CONTINUOUS
10
48.1056
20
-112.404
11
48.0625
21
-112.412
0
LINE
8
BLACK
6
CONTINUOUS
10
48.0625
20
-112.412
11
47.8375
21
-112.412
0
LINE
8
BLACK
6
CONTINUOUS
10
47.8375
20
-112.412
11
47.7944
21
-112.404
0
LINE
8
BLACK
6
CONTINUOUS
10
47.7944
20
-112.404
11
47.758
21
-112.38
0
LINE
8
BLACK
6
CONTINUOUS
10
47.758
20
-112.38
11
47.7336
21
-112.343
0
LINE
8
BLACK
6
CONTINUOUS
10
47.7336
20
-112.343
11
47.725
21
-112.3
0
LINE
8
BLACK
6
CONTINUOUS
10
47.725
20
-112.3
11
47.725
21
-111.925
0
LINE
8
BLACK
6
CONTINUOUS
10
47.725
20
-111.925
11
47.7336
21
-111.882
0
LINE
8
BLACK
6
CONTINUOUS
10
47.7336
20
-111.882
11
47.758
21
-111.845
0
LINE
8
BLACK
6
CONTINUOUS
10
47.758
20
-111.845
11
47.7944
21
-111.821
0
LINE
8
BLACK
6
CONTINUOUS
10
47.7944
20
-111.821
11
47.8375
21
-111.812
0
LINE
8
BLACK
6
CONTINUOUS
10
47.8375
20
-111.812
11
48.0625
21
-111.812
0
LINE
8
BLACK
6
CONTINUOUS
10
48.0625
20
-111.812
11
48.1056
21
-111.821
0
LINE
8
BLACK
6
CONTINUOUS
10
45.2074
20
-109.711
11
45.2561
21
-109.744
0
LINE
8
BLACK
6
CONTINUOUS
10
45.2561
20
-109.744
11
45.2886
21
-109.793
0
LINE
8
BLACK
6
CONTINUOUS
10
45.2886
20
-109.793
11
45.3
21
-109.85
0
LINE
8
BLACK
6
CONTINUOUS
10
45.3
20
-109.85
11
45.3
21
-111.025
0
LINE
8
BLACK
6
CONTINUOUS
10
45.3
20
-111.025
11
45.2886
21
-111.082
0
LINE
8
BLACK
6
CONTINUOUS
10
45.2886
20
-111.082
11
45.2561
21
-111.131
0
LINE
8
BLACK
6
CONTINUOUS
10
45.2561
20
-111.131
11
45.2074
21
-111.164
0
LINE
8
BLACK
6
CONTINUOUS
10
45.2074
20
-111.164
11
45.15
21
-111.175
0
LINE
8
BLACK
6
CONTINUOUS
10
45.15
20
-111.175
11
44.85
21
-111.175
0
LINE
8
BLACK
6
CONTINUOUS
10
44.85
20
-111.175
11
44.7926
21
-111.164
0
LINE
8
BLACK
6
CONTINUOUS
10
44.7926
20
-111.164
11
44.7439
21
-111.131
0
LINE
8
BLACK
6
CONTINUOUS
10
44.7439
20
-111.131
11
44.7114
21
-111.082
0
LINE
8
BLACK
6
CONTINUOUS
10
44.7114
20
-111.082
11
44.7
21
-111.025
0
LINE
8
BLACK
6
CONTINUOUS
10
44.7
20
-111.025
11
44.7
21
-109.85
0
LINE
8
BLACK
6
CONTINUOUS
10
44.7
20
-109.85
11
44.7114
21
-109.793
0
LINE
8
BLACK
6
CONTINUOUS
10
44.7114
20
-109.793
11
44.7439
21
-109.744
0
LINE
8
BLACK
6
CONTINUOUS
10
44.7439
20
-109.744
11
44.7926
21
-109.711
0
LINE
8
BLACK
6
CONTINUOUS
10
44.7926
20
-109.711
11
44.85
21
-109.7
0
LINE
8
BLACK
6
CONTINUOUS
10
44.85
20
-109.7
11
45.15
21
-109.7
0
LINE
8
BLACK
6
CONTINUOUS
10
45.15
20
-109.7
11
45.2074
21
-109.711
0
LINE
8
BLACK
6
CONTINUOUS
10
34.3682
20
-107.546
11
34.6025
21
-107.626
0
LINE
8
BLACK
6
CONTINUOUS
10
34.6025
20
-107.626
11
34.8204
21
-107.744
0
LINE
8
BLACK
6
CONTINUOUS
10
34.8204
20
-107.744
11
35.0159
21
-107.896
0
LINE
8
BLACK
6
CONTINUOUS
10
35.0159
20
-107.896
11
35.1837
21
-108.079
0
LINE
8
BLACK
6
CONTINUOUS
10
35.1837
20
-108.079
11
35.3192
21
-108.286
0
LINE
8
BLACK
6
CONTINUOUS
10
35.3192
20
-108.286
11
35.4187
21
-108.513
0
LINE
8
BLACK
6
CONTINUOUS
10
35.4187
20
-108.513
11
35.4795
21
-108.753
0
LINE
8
BLACK
6
CONTINUOUS
10
35.4795
20
-108.753
11
35.5
21
-109
0
LINE
8
BLACK
6
CONTINUOUS
10
35.5
20
-109
11
35.4795
21
-109.247
0
LINE
8
BLACK
6
CONTINUOUS
10
35.4795
20
-109.247
11
35.4187
21
-109.487
0
LINE
8
BLACK
6
CONTINUOUS
10
35.4187
20
-109.487
11
35.3192
21
-109.714
0
LINE
8
BLACK
6
CONTINUOUS
10
35.3192
20
-109.714
11
35.1837
21
-109.921
0
LINE
8
BLACK
6
CONTINUOUS
10
35.1837
20
-109.921
11
35.0159
21
-110.104
0
LINE
8
BLACK
6
CONTINUOUS
10
35.0159
20
-110.104
11
34.8204
21
-110.256
0
LINE
8
BLACK
6
CONTINUOUS
10
34.8204
20
-110.256
11
34.6025
21
-110.374
0
LINE
8
BLACK
6
CONTINUOUS
10
34.6025
20
-110.374
11
34.3682
21
-110.454
0
LINE
8
BLACK
6
CONTINUOUS
10
34.3682
20
-110.454
11
34.1239
21
-110.495
0
LINE
8
BLACK
6
CONTINUOUS
10
34.1239
20
-110.495
11
33.8761
21
-110.495
0
LINE
8
BLACK
6
CONTINUOUS
10
33.8761
20
-110.495
11
33.6318
21
-110.454
0
LINE
8
BLACK
6
CONTINUOUS
10
33.6318
20
-110.454
11
33.3975
21
-110.374
0
LINE
8
BLACK
6
CONTINUOUS
10
33.3975
20
-110.374
11
33.1796
21
-110.256
0
LINE
8
BLACK
6
CONTINUOUS
10
33.1796
20
-110.256
11
32.9841
21
-110.104
0
LINE
8
BLACK
6
CONTINUOUS
10
32.9841
20
-110.104
11
32.8163
21
-109.921
0
LINE
8
BLACK
6
CONTINUOUS
10
32.8163
20
-109.921
11
32.6808
21
-109.714
0
LINE
8
BLACK
6
CONTINUOUS
10
32.6808
20
-109.714
11
32.5813
21
-109.487
0
LINE
8
BLACK
6
CONTINUOUS
10
32.5813
20
-109.487
11
32.5205
21
-109.247
0
LINE
8
BLACK
6
CONTINUOUS
10
32.5205
20
-109.247
11
32.5
21
-109
0
LINE
8
BLACK
6
CONTINUOUS
10
32.5
20
-109
11
32.5205
21
-108.753
0
LINE
8
BLACK
6
CONTINUOUS
10
32.5205
20
-108.753
11
32.5813
21
-108.513
0
LINE
8
BLACK
6
CONTINUOUS
10
32.5813
20
-108.513
11
32.6808
21
-108.286
0
LINE
8
BLACK
6
CONTINUOUS
10
32.6808
20
-108.286
11
32.8163
21
-108.079
0
LINE
8
BLACK
6
CONTINUOUS
10
32.8163
20
-108.079
11
32.9841
21
-107.896
0
LINE
8
BLACK
6
CONTINUOUS
10
32.9841
20
-107.896
11
33.1796
21
-107.744
0
LINE
8
BLACK
6
CONTINUOUS
10
33.1796
20
-107.744
11
33.3975
21
-107.626
0
LINE
8
BLACK
6
CONTINUOUS
10
33.3975
20
-107.626
11
33.6318
21
-107.546
0
LINE
8
BLACK
6
CONTINUOUS
10
33.6318
20
-107.546
11
33.8761
21
-107.505
0
LINE
8
BLACK
6
CONTINUOUS
10
33.8761
20
-107.505
11
34.1239
21
-107.505
0
LINE
8
BLACK
6
CONTINUOUS
10
34.1239
20
-107.505
11
34.3682
21
-107.546
0
LINE
8
BLACK
6
CONTINUOUS
10
48.1056
20
-109.721
11
48.142
21
-109.745
0
LINE
8
BLACK
6
CONTINUOUS
10
48.142
20
-109.745
11
48.1664
21
-109.782
0
LINE
8
BLACK
6
CONTINUOUS
10
48.1664
20
-109.782
11
48.175
21
-109.825
0
LINE
8
BLACK
6
CONTINUOUS
10
48.175
20
-109.825
11
48.175
21
-110.2
0
LINE
8
BLACK
6
CONTINUOUS
10
48.175
20
-110.2
11
48.1664
21
-110.243
0
LINE
8
BLACK
6
CONTINUOUS
10
48.1664
20
-110.243
11
48.142
21
-110.28
0
LINE
8
BLACK
6
CONTINUOUS
10
48.142
20
-110.28
11
48.1056
21
-110.304
0
LINE
8
BLACK
6
CONTINUOUS
10
48.1056
20
-110.304
11
48.0625
21
-110.312
0
LINE
8
BLACK
6
CONTINUOUS
10
48.0625
20
-110.312
11
47.8375
21
-110.312
0
LINE
8
BLACK
6
CONTINUOUS
10
47.8375
20
-110.312
11
47.7944
21
-110.304
0
LINE
8
BLACK
6
CONTINUOUS
10
47.7944
20
-110.304
11
47.758
21
-110.28
0
LINE
8
BLACK
6
CONTINUOUS
10
47.758
20
-110.28
11
47.7336
21
-110.243
0
LINE
8
BLACK
6
CONTINUOUS
10
47.7336
20
-110.243
11
47.725
21
-110.2
0
LINE
8
BLACK
6
CONTINUOUS
10
47.725
20
-110.2
11
47.725
21
-109.825
0
LINE
8
BLACK
6
CONTINUOUS
10
47.725
20
-109.825
11
47.7336
21
-109.782
0
LINE
8
BLACK
6
CONTINUOUS
10
47.7336
20
-109.782
11
47.758
21
-109.745
0
LINE
8
BLACK
6
CONTINUOUS
10
47.758
20
-109.745
11
47.7944
21
-109.721
0
LINE
8
BLACK
6
CONTINUOUS
10
47.7944
20
-109.721
11
47.8375
21
-109.712
0
LINE
8
BLACK
6
CONTINUOUS
10
47.8375
20
-109.712
11
48.0625
21
-109.712
0
LINE
8
BLACK
6
CONTINUOUS
10
48.0625
20
-109.712
11
48.1056
21
-109.721
0
LINE
8
BLACK
6
CONTINUOUS
10
54.25
20
-110.25
11
52.25
21
-110.25
0
LINE
8
BLACK
6
CONTINUOUS
10
52.25
20
-110.25
11
52.25
21
-108.25
0
LINE
8
BLACK
6
CONTINUOUS
10
52.25
20
-108.25
11
54.25
21
-108.25
0
LINE
8
BLACK
6
CONTINUOUS
10
54.25
20
-108.25
11
54.25
21
-110.25
0
LINE
8
BLACK
6
CONTINUOUS
10
27.75
20
-110.25
11
25.75
21
-110.25
0
LINE
8
BLACK
6
CONTINUOUS
10
25.75
20
-110.25
11
25.75
21
-108.25
0
LINE
8
BLACK
6
CONTINUOUS
10
25.75
20
-108.25
11
27.75
21
-108.25
0
LINE
8
BLACK
6
CONTINUOUS
10
27.75
20
-108.25
11
27.75
21
-110.25
0
LINE
8
BLACK
6
CONTINUOUS
10
46.1574
20
-107.836
11
46.2061
21
-107.869
0
LINE
8
BLACK
6
CONTINUOUS
10
46.2061
20
-107.869
11
46.2386
21
-107.918
0
LINE
8
BLACK
6
CONTINUOUS
10
46.2386
20
-107.918
11
46.25
21
-107.975
0
LINE
8
BLACK
6
CONTINUOUS
10
46.25
20
-107.975
11
46.25
21
-109.15
0
LINE
8
BLACK
6
CONTINUOUS
10
46.25
20
-109.15
11
46.2386
21
-109.207
0
LINE
8
BLACK
6
CONTINUOUS
10
46.2386
20
-109.207
11
46.2061
21
-109.256
0
LINE
8
BLACK
6
CONTINUOUS
10
46.2061
20
-109.256
11
46.1574
21
-109.289
0
LINE
8
BLACK
6
CONTINUOUS
10
46.1574
20
-109.289
11
46.1
21
-109.3
0
LINE
8
BLACK
6
CONTINUOUS
10
46.1
20
-109.3
11
45.8
21
-109.3
0
LINE
8
BLACK
6
CONTINUOUS
10
45.8
20
-109.3
11
45.7426
21
-109.289
0
LINE
8
BLACK
6
CONTINUOUS
10
45.7426
20
-109.289
11
45.6939
21
-109.256
0
LINE
8
BLACK
6
CONTINUOUS
10
45.6939
20
-109.256
11
45.6614
21
-109.207
0
LINE
8
BLACK
6
CONTINUOUS
10
45.6614
20
-109.207
11
45.65
21
-109.15
0
LINE
8
BLACK
6
CONTINUOUS
10
45.65
20
-109.15
11
45.65
21
-107.975
0
LINE
8
BLACK
6
CONTINUOUS
10
45.65
20
-107.975
11
45.6614
21
-107.918
0
LINE
8
BLACK
6
CONTINUOUS
10
45.6614
20
-107.918
11
45.6939
21
-107.869
0
LINE
8
BLACK
6
CONTINUOUS
10
45.6939
20
-107.869
11
45.7426
21
-107.836
0
LINE
8
BLACK
6
CONTINUOUS
10
45.7426
20
-107.836
11
45.8
21
-107.825
0
LINE
8
BLACK
6
CONTINUOUS
10
45.8
20
-107.825
11
46.1
21
-107.825
0
LINE
8
BLACK
6
CONTINUOUS
10
46.1
20
-107.825
11
46.1574
21
-107.836
0
LINE
8
BLACK
6
CONTINUOUS
10
44.2574
20
-107.836
11
44.3061
21
-107.869
0
LINE
8
BLACK
6
CONTINUOUS
10
44.3061
20
-107.869
11
44.3386
21
-107.918
0
LINE
8
BLACK
6
CONTINUOUS
10
44.3386
20
-107.918
11
44.35
21
-107.975
0
LINE
8
BLACK
6
CONTINUOUS
10
44.35
20
-107.975
11
44.35
21
-109.15
0
LINE
8
BLACK
6
CONTINUOUS
10
44.35
20
-109.15
11
44.3386
21
-109.207
0
LINE
8
BLACK
6
CONTINUOUS
10
44.3386
20
-109.207
11
44.3061
21
-109.256
0
LINE
8
BLACK
6
CONTINUOUS
10
44.3061
20
-109.256
11
44.2574
21
-109.289
0
LINE
8
BLACK
6
CONTINUOUS
10
44.2574
20
-109.289
11
44.2
21
-109.3
0
LINE
8
BLACK
6
CONTINUOUS
10
44.2
20
-109.3
11
43.9
21
-109.3
0
LINE
8
BLACK
6
CONTINUOUS
10
43.9
20
-109.3
11
43.8426
21
-109.289
0
LINE
8
BLACK
6
CONTINUOUS
10
43.8426
20
-109.289
11
43.7939
21
-109.256
0
LINE
8
BLACK
6
CONTINUOUS
10
43.7939
20
-109.256
11
43.7614
21
-109.207
0
LINE
8
BLACK
6
CONTINUOUS
10
43.7614
20
-109.207
11
43.75
21
-109.15
0
LINE
8
BLACK
6
CONTINUOUS
10
43.75
20
-109.15
11
43.75
21
-107.975
0
LINE
8
BLACK
6
CONTINUOUS
10
43.75
20
-107.975
11
43.7614
21
-107.918
0
LINE
8
BLACK
6
CONTINUOUS
10
43.7614
20
-107.918
11
43.7939
21
-107.869
0
LINE
8
BLACK
6
CONTINUOUS
10
43.7939
20
-107.869
11
43.8426
21
-107.836
0
LINE
8
BLACK
6
CONTINUOUS
10
43.8426
20
-107.836
11
43.9
21
-107.825
0
LINE
8
BLACK
6
CONTINUOUS
10
43.9
20
-107.825
11
44.2
21
-107.825
0
LINE
8
BLACK
6
CONTINUOUS
10
44.2
20
-107.825
11
44.2574
21
-107.836
0
LINE
8
BLACK
6
CONTINUOUS
10
48.5457
20
-107.919
11
48.6268
21
-107.973
0
LINE
8
BLACK
6
CONTINUOUS
10
48.6268
20
-107.973
11
48.681
21
-108.054
0
LINE
8
BLACK
6
CONTINUOUS
10
48.681
20
-108.054
11
48.7
21
-108.15
0
LINE
8
BLACK
6
CONTINUOUS
10
48.7
20
-108.15
11
48.7
21
-108.675
0
LINE
8
BLACK
6
CONTINUOUS
10
48.7
20
-108.675
11
48.681
21
-108.771
0
LINE
8
BLACK
6
CONTINUOUS
10
48.681
20
-108.771
11
48.6268
21
-108.852
0
LINE
8
BLACK
6
CONTINUOUS
10
48.6268
20
-108.852
11
48.5457
21
-108.906
0
LINE
8
BLACK
6
CONTINUOUS
10
48.5457
20
-108.906
11
48.45
21
-108.925
0
LINE
8
BLACK
6
CONTINUOUS
10
48.45
20
-108.925
11
47.55
21
-108.925
0
LINE
8
BLACK
6
CONTINUOUS
10
47.55
20
-108.925
11
47.4543
21
-108.906
0
LINE
8
BLACK
6
CONTINUOUS
10
47.4543
20
-108.906
11
47.3732
21
-108.852
0
LINE
8
BLACK
6
CONTINUOUS
10
47.3732
20
-108.852
11
47.319
21
-108.771
0
LINE
8
BLACK
6
CONTINUOUS
10
47.319
20
-108.771
11
47.3
21
-108.675
0
LINE
8
BLACK
6
CONTINUOUS
10
47.3
20
-108.675
11
47.3
21
-108.15
0
LINE
8
BLACK
6
CONTINUOUS
10
47.3
20
-108.15
11
47.319
21
-108.054
0
LINE
8
BLACK
6
CONTINUOUS
10
47.319
20
-108.054
11
47.3732
21
-107.973
0
LINE
8
BLACK
6
CONTINUOUS
10
47.3732
20
-107.973
11
47.4543
21
-107.919
0
LINE
8
BLACK
6
CONTINUOUS
10
47.4543
20
-107.919
11
47.55
21
-107.9
0
LINE
8
BLACK
6
CONTINUOUS
10
47.55
20
-107.9
11
48.45
21
-107.9
0
LINE
8
BLACK
6
CONTINUOUS
10
48.45
20
-107.9
11
48.5457
21
-107.919
0
LINE
8
BLACK
6
CONTINUOUS
10
42.25
20
-107.543
11
41.15
21
-107.543
0
LINE
8
BLACK
6
CONTINUOUS
10
41.15
20
-107.543
11
41.15
21
-105.543
0
LINE
8
BLACK
6
CONTINUOUS
10
41.15
20
-105.543
11
42.25
21
-105.543
0
LINE
8
BLACK
6
CONTINUOUS
10
42.25
20
-105.543
11
42.25
21
-107.543
0
LINE
8
BLACK
6
CONTINUOUS
10
40.55
20
-107.543
11
39.45
21
-107.543
0
LINE
8
BLACK
6
CONTINUOUS
10
39.45
20
-107.543
11
39.45
21
-105.543
0
LINE
8
BLACK
6
CONTINUOUS
10
39.45
20
-105.543
11
40.55
21
-105.543
0
LINE
8
BLACK
6
CONTINUOUS
10
40.55
20
-105.543
11
40.55
21
-107.543
0
LINE
8
BLACK
6
CONTINUOUS
10
38.85
20
-107.543
11
37.75
21
-107.543
0
LINE
8
BLACK
6
CONTINUOUS
10
37.75
20
-107.543
11
37.75
21
-105.543
0
LINE
8
BLACK
6
CONTINUOUS
10
37.75
20
-105.543
11
38.85
21
-105.543
0
LINE
8
BLACK
6
CONTINUOUS
10
38.85
20
-105.543
11
38.85
21
-107.543
0
LINE
8
BLACK
6
CONTINUOUS
10
46.2707
20
-105.819
11
46.3518
21
-105.873
0
LINE
8
BLACK
6
CONTINUOUS
10
46.3518
20
-105.873
11
46.406
21
-105.954
0
LINE
8
BLACK
6
CONTINUOUS
10
46.406
20
-105.954
11
46.425
21
-106.05
0
LINE
8
BLACK
6
CONTINUOUS
10
46.425
20
-106.05
11
46.425
21
-106.95
0
LINE
8
BLACK
6
CONTINUOUS
10
46.425
20
-106.95
11
46.406
21
-107.046
0
LINE
8
BLACK
6
CONTINUOUS
10
46.406
20
-107.046
11
46.3518
21
-107.127
0
LINE
8
BLACK
6
CONTINUOUS
10
46.3518
20
-107.127
11
46.2707
21
-107.181
0
LINE
8
BLACK
6
CONTINUOUS
10
46.2707
20
-107.181
11
46.175
21
-107.2
0
LINE
8
BLACK
6
CONTINUOUS
10
46.175
20
-107.2
11
45.65
21
-107.2
0
LINE
8
BLACK
6
CONTINUOUS
10
45.65
20
-107.2
11
45.5543
21
-107.181
0
LINE
8
BLACK
6
CONTINUOUS
10
45.5543
20
-107.181
11
45.4732
21
-107.127
0
LINE
8
BLACK
6
CONTINUOUS
10
45.4732
20
-107.127
11
45.419
21
-107.046
0
LINE
8
BLACK
6
CONTINUOUS
10
45.419
20
-107.046
11
45.4
21
-106.95
0
LINE
8
BLACK
6
CONTINUOUS
10
45.4
20
-106.95
11
45.4
21
-106.05
0
LINE
8
BLACK
6
CONTINUOUS
10
45.4
20
-106.05
11
45.419
21
-105.954
0
LINE
8
BLACK
6
CONTINUOUS
10
45.419
20
-105.954
11
45.4732
21
-105.873
0
LINE
8
BLACK
6
CONTINUOUS
10
45.4732
20
-105.873
11
45.5543
21
-105.819
0
LINE
8
BLACK
6
CONTINUOUS
10
45.5543
20
-105.819
11
45.65
21
-105.8
0
LINE
8
BLACK
6
CONTINUOUS
10
45.65
20
-105.8
11
46.175
21
-105.8
0
LINE
8
BLACK
6
CONTINUOUS
10
46.175
20
-105.8
11
46.2707
21
-105.819
0
LINE
8
BLACK
6
CONTINUOUS
10
44.4457
20
-105.819
11
44.5268
21
-105.873
0
LINE
8
BLACK
6
CONTINUOUS
10
44.5268
20
-105.873
11
44.581
21
-105.954
0
LINE
8
BLACK
6
CONTINUOUS
10
44.581
20
-105.954
11
44.6
21
-106.05
0
LINE
8
BLACK
6
CONTINUOUS
10
44.6
20
-106.05
11
44.6
21
-106.95
0
LINE
8
BLACK
6
CONTINUOUS
10
44.6
20
-106.95
11
44.581
21
-107.046
0
LINE
8
BLACK
6
CONTINUOUS
10
44.581
20
-107.046
11
44.5268
21
-107.127
0
LINE
8
BLACK
6
CONTINUOUS
10
44.5268
20
-107.127
11
44.4457
21
-107.181
0
LINE
8
BLACK
6
CONTINUOUS
10
44.4457
20
-107.181
11
44.35
21
-107.2
0
LINE
8
BLACK
6
CONTINUOUS
10
44.35
20
-107.2
11
43.825
21
-107.2
0
LINE
8
BLACK
6
CONTINUOUS
10
43.825
20
-107.2
11
43.7293
21
-107.181
0
LINE
8
BLACK
6
CONTINUOUS
10
43.7293
20
-107.181
11
43.6482
21
-107.127
0
LINE
8
BLACK
6
CONTINUOUS
10
43.6482
20
-107.127
11
43.594
21
-107.046
0
LINE
8
BLACK
6
CONTINUOUS
10
43.594
20
-107.046
11
43.575
21
-106.95
0
LINE
8
BLACK
6
CONTINUOUS
10
43.575
20
-106.95
11
43.575
21
-106.05
0
LINE
8
BLACK
6
CONTINUOUS
10
43.575
20
-106.05
11
43.594
21
-105.954
0
LINE
8
BLACK
6
CONTINUOUS
10
43.594
20
-105.954
11
43.6482
21
-105.873
0
LINE
8
BLACK
6
CONTINUOUS
10
43.6482
20
-105.873
11
43.7293
21
-105.819
0
LINE
8
BLACK
6
CONTINUOUS
10
43.7293
20
-105.819
11
43.825
21
-105.8
0
LINE
8
BLACK
6
CONTINUOUS
10
43.825
20
-105.8
11
44.35
21
-105.8
0
LINE
8
BLACK
6
CONTINUOUS
10
44.35
20
-105.8
11
44.4457
21
-105.819
0
LINE
8
BLACK
6
CONTINUOUS
10
48.5457
20
-106.094
11
48.6268
21
-106.148
0
LINE
8
BLACK
6
CONTINUOUS
10
48.6268
20
-106.148
11
48.681
21
-106.229
0
LINE
8
BLACK
6
CONTINUOUS
10
48.681
20
-106.229
11
48.7
21
-106.325
0
LINE
8
BLACK
6
CONTINUOUS
10
48.7
20
-106.325
11
48.7
21
-106.85
0
LINE
8
BLACK
6
CONTINUOUS
10
48.7
20
-106.85
11
48.681
21
-106.946
0
LINE
8
BLACK
6
CONTINUOUS
10
48.681
20
-106.946
11
48.6268
21
-107.027
0
LINE
8
BLACK
6
CONTINUOUS
10
48.6268
20
-107.027
11
48.5457
21
-107.081
0
LINE
8
BLACK
6
CONTINUOUS
10
48.5457
20
-107.081
11
48.45
21
-107.1
0
LINE
8
BLACK
6
CONTINUOUS
10
48.45
20
-107.1
11
47.55
21
-107.1
0
LINE
8
BLACK
6
CONTINUOUS
10
47.55
20
-107.1
11
47.4543
21
-107.081
0
LINE
8
BLACK
6
CONTINUOUS
10
47.4543
20
-107.081
11
47.3732
21
-107.027
0
LINE
8
BLACK
6
CONTINUOUS
10
47.3732
20
-107.027
11
47.319
21
-106.946
0
LINE
8
BLACK
6
CONTINUOUS
10
47.319
20
-106.946
11
47.3
21
-106.85
0
LINE
8
BLACK
6
CONTINUOUS
10
47.3
20
-106.85
11
47.3
21
-106.325
0
LINE
8
BLACK
6
CONTINUOUS
10
47.3
20
-106.325
11
47.319
21
-106.229
0
LINE
8
BLACK
6
CONTINUOUS
10
47.319
20
-106.229
11
47.3732
21
-106.148
0
LINE
8
BLACK
6
CONTINUOUS
10
47.3732
20
-106.148
11
47.4543
21
-106.094
0
LINE
8
BLACK
6
CONTINUOUS
10
47.4543
20
-106.094
11
47.55
21
-106.075
0
LINE
8
BLACK
6
CONTINUOUS
10
47.55
20
-106.075
11
48.45
21
-106.075
0
LINE
8
BLACK
6
CONTINUOUS
10
48.45
20
-106.075
11
48.5457
21
-106.094
0
LINE
8
BLACK
6
CONTINUOUS
10
54.25
20
-104.4
11
53.15
21
-104.4
0
LINE
8
BLACK
6
CONTINUOUS
10
53.15
20
-104.4
11
53.15
21
-102.4
0
LINE
8
BLACK
6
CONTINUOUS
10
53.15
20
-102.4
11
54.25
21
-102.4
0
LINE
8
BLACK
6
CONTINUOUS
10
54.25
20
-102.4
11
54.25
21
-104.4
0
LINE
8
BLACK
6
CONTINUOUS
10
52.55
20
-104.4
11
51.45
21
-104.4
0
LINE
8
BLACK
6
CONTINUOUS
10
51.45
20
-104.4
11
51.45
21
-102.4
0
LINE
8
BLACK
6
CONTINUOUS
10
51.45
20
-102.4
11
52.55
21
-102.4
0
LINE
8
BLACK
6
CONTINUOUS
10
52.55
20
-102.4
11
52.55
21
-104.4
0
LINE
8
BLACK
6
CONTINUOUS
10
50.85
20
-104.4
11
49.75
21
-104.4
0
LINE
8
BLACK
6
CONTINUOUS
10
49.75
20
-104.4
11
49.75
21
-102.4
0
LINE
8
BLACK
6
CONTINUOUS
10
49.75
20
-102.4
11
50.85
21
-102.4
0
LINE
8
BLACK
6
CONTINUOUS
10
50.85
20
-102.4
11
50.85
21
-104.4
0
LINE
8
BLACK
6
CONTINUOUS
10
30.25
20
-104.4
11
29.15
21
-104.4
0
LINE
8
BLACK
6
CONTINUOUS
10
29.15
20
-104.4
11
29.15
21
-102.4
0
LINE
8
BLACK
6
CONTINUOUS
10
29.15
20
-102.4
11
30.25
21
-102.4
0
LINE
8
BLACK
6
CONTINUOUS
10
30.25
20
-102.4
11
30.25
21
-104.4
0
LINE
8
BLACK
6
CONTINUOUS
10
28.55
20
-104.4
11
27.45
21
-104.4
0
LINE
8
BLACK
6
CONTINUOUS
10
27.45
20
-104.4
11
27.45
21
-102.4
0
LINE
8
BLACK
6
CONTINUOUS
10
27.45
20
-102.4
11
28.55
21
-102.4
0
LINE
8
BLACK
6
CONTINUOUS
10
28.55
20
-102.4
11
28.55
21
-104.4
0
LINE
8
BLACK
6
CONTINUOUS
10
26.85
20
-104.4
11
25.75
21
-104.4
0
LINE
8
BLACK
6
CONTINUOUS
10
25.75
20
-104.4
11
25.75
21
-102.4
0
LINE
8
BLACK
6
CONTINUOUS
10
25.75
20
-102.4
11
26.85
21
-102.4
0
LINE
8
BLACK
6
CONTINUOUS
10
26.85
20
-102.4
11
26.85
21
-104.4
0
LINE
8
BLACK
6
CONTINUOUS
10
42.25
20
-102.743
11
41.15
21
-102.743
0
LINE
8
BLACK
6
CONTINUOUS
10
41.15
20
-102.743
11
41.15
21
-100.743
0
LINE
8
BLACK
6
CONTINUOUS
10
41.15
20
-100.743
11
42.25
21
-100.743
0
LINE
8
BLACK
6
CONTINUOUS
10
42.25
20
-100.743
11
42.25
21
-102.743
0
LINE
8
BLACK
6
CONTINUOUS
10
40.55
20
-102.743
11
39.45
21
-102.743
0
LINE
8
BLACK
6
CONTINUOUS
10
39.45
20
-102.743
11
39.45
21
-100.743
0
LINE
8
BLACK
6
CONTINUOUS
10
39.45
20
-100.743
11
40.55
21
-100.743
0
LINE
8
BLACK
6
CONTINUOUS
10
40.55
20
-100.743
11
40.55
21
-102.743
0
LINE
8
BLACK
6
CONTINUOUS
10
38.85
20
-102.743
11
37.75
21
-102.743
0
LINE
8
BLACK
6
CONTINUOUS
10
37.75
20
-102.743
11
37.75
21
-100.743
0
LINE
8
BLACK
6
CONTINUOUS
10
37.75
20
-100.743
11
38.85
21
-100.743
0
LINE
8
BLACK
6
CONTINUOUS
10
38.85
20
-100.743
11
38.85
21
-102.743
0
LINE
8
BLACK
6
CONTINUOUS
10
54.25
20
-99.6
11
53.15
21
-99.6
0
LINE
8
BLACK
6
CONTINUOUS
10
53.15
20
-99.6
11
53.15
21
-97.6
0
LINE
8
BLACK
6
CONTINUOUS
10
53.15
20
-97.6
11
54.25
21
-97.6
0
LINE
8
BLACK
6
CONTINUOUS
10
54.25
20
-97.6
11
54.25
21
-99.6
0
LINE
8
BLACK
6
CONTINUOUS
10
52.55
20
-99.6
11
51.45
21
-99.6
0
LINE
8
BLACK
6
CONTINUOUS
10
51.45
20
-99.6
11
51.45
21
-97.6
0
LINE
8
BLACK
6
CONTINUOUS
10
51.45
20
-97.6
11
52.55
21
-97.6
0
LINE
8
BLACK
6
CONTINUOUS
10
52.55
20
-97.6
11
52.55
21
-99.6
0
LINE
8
BLACK
6
CONTINUOUS
10
50.85
20
-99.6
11
49.75
21
-99.6
0
LINE
8
BLACK
6
CONTINUOUS
10
49.75
20
-99.6
11
49.75
21
-97.6
0
LINE
8
BLACK
6
CONTINUOUS
10
49.75
20
-97.6
11
50.85
21
-97.6
0
LINE
8
BLACK
6
CONTINUOUS
10
50.85
20
-97.6
11
50.85
21
-99.6
0
LINE
8
BLACK
6
CONTINUOUS
10
30.25
20
-99.6
11
29.15
21
-99.6
0
LINE
8
BLACK
6
CONTINUOUS
10
29.15
20
-99.6
11
29.15
21
-97.6
0
LINE
8
BLACK
6
CONTINUOUS
10
29.15
20
-97.6
11
30.25
21
-97.6
0
LINE
8
BLACK
6
CONTINUOUS
10
30.25
20
-97.6
11
30.25
21
-99.6
0
LINE
8
BLACK
6
CONTINUOUS
10
28.55
20
-99.6
11
27.45
21
-99.6
0
LINE
8
BLACK
6
CONTINUOUS
10
27.45
20
-99.6
11
27.45
21
-97.6
0
LINE
8
BLACK
6
CONTINUOUS
10
27.45
20
-97.6
11
28.55
21
-97.6
0
LINE
8
BLACK
6
CONTINUOUS
10
28.55
20
-97.6
11
28.55
21
-99.6
0
LINE
8
BLACK
6
CONTINUOUS
10
26.85
20
-99.6
11
25.75
21
-99.6
0
LINE
8
BLACK
6
CONTINUOUS
10
25.75
20
-99.6
11
25.75
21
-97.6
0
LINE
8
BLACK
6
CONTINUOUS
10
25.75
20
-97.6
11
26.85
21
-97.6
0
LINE
8
BLACK
6
CONTINUOUS
10
26.85
20
-97.6
11
26.85
21
-99.6
0
LINE
8
BLACK
6
CONTINUOUS
10
42.25
20
-96.1143
11
41.15
21
-96.1143
0
LINE
8
BLACK
6
CONTINUOUS
10
41.15
20
-96.1143
11
41.15
21
-94.1143
0
LINE
8
BLACK
6
CONTINUOUS
10
41.15
20
-94.1143
11
42.25
21
-94.1143
0
LINE
8
BLACK
6
CONTINUOUS
10
42.25
20
-94.1143
11
42.25
21
-96.1143
0
LINE
8
BLACK
6
CONTINUOUS
10
40.55
20
-96.1143
11
39.45
21
-96.1143
0
LINE
8
BLACK
6
CONTINUOUS
10
39.45
20
-96.1143
11
39.45
21
-94.1143
0
LINE
8
BLACK
6
CONTINUOUS
10
39.45
20
-94.1143
11
40.55
21
-94.1143
0
LINE
8
BLACK
6
CONTINUOUS
10
40.55
20
-94.1143
11
40.55
21
-96.1143
0
LINE
8
BLACK
6
CONTINUOUS
10
38.85
20
-96.1143
11
37.75
21
-96.1143
0
LINE
8
BLACK
6
CONTINUOUS
10
37.75
20
-96.1143
11
37.75
21
-94.1143
0
LINE
8
BLACK
6
CONTINUOUS
10
37.75
20
-94.1143
11
38.85
21
-94.1143
0
LINE
8
BLACK
6
CONTINUOUS
10
38.85
20
-94.1143
11
38.85
21
-96.1143
0
LINE
8
BLACK
6
CONTINUOUS
10
42.25
20
-91.3143
11
41.15
21
-91.3143
0
LINE
8
BLACK
6
CONTINUOUS
10
41.15
20
-91.3143
11
41.15
21
-89.3143
0
LINE
8
BLACK
6
CONTINUOUS
10
41.15
20
-89.3143
11
42.25
21
-89.3143
0
LINE
8
BLACK
6
CONTINUOUS
10
42.25
20
-89.3143
11
42.25
21
-91.3143
0
LINE
8
BLACK
6
CONTINUOUS
10
40.55
20
-91.3143
11
39.45
21
-91.3143
0
LINE
8
BLACK
6
CONTINUOUS
10
39.45
20
-91.3143
11
39.45
21
-89.3143
0
LINE
8
BLACK
6
CONTINUOUS
10
39.45
20
-89.3143
11
40.55
21
-89.3143
0
LINE
8
BLACK
6
CONTINUOUS
10
40.55
20
-89.3143
11
40.55
21
-91.3143
0
LINE
8
BLACK
6
CONTINUOUS
10
38.85
20
-91.3143
11
37.75
21
-91.3143
0
LINE
8
BLACK
6
CONTINUOUS
10
37.75
20
-91.3143
11
37.75
21
-89.3143
0
LINE
8
BLACK
6
CONTINUOUS
10
37.75
20
-89.3143
11
38.85
21
-89.3143
0
LINE
8
BLACK
6
CONTINUOUS
10
38.85
20
-89.3143
11
38.85
21
-91.3143
0
LINE
8
BLACK
6
CONTINUOUS
10
54.25
20
-90.4
11
53.15
21
-90.4
0
LINE
8
BLACK
6
CONTINUOUS
10
53.15
20
-90.4
11
53.15
21
-88.4
0
LINE
8
BLACK
6
CONTINUOUS
10
53.15
20
-88.4
11
54.25
21
-88.4
0
LINE
8
BLACK
6
CONTINUOUS
10
54.25
20
-88.4
11
54.25
21
-90.4
0
LINE
8
BLACK
6
CONTINUOUS
10
52.55
20
-90.4
11
51.45
21
-90.4
0
LINE
8
BLACK
6
CONTINUOUS
10
51.45
20
-90.4
11
51.45
21
-88.4
0
LINE
8
BLACK
6
CONTINUOUS
10
51.45
20
-88.4
11
52.55
21
-88.4
0
LINE
8
BLACK
6
CONTINUOUS
10
52.55
20
-88.4
11
52.55
21
-90.4
0
LINE
8
BLACK
6
CONTINUOUS
10
50.85
20
-90.4
11
49.75
21
-90.4
0
LINE
8
BLACK
6
CONTINUOUS
10
49.75
20
-90.4
11
49.75
21
-88.4
0
LINE
8
BLACK
6
CONTINUOUS
10
49.75
20
-88.4
11
50.85
21
-88.4
0
LINE
8
BLACK
6
CONTINUOUS
10
50.85
20
-88.4
11
50.85
21
-90.4
0
LINE
8
BLACK
6
CONTINUOUS
10
30.25
20
-90.4
11
29.15
21
-90.4
0
LINE
8
BLACK
6
CONTINUOUS
10
29.15
20
-90.4
11
29.15
21
-88.4
0
LINE
8
BLACK
6
CONTINUOUS
10
29.15
20
-88.4
11
30.25
21
-88.4
0
LINE
8
BLACK
6
CONTINUOUS
10
30.25
20
-88.4
11
30.25
21
-90.4
0
LINE
8
BLACK
6
CONTINUOUS
10
28.55
20
-90.4
11
27.45
21
-90.4
0
LINE
8
BLACK
6
CONTINUOUS
10
27.45
20
-90.4
11
27.45
21
-88.4
0
LINE
8
BLACK
6
CONTINUOUS
10
27.45
20
-88.4
11
28.55
21
-88.4
0
LINE
8
BLACK
6
CONTINUOUS
10
28.55
20
-88.4
11
28.55
21
-90.4
0
LINE
8
BLACK
6
CONTINUOUS
10
26.85
20
-90.4
11
25.75
21
-90.4
0
LINE
8
BLACK
6
CONTINUOUS
10
25.75
20
-90.4
11
25.75
21
-88.4
0
LINE
8
BLACK
6
CONTINUOUS
10
25.75
20
-88.4
11
26.85
21
-88.4
0
LINE
8
BLACK
6
CONTINUOUS
10
26.85
20
-88.4
11
26.85
21
-90.4
0
LINE
8
BLACK
6
CONTINUOUS
10
54.25
20
-85.6
11
53.15
21
-85.6
0
LINE
8
BLACK
6
CONTINUOUS
10
53.15
20
-85.6
11
53.15
21
-83.6
0
LINE
8
BLACK
6
CONTINUOUS
10
53.15
20
-83.6
11
54.25
21
-83.6
0
LINE
8
BLACK
6
CONTINUOUS
10
54.25
20
-83.6
11
54.25
21
-85.6
0
LINE
8
BLACK
6
CONTINUOUS
10
52.55
20
-85.6
11
51.45
21
-85.6
0
LINE
8
BLACK
6
CONTINUOUS
10
51.45
20
-85.6
11
51.45
21
-83.6
0
LINE
8
BLACK
6
CONTINUOUS
10
51.45
20
-83.6
11
52.55
21
-83.6
0
LINE
8
BLACK
6
CONTINUOUS
10
52.55
20
-83.6
11
52.55
21
-85.6
0
LINE
8
BLACK
6
CONTINUOUS
10
50.85
20
-85.6
11
49.75
21
-85.6
0
LINE
8
BLACK
6
CONTINUOUS
10
49.75
20
-85.6
11
49.75
21
-83.6
0
LINE
8
BLACK
6
CONTINUOUS
10
49.75
20
-83.6
11
50.85
21
-83.6
0
LINE
8
BLACK
6
CONTINUOUS
10
50.85
20
-83.6
11
50.85
21
-85.6
0
LINE
8
BLACK
6
CONTINUOUS
10
30.25
20
-85.6
11
29.15
21
-85.6
0
LINE
8
BLACK
6
CONTINUOUS
10
29.15
20
-85.6
11
29.15
21
-83.6
0
LINE
8
BLACK
6
CONTINUOUS
10
29.15
20
-83.6
11
30.25
21
-83.6
0
LINE
8
BLACK
6
CONTINUOUS
10
30.25
20
-83.6
11
30.25
21
-85.6
0
LINE
8
BLACK
6
CONTINUOUS
10
28.55
20
-85.6
11
27.45
21
-85.6
0
LINE
8
BLACK
6
CONTINUOUS
10
27.45
20
-85.6
11
27.45
21
-83.6
0
LINE
8
BLACK
6
CONTINUOUS
10
27.45
20
-83.6
11
28.55
21
-83.6
0
LINE
8
BLACK
6
CONTINUOUS
10
28.55
20
-83.6
11
28.55
21
-85.6
0
LINE
8
BLACK
6
CONTINUOUS
10
26.85
20
-85.6
11
25.75
21
-85.6
0
LINE
8
BLACK
6
CONTINUOUS
10
25.75
20
-85.6
11
25.75
21
-83.6
0
LINE
8
BLACK
6
CONTINUOUS
10
25.75
20
-83.6
11
26.85
21
-83.6
0
LINE
8
BLACK
6
CONTINUOUS
10
26.85
20
-83.6
11
26.85
21
-85.6
0
LINE
8
BLACK
6
CONTINUOUS
10
42.25
20
-84.6857
11
41.15
21
-84.6857
0
LINE
8
BLACK
6
CONTINUOUS
10
41.15
20
-84.6857
11
41.15
21
-82.6857
0
LINE
8
BLACK
6
CONTINUOUS
10
41.15
20
-82.6857
11
42.25
21
-82.6857
0
LINE
8
BLACK
6
CONTINUOUS
10
42.25
20
-82.6857
11
42.25
21
-84.6857
0
LINE
8
BLACK
6
CONTINUOUS
10
40.55
20
-84.6857
11
39.45
21
-84.6857
0
LINE
8
BLACK
6
CONTINUOUS
10
39.45
20
-84.6857
11
39.45
21
-82.6857
0
LINE
8
BLACK
6
CONTINUOUS
10
39.45
20
-82.6857
11
40.55
21
-82.6857
0
LINE
8
BLACK
6
CONTINUOUS
10
40.55
20
-82.6857
11
40.55
21
-84.6857
0
LINE
8
BLACK
6
CONTINUOUS
10
38.85
20
-84.6857
11
37.75
21
-84.6857
0
LINE
8
BLACK
6
CONTINUOUS
10
37.75
20
-84.6857
11
37.75
21
-82.6857
0
LINE
8
BLACK
6
CONTINUOUS
10
37.75
20
-82.6857
11
38.85
21
-82.6857
0
LINE
8
BLACK
6
CONTINUOUS
10
38.85
20
-82.6857
11
38.85
21
-84.6857
0
LINE
8
BLACK
6
CONTINUOUS
10
42.25
20
-79.8857
11
41.15
21
-79.8857
0
LINE
8
BLACK
6
CONTINUOUS
10
41.15
20
-79.8857
11
41.15
21
-77.8857
0
LINE
8
BLACK
6
CONTINUOUS
10
41.15
20
-77.8857
11
42.25
21
-77.8857
0
LINE
8
BLACK
6
CONTINUOUS
10
42.25
20
-77.8857
11
42.25
21
-79.8857
0
LINE
8
BLACK
6
CONTINUOUS
10
40.55
20
-79.8857
11
39.45
21
-79.8857
0
LINE
8
BLACK
6
CONTINUOUS
10
39.45
20
-79.8857
11
39.45
21
-77.8857
0
LINE
8
BLACK
6
CONTINUOUS
10
39.45
20
-77.8857
11
40.55
21
-77.8857
0
LINE
8
BLACK
6
CONTINUOUS
10
40.55
20
-77.8857
11
40.55
21
-79.8857
0
LINE
8
BLACK
6
CONTINUOUS
10
38.85
20
-79.8857
11
37.75
21
-79.8857
0
LINE
8
BLACK
6
CONTINUOUS
10
37.75
20
-79.8857
11
37.75
21
-77.8857
0
LINE
8
BLACK
6
CONTINUOUS
10
37.75
20
-77.8857
11
38.85
21
-77.8857
0
LINE
8
BLACK
6
CONTINUOUS
10
38.85
20
-77.8857
11
38.85
21
-79.8857
0
LINE
8
BLACK
6
CONTINUOUS
10
54.25
20
-76.4
11
53.15
21
-76.4
0
LINE
8
BLACK
6
CONTINUOUS
10
53.15
20
-76.4
11
53.15
21
-74.4
0
LINE
8
BLACK
6
CONTINUOUS
10
53.15
20
-74.4
11
54.25
21
-74.4
0
LINE
8
BLACK
6
CONTINUOUS
10
54.25
20
-74.4
11
54.25
21
-76.4
0
LINE
8
BLACK
6
CONTINUOUS
10
52.55
20
-76.4
11
51.45
21
-76.4
0
LINE
8
BLACK
6
CONTINUOUS
10
51.45
20
-76.4
11
51.45
21
-74.4
0
LINE
8
BLACK
6
CONTINUOUS
10
51.45
20
-74.4
11
52.55
21
-74.4
0
LINE
8
BLACK
6
CONTINUOUS
10
52.55
20
-74.4
11
52.55
21
-76.4
0
LINE
8
BLACK
6
CONTINUOUS
10
50.85
20
-76.4
11
49.75
21
-76.4
0
LINE
8
BLACK
6
CONTINUOUS
10
49.75
20
-76.4
11
49.75
21
-74.4
0
LINE
8
BLACK
6
CONTINUOUS
10
49.75
20
-74.4
11
50.85
21
-74.4
0
LINE
8
BLACK
6
CONTINUOUS
10
50.85
20
-74.4
11
50.85
21
-76.4
0
LINE
8
BLACK
6
CONTINUOUS
10
30.25
20
-76.4
11
29.15
21
-76.4
0
LINE
8
BLACK
6
CONTINUOUS
10
29.15
20
-76.4
11
29.15
21
-74.4
0
LINE
8
BLACK
6
CONTINUOUS
10
29.15
20
-74.4
11
30.25
21
-74.4
0
LINE
8
BLACK
6
CONTINUOUS
10
30.25
20
-74.4
11
30.25
21
-76.4
0
LINE
8
BLACK
6
CONTINUOUS
10
28.55
20
-76.4
11
27.45
21
-76.4
0
LINE
8
BLACK
6
CONTINUOUS
10
27.45
20
-76.4
11
27.45
21
-74.4
0
LINE
8
BLACK
6
CONTINUOUS
10
27.45
20
-74.4
11
28.55
21
-74.4
0
LINE
8
BLACK
6
CONTINUOUS
10
28.55
20
-74.4
11
28.55
21
-76.4
0
LINE
8
BLACK
6
CONTINUOUS
10
26.85
20
-76.4
11
25.75
21
-76.4
0
LINE
8
BLACK
6
CONTINUOUS
10
25.75
20
-76.4
11
25.75
21
-74.4
0
LINE
8
BLACK
6
CONTINUOUS
10
25.75
20
-74.4
11
26.85
21
-74.4
0
LINE
8
BLACK
6
CONTINUOUS
10
26.85
20
-74.4
11
26.85
21
-76.4
0
LINE
8
BLACK
6
CONTINUOUS
10
42.25
20
-73.2571
11
41.15
21
-73.2571
0
LINE
8
BLACK
6
CONTINUOUS
10
41.15
20
-73.2571
11
41.15
21
-71.2571
0
LINE
8
BLACK
6
CONTINUOUS
10
41.15
20
-71.2571
11
42.25
21
-71.2571
0
LINE
8
BLACK
6
CONTINUOUS
10
42.25
20
-71.2571
11
42.25
21
-73.2571
0
LINE
8
BLACK
6
CONTINUOUS
10
40.55
20
-73.2571
11
39.45
21
-73.2571
0
LINE
8
BLACK
6
CONTINUOUS
10
39.45
20
-73.2571
11
39.45
21
-71.2571
0
LINE
8
BLACK
6
CONTINUOUS
10
39.45
20
-71.2571
11
40.55
21
-71.2571
0
LINE
8
BLACK
6
CONTINUOUS
10
40.55
20
-71.2571
11
40.55
21
-73.2571
0
LINE
8
BLACK
6
CONTINUOUS
10
38.85
20
-73.2571
11
37.75
21
-73.2571
0
LINE
8
BLACK
6
CONTINUOUS
10
37.75
20
-73.2571
11
37.75
21
-71.2571
0
LINE
8
BLACK
6
CONTINUOUS
10
37.75
20
-71.2571
11
38.85
21
-71.2571
0
LINE
8
BLACK
6
CONTINUOUS
10
38.85
20
-71.2571
11
38.85
21
-73.2571
0
LINE
8
BLACK
6
CONTINUOUS
10
54.25
20
-71.6
11
53.15
21
-71.6
0
LINE
8
BLACK
6
CONTINUOUS
10
53.15
20
-71.6
11
53.15
21
-69.6
0
LINE
8
BLACK
6
CONTINUOUS
10
53.15
20
-69.6
11
54.25
21
-69.6
0
LINE
8
BLACK
6
CONTINUOUS
10
54.25
20
-69.6
11
54.25
21
-71.6
0
LINE
8
BLACK
6
CONTINUOUS
10
52.55
20
-71.6
11
51.45
21
-71.6
0
LINE
8
BLACK
6
CONTINUOUS
10
51.45
20
-71.6
11
51.45
21
-69.6
0
LINE
8
BLACK
6
CONTINUOUS
10
51.45
20
-69.6
11
52.55
21
-69.6
0
LINE
8
BLACK
6
CONTINUOUS
10
52.55
20
-69.6
11
52.55
21
-71.6
0
LINE
8
BLACK
6
CONTINUOUS
10
50.85
20
-71.6
11
49.75
21
-71.6
0
LINE
8
BLACK
6
CONTINUOUS
10
49.75
20
-71.6
11
49.75
21
-69.6
0
LINE
8
BLACK
6
CONTINUOUS
10
49.75
20
-69.6
11
50.85
21
-69.6
0
LINE
8
BLACK
6
CONTINUOUS
10
50.85
20
-69.6
11
50.85
21
-71.6
0
LINE
8
BLACK
6
CONTINUOUS
10
30.25
20
-71.6
11
29.15
21
-71.6
0
LINE
8
BLACK
6
CONTINUOUS
10
29.15
20
-71.6
11
29.15
21
-69.6
0
LINE
8
BLACK
6
CONTINUOUS
10
29.15
20
-69.6
11
30.25
21
-69.6
0
LINE
8
BLACK
6
CONTINUOUS
10
30.25
20
-69.6
11
30.25
21
-71.6
0
LINE
8
BLACK
6
CONTINUOUS
10
28.55
20
-71.6
11
27.45
21
-71.6
0
LINE
8
BLACK
6
CONTINUOUS
10
27.45
20
-71.6
11
27.45
21
-69.6
0
LINE
8
BLACK
6
CONTINUOUS
10
27.45
20
-69.6
11
28.55
21
-69.6
0
LINE
8
BLACK
6
CONTINUOUS
10
28.55
20
-69.6
11
28.55
21
-71.6
0
LINE
8
BLACK
6
CONTINUOUS
10
26.85
20
-71.6
11
25.75
21
-71.6
0
LINE
8
BLACK
6
CONTINUOUS
10
25.75
20
-71.6
11
25.75
21
-69.6
0
LINE
8
BLACK
6
CONTINUOUS
10
25.75
20
-69.6
11
26.85
21
-69.6
0
LINE
8
BLACK
6
CONTINUOUS
10
26.85
20
-69.6
11
26.85
21
-71.6
0
LINE
8
BLACK
6
CONTINUOUS
10
42.25
20
-68.4571
11
41.15
21
-68.4571
0
LINE
8
BLACK
6
CONTINUOUS
10
41.15
20
-68.4571
11
41.15
21
-66.4571
0
LINE
8
BLACK
6
CONTINUOUS
10
41.15
20
-66.4571
11
42.25
21
-66.4571
0
LINE
8
BLACK
6
CONTINUOUS
10
42.25
20
-66.4571
11
42.25
21
-68.4571
0
LINE
8
BLACK
6
CONTINUOUS
10
40.55
20
-68.4571
11
39.45
21
-68.4571
0
LINE
8
BLACK
6
CONTINUOUS
10
39.45
20
-68.4571
11
39.45
21
-66.4571
0
LINE
8
BLACK
6
CONTINUOUS
10
39.45
20
-66.4571
11
40.55
21
-66.4571
0
LINE
8
BLACK
6
CONTINUOUS
10
40.55
20
-66.4571
11
40.55
21
-68.4571
0
LINE
8
BLACK
6
CONTINUOUS
10
38.85
20
-68.4571
11
37.75
21
-68.4571
0
LINE
8
BLACK
6
CONTINUOUS
10
37.75
20
-68.4571
11
37.75
21
-66.4571
0
LINE
8
BLACK
6
CONTINUOUS
10
37.75
20
-66.4571
11
38.85
21
-66.4571
0
LINE
8
BLACK
6
CONTINUOUS
10
38.85
20
-66.4571
11
38.85
21
-68.4571
0
LINE
8
BLACK
6
CONTINUOUS
10
46.3682
20
-63.5459
11
46.6025
21
-63.6263
0
LINE
8
BLACK
6
CONTINUOUS
10
46.6025
20
-63.6263
11
46.8204
21
-63.7442
0
LINE
8
BLACK
6
CONTINUOUS
10
46.8204
20
-63.7442
11
47.0159
21
-63.8964
0
LINE
8
BLACK
6
CONTINUOUS
10
47.0159
20
-63.8964
11
47.1837
21
-64.0787
0
LINE
8
BLACK
6
CONTINUOUS
10
47.1837
20
-64.0787
11
47.3192
21
-64.2861
0
LINE
8
BLACK
6
CONTINUOUS
10
47.3192
20
-64.2861
11
47.4187
21
-64.513
0
LINE
8
BLACK
6
CONTINUOUS
10
47.4187
20
-64.513
11
47.4795
21
-64.7531
0
LINE
8
BLACK
6
CONTINUOUS
10
47.4795
20
-64.7531
11
47.5
21
-65
0
LINE
8
BLACK
6
CONTINUOUS
10
47.5
20
-65
11
47.4795
21
-65.2469
0
LINE
8
BLACK
6
CONTINUOUS
10
47.4795
20
-65.2469
11
47.4187
21
-65.487
0
LINE
8
BLACK
6
CONTINUOUS
10
47.4187
20
-65.487
11
47.3192
21
-65.7139
0
LINE
8
BLACK
6
CONTINUOUS
10
47.3192
20
-65.7139
11
47.1837
21
-65.9213
0
LINE
8
BLACK
6
CONTINUOUS
10
47.1837
20
-65.9213
11
47.0159
21
-66.1036
0
LINE
8
BLACK
6
CONTINUOUS
10
47.0159
20
-66.1036
11
46.8204
21
-66.2557
0
LINE
8
BLACK
6
CONTINUOUS
10
46.8204
20
-66.2557
11
46.6025
21
-66.3737
0
LINE
8
BLACK
6
CONTINUOUS
10
46.6025
20
-66.3737
11
46.3682
21
-66.4541
0
LINE
8
BLACK
6
CONTINUOUS
10
46.3682
20
-66.4541
11
46.1239
21
-66.4949
0
LINE
8
BLACK
6
CONTINUOUS
10
46.1239
20
-66.4949
11
45.8761
21
-66.4949
0
LINE
8
BLACK
6
CONTINUOUS
10
45.8761
20
-66.4949
11
45.6318
21
-66.4541
0
LINE
8
BLACK
6
CONTINUOUS
10
45.6318
20
-66.4541
11
45.3975
21
-66.3737
0
LINE
8
BLACK
6
CONTINUOUS
10
45.3975
20
-66.3737
11
45.1796
21
-66.2557
0
LINE
8
BLACK
6
CONTINUOUS
10
45.1796
20
-66.2557
11
44.9841
21
-66.1036
0
LINE
8
BLACK
6
CONTINUOUS
10
44.9841
20
-66.1036
11
44.8163
21
-65.9213
0
LINE
8
BLACK
6
CONTINUOUS
10
44.8163
20
-65.9213
11
44.6808
21
-65.7139
0
LINE
8
BLACK
6
CONTINUOUS
10
44.6808
20
-65.7139
11
44.5813
21
-65.487
0
LINE
8
BLACK
6
CONTINUOUS
10
44.5813
20
-65.487
11
44.5205
21
-65.2469
0
LINE
8
BLACK
6
CONTINUOUS
10
44.5205
20
-65.2469
11
44.5
21
-65
0
LINE
8
BLACK
6
CONTINUOUS
10
44.5
20
-65
11
44.5205
21
-64.7531
0
LINE
8
BLACK
6
CONTINUOUS
10
44.5205
20
-64.7531
11
44.5813
21
-64.513
0
LINE
8
BLACK
6
CONTINUOUS
10
44.5813
20
-64.513
11
44.6808
21
-64.2861
0
LINE
8
BLACK
6
CONTINUOUS
10
44.6808
20
-64.2861
11
44.8163
21
-64.0787
0
LINE
8
BLACK
6
CONTINUOUS
10
44.8163
20
-64.0787
11
44.9841
21
-63.8964
0
LINE
8
BLACK
6
CONTINUOUS
10
44.9841
20
-63.8964
11
45.1796
21
-63.7442
0
LINE
8
BLACK
6
CONTINUOUS
10
45.1796
20
-63.7442
11
45.3975
21
-63.6263
0
LINE
8
BLACK
6
CONTINUOUS
10
45.3975
20
-63.6263
11
45.6318
21
-63.5459
0
LINE
8
BLACK
6
CONTINUOUS
10
45.6318
20
-63.5459
11
45.8761
21
-63.5051
0
LINE
8
BLACK
6
CONTINUOUS
10
45.8761
20
-63.5051
11
46.1239
21
-63.5051
0
LINE
8
BLACK
6
CONTINUOUS
10
46.1239
20
-63.5051
11
46.3682
21
-63.5459
0
LINE
8
BLACK
6
CONTINUOUS
10
54.25
20
-65.75
11
52.25
21
-65.75
0
LINE
8
BLACK
6
CONTINUOUS
10
52.25
20
-65.75
11
52.25
21
-63.75
0
LINE
8
BLACK
6
CONTINUOUS
10
52.25
20
-63.75
11
54.25
21
-63.75
0
LINE
8
BLACK
6
CONTINUOUS
10
54.25
20
-63.75
11
54.25
21
-65.75
0
LINE
8
BLACK
6
CONTINUOUS
10
27.75
20
-65.75
11
25.75
21
-65.75
0
LINE
8
BLACK
6
CONTINUOUS
10
25.75
20
-65.75
11
25.75
21
-63.75
0
LINE
8
BLACK
6
CONTINUOUS
10
25.75
20
-63.75
11
27.75
21
-63.75
0
LINE
8
BLACK
6
CONTINUOUS
10
27.75
20
-63.75
11
27.75
21
-65.75
0
LINE
8
BLACK
6
CONTINUOUS
10
54.25
20
-62.4
11
53.15
21
-62.4
0
LINE
8
BLACK
6
CONTINUOUS
10
53.15
20
-62.4
11
53.15
21
-60.4
0
LINE
8
BLACK
6
CONTINUOUS
10
53.15
20
-60.4
11
54.25
21
-60.4
0
LINE
8
BLACK
6
CONTINUOUS
10
54.25
20
-60.4
11
54.25
21
-62.4
0
LINE
8
BLACK
6
CONTINUOUS
10
52.55
20
-62.4
11
51.45
21
-62.4
0
LINE
8
BLACK
6
CONTINUOUS
10
51.45
20
-62.4
11
51.45
21
-60.4
0
LINE
8
BLACK
6
CONTINUOUS
10
51.45
20
-60.4
11
52.55
21
-60.4
0
LINE
8
BLACK
6
CONTINUOUS
10
52.55
20
-60.4
11
52.55
21
-62.4
0
LINE
8
BLACK
6
CONTINUOUS
10
50.85
20
-62.4
11
49.75
21
-62.4
0
LINE
8
BLACK
6
CONTINUOUS
10
49.75
20
-62.4
11
49.75
21
-60.4
0
LINE
8
BLACK
6
CONTINUOUS
10
49.75
20
-60.4
11
50.85
21
-60.4
0
LINE
8
BLACK
6
CONTINUOUS
10
50.85
20
-60.4
11
50.85
21
-62.4
0
LINE
8
BLACK
6
CONTINUOUS
10
30.25
20
-62.4
11
29.15
21
-62.4
0
LINE
8
BLACK
6
CONTINUOUS
10
29.15
20
-62.4
11
29.15
21
-60.4
0
LINE
8
BLACK
6
CONTINUOUS
10
29.15
20
-60.4
11
30.25
21
-60.4
0
LINE
8
BLACK
6
CONTINUOUS
10
30.25
20
-60.4
11
30.25
21
-62.4
0
LINE
8
BLACK
6
CONTINUOUS
10
28.55
20
-62.4
11
27.45
21
-62.4
0
LINE
8
BLACK
6
CONTINUOUS
10
27.45
20
-62.4
11
27.45
21
-60.4
0
LINE
8
BLACK
6
CONTINUOUS
10
27.45
20
-60.4
11
28.55
21
-60.4
0
LINE
8
BLACK
6
CONTINUOUS
10
28.55
20
-60.4
11
28.55
21
-62.4
0
LINE
8
BLACK
6
CONTINUOUS
10
26.85
20
-62.4
11
25.75
21
-62.4
0
LINE
8
BLACK
6
CONTINUOUS
10
25.75
20
-62.4
11
25.75
21
-60.4
0
LINE
8
BLACK
6
CONTINUOUS
10
25.75
20
-60.4
11
26.85
21
-60.4
0
LINE
8
BLACK
6
CONTINUOUS
10
26.85
20
-60.4
11
26.85
21
-62.4
0
LINE
8
BLACK
6
CONTINUOUS
10
42.25
20
-61.8286
11
41.15
21
-61.8286
0
LINE
8
BLACK
6
CONTINUOUS
10
41.15
20
-61.8286
11
41.15
21
-59.8286
0
LINE
8
BLACK
6
CONTINUOUS
10
41.15
20
-59.8286
11
42.25
21
-59.8286
0
LINE
8
BLACK
6
CONTINUOUS
10
42.25
20
-59.8286
11
42.25
21
-61.8286
0
LINE
8
BLACK
6
CONTINUOUS
10
40.55
20
-61.8286
11
39.45
21
-61.8286
0
LINE
8
BLACK
6
CONTINUOUS
10
39.45
20
-61.8286
11
39.45
21
-59.8286
0
LINE
8
BLACK
6
CONTINUOUS
10
39.45
20
-59.8286
11
40.55
21
-59.8286
0
LINE
8
BLACK
6
CONTINUOUS
10
40.55
20
-59.8286
11
40.55
21
-61.8286
0
LINE
8
BLACK
6
CONTINUOUS
10
38.85
20
-61.8286
11
37.75
21
-61.8286
0
LINE
8
BLACK
6
CONTINUOUS
10
37.75
20
-61.8286
11
37.75
21
-59.8286
0
LINE
8
BLACK
6
CONTINUOUS
10
37.75
20
-59.8286
11
38.85
21
-59.8286
0
LINE
8
BLACK
6
CONTINUOUS
10
38.85
20
-59.8286
11
38.85
21
-61.8286
0
LINE
8
BLACK
6
CONTINUOUS
10
54.25
20
-57.6
11
53.15
21
-57.6
0
LINE
8
BLACK
6
CONTINUOUS
10
53.15
20
-57.6
11
53.15
21
-55.6
0
LINE
8
BLACK
6
CONTINUOUS
10
53.15
20
-55.6
11
54.25
21
-55.6
0
LINE
8
BLACK
6
CONTINUOUS
10
54.25
20
-55.6
11
54.25
21
-57.6
0
LINE
8
BLACK
6
CONTINUOUS
10
52.55
20
-57.6
11
51.45
21
-57.6
0
LINE
8
BLACK
6
CONTINUOUS
10
51.45
20
-57.6
11
51.45
21
-55.6
0
LINE
8
BLACK
6
CONTINUOUS
10
51.45
20
-55.6
11
52.55
21
-55.6
0
LINE
8
BLACK
6
CONTINUOUS
10
52.55
20
-55.6
11
52.55
21
-57.6
0
LINE
8
BLACK
6
CONTINUOUS
10
50.85
20
-57.6
11
49.75
21
-57.6
0
LINE
8
BLACK
6
CONTINUOUS
10
49.75
20
-57.6
11
49.75
21
-55.6
0
LINE
8
BLACK
6
CONTINUOUS
10
49.75
20
-55.6
11
50.85
21
-55.6
0
LINE
8
BLACK
6
CONTINUOUS
10
50.85
20
-55.6
11
50.85
21
-57.6
0
LINE
8
BLACK
6
CONTINUOUS
10
30.25
20
-57.6
11
29.15
21
-57.6
0
LINE
8
BLACK
6
CONTINUOUS
10
29.15
20
-57.6
11
29.15
21
-55.6
0
LINE
8
BLACK
6
CONTINUOUS
10
29.15
20
-55.6
11
30.25
21
-55.6
0
LINE
8
BLACK
6
CONTINUOUS
10
30.25
20
-55.6
11
30.25
21
-57.6
0
LINE
8
BLACK
6
CONTINUOUS
10
28.55
20
-57.6
11
27.45
21
-57.6
0
LINE
8
BLACK
6
CONTINUOUS
10
27.45
20
-57.6
11
27.45
21
-55.6
0
LINE
8
BLACK
6
CONTINUOUS
10
27.45
20
-55.6
11
28.55
21
-55.6
0
LINE
8
BLACK
6
CONTINUOUS
10
28.55
20
-55.6
11
28.55
21
-57.6
0
LINE
8
BLACK
6
CONTINUOUS
10
26.85
20
-57.6
11
25.75
21
-57.6
0
LINE
8
BLACK
6
CONTINUOUS
10
25.75
20
-57.6
11
25.75
21
-55.6
0
LINE
8
BLACK
6
CONTINUOUS
10
25.75
20
-55.6
11
26.85
21
-55.6
0
LINE
8
BLACK
6
CONTINUOUS
10
26.85
20
-55.6
11
26.85
21
-57.6
0
LINE
8
BLACK
6
CONTINUOUS
10
42.25
20
-57.0286
11
41.15
21
-57.0286
0
LINE
8
BLACK
6
CONTINUOUS
10
41.15
20
-57.0286
11
41.15
21
-55.0286
0
LINE
8
BLACK
6
CONTINUOUS
10
41.15
20
-55.0286
11
42.25
21
-55.0286
0
LINE
8
BLACK
6
CONTINUOUS
10
42.25
20
-55.0286
11
42.25
21
-57.0286
0
LINE
8
BLACK
6
CONTINUOUS
10
40.55
20
-57.0286
11
39.45
21
-57.0286
0
LINE
8
BLACK
6
CONTINUOUS
10
39.45
20
-57.0286
11
39.45
21
-55.0286
0
LINE
8
BLACK
6
CONTINUOUS
10
39.45
20
-55.0286
11
40.55
21
-55.0286
0
LINE
8
BLACK
6
CONTINUOUS
10
40.55
20
-55.0286
11
40.55
21
-57.0286
0
LINE
8
BLACK
6
CONTINUOUS
10
38.85
20
-57.0286
11
37.75
21
-57.0286
0
LINE
8
BLACK
6
CONTINUOUS
10
37.75
20
-57.0286
11
37.75
21
-55.0286
0
LINE
8
BLACK
6
CONTINUOUS
10
37.75
20
-55.0286
11
38.85
21
-55.0286
0
LINE
8
BLACK
6
CONTINUOUS
10
38.85
20
-55.0286
11
38.85
21
-57.0286
0
LINE
8
BLACK
6
CONTINUOUS
10
51.7134
20
-51.5921
11
49.5921
21
-53.7134
0
LINE
8
BLACK
6
CONTINUOUS
10
49.5921
20
-53.7134
11
47.4708
21
-51.5921
0
LINE
8
BLACK
6
CONTINUOUS
10
47.4708
20
-51.5921
11
49.5921
21
-49.4708
0
LINE
8
BLACK
6
CONTINUOUS
10
49.5921
20
-49.4708
11
51.7134
21
-51.5921
0
LINE
8
BLACK
6
CONTINUOUS
10
32.5292
20
-51.5921
11
30.4079
21
-53.7134
0
LINE
8
BLACK
6
CONTINUOUS
10
30.4079
20
-53.7134
11
28.2866
21
-51.5921
0
LINE
8
BLACK
6
CONTINUOUS
10
28.2866
20
-51.5921
11
30.4079
21
-49.4708
0
LINE
8
BLACK
6
CONTINUOUS
10
30.4079
20
-49.4708
11
32.5292
21
-51.5921
0
LINE
8
BLACK
6
CONTINUOUS
10
42.25
20
-50.4
11
41.15
21
-50.4
0
LINE
8
BLACK
6
CONTINUOUS
10
41.15
20
-50.4
11
41.15
21
-48.4
0
LINE
8
BLACK
6
CONTINUOUS
10
41.15
20
-48.4
11
42.25
21
-48.4
0
LINE
8
BLACK
6
CONTINUOUS
10
42.25
20
-48.4
11
42.25
21
-50.4
0
LINE
8
BLACK
6
CONTINUOUS
10
40.55
20
-50.4
11
39.45
21
-50.4
0
LINE
8
BLACK
6
CONTINUOUS
10
39.45
20
-50.4
11
39.45
21
-48.4
0
LINE
8
BLACK
6
CONTINUOUS
10
39.45
20
-48.4
11
40.55
21
-48.4
0
LINE
8
BLACK
6
CONTINUOUS
10
40.55
20
-48.4
11
40.55
21
-50.4
0
LINE
8
BLACK
6
CONTINUOUS
10
38.85
20
-50.4
11
37.75
21
-50.4
0
LINE
8
BLACK
6
CONTINUOUS
10
37.75
20
-50.4
11
37.75
21
-48.4
0
LINE
8
BLACK
6
CONTINUOUS
10
37.75
20
-48.4
11
38.85
21
-48.4
0
LINE
8
BLACK
6
CONTINUOUS
10
38.85
20
-48.4
11
38.85
21
-50.4
0
LINE
8
BLACK
6
CONTINUOUS
10
48.1213
20
-48
11
46
21
-50.1213
0
LINE
8
BLACK
6
CONTINUOUS
10
46
20
-50.1213
11
43.8787
21
-48
0
LINE
8
BLACK
6
CONTINUOUS
10
43.8787
20
-48
11
46
21
-45.8787
0
LINE
8
BLACK
6
CONTINUOUS
10
46
20
-45.8787
11
48.1213
21
-48
0
LINE
8
BLACK
6
CONTINUOUS
10
36.1213
20
-48
11
34
21
-50.1213
0
LINE
8
BLACK
6
CONTINUOUS
10
34
20
-50.1213
11
31.8787
21
-48
0
LINE
8
BLACK
6
CONTINUOUS
10
31.8787
20
-48
11
34
21
-45.8787
0
LINE
8
BLACK
6
CONTINUOUS
10
34
20
-45.8787
11
36.1213
21
-48
0
LINE
8
BLACK
6
CONTINUOUS
10
42.25
20
-45.6
11
41.15
21
-45.6
0
LINE
8
BLACK
6
CONTINUOUS
10
41.15
20
-45.6
11
41.15
21
-43.6
0
LINE
8
BLACK
6
CONTINUOUS
10
41.15
20
-43.6
11
42.25
21
-43.6
0
LINE
8
BLACK
6
CONTINUOUS
10
42.25
20
-43.6
11
42.25
21
-45.6
0
LINE
8
BLACK
6
CONTINUOUS
10
40.55
20
-45.6
11
39.45
21
-45.6
0
LINE
8
BLACK
6
CONTINUOUS
10
39.45
20
-45.6
11
39.45
21
-43.6
0
LINE
8
BLACK
6
CONTINUOUS
10
39.45
20
-43.6
11
40.55
21
-43.6
0
LINE
8
BLACK
6
CONTINUOUS
10
40.55
20
-43.6
11
40.55
21
-45.6
0
LINE
8
BLACK
6
CONTINUOUS
10
38.85
20
-45.6
11
37.75
21
-45.6
0
LINE
8
BLACK
6
CONTINUOUS
10
37.75
20
-45.6
11
37.75
21
-43.6
0
LINE
8
BLACK
6
CONTINUOUS
10
37.75
20
-43.6
11
38.85
21
-43.6
0
LINE
8
BLACK
6
CONTINUOUS
10
38.85
20
-43.6
11
38.85
21
-45.6
  0
ENDSEC
  0
EOF
