G04 #@! TF.GenerationSoftware,KiCad,Pcbnew,(5.1.7)-1*
G04 #@! TF.CreationDate,2020-10-07T12:45:53-07:00*
G04 #@! TF.ProjectId,bigass_7_segment,62696761-7373-45f3-975f-7365676d656e,rev?*
G04 #@! TF.SameCoordinates,Original*
G04 #@! TF.FileFunction,Legend,Top*
G04 #@! TF.FilePolarity,Positive*
%FSLAX46Y46*%
G04 Gerber Fmt 4.6, Leading zero omitted, Abs format (unit mm)*
G04 Created by KiCad (PCBNEW (5.1.7)-1) date 2020-10-07 12:45:53*
%MOMM*%
%LPD*%
G01*
G04 APERTURE LIST*
%ADD10C,0.150000*%
%ADD11C,0.120000*%
%ADD12C,0.100000*%
G04 APERTURE END LIST*
D10*
X6964285Y47023809D02*
X6107142Y47023809D01*
X6011904Y47071428D01*
X5964285Y47166666D01*
X5964285Y47214285D01*
X7297619Y47023809D02*
X7250000Y47071428D01*
X7202380Y47023809D01*
X7250000Y46976190D01*
X7297619Y47023809D01*
X7202380Y47023809D01*
X6297619Y46404761D02*
X6345238Y46500000D01*
X6392857Y46547619D01*
X6488095Y46595238D01*
X6773809Y46595238D01*
X6869047Y46547619D01*
X6916666Y46500000D01*
X6964285Y46404761D01*
X6964285Y46261904D01*
X6916666Y46166666D01*
X6869047Y46119047D01*
X6773809Y46071428D01*
X6488095Y46071428D01*
X6392857Y46119047D01*
X6345238Y46166666D01*
X6297619Y46261904D01*
X6297619Y46404761D01*
X6297619Y45642857D02*
X7297619Y45642857D01*
X6297619Y45214285D02*
X6821428Y45214285D01*
X6916666Y45261904D01*
X6964285Y45357142D01*
X6964285Y45500000D01*
X6916666Y45595238D01*
X6869047Y45642857D01*
X6964285Y44738095D02*
X6297619Y44738095D01*
X6869047Y44738095D02*
X6916666Y44690476D01*
X6964285Y44595238D01*
X6964285Y44452380D01*
X6916666Y44357142D01*
X6821428Y44309523D01*
X6297619Y44309523D01*
X6297619Y43833333D02*
X6964285Y43833333D01*
X6869047Y43833333D02*
X6916666Y43785714D01*
X6964285Y43690476D01*
X6964285Y43547619D01*
X6916666Y43452380D01*
X6821428Y43404761D01*
X6297619Y43404761D01*
X6821428Y43404761D02*
X6916666Y43357142D01*
X6964285Y43261904D01*
X6964285Y43119047D01*
X6916666Y43023809D01*
X6821428Y42976190D01*
X6297619Y42976190D01*
X6345238Y42071428D02*
X6297619Y42166666D01*
X6297619Y42357142D01*
X6345238Y42452380D01*
X6392857Y42500000D01*
X6488095Y42547619D01*
X6773809Y42547619D01*
X6869047Y42500000D01*
X6916666Y42452380D01*
X6964285Y42357142D01*
X6964285Y42166666D01*
X6916666Y42071428D01*
X6964285Y41642857D02*
X6297619Y41642857D01*
X6869047Y41642857D02*
X6916666Y41595238D01*
X6964285Y41500000D01*
X6964285Y41357142D01*
X6916666Y41261904D01*
X6821428Y41214285D01*
X6297619Y41214285D01*
X6345238Y40357142D02*
X6297619Y40452380D01*
X6297619Y40642857D01*
X6345238Y40738095D01*
X6440476Y40785714D01*
X6821428Y40785714D01*
X6916666Y40738095D01*
X6964285Y40642857D01*
X6964285Y40452380D01*
X6916666Y40357142D01*
X6821428Y40309523D01*
X6726190Y40309523D01*
X6630952Y40785714D01*
X6297619Y39738095D02*
X6345238Y39833333D01*
X6440476Y39880952D01*
X7297619Y39880952D01*
X6297619Y39214285D02*
X6345238Y39309523D01*
X6440476Y39357142D01*
X7297619Y39357142D01*
X6964285Y38928571D02*
X6297619Y38690476D01*
X6964285Y38452380D02*
X6297619Y38690476D01*
X6059523Y38785714D01*
X6011904Y38833333D01*
X5964285Y38928571D01*
X6392857Y38071428D02*
X6345238Y38023809D01*
X6297619Y38071428D01*
X6345238Y38119047D01*
X6392857Y38071428D01*
X6297619Y38071428D01*
X6345238Y37166666D02*
X6297619Y37261904D01*
X6297619Y37452380D01*
X6345238Y37547619D01*
X6392857Y37595238D01*
X6488095Y37642857D01*
X6773809Y37642857D01*
X6869047Y37595238D01*
X6916666Y37547619D01*
X6964285Y37452380D01*
X6964285Y37261904D01*
X6916666Y37166666D01*
X6297619Y36595238D02*
X6345238Y36690476D01*
X6392857Y36738095D01*
X6488095Y36785714D01*
X6773809Y36785714D01*
X6869047Y36738095D01*
X6916666Y36690476D01*
X6964285Y36595238D01*
X6964285Y36452380D01*
X6916666Y36357142D01*
X6869047Y36309523D01*
X6773809Y36261904D01*
X6488095Y36261904D01*
X6392857Y36309523D01*
X6345238Y36357142D01*
X6297619Y36452380D01*
X6297619Y36595238D01*
X6297619Y35833333D02*
X6964285Y35833333D01*
X6869047Y35833333D02*
X6916666Y35785714D01*
X6964285Y35690476D01*
X6964285Y35547619D01*
X6916666Y35452380D01*
X6821428Y35404761D01*
X6297619Y35404761D01*
X6821428Y35404761D02*
X6916666Y35357142D01*
X6964285Y35261904D01*
X6964285Y35119047D01*
X6916666Y35023809D01*
X6821428Y34976190D01*
X6297619Y34976190D01*
X-6321428Y32668928D02*
X-6273809Y32811785D01*
X-6226190Y32859404D01*
X-6130952Y32907023D01*
X-5988095Y32907023D01*
X-5892857Y32859404D01*
X-5845238Y32811785D01*
X-5797619Y32716547D01*
X-5797619Y32335595D01*
X-6797619Y32335595D01*
X-6797619Y32668928D01*
X-6750000Y32764166D01*
X-6702380Y32811785D01*
X-6607142Y32859404D01*
X-6511904Y32859404D01*
X-6416666Y32811785D01*
X-6369047Y32764166D01*
X-6321428Y32668928D01*
X-6321428Y32335595D01*
X-5797619Y33335595D02*
X-6464285Y33335595D01*
X-6797619Y33335595D02*
X-6750000Y33287976D01*
X-6702380Y33335595D01*
X-6750000Y33383214D01*
X-6797619Y33335595D01*
X-6702380Y33335595D01*
X-6464285Y34240357D02*
X-5654761Y34240357D01*
X-5559523Y34192738D01*
X-5511904Y34145119D01*
X-5464285Y34049880D01*
X-5464285Y33907023D01*
X-5511904Y33811785D01*
X-5845238Y34240357D02*
X-5797619Y34145119D01*
X-5797619Y33954642D01*
X-5845238Y33859404D01*
X-5892857Y33811785D01*
X-5988095Y33764166D01*
X-6273809Y33764166D01*
X-6369047Y33811785D01*
X-6416666Y33859404D01*
X-6464285Y33954642D01*
X-6464285Y34145119D01*
X-6416666Y34240357D01*
X-5797619Y35145119D02*
X-6321428Y35145119D01*
X-6416666Y35097500D01*
X-6464285Y35002261D01*
X-6464285Y34811785D01*
X-6416666Y34716547D01*
X-5845238Y35145119D02*
X-5797619Y35049880D01*
X-5797619Y34811785D01*
X-5845238Y34716547D01*
X-5940476Y34668928D01*
X-6035714Y34668928D01*
X-6130952Y34716547D01*
X-6178571Y34811785D01*
X-6178571Y35049880D01*
X-6226190Y35145119D01*
X-5845238Y35573690D02*
X-5797619Y35668928D01*
X-5797619Y35859404D01*
X-5845238Y35954642D01*
X-5940476Y36002261D01*
X-5988095Y36002261D01*
X-6083333Y35954642D01*
X-6130952Y35859404D01*
X-6130952Y35716547D01*
X-6178571Y35621309D01*
X-6273809Y35573690D01*
X-6321428Y35573690D01*
X-6416666Y35621309D01*
X-6464285Y35716547D01*
X-6464285Y35859404D01*
X-6416666Y35954642D01*
X-5845238Y36383214D02*
X-5797619Y36478452D01*
X-5797619Y36668928D01*
X-5845238Y36764166D01*
X-5940476Y36811785D01*
X-5988095Y36811785D01*
X-6083333Y36764166D01*
X-6130952Y36668928D01*
X-6130952Y36526071D01*
X-6178571Y36430833D01*
X-6273809Y36383214D01*
X-6321428Y36383214D01*
X-6416666Y36430833D01*
X-6464285Y36526071D01*
X-6464285Y36668928D01*
X-6416666Y36764166D01*
X-6797619Y37907023D02*
X-6797619Y38573690D01*
X-5797619Y38145119D01*
X-5845238Y39668928D02*
X-5797619Y39811785D01*
X-5797619Y40049880D01*
X-5845238Y40145119D01*
X-5892857Y40192738D01*
X-5988095Y40240357D01*
X-6083333Y40240357D01*
X-6178571Y40192738D01*
X-6226190Y40145119D01*
X-6273809Y40049880D01*
X-6321428Y39859404D01*
X-6369047Y39764166D01*
X-6416666Y39716547D01*
X-6511904Y39668928D01*
X-6607142Y39668928D01*
X-6702380Y39716547D01*
X-6750000Y39764166D01*
X-6797619Y39859404D01*
X-6797619Y40097500D01*
X-6749999Y40240357D01*
X-5845238Y41049880D02*
X-5797619Y40954642D01*
X-5797619Y40764166D01*
X-5845238Y40668928D01*
X-5940476Y40621309D01*
X-6321428Y40621309D01*
X-6416666Y40668928D01*
X-6464285Y40764166D01*
X-6464285Y40954642D01*
X-6416666Y41049880D01*
X-6321428Y41097500D01*
X-6226190Y41097500D01*
X-6130952Y40621309D01*
X-6464285Y41954642D02*
X-5654761Y41954642D01*
X-5559523Y41907023D01*
X-5511904Y41859404D01*
X-5464285Y41764166D01*
X-5464285Y41621309D01*
X-5511904Y41526071D01*
X-5845238Y41954642D02*
X-5797619Y41859404D01*
X-5797619Y41668928D01*
X-5845238Y41573690D01*
X-5892857Y41526071D01*
X-5988095Y41478452D01*
X-6273809Y41478452D01*
X-6369047Y41526071D01*
X-6416666Y41573690D01*
X-6464285Y41668928D01*
X-6464285Y41859404D01*
X-6416666Y41954642D01*
X-5797619Y42430833D02*
X-6464285Y42430833D01*
X-6369047Y42430833D02*
X-6416666Y42478452D01*
X-6464285Y42573690D01*
X-6464285Y42716547D01*
X-6416666Y42811785D01*
X-6321428Y42859404D01*
X-5797619Y42859404D01*
X-6321428Y42859404D02*
X-6416666Y42907023D01*
X-6464285Y43002261D01*
X-6464285Y43145119D01*
X-6416666Y43240357D01*
X-6321428Y43287976D01*
X-5797619Y43287976D01*
X-5845238Y44145119D02*
X-5797619Y44049880D01*
X-5797619Y43859404D01*
X-5845238Y43764166D01*
X-5940476Y43716547D01*
X-6321428Y43716547D01*
X-6416666Y43764166D01*
X-6464285Y43859404D01*
X-6464285Y44049880D01*
X-6416666Y44145119D01*
X-6321428Y44192738D01*
X-6226190Y44192738D01*
X-6130952Y43716547D01*
X-6464285Y44621309D02*
X-5797619Y44621309D01*
X-6369047Y44621309D02*
X-6416666Y44668928D01*
X-6464285Y44764166D01*
X-6464285Y44907023D01*
X-6416666Y45002261D01*
X-6321428Y45049880D01*
X-5797619Y45049880D01*
X-6464285Y45383214D02*
X-6464285Y45764166D01*
X-6797619Y45526071D02*
X-5940476Y45526071D01*
X-5845238Y45573690D01*
X-5797619Y45668928D01*
X-5797619Y45764166D01*
X-5797619Y46859404D02*
X-6797619Y46859404D01*
X-6797619Y47097500D01*
X-6749999Y47240357D01*
X-6654761Y47335595D01*
X-6559523Y47383214D01*
X-6369047Y47430833D01*
X-6226190Y47430833D01*
X-6035714Y47383214D01*
X-5940476Y47335595D01*
X-5845238Y47240357D01*
X-5797619Y47097500D01*
X-5797619Y46859404D01*
X-5797619Y47859404D02*
X-6464285Y47859404D01*
X-6797619Y47859404D02*
X-6749999Y47811785D01*
X-6702380Y47859404D01*
X-6749999Y47907023D01*
X-6797619Y47859404D01*
X-6702380Y47859404D01*
X-5845238Y48287976D02*
X-5797619Y48383214D01*
X-5797619Y48573690D01*
X-5845238Y48668928D01*
X-5940476Y48716547D01*
X-5988095Y48716547D01*
X-6083333Y48668928D01*
X-6130952Y48573690D01*
X-6130952Y48430833D01*
X-6178571Y48335595D01*
X-6273809Y48287976D01*
X-6321428Y48287976D01*
X-6416666Y48335595D01*
X-6464285Y48430833D01*
X-6464285Y48573690D01*
X-6416666Y48668928D01*
X-6464285Y49145119D02*
X-5464285Y49145119D01*
X-6416666Y49145119D02*
X-6464285Y49240357D01*
X-6464285Y49430833D01*
X-6416666Y49526071D01*
X-6369047Y49573690D01*
X-6273809Y49621309D01*
X-5988095Y49621309D01*
X-5892857Y49573690D01*
X-5845238Y49526071D01*
X-5797619Y49430833D01*
X-5797619Y49240357D01*
X-5845238Y49145119D01*
X-5797619Y50192738D02*
X-5845238Y50097500D01*
X-5940476Y50049880D01*
X-6797619Y50049880D01*
X-5797619Y51002261D02*
X-6321428Y51002261D01*
X-6416666Y50954642D01*
X-6464285Y50859404D01*
X-6464285Y50668928D01*
X-6416666Y50573690D01*
X-5845238Y51002261D02*
X-5797619Y50907023D01*
X-5797619Y50668928D01*
X-5845238Y50573690D01*
X-5940476Y50526071D01*
X-6035714Y50526071D01*
X-6130952Y50573690D01*
X-6178571Y50668928D01*
X-6178571Y50907023D01*
X-6226190Y51002261D01*
X-6464285Y51383214D02*
X-5797619Y51621309D01*
X-6464285Y51859404D02*
X-5797619Y51621309D01*
X-5559523Y51526071D01*
X-5511904Y51478452D01*
X-5464285Y51383214D01*
X-6464285Y52907023D02*
X-5797619Y53145119D01*
X-6464285Y53383214D01*
X-5797619Y54287976D02*
X-5797619Y53716547D01*
X-5797619Y54002261D02*
X-6797619Y54002261D01*
X-6654761Y53907023D01*
X-6559523Y53811785D01*
X-6511904Y53716547D01*
X-5892857Y54716547D02*
X-5845238Y54764166D01*
X-5797619Y54716547D01*
X-5845238Y54668928D01*
X-5892857Y54716547D01*
X-5797619Y54716547D01*
X-6797619Y55383214D02*
X-6797619Y55478452D01*
X-6749999Y55573690D01*
X-6702380Y55621309D01*
X-6607142Y55668928D01*
X-6416666Y55716547D01*
X-6178571Y55716547D01*
X-5988095Y55668928D01*
X-5892857Y55621309D01*
X-5845238Y55573690D01*
X-5797619Y55478452D01*
X-5797619Y55383214D01*
X-5845238Y55287976D01*
X-5892857Y55240357D01*
X-5988095Y55192738D01*
X-6178571Y55145119D01*
X-6416666Y55145119D01*
X-6607142Y55192738D01*
X-6702380Y55240357D01*
X-6749999Y55287976D01*
X-6797619Y55383214D01*
D11*
G04 #@! TO.C,D13*
X6800000Y23450000D02*
X6800000Y19550000D01*
X4800000Y23450000D02*
X4800000Y19550000D01*
X6800000Y23450000D02*
X4800000Y23450000D01*
D12*
G04 #@! TO.C,J1*
G36*
X7347038Y73652962D02*
G01*
X8245064Y73473356D01*
X7526644Y72754936D01*
X7347038Y73652962D01*
G37*
X7347038Y73652962D02*
X8245064Y73473356D01*
X7526644Y72754936D01*
X7347038Y73652962D01*
G04 #@! TO.C,J2*
G36*
X7347038Y-1652962D02*
G01*
X7526644Y-754936D01*
X8245064Y-1473356D01*
X7347038Y-1652962D01*
G37*
X7347038Y-1652962D02*
X7526644Y-754936D01*
X8245064Y-1473356D01*
X7347038Y-1652962D01*
G04 #@! TO.C,J3*
G36*
X-7347038Y73652962D02*
G01*
X-7526644Y72754936D01*
X-8245064Y73473356D01*
X-7347038Y73652962D01*
G37*
X-7347038Y73652962D02*
X-7526644Y72754936D01*
X-8245064Y73473356D01*
X-7347038Y73652962D01*
G04 #@! TO.C,J4*
G36*
X-7347038Y-1652962D02*
G01*
X-8245064Y-1473356D01*
X-7526644Y-754936D01*
X-7347038Y-1652962D01*
G37*
X-7347038Y-1652962D02*
X-8245064Y-1473356D01*
X-7526644Y-754936D01*
X-7347038Y-1652962D01*
D11*
G04 #@! TO.C,Q1*
X6010000Y15420000D02*
X4550000Y15420000D01*
X6010000Y18580000D02*
X3850000Y18580000D01*
X6010000Y18580000D02*
X6010000Y17650000D01*
X6010000Y15420000D02*
X6010000Y16350000D01*
G04 #@! TO.C,R1*
X-10810000Y57662779D02*
X-10810000Y57337221D01*
X-9790000Y57662779D02*
X-9790000Y57337221D01*
G04 #@! TO.C,D2*
X-14700000Y47500000D02*
X-14700000Y52500000D01*
X-10400000Y53600000D02*
X-9300000Y53600000D01*
X-9300000Y53600000D02*
X-9300000Y47500000D01*
G04 #@! TO.C,D8*
X-2700000Y62071429D02*
X-2700000Y67071429D01*
X1600000Y68171429D02*
X2700000Y68171429D01*
X2700000Y68171429D02*
X2700000Y62071429D01*
G04 #@! TO.C,D15*
X9300000Y47500000D02*
X9300000Y52500000D01*
X13600000Y53600000D02*
X14700000Y53600000D01*
X14700000Y53600000D02*
X14700000Y47500000D01*
G04 #@! TO.C,D3*
X-2700000Y39214287D02*
X-2700000Y44214287D01*
X1600000Y45314287D02*
X2700000Y45314287D01*
X2700000Y45314287D02*
X2700000Y39214287D01*
G04 #@! TO.C,D9*
X-2700000Y50642858D02*
X-2700000Y55642858D01*
X1600000Y56742858D02*
X2700000Y56742858D01*
X2700000Y56742858D02*
X2700000Y50642858D01*
G04 #@! TO.C,D16*
X9300000Y33500000D02*
X9300000Y38500000D01*
X13600000Y39600000D02*
X14700000Y39600000D01*
X14700000Y39600000D02*
X14700000Y33500000D01*
G04 #@! TO.C,D4*
X-14700000Y33500000D02*
X-14700000Y38500000D01*
X-10400000Y39600000D02*
X-9300000Y39600000D01*
X-9300000Y39600000D02*
X-9300000Y33500000D01*
G04 #@! TO.C,D10*
X-2700000Y16357145D02*
X-2700000Y21357145D01*
X1600000Y22457145D02*
X2700000Y22457145D01*
X2700000Y22457145D02*
X2700000Y16357145D01*
G04 #@! TO.C,D17*
X-2700000Y27785716D02*
X-2700000Y32785716D01*
X1600000Y33885716D02*
X2700000Y33885716D01*
X2700000Y33885716D02*
X2700000Y27785716D01*
G04 #@! TO.C,D5*
X-14700000Y19500000D02*
X-14700000Y24500000D01*
X-10400000Y25600000D02*
X-9300000Y25600000D01*
X-9300000Y25600000D02*
X-9300000Y19500000D01*
G04 #@! TO.C,D11*
X-2700000Y4928574D02*
X-2700000Y9928574D01*
X1600000Y11028574D02*
X2700000Y11028574D01*
X2700000Y11028574D02*
X2700000Y4928574D01*
G04 #@! TO.C,D18*
X9300000Y19500000D02*
X9300000Y24500000D01*
X13600000Y25600000D02*
X14700000Y25600000D01*
X14700000Y25600000D02*
X14700000Y19500000D01*
G04 #@! TO.C,D6*
X-14700000Y5500000D02*
X-14700000Y10500000D01*
X-10400000Y11600000D02*
X-9300000Y11600000D01*
X-9300000Y11600000D02*
X-9300000Y5500000D01*
G04 #@! TO.C,D12*
X-2700000Y-6500000D02*
X-2700000Y-1500000D01*
X1600000Y-400000D02*
X2700000Y-400000D01*
X2700000Y-400000D02*
X2700000Y-6500000D01*
G04 #@! TO.C,D19*
X9300000Y5500000D02*
X9300000Y10500000D01*
X13600000Y11600000D02*
X14700000Y11600000D01*
X14700000Y11600000D02*
X14700000Y5500000D01*
G04 #@! TO.C,D1*
X-14700000Y61500000D02*
X-14700000Y66500000D01*
X-10400000Y67600000D02*
X-9300000Y67600000D01*
X-9300000Y67600000D02*
X-9300000Y61500000D01*
G04 #@! TO.C,D7*
X-2700000Y73500000D02*
X-2700000Y78500000D01*
X1600000Y79600000D02*
X2700000Y79600000D01*
X2700000Y79600000D02*
X2700000Y73500000D01*
G04 #@! TO.C,D14*
X9300000Y61500000D02*
X9300000Y66500000D01*
X13600000Y67600000D02*
X14700000Y67600000D01*
X14700000Y67600000D02*
X14700000Y61500000D01*
D12*
G04 #@! TO.C,GRAPHIC1*
G36*
X-5424500Y29495300D02*
G01*
X-5424500Y27679200D01*
X-4662500Y27399800D01*
X-4662500Y29381000D01*
X-5424500Y29495300D01*
G37*
X-5424500Y29495300D02*
X-5424500Y27679200D01*
X-4662500Y27399800D01*
X-4662500Y29381000D01*
X-5424500Y29495300D01*
G36*
X-7774000Y30143000D02*
G01*
X-7774000Y28555500D01*
X-5678500Y27780800D01*
X-5678500Y29533400D01*
X-7393000Y29787400D01*
X-7774000Y30143000D01*
G37*
X-7774000Y30143000D02*
X-7774000Y28555500D01*
X-5678500Y27780800D01*
X-5678500Y29533400D01*
X-7393000Y29787400D01*
X-7774000Y30143000D01*
D11*
G04 #@! TO.C,J5*
X12050000Y14950000D02*
X14450000Y14950000D01*
X12050000Y12550000D02*
X12050000Y14950000D01*
X14450000Y12550000D02*
X12050000Y12550000D01*
X14450000Y14950000D02*
X14450000Y12550000D01*
G04 #@! TO.C,J6*
X-12050000Y12550000D02*
X-14450000Y12550000D01*
X-12050000Y14950000D02*
X-12050000Y12550000D01*
X-14450000Y14950000D02*
X-12050000Y14950000D01*
X-14450000Y12550000D02*
X-14450000Y14950000D01*
G04 #@! TO.C,J7*
X-12050000Y57050000D02*
X-14450000Y57050000D01*
X-12050000Y59450000D02*
X-12050000Y57050000D01*
X-14450000Y59450000D02*
X-12050000Y59450000D01*
X-14450000Y57050000D02*
X-14450000Y59450000D01*
G04 #@! TO.C,J8*
X12050000Y59450000D02*
X14450000Y59450000D01*
X12050000Y57050000D02*
X12050000Y59450000D01*
X14450000Y57050000D02*
X12050000Y57050000D01*
X14450000Y59450000D02*
X14450000Y57050000D01*
G04 #@! TO.C,D20*
X-6800000Y26650000D02*
X-6800000Y22750000D01*
X-8800000Y26650000D02*
X-8800000Y22750000D01*
X-6800000Y26650000D02*
X-8800000Y26650000D01*
G04 #@! TO.C,D21*
X8000000Y11250000D02*
X8000000Y7350000D01*
X6000000Y11250000D02*
X6000000Y7350000D01*
X8000000Y11250000D02*
X6000000Y11250000D01*
G04 #@! TO.C,Q2*
X-7960000Y21680000D02*
X-6500000Y21680000D01*
X-7960000Y18520000D02*
X-5800000Y18520000D01*
X-7960000Y18520000D02*
X-7960000Y19450000D01*
X-7960000Y21680000D02*
X-7960000Y20750000D01*
G04 #@! TO.C,Q3*
X7260000Y3170000D02*
X5800000Y3170000D01*
X7260000Y6330000D02*
X5100000Y6330000D01*
X7260000Y6330000D02*
X7260000Y5400000D01*
X7260000Y3170000D02*
X7260000Y4100000D01*
G04 #@! TO.C,D13*
D10*
X8252381Y19985714D02*
X7252381Y19985714D01*
X7252381Y20223809D01*
X7300001Y20366666D01*
X7395239Y20461904D01*
X7490477Y20509523D01*
X7680953Y20557142D01*
X7823810Y20557142D01*
X8014286Y20509523D01*
X8109524Y20461904D01*
X8204762Y20366666D01*
X8252381Y20223809D01*
X8252381Y19985714D01*
X8252381Y21509523D02*
X8252381Y20938095D01*
X8252381Y21223809D02*
X7252381Y21223809D01*
X7395239Y21128571D01*
X7490477Y21033333D01*
X7538096Y20938095D01*
X7252381Y21842857D02*
X7252381Y22461904D01*
X7633334Y22128571D01*
X7633334Y22271428D01*
X7680953Y22366666D01*
X7728572Y22414285D01*
X7823810Y22461904D01*
X8061905Y22461904D01*
X8157143Y22414285D01*
X8204762Y22366666D01*
X8252381Y22271428D01*
X8252381Y21985714D01*
X8204762Y21890476D01*
X8157143Y21842857D01*
G04 #@! TO.C,Q1*
X5154761Y13912380D02*
X5059523Y13960000D01*
X4964285Y14055238D01*
X4821428Y14198095D01*
X4726190Y14245714D01*
X4630952Y14245714D01*
X4678571Y14007619D02*
X4583333Y14055238D01*
X4488095Y14150476D01*
X4440476Y14340952D01*
X4440476Y14674285D01*
X4488095Y14864761D01*
X4583333Y14960000D01*
X4678571Y15007619D01*
X4869047Y15007619D01*
X4964285Y14960000D01*
X5059523Y14864761D01*
X5107142Y14674285D01*
X5107142Y14340952D01*
X5059523Y14150476D01*
X4964285Y14055238D01*
X4869047Y14007619D01*
X4678571Y14007619D01*
X6059523Y14007619D02*
X5488095Y14007619D01*
X5773809Y14007619D02*
X5773809Y15007619D01*
X5678571Y14864761D01*
X5583333Y14769523D01*
X5488095Y14721904D01*
G04 #@! TO.C,R1*
X-8447619Y57433333D02*
X-8923809Y57100000D01*
X-8447619Y56861904D02*
X-9447619Y56861904D01*
X-9447619Y57242857D01*
X-9400000Y57338095D01*
X-9352380Y57385714D01*
X-9257142Y57433333D01*
X-9114285Y57433333D01*
X-9019047Y57385714D01*
X-8971428Y57338095D01*
X-8923809Y57242857D01*
X-8923809Y56861904D01*
X-8447619Y58385714D02*
X-8447619Y57814285D01*
X-8447619Y58100000D02*
X-9447619Y58100000D01*
X-9304761Y58004761D01*
X-9209523Y57909523D01*
X-9161904Y57814285D01*
G04 #@! TO.C,D20*
X-5347619Y23185714D02*
X-6347619Y23185714D01*
X-6347619Y23423809D01*
X-6300000Y23566666D01*
X-6204761Y23661904D01*
X-6109523Y23709523D01*
X-5919047Y23757142D01*
X-5776190Y23757142D01*
X-5585714Y23709523D01*
X-5490476Y23661904D01*
X-5395238Y23566666D01*
X-5347619Y23423809D01*
X-5347619Y23185714D01*
X-6252380Y24138095D02*
X-6300000Y24185714D01*
X-6347619Y24280952D01*
X-6347619Y24519047D01*
X-6300000Y24614285D01*
X-6252380Y24661904D01*
X-6157142Y24709523D01*
X-6061904Y24709523D01*
X-5919047Y24661904D01*
X-5347619Y24090476D01*
X-5347619Y24709523D01*
X-6347619Y25328571D02*
X-6347619Y25423809D01*
X-6300000Y25519047D01*
X-6252380Y25566666D01*
X-6157142Y25614285D01*
X-5966666Y25661904D01*
X-5728571Y25661904D01*
X-5538095Y25614285D01*
X-5442857Y25566666D01*
X-5395238Y25519047D01*
X-5347619Y25423809D01*
X-5347619Y25328571D01*
X-5395238Y25233333D01*
X-5442857Y25185714D01*
X-5538095Y25138095D01*
X-5728571Y25090476D01*
X-5966666Y25090476D01*
X-6157142Y25138095D01*
X-6252380Y25185714D01*
X-6300000Y25233333D01*
X-6347619Y25328571D01*
G04 #@! TO.C,D21*
X5452380Y7785714D02*
X4452380Y7785714D01*
X4452380Y8023809D01*
X4500000Y8166666D01*
X4595238Y8261904D01*
X4690476Y8309523D01*
X4880952Y8357142D01*
X5023809Y8357142D01*
X5214285Y8309523D01*
X5309523Y8261904D01*
X5404761Y8166666D01*
X5452380Y8023809D01*
X5452380Y7785714D01*
X4547619Y8738095D02*
X4500000Y8785714D01*
X4452380Y8880952D01*
X4452380Y9119047D01*
X4500000Y9214285D01*
X4547619Y9261904D01*
X4642857Y9309523D01*
X4738095Y9309523D01*
X4880952Y9261904D01*
X5452380Y8690476D01*
X5452380Y9309523D01*
X5452380Y10261904D02*
X5452380Y9690476D01*
X5452380Y9976190D02*
X4452380Y9976190D01*
X4595238Y9880952D01*
X4690476Y9785714D01*
X4738095Y9690476D01*
G04 #@! TO.C,Q2*
X-4252380Y20004761D02*
X-4300000Y19909523D01*
X-4395238Y19814285D01*
X-4538095Y19671428D01*
X-4585714Y19576190D01*
X-4585714Y19480952D01*
X-4347619Y19528571D02*
X-4395238Y19433333D01*
X-4490476Y19338095D01*
X-4680952Y19290476D01*
X-5014285Y19290476D01*
X-5204761Y19338095D01*
X-5300000Y19433333D01*
X-5347619Y19528571D01*
X-5347619Y19719047D01*
X-5300000Y19814285D01*
X-5204761Y19909523D01*
X-5014285Y19957142D01*
X-4680952Y19957142D01*
X-4490476Y19909523D01*
X-4395238Y19814285D01*
X-4347619Y19719047D01*
X-4347619Y19528571D01*
X-5252380Y20338095D02*
X-5300000Y20385714D01*
X-5347619Y20480952D01*
X-5347619Y20719047D01*
X-5300000Y20814285D01*
X-5252380Y20861904D01*
X-5157142Y20909523D01*
X-5061904Y20909523D01*
X-4919047Y20861904D01*
X-4347619Y20290476D01*
X-4347619Y20909523D01*
G04 #@! TO.C,Q3*
X6654761Y1702380D02*
X6559523Y1750000D01*
X6464285Y1845238D01*
X6321428Y1988095D01*
X6226190Y2035714D01*
X6130952Y2035714D01*
X6178571Y1797619D02*
X6083333Y1845238D01*
X5988095Y1940476D01*
X5940476Y2130952D01*
X5940476Y2464285D01*
X5988095Y2654761D01*
X6083333Y2750000D01*
X6178571Y2797619D01*
X6369047Y2797619D01*
X6464285Y2750000D01*
X6559523Y2654761D01*
X6607142Y2464285D01*
X6607142Y2130952D01*
X6559523Y1940476D01*
X6464285Y1845238D01*
X6369047Y1797619D01*
X6178571Y1797619D01*
X6940476Y2797619D02*
X7559523Y2797619D01*
X7226190Y2416666D01*
X7369047Y2416666D01*
X7464285Y2369047D01*
X7511904Y2321428D01*
X7559523Y2226190D01*
X7559523Y1988095D01*
X7511904Y1892857D01*
X7464285Y1845238D01*
X7369047Y1797619D01*
X7083333Y1797619D01*
X6988095Y1845238D01*
X6940476Y1892857D01*
G04 #@! TD*
M02*
