G04 #@! TF.GenerationSoftware,KiCad,Pcbnew,(5.1.7)-1*
G04 #@! TF.CreationDate,2020-10-07T12:45:54-07:00*
G04 #@! TF.ProjectId,bigass_7_segment,62696761-7373-45f3-975f-7365676d656e,rev?*
G04 #@! TF.SameCoordinates,Original*
G04 #@! TF.FileFunction,Soldermask,Bot*
G04 #@! TF.FilePolarity,Negative*
%FSLAX46Y46*%
G04 Gerber Fmt 4.6, Leading zero omitted, Abs format (unit mm)*
G04 Created by KiCad (PCBNEW (5.1.7)-1) date 2020-10-07 12:45:54*
%MOMM*%
%LPD*%
G01*
G04 APERTURE LIST*
%ADD10C,3.000000*%
%ADD11C,0.100000*%
G04 APERTURE END LIST*
D10*
G04 #@! TO.C,H1*
X6000000Y58000000D03*
G04 #@! TD*
G04 #@! TO.C,H2*
X-6000000Y14000000D03*
G04 #@! TD*
D11*
G04 #@! TO.C,J1*
G36*
X3878680Y75000000D02*
G01*
X6000000Y77121320D01*
X8121320Y75000000D01*
X6000000Y72878680D01*
X3878680Y75000000D01*
G37*
G36*
X7470782Y71407898D02*
G01*
X9592102Y73529218D01*
X11713422Y71407898D01*
X9592102Y69286578D01*
X7470782Y71407898D01*
G37*
G04 #@! TD*
G04 #@! TO.C,J2*
G36*
X6000000Y-5121320D02*
G01*
X3878680Y-3000000D01*
X6000000Y-878680D01*
X8121320Y-3000000D01*
X6000000Y-5121320D01*
G37*
G36*
X9592102Y-1529218D02*
G01*
X7470782Y592102D01*
X9592102Y2713422D01*
X11713422Y592102D01*
X9592102Y-1529218D01*
G37*
G04 #@! TD*
G04 #@! TO.C,J3*
G36*
X-6000000Y77121320D02*
G01*
X-3878680Y75000000D01*
X-6000000Y72878680D01*
X-8121320Y75000000D01*
X-6000000Y77121320D01*
G37*
G36*
X-9592102Y73529218D02*
G01*
X-7470782Y71407898D01*
X-9592102Y69286578D01*
X-11713422Y71407898D01*
X-9592102Y73529218D01*
G37*
G04 #@! TD*
G04 #@! TO.C,J4*
G36*
X-3878680Y-3000000D02*
G01*
X-6000000Y-5121320D01*
X-8121320Y-3000000D01*
X-6000000Y-878680D01*
X-3878680Y-3000000D01*
G37*
G36*
X-7470782Y592102D02*
G01*
X-9592102Y-1529218D01*
X-11713422Y592102D01*
X-9592102Y2713422D01*
X-7470782Y592102D01*
G37*
G04 #@! TD*
M02*
