M48
; DRILL file {KiCad (5.1.7)-1} date 10/07/20 12:45:55
; FORMAT={-:-/ absolute / metric / decimal}
; #@! TF.CreationDate,2020-10-07T12:45:55-07:00
; #@! TF.GenerationSoftware,Kicad,Pcbnew,(5.1.7)-1
; #@! TF.FileFunction,Plated,1,2,PTH
FMAT,2
METRIC
T1C0.400
%
G90
G05
T1
X-13.75Y64.75
X-13.7Y63.2
X-13.7Y50.8
X-13.7Y40.4
X-13.7Y36.8
X-13.7Y21.2
X-13.7Y8.8
X-12.0Y64.75
X-12.0Y63.2
X-12.0Y50.8
X-12.0Y41.4
X-12.0Y36.8
X-12.0Y21.2
X-12.0Y8.8
X-11.0Y69.75
X-11.0Y2.25
X-10.3Y63.2
X-10.3Y50.8
X-10.3Y42.4
X-10.3Y36.8
X-10.3Y21.2
X-10.3Y8.8
X-10.25Y64.75
X-9.3Y17.7
X-8.25Y69.75
X-8.25Y2.25
X-8.15Y15.853
X-7.8Y25.0
X-7.2Y21.7
X-5.1Y19.1
X-4.5Y76.5
X-4.5Y73.5
X-4.5Y-1.5
X-4.5Y-4.5
X-4.1Y58.25
X-4.1Y52.1
X-4.1Y32.7
X-4.1Y21.9
X-1.7Y76.8
X-1.7Y52.4
X-1.7Y19.6
X0.0Y76.8
X0.0Y52.4
X0.0Y19.6
X1.7Y76.8
X1.7Y52.4
X1.7Y19.6
X2.85Y10.05
X2.85Y-5.25
X2.85Y5.0
X2.85Y-1.6
X4.2Y18.9
X4.5Y76.5
X4.5Y73.5
X4.5Y-1.5
X4.5Y-4.5
X5.143Y13.757
X5.8Y21.8
X7.0Y9.6
X7.25Y13.75
X8.0Y70.0
X8.25Y2.25
X8.9Y58.3
X10.25Y64.75
X10.3Y63.2
X10.3Y50.8
X10.3Y35.2
X10.3Y29.6
X10.3Y21.2
X10.3Y8.8
X11.0Y69.75
X11.0Y2.25
X12.0Y64.75
X12.0Y63.2
X12.0Y50.8
X12.0Y35.2
X12.0Y30.6
X12.0Y21.2
X12.0Y8.8
X13.7Y63.2
X13.7Y50.8
X13.7Y35.2
X13.7Y31.6
X13.7Y21.2
X13.7Y8.8
X13.75Y64.75
T0
M30
