%TF.GenerationSoftware,KiCad,Pcbnew,8.0.0-rc3*%
%TF.CreationDate,2024-02-21T00:14:42-08:00*%
%TF.ProjectId,hb100_horn_horizontal_wall,68623130-305f-4686-9f72-6e5f686f7269,rev?*%
%TF.SameCoordinates,Original*%
%TF.FileFunction,Profile,NP*%
%FSLAX46Y46*%
G04 Gerber Fmt 4.6, Leading zero omitted, Abs format (unit mm)*
G04 Created by KiCad (PCBNEW 8.0.0-rc3) date 2024-02-21 00:14:42*
%MOMM*%
%LPD*%
G01*
G04 APERTURE LIST*
%TA.AperFunction,Profile*%
%ADD10C,0.250000*%
%TD*%
%ADD11C,0.250000*%
G04 APERTURE END LIST*
D10*
X32000000Y-21500000D02*
X107000000Y-21500000D01*
X41500000Y-81507425D02*
X32000000Y-21500000D01*
X97500000Y-81507425D02*
X41500000Y-81507425D01*
X107000000Y-21500000D02*
X97500000Y-81507425D01*
D11*
X54070007Y-76924484D02*
X54153521Y-77181911D01*
X54193609Y-77429523D01*
X54200000Y-77576464D01*
X53912117Y-76629931D02*
X54036068Y-76848177D01*
X54070007Y-76924484D01*
X53700976Y-76373278D02*
X53870326Y-76570364D01*
X53912117Y-76629931D01*
X53148522Y-76005025D02*
X53372757Y-76117556D01*
X53593203Y-76274554D01*
X53700976Y-76373278D01*
X52829940Y-75908789D02*
X53080138Y-75978505D01*
X53148522Y-76005025D01*
X52497422Y-75876466D02*
X52747771Y-75894640D01*
X52829940Y-75908789D01*
X52166837Y-75909430D02*
X52424533Y-75878130D01*
X52497422Y-75876466D01*
X51847205Y-76006796D02*
X52085271Y-75927853D01*
X52166837Y-75909430D01*
X51296492Y-76375810D02*
X51502340Y-76200244D01*
X51715221Y-76068560D01*
X51847205Y-76006796D01*
X50928768Y-76927440D02*
X51051943Y-76686252D01*
X51198247Y-76483252D01*
X51296492Y-76375810D01*
X50832158Y-77247369D02*
X50898823Y-77005374D01*
X50928768Y-76927440D01*
X50800001Y-77578108D02*
X50819591Y-77319060D01*
X50832158Y-77247369D01*
X50833116Y-77910377D02*
X50802161Y-77661805D01*
X50800001Y-77578108D01*
X50930264Y-78229095D02*
X50851415Y-77991424D01*
X50833116Y-77910377D01*
X51087553Y-78522504D02*
X50959890Y-78296251D01*
X50930264Y-78229095D01*
X51299814Y-78780438D02*
X51135640Y-78590587D01*
X51087553Y-78522504D01*
X51556904Y-78990879D02*
X51352557Y-78830819D01*
X51299814Y-78780438D01*
X51851802Y-79148035D02*
X51627591Y-79035509D01*
X51556904Y-78990879D01*
X52502168Y-79276462D02*
X52232480Y-79255077D01*
X51988829Y-79197685D01*
X51851802Y-79148035D01*
X53152223Y-79146370D02*
X52894618Y-79229825D01*
X52647612Y-79269943D01*
X52502168Y-79276462D01*
X53446738Y-78988443D02*
X53228480Y-79112440D01*
X53152223Y-79146370D01*
X53703306Y-78777319D02*
X53506332Y-78946618D01*
X53446738Y-78988443D01*
X53914859Y-78518893D02*
X53760942Y-78716620D01*
X53703306Y-78777319D01*
X54071461Y-78224931D02*
X53959212Y-78448665D01*
X53914859Y-78518893D01*
X54200000Y-77576464D02*
X54178783Y-77846064D01*
X54115140Y-78107234D01*
X54071461Y-78224931D01*
X88070007Y-76924484D02*
X88153521Y-77181911D01*
X88193609Y-77429523D01*
X88200000Y-77576464D01*
X87912117Y-76629931D02*
X88036068Y-76848177D01*
X88070007Y-76924484D01*
X87700976Y-76373278D02*
X87870326Y-76570364D01*
X87912117Y-76629931D01*
X87148522Y-76005025D02*
X87372757Y-76117556D01*
X87593203Y-76274554D01*
X87700976Y-76373278D01*
X86829940Y-75908789D02*
X87080138Y-75978505D01*
X87148522Y-76005025D01*
X86497422Y-75876466D02*
X86747771Y-75894640D01*
X86829940Y-75908789D01*
X86166837Y-75909430D02*
X86424533Y-75878130D01*
X86497422Y-75876466D01*
X85847205Y-76006796D02*
X86085271Y-75927853D01*
X86166837Y-75909430D01*
X85296492Y-76375810D02*
X85502340Y-76200244D01*
X85715221Y-76068560D01*
X85847205Y-76006796D01*
X84928768Y-76927440D02*
X85051943Y-76686252D01*
X85198247Y-76483252D01*
X85296492Y-76375810D01*
X84832158Y-77247369D02*
X84898823Y-77005374D01*
X84928768Y-76927440D01*
X84800001Y-77578108D02*
X84819591Y-77319060D01*
X84832158Y-77247369D01*
X84833116Y-77910377D02*
X84802161Y-77661805D01*
X84800001Y-77578108D01*
X84930264Y-78229095D02*
X84851415Y-77991424D01*
X84833116Y-77910377D01*
X85087553Y-78522504D02*
X84959890Y-78296251D01*
X84930264Y-78229095D01*
X85299814Y-78780438D02*
X85135640Y-78590587D01*
X85087553Y-78522504D01*
X85556904Y-78990879D02*
X85352557Y-78830819D01*
X85299814Y-78780438D01*
X85851802Y-79148035D02*
X85627591Y-79035509D01*
X85556904Y-78990879D01*
X86502168Y-79276462D02*
X86232480Y-79255077D01*
X85988829Y-79197685D01*
X85851802Y-79148035D01*
X87152223Y-79146370D02*
X86894618Y-79229825D01*
X86647612Y-79269943D01*
X86502168Y-79276462D01*
X87446738Y-78988443D02*
X87228480Y-79112440D01*
X87152223Y-79146370D01*
X87703306Y-78777319D02*
X87506332Y-78946618D01*
X87446738Y-78988443D01*
X87914859Y-78518893D02*
X87760942Y-78716620D01*
X87703306Y-78777319D01*
X88071461Y-78224931D02*
X87959212Y-78448665D01*
X87914859Y-78518893D01*
X88200000Y-77576464D02*
X88178783Y-77846064D01*
X88115140Y-78107234D01*
X88071461Y-78224931D01*
D10*
X91200000Y-26500000D02*
G75*
G02*
X87800000Y-26500000I-1700000J0D01*
G01*
X87800000Y-26500000D02*
G75*
G02*
X91200000Y-26500000I1700000J0D01*
G01*
X51200000Y-26500000D02*
G75*
G02*
X47800000Y-26500000I-1700000J0D01*
G01*
X47800000Y-26500000D02*
G75*
G02*
X51200000Y-26500000I1700000J0D01*
G01*
M02*
