%TF.GenerationSoftware,KiCad,Pcbnew,7.0.7*%
%TF.CreationDate,2024-01-23T00:18:07-08:00*%
%TF.ProjectId,hb100_horn_horizontal_wall,68623130-305f-4686-9f72-6e5f686f7269,rev?*%
%TF.SameCoordinates,Original*%
%TF.FileFunction,Copper,L1,Top*%
%TF.FilePolarity,Positive*%
%FSLAX46Y46*%
G04 Gerber Fmt 4.6, Leading zero omitted, Abs format (unit mm)*
G04 Created by KiCad (PCBNEW 7.0.7) date 2024-01-23 00:18:07*
%MOMM*%
%LPD*%
G01*
G04 APERTURE LIST*
G04 APERTURE END LIST*
%TA.AperFunction,NonConductor*%
G36*
X106921279Y-21520185D02*
G01*
X106967034Y-21572989D01*
X106976978Y-21642147D01*
X106976724Y-21643827D01*
X105939624Y-28194748D01*
X97516134Y-81402314D01*
X97486209Y-81465451D01*
X97426900Y-81502387D01*
X97393659Y-81506925D01*
X41606341Y-81506925D01*
X41539302Y-81487240D01*
X41493547Y-81434436D01*
X41483866Y-81402314D01*
X33060376Y-28194748D01*
X32792075Y-26500004D01*
X47794732Y-26500004D01*
X47813777Y-26754154D01*
X47870103Y-27000936D01*
X47870492Y-27002637D01*
X47963607Y-27239888D01*
X48091041Y-27460612D01*
X48249950Y-27659877D01*
X48436783Y-27833232D01*
X48647366Y-27976805D01*
X48647371Y-27976807D01*
X48647372Y-27976808D01*
X48647373Y-27976809D01*
X48805937Y-28053169D01*
X48876996Y-28087389D01*
X48919157Y-28100394D01*
X48926249Y-28103066D01*
X48961245Y-28118755D01*
X48989189Y-28121996D01*
X49120542Y-28162513D01*
X49120547Y-28162513D01*
X49120548Y-28162514D01*
X49168109Y-28169683D01*
X49175301Y-28171207D01*
X49177981Y-28171942D01*
X49178046Y-28171958D01*
X49212236Y-28181352D01*
X49239247Y-28180405D01*
X49372565Y-28200500D01*
X49372571Y-28200500D01*
X49424692Y-28200500D01*
X49431810Y-28200910D01*
X49469689Y-28205284D01*
X49495190Y-28200500D01*
X49627431Y-28200500D01*
X49627435Y-28200500D01*
X49683035Y-28192119D01*
X49689885Y-28191474D01*
X49695249Y-28191269D01*
X49695250Y-28191268D01*
X49697309Y-28191190D01*
X49697349Y-28191187D01*
X49727791Y-28190019D01*
X49751198Y-28181845D01*
X49879458Y-28162513D01*
X49937169Y-28144711D01*
X49943563Y-28143110D01*
X49951131Y-28141643D01*
X49951138Y-28141640D01*
X49951832Y-28141506D01*
X49951841Y-28141504D01*
X49980545Y-28135937D01*
X50001435Y-28124887D01*
X50123004Y-28087389D01*
X50181179Y-28059373D01*
X50187082Y-28056899D01*
X50196440Y-28053539D01*
X50196447Y-28053535D01*
X50197436Y-28053180D01*
X50197464Y-28053169D01*
X50222160Y-28044299D01*
X50240202Y-28030949D01*
X50352634Y-27976805D01*
X50409509Y-27938028D01*
X50414770Y-27934814D01*
X50425425Y-27929021D01*
X50425431Y-27929016D01*
X50447077Y-27917246D01*
X50462058Y-27902200D01*
X50563217Y-27833232D01*
X50616865Y-27783454D01*
X50621428Y-27779614D01*
X50650157Y-27757715D01*
X50661983Y-27741590D01*
X50750050Y-27659877D01*
X50798445Y-27599191D01*
X50802229Y-27594874D01*
X50813461Y-27583204D01*
X50813464Y-27583199D01*
X50814117Y-27582521D01*
X50814124Y-27582514D01*
X50826752Y-27569392D01*
X50835434Y-27552808D01*
X50908959Y-27460612D01*
X50910836Y-27457362D01*
X50923920Y-27434696D01*
X50950033Y-27389467D01*
X50952993Y-27384831D01*
X50963419Y-27370010D01*
X50963423Y-27370001D01*
X50972813Y-27356652D01*
X50978484Y-27340189D01*
X51036393Y-27239888D01*
X51068103Y-27159090D01*
X51070252Y-27154241D01*
X51079074Y-27136424D01*
X51079075Y-27136420D01*
X51081138Y-27132254D01*
X51081850Y-27131481D01*
X51083300Y-27127885D01*
X51083837Y-27126798D01*
X51085357Y-27116569D01*
X51087086Y-27111105D01*
X51088459Y-27107225D01*
X51129508Y-27002637D01*
X51149887Y-26913346D01*
X51151214Y-26908472D01*
X51157476Y-26888685D01*
X51158719Y-26886836D01*
X51160208Y-26880469D01*
X51160168Y-26872058D01*
X51161628Y-26862601D01*
X51162447Y-26858321D01*
X51186222Y-26754157D01*
X51193436Y-26657889D01*
X51193977Y-26653170D01*
X51197506Y-26630325D01*
X51197506Y-26630323D01*
X51197649Y-26629398D01*
X51197653Y-26629360D01*
X51198657Y-26622856D01*
X51197764Y-26616848D01*
X51197779Y-26616012D01*
X51198161Y-26596058D01*
X51198318Y-26592735D01*
X51205268Y-26500004D01*
X87794732Y-26500004D01*
X87813777Y-26754154D01*
X87870103Y-27000936D01*
X87870492Y-27002637D01*
X87963607Y-27239888D01*
X88091041Y-27460612D01*
X88249950Y-27659877D01*
X88436783Y-27833232D01*
X88647366Y-27976805D01*
X88647371Y-27976807D01*
X88647372Y-27976808D01*
X88647373Y-27976809D01*
X88805937Y-28053169D01*
X88876996Y-28087389D01*
X88919157Y-28100394D01*
X88926249Y-28103066D01*
X88961245Y-28118755D01*
X88989189Y-28121996D01*
X89120542Y-28162513D01*
X89120547Y-28162513D01*
X89120548Y-28162514D01*
X89168109Y-28169683D01*
X89175301Y-28171207D01*
X89177981Y-28171942D01*
X89178046Y-28171958D01*
X89212236Y-28181352D01*
X89239247Y-28180405D01*
X89372565Y-28200500D01*
X89372571Y-28200500D01*
X89424692Y-28200500D01*
X89431810Y-28200910D01*
X89469689Y-28205284D01*
X89495190Y-28200500D01*
X89627431Y-28200500D01*
X89627435Y-28200500D01*
X89683035Y-28192119D01*
X89689885Y-28191474D01*
X89695249Y-28191269D01*
X89695250Y-28191268D01*
X89697309Y-28191190D01*
X89697349Y-28191187D01*
X89727791Y-28190019D01*
X89751198Y-28181845D01*
X89879458Y-28162513D01*
X89937169Y-28144711D01*
X89943563Y-28143110D01*
X89951131Y-28141643D01*
X89951138Y-28141640D01*
X89951832Y-28141506D01*
X89951841Y-28141504D01*
X89980545Y-28135937D01*
X90001435Y-28124887D01*
X90123004Y-28087389D01*
X90181179Y-28059373D01*
X90187082Y-28056899D01*
X90196440Y-28053539D01*
X90196447Y-28053535D01*
X90197436Y-28053180D01*
X90197464Y-28053169D01*
X90222160Y-28044299D01*
X90240202Y-28030949D01*
X90352634Y-27976805D01*
X90409509Y-27938028D01*
X90414770Y-27934814D01*
X90425425Y-27929021D01*
X90425431Y-27929016D01*
X90447077Y-27917246D01*
X90462058Y-27902200D01*
X90563217Y-27833232D01*
X90616865Y-27783454D01*
X90621428Y-27779614D01*
X90650157Y-27757715D01*
X90661983Y-27741590D01*
X90750050Y-27659877D01*
X90798445Y-27599191D01*
X90802229Y-27594874D01*
X90813461Y-27583204D01*
X90813464Y-27583199D01*
X90814117Y-27582521D01*
X90814124Y-27582514D01*
X90826752Y-27569392D01*
X90835434Y-27552808D01*
X90908959Y-27460612D01*
X90910836Y-27457362D01*
X90923920Y-27434696D01*
X90950033Y-27389467D01*
X90952993Y-27384831D01*
X90963419Y-27370010D01*
X90963423Y-27370001D01*
X90972813Y-27356652D01*
X90978484Y-27340189D01*
X91036393Y-27239888D01*
X91068103Y-27159090D01*
X91070252Y-27154241D01*
X91079074Y-27136424D01*
X91079075Y-27136420D01*
X91081138Y-27132254D01*
X91081850Y-27131481D01*
X91083300Y-27127885D01*
X91083837Y-27126798D01*
X91085357Y-27116569D01*
X91087086Y-27111105D01*
X91088459Y-27107225D01*
X91129508Y-27002637D01*
X91149887Y-26913346D01*
X91151214Y-26908472D01*
X91157476Y-26888685D01*
X91158719Y-26886836D01*
X91160208Y-26880469D01*
X91160168Y-26872058D01*
X91161628Y-26862601D01*
X91162447Y-26858321D01*
X91186222Y-26754157D01*
X91193436Y-26657889D01*
X91193977Y-26653170D01*
X91197506Y-26630325D01*
X91197506Y-26630323D01*
X91197649Y-26629398D01*
X91197653Y-26629360D01*
X91198657Y-26622856D01*
X91197764Y-26616848D01*
X91197779Y-26616012D01*
X91198161Y-26596058D01*
X91198318Y-26592735D01*
X91205268Y-26500000D01*
X91198318Y-26407268D01*
X91198161Y-26403938D01*
X91197763Y-26383150D01*
X91198927Y-26378889D01*
X91197694Y-26370905D01*
X91197691Y-26370878D01*
X91197506Y-26369681D01*
X91197506Y-26369675D01*
X91193978Y-26346838D01*
X91193435Y-26342102D01*
X91186222Y-26245843D01*
X91162442Y-26141657D01*
X91161628Y-26137394D01*
X91160166Y-26127934D01*
X91160927Y-26122225D01*
X91160592Y-26121165D01*
X91159006Y-26114389D01*
X91157476Y-26111314D01*
X91156953Y-26109664D01*
X91151208Y-26091509D01*
X91149889Y-26086661D01*
X91129508Y-25997363D01*
X91088462Y-25892782D01*
X91087085Y-25888890D01*
X91085360Y-25883441D01*
X91085205Y-25875961D01*
X91083299Y-25872112D01*
X91082073Y-25869072D01*
X91081139Y-25867746D01*
X91079063Y-25863554D01*
X91070235Y-25845725D01*
X91068107Y-25840918D01*
X91036393Y-25760112D01*
X90978485Y-25659812D01*
X90975373Y-25646983D01*
X90953006Y-25615185D01*
X90950022Y-25610512D01*
X90910835Y-25542638D01*
X90908959Y-25539388D01*
X90835434Y-25447191D01*
X90830071Y-25434055D01*
X90802240Y-25405137D01*
X90798445Y-25400808D01*
X90750050Y-25340123D01*
X90750047Y-25340120D01*
X90661983Y-25258408D01*
X90654224Y-25245382D01*
X90621427Y-25220383D01*
X90616839Y-25216521D01*
X90563217Y-25166767D01*
X90462058Y-25097798D01*
X90451847Y-25085346D01*
X90414795Y-25065197D01*
X90409485Y-25061955D01*
X90352634Y-25023195D01*
X90352630Y-25023193D01*
X90240201Y-24969050D01*
X90227562Y-24957639D01*
X90198837Y-24947322D01*
X90198828Y-24947318D01*
X90187094Y-24943103D01*
X90181152Y-24940613D01*
X90123006Y-24912612D01*
X90123004Y-24912611D01*
X90072177Y-24896933D01*
X90001434Y-24875111D01*
X89986484Y-24865213D01*
X89943597Y-24856895D01*
X89937122Y-24855274D01*
X89879463Y-24837488D01*
X89879459Y-24837487D01*
X89879458Y-24837487D01*
X89831876Y-24830315D01*
X89751191Y-24818153D01*
X89734124Y-24810218D01*
X89689874Y-24808523D01*
X89683001Y-24807875D01*
X89627440Y-24799500D01*
X89627435Y-24799500D01*
X89495192Y-24799500D01*
X89476308Y-24793955D01*
X89441178Y-24798010D01*
X89441171Y-24798011D01*
X89431819Y-24799091D01*
X89424704Y-24799500D01*
X89372557Y-24799500D01*
X89239233Y-24819596D01*
X89218904Y-24816814D01*
X89179073Y-24827758D01*
X89179038Y-24827767D01*
X89175274Y-24828799D01*
X89168115Y-24830315D01*
X89120539Y-24837487D01*
X88989113Y-24878026D01*
X88967772Y-24878316D01*
X88926247Y-24896933D01*
X88919153Y-24899606D01*
X88876998Y-24912609D01*
X88647370Y-25023192D01*
X88436782Y-25166768D01*
X88249952Y-25340121D01*
X88249950Y-25340123D01*
X88091041Y-25539388D01*
X87963608Y-25760109D01*
X87870492Y-25997362D01*
X87870490Y-25997369D01*
X87813777Y-26245845D01*
X87794732Y-26499995D01*
X87794732Y-26500004D01*
X51205268Y-26500004D01*
X51205268Y-26500000D01*
X51198318Y-26407268D01*
X51198161Y-26403938D01*
X51197763Y-26383150D01*
X51198927Y-26378889D01*
X51197694Y-26370905D01*
X51197691Y-26370878D01*
X51197506Y-26369681D01*
X51197506Y-26369675D01*
X51193978Y-26346838D01*
X51193435Y-26342102D01*
X51186222Y-26245843D01*
X51162442Y-26141657D01*
X51161628Y-26137394D01*
X51160166Y-26127934D01*
X51160927Y-26122225D01*
X51160592Y-26121165D01*
X51159006Y-26114389D01*
X51157476Y-26111314D01*
X51156953Y-26109664D01*
X51151208Y-26091509D01*
X51149889Y-26086661D01*
X51129508Y-25997363D01*
X51088462Y-25892782D01*
X51087085Y-25888890D01*
X51085360Y-25883441D01*
X51085205Y-25875961D01*
X51083299Y-25872112D01*
X51082073Y-25869072D01*
X51081139Y-25867746D01*
X51079063Y-25863554D01*
X51070235Y-25845725D01*
X51068107Y-25840918D01*
X51036393Y-25760112D01*
X50978485Y-25659812D01*
X50975373Y-25646983D01*
X50953006Y-25615185D01*
X50950022Y-25610512D01*
X50910835Y-25542638D01*
X50908959Y-25539388D01*
X50835434Y-25447191D01*
X50830071Y-25434055D01*
X50802240Y-25405137D01*
X50798445Y-25400808D01*
X50750050Y-25340123D01*
X50750047Y-25340120D01*
X50661983Y-25258408D01*
X50654224Y-25245382D01*
X50621427Y-25220383D01*
X50616839Y-25216521D01*
X50563217Y-25166767D01*
X50462058Y-25097798D01*
X50451847Y-25085346D01*
X50414795Y-25065197D01*
X50409485Y-25061955D01*
X50352634Y-25023195D01*
X50352630Y-25023193D01*
X50240201Y-24969050D01*
X50227562Y-24957639D01*
X50198837Y-24947322D01*
X50198828Y-24947318D01*
X50187094Y-24943103D01*
X50181152Y-24940613D01*
X50123006Y-24912612D01*
X50123004Y-24912611D01*
X50072177Y-24896933D01*
X50001434Y-24875111D01*
X49986484Y-24865213D01*
X49943597Y-24856895D01*
X49937122Y-24855274D01*
X49879463Y-24837488D01*
X49879459Y-24837487D01*
X49879458Y-24837487D01*
X49831876Y-24830315D01*
X49751191Y-24818153D01*
X49734124Y-24810218D01*
X49689874Y-24808523D01*
X49683001Y-24807875D01*
X49627440Y-24799500D01*
X49627435Y-24799500D01*
X49495192Y-24799500D01*
X49476308Y-24793955D01*
X49441178Y-24798010D01*
X49441171Y-24798011D01*
X49431819Y-24799091D01*
X49424704Y-24799500D01*
X49372557Y-24799500D01*
X49239233Y-24819596D01*
X49218904Y-24816814D01*
X49179073Y-24827758D01*
X49179038Y-24827767D01*
X49175274Y-24828799D01*
X49168115Y-24830315D01*
X49120539Y-24837487D01*
X48989113Y-24878026D01*
X48967772Y-24878316D01*
X48926247Y-24896933D01*
X48919153Y-24899606D01*
X48876998Y-24912609D01*
X48647370Y-25023192D01*
X48436782Y-25166768D01*
X48249952Y-25340121D01*
X48249950Y-25340123D01*
X48091041Y-25539388D01*
X47963608Y-25760109D01*
X47870492Y-25997362D01*
X47870490Y-25997369D01*
X47813777Y-26245845D01*
X47794732Y-26499995D01*
X47794732Y-26500004D01*
X32792075Y-26500004D01*
X32023285Y-21643887D01*
X32032245Y-21574597D01*
X32077245Y-21521148D01*
X32143998Y-21500513D01*
X32145760Y-21500500D01*
X106854240Y-21500500D01*
X106921279Y-21520185D01*
G37*
%TD.AperFunction*%
M02*
