%TF.GenerationSoftware,KiCad,Pcbnew,8.0.0-rc3*%
%TF.CreationDate,2024-02-21T00:14:42-08:00*%
%TF.ProjectId,hb100_horn_horizontal_wall,68623130-305f-4686-9f72-6e5f686f7269,rev?*%
%TF.SameCoordinates,Original*%
%TF.FileFunction,Soldermask,Top*%
%TF.FilePolarity,Negative*%
%FSLAX46Y46*%
G04 Gerber Fmt 4.6, Leading zero omitted, Abs format (unit mm)*
G04 Created by KiCad (PCBNEW 8.0.0-rc3) date 2024-02-21 00:14:42*
%MOMM*%
%LPD*%
G01*
G04 APERTURE LIST*
G04 APERTURE END LIST*
G36*
X106921864Y-21519685D02*
G01*
X106967619Y-21572489D01*
X106977563Y-21641647D01*
X106977300Y-21643389D01*
X97516561Y-81402814D01*
X97486636Y-81465951D01*
X97427327Y-81502887D01*
X97394086Y-81507425D01*
X41605914Y-81507425D01*
X41538875Y-81487740D01*
X41493120Y-81434936D01*
X41483439Y-81402814D01*
X40877936Y-77578109D01*
X50800000Y-77578109D01*
X50833116Y-77910378D01*
X50833116Y-77910381D01*
X50930262Y-78229090D01*
X50930264Y-78229095D01*
X51087554Y-78522506D01*
X51299815Y-78780439D01*
X51556901Y-78990877D01*
X51851800Y-79148033D01*
X52232483Y-79255077D01*
X52502165Y-79276461D01*
X52894616Y-79229825D01*
X52894620Y-79229824D01*
X53152219Y-79146371D01*
X53152223Y-79146369D01*
X53446731Y-78988446D01*
X53446740Y-78988441D01*
X53703304Y-78777320D01*
X53914861Y-78518889D01*
X54071460Y-78224932D01*
X54071461Y-78224930D01*
X54178782Y-77846064D01*
X54199869Y-77578109D01*
X84800000Y-77578109D01*
X84833116Y-77910378D01*
X84833116Y-77910381D01*
X84930262Y-78229090D01*
X84930264Y-78229095D01*
X85087554Y-78522506D01*
X85299815Y-78780439D01*
X85556901Y-78990877D01*
X85851800Y-79148033D01*
X86232483Y-79255077D01*
X86502165Y-79276461D01*
X86894616Y-79229825D01*
X86894620Y-79229824D01*
X87152219Y-79146371D01*
X87152223Y-79146369D01*
X87446731Y-78988446D01*
X87446740Y-78988441D01*
X87703304Y-78777320D01*
X87914861Y-78518889D01*
X88071460Y-78224932D01*
X88071461Y-78224930D01*
X88178782Y-77846064D01*
X88199999Y-77576463D01*
X88199999Y-77576456D01*
X88153521Y-77181916D01*
X88153519Y-77181906D01*
X88070008Y-76924488D01*
X88070004Y-76924477D01*
X87912119Y-76629935D01*
X87700971Y-76373273D01*
X87372758Y-76117556D01*
X87148526Y-76005027D01*
X87148512Y-76005021D01*
X86829943Y-75908789D01*
X86829932Y-75908787D01*
X86497425Y-75876466D01*
X86497418Y-75876466D01*
X86166842Y-75909429D01*
X85847205Y-76006795D01*
X85847199Y-76006798D01*
X85502344Y-76200240D01*
X85296489Y-76375813D01*
X85051946Y-76686247D01*
X85051939Y-76686257D01*
X84928768Y-76927438D01*
X84832157Y-77247370D01*
X84800000Y-77578109D01*
X54199869Y-77578109D01*
X54199999Y-77576463D01*
X54199999Y-77576456D01*
X54153521Y-77181916D01*
X54153519Y-77181906D01*
X54070008Y-76924488D01*
X54070004Y-76924477D01*
X53912119Y-76629935D01*
X53700971Y-76373273D01*
X53372758Y-76117556D01*
X53148526Y-76005027D01*
X53148512Y-76005021D01*
X52829943Y-75908789D01*
X52829932Y-75908787D01*
X52497425Y-75876466D01*
X52497418Y-75876466D01*
X52166842Y-75909429D01*
X51847205Y-76006795D01*
X51847199Y-76006798D01*
X51502344Y-76200240D01*
X51296489Y-76375813D01*
X51051946Y-76686247D01*
X51051939Y-76686257D01*
X50928768Y-76927438D01*
X50832157Y-77247370D01*
X50800000Y-77578109D01*
X40877936Y-77578109D01*
X32791568Y-26500000D01*
X47797499Y-26500000D01*
X47817451Y-26759884D01*
X47817451Y-26759889D01*
X47876840Y-27013677D01*
X47876841Y-27013682D01*
X47974277Y-27255435D01*
X47974281Y-27255441D01*
X48107473Y-27479479D01*
X48273309Y-27680568D01*
X48467899Y-27853986D01*
X48467907Y-27853993D01*
X48686676Y-27995666D01*
X48686684Y-27995670D01*
X48924523Y-28102291D01*
X48924525Y-28102292D01*
X49175853Y-28171358D01*
X49175857Y-28171359D01*
X49434790Y-28201251D01*
X49695249Y-28191269D01*
X49951134Y-28141642D01*
X50196435Y-28053541D01*
X50425428Y-27929018D01*
X50632713Y-27771011D01*
X50813459Y-27583204D01*
X50813463Y-27583200D01*
X50963419Y-27370009D01*
X51079073Y-27136425D01*
X51079074Y-27136422D01*
X51157716Y-26887924D01*
X51197506Y-26630324D01*
X51197506Y-26630317D01*
X51200000Y-26500000D01*
X87797499Y-26500000D01*
X87817451Y-26759884D01*
X87817451Y-26759889D01*
X87876840Y-27013677D01*
X87876841Y-27013682D01*
X87974277Y-27255435D01*
X87974281Y-27255441D01*
X88107473Y-27479479D01*
X88273309Y-27680568D01*
X88467899Y-27853986D01*
X88467907Y-27853993D01*
X88686676Y-27995666D01*
X88686684Y-27995670D01*
X88924523Y-28102291D01*
X88924525Y-28102292D01*
X89175853Y-28171358D01*
X89175857Y-28171359D01*
X89434790Y-28201251D01*
X89695249Y-28191269D01*
X89951134Y-28141642D01*
X90196435Y-28053541D01*
X90425428Y-27929018D01*
X90632713Y-27771011D01*
X90813459Y-27583204D01*
X90813463Y-27583200D01*
X90963419Y-27370009D01*
X91079073Y-27136425D01*
X91079074Y-27136422D01*
X91157716Y-26887924D01*
X91197506Y-26630324D01*
X91197506Y-26630317D01*
X91200000Y-26500000D01*
X91197506Y-26369682D01*
X91197506Y-26369675D01*
X91157716Y-26112075D01*
X91079074Y-25863577D01*
X91079073Y-25863574D01*
X90963419Y-25629990D01*
X90813463Y-25416799D01*
X90813459Y-25416795D01*
X90632713Y-25228988D01*
X90425428Y-25070981D01*
X90196435Y-24946458D01*
X89951134Y-24858357D01*
X89695249Y-24808730D01*
X89434790Y-24798748D01*
X89175857Y-24828640D01*
X89175853Y-24828641D01*
X88924525Y-24897707D01*
X88924523Y-24897708D01*
X88686684Y-25004329D01*
X88686676Y-25004333D01*
X88467907Y-25146006D01*
X88467899Y-25146013D01*
X88273309Y-25319431D01*
X88107473Y-25520520D01*
X87974281Y-25744558D01*
X87974277Y-25744564D01*
X87876841Y-25986317D01*
X87876840Y-25986322D01*
X87817451Y-26240110D01*
X87817451Y-26240115D01*
X87797499Y-26499997D01*
X87797499Y-26500000D01*
X51200000Y-26500000D01*
X51197506Y-26369682D01*
X51197506Y-26369675D01*
X51157716Y-26112075D01*
X51079074Y-25863577D01*
X51079073Y-25863574D01*
X50963419Y-25629990D01*
X50813463Y-25416799D01*
X50813459Y-25416795D01*
X50632713Y-25228988D01*
X50425428Y-25070981D01*
X50196435Y-24946458D01*
X49951134Y-24858357D01*
X49695249Y-24808730D01*
X49434790Y-24798748D01*
X49175857Y-24828640D01*
X49175853Y-24828641D01*
X48924525Y-24897707D01*
X48924523Y-24897708D01*
X48686684Y-25004329D01*
X48686676Y-25004333D01*
X48467907Y-25146006D01*
X48467899Y-25146013D01*
X48273309Y-25319431D01*
X48107473Y-25520520D01*
X47974281Y-25744558D01*
X47974277Y-25744564D01*
X47876841Y-25986317D01*
X47876840Y-25986322D01*
X47817451Y-26240110D01*
X47817451Y-26240115D01*
X47797499Y-26499997D01*
X47797499Y-26500000D01*
X32791568Y-26500000D01*
X32022700Y-21643389D01*
X32031660Y-21574097D01*
X32076660Y-21520648D01*
X32143413Y-21500013D01*
X32145175Y-21500000D01*
X106854825Y-21500000D01*
X106921864Y-21519685D01*
G37*
M02*
