%TF.GenerationSoftware,KiCad,Pcbnew,7.0.7*%
%TF.CreationDate,2024-01-23T00:18:07-08:00*%
%TF.ProjectId,hb100_horn_horizontal_wall,68623130-305f-4686-9f72-6e5f686f7269,rev?*%
%TF.SameCoordinates,Original*%
%TF.FileFunction,Soldermask,Top*%
%TF.FilePolarity,Negative*%
%FSLAX46Y46*%
G04 Gerber Fmt 4.6, Leading zero omitted, Abs format (unit mm)*
G04 Created by KiCad (PCBNEW 7.0.7) date 2024-01-23 00:18:07*
%MOMM*%
%LPD*%
G01*
G04 APERTURE LIST*
G04 APERTURE END LIST*
G36*
X106921864Y-21519685D02*
G01*
X106967619Y-21572489D01*
X106977563Y-21641647D01*
X106977300Y-21643389D01*
X97516561Y-81402814D01*
X97486636Y-81465951D01*
X97427327Y-81502887D01*
X97394086Y-81507425D01*
X41605914Y-81507425D01*
X41538875Y-81487740D01*
X41493120Y-81434936D01*
X41483439Y-81402814D01*
X32791568Y-26500000D01*
X47797499Y-26500000D01*
X47817451Y-26759884D01*
X47817451Y-26759889D01*
X47876840Y-27013677D01*
X47876841Y-27013682D01*
X47974277Y-27255435D01*
X47974281Y-27255441D01*
X48107473Y-27479479D01*
X48273309Y-27680568D01*
X48467899Y-27853986D01*
X48467907Y-27853993D01*
X48686676Y-27995666D01*
X48686684Y-27995670D01*
X48924523Y-28102291D01*
X48924525Y-28102292D01*
X49175853Y-28171358D01*
X49175857Y-28171359D01*
X49434790Y-28201251D01*
X49695249Y-28191269D01*
X49951134Y-28141642D01*
X50196435Y-28053541D01*
X50425428Y-27929018D01*
X50632713Y-27771011D01*
X50813459Y-27583204D01*
X50813463Y-27583200D01*
X50963419Y-27370009D01*
X51079073Y-27136425D01*
X51079074Y-27136422D01*
X51157716Y-26887924D01*
X51197506Y-26630324D01*
X51197506Y-26630317D01*
X51200000Y-26500000D01*
X87797499Y-26500000D01*
X87817451Y-26759884D01*
X87817451Y-26759889D01*
X87876840Y-27013677D01*
X87876841Y-27013682D01*
X87974277Y-27255435D01*
X87974281Y-27255441D01*
X88107473Y-27479479D01*
X88273309Y-27680568D01*
X88467899Y-27853986D01*
X88467907Y-27853993D01*
X88686676Y-27995666D01*
X88686684Y-27995670D01*
X88924523Y-28102291D01*
X88924525Y-28102292D01*
X89175853Y-28171358D01*
X89175857Y-28171359D01*
X89434790Y-28201251D01*
X89695249Y-28191269D01*
X89951134Y-28141642D01*
X90196435Y-28053541D01*
X90425428Y-27929018D01*
X90632713Y-27771011D01*
X90813459Y-27583204D01*
X90813463Y-27583200D01*
X90963419Y-27370009D01*
X91079073Y-27136425D01*
X91079074Y-27136422D01*
X91157716Y-26887924D01*
X91197506Y-26630324D01*
X91197506Y-26630317D01*
X91200000Y-26500000D01*
X91197506Y-26369682D01*
X91197506Y-26369675D01*
X91157716Y-26112075D01*
X91079074Y-25863577D01*
X91079073Y-25863574D01*
X90963419Y-25629990D01*
X90813463Y-25416799D01*
X90813459Y-25416795D01*
X90632713Y-25228988D01*
X90425428Y-25070981D01*
X90196435Y-24946458D01*
X89951134Y-24858357D01*
X89695249Y-24808730D01*
X89434790Y-24798748D01*
X89175857Y-24828640D01*
X89175853Y-24828641D01*
X88924525Y-24897707D01*
X88924523Y-24897708D01*
X88686684Y-25004329D01*
X88686676Y-25004333D01*
X88467907Y-25146006D01*
X88467899Y-25146013D01*
X88273309Y-25319431D01*
X88107473Y-25520520D01*
X87974281Y-25744558D01*
X87974277Y-25744564D01*
X87876841Y-25986317D01*
X87876840Y-25986322D01*
X87817451Y-26240110D01*
X87817451Y-26240115D01*
X87797499Y-26499997D01*
X87797499Y-26500000D01*
X51200000Y-26500000D01*
X51197506Y-26369682D01*
X51197506Y-26369675D01*
X51157716Y-26112075D01*
X51079074Y-25863577D01*
X51079073Y-25863574D01*
X50963419Y-25629990D01*
X50813463Y-25416799D01*
X50813459Y-25416795D01*
X50632713Y-25228988D01*
X50425428Y-25070981D01*
X50196435Y-24946458D01*
X49951134Y-24858357D01*
X49695249Y-24808730D01*
X49434790Y-24798748D01*
X49175857Y-24828640D01*
X49175853Y-24828641D01*
X48924525Y-24897707D01*
X48924523Y-24897708D01*
X48686684Y-25004329D01*
X48686676Y-25004333D01*
X48467907Y-25146006D01*
X48467899Y-25146013D01*
X48273309Y-25319431D01*
X48107473Y-25520520D01*
X47974281Y-25744558D01*
X47974277Y-25744564D01*
X47876841Y-25986317D01*
X47876840Y-25986322D01*
X47817451Y-26240110D01*
X47817451Y-26240115D01*
X47797499Y-26499997D01*
X47797499Y-26500000D01*
X32791568Y-26500000D01*
X32022700Y-21643389D01*
X32031660Y-21574097D01*
X32076660Y-21520648D01*
X32143413Y-21500013D01*
X32145175Y-21500000D01*
X106854825Y-21500000D01*
X106921864Y-21519685D01*
G37*
M02*
