%TF.GenerationSoftware,KiCad,Pcbnew,7.0.7*%
%TF.CreationDate,2024-01-23T00:18:07-08:00*%
%TF.ProjectId,hb100_horn_horizontal_wall,68623130-305f-4686-9f72-6e5f686f7269,rev?*%
%TF.SameCoordinates,Original*%
%TF.FileFunction,Soldermask,Bot*%
%TF.FilePolarity,Negative*%
%FSLAX46Y46*%
G04 Gerber Fmt 4.6, Leading zero omitted, Abs format (unit mm)*
G04 Created by KiCad (PCBNEW 7.0.7) date 2024-01-23 00:18:07*
%MOMM*%
%LPD*%
G01*
G04 APERTURE LIST*
%ADD10C,0.150000*%
G04 APERTURE END LIST*
D10*
X94663220Y-77259819D02*
X94663220Y-76259819D01*
X94234649Y-77259819D02*
X94234649Y-76736009D01*
X94234649Y-76736009D02*
X94282268Y-76640771D01*
X94282268Y-76640771D02*
X94377506Y-76593152D01*
X94377506Y-76593152D02*
X94520363Y-76593152D01*
X94520363Y-76593152D02*
X94615601Y-76640771D01*
X94615601Y-76640771D02*
X94663220Y-76688390D01*
X93758458Y-77259819D02*
X93758458Y-76259819D01*
X93758458Y-76640771D02*
X93663220Y-76593152D01*
X93663220Y-76593152D02*
X93472744Y-76593152D01*
X93472744Y-76593152D02*
X93377506Y-76640771D01*
X93377506Y-76640771D02*
X93329887Y-76688390D01*
X93329887Y-76688390D02*
X93282268Y-76783628D01*
X93282268Y-76783628D02*
X93282268Y-77069342D01*
X93282268Y-77069342D02*
X93329887Y-77164580D01*
X93329887Y-77164580D02*
X93377506Y-77212200D01*
X93377506Y-77212200D02*
X93472744Y-77259819D01*
X93472744Y-77259819D02*
X93663220Y-77259819D01*
X93663220Y-77259819D02*
X93758458Y-77212200D01*
X92329887Y-77259819D02*
X92901315Y-77259819D01*
X92615601Y-77259819D02*
X92615601Y-76259819D01*
X92615601Y-76259819D02*
X92710839Y-76402676D01*
X92710839Y-76402676D02*
X92806077Y-76497914D01*
X92806077Y-76497914D02*
X92901315Y-76545533D01*
X91710839Y-76259819D02*
X91615601Y-76259819D01*
X91615601Y-76259819D02*
X91520363Y-76307438D01*
X91520363Y-76307438D02*
X91472744Y-76355057D01*
X91472744Y-76355057D02*
X91425125Y-76450295D01*
X91425125Y-76450295D02*
X91377506Y-76640771D01*
X91377506Y-76640771D02*
X91377506Y-76878866D01*
X91377506Y-76878866D02*
X91425125Y-77069342D01*
X91425125Y-77069342D02*
X91472744Y-77164580D01*
X91472744Y-77164580D02*
X91520363Y-77212200D01*
X91520363Y-77212200D02*
X91615601Y-77259819D01*
X91615601Y-77259819D02*
X91710839Y-77259819D01*
X91710839Y-77259819D02*
X91806077Y-77212200D01*
X91806077Y-77212200D02*
X91853696Y-77164580D01*
X91853696Y-77164580D02*
X91901315Y-77069342D01*
X91901315Y-77069342D02*
X91948934Y-76878866D01*
X91948934Y-76878866D02*
X91948934Y-76640771D01*
X91948934Y-76640771D02*
X91901315Y-76450295D01*
X91901315Y-76450295D02*
X91853696Y-76355057D01*
X91853696Y-76355057D02*
X91806077Y-76307438D01*
X91806077Y-76307438D02*
X91710839Y-76259819D01*
X90758458Y-76259819D02*
X90663220Y-76259819D01*
X90663220Y-76259819D02*
X90567982Y-76307438D01*
X90567982Y-76307438D02*
X90520363Y-76355057D01*
X90520363Y-76355057D02*
X90472744Y-76450295D01*
X90472744Y-76450295D02*
X90425125Y-76640771D01*
X90425125Y-76640771D02*
X90425125Y-76878866D01*
X90425125Y-76878866D02*
X90472744Y-77069342D01*
X90472744Y-77069342D02*
X90520363Y-77164580D01*
X90520363Y-77164580D02*
X90567982Y-77212200D01*
X90567982Y-77212200D02*
X90663220Y-77259819D01*
X90663220Y-77259819D02*
X90758458Y-77259819D01*
X90758458Y-77259819D02*
X90853696Y-77212200D01*
X90853696Y-77212200D02*
X90901315Y-77164580D01*
X90901315Y-77164580D02*
X90948934Y-77069342D01*
X90948934Y-77069342D02*
X90996553Y-76878866D01*
X90996553Y-76878866D02*
X90996553Y-76640771D01*
X90996553Y-76640771D02*
X90948934Y-76450295D01*
X90948934Y-76450295D02*
X90901315Y-76355057D01*
X90901315Y-76355057D02*
X90853696Y-76307438D01*
X90853696Y-76307438D02*
X90758458Y-76259819D01*
X90234649Y-77355057D02*
X89472744Y-77355057D01*
X89234648Y-77259819D02*
X89234648Y-76259819D01*
X88806077Y-77259819D02*
X88806077Y-76736009D01*
X88806077Y-76736009D02*
X88853696Y-76640771D01*
X88853696Y-76640771D02*
X88948934Y-76593152D01*
X88948934Y-76593152D02*
X89091791Y-76593152D01*
X89091791Y-76593152D02*
X89187029Y-76640771D01*
X89187029Y-76640771D02*
X89234648Y-76688390D01*
X88187029Y-77259819D02*
X88282267Y-77212200D01*
X88282267Y-77212200D02*
X88329886Y-77164580D01*
X88329886Y-77164580D02*
X88377505Y-77069342D01*
X88377505Y-77069342D02*
X88377505Y-76783628D01*
X88377505Y-76783628D02*
X88329886Y-76688390D01*
X88329886Y-76688390D02*
X88282267Y-76640771D01*
X88282267Y-76640771D02*
X88187029Y-76593152D01*
X88187029Y-76593152D02*
X88044172Y-76593152D01*
X88044172Y-76593152D02*
X87948934Y-76640771D01*
X87948934Y-76640771D02*
X87901315Y-76688390D01*
X87901315Y-76688390D02*
X87853696Y-76783628D01*
X87853696Y-76783628D02*
X87853696Y-77069342D01*
X87853696Y-77069342D02*
X87901315Y-77164580D01*
X87901315Y-77164580D02*
X87948934Y-77212200D01*
X87948934Y-77212200D02*
X88044172Y-77259819D01*
X88044172Y-77259819D02*
X88187029Y-77259819D01*
X87425124Y-77259819D02*
X87425124Y-76593152D01*
X87425124Y-76783628D02*
X87377505Y-76688390D01*
X87377505Y-76688390D02*
X87329886Y-76640771D01*
X87329886Y-76640771D02*
X87234648Y-76593152D01*
X87234648Y-76593152D02*
X87139410Y-76593152D01*
X86806076Y-76593152D02*
X86806076Y-77259819D01*
X86806076Y-76688390D02*
X86758457Y-76640771D01*
X86758457Y-76640771D02*
X86663219Y-76593152D01*
X86663219Y-76593152D02*
X86520362Y-76593152D01*
X86520362Y-76593152D02*
X86425124Y-76640771D01*
X86425124Y-76640771D02*
X86377505Y-76736009D01*
X86377505Y-76736009D02*
X86377505Y-77259819D01*
X86139410Y-77355057D02*
X85377505Y-77355057D01*
X85139409Y-77259819D02*
X85139409Y-76259819D01*
X84710838Y-77259819D02*
X84710838Y-76736009D01*
X84710838Y-76736009D02*
X84758457Y-76640771D01*
X84758457Y-76640771D02*
X84853695Y-76593152D01*
X84853695Y-76593152D02*
X84996552Y-76593152D01*
X84996552Y-76593152D02*
X85091790Y-76640771D01*
X85091790Y-76640771D02*
X85139409Y-76688390D01*
X84091790Y-77259819D02*
X84187028Y-77212200D01*
X84187028Y-77212200D02*
X84234647Y-77164580D01*
X84234647Y-77164580D02*
X84282266Y-77069342D01*
X84282266Y-77069342D02*
X84282266Y-76783628D01*
X84282266Y-76783628D02*
X84234647Y-76688390D01*
X84234647Y-76688390D02*
X84187028Y-76640771D01*
X84187028Y-76640771D02*
X84091790Y-76593152D01*
X84091790Y-76593152D02*
X83948933Y-76593152D01*
X83948933Y-76593152D02*
X83853695Y-76640771D01*
X83853695Y-76640771D02*
X83806076Y-76688390D01*
X83806076Y-76688390D02*
X83758457Y-76783628D01*
X83758457Y-76783628D02*
X83758457Y-77069342D01*
X83758457Y-77069342D02*
X83806076Y-77164580D01*
X83806076Y-77164580D02*
X83853695Y-77212200D01*
X83853695Y-77212200D02*
X83948933Y-77259819D01*
X83948933Y-77259819D02*
X84091790Y-77259819D01*
X83329885Y-77259819D02*
X83329885Y-76593152D01*
X83329885Y-76783628D02*
X83282266Y-76688390D01*
X83282266Y-76688390D02*
X83234647Y-76640771D01*
X83234647Y-76640771D02*
X83139409Y-76593152D01*
X83139409Y-76593152D02*
X83044171Y-76593152D01*
X82710837Y-77259819D02*
X82710837Y-76593152D01*
X82710837Y-76259819D02*
X82758456Y-76307438D01*
X82758456Y-76307438D02*
X82710837Y-76355057D01*
X82710837Y-76355057D02*
X82663218Y-76307438D01*
X82663218Y-76307438D02*
X82710837Y-76259819D01*
X82710837Y-76259819D02*
X82710837Y-76355057D01*
X82329885Y-76593152D02*
X81806076Y-76593152D01*
X81806076Y-76593152D02*
X82329885Y-77259819D01*
X82329885Y-77259819D02*
X81806076Y-77259819D01*
X81282266Y-77259819D02*
X81377504Y-77212200D01*
X81377504Y-77212200D02*
X81425123Y-77164580D01*
X81425123Y-77164580D02*
X81472742Y-77069342D01*
X81472742Y-77069342D02*
X81472742Y-76783628D01*
X81472742Y-76783628D02*
X81425123Y-76688390D01*
X81425123Y-76688390D02*
X81377504Y-76640771D01*
X81377504Y-76640771D02*
X81282266Y-76593152D01*
X81282266Y-76593152D02*
X81139409Y-76593152D01*
X81139409Y-76593152D02*
X81044171Y-76640771D01*
X81044171Y-76640771D02*
X80996552Y-76688390D01*
X80996552Y-76688390D02*
X80948933Y-76783628D01*
X80948933Y-76783628D02*
X80948933Y-77069342D01*
X80948933Y-77069342D02*
X80996552Y-77164580D01*
X80996552Y-77164580D02*
X81044171Y-77212200D01*
X81044171Y-77212200D02*
X81139409Y-77259819D01*
X81139409Y-77259819D02*
X81282266Y-77259819D01*
X80520361Y-76593152D02*
X80520361Y-77259819D01*
X80520361Y-76688390D02*
X80472742Y-76640771D01*
X80472742Y-76640771D02*
X80377504Y-76593152D01*
X80377504Y-76593152D02*
X80234647Y-76593152D01*
X80234647Y-76593152D02*
X80139409Y-76640771D01*
X80139409Y-76640771D02*
X80091790Y-76736009D01*
X80091790Y-76736009D02*
X80091790Y-77259819D01*
X79758456Y-76593152D02*
X79377504Y-76593152D01*
X79615599Y-76259819D02*
X79615599Y-77116961D01*
X79615599Y-77116961D02*
X79567980Y-77212200D01*
X79567980Y-77212200D02*
X79472742Y-77259819D01*
X79472742Y-77259819D02*
X79377504Y-77259819D01*
X78615599Y-77259819D02*
X78615599Y-76736009D01*
X78615599Y-76736009D02*
X78663218Y-76640771D01*
X78663218Y-76640771D02*
X78758456Y-76593152D01*
X78758456Y-76593152D02*
X78948932Y-76593152D01*
X78948932Y-76593152D02*
X79044170Y-76640771D01*
X78615599Y-77212200D02*
X78710837Y-77259819D01*
X78710837Y-77259819D02*
X78948932Y-77259819D01*
X78948932Y-77259819D02*
X79044170Y-77212200D01*
X79044170Y-77212200D02*
X79091789Y-77116961D01*
X79091789Y-77116961D02*
X79091789Y-77021723D01*
X79091789Y-77021723D02*
X79044170Y-76926485D01*
X79044170Y-76926485D02*
X78948932Y-76878866D01*
X78948932Y-76878866D02*
X78710837Y-76878866D01*
X78710837Y-76878866D02*
X78615599Y-76831247D01*
X77996551Y-77259819D02*
X78091789Y-77212200D01*
X78091789Y-77212200D02*
X78139408Y-77116961D01*
X78139408Y-77116961D02*
X78139408Y-76259819D01*
X77853694Y-77355057D02*
X77091789Y-77355057D01*
X76948931Y-76593152D02*
X76758455Y-77259819D01*
X76758455Y-77259819D02*
X76567979Y-76783628D01*
X76567979Y-76783628D02*
X76377503Y-77259819D01*
X76377503Y-77259819D02*
X76187027Y-76593152D01*
X75377503Y-77259819D02*
X75377503Y-76736009D01*
X75377503Y-76736009D02*
X75425122Y-76640771D01*
X75425122Y-76640771D02*
X75520360Y-76593152D01*
X75520360Y-76593152D02*
X75710836Y-76593152D01*
X75710836Y-76593152D02*
X75806074Y-76640771D01*
X75377503Y-77212200D02*
X75472741Y-77259819D01*
X75472741Y-77259819D02*
X75710836Y-77259819D01*
X75710836Y-77259819D02*
X75806074Y-77212200D01*
X75806074Y-77212200D02*
X75853693Y-77116961D01*
X75853693Y-77116961D02*
X75853693Y-77021723D01*
X75853693Y-77021723D02*
X75806074Y-76926485D01*
X75806074Y-76926485D02*
X75710836Y-76878866D01*
X75710836Y-76878866D02*
X75472741Y-76878866D01*
X75472741Y-76878866D02*
X75377503Y-76831247D01*
X74758455Y-77259819D02*
X74853693Y-77212200D01*
X74853693Y-77212200D02*
X74901312Y-77116961D01*
X74901312Y-77116961D02*
X74901312Y-76259819D01*
X74234645Y-77259819D02*
X74329883Y-77212200D01*
X74329883Y-77212200D02*
X74377502Y-77116961D01*
X74377502Y-77116961D02*
X74377502Y-76259819D01*
X94091792Y-78869819D02*
X94425125Y-78393628D01*
X94663220Y-78869819D02*
X94663220Y-77869819D01*
X94663220Y-77869819D02*
X94282268Y-77869819D01*
X94282268Y-77869819D02*
X94187030Y-77917438D01*
X94187030Y-77917438D02*
X94139411Y-77965057D01*
X94139411Y-77965057D02*
X94091792Y-78060295D01*
X94091792Y-78060295D02*
X94091792Y-78203152D01*
X94091792Y-78203152D02*
X94139411Y-78298390D01*
X94139411Y-78298390D02*
X94187030Y-78346009D01*
X94187030Y-78346009D02*
X94282268Y-78393628D01*
X94282268Y-78393628D02*
X94663220Y-78393628D01*
X93663220Y-78346009D02*
X93329887Y-78346009D01*
X93187030Y-78869819D02*
X93663220Y-78869819D01*
X93663220Y-78869819D02*
X93663220Y-77869819D01*
X93663220Y-77869819D02*
X93187030Y-77869819D01*
X92901315Y-77869819D02*
X92567982Y-78869819D01*
X92567982Y-78869819D02*
X92234649Y-77869819D01*
X91187029Y-78584104D02*
X90710839Y-78584104D01*
X91282267Y-78869819D02*
X90948934Y-77869819D01*
X90948934Y-77869819D02*
X90615601Y-78869819D01*
M02*
